<svg xmlns="http://www.w3.org/2000/svg" xmlns:xlink="http://www.w3.org/1999/xlink" width="281" height="277" viewBox="0 0 281 277">
  <defs>
    <clipPath id="clip-path">
      <path id="Rectangle_412813" data-name="Rectangle 412813" d="M0,0H266a15,15,0,0,1,15,15V262a15,15,0,0,1-15,15H0a0,0,0,0,1,0,0V0A0,0,0,0,1,0,0Z" transform="translate(1045.585 7758)" fill="#fff" stroke="#707070" stroke-width="1"/>
    </clipPath>
  </defs>
  <g id="Mask_Group_1099359" data-name="Mask Group 1099359" transform="translate(-1045.585 -7758)" clip-path="url(#clip-path)">
    <g id="_4992201_195" data-name="4992201_195" transform="translate(1045.998 7732.541)">
      <rect id="Rectangle_412893" data-name="Rectangle 412893" width="280.535" height="302.459" fill="#00a4b8"/>
      <g id="Group_1209255" data-name="Group 1209255" transform="translate(15.164 126.685)">
        <path id="Path_1247756" data-name="Path 1247756" d="M86.745,114.705h0l-3.175-8.649-1.246.418h0l-.073.031-1.455.488h0l-.086.027,0,0-1.476.493-.055.017h0l-2.971,1h0l-.03.007-1.5.507h0l-.045.022-1.471.5h0l-.091.027h0l-.317.106c-.008,0-.008-.012-.008-.012a2.4,2.4,0,0,0-.093-.256,3.815,3.815,0,0,0-.831-1.422,2.959,2.959,0,0,0-2.954-.8,2.563,2.563,0,0,0-1.055.674.141.141,0,0,0,.01-.019,1.466,1.466,0,0,0-.169.2c-.018.024-.033.06-.05.087a2.363,2.363,0,0,0-.239.413,2.831,2.831,0,0,0-.214.592,1.519,1.519,0,0,0-.043.181,2.041,2.041,0,0,0-.04.444,1.14,1.14,0,0,0,0,.227c.008.133.015.258.03.391a3,3,0,0,0,.111.461.746.746,0,0,0,.033.14c.055.167.111.333.169.5l-.363.126h0l-.053.017-1.478.5,0-.01-.053.024-1.471.5h0l-.091.027h0l-1.435.49h0l-.086.027h0l-1.458.495-.068.022h0l-1.5.507-.033.007h0l-1.44.485h0l-.055.024-1.468.493-.093.031h0l-1.435.485h0l-.091.029h0l-1.43.485h0l-.071.022-1.466.493h0l-.088.034h0l-1.44.483h0l-.091.031h0l-1.438.478h0l-.083.034v0l-1.435.485h0l-.088.024h0l-1.483.5-.048.012h0l-1.438.49h0l-.081.027-1.45.488h0l-.058.024-1.468.49h0l-.05.019-1.478.5h0l-.091.029,0,0-1.438.481h0l-.086.029h0l-1.478.493-.058.024h0l-1.523.512,0,0h0l-1.44.481h0l-.071.027-.353.123a.1.1,0,0,0-.023-.043,2.584,2.584,0,0,0-.093-.256,3.836,3.836,0,0,0-.831-1.415,2.938,2.938,0,0,0-2.956-.8,2.414,2.414,0,0,0-1.048.678.03.03,0,0,1,.013-.024,2.242,2.242,0,0,0-.174.2c-.028.029-.03.06-.053.094a2.6,2.6,0,0,0-.237.4,2.63,2.63,0,0,0-.219.623,1.232,1.232,0,0,0-.043.159,3.163,3.163,0,0,0-.038.432c-.005.085-.005.159-.005.239.008.133.013.251.033.386a3.717,3.717,0,0,0,.108.478,1.057,1.057,0,0,0,.03.121c.06.174.128.35.189.524l-.363.126-.008.007,0,0-.118.036v.007l-1.38.461-.005,0-.081.031h0l-1.44.483h0l-.04.022-1.5.5-.078.024h0l-1.443.49h0l-.083.031h0l-1.44.478h0l-.05.024-1.481.495-.076.027h0l-1.254.427.494,1.328h0l.025.08h0l.509,1.384h0l.03.077h0l.514,1.4.028.068h0l.5,1.381h0l.038.082h0l.5,1.381h0l.028.082h0l.511,1.384h0l.033.082h0l.509,1.381h0l.02.085h.01l.5,1.379h0l.038.085h0l.5,1.376.028.085h0l.514,1.381h0l.03.089h0l.509,1.376h0l.025.089h0l.519,1.408.02.056h0l.511,1.384h0l.025.077h0l.5,1.386h0l.03.08h.01l.506,1.381h0l.028.08h0l.506,1.379h0l.033.087h0l.506,1.384h0l.025.075h0l.519,1.42.02.053h0l1.045,2.844h0l.025.06.514,1.4-.005,0,.04.082h0l.5,1.376h0l.033.085h0l.509,1.384h0l.035.08h0L29.7,163.6l.015.056h0l1.05,2.849h0l.01.024.526,1.439h0l.033.085h0l.506,1.381h0l.028.08h0l.511,1.381h0l.025.08h0l.524,1.41.013.051h0l.509,1.384h0l.033.082.5,1.388h0l.035.08h0l.521,1.422.015.046h0l.5,1.379h0l.03.065.516,1.4h0l.02.08h0l.509,1.388,0-.007.033.089h0l.511,1.379h0l.028.08h0l.509,1.376h0l.03.085h0l3.125,8.965.008.041h0L41.424,196h0l.02.056.516,1.405h0l.033.085h0l.509,1.376h-.008l.038.082h0l.5,1.381h0l.038.087h0l.516,1.422.013.041h0l.514,1.379h0l.028.068.514,1.405h0l.025.075h0l.511,1.386h0l.025.077h0l.506,1.384h0l.033.082.511,1.381h0l.531,1.461h0l.033.085h0l.511,1.379h0l.03.082.506,1.384h0l.033.082h0L48.3,214.7l1.327-.447h.008l1.438-.49h0l.02-.007,1.549-.519.045-.014h0l1.44-.485h0l.083-.034,1.445-.485h0l.01,0,1.564-.526.038-.012h0l1.387-.468h0l.033-.01.02-.007h0l.071-.027,1.461-.49h0l.083-.029h0l1.488-.507.04-.007h0l4.5-1.521h.005l.038-.012,1.488-.5h0l.06-.014,1.468-.5h0l.083-.034h0l1.5-.507.03-.012h0l2.976-.995h0L77.038,205h0l.045-.019,1.481-.5.091-.027h0l1.511-.512.01,0h0l4.583-1.545h0l6.028-2.031h0l.028-.012,1.528-.522.053-.012h0l6.021-2.031h0l.035-.012,1.491-.5h0l.028-.014,1.544-.517.048-.019h0l7.552-2.545h0l1.586-.538.03-.007h0l4.3-1.451-2-5.455h0l-.03-.06-.509-1.4h0l-.035-.085h0l-.516-1.425-.02-.034h0l-1.048-2.852h0v0l-1.609-4.39h0v-.01l-.559-1.509-.01-.034h0l-1.04-2.847h0l-.005,0-.551-1.512-.01-.036h0l-2.123-5.771h0l-.018-.065-.519-1.4h0l-.033-.092h0l-.519-1.427-.01-.034h0l-4.721-13.3h0l-.02-.065-.516-1.405-.028-.082h0l-.524-1.432-.02-.031h0l-1.6-4.375-.01-.024h0l-1.6-4.368-.015-.024h0l-.494-1.381h0l-.028-.051-.514-1.415h0l-.562-1.519-.005-.031h0L91.1,126.464h0l-.02-.06L90.555,125h0l-.033-.08h0L90,123.475l-.008-.029h0l-2.125-5.776h0l0-.019-.531-1.451-.03-.072h0l-.536-1.456v.034Zm-16.69-7.125a1.967,1.967,0,0,1,.4.1,1.521,1.521,0,0,1,.217.082,2.24,2.24,0,0,1,.546.324c.035.034.058.06.1.1a3.542,3.542,0,0,1,.335.353c.073.094.141.191.209.29.035.063.071.133.1.2a6.039,6.039,0,0,1,.355.8.045.045,0,0,1,.008.022l-.695.227h0l-.086.034h0l-.647.217a2.307,2.307,0,0,0-1.579.466.709.709,0,0,1,.053-.068c-.053.034-.086.087-.136.123a.963.963,0,0,0-.106.072l-.624.212-.02.007h0l-.63.212c-.055-.155-.108-.3-.161-.452a2.677,2.677,0,0,1,.209-2.4A2.141,2.141,0,0,1,70.055,107.58ZM30.3,120.964a1.7,1.7,0,0,1,.4.1.947.947,0,0,1,.224.085,2.432,2.432,0,0,1,.539.324c.033.029.063.065.1.092a2.529,2.529,0,0,1,.342.365,1.739,1.739,0,0,1,.191.273c.048.075.083.155.126.225a7.679,7.679,0,0,1,.347.787.262.262,0,0,1,.008.043l-.667.229h0l-.081.029h0l-.6.2a2.308,2.308,0,0,0-1.672.468c.025-.024.035-.046.058-.068a.811.811,0,0,0-.144.133,1.451,1.451,0,0,0-.123.085c-.01,0-.013.017-.02.027l-.471.152h0l-.091.039h0l-.655.222c-.063-.167-.116-.316-.174-.483a2.678,2.678,0,0,1,.214-2.4A2.123,2.123,0,0,1,30.3,120.964Z" transform="translate(-14.442 -104.685)" fill="#d5dade" fill-rule="evenodd"/>
        <path id="Path_1247757" data-name="Path 1247757" d="M68.29,108.135a3.824,3.824,0,0,0-.828-1.417,2.946,2.946,0,0,0-2.954-.8,2.9,2.9,0,0,0-1.617,3.825c.247.678.486,1.369.738,2.05.844,2.369,1.541,4.327,2.39,6.691a5.574,5.574,0,0,0,.587,1.294c.1.13.378.014.327-.138-.035-.094-.073-.191-.106-.29-.385-1.077-.771-2.154-1.163-3.233-.823-2.3-1.506-4.213-2.332-6.517a2.712,2.712,0,0,1,.209-2.4,2.256,2.256,0,0,1,3.284-.449,3.666,3.666,0,0,1,1.136,1.775c.149-.046.292-.094.428-.147C68.358,108.307,68.325,108.215,68.29,108.135Z" transform="translate(-12.476 -104.685)" fill="#e59622" fill-rule="evenodd"/>
        <path id="Path_1247758" data-name="Path 1247758" d="M63.043,109.644c.763,2.115,1.375,3.832,2.133,5.952.514,1.408,1.02,2.823,1.531,4.242-.181.043-.2,0-.242-.123s-.088-.254-.133-.386c-.179-.478-.348-.956-.521-1.439-.511-1.41-1.017-2.825-1.529-4.25-.436-1.21-.718-2.026-1.156-3.24-.083-.232-.169-.459-.252-.686a3.1,3.1,0,0,1,.423-2.941,1.453,1.453,0,0,1,.171-.2,3.157,3.157,0,0,0-.426,3.067Z" transform="translate(-12.476 -104.685)" fill="#87362b" fill-rule="evenodd"/>
        <path id="Path_1247759" data-name="Path 1247759" d="M30.176,121.514a3.706,3.706,0,0,0-.836-1.417,2.765,2.765,0,0,0-4.568,3.023c.247.683.491,1.367.738,2.055.859,2.364,1.544,4.327,2.4,6.693a5.081,5.081,0,0,0,.579,1.289c.091.138.37.017.33-.138a1.745,1.745,0,0,1-.106-.29c-.393-1.074-.781-2.156-1.163-3.231-.831-2.3-1.511-4.206-2.339-6.517a2.716,2.716,0,0,1,.212-2.4,2.249,2.249,0,0,1,3.284-.444,3.63,3.63,0,0,1,1.131,1.767c.151-.051.292-.094.428-.142A2.526,2.526,0,0,0,30.176,121.514Z" transform="translate(-14.11 -104.685)" fill="#e59622" fill-rule="evenodd"/>
        <path id="Path_1247760" data-name="Path 1247760" d="M24.929,123.019c.766,2.11,1.37,3.837,2.13,5.952.509,1.417,1.022,2.825,1.534,4.242-.189.051-.2,0-.247-.121s-.086-.251-.136-.386l-.516-1.432q-.763-2.126-1.531-4.25c-.438-1.222-.72-2.038-1.156-3.248-.086-.229-.166-.461-.252-.688a3.1,3.1,0,0,1,.426-2.943,2.128,2.128,0,0,1,.166-.2,3.149,3.149,0,0,0-.418,3.069Z" transform="translate(-14.111 -104.685)" fill="#87362b" fill-rule="evenodd"/>
        <path id="Path_1247761" data-name="Path 1247761" d="M112.375,191.1,45.982,213.433,14.541,127.268,81.49,104.685Z" transform="translate(-14.541 -104.685)" fill="#dddede" fill-rule="evenodd"/>
        <path id="Path_1247762" data-name="Path 1247762" d="M112.375,191.1,45.982,213.433,14.541,127.268l66.723-22.506Z" transform="translate(-14.541 -104.685)" fill="#feffff" fill-rule="evenodd"/>
        <path id="Path_1247763" data-name="Path 1247763" d="M24.757,139.233a1.43,1.43,0,0,1-.924,1.84,1.525,1.525,0,0,1-1.921-.881,1.436,1.436,0,0,1,.919-1.85A1.535,1.535,0,0,1,24.757,139.233Z" transform="translate(-14.228 -104.685)" fill="#8f8f8f" fill-rule="evenodd"/>
        <path id="Path_1247764" data-name="Path 1247764" d="M24.666,139.247a1.241,1.241,0,0,1-.8,1.6,1.337,1.337,0,0,1-1.667-.773,1.245,1.245,0,0,1,.8-1.6A1.314,1.314,0,0,1,24.666,139.247Z" transform="translate(-14.215 -104.685)" fill="#fff" fill-rule="evenodd"/>
        <path id="Path_1247765" data-name="Path 1247765" d="M45.662,198.9a1.432,1.432,0,0,1-.922,1.842,1.521,1.521,0,0,1-1.924-.879,1.435,1.435,0,0,1,.924-1.845A1.523,1.523,0,0,1,45.662,198.9Z" transform="translate(-13.332 -104.685)" fill="#8f8f8f" fill-rule="evenodd"/>
        <path id="Path_1247766" data-name="Path 1247766" d="M45.557,198.926a1.249,1.249,0,0,1-.8,1.6,1.321,1.321,0,0,1-1.664-.765,1.234,1.234,0,0,1,.793-1.6A1.312,1.312,0,0,1,45.557,198.926Z" transform="translate(-13.32 -104.685)" fill="#fff" fill-rule="evenodd"/>
        <path id="Path_1247767" data-name="Path 1247767" d="M29.773,121.913c.1.266.184.529.282.79q1.454,4.042,2.893,8.062a8.275,8.275,0,0,1,.73,2.581,1.837,1.837,0,0,1-1.811,2,2.479,2.479,0,0,1-2.213-1.8q-1.129-3.151-2.269-6.309c-.191-.534-.385-1.065-.582-1.6a2.652,2.652,0,0,1-.181-1.845,1.7,1.7,0,0,1,2.4-.732,3.165,3.165,0,0,1,1.012,1.627c.441,1.215.675,1.864,1.11,3.079.232.635.662,1.845.891,2.475.065.181.133.365.2.551.013.041.033.072.043.116.04.118.36-.031.413-.082s-.028-.2-.045-.261c-.078-.205-.151-.415-.219-.623-.239-.657-.68-1.879-.914-2.547-.423-1.157-.637-1.758-1.063-2.917a3.343,3.343,0,0,0-1.272-1.818,2.228,2.228,0,0,0-2.609.372c-1.012.985-.292,2.465.1,3.569.806,2.25,1.622,4.5,2.427,6.751a4.383,4.383,0,0,0,1.02,1.753,2.5,2.5,0,0,0,2.82.442,2.112,2.112,0,0,0,1.269-2.195,5.465,5.465,0,0,0-.368-1.507c-.884-2.451-1.763-4.89-2.647-7.338-.325-.915-.65-1.823-.982-2.731C30.068,121.819,29.927,121.862,29.773,121.913Z" transform="translate(-14.047 -104.685)" fill="#e59622" fill-rule="evenodd"/>
        <path id="Path_1247768" data-name="Path 1247768" d="M32.615,135.669a2.506,2.506,0,0,1-2.7-.77,5.065,5.065,0,0,1-.881-1.729c-.325-.9-.645-1.789-.972-2.69-.481-1.34-.967-2.678-1.443-4.023-.426-1.171-1.105-2.762.212-3.644-1.075.971-.446,2.417-.038,3.547.494,1.35.98,2.7,1.468,4.049.37,1.046.75,2.084,1.126,3.129a3.554,3.554,0,0,0,1.209,1.748,2.617,2.617,0,0,0,1.8.418,1.665,1.665,0,0,1,.217-.036Z" transform="translate(-14.047 -104.685)" fill="#87362b" fill-rule="evenodd"/>
        <path id="Path_1247769" data-name="Path 1247769" d="M29.752,121.386a2.68,2.68,0,0,0-2.506-1.772,2.736,2.736,0,0,1,2.281,1.78c.065.171.133.343.194.519.068-.019.133-.041.189-.063C29.863,121.7,29.8,121.543,29.752,121.386Z" transform="translate(-13.996 -104.685)" fill="#87362b" fill-rule="evenodd"/>
        <path id="Path_1247770" data-name="Path 1247770" d="M29.62,121.913c.738,1.927,1.385,3.883,2.085,5.819.448,1.227.879,2.456,1.325,3.682.355.956.924,2.521-.091,3.455a1.174,1.174,0,0,0,.421-.425c.624-1,.232-2.084-.126-3.081-.443-1.224-.881-2.446-1.325-3.67q-1.039-2.919-2.1-5.843C29.756,121.872,29.69,121.891,29.62,121.913Z" transform="translate(-13.894 -104.685)" fill="#87362b" fill-rule="evenodd"/>
        <path id="Path_1247771" data-name="Path 1247771" d="M30.11,124.463q1.133,3.18,2.294,6.367a.311.311,0,0,0,.025.082c-.242.082-.219-.01-.274-.174-.073-.2-.144-.391-.212-.589-.237-.654-.672-1.864-.907-2.521-.423-1.183-.652-1.8-1.075-2.982-.373-1.017-1.058-2.163-2.37-1.729,1.244-.5,2.133.5,2.518,1.545Z" transform="translate(-13.981 -104.685)" fill="#87362b" fill-rule="evenodd"/>
        <path id="Path_1247772" data-name="Path 1247772" d="M67.893,108.533c.1.263.184.534.28.792q1.439,4.035,2.9,8.06a8.7,8.7,0,0,1,.73,2.581,1.83,1.83,0,0,1-1.818,1.994,2.458,2.458,0,0,1-2.208-1.792c-.755-2.106-1.521-4.211-2.269-6.309-.2-.536-.385-1.074-.584-1.608a2.675,2.675,0,0,1-.186-1.842,1.7,1.7,0,0,1,2.395-.729,3.131,3.131,0,0,1,1.017,1.625c.443,1.212.677,1.857,1.11,3.076.232.635.66,1.835.889,2.473.068.184.133.369.2.548a.717.717,0,0,1,.043.123c.043.116.358-.034.413-.085.071-.06-.025-.208-.048-.266q-.106-.311-.227-.623c-.232-.654-.675-1.876-.9-2.543l-1.06-2.917a3.443,3.443,0,0,0-1.277-1.823,2.239,2.239,0,0,0-2.606.369c-1.02.99-.3,2.473.1,3.576q1.209,3.368,2.425,6.746a4.455,4.455,0,0,0,1.017,1.755,2.493,2.493,0,0,0,2.825.437,2.128,2.128,0,0,0,1.267-2.192,5.511,5.511,0,0,0-.37-1.5q-1.322-3.676-2.639-7.35c-.327-.91-.657-1.816-.985-2.731A4.417,4.417,0,0,1,67.893,108.533Z" transform="translate(-12.413 -104.685)" fill="#e59622" fill-rule="evenodd"/>
        <path id="Path_1247773" data-name="Path 1247773" d="M70.73,122.287a2.494,2.494,0,0,1-2.7-.765,5.164,5.164,0,0,1-.881-1.731c-.325-.9-.647-1.794-.98-2.69-.481-1.338-.954-2.683-1.44-4.018-.423-1.183-1.1-2.767.214-3.648-1.078.971-.443,2.415-.038,3.545q.729,2.025,1.461,4.047c.378,1.043.753,2.084,1.128,3.129a3.634,3.634,0,0,0,1.206,1.751,2.637,2.637,0,0,0,1.8.418c.076-.01.154-.024.227-.036Z" transform="translate(-12.412 -104.685)" fill="#87362b" fill-rule="evenodd"/>
        <path id="Path_1247774" data-name="Path 1247774" d="M67.861,108.012a2.657,2.657,0,0,0-2.5-1.772,2.734,2.734,0,0,1,2.284,1.767c.065.176.131.353.2.524.058-.019.126-.039.184-.058C67.977,108.319,67.921,108.164,67.861,108.012Z" transform="translate(-12.361 -104.685)" fill="#87362b" fill-rule="evenodd"/>
        <path id="Path_1247775" data-name="Path 1247775" d="M67.739,108.533c.728,1.932,1.39,3.885,2.088,5.819.441,1.231.876,2.458,1.322,3.682.355.954.927,2.518-.088,3.453a1.363,1.363,0,0,0,.418-.43c.624-.992.227-2.072-.133-3.076-.436-1.222-.871-2.448-1.317-3.665q-1.042-2.926-2.1-5.843C67.865,108.495,67.8,108.514,67.739,108.533Z" transform="translate(-12.26 -104.685)" fill="#87362b" fill-rule="evenodd"/>
        <path id="Path_1247776" data-name="Path 1247776" d="M68.216,111.083q1.148,3.18,2.3,6.365a.658.658,0,0,0,.033.092c-.239.08-.222-.01-.282-.181-.063-.2-.139-.391-.209-.589-.229-.65-.67-1.866-.9-2.521-.423-1.188-.652-1.8-1.075-2.987-.365-1.024-1.055-2.166-2.37-1.724,1.244-.49,2.133.507,2.511,1.545Z" transform="translate(-12.347 -104.685)" fill="#87362b" fill-rule="evenodd"/>
        <path id="Path_1247777" data-name="Path 1247777" d="M52.9,131.274l-25.987,8.555-.113-.319,25.985-8.555Z" transform="translate(-14.015 -104.685)" fill="#e7e8e8" fill-rule="evenodd"/>
        <path id="Path_1247778" data-name="Path 1247778" d="M54.394,135.628l-25.98,8.553-.113-.319,25.982-8.553Z" transform="translate(-13.951 -104.685)" fill="#e7e8e8" fill-rule="evenodd"/>
        <path id="Path_1247779" data-name="Path 1247779" d="M55.891,139.976l-25.985,8.552-.111-.316,25.98-8.55Z" transform="translate(-13.887 -104.685)" fill="#e7e8e8" fill-rule="evenodd"/>
        <path id="Path_1247780" data-name="Path 1247780" d="M57.381,144.325,31.4,152.88l-.116-.311,25.982-8.557Z" transform="translate(-13.823 -104.685)" fill="#e7e8e8" fill-rule="evenodd"/>
        <path id="Path_1247781" data-name="Path 1247781" d="M58.878,148.676,32.9,157.231l-.113-.316,25.985-8.55Z" transform="translate(-13.758 -104.685)" fill="#e7e8e8" fill-rule="evenodd"/>
        <path id="Path_1247782" data-name="Path 1247782" d="M60.373,153.03l-25.99,8.55-.106-.314,25.98-8.552Z" transform="translate(-13.694 -104.685)" fill="#e7e8e8" fill-rule="evenodd"/>
        <path id="Path_1247905" data-name="Path 1247905" d="M0,0,27.357.347l0,.337L0,.337Z" transform="matrix(0.946, -0.325, 0.325, 0.946, 22.138, 60.939)" fill="#e7e8e8"/>
        <path id="Path_1247783" data-name="Path 1247783" d="M63.362,161.732l-25.99,8.55-.108-.314,25.982-8.548Z" transform="translate(-13.566 -104.685)" fill="#e7e8e8" fill-rule="evenodd"/>
        <path id="Path_1247784" data-name="Path 1247784" d="M64.852,166.085l-25.98,8.55-.116-.311,25.985-8.555Z" transform="translate(-13.502 -104.685)" fill="#e7e8e8" fill-rule="evenodd"/>
        <path id="Path_1247785" data-name="Path 1247785" d="M66.344,170.432l-25.982,8.557-.111-.316,25.977-8.555Z" transform="translate(-13.438 -104.685)" fill="#e7e8e8" fill-rule="evenodd"/>
        <path id="Path_1247906" data-name="Path 1247906" d="M0,0,19.138.243l.147,11.223L.147,11.223Z" transform="matrix(0.946, -0.324, 0.324, 0.946, 45.854, 23.946)" fill="#e7e8e8"/>
        <path id="Path_1247786" data-name="Path 1247786" d="M81.284,136.012,63.105,142l-.116-.319,18.181-5.986Z" transform="translate(-12.463 -104.685)" fill="#e7e8e8" fill-rule="evenodd"/>
        <path id="Path_1247787" data-name="Path 1247787" d="M82.781,140.363,64.6,146.344l-.113-.307,18.181-5.988Z" transform="translate(-12.399 -104.685)" fill="#e7e8e8" fill-rule="evenodd"/>
        <path id="Path_1247788" data-name="Path 1247788" d="M84.271,144.714,66.09,150.7l-.113-.321L84.157,144.4Z" transform="translate(-12.335 -104.685)" fill="#e7e8e8" fill-rule="evenodd"/>
      </g>
      <g id="Group_1209257" data-name="Group 1209257" transform="translate(24.675 81.411)">
        <path id="Path_1247789" data-name="Path 1247789" d="M95.906,133.406l11.651-53.338.642-3.011.531-2.388L36.536,60.179l-.521,2.393-.66,3.009L23.709,118.916Z" transform="translate(-23.659 -59.411)" fill="#d5dade"/>
        <g id="Group_1209256" data-name="Group 1209256">
          <path id="Path_1247907" data-name="Path 1247907" d="M0,0,58.491.5l.6,72.934L.6,72.934Z" transform="translate(0 58.594) rotate(-78.177)" fill="#d4d2bc"/>
          <path id="Path_1247908" data-name="Path 1247908" d="M0,0,58.484.5l.6,72.936L.6,72.936Z" transform="translate(0.072 58.247) rotate(-78.177)" fill="#dedcc5"/>
          <path id="Path_1247909" data-name="Path 1247909" d="M0,0,58.486.5l.6,72.936L.6,72.936Z" transform="translate(0.148 57.905) rotate(-78.177)" fill="#e3e1ca"/>
          <path id="Path_1247910" data-name="Path 1247910" d="M0,0,58.488.5l.6,72.936L.6,72.936Z" transform="translate(0.228 57.529) rotate(-78.177)" fill="#ebe9d1"/>
          <path id="Path_1247911" data-name="Path 1247911" d="M0,0,58.488.5l.6,72.936L.6,72.936Z" transform="translate(0.325 57.145) rotate(-78.177)" fill="#fdfbe2"/>
          <path id="Path_1247912" data-name="Path 1247912" d="M0,0,4.2.036,4.8,73,.6,72.968Z" transform="matrix(0.205, -0.979, 0.979, 0.205, 11.149, 7.486)" fill="#dedcc8"/>
        </g>
      </g>
      <g id="Group_1209318" data-name="Group 1209318" transform="translate(167.416 120.083)">
        <g id="Group_1209316" data-name="Group 1209316">
          <path id="Path_1247790" data-name="Path 1247790" d="M233.71,116.449,185.029,99.9a2.043,2.043,0,0,0-2.571,1.173l-20.143,54.476c-.008.027-.018.051-.025.07l-.677,1.833a1.92,1.92,0,0,0,1.224,2.465l48.68,16.55a2.043,2.043,0,0,0,2.571-1.176l20.14-54.476c.01-.024.018-.046.025-.07l.68-1.83A1.919,1.919,0,0,0,233.71,116.449Z" transform="translate(-160.491 -98.083)" fill="#d5dade"/>
          <g id="Group_1209315" data-name="Group 1209315">
            <path id="Path_1247791" data-name="Path 1247791" d="M213.123,173.585a2.039,2.039,0,0,1-2.571,1.173l-48.68-16.547a1.918,1.918,0,0,1-1.224-2.465l20.143-54.48a2.041,2.041,0,0,1,2.571-1.173l48.68,16.55a1.913,1.913,0,0,1,1.224,2.465Z" transform="translate(-160.532 -98.083)" fill="#174354"/>
            <path id="Path_1247792" data-name="Path 1247792" d="M213.792,171.685a2.038,2.038,0,0,1-2.568,1.173l-48.683-16.55a1.915,1.915,0,0,1-1.224-2.463l20.143-54.478a2.043,2.043,0,0,1,2.571-1.173l48.683,16.547a1.917,1.917,0,0,1,1.224,2.465Z" transform="translate(-160.504 -98.083)" fill="#205569"/>
            <g id="Group_1209259" data-name="Group 1209259" transform="translate(49.108 40.92)">
              <g id="Group_1209258" data-name="Group 1209258">
                <path id="Path_1247793" data-name="Path 1247793" d="M207.719,144.523a1.44,1.44,0,0,0,.831,1.9l6.079,2.069a1.539,1.539,0,0,0,1.868-.978l1.657-4.479a1.44,1.44,0,0,0-.811-1.886l-6.081-2.069a1.528,1.528,0,0,0-1.886.971Z" transform="translate(-207.621 -139.003)" fill="#fbfcfc"/>
              </g>
            </g>
            <g id="Group_1209261" data-name="Group 1209261" transform="translate(45.769 49.958)">
              <g id="Group_1209260" data-name="Group 1209260">
                <path id="Path_1247794" data-name="Path 1247794" d="M204.518,153.561a1.442,1.442,0,0,0,.828,1.9l6.081,2.064a1.532,1.532,0,0,0,1.868-.975l1.654-4.479a1.437,1.437,0,0,0-.808-1.886l-6.081-2.064a1.525,1.525,0,0,0-1.889.966Z" transform="translate(-204.419 -148.042)" fill="#fbfcfc"/>
              </g>
            </g>
            <g id="Group_1209263" data-name="Group 1209263" transform="translate(42.334 59.272)">
              <g id="Group_1209262" data-name="Group 1209262">
                <path id="Path_1247795" data-name="Path 1247795" d="M201.224,162.874a1.44,1.44,0,0,0,.828,1.9l6.081,2.067a1.532,1.532,0,0,0,1.868-.975l1.657-4.479a1.441,1.441,0,0,0-.811-1.888l-6.081-2.064a1.529,1.529,0,0,0-1.889.968Z" transform="translate(-201.126 -157.355)" fill="#fbfcfc"/>
              </g>
            </g>
            <path id="Path_1247796" data-name="Path 1247796" d="M228.965,117.723c.083-.227-.123-.471-.415-.572l-44.427-15.113c-.327-.111-.63-.039-.71.188L178.8,114.717c-.076.215.1.468.428.58l44.425,15.1c.29.1.617.019.7-.2Z" transform="translate(-159.75 -98.083)" fill="#174354"/>
            <path id="Path_1247797" data-name="Path 1247797" d="M228.757,117.646c.083-.225-.121-.471-.41-.57L184.307,102.1c-.325-.109-.622-.034-.705.193l-4.414,11.94c-.078.215.1.471.421.582l44.042,14.973c.287.1.612.012.69-.2Z" transform="translate(-159.733 -98.083)" fill="#81c784"/>
            <g id="Group_1209267" data-name="Group 1209267" transform="translate(9.379 37.685)">
              <g id="Group_1209265" data-name="Group 1209265">
                <g id="Group_1209264" data-name="Group 1209264">
                  <path id="Path_1247798" data-name="Path 1247798" d="M169.629,141.287a1.447,1.447,0,0,0,.8,1.91l6.1,2.074a1.553,1.553,0,0,0,1.866-1l1.652-4.477a1.452,1.452,0,0,0-.8-1.881l-6.1-2.074a1.535,1.535,0,0,0-1.866.978Z" transform="translate(-169.526 -135.768)" fill="#fbfcfc"/>
                </g>
              </g>
              <g id="Group_1209266" data-name="Group 1209266" transform="translate(3.379 2.462)">
                <path id="Path_1247799" data-name="Path 1247799" d="M175.363,143.349l-2.6-.881.171-.471,1,.34,1.138-3.083-1-.34.156-.418a3.851,3.851,0,0,0,.448.113,1.117,1.117,0,0,0,.385.024.649.649,0,0,0,.3-.116.632.632,0,0,0,.217-.287l.5.169-1.531,4.151.98.333Z" transform="translate(-172.766 -138.231)"/>
              </g>
            </g>
            <g id="Group_1209271" data-name="Group 1209271" transform="translate(21.382 41.766)">
              <g id="Group_1209269" data-name="Group 1209269">
                <g id="Group_1209268" data-name="Group 1209268">
                  <path id="Path_1247800" data-name="Path 1247800" d="M181.137,145.368a1.453,1.453,0,0,0,.8,1.912l6.1,2.074a1.563,1.563,0,0,0,1.871-1l1.654-4.474a1.46,1.46,0,0,0-.806-1.886l-6.1-2.074a1.542,1.542,0,0,0-1.873.975Z" transform="translate(-181.035 -139.849)" fill="#fbfcfc"/>
                </g>
              </g>
              <g id="Group_1209270" data-name="Group 1209270" transform="translate(2.801 2.113)">
                <path id="Path_1247801" data-name="Path 1247801" d="M186.972,147.457l-3.251-1.1.242-.65c.295-.106.587-.217.884-.326s.577-.222.839-.338a7.013,7.013,0,0,0,1.186-.625,1.4,1.4,0,0,0,.5-.654.712.712,0,0,0-.04-.645,1.072,1.072,0,0,0-.612-.437,2.614,2.614,0,0,0-.672-.118,2.822,2.822,0,0,0-.781.077l-.035-.012.242-.647a3.1,3.1,0,0,1,.682.007,3.514,3.514,0,0,1,.776.159,1.822,1.822,0,0,1,1.03.739,1.165,1.165,0,0,1,.076,1.067,1.747,1.747,0,0,1-.617.826,3.058,3.058,0,0,1-.436.278c-.159.085-.345.174-.562.273-.312.138-.627.263-.944.384l-.894.333,2.579.874Z" transform="translate(-183.721 -141.962)"/>
              </g>
            </g>
            <g id="Group_1209275" data-name="Group 1209275" transform="translate(33.381 45.849)">
              <g id="Group_1209273" data-name="Group 1209273">
                <g id="Group_1209272" data-name="Group 1209272">
                  <path id="Path_1247802" data-name="Path 1247802" d="M192.643,149.449a1.452,1.452,0,0,0,.806,1.91l6.1,2.074a1.561,1.561,0,0,0,1.863-1l1.654-4.474a1.459,1.459,0,0,0-.8-1.881l-6.1-2.072a1.543,1.543,0,0,0-1.873.973Z" transform="translate(-192.541 -143.932)" fill="#fbfcfc"/>
                </g>
              </g>
              <g id="Group_1209274" data-name="Group 1209274" transform="translate(2.819 2.107)">
                <path id="Path_1247803" data-name="Path 1247803" d="M198.8,149.152a1.036,1.036,0,0,1,.131.423,1.24,1.24,0,0,1-.091.553,1.486,1.486,0,0,1-.332.538,1.546,1.546,0,0,1-.506.343,1.709,1.709,0,0,1-.685.13,2.411,2.411,0,0,1-.755-.142,3.508,3.508,0,0,1-.753-.36,3.645,3.645,0,0,1-.564-.413l.239-.645.05.014a2.788,2.788,0,0,0,.539.509,2.518,2.518,0,0,0,.675.355,1.637,1.637,0,0,0,.456.082,1.061,1.061,0,0,0,.443-.065.943.943,0,0,0,.33-.225,1.083,1.083,0,0,0,.227-.389.932.932,0,0,0,.068-.439.66.66,0,0,0-.131-.336.9.9,0,0,0-.3-.246,2.258,2.258,0,0,0-.433-.186l-.287-.1.189-.514.227.077a1.447,1.447,0,0,0,.854.068.712.712,0,0,0,.5-.473.591.591,0,0,0,.035-.319.6.6,0,0,0-.128-.275.964.964,0,0,0-.257-.21,1.9,1.9,0,0,0-.348-.152,2.328,2.328,0,0,0-.69-.121,3.1,3.1,0,0,0-.76.075l-.033-.01.239-.647a3.121,3.121,0,0,1,.682.01,3.257,3.257,0,0,1,.776.159,2.838,2.838,0,0,1,.594.27,1.614,1.614,0,0,1,.41.362,1.089,1.089,0,0,1,.219.476,1.041,1.041,0,0,1-.06.531,1.006,1.006,0,0,1-.529.575,1.363,1.363,0,0,1-.8.133l-.015.046a1.74,1.74,0,0,1,.315.225A1.209,1.209,0,0,1,198.8,149.152Z" transform="translate(-195.244 -146.039)"/>
              </g>
            </g>
            <g id="Group_1209279" data-name="Group 1209279" transform="translate(12.573 28.522)">
              <g id="Group_1209277" data-name="Group 1209277">
                <g id="Group_1209276" data-name="Group 1209276">
                  <path id="Path_1247804" data-name="Path 1247804" d="M172.688,132.124a1.452,1.452,0,0,0,.813,1.905l6.084,2.069a1.52,1.52,0,0,0,1.876-.992l1.649-4.469a1.418,1.418,0,0,0-.806-1.891l-6.084-2.072a1.547,1.547,0,0,0-1.884.978Z" transform="translate(-172.588 -126.605)" fill="#fbfcfc"/>
                </g>
              </g>
              <g id="Group_1209278" data-name="Group 1209278" transform="translate(3.238 2.696)">
                <path id="Path_1247805" data-name="Path 1247805" d="M179.322,133.054l-.713-.241-.478,1.294-.617-.21.476-1.3-2.3-.78.262-.712,3.284-1.806.592.2-1.04,2.813.713.241Zm-1.148-.947.768-2.077-2.626,1.444Z" transform="translate(-175.693 -129.301)"/>
              </g>
            </g>
            <g id="Group_1209282" data-name="Group 1209282" transform="translate(24.67 32.637)">
              <g id="Group_1209280" data-name="Group 1209280">
                <path id="Path_1247806" data-name="Path 1247806" d="M184.288,136.239a1.446,1.446,0,0,0,.821,1.905l6.1,2.072a1.539,1.539,0,0,0,1.848-1l1.652-4.472a1.437,1.437,0,0,0-.783-1.881l-6.1-2.072a1.535,1.535,0,0,0-1.884.973Z" transform="translate(-184.188 -130.72)" fill="#fbfcfc"/>
              </g>
              <g id="Group_1209281" data-name="Group 1209281" transform="translate(2.963 2.017)">
                <path id="Path_1247807" data-name="Path 1247807" d="M190.635,136.878a1.7,1.7,0,0,1-.353.572,1.6,1.6,0,0,1-.516.382,1.793,1.793,0,0,1-.677.145,2.4,2.4,0,0,1-.786-.138,3.549,3.549,0,0,1-.728-.34,2.928,2.928,0,0,1-.546-.4l.242-.652.045.014a2.861,2.861,0,0,0,.519.483,2.39,2.39,0,0,0,.655.353,1.825,1.825,0,0,0,.466.089,1,1,0,0,0,.463-.089.9.9,0,0,0,.332-.244,1.32,1.32,0,0,0,.232-.408.864.864,0,0,0,.06-.43.68.68,0,0,0-.139-.343,1.081,1.081,0,0,0-.347-.307,3.081,3.081,0,0,0-.519-.229,4.505,4.505,0,0,0-.562-.15c-.184-.036-.345-.06-.481-.08l.879-2.371,2.888.985-.2.538-2.266-.768-.453,1.224c.1.024.191.051.29.077s.181.056.254.08a3.391,3.391,0,0,1,.662.295,1.681,1.681,0,0,1,.456.408,1.2,1.2,0,0,1,.237.572A1.57,1.57,0,0,1,190.635,136.878Z" transform="translate(-187.029 -132.737)"/>
              </g>
            </g>
            <g id="Group_1209286" data-name="Group 1209286" transform="translate(36.669 36.712)">
              <g id="Group_1209284" data-name="Group 1209284">
                <g id="Group_1209283" data-name="Group 1209283">
                  <path id="Path_1247808" data-name="Path 1247808" d="M195.794,140.314a1.45,1.45,0,0,0,.8,1.9l6.119,2.077a1.545,1.545,0,0,0,1.858-.995l1.652-4.469a1.443,1.443,0,0,0-.793-1.883l-6.117-2.079a1.532,1.532,0,0,0-1.863.98Z" transform="translate(-195.694 -134.795)" fill="#fbfcfc"/>
                </g>
              </g>
              <g id="Group_1209285" data-name="Group 1209285" transform="translate(3.358 2.479)">
                <path id="Path_1247809" data-name="Path 1247809" d="M202.341,141a1.64,1.64,0,0,1-.907.98,1.807,1.807,0,0,1-1.345.041,1.959,1.959,0,0,1-.607-.324,1.566,1.566,0,0,1-.4-.488,1.71,1.71,0,0,1-.174-.826,3.223,3.223,0,0,1,.227-1.07,4.184,4.184,0,0,1,.539-1.038,2.671,2.671,0,0,1,.748-.693,2.077,2.077,0,0,1,.934-.3,2.809,2.809,0,0,1,1.113.157c.128.046.232.087.315.123a1.415,1.415,0,0,1,.242.15l-.219.589-.033-.012a1.159,1.159,0,0,0-.242-.181,1.633,1.633,0,0,0-.355-.167,1.592,1.592,0,0,0-1.259.041,1.962,1.962,0,0,0-.9.959,3.181,3.181,0,0,1,.622-.058,2.292,2.292,0,0,1,.64.126,2.673,2.673,0,0,1,.519.239,1.526,1.526,0,0,1,.4.379,1.276,1.276,0,0,1,.252.623A1.688,1.688,0,0,1,202.341,141Zm-.662-.2a1.17,1.17,0,0,0,.086-.5.846.846,0,0,0-.169-.425.87.87,0,0,0-.282-.244,2.154,2.154,0,0,0-.365-.157,2.079,2.079,0,0,0-.531-.113,2.332,2.332,0,0,0-.557.031.994.994,0,0,0-.055.128,1.265,1.265,0,0,0-.063.155,2.415,2.415,0,0,0-.179.806,1.13,1.13,0,0,0,.123.548,1.017,1.017,0,0,0,.247.307,1.206,1.206,0,0,0,1.191.167A1.2,1.2,0,0,0,201.679,140.795Z" transform="translate(-198.914 -137.274)"/>
              </g>
            </g>
            <g id="Group_1209289" data-name="Group 1209289" transform="translate(16.109 19.223)">
              <g id="Group_1209287" data-name="Group 1209287">
                <path id="Path_1247810" data-name="Path 1247810" d="M176.081,122.825a1.438,1.438,0,0,0,.851,1.912L183,126.8a1.528,1.528,0,0,0,1.858-.99l1.652-4.477a1.436,1.436,0,0,0-.791-1.886l-6.066-2.064a1.543,1.543,0,0,0-1.916.968Z" transform="translate(-175.979 -117.307)" fill="#fbfcfc"/>
              </g>
              <g id="Group_1209288" data-name="Group 1209288" transform="translate(3.27 2.148)">
                <path id="Path_1247811" data-name="Path 1247811" d="M183.425,121.261l-3.621,3.178-.69-.237,3.815-3.277-2.735-.93.2-.541,3.286,1.116Z" transform="translate(-179.114 -119.455)"/>
              </g>
            </g>
            <g id="Group_1209293" data-name="Group 1209293" transform="translate(28.118 23.302)">
              <g id="Group_1209291" data-name="Group 1209291">
                <g id="Group_1209290" data-name="Group 1209290">
                  <path id="Path_1247812" data-name="Path 1247812" d="M187.6,126.909a1.434,1.434,0,0,0,.821,1.9l6.094,2.074a1.525,1.525,0,0,0,1.848-.995l1.652-4.474a1.437,1.437,0,0,0-.783-1.886l-6.1-2.072a1.542,1.542,0,0,0-1.886.978Z" transform="translate(-187.494 -121.385)" fill="#fbfcfc"/>
                </g>
              </g>
              <g id="Group_1209292" data-name="Group 1209292" transform="translate(2.996 2.418)">
                <path id="Path_1247813" data-name="Path 1247813" d="M193.877,127.94a1.37,1.37,0,0,1-.851.828,1.991,1.991,0,0,1-1.367-.022,1.919,1.919,0,0,1-1.1-.806,1.283,1.283,0,0,1-.1-1.149,1.265,1.265,0,0,1,.489-.613,1.677,1.677,0,0,1,.836-.268l.005-.022a1.764,1.764,0,0,1-.41-.625.978.978,0,0,1,.033-.652,1.167,1.167,0,0,1,.766-.715,2.179,2.179,0,0,1,2.284.758,1.058,1.058,0,0,1,.118.99,1.215,1.215,0,0,1-.433.543,1.445,1.445,0,0,1-.768.268l-.008.017a1.907,1.907,0,0,1,.521.693A1.059,1.059,0,0,1,193.877,127.94Zm-.685-.167a.785.785,0,0,0,.038-.5,1.406,1.406,0,0,0-.38-.517c-.086-.08-.179-.159-.285-.241s-.247-.188-.421-.326a1.372,1.372,0,0,0-.617.251,1.156,1.156,0,0,0-.393.529.911.911,0,0,0,.045.79,1.135,1.135,0,0,0,.662.534,1.236,1.236,0,0,0,.836.024A.859.859,0,0,0,193.192,127.773Zm.753-2.337a.654.654,0,0,0-.071-.621,1.12,1.12,0,0,0-.6-.427,1.2,1.2,0,0,0-.735-.041.633.633,0,0,0-.443.413.612.612,0,0,0-.013.427,1.151,1.151,0,0,0,.287.425c.063.065.159.152.287.263s.257.208.383.295a1.358,1.358,0,0,0,.6-.273A1.131,1.131,0,0,0,193.945,125.436Z" transform="translate(-190.367 -123.804)"/>
              </g>
            </g>
            <g id="Group_1209297" data-name="Group 1209297" transform="translate(40.254 27.764)">
              <g id="Group_1209295" data-name="Group 1209295">
                <g id="Group_1209294" data-name="Group 1209294">
                  <path id="Path_1247814" data-name="Path 1247814" d="M199.23,131.371a1.445,1.445,0,0,0,.818,1.891l6.1,2.069a1.531,1.531,0,0,0,1.863-.978l1.654-4.479a1.428,1.428,0,0,0-.806-1.881l-6.094-2.074a1.533,1.533,0,0,0-1.879.973Z" transform="translate(-199.131 -125.848)" fill="#fbfcfc"/>
                </g>
              </g>
              <g id="Group_1209296" data-name="Group 1209296" transform="translate(3.067 2.094)">
                <path id="Path_1247815" data-name="Path 1247815" d="M205.963,130.76a4.36,4.36,0,0,1-.549,1.048,2.5,2.5,0,0,1-.743.691,2.21,2.21,0,0,1-.937.292,2.706,2.706,0,0,1-1.105-.159c-.113-.039-.217-.08-.312-.123a1.711,1.711,0,0,1-.244-.147l.219-.589.033.012a1.371,1.371,0,0,0,.234.176,1.52,1.52,0,0,0,.365.169,1.629,1.629,0,0,0,1.269-.027,1.985,1.985,0,0,0,.886-.973,2.593,2.593,0,0,1-.657.056,2.23,2.23,0,0,1-.6-.123,2.505,2.505,0,0,1-.516-.237,1.472,1.472,0,0,1-.4-.382,1.234,1.234,0,0,1-.254-.623,1.8,1.8,0,0,1,1.022-1.729,1.825,1.825,0,0,1,1.342-.043,2.034,2.034,0,0,1,.6.324,1.524,1.524,0,0,1,.405.488,1.718,1.718,0,0,1,.179.8A3.2,3.2,0,0,1,205.963,130.76Zm-.6-.353a2.5,2.5,0,0,0,.181-.8,1.14,1.14,0,0,0-.116-.548,1.008,1.008,0,0,0-.254-.311,1.321,1.321,0,0,0-.355-.188,1.039,1.039,0,0,0-.836.031,1.158,1.158,0,0,0-.559.691,1.183,1.183,0,0,0-.091.507.778.778,0,0,0,.174.423.855.855,0,0,0,.272.241,2.382,2.382,0,0,0,.373.162,2.262,2.262,0,0,0,1.09.085c.018-.046.038-.085.053-.126A1.281,1.281,0,0,0,205.361,130.407Z" transform="translate(-202.072 -127.941)"/>
              </g>
            </g>
            <g id="Group_1209298" data-name="Group 1209298" transform="translate(44.948 62.11)">
              <path id="Path_1247816" data-name="Path 1247816" d="M208.308,163.973l-4.676-1.586.227-.606,4.674,1.589Zm.589-1.584-4.676-1.589.224-.606,4.676,1.589Z" transform="translate(-203.632 -160.194)"/>
            </g>
            <g id="Group_1209302" data-name="Group 1209302" transform="translate(5.992 46.87)">
              <g id="Group_1209300" data-name="Group 1209300">
                <g id="Group_1209299" data-name="Group 1209299">
                  <path id="Path_1247817" data-name="Path 1247817" d="M166.379,150.473a1.452,1.452,0,0,0,.8,1.91l6.1,2.074a1.555,1.555,0,0,0,1.868-1l1.652-4.474a1.449,1.449,0,0,0-.8-1.881l-6.1-2.074a1.535,1.535,0,0,0-1.866.975Z" transform="translate(-166.278 -144.953)" fill="#fbfcfc"/>
                </g>
              </g>
              <g id="Group_1209301" data-name="Group 1209301" transform="translate(3.346 2.347)">
                <path id="Path_1247818" data-name="Path 1247818" d="M173.134,150.371a3.544,3.544,0,0,1-1.08,1.683,1.55,1.55,0,0,1-1.471.152,1.454,1.454,0,0,1-1.045-1.017,3.448,3.448,0,0,1,.269-1.941,3.531,3.531,0,0,1,1.073-1.676,1.536,1.536,0,0,1,1.473-.157,1.45,1.45,0,0,1,1.045,1.024A3.457,3.457,0,0,1,173.134,150.371Zm-1.367,1.116a2.255,2.255,0,0,0,.368-.538,7.658,7.658,0,0,0,.342-.8,7.337,7.337,0,0,0,.262-.828,2.052,2.052,0,0,0,.06-.642.794.794,0,0,0-.176-.461.931.931,0,0,0-.458-.29,1,1,0,0,0-.546-.051.933.933,0,0,0-.448.261,2.046,2.046,0,0,0-.368.543,8.244,8.244,0,0,0-.34.794,7.976,7.976,0,0,0-.262.816,2.039,2.039,0,0,0-.065.635.836.836,0,0,0,.166.471.944.944,0,0,0,.471.3,1.077,1.077,0,0,0,.549.051A.886.886,0,0,0,171.766,151.487Z" transform="translate(-169.486 -147.301)"/>
              </g>
            </g>
            <g id="Group_1209306" data-name="Group 1209306" transform="translate(17.992 50.949)">
              <g id="Group_1209304" data-name="Group 1209304">
                <g id="Group_1209303" data-name="Group 1209303">
                  <path id="Path_1247819" data-name="Path 1247819" d="M177.887,154.553a1.449,1.449,0,0,0,.8,1.91l6.1,2.074a1.555,1.555,0,0,0,1.866-1l1.654-4.477a1.452,1.452,0,0,0-.8-1.881l-6.1-2.074a1.538,1.538,0,0,0-1.866.975Z" transform="translate(-177.784 -149.032)" fill="#fbfcfc"/>
                </g>
              </g>
              <g id="Group_1209305" data-name="Group 1209305" transform="translate(3.495 5.939)">
                <path id="Path_1247820" data-name="Path 1247820" d="M183.263,155.249l-1.654,1.717-.473-.159,1.309-1.835Z" transform="translate(-181.135 -154.971)"/>
              </g>
            </g>
            <g id="Group_1209310" data-name="Group 1209310" transform="translate(30.239 55.111)">
              <g id="Group_1209308" data-name="Group 1209308">
                <g id="Group_1209307" data-name="Group 1209307">
                  <path id="Path_1247821" data-name="Path 1247821" d="M189.629,158.716a1.456,1.456,0,0,0,.8,1.912l6.1,2.072a1.558,1.558,0,0,0,1.868-1l1.652-4.477a1.452,1.452,0,0,0-.8-1.883l-6.1-2.072a1.536,1.536,0,0,0-1.866.975Z" transform="translate(-189.528 -153.195)" fill="#fbfcfc"/>
                </g>
              </g>
              <g id="Group_1209309" data-name="Group 1209309" transform="translate(3.272 2.839)">
                <path id="Path_1247822" data-name="Path 1247822" d="M196.714,158.989l-1.758-.594-.622,1.683-.536-.181.622-1.685-1.755-.6.181-.493,1.755.6.622-1.683.536.181-.619,1.685,1.755.6Z" transform="translate(-192.665 -156.033)"/>
              </g>
            </g>
            <g id="Group_1209311" data-name="Group 1209311" transform="translate(52.326 44.737)">
              <path id="Path_1247823" data-name="Path 1247823" d="M214.305,144.6l-3.6-1.222.206-.558,3.6,1.222Z" transform="translate(-210.707 -142.821)"/>
            </g>
            <g id="Group_1209312" data-name="Group 1209312" transform="translate(49.045 53.642)">
              <path id="Path_1247824" data-name="Path 1247824" d="M211.159,153.508l-3.6-1.222.206-.56,3.6,1.222Z" transform="translate(-207.561 -151.726)"/>
            </g>
            <g id="Group_1209314" data-name="Group 1209314" transform="translate(52.554 31.576)">
              <g id="Group_1209313" data-name="Group 1209313">
                <path id="Path_1247825" data-name="Path 1247825" d="M211.027,135.176a1.44,1.44,0,0,0,.851,1.912l6.066,2.062a1.522,1.522,0,0,0,1.856-.988l1.652-4.477a1.439,1.439,0,0,0-.791-1.888l-6.066-2.062a1.544,1.544,0,0,0-1.916.966Z" transform="translate(-210.926 -129.66)" fill="#fbfcfc"/>
              </g>
            </g>
            <path id="Path_1247826" data-name="Path 1247826" d="M212.525,144.834a.359.359,0,0,1-.453.208.338.338,0,0,1-.217-.435.361.361,0,0,1,.453-.208A.338.338,0,0,1,212.525,144.834Z" transform="translate(-158.332 -98.083)"/>
            <path id="Path_1247827" data-name="Path 1247827" d="M213.263,142.751a.356.356,0,0,1-.453.205.334.334,0,0,1-.217-.432.359.359,0,0,1,.453-.208A.341.341,0,0,1,213.263,142.751Z" transform="translate(-158.301 -98.083)"/>
          </g>
        </g>
        <g id="Group_1209317" data-name="Group 1209317" transform="translate(55.668 34.352)">
          <path id="Path_1247828" data-name="Path 1247828" d="M215.848,132.694l.317.831c.083.215.149.41.212.623l.025.007c.194-.138.378-.251.567-.369l.776-.456.758.251-1.846,1.017.791,2.009-.8-.263-.32-.869c-.091-.225-.159-.437-.227-.662l-.015,0c-.194.14-.39.254-.594.386l-.808.493-.776-.256,1.934-1.079-.776-1.915Z" transform="translate(-213.911 -132.436)"/>
        </g>
      </g>
      <path id="Path_1247829" data-name="Path 1247829" d="M65.916,65.411V210.777H191.493V65.411Z" transform="translate(2.826 22)" fill="#d5dade"/>
      <g id="Group_1209448" data-name="Group 1209448" transform="translate(67.078 85.878)">
        <g id="Group_1209319" data-name="Group 1209319">
          <rect id="Rectangle_412902" data-name="Rectangle 412902" width="125.577" height="145.366" fill="#f9faf9"/>
        </g>
        <rect id="Rectangle_412903" data-name="Rectangle 412903" width="60.105" height="33.261" transform="translate(10.546 14.517)" fill="#24c2cb"/>
        <rect id="Rectangle_412904" data-name="Rectangle 412904" width="125.577" height="9.576" fill="#464646"/>
        <rect id="Rectangle_412905" data-name="Rectangle 412905" width="40.283" height="2.163" transform="translate(76.644 14.517)" fill="#8da9b0"/>
        <g id="Group_1209322" data-name="Group 1209322" transform="translate(76.581 78.969)">
          <g id="Group_1209320" data-name="Group 1209320">
            <rect id="Rectangle_412906" data-name="Rectangle 412906" width="40.288" height="0.637" fill="#c0d2d6"/>
          </g>
          <g id="Group_1209321" data-name="Group 1209321" transform="translate(0 1.63)">
            <rect id="Rectangle_412907" data-name="Rectangle 412907" width="24.219" height="0.64" fill="#c0d2d6"/>
          </g>
        </g>
        <g id="Group_1209323" data-name="Group 1209323" transform="translate(76.644 19.155)">
          <rect id="Rectangle_412908" data-name="Rectangle 412908" width="23.64" height="1.014" fill="#c0d2d6"/>
          <rect id="Rectangle_412909" data-name="Rectangle 412909" width="15.147" height="1.014" transform="translate(25.138)" fill="#c0d2d6"/>
          <rect id="Rectangle_412910" data-name="Rectangle 412910" width="11.379" height="1.014" transform="translate(0 3.112)" fill="#c0d2d6"/>
          <rect id="Rectangle_412911" data-name="Rectangle 412911" width="27.213" height="1.014" transform="translate(13.072 3.112)" fill="#c0d2d6"/>
          <rect id="Rectangle_412912" data-name="Rectangle 412912" width="21.392" height="1.017" transform="translate(0 6.225)" fill="#c0d2d6"/>
          <rect id="Rectangle_412913" data-name="Rectangle 412913" width="17.101" height="1.017" transform="translate(23.182 6.225)" fill="#c0d2d6"/>
          <rect id="Rectangle_412914" data-name="Rectangle 412914" width="12.193" height="1.014" transform="translate(0 9.337)" fill="#c0d2d6"/>
          <rect id="Rectangle_412915" data-name="Rectangle 412915" width="11.921" height="1.014" transform="translate(13.631 9.337)" fill="#c0d2d6"/>
          <rect id="Rectangle_412916" data-name="Rectangle 412916" width="13.107" height="1.014" transform="translate(27.176 9.337)" fill="#c0d2d6"/>
          <rect id="Rectangle_412917" data-name="Rectangle 412917" width="16.008" height="1.017" transform="translate(24.275 12.45)" fill="#c0d2d6"/>
          <rect id="Rectangle_412918" data-name="Rectangle 412918" width="22.472" height="1.017" transform="translate(0 12.45)" fill="#c0d2d6"/>
          <rect id="Rectangle_412919" data-name="Rectangle 412919" width="6.912" height="1.014" transform="translate(33.37 15.562)" fill="#c0d2d6"/>
          <rect id="Rectangle_412920" data-name="Rectangle 412920" width="31.731" height="1.014" transform="translate(0 15.562)" fill="#c0d2d6"/>
          <rect id="Rectangle_412921" data-name="Rectangle 412921" width="38.286" height="1.014" transform="translate(0 18.677)" fill="#c0d2d6"/>
        </g>
        <g id="Group_1209411" data-name="Group 1209411" transform="translate(10.48 84.786)">
          <g id="Group_1209348" data-name="Group 1209348">
            <g id="Group_1209324" data-name="Group 1209324" transform="translate(0.071 37.68)">
              <rect id="Rectangle_412922" data-name="Rectangle 412922" width="102.667" height="0.116" fill="#d0d7d9"/>
            </g>
            <g id="Group_1209325" data-name="Group 1209325" transform="translate(0.071 36.038)">
              <rect id="Rectangle_412923" data-name="Rectangle 412923" width="102.667" height="0.123" fill="#d0d7d9"/>
            </g>
            <g id="Group_1209326" data-name="Group 1209326" transform="translate(0.071 34.401)">
              <rect id="Rectangle_412924" data-name="Rectangle 412924" width="102.667" height="0.118" fill="#d0d7d9"/>
            </g>
            <g id="Group_1209327" data-name="Group 1209327" transform="translate(0.071 32.764)">
              <rect id="Rectangle_412925" data-name="Rectangle 412925" width="102.667" height="0.121" fill="#d0d7d9"/>
            </g>
            <g id="Group_1209328" data-name="Group 1209328" transform="translate(0.071 31.122)">
              <rect id="Rectangle_412926" data-name="Rectangle 412926" width="102.667" height="0.123" fill="#d0d7d9"/>
            </g>
            <g id="Group_1209329" data-name="Group 1209329" transform="translate(0.071 29.485)">
              <rect id="Rectangle_412927" data-name="Rectangle 412927" width="102.667" height="0.123" fill="#d0d7d9"/>
            </g>
            <g id="Group_1209330" data-name="Group 1209330" transform="translate(0.071 27.847)">
              <rect id="Rectangle_412928" data-name="Rectangle 412928" width="102.667" height="0.121" fill="#d0d7d9"/>
            </g>
            <g id="Group_1209331" data-name="Group 1209331" transform="translate(0.071 26.213)">
              <rect id="Rectangle_412929" data-name="Rectangle 412929" width="102.667" height="0.118" fill="#d0d7d9"/>
            </g>
            <g id="Group_1209332" data-name="Group 1209332" transform="translate(0.071 24.571)">
              <rect id="Rectangle_412930" data-name="Rectangle 412930" width="102.667" height="0.121" fill="#d0d7d9"/>
            </g>
            <g id="Group_1209333" data-name="Group 1209333" transform="translate(0.071 22.931)">
              <rect id="Rectangle_412931" data-name="Rectangle 412931" width="102.667" height="0.121" fill="#d0d7d9"/>
            </g>
            <g id="Group_1209334" data-name="Group 1209334" transform="translate(0.071 21.297)">
              <rect id="Rectangle_412932" data-name="Rectangle 412932" width="102.667" height="0.118" fill="#d0d7d9"/>
            </g>
            <g id="Group_1209335" data-name="Group 1209335" transform="translate(0.071 19.657)">
              <rect id="Rectangle_412933" data-name="Rectangle 412933" width="102.667" height="0.121" fill="#d0d7d9"/>
            </g>
            <g id="Group_1209336" data-name="Group 1209336" transform="translate(0.071 18.02)">
              <rect id="Rectangle_412934" data-name="Rectangle 412934" width="102.667" height="0.118" fill="#d0d7d9"/>
            </g>
            <g id="Group_1209337" data-name="Group 1209337" transform="translate(0.071 16.383)">
              <rect id="Rectangle_412935" data-name="Rectangle 412935" width="102.667" height="0.118" fill="#d0d7d9"/>
            </g>
            <g id="Group_1209338" data-name="Group 1209338" transform="translate(0.071 14.743)">
              <rect id="Rectangle_412936" data-name="Rectangle 412936" width="102.667" height="0.118" fill="#d0d7d9"/>
            </g>
            <g id="Group_1209339" data-name="Group 1209339" transform="translate(0.071 13.104)">
              <rect id="Rectangle_412937" data-name="Rectangle 412937" width="102.667" height="0.121" fill="#d0d7d9"/>
            </g>
            <g id="Group_1209340" data-name="Group 1209340" transform="translate(0.071 11.464)">
              <rect id="Rectangle_412938" data-name="Rectangle 412938" width="102.667" height="0.121" fill="#d0d7d9"/>
            </g>
            <g id="Group_1209341" data-name="Group 1209341" transform="translate(0.071 9.827)">
              <rect id="Rectangle_412939" data-name="Rectangle 412939" width="102.667" height="0.123" fill="#d0d7d9"/>
            </g>
            <g id="Group_1209342" data-name="Group 1209342" transform="translate(0.071 8.19)">
              <rect id="Rectangle_412940" data-name="Rectangle 412940" width="102.667" height="0.118" fill="#d0d7d9"/>
            </g>
            <g id="Group_1209343" data-name="Group 1209343" transform="translate(0.071 6.553)">
              <rect id="Rectangle_412941" data-name="Rectangle 412941" width="102.667" height="0.118" fill="#d0d7d9"/>
            </g>
            <g id="Group_1209344" data-name="Group 1209344" transform="translate(0.071 4.914)">
              <rect id="Rectangle_412942" data-name="Rectangle 412942" width="102.667" height="0.121" fill="#d0d7d9"/>
            </g>
            <g id="Group_1209345" data-name="Group 1209345" transform="translate(0.071 3.274)">
              <rect id="Rectangle_412943" data-name="Rectangle 412943" width="102.667" height="0.123" fill="#d0d7d9"/>
            </g>
            <g id="Group_1209346" data-name="Group 1209346" transform="translate(0.071 1.637)">
              <rect id="Rectangle_412944" data-name="Rectangle 412944" width="102.667" height="0.118" fill="#d0d7d9"/>
            </g>
            <g id="Group_1209347" data-name="Group 1209347">
              <rect id="Rectangle_412945" data-name="Rectangle 412945" width="102.82" height="0.118" fill="#d0d7d9"/>
            </g>
          </g>
          <g id="Group_1209410" data-name="Group 1209410" transform="translate(1.74 0.058)">
            <g id="Group_1209373" data-name="Group 1209373" transform="translate(29.623)">
              <g id="Group_1209349" data-name="Group 1209349" transform="translate(39.993)">
                <rect id="Rectangle_412946" data-name="Rectangle 412946" width="0.123" height="37.692" fill="#d0d7d9"/>
              </g>
              <g id="Group_1209350" data-name="Group 1209350" transform="translate(38.253)">
                <rect id="Rectangle_412947" data-name="Rectangle 412947" width="0.126" height="37.692" fill="#d0d7d9"/>
              </g>
              <g id="Group_1209351" data-name="Group 1209351" transform="translate(36.515)">
                <rect id="Rectangle_412948" data-name="Rectangle 412948" width="0.126" height="37.692" fill="#d0d7d9"/>
              </g>
              <g id="Group_1209352" data-name="Group 1209352" transform="translate(34.775)">
                <rect id="Rectangle_412949" data-name="Rectangle 412949" width="0.126" height="37.692" fill="#d0d7d9"/>
              </g>
              <g id="Group_1209353" data-name="Group 1209353" transform="translate(33.038)">
                <rect id="Rectangle_412950" data-name="Rectangle 412950" width="0.126" height="37.692" fill="#d0d7d9"/>
              </g>
              <g id="Group_1209354" data-name="Group 1209354" transform="translate(31.298)">
                <rect id="Rectangle_412951" data-name="Rectangle 412951" width="0.123" height="37.692" fill="#d0d7d9"/>
              </g>
              <g id="Group_1209355" data-name="Group 1209355" transform="translate(29.56)">
                <rect id="Rectangle_412952" data-name="Rectangle 412952" width="0.126" height="37.692" fill="#d0d7d9"/>
              </g>
              <g id="Group_1209356" data-name="Group 1209356" transform="translate(27.823)">
                <rect id="Rectangle_412953" data-name="Rectangle 412953" width="0.123" height="37.692" fill="#d0d7d9"/>
              </g>
              <g id="Group_1209357" data-name="Group 1209357" transform="translate(26.083)">
                <rect id="Rectangle_412954" data-name="Rectangle 412954" width="0.123" height="37.692" fill="#d0d7d9"/>
              </g>
              <g id="Group_1209358" data-name="Group 1209358" transform="translate(24.343)">
                <rect id="Rectangle_412955" data-name="Rectangle 412955" width="0.123" height="37.692" fill="#d0d7d9"/>
              </g>
              <g id="Group_1209359" data-name="Group 1209359" transform="translate(22.605)">
                <rect id="Rectangle_412956" data-name="Rectangle 412956" width="0.126" height="37.692" fill="#d0d7d9"/>
              </g>
              <g id="Group_1209360" data-name="Group 1209360" transform="translate(20.868)">
                <rect id="Rectangle_412957" data-name="Rectangle 412957" width="0.123" height="37.692" fill="#d0d7d9"/>
              </g>
              <g id="Group_1209361" data-name="Group 1209361" transform="translate(19.125)">
                <rect id="Rectangle_412958" data-name="Rectangle 412958" width="0.126" height="37.692" fill="#d0d7d9"/>
              </g>
              <g id="Group_1209362" data-name="Group 1209362" transform="translate(17.388)">
                <rect id="Rectangle_412959" data-name="Rectangle 412959" width="0.123" height="37.692" fill="#d0d7d9"/>
              </g>
              <g id="Group_1209363" data-name="Group 1209363" transform="translate(15.65)">
                <rect id="Rectangle_412960" data-name="Rectangle 412960" width="0.128" height="37.692" fill="#d0d7d9"/>
              </g>
              <g id="Group_1209364" data-name="Group 1209364" transform="translate(13.91)">
                <rect id="Rectangle_412961" data-name="Rectangle 412961" width="0.126" height="37.692" fill="#d0d7d9"/>
              </g>
              <g id="Group_1209365" data-name="Group 1209365" transform="translate(12.17)">
                <rect id="Rectangle_412962" data-name="Rectangle 412962" width="0.126" height="37.692" fill="#d0d7d9"/>
              </g>
              <g id="Group_1209366" data-name="Group 1209366" transform="translate(10.433)">
                <rect id="Rectangle_412963" data-name="Rectangle 412963" width="0.123" height="37.692" fill="#d0d7d9"/>
              </g>
              <g id="Group_1209367" data-name="Group 1209367" transform="translate(8.695)">
                <rect id="Rectangle_412964" data-name="Rectangle 412964" width="0.123" height="37.692" fill="#d0d7d9"/>
              </g>
              <g id="Group_1209368" data-name="Group 1209368" transform="translate(6.955)">
                <rect id="Rectangle_412965" data-name="Rectangle 412965" width="0.123" height="37.692" fill="#d0d7d9"/>
              </g>
              <g id="Group_1209369" data-name="Group 1209369" transform="translate(5.218)">
                <rect id="Rectangle_412966" data-name="Rectangle 412966" width="0.126" height="37.692" fill="#d0d7d9"/>
              </g>
              <g id="Group_1209370" data-name="Group 1209370" transform="translate(3.478)">
                <rect id="Rectangle_412967" data-name="Rectangle 412967" width="0.123" height="37.692" fill="#d0d7d9"/>
              </g>
              <g id="Group_1209371" data-name="Group 1209371" transform="translate(1.738)">
                <rect id="Rectangle_412968" data-name="Rectangle 412968" width="0.126" height="37.692" fill="#d0d7d9"/>
              </g>
              <g id="Group_1209372" data-name="Group 1209372">
                <rect id="Rectangle_412969" data-name="Rectangle 412969" width="0.123" height="37.692" fill="#d0d7d9"/>
              </g>
            </g>
            <g id="Group_1209391" data-name="Group 1209391" transform="translate(71.397)">
              <g id="Group_1209374" data-name="Group 1209374" transform="translate(27.823)">
                <rect id="Rectangle_412970" data-name="Rectangle 412970" width="0.123" height="37.692" fill="#d0d7d9"/>
              </g>
              <g id="Group_1209375" data-name="Group 1209375" transform="translate(26.08)">
                <rect id="Rectangle_412971" data-name="Rectangle 412971" width="0.123" height="37.692" fill="#d0d7d9"/>
              </g>
              <g id="Group_1209376" data-name="Group 1209376" transform="translate(24.345)">
                <rect id="Rectangle_412972" data-name="Rectangle 412972" width="0.123" height="37.692" fill="#d0d7d9"/>
              </g>
              <g id="Group_1209377" data-name="Group 1209377" transform="translate(22.603)">
                <rect id="Rectangle_412973" data-name="Rectangle 412973" width="0.126" height="37.692" fill="#d0d7d9"/>
              </g>
              <g id="Group_1209378" data-name="Group 1209378" transform="translate(20.865)">
                <rect id="Rectangle_412974" data-name="Rectangle 412974" width="0.126" height="37.692" fill="#d0d7d9"/>
              </g>
              <g id="Group_1209379" data-name="Group 1209379" transform="translate(19.125)">
                <rect id="Rectangle_412975" data-name="Rectangle 412975" width="0.123" height="37.692" fill="#d0d7d9"/>
              </g>
              <g id="Group_1209380" data-name="Group 1209380" transform="translate(17.39)">
                <rect id="Rectangle_412976" data-name="Rectangle 412976" width="0.123" height="37.692" fill="#d0d7d9"/>
              </g>
              <g id="Group_1209381" data-name="Group 1209381" transform="translate(15.65)">
                <rect id="Rectangle_412977" data-name="Rectangle 412977" width="0.126" height="37.692" fill="#d0d7d9"/>
              </g>
              <g id="Group_1209382" data-name="Group 1209382" transform="translate(13.91)">
                <rect id="Rectangle_412978" data-name="Rectangle 412978" width="0.126" height="37.692" fill="#d0d7d9"/>
              </g>
              <g id="Group_1209383" data-name="Group 1209383" transform="translate(12.173)">
                <rect id="Rectangle_412979" data-name="Rectangle 412979" width="0.123" height="37.692" fill="#d0d7d9"/>
              </g>
              <g id="Group_1209384" data-name="Group 1209384" transform="translate(10.433)">
                <rect id="Rectangle_412980" data-name="Rectangle 412980" width="0.126" height="37.692" fill="#d0d7d9"/>
              </g>
              <g id="Group_1209385" data-name="Group 1209385" transform="translate(8.695)">
                <rect id="Rectangle_412981" data-name="Rectangle 412981" width="0.126" height="37.692" fill="#d0d7d9"/>
              </g>
              <g id="Group_1209386" data-name="Group 1209386" transform="translate(6.953)">
                <rect id="Rectangle_412982" data-name="Rectangle 412982" width="0.128" height="37.692" fill="#d0d7d9"/>
              </g>
              <g id="Group_1209387" data-name="Group 1209387" transform="translate(5.215)">
                <rect id="Rectangle_412983" data-name="Rectangle 412983" width="0.126" height="37.692" fill="#d0d7d9"/>
              </g>
              <g id="Group_1209388" data-name="Group 1209388" transform="translate(3.478)">
                <rect id="Rectangle_412984" data-name="Rectangle 412984" width="0.123" height="37.692" fill="#d0d7d9"/>
              </g>
              <g id="Group_1209389" data-name="Group 1209389" transform="translate(1.738)">
                <rect id="Rectangle_412985" data-name="Rectangle 412985" width="0.126" height="37.692" fill="#d0d7d9"/>
              </g>
              <g id="Group_1209390" data-name="Group 1209390">
                <rect id="Rectangle_412986" data-name="Rectangle 412986" width="0.128" height="37.692" fill="#d0d7d9"/>
              </g>
            </g>
            <g id="Group_1209409" data-name="Group 1209409" transform="translate(0 0.007)">
              <g id="Group_1209392" data-name="Group 1209392" transform="translate(27.82)">
                <rect id="Rectangle_412987" data-name="Rectangle 412987" width="0.123" height="37.689" fill="#d0d7d9"/>
              </g>
              <g id="Group_1209393" data-name="Group 1209393" transform="translate(26.083)">
                <rect id="Rectangle_412988" data-name="Rectangle 412988" width="0.123" height="37.689" fill="#d0d7d9"/>
              </g>
              <g id="Group_1209394" data-name="Group 1209394" transform="translate(24.343)">
                <rect id="Rectangle_412989" data-name="Rectangle 412989" width="0.123" height="37.689" fill="#d0d7d9"/>
              </g>
              <g id="Group_1209395" data-name="Group 1209395" transform="translate(22.603)">
                <rect id="Rectangle_412990" data-name="Rectangle 412990" width="0.126" height="37.689" fill="#d0d7d9"/>
              </g>
              <g id="Group_1209396" data-name="Group 1209396" transform="translate(20.865)">
                <rect id="Rectangle_412991" data-name="Rectangle 412991" width="0.123" height="37.689" fill="#d0d7d9"/>
              </g>
              <g id="Group_1209397" data-name="Group 1209397" transform="translate(19.125)">
                <rect id="Rectangle_412992" data-name="Rectangle 412992" width="0.123" height="37.689" fill="#d0d7d9"/>
              </g>
              <g id="Group_1209398" data-name="Group 1209398" transform="translate(17.388)">
                <rect id="Rectangle_412993" data-name="Rectangle 412993" width="0.123" height="37.689" fill="#d0d7d9"/>
              </g>
              <g id="Group_1209399" data-name="Group 1209399" transform="translate(15.648)">
                <rect id="Rectangle_412994" data-name="Rectangle 412994" width="0.126" height="37.689" fill="#d0d7d9"/>
              </g>
              <g id="Group_1209400" data-name="Group 1209400" transform="translate(13.908)">
                <rect id="Rectangle_412995" data-name="Rectangle 412995" width="0.126" height="37.689" fill="#d0d7d9"/>
              </g>
              <g id="Group_1209401" data-name="Group 1209401" transform="translate(12.17)">
                <rect id="Rectangle_412996" data-name="Rectangle 412996" width="0.123" height="37.689" fill="#d0d7d9"/>
              </g>
              <g id="Group_1209402" data-name="Group 1209402" transform="translate(10.433)">
                <rect id="Rectangle_412997" data-name="Rectangle 412997" width="0.123" height="37.689" fill="#d0d7d9"/>
              </g>
              <g id="Group_1209403" data-name="Group 1209403" transform="translate(8.693)">
                <rect id="Rectangle_412998" data-name="Rectangle 412998" width="0.123" height="37.689" fill="#d0d7d9"/>
              </g>
              <g id="Group_1209404" data-name="Group 1209404" transform="translate(6.953)">
                <rect id="Rectangle_412999" data-name="Rectangle 412999" width="0.126" height="37.689" fill="#d0d7d9"/>
              </g>
              <g id="Group_1209405" data-name="Group 1209405" transform="translate(5.218)">
                <rect id="Rectangle_413000" data-name="Rectangle 413000" width="0.123" height="37.689" fill="#d0d7d9"/>
              </g>
              <g id="Group_1209406" data-name="Group 1209406" transform="translate(3.475)">
                <rect id="Rectangle_413001" data-name="Rectangle 413001" width="0.126" height="37.689" fill="#d0d7d9"/>
              </g>
              <g id="Group_1209407" data-name="Group 1209407" transform="translate(1.738)">
                <rect id="Rectangle_413002" data-name="Rectangle 413002" width="0.123" height="37.689" fill="#d0d7d9"/>
              </g>
              <g id="Group_1209408" data-name="Group 1209408">
                <rect id="Rectangle_413003" data-name="Rectangle 413003" width="0.126" height="37.689" fill="#d0d7d9"/>
              </g>
            </g>
          </g>
        </g>
        <g id="Group_1209425" data-name="Group 1209425" transform="translate(10.541 89.103)">
          <g id="Group_1209412" data-name="Group 1209412" transform="translate(57.224 17.677)">
            <path id="Path_1247830" data-name="Path 1247830" d="M130.18,172.356a.849.849,0,1,1,.881-.85A.866.866,0,0,1,130.18,172.356Zm0-1.219a.37.37,0,1,0,.383.369A.377.377,0,0,0,130.18,171.137Z" transform="translate(-129.299 -170.659)" fill="#f04e54"/>
          </g>
          <g id="Group_1209413" data-name="Group 1209413" transform="translate(39.61 19.945)">
            <path id="Path_1247831" data-name="Path 1247831" d="M113.29,174.626a.85.85,0,1,1,.881-.85A.866.866,0,0,1,113.29,174.626Zm0-1.222a.37.37,0,1,0,.383.369A.376.376,0,0,0,113.29,173.4Z" transform="translate(-112.409 -172.926)" fill="#f04e54"/>
          </g>
          <g id="Group_1209424" data-name="Group 1209424">
            <g id="Group_1209414" data-name="Group 1209414" transform="translate(0 0.698)">
              <path id="Path_1247832" data-name="Path 1247832" d="M163.642,155.036a.8.8,0,0,1-.018.485l8.214-1.369a.786.786,0,0,1-.073-.473Z" transform="translate(-70.603 -153.679)" fill="#f04e54"/>
              <path id="Path_1247833" data-name="Path 1247833" d="M154.8,162.613l8.234-6.705a.662.662,0,0,1-.342-.348l-8.219,6.691A.629.629,0,0,1,154.8,162.613Z" transform="translate(-70.995 -153.679)" fill="#f04e54"/>
              <path id="Path_1247834" data-name="Path 1247834" d="M113.883,173.638l6.557-4.578a.713.713,0,0,1-.28-.4l-6.545,4.578A.693.693,0,0,1,113.883,173.638Z" transform="translate(-72.747 -153.679)" fill="#f04e54"/>
              <path id="Path_1247835" data-name="Path 1247835" d="M81.01,182.232l-6.582,4.124.269.406,6.577-4.124A.7.7,0,0,1,81.01,182.232Z" transform="translate(-74.427 -153.679)" fill="#f04e54"/>
              <path id="Path_1247836" data-name="Path 1247836" d="M97.342,176.132l8.373-4.877a.711.711,0,0,1-.234-.425l-8.259,4.807A.785.785,0,0,1,97.342,176.132Z" transform="translate(-73.45 -153.679)" fill="#f04e54"/>
              <path id="Path_1247837" data-name="Path 1247837" d="M96.308,175.7l-6.235-1.85a.763.763,0,0,1-.1.471l6.247,1.854A.76.76,0,0,1,96.308,175.7Z" transform="translate(-73.761 -153.679)" fill="#f04e54"/>
              <path id="Path_1247838" data-name="Path 1247838" d="M89.036,174.2l-7.3,7.21a.655.655,0,0,1,.322.36l7.3-7.2A.646.646,0,0,1,89.036,174.2Z" transform="translate(-74.114 -153.679)" fill="#f04e54"/>
              <path id="Path_1247839" data-name="Path 1247839" d="M106.51,170.637a.776.776,0,0,1-.111.473l6.383,2.617a.728.728,0,0,1,.214-.437Z" transform="translate(-73.056 -153.679)" fill="#f04e54"/>
              <path id="Path_1247840" data-name="Path 1247840" d="M121.249,168.413a.756.756,0,0,1-.123.464l8.688,2.69a.773.773,0,0,1,.113-.466Z" transform="translate(-72.425 -153.679)" fill="#f04e54"/>
              <path id="Path_1247841" data-name="Path 1247841" d="M154.023,162.582l-12.246.857a.837.837,0,0,1,.063.476l12.137-.852A.829.829,0,0,1,154.023,162.582Z" transform="translate(-71.539 -153.679)" fill="#f04e54"/>
              <path id="Path_1247842" data-name="Path 1247842" d="M140.906,163.893l-10.39,7a.677.677,0,0,1,.3.381l10.322-6.956A.679.679,0,0,1,140.906,163.893Z" transform="translate(-72.022 -153.679)" fill="#f04e54"/>
            </g>
            <g id="Group_1209415" data-name="Group 1209415" transform="translate(6.419 28.244)">
              <path id="Path_1247843" data-name="Path 1247843" d="M81.461,182.925a.85.85,0,1,1,.881-.852A.864.864,0,0,1,81.461,182.925Zm0-1.219a.369.369,0,1,0,.385.367A.375.375,0,0,0,81.461,181.705Z" transform="translate(-80.582 -181.225)" fill="#f04e54"/>
            </g>
            <g id="Group_1209416" data-name="Group 1209416" transform="translate(14.688 20.073)">
              <path id="Path_1247844" data-name="Path 1247844" d="M89.4,174.754a.85.85,0,1,1,.879-.85A.868.868,0,0,1,89.4,174.754Zm0-1.219a.37.37,0,1,0,.383.369A.378.378,0,0,0,89.4,173.534Z" transform="translate(-88.512 -173.054)" fill="#f04e54"/>
            </g>
            <g id="Group_1209417" data-name="Group 1209417" transform="translate(22.376 22.236)">
              <path id="Path_1247845" data-name="Path 1247845" d="M96.765,176.92a.852.852,0,1,1,.881-.85A.866.866,0,0,1,96.765,176.92Zm0-1.217a.37.37,0,1,0,.383.369A.374.374,0,0,0,96.765,175.7Z" transform="translate(-95.883 -175.217)" fill="#f04e54"/>
            </g>
            <g id="Group_1209418" data-name="Group 1209418" transform="translate(31.857 16.81)">
              <path id="Path_1247846" data-name="Path 1247846" d="M105.853,171.492a.851.851,0,1,1,.884-.852A.867.867,0,0,1,105.853,171.492Zm0-1.219a.371.371,0,1,0,.385.369A.379.379,0,0,0,105.853,170.272Z" transform="translate(-104.974 -169.792)" fill="#f04e54"/>
            </g>
            <g id="Group_1209419" data-name="Group 1209419" transform="translate(47.263 14.637)">
              <path id="Path_1247847" data-name="Path 1247847" d="M120.628,169.318a.851.851,0,1,1,.884-.852A.869.869,0,0,1,120.628,169.318Zm0-1.222a.371.371,0,1,0,.385.369A.382.382,0,0,0,120.628,168.1Z" transform="translate(-119.747 -167.619)" fill="#f04e54"/>
            </g>
            <g id="Group_1209420" data-name="Group 1209420" transform="translate(68.71 9.924)">
              <path id="Path_1247848" data-name="Path 1247848" d="M141.2,164.605a.85.85,0,1,1,.881-.85A.868.868,0,0,1,141.2,164.605Zm0-1.219a.371.371,0,1,0,.383.369A.377.377,0,0,0,141.2,163.386Z" transform="translate(-140.312 -162.905)" fill="#f04e54"/>
            </g>
            <g id="Group_1209421" data-name="Group 1209421" transform="translate(82.33 9.026)">
              <path id="Path_1247849" data-name="Path 1247849" d="M154.254,163.707a.851.851,0,1,1,.884-.852A.869.869,0,0,1,154.254,163.707Zm0-1.222a.37.37,0,1,0,.383.369A.375.375,0,0,0,154.254,162.485Z" transform="translate(-153.372 -162.007)" fill="#f04e54"/>
            </g>
            <g id="Group_1209422" data-name="Group 1209422" transform="translate(91.479 1.442)">
              <path id="Path_1247850" data-name="Path 1247850" d="M163.029,156.123a.85.85,0,1,1,.879-.85A.871.871,0,0,1,163.029,156.123Zm0-1.217a.372.372,0,0,0-.383.367.382.382,0,1,0,.383-.367Z" transform="translate(-162.145 -154.423)" fill="#f04e54"/>
            </g>
            <g id="Group_1209423" data-name="Group 1209423" transform="translate(100.818)">
              <path id="Path_1247851" data-name="Path 1247851" d="M171.982,154.679a.849.849,0,1,1,.881-.85A.864.864,0,0,1,171.982,154.679Zm0-1.217a.37.37,0,1,0,.383.367A.377.377,0,0,0,171.982,153.462Z" transform="translate(-171.1 -152.981)" fill="#f04e54"/>
            </g>
          </g>
        </g>
        <g id="Group_1209436" data-name="Group 1209436" transform="translate(10.546 99.628)">
          <g id="Group_1209426" data-name="Group 1209426" transform="translate(0 0.698)">
            <path id="Path_1247852" data-name="Path 1247852" d="M162.741,167.577a.752.752,0,0,1,.174.449l8.715-3.12a.772.772,0,0,1-.073-.485Z" transform="translate(-70.646 -164.204)" fill="#31bdb4"/>
            <path id="Path_1247853" data-name="Path 1247853" d="M86.809,182.384l-12.377,3.948.159.454,12.414-3.96A.731.731,0,0,1,86.809,182.384Z" transform="translate(-74.432 -164.204)" fill="#31bdb4"/>
            <path id="Path_1247854" data-name="Path 1247854" d="M95.218,174.662l-7.831,7.053a.674.674,0,0,1,.28.4l7.814-7.036A.706.706,0,0,1,95.218,174.662Z" transform="translate(-73.877 -164.204)" fill="#31bdb4"/>
            <path id="Path_1247855" data-name="Path 1247855" d="M104.728,176.765l-8.463-2.352a.786.786,0,0,1-.1.471l8.456,2.347A.741.741,0,0,1,104.728,176.765Z" transform="translate(-73.5 -164.204)" fill="#31bdb4"/>
            <path id="Path_1247856" data-name="Path 1247856" d="M110.87,174.775l-5.318,2a.761.761,0,0,1,.1.473l5.434-2.043A.715.715,0,0,1,110.87,174.775Z" transform="translate(-73.098 -164.204)" fill="#31bdb4"/>
            <path id="Path_1247857" data-name="Path 1247857" d="M122.245,175.886l-10.221-1.306a.759.759,0,0,1-.088.471l10.327,1.318A.811.811,0,0,1,122.245,175.886Z" transform="translate(-72.824 -164.204)" fill="#31bdb4"/>
            <path id="Path_1247858" data-name="Path 1247858" d="M134.152,166.875l-11.218,8.659a.751.751,0,0,1,.244.43l11.228-8.673A.661.661,0,0,1,134.152,166.875Z" transform="translate(-72.352 -164.204)" fill="#31bdb4"/>
            <path id="Path_1247859" data-name="Path 1247859" d="M151.19,164.342a.739.739,0,0,1-.128.464l10.916,3.231a.782.782,0,0,1,.169-.452Z" transform="translate(-71.146 -164.204)" fill="#31bdb4"/>
            <path id="Path_1247860" data-name="Path 1247860" d="M150.5,164.685a.789.789,0,0,1-.043-.48l-15.481,2.18a.766.766,0,0,1,.063.473Z" transform="translate(-71.836 -164.204)" fill="#31bdb4"/>
          </g>
          <g id="Group_1209427" data-name="Group 1209427" transform="translate(37.656 10.33)">
            <path id="Path_1247861" data-name="Path 1247861" d="M111.421,175.538a.852.852,0,1,1,.881-.85A.867.867,0,0,1,111.421,175.538Zm0-1.219a.369.369,0,1,0,.385.369A.379.379,0,0,0,111.421,174.319Z" transform="translate(-110.54 -173.836)" fill="#31bdb4"/>
          </g>
          <g id="Group_1209428" data-name="Group 1209428" transform="translate(30.953 12.819)">
            <path id="Path_1247862" data-name="Path 1247862" d="M105,178.025a.85.85,0,1,1,.881-.848A.867.867,0,0,1,105,178.025Zm0-1.217a.37.37,0,1,0,.385.372A.377.377,0,0,0,105,176.808Z" transform="translate(-104.112 -176.326)" fill="#31bdb4"/>
          </g>
          <g id="Group_1209429" data-name="Group 1209429" transform="translate(49.229 11.711)">
            <path id="Path_1247863" data-name="Path 1247863" d="M122.521,176.917a.851.851,0,1,1,.884-.85A.868.868,0,0,1,122.521,176.917Zm0-1.217a.369.369,0,1,0,.385.367A.376.376,0,0,0,122.521,175.7Z" transform="translate(-121.637 -175.217)" fill="#31bdb4"/>
          </g>
          <g id="Group_1209430" data-name="Group 1209430" transform="translate(61.573 2.376)">
            <path id="Path_1247864" data-name="Path 1247864" d="M134.358,167.582a.85.85,0,1,1,.881-.848A.867.867,0,0,1,134.358,167.582Zm0-1.219a.369.369,0,1,0,.383.369A.376.376,0,0,0,134.358,166.363Z" transform="translate(-133.474 -165.882)" fill="#31bdb4"/>
          </g>
          <g id="Group_1209431" data-name="Group 1209431" transform="translate(78.435)">
            <path id="Path_1247865" data-name="Path 1247865" d="M150.523,165.209a.852.852,0,1,1,.886-.85A.867.867,0,0,1,150.523,165.209Zm0-1.224a.372.372,0,1,0,.383.374A.377.377,0,0,0,150.523,163.985Z" transform="translate(-149.642 -163.507)" fill="#31bdb4"/>
          </g>
          <g id="Group_1209432" data-name="Group 1209432" transform="translate(90.743 3.634)">
            <path id="Path_1247866" data-name="Path 1247866" d="M162.326,168.84a.851.851,0,1,1,.884-.85A.869.869,0,0,1,162.326,168.84Zm0-1.219a.37.37,0,1,0,.385.367A.375.375,0,0,0,162.326,167.621Z" transform="translate(-161.444 -167.14)" fill="#31bdb4"/>
          </g>
          <g id="Group_1209433" data-name="Group 1209433" transform="translate(100.738 0.128)">
            <path id="Path_1247867" data-name="Path 1247867" d="M171.917,165.337a.852.852,0,1,1,.881-.85A.874.874,0,0,1,171.917,165.337Zm0-1.222a.371.371,0,1,0,.383.372A.382.382,0,0,0,171.917,164.115Z" transform="translate(-171.028 -163.634)" fill="#31bdb4"/>
          </g>
          <g id="Group_1209434" data-name="Group 1209434" transform="translate(12.175 17.986)">
            <path id="Path_1247868" data-name="Path 1247868" d="M86.991,183.2a.852.852,0,1,1,.884-.852A.87.87,0,0,1,86.991,183.2Zm0-1.224a.371.371,0,1,0,.383.372A.377.377,0,0,0,86.991,181.971Z" transform="translate(-86.107 -181.493)" fill="#31bdb4"/>
          </g>
          <g id="Group_1209435" data-name="Group 1209435" transform="translate(21.127 10.151)">
            <path id="Path_1247869" data-name="Path 1247869" d="M95.572,175.36a.852.852,0,1,1,.884-.85A.867.867,0,0,1,95.572,175.36Zm0-1.219a.37.37,0,1,0,.383.369A.374.374,0,0,0,95.572,174.14Z" transform="translate(-94.691 -173.657)" fill="#31bdb4"/>
          </g>
        </g>
        <g id="Group_1209438" data-name="Group 1209438" transform="translate(19.78 126.092)">
          <path id="Path_1247870" data-name="Path 1247870" d="M88.106,192.281a2.412,2.412,0,1,1-2.41-2.311A2.364,2.364,0,0,1,88.106,192.281Z" transform="translate(-83.287 -189.97)" fill="#31bdb4"/>
          <g id="Group_1209437" data-name="Group 1209437" transform="translate(6.444)">
            <rect id="Rectangle_413004" data-name="Rectangle 413004" width="30.595" height="0.811" fill="#c0d2d6"/>
            <rect id="Rectangle_413005" data-name="Rectangle 413005" width="17.556" height="0.809" transform="translate(13.041 1.908)" fill="#c0d2d6"/>
            <rect id="Rectangle_413006" data-name="Rectangle 413006" width="10.936" height="0.809" transform="translate(0 1.908)" fill="#c0d2d6"/>
            <rect id="Rectangle_413007" data-name="Rectangle 413007" width="23.172" height="0.806" transform="translate(0 3.817)" fill="#c0d2d6"/>
          </g>
        </g>
        <g id="Group_1209440" data-name="Group 1209440" transform="translate(61.357 126.092)">
          <path id="Path_1247871" data-name="Path 1247871" d="M127.974,192.281a2.412,2.412,0,1,1-2.41-2.311A2.364,2.364,0,0,1,127.974,192.281Z" transform="translate(-123.154 -189.97)" fill="#f04e54"/>
          <g id="Group_1209439" data-name="Group 1209439" transform="translate(6.321)">
            <rect id="Rectangle_413008" data-name="Rectangle 413008" width="31.57" height="0.811" fill="#c0d2d6"/>
            <rect id="Rectangle_413009" data-name="Rectangle 413009" width="6.187" height="0.809" transform="translate(25.383 1.908)" fill="#c0d2d6"/>
            <rect id="Rectangle_413010" data-name="Rectangle 413010" width="22.978" height="0.809" transform="translate(0 1.908)" fill="#c0d2d6"/>
            <rect id="Rectangle_413011" data-name="Rectangle 413011" width="17.607" height="0.806" transform="translate(0 3.817)" fill="#c0d2d6"/>
          </g>
        </g>
        <path id="Path_1247872" data-name="Path 1247872" d="M74.432,101.179l3.755,1.649L82.8,99.141l2.669,2.345,1.707-.889,3.178,2.427,5.726-6.058,3.576.621,3.5-3.4,3.548,1.748,3.75-3.982,3.311,3.071,2.642-.07,3.732,4.766L125.188,94l1.853.971,3.334-2.272,1.876.78,2.286-1.685v19.867H74.432Z" transform="translate(-63.886 -63.878)" fill="#fee3c6"/>
        <g id="Group_1209442" data-name="Group 1209442" transform="translate(10.546 56.75)">
          <g id="Group_1209441" data-name="Group 1209441" transform="translate(19.226)">
            <rect id="Rectangle_413012" data-name="Rectangle 413012" width="23.804" height="1.014" fill="#c0d2d6"/>
            <rect id="Rectangle_413013" data-name="Rectangle 413013" width="40.567" height="1.014" fill="#c0d2d6"/>
            <rect id="Rectangle_413014" data-name="Rectangle 413014" width="11.46" height="1.017" transform="translate(0 3.112)" fill="#c0d2d6"/>
            <rect id="Rectangle_413015" data-name="Rectangle 413015" width="27.407" height="1.017" transform="translate(13.162 3.112)" fill="#c0d2d6"/>
            <rect id="Rectangle_413016" data-name="Rectangle 413016" width="21.54" height="1.017" transform="translate(0 6.227)" fill="#c0d2d6"/>
            <rect id="Rectangle_413017" data-name="Rectangle 413017" width="21.54" height="1.017" transform="translate(0 6.227)" fill="#c0d2d6"/>
            <rect id="Rectangle_413018" data-name="Rectangle 413018" width="17.227" height="1.017" transform="translate(23.343 6.227)" fill="#c0d2d6"/>
            <rect id="Rectangle_413019" data-name="Rectangle 413019" width="12.278" height="1.017" transform="translate(0 9.337)" fill="#c0d2d6"/>
            <rect id="Rectangle_413020" data-name="Rectangle 413020" width="12.006" height="1.017" transform="translate(13.724 9.337)" fill="#c0d2d6"/>
            <rect id="Rectangle_413021" data-name="Rectangle 413021" width="13.2" height="1.017" transform="translate(27.37 9.337)" fill="#c0d2d6"/>
          </g>
          <rect id="Rectangle_413022" data-name="Rectangle 413022" width="15.459" height="10.354" fill="#c0d2d6"/>
        </g>
        <g id="Group_1209444" data-name="Group 1209444" transform="translate(10.546 70.501)">
          <g id="Group_1209443" data-name="Group 1209443" transform="translate(19.062)">
            <rect id="Rectangle_413023" data-name="Rectangle 413023" width="23.99" height="1.014" transform="translate(16.894)" fill="#c0d2d6"/>
            <rect id="Rectangle_413024" data-name="Rectangle 413024" width="40.884" height="1.014" fill="#c0d2d6"/>
            <rect id="Rectangle_413025" data-name="Rectangle 413025" width="11.551" height="1.017" transform="translate(29.334 3.11)" fill="#c0d2d6"/>
            <rect id="Rectangle_413026" data-name="Rectangle 413026" width="27.621" height="1.017" transform="translate(0 3.11)" fill="#c0d2d6"/>
            <rect id="Rectangle_413027" data-name="Rectangle 413027" width="21.709" height="1.014" transform="translate(19.176 6.225)" fill="#c0d2d6"/>
            <rect id="Rectangle_413028" data-name="Rectangle 413028" width="21.709" height="1.014" transform="translate(19.176 6.225)" fill="#c0d2d6"/>
            <rect id="Rectangle_413029" data-name="Rectangle 413029" width="17.357" height="1.014" transform="translate(0 6.225)" fill="#c0d2d6"/>
            <rect id="Rectangle_413030" data-name="Rectangle 413030" width="12.102" height="1.014" transform="translate(14.95 9.34)" fill="#c0d2d6"/>
            <rect id="Rectangle_413031" data-name="Rectangle 413031" width="13.303" height="1.014" transform="translate(0 9.34)" fill="#c0d2d6"/>
          </g>
          <rect id="Rectangle_413032" data-name="Rectangle 413032" width="15.459" height="10.351" fill="#c0d2d6"/>
        </g>
        <g id="Group_1209447" data-name="Group 1209447" transform="translate(76.604 57.144)">
          <g id="Group_1209445" data-name="Group 1209445" transform="translate(3.664 0.268)">
            <rect id="Rectangle_413033" data-name="Rectangle 413033" width="3.682" height="14.321" transform="translate(4.392 5.771)" fill="#434d57"/>
            <rect id="Rectangle_413034" data-name="Rectangle 413034" width="3.684" height="9.243" transform="translate(0 10.849)" fill="#f04e54"/>
            <rect id="Rectangle_413035" data-name="Rectangle 413035" width="3.684" height="18.467" transform="translate(8.778 1.613)" fill="#31bdb4"/>
            <rect id="Rectangle_413036" data-name="Rectangle 413036" width="3.682" height="16.509" transform="translate(13.17 3.571)" fill="#d4c0ab"/>
            <rect id="Rectangle_413037" data-name="Rectangle 413037" width="3.684" height="12.8" transform="translate(17.556 7.28)" fill="#897f66"/>
            <rect id="Rectangle_413038" data-name="Rectangle 413038" width="3.684" height="17.781" transform="translate(21.948 2.299)" fill="#faaf06"/>
            <rect id="Rectangle_413039" data-name="Rectangle 413039" width="3.684" height="15.238" transform="translate(26.337 4.841)" fill="#ff4c36"/>
            <rect id="Rectangle_413040" data-name="Rectangle 413040" width="3.687" height="20.08" transform="translate(30.726)" fill="#98bf04"/>
          </g>
          <g id="Group_1209446" data-name="Group 1209446">
            <path id="Path_1247873" data-name="Path 1247873" d="M178.1,141.618H137.774v-20.6h.5V141.14H178.1Z" transform="translate(-137.774 -121.022)"/>
          </g>
        </g>
      </g>
      <path id="Path_1247874" data-name="Path 1247874" d="M219.568,203.792,208.309,184.7a4.869,4.869,0,0,0-.846-1.084l-14.832-16.533a4.258,4.258,0,0,0-2.105-1.369s-.441-.092-.579-.1l-17.6-2.663c-3.007-.454-4.452,1.48-4.784,3.651-.35,2.178.516,3.8,3.525,4.247l16.1,2.419,6.225,26.22L212.3,207.7c1.5,2.55,4.341,3.757,6.341,2.683S221.059,206.346,219.568,203.792Z" transform="translate(7.182 22)" fill="#c48f67"/>
      <path id="Path_1247875" data-name="Path 1247875" d="M225.18,208.208,212.1,190.217a4.787,4.787,0,0,0-.954-1l-16.383-15.12a4.311,4.311,0,0,0-2.234-1.173s-.448-.048-.584-.051l-17.786-1.062c-3.037-.179-4.278,1.881-4.4,4.066-.131,2.2.891,3.738,3.931,3.914l16.265.956,8.657,22.267,19.722,9.74c1.738,2.407,4.686,3.354,6.575,2.1S226.92,210.613,225.18,208.208Z" transform="translate(7.279 22)" fill="#c48f67"/>
      <path id="Path_1247876" data-name="Path 1247876" d="M164.844,169.961l15.368,39.281h5.374l-.05-17.363Z" transform="translate(7.068 22)" fill="#f2f5f7"/>
      <path id="Path_1247877" data-name="Path 1247877" d="M217.687,195.891l-15-22.685a4.806,4.806,0,0,0-.912-1.038l-10.851-13.585a4.275,4.275,0,0,0-2.181-1.256s-.448-.065-.587-.07l-17.73-1.681c-3.034-.285-4.354,1.729-4.56,3.912s.748,3.764,3.78,4.042l16.214,1.526,7.8,25.826,19.352,7.152c1.644,2.463,4.558,3.511,6.489,2.325S219.334,198.351,217.687,195.891Z" transform="translate(7.111 22)" fill="#c48f67"/>
      <path id="Path_1247878" data-name="Path 1247878" d="M210.242,183.767s-5.291-12.855-8.31-16.687a5.586,5.586,0,0,0-.949-1s-8.859-7.954-15.159-13.374a5.167,5.167,0,0,0-2.921-1.468c-3.4-.343-9.529.34-16.72.7-3.044.152-4.7,1.536-4.822,3.726-.138,2.2,1,3.685,4.047,3.854,4.135.232,12.89-.625,14.832.051,1.493.524,14.273,16.253,14.273,16.253l14.668,15.42c1.738,2.4,7.378,4.428,9.269,3.18S211.975,186.175,210.242,183.767Z" transform="translate(6.919 22)" fill="#fcba8e"/>
      <g id="Group_1209455" data-name="Group 1209455" transform="translate(112.502 119.619)">
        <g id="Group_1209454" data-name="Group 1209454">
          <g id="Group_1209453" data-name="Group 1209453">
            <g id="Group_1209452" data-name="Group 1209452">
              <g id="Group_1209451" data-name="Group 1209451">
                <g id="Group_1209449" data-name="Group 1209449" transform="translate(46.045 43.798)">
                  <path id="Path_1247879" data-name="Path 1247879" d="M177.514,161.2c1.07.995-3.357,5.3-4.409,4.315-6.321-5.918-21.077-19.792-21.077-19.792l4.409-4.3S171.271,155.34,177.514,161.2Z" transform="translate(-152.028 -141.418)" fill="#2c3e50"/>
                </g>
                <g id="Group_1209450" data-name="Group 1209450">
                  <path id="Path_1247880" data-name="Path 1247880" d="M119.747,109.523A24.086,24.086,0,0,0,120.1,144.6a26.647,26.647,0,0,0,36.576-.338,24.09,24.09,0,0,0-.348-35.077A26.67,26.67,0,0,0,119.747,109.523Zm34.8,1.408a21.707,21.707,0,0,1,.327,31.619,24.043,24.043,0,0,1-32.99.314,21.715,21.715,0,0,1-.317-31.631A24.035,24.035,0,0,1,154.542,110.931Z" transform="translate(-107.684 -97.619)" fill="#8aa9cf"/>
                  <path id="Path_1247881" data-name="Path 1247881" d="M116.617,106.394a28.434,28.434,0,0,0,.413,41.41,31.471,31.471,0,0,0,43.176-.4,28.433,28.433,0,0,0-.423-41.413A31.455,31.455,0,0,0,116.617,106.394Zm39.089,3.593a23,23,0,0,1,.34,33.507,25.468,25.468,0,0,1-34.942.326,23.018,23.018,0,0,1-.337-33.519A25.464,25.464,0,0,1,155.706,109.987Z" transform="translate(-107.876 -97.619)" fill="#2c3e50"/>
                  <path id="Path_1247882" data-name="Path 1247882" d="M163.394,126.655c-.139-13.333-11.525-24.042-25.451-23.921s-25.1,11.056-24.952,24.395,11.52,24.083,25.441,23.933S163.525,140.008,163.394,126.655Z" transform="translate(-107.657 -97.619)" fill="#00a3fc" opacity="0.12"/>
                </g>
              </g>
            </g>
            <path id="Path_1247883" data-name="Path 1247883" d="M145.279,109.272a1.238,1.238,0,0,1-1.178.3,22.419,22.419,0,0,0-16.355,2.369c-7.476,4.378-8.552,12.681-8.572,12.771a1.225,1.225,0,0,1-2.433-.263,20.744,20.744,0,0,1,9.73-14.519,24.62,24.62,0,0,1,18.241-2.615,1.167,1.167,0,0,1,.881,1.425A1.46,1.46,0,0,1,145.279,109.272Z" transform="translate(-107.496 -97.619)" fill="#feffff"/>
          </g>
        </g>
        <path id="Path_1247884" data-name="Path 1247884" d="M186.105,165.672a.992.992,0,0,1,.018,1.437l-6.733,6.616a1.1,1.1,0,0,1-1.5.017l-19.314-18.068a.988.988,0,0,1-.02-1.437l6.728-6.614a1.1,1.1,0,0,1,1.5-.019Z" transform="translate(-105.715 -97.619)" fill="#e64312"/>
        <path id="Path_1247913" data-name="Path 1247913" d="M0,0,11.507.242l.846,40.338L.846,40.338Z" transform="translate(53.546 58.679) rotate(-45.709)" fill="#2c3e50"/>
      </g>
      <g id="Group_1209459" data-name="Group 1209459" transform="translate(171.447 181.693)">
        <path id="Path_1247885" data-name="Path 1247885" d="M215.087,189.012s-30.981-33.49-34.231-28.883c1.143,2.2,14.235,17.73,12.7,17.989a21.98,21.98,0,0,1-8.929-.121c-1.594-.5-2.49-.584-3.314-1.487-.451-.49-3.9-4.059-4.135-4.378-.345-.464-1.581-2.736-2.465-3.813-2.931-3.673-6.507-3.624-8.539-2.521-2,1.091-2.425,2.786-.675,5.182,0,0,6.23,10.334,9.211,13.768a17.022,17.022,0,0,0,1.67,1.818c4.575,3.967,9.962,9.175,9.962,9.175a26.791,26.791,0,0,0,4.329,1.946c6.391,2.625,13.95,13.971,13.95,13.971,1.805.587,25.811,7.647,25.811,7.647l6.587-3.95s-3.364-6.471-4-7.362c-2.2-3.086-7.033-10.73-9.325-12.058A36.807,36.807,0,0,1,215.087,189.012Z" transform="translate(-164.398 -159.693)" fill="#fcba8e"/>
        <g id="Group_1209458" data-name="Group 1209458" transform="translate(1.064 7.959)">
          <g id="Group_1209457" data-name="Group 1209457">
            <g id="Group_1209456" data-name="Group 1209456">
              <path id="Path_1247886" data-name="Path 1247886" d="M170.936,169.9a4.571,4.571,0,0,0-1.385-1.526c-1.352-1.065-2.11-.843-3.183-.039a1.928,1.928,0,0,0-.426,2.987c.841,1.251.912,1.611,1.357,1.818.239.106.64.353,2.15-.968C171.127,170.707,171.052,170.236,170.936,169.9Z" transform="translate(-165.418 -167.652)" fill="#fbfcfc"/>
            </g>
          </g>
        </g>
      </g>
      <g id="Group_1209461" data-name="Group 1209461" transform="translate(196.774 206.366)">
        <g id="Group_1209460" data-name="Group 1209460">
          <path id="Path_1247887" data-name="Path 1247887" d="M202.41,219.812l24.464-20.693L213.14,184.366l-24.456,20.7Z" transform="translate(-188.683 -184.366)" fill="#fff"/>
          <path id="Path_1247888" data-name="Path 1247888" d="M266.146,241.459l-44.609-48.427-26.579,22.485,23.874,25.942Z" transform="translate(-188.414 -184.366)" fill="#393c41"/>
        </g>
        <path id="Path_1247889" data-name="Path 1247889" d="M195.027,205.663a1.319,1.319,0,0,1-.982,1.618,1.387,1.387,0,0,1-1.687-.939,1.319,1.319,0,0,1,.982-1.618A1.389,1.389,0,0,1,195.027,205.663Z" transform="translate(-188.528 -184.366)" fill="#474a4f"/>
      </g>
      <path id="Path_1247890" data-name="Path 1247890" d="M83.934,164.373l11.737,44.868H66.242l7.315-29.332Z" transform="translate(2.84 22)" fill="#f2f5f7"/>
      <g id="Group_1209462" data-name="Group 1209462" transform="translate(44.377 164.519)">
        <path id="Path_1247891" data-name="Path 1247891" d="M68.942,209.6c4.314-10.617,7.62-12.438,8.564-13.613a24.211,24.211,0,0,0,3.379-6.1c1.088-2.632,3.206-8.673,3.777-10.33.451-1.314.491-4.175.481-9.074-.01-3.446-.025-4.2-.118-5.452-.473-6.2-5.872-3.574-5.872-3.574-3.452,2.2-3.765,8.086-3.692,10.583.028,1-2.133,5.691-3.175,7.27a11.062,11.062,0,0,1-3.8,2.955c-.657.15-1.586-5.474-2.264-8.656-.619-2.955-.987-5.636-.987-5.636l.063-25.447a5.329,5.329,0,0,0-5.21,3.337c-2.526,6.044-2.38,6.8-3.744,9.245-7.119,12.795-7.036,11.923-7.328,16.369-.667,10.151-1.936,20.517-2.07,21.615a12,12,0,0,1-1.189,4.312,50.014,50.014,0,0,0-2.108,5.319,30.922,30.922,0,0,0-1.1,7.838C49.878,210.026,68.942,209.6,68.942,209.6Z" transform="translate(-42.552 -142.519)" fill="#fcba8e"/>
        <path id="Path_1247892" data-name="Path 1247892" d="M83.39,167.773a10.984,10.984,0,0,1-5.27-1.029,6.465,6.465,0,0,1,.682-3.632c.9-1.227,3.581-.321,3.906-.01C83.1,163.487,83.357,164.359,83.39,167.773Z" transform="translate(-41.028 -142.519)" fill="#f5f1e1"/>
      </g>
      <g id="Group_1209464" data-name="Group 1209464" transform="translate(32.328 219.733)">
        <g id="Group_1209463" data-name="Group 1209463">
          <path id="Path_1247893" data-name="Path 1247893" d="M66.981,237.736l7.955-32.725-32.592-7.278-9.722,40Z" transform="translate(-30.929 -197.733)" fill="#fbfcfc"/>
          <path id="Path_1247894" data-name="Path 1247894" d="M67.945,241.459l6.071-24.438-35.042-7.828L31,241.459Z" transform="translate(-30.999 -197.733)" fill="#393c41"/>
        </g>
        <path id="Path_1247895" data-name="Path 1247895" d="M70.915,208.84a1.53,1.53,0,0,1-1.833,1.091,1.457,1.457,0,0,1-1.141-1.755,1.529,1.529,0,0,1,1.836-1.094A1.461,1.461,0,0,1,70.915,208.84Z" transform="translate(-29.416 -197.733)" fill="#474a4f"/>
      </g>
      <g id="Group_1209468" data-name="Group 1209468" transform="translate(42.803 93.196)">
        <path id="Path_1247896" data-name="Path 1247896" d="M60.041,75.717c.033-.116-.058-.162-.176-.256a1.8,1.8,0,0,0-.415-.212l.287-1.19a1.44,1.44,0,0,0-.851-1.813L57.342,71.9a1.462,1.462,0,0,0-1.576,1.287l-.287,1.2c-.068,0-.131-.007-.191-.007h-.078A.993.993,0,0,0,55,74.4c-.123.019-.259.048-.292.174a14.169,14.169,0,0,0-.98,2.813l-.463-.094c.048-.167.1-.336.149-.5a.505.505,0,0,0-.4-.625.281.281,0,0,0-.108-.027.6.6,0,0,0-.7.384c-1.813,6.225-3.46,12.508-4.893,18.841a.5.5,0,0,0,.423.63c.043.022.076.022.1.036a.5.5,0,0,0,.647-.369q1.851-8.051,4.1-16.006l.463.1c-.934,3.368-2.362,8.907-4.51,18.015,0,0,0,.01,0,.014h0l-.008.024c-.189.8-.37,1.584-.551,2.361l0,.017h0c-4.205,18.1-6.489,30.441-6.489,30.441l.023,0a.125.125,0,0,0-.015.056l.567,7.461-.015,0,.1,1.178c.01.184.086.193.174.043l.6-1.014c-.005,0-.013-.01-.018-.012l3.891-6.519a.234.234,0,0,0,.038-.123c.335-1.227,3.823-14.121,7.6-30.079h0l.005-.024q.257-1.079.514-2.178l.063-.266h0C60.233,77.083,60.041,75.717,60.041,75.717Z" transform="translate(-41.024 -71.196)" fill="#d5dade"/>
        <g id="Group_1209467" data-name="Group 1209467">
          <g id="Group_1209466" data-name="Group 1209466">
            <g id="Group_1209465" data-name="Group 1209465">
              <path id="Path_1247897" data-name="Path 1247897" d="M52.641,79.17l-1.42-.3.546-2.378,1.461.295Z" transform="translate(-40.607 -71.196)" fill="#3f3f46"/>
              <path id="Path_1247898" data-name="Path 1247898" d="M46.162,130.794a.224.224,0,0,1,.181.343l-4.467,7.49c-.091.152-.166.142-.174-.046l-.655-8.574a40.371,40.371,0,0,1,3.284-5.126Z" transform="translate(-41.043 -71.196)" fill="#d2d6d9"/>
              <path id="Path_1247899" data-name="Path 1247899" d="M42.448,137.67l-.6,1.017c-.088.15-.161.14-.174-.048l-.1-1.176A2.693,2.693,0,0,1,42.448,137.67Z" transform="translate(-41.02 -71.196)" fill="#36381d"/>
              <path id="Path_1247900" data-name="Path 1247900" d="M54.783,72.508a1.464,1.464,0,0,1,1.576-1.287l1.544.343a1.444,1.444,0,0,1,.851,1.816l-.982,4.057a1.452,1.452,0,0,1-1.559,1.285l-1.574-.328a1.441,1.441,0,0,1-.831-1.806Z" transform="translate(-40.498 -71.196)" fill="#1a2638"/>
              <path id="Path_1247901" data-name="Path 1247901" d="M46.354,131.112s4-14.659,8.184-32.525C59.8,76.407,59.6,75.038,59.6,75.038c.033-.116-.058-.162-.176-.256a13.2,13.2,0,0,0-4.873-1.058c-.121.019-.257.046-.29.174,0,0-.975,1.19-6.167,23.19-4.565,19.411-7.053,32.86-7.053,32.86a20.179,20.179,0,0,1,2.609.41A14.245,14.245,0,0,1,46.354,131.112Z" transform="translate(-41.043 -71.196)" fill="#3f3f46"/>
              <path id="Path_1247902" data-name="Path 1247902" d="M56.907,74a8.227,8.227,0,0,0-2.352-.278c-.121.019-.257.046-.29.174,0,0-.975,1.19-6.167,23.19-4.565,19.411-7.053,32.86-7.053,32.86s.72.068,2.609.41C46.711,116.366,56.907,74,56.907,74Z" transform="translate(-41.043 -71.196)" fill="#67696c"/>
              <path id="Path_1247903" data-name="Path 1247903" d="M53.72,100.937,47.266,99.5l.559-2.4L54.3,98.469Z" transform="translate(-40.776 -71.196)" fill="#d2d6d9"/>
              <path id="Path_1247904" data-name="Path 1247904" d="M47.8,94.98a.5.5,0,0,1-.647.369.615.615,0,0,1-.1-.036.5.5,0,0,1-.423-.63c1.433-6.336,3.08-12.616,4.893-18.841a.6.6,0,0,1,.705-.384.219.219,0,0,1,.108.027.5.5,0,0,1,.4.625Q49.972,85.484,47.8,94.98Z" transform="translate(-40.804 -71.196)" fill="#3f3f46"/>
            </g>
          </g>
        </g>
      </g>
    </g>
  </g>
</svg>
