<svg xmlns="http://www.w3.org/2000/svg" xmlns:xlink="http://www.w3.org/1999/xlink" width="88.83" height="85.054" viewBox="0 0 88.83 85.054">
  <defs>
    <clipPath id="clip-path">
      <rect id="Rectangle_413256" data-name="Rectangle 413256" width="78" height="78" transform="translate(8042.736 -6713.378)" fill="#fff" stroke="#707070" stroke-width="1"/>
    </clipPath>
  </defs>
  <g id="Group_1209900" data-name="Group 1209900" transform="translate(-8031.906 6720.432)">
    <g id="Rectangle_413255" data-name="Rectangle 413255" transform="translate(8031.906 -6720.432)" fill="#fd9826" stroke="#af6a1a" stroke-width="3">
      <rect width="70" height="70" rx="10" stroke="none"/>
      <rect x="1.5" y="1.5" width="67" height="67" rx="8.5" fill="none"/>
    </g>
    <g id="Mask_Group_1099367" data-name="Mask Group 1099367" clip-path="url(#clip-path)">
      <g id="transaction_3889808" transform="translate(8042.736 -6713.378)">
        <g id="Group_1209892" data-name="Group 1209892">
          <g id="Group_1209882" data-name="Group 1209882">
            <path id="Path_1249472" data-name="Path 1249472" d="M18.871,8.806H59.129V61.645H18.871Z" fill="#e6e9ed"/>
          </g>
          <g id="Group_1209883" data-name="Group 1209883">
            <path id="Path_1249473" data-name="Path 1249473" d="M75.622,19.563a2.046,2.046,0,0,1,0,3.648l-8.945,4.466V23.9H59.129V18.871h7.548V15.1Z" fill="#ef7385"/>
          </g>
          <g id="Group_1209884" data-name="Group 1209884">
            <path id="Path_1249474" data-name="Path 1249474" d="M18.871,18.871V23.9H11.323v3.774L2.378,23.211a2.046,2.046,0,0,1,0-3.648L11.323,15.1v3.774Z" fill="#ef7385"/>
          </g>
          <g id="Group_1209885" data-name="Group 1209885">
            <path id="Path_1249475" data-name="Path 1249475" d="M50.524,8.806a12.431,12.431,0,0,1,1.057,5.032,12.581,12.581,0,1,1-25.161,0,12.431,12.431,0,0,1,1.057-5.032,12.571,12.571,0,0,1,23.048,0Z" fill="#fcd770"/>
          </g>
          <g id="Group_1209886" data-name="Group 1209886">
            <path id="Path_1249476" data-name="Path 1249476" d="M46.548,39h5.032V56.613H46.548Z" fill="#ffeaa7"/>
          </g>
          <g id="Group_1209887" data-name="Group 1209887">
            <path id="Path_1249477" data-name="Path 1249477" d="M36.484,31.452h5.032V56.613H36.484Z" fill="#ffeaa7"/>
          </g>
          <g id="Group_1209888" data-name="Group 1209888">
            <path id="Path_1249478" data-name="Path 1249478" d="M26.419,44.032h5.032V56.613H26.419Z" fill="#ffeaa7"/>
          </g>
          <g id="Group_1209889" data-name="Group 1209889">
            <path id="Path_1249479" data-name="Path 1249479" d="M71.71,66.677V71.71L61.645,76.742H6.29A5.031,5.031,0,0,1,1.258,71.71V66.677A5.031,5.031,0,0,1,6.29,61.645H61.645Z" fill="#b4dd7f"/>
          </g>
          <g id="Group_1209890" data-name="Group 1209890">
            <path id="Path_1249480" data-name="Path 1249480" d="M36.484,66.677a2.516,2.516,0,0,1,0,5.032H8.806A2.524,2.524,0,0,1,6.29,69.194a2.534,2.534,0,0,1,2.516-2.516Z" fill="#a0d468"/>
          </g>
          <g id="Group_1209891" data-name="Group 1209891">
            <path id="Path_1249481" data-name="Path 1249481" d="M74.226,66.677a2.524,2.524,0,0,1,2.516,2.516,2.534,2.534,0,0,1-2.516,2.516H71.71V66.677Z" fill="#ccd1d9"/>
          </g>
        </g>
        <g id="Group_1209893" data-name="Group 1209893">
          <path id="Path_1249482" data-name="Path 1249482" d="M40.258,17.613H37.742a1.26,1.26,0,0,1-1.258-1.258H33.968a3.779,3.779,0,0,0,3.774,3.774v2.516h2.516V20.129a3.774,3.774,0,0,0,0-7.548H37.742a1.258,1.258,0,0,1,0-2.516h2.516a1.26,1.26,0,0,1,1.258,1.258h2.516a3.779,3.779,0,0,0-3.774-3.774V5.032H37.742V7.548a3.774,3.774,0,0,0,0,7.548h2.516a1.258,1.258,0,0,1,0,2.516Z"/>
          <path id="Path_1249483" data-name="Path 1249483" d="M74.226,65.419H72.007L61.942,60.387H60.387V25.161h5.032v4.552l10.759-5.379a3.294,3.294,0,0,0,0-5.893l-10.76-5.379v4.552H60.387V7.548H51.311a13.814,13.814,0,0,0-24.623,0H17.613V17.612H12.581V13.061L1.822,18.441a3.294,3.294,0,0,0,0,5.893l10.76,5.379V25.161h5.032V60.387H6.29A6.3,6.3,0,0,0,0,66.677V71.71A6.3,6.3,0,0,0,6.29,78H61.942l10.065-5.032h2.219a3.774,3.774,0,0,0,0-7.548ZM36.484,67.935a1.258,1.258,0,0,1,0,2.516H8.806a1.258,1.258,0,1,1,0-2.516Zm0,5.032a3.774,3.774,0,0,0,0-7.548h-6.29V62.9H60.387V75.484H30.194V72.968ZM67.935,20.129v-3l7.119,3.559a.778.778,0,0,1,0,1.391l-7.118,3.559v-3H60.387V20.129ZM39,2.516A11.323,11.323,0,1,1,27.677,13.839,11.336,11.336,0,0,1,39,2.516ZM10.065,22.645v3L2.945,22.083a.778.778,0,0,1,0-1.391l7.118-3.559v3h7.548v2.517ZM20.129,10.065H25.7a13.839,13.839,0,1,0,26.606,0h5.568V60.387H20.129ZM2.516,71.71V66.677A3.779,3.779,0,0,1,6.29,62.9H27.677v2.516H8.806a3.774,3.774,0,1,0,0,7.548H27.677v2.516H6.29A3.779,3.779,0,0,1,2.516,71.71Zm67.935-.777L62.9,74.706V63.681l7.548,3.774Zm3.774-.481H72.968V67.935h1.258a1.258,1.258,0,0,1,0,2.516Z"/>
          <path id="Path_1249484" data-name="Path 1249484" d="M52.839,55.355V37.742H45.29V55.355H42.774V30.194H35.226V55.355H32.71V42.774H25.161V55.355H22.645v2.516h32.71V55.355Zm-5.032-15.1h2.516v15.1H47.806ZM37.742,32.71h2.516V55.355H37.742ZM27.677,45.29h2.516V55.355H27.677Z"/>
        </g>
      </g>
    </g>
  </g>
</svg>
