<svg xmlns="http://www.w3.org/2000/svg" xmlns:xlink="http://www.w3.org/1999/xlink" width="88.83" height="85.054" viewBox="0 0 88.83 85.054">
  <defs>
    <clipPath id="clip-path">
      <rect id="Rectangle_413267" data-name="Rectangle 413267" width="78" height="78" transform="translate(922 11862.513)" fill="#fff" stroke="#707070" stroke-width="1"/>
    </clipPath>
  </defs>
  <g id="Group_1209911" data-name="Group 1209911" transform="translate(-911.17 -11855.459)">
    <g id="Rectangle_413266" data-name="Rectangle 413266" transform="translate(911.17 11855.459)" fill="#fd9826" stroke="#af6a1a" stroke-width="3">
      <rect width="70" height="70" rx="10" stroke="none"/>
      <rect x="1.5" y="1.5" width="67" height="67" rx="8.5" fill="none"/>
    </g>
    <g id="Mask_Group_1099372" data-name="Mask Group 1099372" clip-path="url(#clip-path)">
      <g id="debt-collector_16961386" transform="translate(921.848 11862.36)">
        <g id="Group_1209906" data-name="Group 1209906">
          <g id="Group_1209902" data-name="Group 1209902">
            <path id="Path_1249572" data-name="Path 1249572" d="M29.489,70.275H69.368A2.179,2.179,0,0,0,71.542,68.1V21.516a2.1,2.1,0,0,0-.637-1.537l-10-10a2.1,2.1,0,0,0-1.538-.637H29.489a2.179,2.179,0,0,0-2.174,2.174V68.1a2.179,2.179,0,0,0,2.174,2.174Z" fill="#eff4f7" fill-rule="evenodd"/>
            <path id="Path_1249573" data-name="Path 1249573" d="M62.432,11.506,60.906,9.979a2.1,2.1,0,0,0-1.538-.637H29.489a2.179,2.179,0,0,0-2.174,2.174V68.1a2.181,2.181,0,0,0,1.605,2.1,2.162,2.162,0,0,1-.076-.569V13.046a2.179,2.179,0,0,1,2.174-2.174H60.9a2.1,2.1,0,0,1,1.534.634Z" fill="#dee8ee" fill-rule="evenodd"/>
            <path id="Path_1249574" data-name="Path 1249574" d="M60.906,9.979l10,10a2.18,2.18,0,0,1,.448.637H62.232a1.967,1.967,0,0,1-1.963-1.963V9.531a2.177,2.177,0,0,1,.637.448Z" fill="#dee8ee" fill-rule="evenodd"/>
            <path id="Path_1249575" data-name="Path 1249575" d="M60.906,9.979l10,10a2.18,2.18,0,0,1,.448.637H62.232a1.968,1.968,0,0,1-1.923-1.569,1.955,1.955,0,0,0,.394.04h9.122a2.18,2.18,0,0,0-.448-.637L60.9,9.975l0,0Z" fill="#cedde5" fill-rule="evenodd"/>
          </g>
          <g id="Group_1209903" data-name="Group 1209903">
            <path id="Path_1249576" data-name="Path 1249576" d="M1.38,34.753a15.384,15.384,0,0,1,30.682,0,1.069,1.069,0,0,1-1.07,1.153H2.45a1.069,1.069,0,0,1-1.07-1.153Z" fill="#72d561" fill-rule="evenodd"/>
            <path id="Path_1249577" data-name="Path 1249577" d="M15,20.62A15.376,15.376,0,0,1,32.062,34.753a1.069,1.069,0,0,1-1.07,1.153H27.558a1.069,1.069,0,0,0,1.07-1.153A15.447,15.447,0,0,0,15,20.62Z" fill="#57ca5a" fill-rule="evenodd"/>
            <path id="Path_1249578" data-name="Path 1249578" d="M16.72,19.72a8.315,8.315,0,1,0-8.315-8.315A8.331,8.331,0,0,0,16.72,19.72Z" fill="#ffd6bd" fill-rule="evenodd"/>
            <path id="Path_1249579" data-name="Path 1249579" d="M10.415,16.825A8.315,8.315,0,1,0,21.184,4.39,8.315,8.315,0,0,1,10.415,16.825Z" fill="#f9c6aa" fill-rule="evenodd"/>
          </g>
          <g id="Group_1209904" data-name="Group 1209904">
            <path id="Path_1249580" data-name="Path 1249580" d="M49.976,14.832l8.44,14.084a.842.842,0,0,1-.723,1.277H41.166a.842.842,0,0,1-.723-1.277l8.44-14.084a.638.638,0,0,1,1.094,0Z" fill="#fc685b" fill-rule="evenodd"/>
            <path id="Path_1249581" data-name="Path 1249581" d="M49.976,14.832l8.44,14.084a.842.842,0,0,1-.723,1.277H56.564a.842.842,0,0,0,.723-1.277L48.865,14.86l.017-.028a.638.638,0,0,1,1.094,0Z" fill="#f35244" fill-rule="evenodd"/>
            <path id="Path_1249582" data-name="Path 1249582" d="M49.429,27.006a.9.9,0,1,1-.9.9A.9.9,0,0,1,49.429,27.006Zm.7-1.779a.7.7,0,0,1-1.4,0l-.43-6.242a1.132,1.132,0,0,1,2.26,0Z" fill="#ffda2d" fill-rule="evenodd"/>
            <path id="Path_1249583" data-name="Path 1249583" d="M49.429,27.006a.9.9,0,0,1,.282.045.9.9,0,0,0,0,1.712.9.9,0,1,1-.282-1.757Zm.282-1.171a.694.694,0,0,1-.982-.608l-.43-6.242a1.1,1.1,0,0,1,1.412-1.032,1.018,1.018,0,0,0-.848,1.032l.43,6.242A.62.62,0,0,0,49.711,25.836Z" fill="#ffc700" fill-rule="evenodd"/>
          </g>
          <g id="Group_1209905" data-name="Group 1209905">
            <path id="Path_1249584" data-name="Path 1249584" d="M63.9,75.214A13.024,13.024,0,1,0,50.881,62.191,13.049,13.049,0,0,0,63.9,75.214Z" fill="#fdb800" fill-rule="evenodd"/>
            <path id="Path_1249585" data-name="Path 1249585" d="M72.347,52.274A13.023,13.023,0,1,1,53.989,70.633,13.023,13.023,0,0,0,72.347,52.275Z" fill="#f4a40e" fill-rule="evenodd"/>
            <path id="Path_1249586" data-name="Path 1249586" d="M63.9,71.281a9.09,9.09,0,1,0-9.09-9.09A9.108,9.108,0,0,0,63.9,71.281Z" fill="#ffda2d" fill-rule="evenodd"/>
            <path id="Path_1249587" data-name="Path 1249587" d="M63.905,53.1A9.065,9.065,0,0,1,70.561,56,9.09,9.09,0,0,0,58.518,69.513,9.09,9.09,0,0,1,63.9,53.1Z" fill="#ffc700" fill-rule="evenodd"/>
          </g>
        </g>
        <path id="Path_1249588" data-name="Path 1249588" d="M50.7,27.3a1.226,1.226,0,1,1-1.226-1.223A1.224,1.224,0,0,1,50.7,27.3Zm16.53,36.785a3.119,3.119,0,0,1-2.106,2.948v.562a1.223,1.223,0,1,1-2.445,0v-.51a3.137,3.137,0,0,1-1.688-1.178,1.224,1.224,0,0,1,1.983-1.435.678.678,0,0,0,.541.282h.6a.669.669,0,1,0,0-1.339h-.425a3.117,3.117,0,0,1-1.01-6.065v-.562a1.223,1.223,0,1,1,2.445,0v.51a3.135,3.135,0,0,1,1.688,1.179,1.224,1.224,0,1,1-1.983,1.434.669.669,0,0,0-.541-.282h-.6a.67.67,0,1,0,0,1.339h.425a3.12,3.12,0,0,1,3.116,3.116ZM48.207,24.234V19.158a1.223,1.223,0,1,1,2.445,0v5.076a1.223,1.223,0,1,1-2.445,0ZM35.124,36.815a1.223,1.223,0,0,1,1.219-1.224H62.105a1.224,1.224,0,0,1,0,2.447H36.343a1.223,1.223,0,0,1-1.219-1.223ZM63.9,73.99a11.8,11.8,0,1,0-11.8-11.8A11.815,11.815,0,0,0,63.9,73.99ZM36.343,57.145a1.224,1.224,0,0,1,0-2.447H51.792a14.391,14.391,0,0,1,3.6-3.921H36.343a1.224,1.224,0,0,1,0-2.447H60.605a14.236,14.236,0,0,1,9.715,1.141V21.839H62.235a3.189,3.189,0,0,1-3.188-3.186V10.565H29.492a.952.952,0,0,0-.952.951V24.274a16.508,16.508,0,0,1,4.738,10.388,2.288,2.288,0,0,1-.6,1.735,2.317,2.317,0,0,1-1.688.733H28.54V68.1a.951.951,0,0,0,.952.951H51.424a14.051,14.051,0,0,1-1.7-5.537H36.343a1.224,1.224,0,0,1,0-2.447H49.7a14.19,14.19,0,0,1,.88-3.922ZM2.612,34.683a14.16,14.16,0,0,1,28.214,0ZM26.095,13.172a9.574,9.574,0,0,1-5.02,6.715,16.587,16.587,0,0,1,5.02,2.338V13.172ZM9.629,11.4a7.09,7.09,0,1,1,7.09,7.091A7.1,7.1,0,0,1,9.629,11.4Zm51.863.891,7.1,7.1H62.235a.741.741,0,0,1-.743-.739V12.3ZM72.765,51.043V21.516a3.34,3.34,0,0,0-1-2.4l-10-10a3.345,3.345,0,0,0-2.4-1H29.492a3.4,3.4,0,0,0-3.267,2.472,9.538,9.538,0,1,0-13.862,9.3A16.692,16.692,0,0,0,.159,34.661a2.293,2.293,0,0,0,2.293,2.468H26.095V68.1a3.4,3.4,0,0,0,3.4,3.4H53.126A14.241,14.241,0,1,0,72.765,51.043ZM35.124,43.183a1.222,1.222,0,0,1,1.219-1.223H62.105a1.224,1.224,0,0,1,0,2.447H36.343A1.223,1.223,0,0,1,35.124,43.183Zm14.3-27.522-7.8,13.505h15.6l-7.8-13.505Zm.966-.782-1.06.612ZM41.435,31.613h15.99a2.3,2.3,0,0,0,2.019-1.167,2.326,2.326,0,0,0,0-2.333L51.453,14.267a2.337,2.337,0,0,0-4.046,0L39.416,28.113a2.333,2.333,0,0,0,2.019,3.5ZM63.9,70.058a7.867,7.867,0,1,0-7.861-7.867A7.875,7.875,0,0,0,63.9,70.058Zm0-18.181A10.314,10.314,0,1,0,74.222,62.191,10.321,10.321,0,0,0,63.9,51.877Z" fill-rule="evenodd"/>
      </g>
    </g>
  </g>
</svg>
