<svg xmlns="http://www.w3.org/2000/svg" xmlns:xlink="http://www.w3.org/1999/xlink" width="88.83" height="85.054" viewBox="0 0 88.83 85.054">
  <defs>
    <clipPath id="clip-path">
      <rect id="Rectangle_413256" data-name="Rectangle 413256" width="78" height="78" transform="translate(1135.83 4854.779)" fill="#fff" stroke="#707070" stroke-width="1"/>
    </clipPath>
  </defs>
  <g id="Group_1209898" data-name="Group 1209898" transform="translate(-1125 -4847.725)">
    <g id="Rectangle_413255" data-name="Rectangle 413255" transform="translate(1125 4847.725)" fill="#fd9826" stroke="#af6a1a" stroke-width="3">
      <rect width="70" height="70" rx="10" stroke="none"/>
      <rect x="1.5" y="1.5" width="67" height="67" rx="8.5" fill="none"/>
    </g>
    <g id="Mask_Group_1099368" data-name="Mask Group 1099368" clip-path="url(#clip-path)">
      <g id="check_13018094" transform="translate(1134.572 4853.521)">
        <path id="Path_1249485" data-name="Path 1249485" d="M6.29,2.516H59.129V72.968H6.29Z" fill="#c7e2fb"/>
        <path id="Path_1249486" data-name="Path 1249486" d="M59.129,2.516H6.29V22.645c0,27.792,17.461,50.323,39,50.323H59.129Z" fill="#ebf7fe"/>
        <circle id="Ellipse_12686" data-name="Ellipse 12686" cx="8.806" cy="8.806" r="8.806" transform="translate(11.323 50.323)" fill="#669e54"/>
        <path id="Path_1249487" data-name="Path 1249487" d="M20.129,50.323a8.77,8.77,0,0,0-6.081,2.447A44.746,44.746,0,0,0,25.563,66.048a8.8,8.8,0,0,0-5.434-15.726Z" fill="#78b761"/>
        <path id="Path_1249488" data-name="Path 1249488" d="M11.323,15.1H54.1V45.29H11.323Z" fill="#fff"/>
        <path id="Path_1249489" data-name="Path 1249489" d="M11.323,7.548H54.1V15.1H11.323Z" fill="#669e54"/>
        <rect id="Rectangle_413261" data-name="Rectangle 413261" width="35.226" height="42.774" rx="3.774" transform="translate(39 35.226)" fill="#c66b60"/>
        <path id="Path_1249490" data-name="Path 1249490" d="M74.226,74.226V39a3.774,3.774,0,0,0-3.774-3.774H42.774A3.774,3.774,0,0,0,39,39v9.435C39,64.764,50.265,78,64.161,78h6.29A3.774,3.774,0,0,0,74.226,74.226Z" fill="#e47c6f"/>
        <path id="Path_1249491" data-name="Path 1249491" d="M44.032,40.258H69.194v7.548H44.032Z" fill="#c7e2fb"/>
        <path id="Path_1249492" data-name="Path 1249492" d="M44.032,52.839h5.032v5.032H44.032Z" fill="#c7e2fb"/>
        <path id="Path_1249493" data-name="Path 1249493" d="M64.161,52.839h5.032v15.1H64.161Z" fill="#f5b95b"/>
        <path id="Path_1249494" data-name="Path 1249494" d="M69.194,40.258H44.032c0,4.169,8.167,7.548,18.242,7.548h6.919Z" fill="#ebf7fe"/>
        <path id="Path_1249495" data-name="Path 1249495" d="M44.089,52.839a5.276,5.276,0,0,0,4.976,5.032V52.839Z" fill="#ebf7fe"/>
        <path id="Path_1249496" data-name="Path 1249496" d="M54.1,52.839h5.032v5.032H54.1Z" fill="#c7e2fb"/>
        <path id="Path_1249497" data-name="Path 1249497" d="M54.153,52.839a5.276,5.276,0,0,0,4.976,5.032V52.839Z" fill="#ebf7fe"/>
        <path id="Path_1249498" data-name="Path 1249498" d="M44.032,62.9h5.032v5.032H44.032Z" fill="#c7e2fb"/>
        <path id="Path_1249499" data-name="Path 1249499" d="M44.089,62.9a5.276,5.276,0,0,0,4.976,5.032V62.9Z" fill="#ebf7fe"/>
        <path id="Path_1249500" data-name="Path 1249500" d="M54.1,62.9h5.032v5.032H54.1Z" fill="#c7e2fb"/>
        <path id="Path_1249501" data-name="Path 1249501" d="M54.153,62.9a5.276,5.276,0,0,0,4.976,5.032V62.9Z" fill="#ebf7fe"/>
        <path id="Path_1249502" data-name="Path 1249502" d="M69.194,67.837v-15H64.161C64.161,60.609,66.363,67,69.194,67.837Z" fill="#f9d18f"/>
        <path id="Path_1249503" data-name="Path 1249503" d="M70.452,33.968H60.387V2.516a1.258,1.258,0,0,0-1.258-1.258H6.29A1.258,1.258,0,0,0,5.032,2.516V72.968A1.258,1.258,0,0,0,6.29,74.226H37.742a5.032,5.032,0,0,0,5.032,5.032H70.452a5.032,5.032,0,0,0,5.032-5.032V39A5.032,5.032,0,0,0,70.452,33.968ZM72.968,39V71.71H40.258V39a2.516,2.516,0,0,1,2.516-2.516H70.452A2.516,2.516,0,0,1,72.968,39ZM42.774,33.968V31.452H52.839v2.516ZM37.742,39h-15.1V36.484h15.8a4.981,4.981,0,0,0-.7,2.516Zm15.1-10.065H42.774V26.419H52.839Zm0-5.032H42.774V21.387H52.839Zm0-5.032H42.774V16.355H52.839Zm-12.581,0H22.645V16.355H40.258Zm0,2.516V23.9H22.645V21.387Zm0,5.032v2.516H22.645V26.419Zm0,5.032v2.516H22.645V31.452ZM52.839,13.839H42.774V8.806H52.839Zm-12.581,0H22.645V8.806H40.258Zm-20.129,0H12.581V8.806h7.548Zm-7.548,2.516h7.548v2.516H12.581Zm0,5.032h7.548V23.9H12.581Zm0,5.032h7.548v2.516H12.581Zm0,5.032h7.548v2.516H12.581Zm0,5.032h7.548V39H12.581Zm0,5.032h7.548v2.516H12.581Zm10.065,0h15.1v2.516h-15.1ZM7.548,71.71V3.774H57.871V33.968H55.355V7.548A1.258,1.258,0,0,0,54.1,6.29H11.323a1.258,1.258,0,0,0-1.258,1.258V45.29a1.258,1.258,0,0,0,1.258,1.258H37.742V71.71Zm62.9,5.032H42.774a2.516,2.516,0,0,1-2.516-2.516h32.71A2.516,2.516,0,0,1,70.452,76.742Z"/>
        <path id="Path_1249504" data-name="Path 1249504" d="M42.774,47.806a1.258,1.258,0,0,0,1.258,1.258H69.194a1.258,1.258,0,0,0,1.258-1.258V40.258A1.258,1.258,0,0,0,69.194,39H44.032a1.258,1.258,0,0,0-1.258,1.258Zm2.516-6.29H67.935v5.032H45.29Z"/>
        <path id="Path_1249505" data-name="Path 1249505" d="M49.065,51.581H44.032a1.258,1.258,0,0,0-1.258,1.258v5.032a1.258,1.258,0,0,0,1.258,1.258h5.032a1.258,1.258,0,0,0,1.258-1.258V52.839A1.258,1.258,0,0,0,49.065,51.581Zm-1.258,5.032H45.29V54.1h2.516Z"/>
        <path id="Path_1249506" data-name="Path 1249506" d="M59.129,51.581H54.1a1.258,1.258,0,0,0-1.258,1.258v5.032A1.258,1.258,0,0,0,54.1,59.129h5.032a1.258,1.258,0,0,0,1.258-1.258V52.839A1.258,1.258,0,0,0,59.129,51.581Zm-1.258,5.032H55.355V54.1h2.516Z"/>
        <path id="Path_1249507" data-name="Path 1249507" d="M69.194,51.581H64.161A1.258,1.258,0,0,0,62.9,52.839v15.1a1.258,1.258,0,0,0,1.258,1.258h5.032a1.258,1.258,0,0,0,1.258-1.258v-15.1A1.258,1.258,0,0,0,69.194,51.581Zm-1.258,15.1H65.419V54.1h2.516Z"/>
        <path id="Path_1249508" data-name="Path 1249508" d="M49.065,61.645H44.032A1.258,1.258,0,0,0,42.774,62.9v5.032a1.258,1.258,0,0,0,1.258,1.258h5.032a1.258,1.258,0,0,0,1.258-1.258V62.9A1.258,1.258,0,0,0,49.065,61.645Zm-1.258,5.032H45.29V64.161h2.516Z"/>
        <path id="Path_1249509" data-name="Path 1249509" d="M59.129,61.645H54.1A1.258,1.258,0,0,0,52.839,62.9v5.032A1.258,1.258,0,0,0,54.1,69.194h5.032a1.258,1.258,0,0,0,1.258-1.258V62.9A1.258,1.258,0,0,0,59.129,61.645Zm-1.258,5.032H55.355V64.161h2.516Z"/>
        <path id="Path_1249510" data-name="Path 1249510" d="M20.129,49.065A10.065,10.065,0,1,0,30.194,59.129,10.065,10.065,0,0,0,20.129,49.065Zm0,17.613a7.548,7.548,0,1,1,7.548-7.548A7.548,7.548,0,0,1,20.129,66.677Z"/>
        <path id="Path_1249511" data-name="Path 1249511" d="M18.871,59.866,17.244,58.24l-1.779,1.779,2.516,2.516a1.258,1.258,0,0,0,1.779,0L24.793,57.5l-1.779-1.779Z"/>
      </g>
    </g>
  </g>
</svg>
