<svg xmlns="http://www.w3.org/2000/svg" xmlns:xlink="http://www.w3.org/1999/xlink" width="88.83" height="85.054" viewBox="0 0 88.83 85.054">
  <defs>
    <clipPath id="clip-path">
      <rect id="Rectangle_413260" data-name="Rectangle 413260" width="78" height="78" transform="translate(8418.736 -6713.378)" fill="#fff" stroke="#707070" stroke-width="1"/>
    </clipPath>
  </defs>
  <g id="Group_1209899" data-name="Group 1209899" transform="translate(-8407.906 6720.432)">
    <g id="Rectangle_413259" data-name="Rectangle 413259" transform="translate(8407.906 -6720.432)" fill="#fd9826" stroke="#af6a1a" stroke-width="3">
      <rect width="70" height="70" rx="10" stroke="none"/>
      <rect x="1.5" y="1.5" width="67" height="67" rx="8.5" fill="none"/>
    </g>
    <g id="Mask_Group_1099366" data-name="Mask Group 1099366" clip-path="url(#clip-path)">
      <g id="file-report_11693644" transform="translate(8411.82 -6720.294)">
        <path id="Path_1249441" data-name="Path 1249441" d="M39.387,12.656H74.6V77.139H23.145V19.672Z" fill="#c6c6c6"/>
        <path id="Path_1249442" data-name="Path 1249442" d="M80.726,74.8V17.749H74.9v59.39H29.286v6.342h51.44Z" fill="#d5dbed"/>
        <path id="Path_1249443" data-name="Path 1249443" d="M34.911,42.515H15.583a4.483,4.483,0,0,1-4.477-4.477V12.828a4.483,4.483,0,0,1,4.477-4.477H34.9a4.483,4.483,0,0,1,4.477,4.477V38.039A4.452,4.452,0,0,1,34.911,42.515Z" fill="#d5dbed"/>
        <path id="Path_1249444" data-name="Path 1249444" d="M17.175,13.717H33.332v5.065H17.175Z" fill="#c6c6c6"/>
        <g id="Group_1209881" data-name="Group 1209881">
          <path id="Path_1249445" data-name="Path 1249445" d="M29.286,50.049H36.5v7.217H29.286Z" fill="#ffeba8"/>
          <path id="Path_1249446" data-name="Path 1249446" d="M29.286,64.756H36.5v7.217H29.286Z" fill="#ffeba8"/>
          <path id="Path_1249447" data-name="Path 1249447" d="M65.631,27.808c0-5.84-3.989-10.058-8.925-10.058s-8.925,4.219-8.925,10.058A11.653,11.653,0,0,0,52,36.432v4.807h9.4V36.432a11.616,11.616,0,0,0,4.233-8.624Z" fill="#ffeba8"/>
          <path id="Path_1249448" data-name="Path 1249448" d="M51.9,45.586h9.958V49.7H51.9Z" fill="#ffeba8"/>
        </g>
        <path id="Path_1249449" data-name="Path 1249449" d="M34.911,43.95H15.583a5.922,5.922,0,0,1-5.912-5.912V12.828a5.922,5.922,0,0,1,5.912-5.912H34.9a5.922,5.922,0,0,1,5.912,5.912V38.039A5.9,5.9,0,0,1,34.911,43.95ZM15.583,9.786a3.043,3.043,0,0,0-3.042,3.042V38.039a3.043,3.043,0,0,0,3.042,3.042H34.9a3.043,3.043,0,0,0,3.042-3.042V12.828A3.043,3.043,0,0,0,34.9,9.786Z"/>
        <path id="Path_1249450" data-name="Path 1249450" d="M33.332,20.217H17.175a1.439,1.439,0,0,1-1.435-1.435V13.717a1.439,1.439,0,0,1,1.435-1.435H33.332a1.439,1.439,0,0,1,1.435,1.435v5.065A1.439,1.439,0,0,1,33.332,20.217ZM18.61,17.348H31.9v-2.2H18.61Z"/>
        <path id="Path_1249451" data-name="Path 1249451" d="M18.625,26.861H15.454a1.435,1.435,0,1,1,0-2.87h3.171a1.435,1.435,0,1,1,0,2.87Z"/>
        <path id="Path_1249452" data-name="Path 1249452" d="M26.316,26.861H23.145a1.435,1.435,0,0,1,0-2.87h3.171a1.435,1.435,0,0,1,0,2.87Z"/>
        <path id="Path_1249453" data-name="Path 1249453" d="M34.007,26.861H30.836a1.435,1.435,0,0,1,0-2.87h3.171a1.435,1.435,0,1,1,0,2.87Z"/>
        <path id="Path_1249454" data-name="Path 1249454" d="M18.625,33.017H15.454a1.435,1.435,0,1,1,0-2.87h3.171a1.435,1.435,0,1,1,0,2.87Z"/>
        <path id="Path_1249455" data-name="Path 1249455" d="M26.316,33.017H23.145a1.435,1.435,0,0,1,0-2.87h3.171a1.435,1.435,0,0,1,0,2.87Z"/>
        <path id="Path_1249456" data-name="Path 1249456" d="M34.007,33.017H30.836a1.435,1.435,0,0,1,0-2.87h3.171a1.435,1.435,0,1,1,0,2.87Z"/>
        <path id="Path_1249457" data-name="Path 1249457" d="M18.625,39.172H15.454a1.435,1.435,0,0,1,0-2.87h3.171a1.435,1.435,0,1,1,0,2.87Z"/>
        <path id="Path_1249458" data-name="Path 1249458" d="M26.316,39.172H23.145a1.435,1.435,0,0,1,0-2.87h3.171a1.435,1.435,0,0,1,0,2.87Z"/>
        <path id="Path_1249459" data-name="Path 1249459" d="M34.007,39.172H30.836a1.435,1.435,0,0,1,0-2.87h3.171a1.435,1.435,0,1,1,0,2.87Z"/>
        <path id="Path_1249460" data-name="Path 1249460" d="M74.6,78.574H23.145a1.439,1.439,0,0,1-1.435-1.435V49.7a1.435,1.435,0,1,1,2.87,0v26H73.15V14.091H39.387a1.435,1.435,0,1,1,0-2.87h35.2a1.439,1.439,0,0,1,1.435,1.435V77.139A1.418,1.418,0,0,1,74.6,78.574Z"/>
        <path id="Path_1249461" data-name="Path 1249461" d="M80.726,84.916H29.286a1.439,1.439,0,0,1-1.435-1.435v-5.51a1.435,1.435,0,1,1,2.87,0v4.075H80.726a1.435,1.435,0,1,1,0,2.87Z"/>
        <path id="Path_1249462" data-name="Path 1249462" d="M80.726,80.769a1.439,1.439,0,0,1-1.435-1.435V78.6a1.435,1.435,0,1,1,2.87,0v.732A1.439,1.439,0,0,1,80.726,80.769Z"/>
        <path id="Path_1249463" data-name="Path 1249463" d="M80.726,76.235A1.439,1.439,0,0,1,79.291,74.8V19.184H74.9a1.435,1.435,0,0,1,0-2.87h5.811a1.439,1.439,0,0,1,1.435,1.435V74.8A1.418,1.418,0,0,1,80.726,76.235Z"/>
        <path id="Path_1249464" data-name="Path 1249464" d="M36.5,58.7H29.286a1.439,1.439,0,0,1-1.435-1.435V50.049a1.439,1.439,0,0,1,1.435-1.435H36.5a1.439,1.439,0,0,1,1.435,1.435v7.217A1.439,1.439,0,0,1,36.5,58.7Zm-5.783-2.87h4.348V51.483H30.721Z"/>
        <path id="Path_1249465" data-name="Path 1249465" d="M61.972,58H42.056a1.435,1.435,0,0,1,0-2.87H61.972a1.435,1.435,0,0,1,0,2.87Z"/>
        <path id="Path_1249466" data-name="Path 1249466" d="M36.5,73.423H29.286a1.439,1.439,0,0,1-1.435-1.435V64.77a1.439,1.439,0,0,1,1.435-1.435H36.5a1.439,1.439,0,0,1,1.435,1.435v7.217A1.439,1.439,0,0,1,36.5,73.423Zm-5.783-2.87h4.348V66.205H30.721Z"/>
        <path id="Path_1249467" data-name="Path 1249467" d="M61.972,72.088h-.6a1.435,1.435,0,1,1,0-2.87h.6a1.435,1.435,0,1,1,0,2.87Z"/>
        <path id="Path_1249468" data-name="Path 1249468" d="M56.721,72.088H42.056a1.435,1.435,0,1,1,0-2.87H56.721a1.435,1.435,0,1,1,0,2.87Z"/>
        <path id="Path_1249469" data-name="Path 1249469" d="M61.413,42.673h-9.4a1.439,1.439,0,0,1-1.435-1.435V37.077a12.932,12.932,0,0,1-4.219-9.269c0-6.443,4.549-11.493,10.36-11.493s10.36,5.051,10.36,11.493a12.932,12.932,0,0,1-4.219,9.269v4.161a1.461,1.461,0,0,1-1.449,1.435ZM53.449,39.8h6.529V36.432a1.451,1.451,0,0,1,.5-1.091A10.108,10.108,0,0,0,64.2,27.822c0-4.922-3.214-8.624-7.49-8.624s-7.49,3.7-7.49,8.624a10.108,10.108,0,0,0,3.716,7.519,1.451,1.451,0,0,1,.5,1.091V39.8Z"/>
        <path id="Path_1249470" data-name="Path 1249470" d="M55.946,33.892a1.442,1.442,0,0,1-1.134-.545l-2.956-3.774a1.431,1.431,0,1,1,2.253-1.765l1.65,2.109,3.429-5.883a1.437,1.437,0,1,1,2.482,1.449L57.166,33.2a1.426,1.426,0,0,1-1.148.7.108.108,0,0,0-.072-.014Z"/>
        <path id="Path_1249471" data-name="Path 1249471" d="M61.858,51.139H51.9A1.439,1.439,0,0,1,50.465,49.7V45.586A1.439,1.439,0,0,1,51.9,44.151h9.958a1.439,1.439,0,0,1,1.435,1.435V49.7A1.43,1.43,0,0,1,61.858,51.139Zm-8.523-2.87h7.088V47.021H53.334Z"/>
      </g>
    </g>
  </g>
</svg>
