<svg xmlns="http://www.w3.org/2000/svg" xmlns:xlink="http://www.w3.org/1999/xlink" width="88.83" height="85.055" viewBox="0 0 88.83 85.055">
  <defs>
    <clipPath id="clip-path">
      <rect id="Rectangle_413277" data-name="Rectangle 413277" width="78" height="78" transform="translate(1237 14069.096)" fill="#fff" stroke="#707070" stroke-width="1"/>
    </clipPath>
  </defs>
  <g id="Group_1210042" data-name="Group 1210042" transform="translate(-1226.17 -14062.041)">
    <g id="Group_1209921" data-name="Group 1209921">
      <g id="Rectangle_413276" data-name="Rectangle 413276" transform="translate(1226.17 14062.041)" fill="#fd9826" stroke="#af6a1a" stroke-width="3">
        <rect width="70" height="70" rx="10" stroke="none"/>
        <rect x="1.5" y="1.5" width="67" height="67" rx="8.5" fill="none"/>
      </g>
    </g>
    <g id="Mask_Group_1099375" data-name="Mask Group 1099375" clip-path="url(#clip-path)">
      <g id="cost_15576211" transform="translate(1232.966 14065.062)">
        <g id="Color">
          <g id="Group_1209913" data-name="Group 1209913">
            <path id="Path_1249612" data-name="Path 1249612" d="M69.931,13.448V24.207a8.081,8.081,0,0,0-8.069,8.069H24.207a8.081,8.081,0,0,0-8.069-8.069V13.448a8.081,8.081,0,0,0,8.069-8.069H61.862a8.081,8.081,0,0,0,8.069,8.069Z" fill="#43b3ff" fill-rule="evenodd"/>
            <path id="Path_1249613" data-name="Path 1249613" d="M24.207,5.379a8.081,8.081,0,0,1-8.069,8.069V5.379Z" fill="#f2f2f2" fill-rule="evenodd"/>
            <path id="Path_1249614" data-name="Path 1249614" d="M69.931,5.379v8.069a8.081,8.081,0,0,1-8.069-8.069Z" fill="#f2f2f2" fill-rule="evenodd"/>
            <path id="Path_1249615" data-name="Path 1249615" d="M24.207,32.276H16.138V24.207a8.081,8.081,0,0,1,8.069,8.069Z" fill="#f2f2f2" fill-rule="evenodd"/>
            <path id="Path_1249616" data-name="Path 1249616" d="M69.931,24.207v8.069H61.862a8.081,8.081,0,0,1,8.069-8.069Z" fill="#f2f2f2" fill-rule="evenodd"/>
          </g>
          <circle id="Ellipse_12692" data-name="Ellipse 12692" cx="10.759" cy="10.759" r="10.759" transform="translate(5.379 59.172)" fill="#f45151"/>
          <circle id="Ellipse_12693" data-name="Ellipse 12693" cx="10.759" cy="10.759" r="10.759" transform="translate(32.276 59.172)" fill="#ffc943"/>
          <circle id="Ellipse_12694" data-name="Ellipse 12694" cx="10.759" cy="10.759" r="10.759" transform="translate(59.172 59.172)" fill="#f45151"/>
        </g>
        <g id="Line">
          <g id="Group_1209914" data-name="Group 1209914">
            <path id="Path_1249617" data-name="Path 1249617" d="M37.655,22.862a1.345,1.345,0,0,0,0,2.69H41.69V26.9a1.345,1.345,0,1,0,2.69,0V25.552h1.345a4.034,4.034,0,0,0,0-8.069H44.379v-2.69h4.034a1.345,1.345,0,0,0,0-2.69H44.379V10.759a1.345,1.345,0,1,0-2.69,0V12.1H40.345a4.034,4.034,0,0,0,0,8.069H41.69v2.69Zm2.69-5.379a1.345,1.345,0,0,1,0-2.69H41.69v2.69Zm4.034,2.69h1.345a1.345,1.345,0,0,1,0,2.69H44.379Z" fill-rule="evenodd"/>
            <path id="Path_1249618" data-name="Path 1249618" d="M71.276,24.207V5.379a1.344,1.344,0,0,0-1.345-1.345H16.138a1.344,1.344,0,0,0-1.345,1.345v26.9a1.344,1.344,0,0,0,1.345,1.345H37.655a1.345,1.345,0,1,0,0-2.69H25.416A9.38,9.38,0,0,0,17.483,23V14.657a9.38,9.38,0,0,0,7.933-7.933H60.653a9.38,9.38,0,0,0,7.933,7.933V23a9.38,9.38,0,0,0-7.933,7.933H48.414a1.345,1.345,0,0,0,0,2.69H69.931a1.344,1.344,0,0,0,1.345-1.345ZM22.728,30.931H17.483V25.687A6.747,6.747,0,0,1,22.728,30.931ZM17.483,11.968V6.724h5.245A6.747,6.747,0,0,1,17.483,11.968ZM63.341,6.724h5.245v5.244A6.747,6.747,0,0,1,63.341,6.724Zm5.245,24.207H63.341a6.747,6.747,0,0,1,5.245-5.244Z" fill-rule="evenodd"/>
            <path id="Path_1249619" data-name="Path 1249619" d="M12.5,73.571a1.344,1.344,0,0,0,1.9,0l1.739-1.739,1.739,1.739a1.345,1.345,0,0,0,1.9-1.9L18.04,69.931l1.739-1.739a1.345,1.345,0,0,0-1.9-1.9l-1.739,1.739L14.4,66.29a1.345,1.345,0,0,0-1.9,1.9l1.739,1.739L12.5,71.67a1.344,1.344,0,0,0,0,1.9Z" fill-rule="evenodd"/>
            <path id="Path_1249620" data-name="Path 1249620" d="M48.02,66.291a1.344,1.344,0,0,0-1.9,0L41.69,70.719,39.951,68.98a1.345,1.345,0,0,0-1.9,1.9l2.69,2.69a1.344,1.344,0,0,0,1.9,0l5.379-5.379a1.344,1.344,0,0,0,0-1.9Z" fill-rule="evenodd"/>
            <path id="Path_1249621" data-name="Path 1249621" d="M16.138,82.034a12.1,12.1,0,1,0-12.1-12.1A12.117,12.117,0,0,0,16.138,82.034Zm0-21.517a9.414,9.414,0,1,1-9.414,9.414A9.425,9.425,0,0,1,16.138,60.517Z" fill-rule="evenodd"/>
            <path id="Path_1249622" data-name="Path 1249622" d="M55.138,69.931a12.1,12.1,0,1,0-12.1,12.1A12.117,12.117,0,0,0,55.138,69.931Zm-21.517,0a9.414,9.414,0,1,1,9.414,9.414A9.425,9.425,0,0,1,33.621,69.931Z" fill-rule="evenodd"/>
            <path id="Path_1249623" data-name="Path 1249623" d="M73.571,66.291a1.344,1.344,0,0,0-1.9,0l-1.739,1.739-1.739-1.739a1.345,1.345,0,0,0-1.9,1.9l1.739,1.739L66.29,71.67a1.345,1.345,0,1,0,1.9,1.9l1.739-1.739,1.739,1.739a1.345,1.345,0,0,0,1.9-1.9l-1.739-1.739,1.739-1.739A1.344,1.344,0,0,0,73.571,66.291Z" fill-rule="evenodd"/>
            <path id="Path_1249624" data-name="Path 1249624" d="M69.931,57.828a12.1,12.1,0,1,0,12.1,12.1A12.117,12.117,0,0,0,69.931,57.828Zm0,21.517a9.414,9.414,0,1,1,9.414-9.414A9.425,9.425,0,0,1,69.931,79.345Z" fill-rule="evenodd"/>
            <path id="Path_1249625" data-name="Path 1249625" d="M69.931,55.138a1.344,1.344,0,0,0,1.345-1.345V48.414a4.039,4.039,0,0,0-4.034-4.034H44.379V37.655a1.345,1.345,0,0,0-2.69,0v6.724H18.828a4.039,4.039,0,0,0-4.034,4.034v5.379a1.345,1.345,0,0,0,2.69,0V48.414a1.347,1.347,0,0,1,1.345-1.345H41.69v6.724a1.345,1.345,0,0,0,2.69,0V47.069H67.241a1.347,1.347,0,0,1,1.345,1.345v5.379A1.344,1.344,0,0,0,69.931,55.138Z" fill-rule="evenodd"/>
          </g>
          <circle id="Ellipse_12695" data-name="Ellipse 12695" cx="1.345" cy="1.345" r="1.345" transform="translate(41.69 30.931)"/>
        </g>
      </g>
    </g>
  </g>
</svg>
