<svg xmlns="http://www.w3.org/2000/svg" xmlns:xlink="http://www.w3.org/1999/xlink" width="88.83" height="85.054" viewBox="0 0 88.83 85.054">
  <defs>
    <clipPath id="clip-path">
      <rect id="Rectangle_413256" data-name="Rectangle 413256" width="78" height="78" transform="translate(766.364 4851.252)" fill="#fff" stroke="#707070" stroke-width="1"/>
    </clipPath>
  </defs>
  <g id="Group_1209897" data-name="Group 1209897" transform="translate(-755.534 -4844.198)">
    <g id="Rectangle_413255" data-name="Rectangle 413255" transform="translate(755.534 4844.198)" fill="#fd9826" stroke="#af6a1a" stroke-width="3">
      <rect width="70" height="70" rx="10" stroke="none"/>
      <rect x="1.5" y="1.5" width="67" height="67" rx="8.5" fill="none"/>
    </g>
    <g id="Mask_Group_1099369" data-name="Mask Group 1099369" clip-path="url(#clip-path)">
      <g id="accounting_1875501" transform="translate(765.106 4849.994)">
        <path id="Path_1249512" data-name="Path 1249512" d="M57.871,72.968a2.524,2.524,0,0,1,2.516,2.516A2.534,2.534,0,0,1,57.871,78H22.645a2.524,2.524,0,0,1-2.516-2.516,2.534,2.534,0,0,1,2.516-2.516H57.871Z" fill="#969faa"/>
        <path id="Path_1249513" data-name="Path 1249513" d="M49.065,65.419l3.774,7.548H27.677l3.774-7.548Z" fill="#aab2bd"/>
        <path id="Path_1249514" data-name="Path 1249514" d="M56.613,65.419H11.323A5.031,5.031,0,0,1,6.29,60.387V22.645a5.031,5.031,0,0,1,5.032-5.032h7.548v5.032h-6.29A1.262,1.262,0,0,0,11.323,23.9V54.1a1.262,1.262,0,0,0,1.258,1.258H67.935A1.262,1.262,0,0,0,69.194,54.1V23.9a1.262,1.262,0,0,0-1.258-1.258h-6.29V17.613h7.548a5.031,5.031,0,0,1,5.032,5.032V60.387a5.031,5.031,0,0,1-5.032,5.032H64.161A2.534,2.534,0,0,0,66.677,62.9a2.524,2.524,0,0,0-2.516-2.516H56.613A2.534,2.534,0,0,0,54.1,62.9,2.524,2.524,0,0,0,56.613,65.419Z" fill="#ccd1d9"/>
        <path id="Path_1249515" data-name="Path 1249515" d="M64.161,60.387A2.524,2.524,0,0,1,66.677,62.9a2.534,2.534,0,0,1-2.516,2.516H56.613A2.524,2.524,0,0,1,54.1,62.9a2.534,2.534,0,0,1,2.516-2.516Z" fill="#ff826e"/>
        <path id="Path_1249516" data-name="Path 1249516" d="M18.871,22.645v32.71h-6.29A1.262,1.262,0,0,1,11.323,54.1V23.9a1.262,1.262,0,0,1,1.258-1.258Z" fill="#69d6f4"/>
        <path id="Path_1249517" data-name="Path 1249517" d="M69.194,23.9V54.1a1.262,1.262,0,0,1-1.258,1.258h-6.29V22.645h6.29A1.262,1.262,0,0,1,69.194,23.9Z" fill="#69d6f4"/>
        <path id="Path_1249518" data-name="Path 1249518" d="M18.871,7.548v5.032H8.806V7.548a5.032,5.032,0,1,1,10.065,0Z" fill="#ffeaa7"/>
        <path id="Path_1249519" data-name="Path 1249519" d="M56.613,2.516H13.839a5.031,5.031,0,0,1,5.032,5.032V55.355H61.645V7.548A5.031,5.031,0,0,0,56.613,2.516Z" fill="#e6e9ed"/>
        <g id="Group_1209894" data-name="Group 1209894">
          <path id="Path_1249520" data-name="Path 1249520" d="M51.581,7.548h5.032V25.161H51.581Z" fill="#b4dd7f"/>
          <path id="Path_1249521" data-name="Path 1249521" d="M41.516,12.581h5.032V25.161H41.516Z" fill="#b4dd7f"/>
          <path id="Path_1249522" data-name="Path 1249522" d="M31.452,17.613h5.032v7.548H31.452Z" fill="#b4dd7f"/>
        </g>
        <path id="Path_1249523" data-name="Path 1249523" d="M49.065,30.194A12.581,12.581,0,1,1,36.484,42.774,12.585,12.585,0,0,1,49.065,30.194Z" fill="#fcd770"/>
        <path id="Path_1249524" data-name="Path 1249524" d="M69.194,16.355H62.9V7.548a6.3,6.3,0,0,0-6.29-6.29H13.839a6.3,6.3,0,0,0-6.29,6.29v6.29H17.613v2.516h-6.29a6.3,6.3,0,0,0-6.29,6.29V60.387a6.3,6.3,0,0,0,6.29,6.29H29.416L26.9,71.71H22.645a3.774,3.774,0,0,0,0,7.548H57.871a3.774,3.774,0,1,0,0-7.548H53.616L51.1,66.677H69.194a6.3,6.3,0,0,0,6.29-6.29V22.645A6.3,6.3,0,0,0,69.194,16.355ZM60.387,50.706V54.1H57A13.954,13.954,0,0,0,60.387,50.706ZM49.065,54.1A11.323,11.323,0,1,1,60.387,42.774,11.336,11.336,0,0,1,49.065,54.1ZM62.9,23.9h5.032V54.1H62.9ZM60.387,7.548V34.842A13.827,13.827,0,1,0,41.132,54.1h-21V7.548a6.225,6.225,0,0,0-1.291-3.774H56.613A3.779,3.779,0,0,1,60.387,7.548ZM17.613,54.1H12.581V23.9h5.032ZM10.065,11.323V7.548a3.774,3.774,0,0,1,7.548,0v3.774ZM59.129,75.484a1.26,1.26,0,0,1-1.258,1.258H22.645a1.258,1.258,0,1,1,0-2.516H57.871A1.26,1.26,0,0,1,59.129,75.484ZM50.8,71.71H29.713l2.516-5.032H48.287Zm5.81-7.548a1.258,1.258,0,0,1,0-2.516h7.548a1.258,1.258,0,0,1,0,2.516Zm16.355-3.774a3.779,3.779,0,0,1-3.774,3.774H67.7a3.732,3.732,0,0,0,.231-1.258,3.779,3.779,0,0,0-3.774-3.774H56.613A3.779,3.779,0,0,0,52.839,62.9a3.732,3.732,0,0,0,.231,1.258H11.323a3.779,3.779,0,0,1-3.774-3.774V22.645a3.779,3.779,0,0,1,3.774-3.774h6.29v2.516H12.581A2.519,2.519,0,0,0,10.065,23.9V54.1a2.519,2.519,0,0,0,2.516,2.516H67.935A2.519,2.519,0,0,0,70.452,54.1V23.9a2.519,2.519,0,0,0-2.516-2.516H62.9V18.871h6.29a3.779,3.779,0,0,1,3.774,3.774Z"/>
        <path id="Path_1249525" data-name="Path 1249525" d="M12.581,59.129H15.1v2.516H12.581Z"/>
        <path id="Path_1249526" data-name="Path 1249526" d="M17.613,59.129h2.516v2.516H17.613Z"/>
        <path id="Path_1249527" data-name="Path 1249527" d="M22.645,59.129h2.516v2.516H22.645Z"/>
        <path id="Path_1249528" data-name="Path 1249528" d="M49.065,39a1.26,1.26,0,0,1,1.258,1.258h2.516a3.769,3.769,0,0,0-2.516-3.543V33.968H47.806v2.516H45.29v3.774a3.779,3.779,0,0,0,3.774,3.774,1.26,1.26,0,0,1,1.258,1.258v1.258H49.065a1.26,1.26,0,0,1-1.258-1.258H45.29a3.769,3.769,0,0,0,2.516,3.543v2.748h2.516V49.065h2.516V45.29a3.779,3.779,0,0,0-3.774-3.774,1.26,1.26,0,0,1-1.258-1.258V39Z"/>
        <circle id="Ellipse_12687" data-name="Ellipse 12687" cx="1.258" cy="1.258" r="1.258" transform="translate(40.258 41.516)"/>
        <circle id="Ellipse_12688" data-name="Ellipse 12688" cx="1.258" cy="1.258" r="1.258" transform="translate(55.355 41.516)"/>
        <path id="Path_1249529" data-name="Path 1249529" d="M57.871,6.29H50.323V23.9H47.806V11.323H40.258V23.9H37.742V16.355H30.194V26.419H57.871ZM35.226,23.9H32.71V18.871h2.516Zm7.548-10.065H45.29V23.9H42.774ZM55.355,23.9H52.839V8.806h2.516Z"/>
        <path id="Path_1249530" data-name="Path 1249530" d="M22.645,49.065H32.71v2.516H22.645Z"/>
        <path id="Path_1249531" data-name="Path 1249531" d="M22.645,44.032H32.71v2.516H22.645Z"/>
        <path id="Path_1249532" data-name="Path 1249532" d="M22.645,39H32.71v2.516H22.645Z"/>
        <path id="Path_1249533" data-name="Path 1249533" d="M22.645,33.968H32.71v2.516H22.645Z"/>
        <path id="Path_1249534" data-name="Path 1249534" d="M22.645,28.935H32.71v2.516H22.645Z"/>
        <path id="Path_1249535" data-name="Path 1249535" d="M22.645,6.29h2.516V8.806H22.645Z"/>
        <path id="Path_1249536" data-name="Path 1249536" d="M22.645,11.323h2.516v2.516H22.645Z"/>
        <path id="Path_1249537" data-name="Path 1249537" d="M22.645,16.355h2.516v2.516H22.645Z"/>
      </g>
    </g>
  </g>
</svg>
