<svg xmlns="http://www.w3.org/2000/svg" xmlns:xlink="http://www.w3.org/1999/xlink" width="88.83" height="85.055" viewBox="0 0 88.83 85.055">
  <defs>
    <clipPath id="clip-path">
      <rect id="Rectangle_413273" data-name="Rectangle 413273" width="78" height="78" transform="translate(607 14069.096)" fill="#fff" stroke="#707070" stroke-width="1"/>
    </clipPath>
  </defs>
  <g id="Group_1209919" data-name="Group 1209919" transform="translate(-596.17 -14062.041)">
    <g id="Rectangle_413272" data-name="Rectangle 413272" transform="translate(596.17 14062.041)" fill="#fd9826" stroke="#af6a1a" stroke-width="3">
      <rect width="70" height="70" rx="10" stroke="none"/>
      <rect x="1.5" y="1.5" width="67" height="67" rx="8.5" fill="none"/>
    </g>
    <g id="Mask_Group_1099377" data-name="Mask Group 1099377" clip-path="url(#clip-path)">
      <g id="expense_18467512" transform="translate(605.9 14067.995)">
        <g id="Group_1209917" data-name="Group 1209917">
          <path id="Path_1249673" data-name="Path 1249673" d="M10.359,3.107l49.61.147c-4.411,0-7.989,5.054-7.989,7.989s.3,2.679.981,3.857H3.44A7.991,7.991,0,0,1,10.359,3.107Z" fill="#d1d1d6" fill-rule="evenodd"/>
          <path id="Path_1249674" data-name="Path 1249674" d="M10.421,3.107l49.548.157c4.559.015,7.89,4.735,7.89,9.456v58.7H19.966V12.72a9.608,9.608,0,0,0-9.546-9.613Zm0,0h0Z" fill="#eceff1" fill-rule="evenodd"/>
          <g id="Group_1209915" data-name="Group 1209915">
            <path id="Path_1249675" data-name="Path 1249675" d="M62.342,77.094A15.49,15.49,0,1,1,77.834,61.6a15.519,15.519,0,0,1-15.492,15.49Z" fill="#ffc338" fill-rule="evenodd"/>
            <path id="Path_1249676" data-name="Path 1249676" d="M75.984,61.6A15.491,15.491,0,0,0,61.419,46.14c.3-.017.613-.026.922-.026a15.49,15.49,0,1,1,0,30.979c-.309,0-.618-.01-.922-.026A15.491,15.491,0,0,0,75.984,61.6Z" fill="#f5b829" fill-rule="evenodd"/>
          </g>
          <g id="Group_1209916" data-name="Group 1209916">
            <path id="Path_1249677" data-name="Path 1249677" d="M48.142,13.245a12.4,12.4,0,0,1,3.635,1.507L54.14,13.7l2.783,2.783L55.875,18.85a12.4,12.4,0,0,1,1.507,3.635l2.411.928v3.938l-2.411.928a12.406,12.406,0,0,1-1.507,3.634l1.048,2.362L54.14,37.06l-2.362-1.05a12.406,12.406,0,0,1-3.635,1.509l-.928,2.409H43.277l-.928-2.41a12.411,12.411,0,0,1-3.634-1.507l-2.362,1.05-2.785-2.785,1.05-2.361a12.445,12.445,0,0,1-1.509-3.635L30.7,27.351V23.413l2.409-.928a12.407,12.407,0,0,1,1.509-3.635l-1.05-2.362L36.353,13.7l2.361,1.048a12.436,12.436,0,0,1,3.635-1.507l.928-2.411h3.938Z" fill="#ffe177" fill-rule="evenodd"/>
            <path id="Path_1249678" data-name="Path 1249678" d="M53.346,14.056l.794-.352,2.783,2.783L55.875,18.85a12.4,12.4,0,0,1,1.507,3.635l2.411.928v3.938l-2.411.928a12.406,12.406,0,0,1-1.507,3.634l1.048,2.362L54.14,37.06l-.794-.352,2.433-2.433-1.05-2.362a12.406,12.406,0,0,0,1.507-3.634l2.411-.928V23.413l-2.411-.928a12.4,12.4,0,0,0-1.507-3.635l1.05-2.362ZM36,14.056l.352-.352,2.361,1.048c-.167.093-.332.189-.493.29Zm12.142-.811a12.4,12.4,0,0,1,3.635,1.507l-.651.29a16.216,16.216,0,0,0-4.13-1.8l-.928-2.411h1.146ZM38.715,36.01l-2.362,1.05L36,36.708l2.22-.986q.242.15.495.289Zm13.063,0a12.406,12.406,0,0,1-3.635,1.509l-.928,2.409H46.069L47,37.518a16.26,16.26,0,0,0,4.132-1.8Z" fill="#ffd064" fill-rule="evenodd"/>
            <path id="Path_1249679" data-name="Path 1249679" d="M45.246,18.383a7,7,0,1,1-7,7A7,7,0,0,1,45.246,18.383Z" fill="#eceff1" fill-rule="evenodd"/>
            <path id="Path_1249680" data-name="Path 1249680" d="M45.246,18.383c.159,0,.317.006.475.017a7,7,0,0,0,0,13.963c-.158.01-.316.016-.475.016a7,7,0,0,1,0-14Z" fill="#d1d1d6" fill-rule="evenodd"/>
          </g>
        </g>
        <path id="Path_1249681" data-name="Path 1249681" d="M18.7,16.351H3.434a1.259,1.259,0,0,1-1.09-.628A9.25,9.25,0,0,1,10.353,1.84h.07L59.967,2c5.214.017,9.146,5.315,9.146,10.715V42.864a1.259,1.259,0,0,1-2.518,0V12.712c0-4.042-2.732-8.184-6.635-8.2L17.337,4.381a10.851,10.851,0,0,1,3.883,8.331v57.44H45.172a1.259,1.259,0,1,1,0,2.518H19.961A1.259,1.259,0,0,1,18.7,71.411ZM10.353,4.358A6.732,6.732,0,0,0,4.2,13.833H18.7V12.712a8.349,8.349,0,0,0-8.287-8.353h-.062ZM44.3,52.412a1.259,1.259,0,0,1,0,2.518H32.391a1.259,1.259,0,0,1,0-2.518Zm-1.286,6.027a1.259,1.259,0,1,1,0,2.518H32.391a1.259,1.259,0,0,1,0-2.518Zm5.491-12.053a1.259,1.259,0,1,1,0,2.518H32.391a1.259,1.259,0,0,1,0-2.518ZM62.336,78.36A16.764,16.764,0,1,1,79.1,61.6,16.8,16.8,0,0,1,62.336,78.36Zm0-2.516A14.248,14.248,0,1,0,48.088,61.6,14.278,14.278,0,0,0,62.336,75.844Zm-1.258-23V51.783a1.258,1.258,0,0,1,2.516,0v1.046A5.877,5.877,0,0,1,68.061,56.4a1.258,1.258,0,1,1-2.32.975,3.721,3.721,0,0,0-4.878-1.857,2.439,2.439,0,0,0-1.727,2.372A2.1,2.1,0,0,0,60.485,59.7a7.576,7.576,0,0,0,2.069.6c2.655.434,5.594,1.615,5.98,4.772v0c.379,3.143-2.261,4.9-4.94,5.306V71.41a1.258,1.258,0,1,1-2.516,0V70.363a5.872,5.872,0,0,1-4.936-4.292,1.258,1.258,0,0,1,2.442-.608c.438,1.76,2.205,2.534,3.925,2.493a5.056,5.056,0,0,0,2.673-.768,1.835,1.835,0,0,0,.854-1.811A2.477,2.477,0,0,0,64.4,63.4a9.053,9.053,0,0,0-2.254-.62h0c-2.588-.426-5.373-1.7-5.523-4.774h0a4.876,4.876,0,0,1,3.318-4.835,6.477,6.477,0,0,1,1.137-.33ZM49.11,12.069a13.75,13.75,0,0,1,2.8,1.162l1.8-.8a1.258,1.258,0,0,1,1.4.26l2.81,2.81a1.258,1.258,0,0,1,.261,1.4l-.8,1.8a13.729,13.729,0,0,1,1.163,2.81l1.833.705a1.258,1.258,0,0,1,.806,1.174v3.975a1.258,1.258,0,0,1-.806,1.174l-1.834.706a13.865,13.865,0,0,1-1.163,2.8l.8,1.8a1.258,1.258,0,0,1-.261,1.4l-2.81,2.81a1.258,1.258,0,0,1-1.4.261l-1.8-.8a13.719,13.719,0,0,1-2.806,1.162L48.4,40.516a1.258,1.258,0,0,1-1.174.806H43.255a1.258,1.258,0,0,1-1.174-.806l-.706-1.833a13.833,13.833,0,0,1-2.808-1.164l-1.8.8a1.258,1.258,0,0,1-1.4-.261l-2.81-2.81a1.258,1.258,0,0,1-.26-1.4l.8-1.8a13.83,13.83,0,0,1-1.164-2.8L30.1,28.537a1.258,1.258,0,0,1-.806-1.174V23.388a1.258,1.258,0,0,1,.806-1.174l1.835-.706A13.84,13.84,0,0,1,33.1,18.7l-.8-1.8a1.258,1.258,0,0,1,.26-1.4l2.81-2.81a1.258,1.258,0,0,1,1.4-.26l1.8.8a13.742,13.742,0,0,1,2.8-1.162l.709-1.838a1.258,1.258,0,0,1,1.174-.805H47.23a1.258,1.258,0,0,1,1.174.807Zm-2.118,1.5-.627-1.631H44.119l-.63,1.633a1.258,1.258,0,0,1-.883.771,11.245,11.245,0,0,0-3.3,1.368,1.258,1.258,0,0,1-1.171.078l-1.6-.71L34.949,16.67l.71,1.6a1.258,1.258,0,0,1-.078,1.171,11.334,11.334,0,0,0-1.373,3.308,1.258,1.258,0,0,1-.771.88l-1.627.626V26.5l1.627.626a1.258,1.258,0,0,1,.771.88,11.309,11.309,0,0,0,1.372,3.3,1.258,1.258,0,0,1,.08,1.173l-.71,1.6,1.589,1.589,1.6-.707a1.258,1.258,0,0,1,1.167.078,11.33,11.33,0,0,0,3.307,1.37,1.259,1.259,0,0,1,.884.772l.626,1.628h2.247l.627-1.628a1.258,1.258,0,0,1,.883-.772,11.2,11.2,0,0,0,3.3-1.367,1.258,1.258,0,0,1,1.171-.08l1.6.707,1.59-1.59-.707-1.6a1.258,1.258,0,0,1,.078-1.167,11.354,11.354,0,0,0,1.37-3.3,1.258,1.258,0,0,1,.772-.883l1.628-.626V24.252l-1.628-.626a1.258,1.258,0,0,1-.772-.884,11.219,11.219,0,0,0-1.368-3.3,1.258,1.258,0,0,1-.079-1.17l.707-1.6-1.589-1.589-1.6.71a1.258,1.258,0,0,1-1.171-.078,11.245,11.245,0,0,0-3.3-1.368,1.258,1.258,0,0,1-.883-.773Zm-1.752,3.61a8.193,8.193,0,1,1-8.191,8.191A8.192,8.192,0,0,1,45.241,17.183Zm0,2.516a5.677,5.677,0,1,0,5.679,5.675A5.673,5.673,0,0,0,45.241,19.7Z" fill-rule="evenodd"/>
      </g>
    </g>
  </g>
</svg>
