<svg xmlns="http://www.w3.org/2000/svg" xmlns:xlink="http://www.w3.org/1999/xlink" width="88.83" height="85.055" viewBox="0 0 88.83 85.055">
  <defs>
    <clipPath id="clip-path">
      <rect id="Rectangle_413275" data-name="Rectangle 413275" width="78" height="78" transform="translate(925.83 14072.623)" fill="#fff" stroke="#707070" stroke-width="1"/>
    </clipPath>
  </defs>
  <g id="Group_1209920" data-name="Group 1209920" transform="translate(-915 -14065.568)">
    <g id="Rectangle_413274" data-name="Rectangle 413274" transform="translate(915 14065.568)" fill="#fd9826" stroke="#af6a1a" stroke-width="3">
      <rect width="70" height="70" rx="10" stroke="none"/>
      <rect x="1.5" y="1.5" width="67" height="67" rx="8.5" fill="none"/>
    </g>
    <g id="Mask_Group_1099376" data-name="Mask Group 1099376" clip-path="url(#clip-path)">
      <g id="elearning_2389242" transform="translate(924.572 14071.365)">
        <path id="Path_1249626" data-name="Path 1249626" d="M52.839,40.258h5.032V45.29H52.839Z" fill="#8892a0"/>
        <path id="Path_1249627" data-name="Path 1249627" d="M40.258,15.1H32.71V40.258H78V15.1H74.226" fill="#4d5d7a"/>
        <path id="Path_1249628" data-name="Path 1249628" d="M40.258,35.226c15,0,27.534-8.61,30.682-20.129H32.71V34.473A38.151,38.151,0,0,0,40.258,35.226Z" fill="#8892a0"/>
        <path id="Path_1249629" data-name="Path 1249629" d="M60.387,27.677V10.065H52.839V2.516H40.258V27.677" fill="#a1cdfb"/>
        <path id="Path_1249630" data-name="Path 1249630" d="M52.839,2.516H50.055A13.824,13.824,0,0,0,60.387,23.84V10.065H52.839Z" fill="#c7e2fc"/>
        <path id="Path_1249631" data-name="Path 1249631" d="M60.387,10.065,52.839,2.516v7.548Z" fill="#a1cdfb"/>
        <path id="Path_1249632" data-name="Path 1249632" d="M65.419,27.677V13.839l2.516-6.29,2.516,6.29V26.419" fill="#976947"/>
        <path id="Path_1249633" data-name="Path 1249633" d="M65.419,15.1h5.032V27.677H65.419Z" fill="#e47c6e"/>
        <path id="Path_1249634" data-name="Path 1249634" d="M5.032,78h7.548V72.968H7.548a2.515,2.515,0,0,0-2.516,2.516Z" fill="#78b75b"/>
        <path id="Path_1249635" data-name="Path 1249635" d="M25.161,78H17.613V72.968h5.032a2.515,2.515,0,0,1,2.516,2.516Z" fill="#78b75b"/>
        <path id="Path_1249636" data-name="Path 1249636" d="M22.645,57.871V46.548l5.032,5.032,8.806-8.806L32.71,39l-5.032,5.032L23.9,40.258H7.548A5.032,5.032,0,0,0,2.516,45.29v7.548a5.032,5.032,0,0,0,5.032,5.032" fill="#669e4f"/>
        <path id="Path_1249637" data-name="Path 1249637" d="M20.972,40.258H7.548A5.032,5.032,0,0,0,2.516,45.29v7.548a5,5,0,0,0,.161,1.2c.365.023.727.055,1.1.055A17.613,17.613,0,0,0,20.972,40.258Z" fill="#78b75b"/>
        <path id="Path_1249638" data-name="Path 1249638" d="M7.548,57.871a5.032,5.032,0,0,1-5.032-5.032H7.548Z" fill="#efbe9a"/>
        <path id="Path_1249639" data-name="Path 1249639" d="M22.645,72.968H17.613V60.387H12.581V72.968H7.548V55.355h15.1Z" fill="#4d5d7a"/>
        <path id="Path_1249640" data-name="Path 1249640" d="M15.1,37.742a3.774,3.774,0,0,1-3.774-3.774V31.452a3.774,3.774,0,0,1,7.548,0v2.516A3.774,3.774,0,0,1,15.1,37.742Z" fill="#efbe9a"/>
        <circle id="Ellipse_12696" data-name="Ellipse 12696" cx="10.065" cy="10.065" r="10.065" transform="translate(57.871 57.871)" fill="#f5b953"/>
        <circle id="Ellipse_12697" data-name="Ellipse 12697" cx="6.29" cy="6.29" r="6.29" transform="translate(61.645 61.645)" fill="#f9d18b"/>
        <circle id="Ellipse_12698" data-name="Ellipse 12698" cx="10.065" cy="10.065" r="10.065" transform="translate(30.194 57.871)" fill="#f5b953"/>
        <circle id="Ellipse_12699" data-name="Ellipse 12699" cx="6.29" cy="6.29" r="6.29" transform="translate(33.968 61.645)" fill="#f9d18b"/>
        <path id="Path_1249641" data-name="Path 1249641" d="M18.871,72.968H16.355V61.645H13.839V72.968H11.323V60.387a1.259,1.259,0,0,1,1.258-1.258h5.032a1.259,1.259,0,0,1,1.258,1.258Z"/>
        <path id="Path_1249642" data-name="Path 1249642" d="M6.29,46.548H8.806V72.968H6.29Z"/>
        <path id="Path_1249643" data-name="Path 1249643" d="M7.548,59.129a6.3,6.3,0,0,1-6.29-6.29V45.29A6.3,6.3,0,0,1,7.548,39H23.9a1.255,1.255,0,0,1,.889.369l2.885,2.885,4.143-4.143L33.6,39.889l-5.032,5.032a1.257,1.257,0,0,1-1.779,0l-3.406-3.406H7.548A3.779,3.779,0,0,0,3.774,45.29v7.548a3.779,3.779,0,0,0,3.774,3.774Z"/>
        <path id="Path_1249644" data-name="Path 1249644" d="M23.9,72.968H21.387V46.548a1.258,1.258,0,0,1,2.148-.889L27.677,49.8,34.7,42.774l-1.627-1.627,1.779-1.779,2.516,2.516a1.257,1.257,0,0,1,0,1.779L28.567,52.47a1.257,1.257,0,0,1-1.779,0L23.9,49.585Z"/>
        <path id="Path_1249645" data-name="Path 1249645" d="M15.1,39a5.037,5.037,0,0,1-5.032-5.032V31.452a5.032,5.032,0,0,1,10.065,0v2.516A5.037,5.037,0,0,1,15.1,39Zm0-10.065a2.519,2.519,0,0,0-2.516,2.516v2.516a2.516,2.516,0,0,0,5.032,0V31.452A2.519,2.519,0,0,0,15.1,28.935Z"/>
        <path id="Path_1249646" data-name="Path 1249646" d="M7.548,54.1h15.1v2.516H7.548Z"/>
        <path id="Path_1249647" data-name="Path 1249647" d="M12.581,79.258H5.032A1.259,1.259,0,0,1,3.774,78V75.484A3.779,3.779,0,0,1,7.548,71.71h5.032a1.259,1.259,0,0,1,1.258,1.258V78A1.259,1.259,0,0,1,12.581,79.258ZM6.29,76.742h5.032V74.226H7.548A1.26,1.26,0,0,0,6.29,75.484Z"/>
        <path id="Path_1249648" data-name="Path 1249648" d="M25.161,79.258H17.613A1.259,1.259,0,0,1,16.355,78V72.968a1.259,1.259,0,0,1,1.258-1.258h5.032a3.779,3.779,0,0,1,3.774,3.774V78A1.259,1.259,0,0,1,25.161,79.258Zm-6.29-2.516H23.9V75.484a1.26,1.26,0,0,0-1.258-1.258H18.871Z"/>
        <path id="Path_1249649" data-name="Path 1249649" d="M2.516,51.581H7.548V54.1H2.516Z"/>
        <path id="Path_1249650" data-name="Path 1249650" d="M78,41.516H32.71a1.259,1.259,0,0,1-1.258-1.258V15.1a1.259,1.259,0,0,1,1.258-1.258h7.548v2.516h-6.29V39H76.742V16.355H74.226V13.839H78A1.259,1.259,0,0,1,79.258,15.1V40.258A1.259,1.259,0,0,1,78,41.516Z"/>
        <path id="Path_1249651" data-name="Path 1249651" d="M51.581,40.258H54.1V45.29H51.581Z"/>
        <path id="Path_1249652" data-name="Path 1249652" d="M56.613,40.258h2.516V45.29H56.613Z"/>
        <path id="Path_1249653" data-name="Path 1249653" d="M46.548,44.032H64.161v2.516H46.548Z"/>
        <path id="Path_1249654" data-name="Path 1249654" d="M36.484,26.419H74.226v2.516H36.484Z"/>
        <path id="Path_1249655" data-name="Path 1249655" d="M61.645,27.677H59.129V11.323h-6.29a1.259,1.259,0,0,1-1.258-1.258V3.774H41.516v23.9H39V2.516a1.259,1.259,0,0,1,1.258-1.258H52.839A1.259,1.259,0,0,1,54.1,2.516v6.29h6.29a1.259,1.259,0,0,1,1.258,1.258Z"/>
        <path id="Path_1249656" data-name="Path 1249656" d="M66.677,27.677H64.161V13.839a1.273,1.273,0,0,1,.089-.468l2.516-6.29a1.259,1.259,0,0,1,2.337,0l2.516,6.29a1.273,1.273,0,0,1,.089.468V26.419H69.194V14.08l-1.258-3.145L66.677,14.08Z"/>
        <path id="Path_1249657" data-name="Path 1249657" d="M65.419,13.839h5.032v2.516H65.419Z"/>
        <path id="Path_1249658" data-name="Path 1249658" d="M55.346.952h2.516V11.625H55.346Z" transform="translate(12.134 41.873) rotate(-45)"/>
        <path id="Path_1249659" data-name="Path 1249659" d="M44.032,13.839H56.613v2.516H44.032Z"/>
        <path id="Path_1249660" data-name="Path 1249660" d="M44.032,18.871H56.613v2.516H44.032Z"/>
        <path id="Path_1249661" data-name="Path 1249661" d="M42.774,71.71h-6.29V69.194h3.253l-2.885-2.885a1.258,1.258,0,0,1,.889-2.148h6.29v2.516H40.779l2.885,2.885a1.258,1.258,0,0,1-.889,2.148Z"/>
        <path id="Path_1249662" data-name="Path 1249662" d="M39,61.645h2.516v3.774H39Z"/>
        <path id="Path_1249663" data-name="Path 1249663" d="M39,70.452h2.516v3.774H39Z"/>
        <path id="Path_1249664" data-name="Path 1249664" d="M40.258,79.258A11.323,11.323,0,1,1,51.581,67.935,11.336,11.336,0,0,1,40.258,79.258Zm0-20.129a8.806,8.806,0,1,0,8.806,8.806A8.816,8.816,0,0,0,40.258,59.129Z"/>
        <path id="Path_1249665" data-name="Path 1249665" d="M70.452,71.71h-6.29V69.194h3.253L64.53,66.309a1.258,1.258,0,0,1,.889-2.148h6.29v2.516H68.456l2.885,2.885a1.258,1.258,0,0,1-.889,2.148Z"/>
        <path id="Path_1249666" data-name="Path 1249666" d="M66.677,61.645h2.516v3.774H66.677Z"/>
        <path id="Path_1249667" data-name="Path 1249667" d="M66.677,70.452h2.516v3.774H66.677Z"/>
        <path id="Path_1249668" data-name="Path 1249668" d="M67.935,79.258A11.323,11.323,0,1,1,79.258,67.935,11.336,11.336,0,0,1,67.935,79.258Zm0-20.129a8.806,8.806,0,1,0,8.806,8.806A8.816,8.816,0,0,0,67.935,59.129Z"/>
        <path id="Path_1249669" data-name="Path 1249669" d="M39,51.581h2.516V54.1H39Z"/>
        <path id="Path_1249670" data-name="Path 1249670" d="M39,46.548h2.516v2.516H39Z"/>
        <path id="Path_1249671" data-name="Path 1249671" d="M66.677,51.581h2.516V54.1H66.677Z"/>
        <path id="Path_1249672" data-name="Path 1249672" d="M66.677,46.548h2.516v2.516H66.677Z"/>
      </g>
    </g>
  </g>
</svg>
