<svg xmlns="http://www.w3.org/2000/svg" xmlns:xlink="http://www.w3.org/1999/xlink" width="295" height="315" viewBox="0 0 295 315">
  <defs>
    <clipPath id="clip-path">
      <path id="Rectangle_412902" data-name="Rectangle 412902" d="M0,0H280a15,15,0,0,1,15,15V300a15,15,0,0,1-15,15H0a0,0,0,0,1,0,0V0A0,0,0,0,1,0,0Z" transform="translate(1020.051 9433)" fill="#fff" stroke="#707070" stroke-width="1"/>
    </clipPath>
  </defs>
  <g id="Mask_Group_1099369" data-name="Mask Group 1099369" transform="translate(-1020.051 -9433)" clip-path="url(#clip-path)">
    <g id="_18144213_6133336f014a0821d003c9b3" data-name="18144213_6133336f014a0821d003c9b3" transform="translate(1020.051 9454.802)">
      <rect id="Rectangle_412903" data-name="Rectangle 412903" width="295" height="311.395" transform="translate(0 -19)" fill="#94a5d5" stroke="#707070" stroke-width="0.133"/>
      <rect id="Rectangle_412904" data-name="Rectangle 412904" width="295" height="131.195" transform="translate(0 161.201)" fill="#869acf" stroke="#707070" stroke-width="0.133"/>
      <path id="Path_1277141" data-name="Path 1277141" d="M201.872,206.787c0,7.26-44.467,13.145-99.319,13.145S3.234,214.047,3.234,206.787s44.467-13.146,99.319-13.146S201.872,199.527,201.872,206.787Z" fill="#49609a" stroke="#707070" stroke-width="0.133"/>
      <path id="Path_1277142" data-name="Path 1277142" d="M184.9,209.478H18.532c-3.669,0-6.048-4.128-5.084-12.253l12.721-16.39a5.078,5.078,0,0,1,4.647-3.029h141.8a5.078,5.078,0,0,1,4.646,3.029L189.92,197.3C190.589,205.767,188.566,209.478,184.9,209.478Z" fill="#211d43" stroke="#707070" stroke-width="0.133"/>
      <path id="Path_1277143" data-name="Path 1277143" d="M169.334,171.482H33.945a9.335,9.335,0,0,1-9.307-9.308V65.3a9.335,9.335,0,0,1,9.307-9.308H169.334a9.335,9.335,0,0,1,9.308,9.308v96.878A9.334,9.334,0,0,1,169.334,171.482Z" fill="#282653" stroke="#707070" stroke-width="0.133"/>
      <path id="Path_1277144" data-name="Path 1277144" d="M172.794,56.662v95.425a9.335,9.335,0,0,1-9.308,9.307H28.1a9.224,9.224,0,0,1-3.459-.673v1.453a9.335,9.335,0,0,0,9.307,9.308H169.334a9.335,9.335,0,0,0,9.308-9.308V65.3A9.338,9.338,0,0,0,172.794,56.662Z" fill="#211d43" stroke="#707070" stroke-width="0.133"/>
      <path id="Path_1277145" data-name="Path 1277145" d="M165.193,160.923H38.087a8.8,8.8,0,0,1-8.771-8.772V75.319a8.8,8.8,0,0,1,8.771-8.772H165.193a8.8,8.8,0,0,1,8.771,8.772v76.832A8.8,8.8,0,0,1,165.193,160.923Z" fill="#f08ba5" stroke="#707070" stroke-width="0.133"/>
      <path id="Path_1277146" data-name="Path 1277146" d="M165.193,66.547h-1.17V141.2a8.8,8.8,0,0,1-8.771,8.771H29.316v2.179a8.8,8.8,0,0,0,8.771,8.772H165.193a8.8,8.8,0,0,0,8.771-8.772V75.319A8.8,8.8,0,0,0,165.193,66.547Z" fill="#ec6591" stroke="#707070" stroke-width="0.133"/>
      <path id="Path_1277147" data-name="Path 1277147" d="M104.48,61.463a2.84,2.84,0,1,1-2.84-2.84A2.839,2.839,0,0,1,104.48,61.463Z" fill="#2f2c6d" stroke="#707070" stroke-width="0.133"/>
      <path id="Path_1277148" data-name="Path 1277148" d="M184.823,203.154H18.458a5.079,5.079,0,0,1-4.647-7.128L26.1,174.511a5.078,5.078,0,0,1,4.646-3.029h141.8a5.079,5.079,0,0,1,4.647,3.029l12.284,21.514A5.079,5.079,0,0,1,184.823,203.154Z" fill="#282653" stroke="#707070" stroke-width="0.133"/>
      <path id="Path_1277149" data-name="Path 1277149" d="M151.6,198.235H51.677a3.05,3.05,0,0,1-2.791-4.281l4.584-8.731a3.051,3.051,0,0,1,2.791-1.819h90.757a3.05,3.05,0,0,1,2.791,1.819l4.585,8.731A3.05,3.05,0,0,1,151.6,198.235Z" fill="#2f2c6d" stroke="#707070" stroke-width="0.133"/>
      <path id="Path_1277150" data-name="Path 1277150" d="M94.7,115.846H54.1a10.572,10.572,0,1,1,0-21.144H94.7a10.572,10.572,0,0,1,0,21.144Z" fill="#e2e9f7" stroke="#707070" stroke-width="0.133"/>
      <path id="Path_1277151" data-name="Path 1277151" d="M122.776,146.507h-40.6a10.572,10.572,0,0,1,0-21.145h40.6a10.572,10.572,0,0,1,0,21.145Z" fill="#e2e9f7" stroke="#707070" stroke-width="0.133"/>
      <path id="Path_1277152" data-name="Path 1277152" d="M52.3,114.975l1.181,4.6,2.868-4.6" fill="#e2e9f7" stroke="#707070" stroke-width="0.133"/>
      <path id="Path_1277153" data-name="Path 1277153" d="M125.082,145.343l-1.181,4.6-2.868-4.6" fill="#e2e9f7" stroke="#707070" stroke-width="0.133"/>
      <circle id="Ellipse_12666" data-name="Ellipse 12666" cx="23.116" cy="23.116" r="23.116" transform="translate(103.943 96.454) rotate(-45)" fill="#b1d9c5" stroke="#707070" stroke-width="0.133"/>
      <path id="Path_1277154" data-name="Path 1277154" d="M150.2,84.916a1.723,1.723,0,0,0-2.436,0L131.9,104.207,125.5,97.813a1.722,1.722,0,0,0-2.436,2.436l7.643,7.644.082.1a1.713,1.713,0,0,0,1.218.5h.018a1.683,1.683,0,0,0,1.467-.828L150.231,87.32A1.724,1.724,0,0,0,150.2,84.916Z" fill="#e2e9f7" stroke="#707070" stroke-width="0.133"/>
      <path id="Path_1277155" data-name="Path 1277155" d="M253.83,33.418H209.192a28.168,28.168,0,0,0-4.282,56.008l2.634,10.25,6.193-9.923H253.83a28.167,28.167,0,1,0,0-56.335Z" fill="#fbec71" stroke="#707070" stroke-width="0.133"/>
      <path id="Path_1277156" data-name="Path 1277156" d="M273.248,41.229a27.956,27.956,0,0,1,4.62,16.586,28.408,28.408,0,0,1-28.511,27.022H212.906a5.908,5.908,0,0,0-5.012,2.78l-2.445,3.917,2.092,8.142,6.193-9.923H253.5A28.383,28.383,0,0,0,281.982,62.5,28.089,28.089,0,0,0,273.248,41.229Z" fill="#f7d658" stroke="#707070" stroke-width="0.133"/>
      <path id="Path_1277157" data-name="Path 1277157" d="M251.193,60.965a19.682,19.682,0,1,0-19.682,19.682A19.682,19.682,0,0,0,251.193,60.965Z" fill="#f4c442" stroke="#707070" stroke-width="0.133"/>
      <path id="Path_1277158" data-name="Path 1277158" d="M238.59,64.878a2.091,2.091,0,0,1,.058.547,1.762,1.762,0,0,1-.058.519.876.876,0,0,0-.029.259,4.216,4.216,0,0,0-.086.432,3.031,3.031,0,0,1-.087.4q-.144.432-.288.821a3.556,3.556,0,0,1-.374.735,1.825,1.825,0,0,1-.188.259c-.067.077-.14.163-.216.259-.1.115-.2.24-.316.374a2.962,2.962,0,0,1-.346.345,9.106,9.106,0,0,1-1.051.691,7.428,7.428,0,0,1-1.224.547,4.312,4.312,0,0,1-.461.144l-.461.115a1.051,1.051,0,0,1-.331.058.8.8,0,0,0-.3.058.856.856,0,0,0-.461.547,1.47,1.47,0,0,0-.057.721,1.492,1.492,0,0,1-.058.72.441.441,0,0,1-.245.259q-.159.057-.389.116a.859.859,0,0,1-.375-.029.61.61,0,0,1-.346-.231.925.925,0,0,1-.129-.475c-.01-.2-.014-.4-.014-.59v-.4a.986.986,0,0,0-.317-.547.92.92,0,0,0-.4-.144,3.921,3.921,0,0,1-.461-.086,5.221,5.221,0,0,0-.634-.187,3.257,3.257,0,0,1-.633-.216,7.025,7.025,0,0,1-2.06-1.383,6.251,6.251,0,0,1-1.369-2.074q-.086-.23-.173-.5t-.173-.533a.677.677,0,0,1-.058-.244,1.356,1.356,0,0,0-.028-.245,1.578,1.578,0,0,1-.072-.4.874.874,0,0,1,.043-.375.526.526,0,0,1,.317-.288.4.4,0,0,1,.23-.043.794.794,0,0,0,.259-.015,2.454,2.454,0,0,1,.705-.014.9.9,0,0,1,.533.187.62.62,0,0,1,.2.288q.057.173.114.4a5.334,5.334,0,0,0,.346,1.066,3.364,3.364,0,0,0,.619.936,5.8,5.8,0,0,0,.82.734,2.037,2.037,0,0,0,.216.144c.067.039.14.077.216.115a1.783,1.783,0,0,0,.345.187,3.921,3.921,0,0,0,.476.173,1.149,1.149,0,0,0,.475.043.457.457,0,0,0,.345-.2.738.738,0,0,0,.116-.418V62.343a1.128,1.128,0,0,0-.144-.605.783.783,0,0,0-.346-.274,3.762,3.762,0,0,0-.49-.173l-.518-.144a3.676,3.676,0,0,1-.461-.158q-.4-.144-.821-.3a3.763,3.763,0,0,1-.764-.389,4.5,4.5,0,0,1-.691-.432l-.115-.1-.115-.1c-.077-.058-.158-.125-.245-.2a1.121,1.121,0,0,1-.216-.26,6.336,6.336,0,0,1-.749-1.44,3.623,3.623,0,0,1-.087-.49,3.734,3.734,0,0,0-.086-.49,2.634,2.634,0,0,0-.029-.461,1.169,1.169,0,0,1,0-.518,2.406,2.406,0,0,0,.029-.432,1.145,1.145,0,0,0,.058-.36.884.884,0,0,1,.058-.331c.038-.153.072-.288.1-.4s.062-.23.1-.345a6.9,6.9,0,0,1,.979-1.7,5.506,5.506,0,0,1,1.411-1.239,6.869,6.869,0,0,1,.793-.418,7.131,7.131,0,0,1,.907-.331,5.086,5.086,0,0,1,.619-.13,1.142,1.142,0,0,0,.533-.216.646.646,0,0,0,.274-.634,1.5,1.5,0,0,1,.1-.749.722.722,0,0,1,.375-.346l.115-.029.115-.029q.633,0,.807.4a.262.262,0,0,1,.043.187.555.555,0,0,0,.015.216v.317c.038.154.072.288.1.4a.612.612,0,0,0,.216.317.816.816,0,0,0,.346.159,3.089,3.089,0,0,1,.432.13c.154.039.312.086.476.144a4.17,4.17,0,0,1,.475.2,4.765,4.765,0,0,1,1.685,1.181,8.292,8.292,0,0,1,1.167,1.671q.144.317.259.619t.23.648a1.563,1.563,0,0,1,.1.274.47.47,0,0,1-.014.3.42.42,0,0,1-.231.288.78.78,0,0,1-.374.116,3.415,3.415,0,0,1-.547.014,4.286,4.286,0,0,1-.533-.058.962.962,0,0,1-.331-.1.877.877,0,0,1-.389-.562,2.556,2.556,0,0,0-.273-.677,6.345,6.345,0,0,0-.62-.835,3.047,3.047,0,0,0-.792-.634,3.083,3.083,0,0,0-.72-.274.454.454,0,0,0-.576.332,1.5,1.5,0,0,0-.1.691c.009.308.015.576.015.807v4.119a1.391,1.391,0,0,0,.144.72.882.882,0,0,0,.605.432,6.414,6.414,0,0,1,.806.23q.606.2,1.138.389a4.844,4.844,0,0,1,1.022.5,6.128,6.128,0,0,1,1.426,1.2,4.7,4.7,0,0,1,.936,1.714c.039.154.073.3.1.447s.062.293.1.447v.287ZM230.353,58.8a.563.563,0,0,0,.4-.619V53.845a7.8,7.8,0,0,0-.058-1.008q-.058-.432-.634-.432l-.129.043-.129.014q-.2.058-.389.13a1.235,1.235,0,0,0-.331.187,3.314,3.314,0,0,0-.922.778,3.272,3.272,0,0,0-.576,1.123,1.086,1.086,0,0,0-.072.317,1.5,1.5,0,0,1-.073.346,1.5,1.5,0,0,0-.028.519,2.775,2.775,0,0,0,.086.49,5.206,5.206,0,0,0,.115.548,2.537,2.537,0,0,0,.605.893,4.07,4.07,0,0,0,.864.6,3.6,3.6,0,0,0,.806.346c.058.019.125.043.2.072A.349.349,0,0,0,230.353,58.8Zm5.674,7.345a2.342,2.342,0,0,0,.058-.562,1.679,1.679,0,0,0-.058-.5c-.039-.154-.067-.293-.087-.418a2.149,2.149,0,0,0-.086-.36,2.647,2.647,0,0,0-.692-.979,4.859,4.859,0,0,0-1.008-.663q-.289-.144-.62-.3a1.689,1.689,0,0,0-.734-.158l-.115.029a.374.374,0,0,0-.23.173,1.313,1.313,0,0,0-.158.763q.014.5.015.908V67.5c0,.307,0,.6.014.893a.787.787,0,0,0,.274.634.491.491,0,0,0,.432.116.9.9,0,0,1,.216-.029.484.484,0,0,0,.216-.058,3.955,3.955,0,0,0,1.484-.763,3.226,3.226,0,0,0,.907-1.339,2.941,2.941,0,0,0,.086-.4A3.111,3.111,0,0,1,236.027,66.145Z" fill="#fbec71" stroke="#707070" stroke-width="0.133"/>
      <path id="Path_1277159" data-name="Path 1277159" d="M203.441,234.115c0,6-16.623,10.868-37.13,10.868s-37.13-4.866-37.13-10.868,16.624-10.868,37.13-10.868S203.441,228.113,203.441,234.115Z" fill="#49609a" stroke="#707070" stroke-width="0.133"/>
      <ellipse id="Ellipse_12667" data-name="Ellipse 12667" cx="56.356" cy="11.757" rx="56.356" ry="11.757" transform="translate(177.957 199.733)" fill="#49609a" stroke="#707070" stroke-width="0.133"/>
      <rect id="Rectangle_412905" data-name="Rectangle 412905" width="9.976" height="40.406" transform="translate(190.309 153.668)" fill="#d6edfc" stroke="#707070" stroke-width="0.133"/>
      <path id="Path_1277160" data-name="Path 1277160" d="M200.13,156.81h-9.669a3.119,3.119,0,0,1-3.11-3.11v-2.279a3.119,3.119,0,0,1,3.11-3.11h9.669a3.119,3.119,0,0,1,3.109,3.11V153.7A3.119,3.119,0,0,1,200.13,156.81Z" fill="#aadcf8" stroke="#707070" stroke-width="0.133"/>
      <path id="Path_1277161" data-name="Path 1277161" d="M200.13,199.433h-9.669a3.119,3.119,0,0,1-3.11-3.109v-2.278a3.119,3.119,0,0,1,3.11-3.11h9.669a3.118,3.118,0,0,1,3.109,3.11v2.278A3.118,3.118,0,0,1,200.13,199.433Z" fill="#aadcf8" stroke="#707070" stroke-width="0.133"/>
      <rect id="Rectangle_412906" data-name="Rectangle 412906" width="9.976" height="40.406" transform="translate(226.61 153.668)" fill="#d6edfc" stroke="#707070" stroke-width="0.133"/>
      <path id="Path_1277162" data-name="Path 1277162" d="M236.432,156.81h-9.669a3.119,3.119,0,0,1-3.109-3.11v-2.279a3.119,3.119,0,0,1,3.109-3.11h9.669a3.119,3.119,0,0,1,3.11,3.11V153.7A3.12,3.12,0,0,1,236.432,156.81Z" fill="#aadcf8" stroke="#707070" stroke-width="0.133"/>
      <path id="Path_1277163" data-name="Path 1277163" d="M236.432,199.433h-9.669a3.118,3.118,0,0,1-3.109-3.109v-2.278a3.118,3.118,0,0,1,3.109-3.11h9.669a3.119,3.119,0,0,1,3.11,3.11v2.278A3.119,3.119,0,0,1,236.432,199.433Z" fill="#aadcf8" stroke="#707070" stroke-width="0.133"/>
      <rect id="Rectangle_412907" data-name="Rectangle 412907" width="9.976" height="40.406" transform="translate(262.91 153.668)" fill="#d6edfc" stroke="#707070" stroke-width="0.133"/>
      <path id="Path_1277164" data-name="Path 1277164" d="M272.733,156.81h-9.668a3.119,3.119,0,0,1-3.11-3.11v-2.279a3.119,3.119,0,0,1,3.11-3.11h9.668a3.119,3.119,0,0,1,3.11,3.11V153.7A3.12,3.12,0,0,1,272.733,156.81Z" fill="#aadcf8" stroke="#707070" stroke-width="0.133"/>
      <path id="Path_1277165" data-name="Path 1277165" d="M272.733,199.433h-9.668a3.118,3.118,0,0,1-3.11-3.109v-2.278a3.119,3.119,0,0,1,3.11-3.11h9.668a3.119,3.119,0,0,1,3.11,3.11v2.278A3.119,3.119,0,0,1,272.733,199.433Z" fill="#aadcf8" stroke="#707070" stroke-width="0.133"/>
      <rect id="Rectangle_412908" data-name="Rectangle 412908" width="93.924" height="5.103" transform="translate(184.635 199.433)" fill="#d6edfc" stroke="#707070" stroke-width="0.133"/>
      <rect id="Rectangle_412909" data-name="Rectangle 412909" width="99.395" height="5.103" transform="translate(181.901 204.536)" fill="#c6e7fb" stroke="#707070" stroke-width="0.133"/>
      <rect id="Rectangle_412910" data-name="Rectangle 412910" width="105.778" height="5.103" transform="translate(178.709 209.639)" fill="#aadcf8" stroke="#707070" stroke-width="0.133"/>
      <path id="Path_1277166" data-name="Path 1277166" d="M281.144,138.544H182.051V145.7a2.614,2.614,0,0,0,2.614,2.614H278.53a2.614,2.614,0,0,0,2.614-2.614Z" fill="#c6e7fb" stroke="#707070" stroke-width="0.133"/>
      <path id="Path_1277167" data-name="Path 1277167" d="M281.144,138.544H182.051l46.99-23.86a5.647,5.647,0,0,1,5.113,0Z" fill="#d6edfc" stroke="#707070" stroke-width="0.133"/>
      <path id="Path_1277168" data-name="Path 1277168" d="M260.493,134.045H202.7l26.268-13.816a5.648,5.648,0,0,1,5.257,0Z" fill="#c6e7fb" stroke="#707070" stroke-width="0.133"/>
      <path id="Path_1277169" data-name="Path 1277169" d="M201.529,211.552a53.469,53.469,0,0,0-12.556-27.8c-6.214-7-13.411-11.04-22.1-11.115-8.693.075-15.89,4.115-22.1,11.116a53.47,53.47,0,0,0-12.556,27.8c-1.437,10.983,3.772,19.211,10.577,22.75,6.95,3.859,15.5,3.028,24.084,3.256,8.587-.228,17.133.6,24.083-3.256C197.756,230.762,202.966,222.535,201.529,211.552Z" fill="#67bd9f" stroke="#707070" stroke-width="0.133"/>
      <path id="Path_1277170" data-name="Path 1277170" d="M176.4,159.977c-1.673,1-3.205,2.445-4.668,2.3-1.409-.137-2.751-1.825-4.2-2.632-1.97-1.314-3.613.984-5.258,2.3-1.369.684-2.76-1.171-3.81-1.78a5.105,5.105,0,0,0-2.127-.715,3.869,3.869,0,0,0-1.731.175c-.816.333-.783,1.021-.682,1.789a19.975,19.975,0,0,0,4.69,10.384c2.321,2.615,5.01,4.125,8.258,4.153,3.247-.028,5.936-1.538,8.257-4.153a19.976,19.976,0,0,0,4.69-10.384,1.246,1.246,0,0,0-.15-.8A2.067,2.067,0,0,0,176.4,159.977Z" fill="#67bd9f" stroke="#707070" stroke-width="0.133"/>
      <path id="Path_1277171" data-name="Path 1277171" d="M174.151,173.368a.346.346,0,0,0-.426-.368,22.983,22.983,0,0,1-14.013-.114.344.344,0,0,0-.431.366.4.4,0,0,0,.161.331,12.836,12.836,0,0,0,14.541.224.4.4,0,0,0,.168-.336v-.1Z" fill="#36b18e" stroke="#707070" stroke-width="0.133"/>
      <path id="Path_1277172" data-name="Path 1277172" d="M188.148,182.852a54.907,54.907,0,0,1,4.381,16.352c1.306,10.706-2.472,19.264-8.794,24.1-6.336,5.046-15.216,6.369-24.428,7.464-8.91.812-17.48.577-24.273-3.853,3.136,5.466,8.319,8.354,13.865,9.6,5.617,1.292,11.6.941,17.97,1.047,8.587-.228,17.133.6,24.083-3.256,6.805-3.539,12.014-11.768,10.577-22.751C200.236,200.218,194.445,189.77,188.148,182.852Z" fill="#36b18e" stroke="#707070" stroke-width="0.133"/>
      <path id="Path_1277173" data-name="Path 1277173" d="M172.549,209.238a1.642,1.642,0,0,1,.047.439,1.384,1.384,0,0,1-.047.416.7.7,0,0,0-.023.208,3.251,3.251,0,0,0-.069.347,2.523,2.523,0,0,1-.069.324c-.078.231-.154.451-.232.659a2.846,2.846,0,0,1-.3.589,1.446,1.446,0,0,1-.15.208c-.054.062-.112.131-.173.208-.077.092-.161.192-.254.3a2.261,2.261,0,0,1-.277.277,7.239,7.239,0,0,1-.844.555,5.944,5.944,0,0,1-.982.439,3.364,3.364,0,0,1-.37.116l-.37.092a.831.831,0,0,1-.266.047.639.639,0,0,0-.242.046.685.685,0,0,0-.37.439,1.179,1.179,0,0,0-.046.578,1.2,1.2,0,0,1-.046.577.352.352,0,0,1-.2.208,3.186,3.186,0,0,1-.312.093.693.693,0,0,1-.3-.023.494.494,0,0,1-.278-.185.748.748,0,0,1-.1-.381c-.008-.162-.011-.32-.011-.474v-.324a.793.793,0,0,0-.254-.439.734.734,0,0,0-.324-.115,3.216,3.216,0,0,1-.37-.07,4.138,4.138,0,0,0-.508-.15,2.667,2.667,0,0,1-.509-.173,5.648,5.648,0,0,1-1.653-1.11,5.013,5.013,0,0,1-1.1-1.664c-.046-.123-.092-.257-.139-.4s-.092-.289-.138-.427a.535.535,0,0,1-.046-.2,1.026,1.026,0,0,0-.024-.2,1.282,1.282,0,0,1-.058-.323.713.713,0,0,1,.035-.3.424.424,0,0,1,.255-.231l.184-.035a.639.639,0,0,0,.209-.011,1.972,1.972,0,0,1,.566-.011.721.721,0,0,1,.427.15.488.488,0,0,1,.162.231c.03.092.062.2.092.323a4.292,4.292,0,0,0,.278.855,2.7,2.7,0,0,0,.5.751,4.678,4.678,0,0,0,.659.589l.173.115.173.093a1.473,1.473,0,0,0,.277.15,3.088,3.088,0,0,0,.381.138.928.928,0,0,0,.381.035.368.368,0,0,0,.277-.161.593.593,0,0,0,.093-.335V207.2a.9.9,0,0,0-.116-.485.623.623,0,0,0-.277-.22,3.007,3.007,0,0,0-.393-.139l-.416-.115a2.956,2.956,0,0,1-.37-.127q-.323-.115-.659-.242a3.006,3.006,0,0,1-.613-.312,3.56,3.56,0,0,1-.554-.346l-.093-.081-.092-.081c-.062-.046-.127-.1-.2-.162a.859.859,0,0,1-.173-.208,5.069,5.069,0,0,1-.6-1.155,2.855,2.855,0,0,1-.069-.393,3.024,3.024,0,0,0-.07-.393,2.079,2.079,0,0,0-.023-.37.933.933,0,0,1,0-.416,1.9,1.9,0,0,0,.023-.347.911.911,0,0,0,.046-.289.7.7,0,0,1,.047-.266l.081-.324c.023-.092.05-.185.081-.277a5.549,5.549,0,0,1,.785-1.364,4.416,4.416,0,0,1,1.133-.993,5.5,5.5,0,0,1,.636-.335,5.7,5.7,0,0,1,.728-.266,3.968,3.968,0,0,1,.5-.1.913.913,0,0,0,.427-.173.519.519,0,0,0,.22-.508,1.2,1.2,0,0,1,.081-.6.58.58,0,0,1,.3-.278l.092-.023.093-.023q.508,0,.647.324l.035.15.011.173v.255c.03.123.058.231.081.323a.492.492,0,0,0,.173.255.657.657,0,0,0,.277.127,2.413,2.413,0,0,1,.347.1c.123.031.25.069.381.115a3.365,3.365,0,0,1,.381.162,3.817,3.817,0,0,1,1.352.947,6.637,6.637,0,0,1,.936,1.341c.077.169.146.335.208.5s.123.335.185.52a1.216,1.216,0,0,1,.081.22.376.376,0,0,1-.011.243.333.333,0,0,1-.185.231.63.63,0,0,1-.3.093,2.729,2.729,0,0,1-.439.011,3.6,3.6,0,0,1-.428-.046.774.774,0,0,1-.266-.081.7.7,0,0,1-.312-.451,2.079,2.079,0,0,0-.22-.543,5.174,5.174,0,0,0-.5-.67,2.423,2.423,0,0,0-.636-.508,2.451,2.451,0,0,0-.578-.22.365.365,0,0,0-.462.266,1.2,1.2,0,0,0-.081.555q.011.37.011.647v3.305a1.123,1.123,0,0,0,.115.577.708.708,0,0,0,.486.347,5.063,5.063,0,0,1,.647.185q.486.162.913.312a3.912,3.912,0,0,1,.82.4,4.9,4.9,0,0,1,1.144.959,3.773,3.773,0,0,1,.751,1.375c.03.123.058.242.081.358s.049.235.081.358v.231Zm-6.609-4.877a.452.452,0,0,0,.324-.5v-3.478a6.271,6.271,0,0,0-.046-.809q-.047-.348-.509-.347l-.1.035-.1.011c-.108.031-.212.066-.312.1a1.014,1.014,0,0,0-.266.15,2.668,2.668,0,0,0-.739.624,2.61,2.61,0,0,0-.462.9.881.881,0,0,0-.058.254,1.177,1.177,0,0,1-.058.277,1.2,1.2,0,0,0-.023.416,2.192,2.192,0,0,0,.069.393,4.1,4.1,0,0,0,.093.439,2.022,2.022,0,0,0,.485.717,3.253,3.253,0,0,0,.693.485,2.938,2.938,0,0,0,.648.278l.161.058A.282.282,0,0,0,165.94,204.361Zm4.552,5.893a1.86,1.86,0,0,0,.046-.451,1.338,1.338,0,0,0-.046-.4c-.03-.123-.054-.234-.069-.335a1.809,1.809,0,0,0-.069-.289,2.136,2.136,0,0,0-.555-.786,3.863,3.863,0,0,0-.809-.531q-.232-.116-.5-.243a1.351,1.351,0,0,0-.589-.127l-.093.023a.3.3,0,0,0-.185.139,1.051,1.051,0,0,0-.127.613q.011.4.011.728v2.751c0,.246,0,.485.011.716a.629.629,0,0,0,.22.508l.139.081a.372.372,0,0,0,.208.011l.173-.023.173-.047a3.157,3.157,0,0,0,1.19-.612,2.59,2.59,0,0,0,.728-1.075,2.488,2.488,0,0,0,.069-.323A2.553,2.553,0,0,1,170.492,210.254Z" fill="#b1d9c5" stroke="#707070" stroke-width="0.133"/>
      <path id="Path_1277174" data-name="Path 1277174" d="M166.869,188.949A17.149,17.149,0,1,0,184.019,206.1,17.15,17.15,0,0,0,166.869,188.949Zm0,32.941A15.792,15.792,0,1,1,182.661,206.1,15.791,15.791,0,0,1,166.869,221.889Z" fill="#b1d9c5" stroke="#707070" stroke-width="0.133"/>
    </g>
  </g>
</svg>
