<svg xmlns="http://www.w3.org/2000/svg" xmlns:xlink="http://www.w3.org/1999/xlink" width="295" height="246" viewBox="0 0 295 246">
  <defs>
    <clipPath id="clip-path">
      <path id="Rectangle_412911" data-name="Rectangle 412911" d="M0,0H280a15,15,0,0,1,15,15V231a15,15,0,0,1-15,15H0a0,0,0,0,1,0,0V0A0,0,0,0,1,0,0Z" transform="translate(1020.051 11941)" fill="#fff" stroke="#707070" stroke-width="1"/>
    </clipPath>
  </defs>
  <g id="Mask_Group_1099370" data-name="Mask Group 1099370" transform="translate(-1020.051 -11941)" clip-path="url(#clip-path)">
    <g id="_25656591_624f9de9c7551f1089d610d0" data-name="25656591_624f9de9c7551f1089d610d0" transform="translate(1044.549 11940.999)">
      <rect id="Rectangle_412912" data-name="Rectangle 412912" width="295" height="246" transform="translate(-24.549 0.001)" fill="#efa5c9"/>
      <path id="Path_1277175" data-name="Path 1277175" d="M88.841,77.487c.107-.011.212-.021.321-.034C89.054,77.466,88.948,77.476,88.841,77.487Z" fill="none"/>
      <path id="Path_1277176" data-name="Path 1277176" d="M85.75,77.576c.128.007.256.013.387.018C86.006,77.589,85.878,77.583,85.75,77.576Z" fill="none"/>
      <path id="Path_1277177" data-name="Path 1277177" d="M84.095,77.4c.109.017.217.034.328.049C84.312,77.438,84.2,77.42,84.095,77.4Z" fill="none"/>
      <path id="Path_1277178" data-name="Path 1277178" d="M84.9,77.508c.12.013.239.025.361.035C85.141,77.533,85.022,77.521,84.9,77.508Z" fill="none"/>
      <path id="Path_1277179" data-name="Path 1277179" d="M67.439,105.111c-.2-.038-.4-.082-.6-.126C67.035,105.029,67.234,105.073,67.439,105.111Z" fill="none"/>
      <path id="Path_1277180" data-name="Path 1277180" d="M69.162,105.345c-.156-.014-.308-.034-.462-.052C68.854,105.311,69.006,105.331,69.162,105.345Z" fill="none"/>
      <path id="Path_1277181" data-name="Path 1277181" d="M87.9,77.567c-.114.007-.228.015-.34.019.055,0,.109,0,.164,0S87.84,77.57,87.9,77.567Z" fill="none"/>
      <path id="Path_1277182" data-name="Path 1277182" d="M70.073,105.406c-.14-.006-.275-.019-.414-.028C69.8,105.387,69.932,105.4,70.073,105.406Z" fill="none"/>
      <path id="Path_1277183" data-name="Path 1277183" d="M68.284,105.246c-.241-.033-.476-.072-.709-.113C67.808,105.174,68.044,105.213,68.284,105.246Z" fill="none"/>
      <path id="Path_1277184" data-name="Path 1277184" d="M83.334,77.268c.094.019.187.04.283.058C83.521,77.308,83.428,77.287,83.334,77.268Z" fill="none"/>
      <path id="Path_1277185" data-name="Path 1277185" d="M78.433,75.371l.193.113Z" fill="none"/>
      <path id="Path_1277186" data-name="Path 1277186" d="M78.974,75.682l.2.107Z" fill="none"/>
      <path id="Path_1277187" data-name="Path 1277187" d="M77.926,75.052l.181.117Z" fill="none"/>
      <path id="Path_1277188" data-name="Path 1277188" d="M79.547,75.98c.067.033.137.065.2.1C79.684,76.045,79.614,76.013,79.547,75.98Z" fill="none"/>
      <path id="Path_1277189" data-name="Path 1277189" d="M82.667,77.118c.06.015.119.032.18.046C82.785,77.15,82.727,77.133,82.667,77.118Z" fill="none"/>
      <path id="Path_1277190" data-name="Path 1277190" d="M80.153,76.263c.063.028.129.054.194.082C80.282,76.317,80.216,76.291,80.153,76.263Z" fill="none"/>
      <path id="Path_1277191" data-name="Path 1277191" d="M80.792,76.528c.041.016.084.031.126.046Z" fill="none"/>
      <path id="Path_1277192" data-name="Path 1277192" d="M65.839,104.737c-.22-.063-.434-.131-.647-.2C65.4,104.606,65.619,104.674,65.839,104.737Z" fill="none"/>
      <path id="Path_1277193" data-name="Path 1277193" d="M87.047,77.6c-.138,0-.275,0-.41,0C86.772,77.6,86.909,77.6,87.047,77.6Z" fill="none"/>
      <path id="Path_1277194" data-name="Path 1277194" d="M75.354,72.941l-.019-.019Z" fill="none"/>
      <path id="Path_1277195" data-name="Path 1277195" d="M60.136,101.693c-.061-.053-.117-.107-.177-.161C60.019,101.585,60.075,101.64,60.136,101.693Z" fill="none"/>
      <path id="Path_1277196" data-name="Path 1277196" d="M86.02,82.007l.708-.934-.708.934Z" fill="none"/>
      <path id="Path_1277197" data-name="Path 1277197" d="M59.128,100.469h0c.164.262.336.523.523.781l.005.005C59.466,101,59.294,100.733,59.128,100.469Z" fill="none"/>
      <path id="Path_1277198" data-name="Path 1277198" d="M60.652,102.119c-.081-.063-.157-.13-.236-.194C60.5,101.989,60.572,102.055,60.652,102.119Z" fill="none"/>
      <path id="Path_1277199" data-name="Path 1277199" d="M208.291,189.718a2.506,2.506,0,0,0,.909-1.67c0,.017-.6.184-.726.342a1.3,1.3,0,0,0-.256.921A2.182,2.182,0,0,0,208.291,189.718Z" fill="none"/>
      <path id="Path_1277200" data-name="Path 1277200" d="M185.674,211.14c-.3.1-.615.183-.924.271l.924.145Z" fill="none"/>
      <path id="Path_1277201" data-name="Path 1277201" d="M64.363,104.237c-.2-.079-.4-.163-.589-.249C63.967,104.074,64.162,104.158,64.363,104.237Z" fill="none"/>
      <path id="Path_1277202" data-name="Path 1277202" d="M63.671,103.945c-.184-.083-.362-.171-.539-.26C63.308,103.773,63.486,103.862,63.671,103.945Z" fill="none"/>
      <path id="Path_1277203" data-name="Path 1277203" d="M65.085,104.5c-.211-.072-.417-.149-.621-.227C64.669,104.353,64.874,104.43,65.085,104.5Z" fill="none"/>
      <path id="Path_1277204" data-name="Path 1277204" d="M66.622,104.94c-.212-.049-.417-.105-.622-.162C66.205,104.835,66.411,104.891,66.622,104.94Z" fill="none"/>
      <path id="Path_1277205" data-name="Path 1277205" d="M77.451,74.728l.164.116Z" fill="none"/>
      <path id="Path_1277206" data-name="Path 1277206" d="M62.375,103.282c-.156-.09-.307-.184-.458-.279C62.068,103.1,62.219,103.192,62.375,103.282Z" fill="none"/>
      <path id="Path_1277207" data-name="Path 1277207" d="M61.772,102.915c-.128-.082-.25-.168-.374-.253C61.522,102.747,61.644,102.833,61.772,102.915Z" fill="none"/>
      <path id="Path_1277208" data-name="Path 1277208" d="M61.2,102.527c-.1-.072-.2-.148-.3-.222C61,102.379,61.1,102.454,61.2,102.527Z" fill="none"/>
      <path id="Path_1277209" data-name="Path 1277209" d="M63.007,103.626c-.171-.088-.336-.18-.5-.273C62.671,103.446,62.837,103.538,63.007,103.626Z" fill="none"/>
      <path id="Path_1277210" data-name="Path 1277210" d="M67.562,106.8q-.457-.139-.894-.3C66.959,106.61,67.258,106.711,67.562,106.8Z" fill="none"/>
      <path id="Path_1277211" data-name="Path 1277211" d="M68.5,107.056c-.268-.065-.529-.135-.786-.211C67.975,106.921,68.236,106.992,68.5,107.056Z" fill="none"/>
      <path id="Path_1277212" data-name="Path 1277212" d="M69.493,107.265c-.222-.041-.441-.087-.658-.135C69.052,107.178,69.271,107.223,69.493,107.265Z" fill="none"/>
      <path id="Path_1277213" data-name="Path 1277213" d="M66.415,106.4c-.2-.078-.4-.159-.6-.243C66.01,106.246,66.211,106.326,66.415,106.4Z" fill="none"/>
      <path id="Path_1277214" data-name="Path 1277214" d="M77.009,74.4l.146.111Z" fill="none"/>
      <path id="Path_1277215" data-name="Path 1277215" d="M63.228,104.739q-.343-.236-.666-.485Q62.884,104.5,63.228,104.739Z" fill="none"/>
      <path id="Path_1277216" data-name="Path 1277216" d="M63.94,105.2c-.184-.111-.361-.226-.537-.343C63.578,104.97,63.756,105.085,63.94,105.2Z" fill="none"/>
      <path id="Path_1277217" data-name="Path 1277217" d="M64.7,105.624q-.251-.134-.493-.274Q64.446,105.49,64.7,105.624Z" fill="none"/>
      <path id="Path_1277218" data-name="Path 1277218" d="M65.51,106.024c-.174-.08-.347-.162-.515-.247C65.163,105.862,65.336,105.944,65.51,106.024Z" fill="none"/>
      <path id="Path_1277219" data-name="Path 1277219" d="M121.613,198.3l.622-.007Z" fill="none"/>
      <path id="Path_1277220" data-name="Path 1277220" d="M122.324,198.292c10.639-.128,19.3-.506,20.813-1.37C141.625,197.786,132.963,198.165,122.324,198.292Z" fill="none"/>
      <path id="Path_1277221" data-name="Path 1277221" d="M71.677,107.534c-.25-.017-.5-.037-.74-.062C71.18,107.5,71.428,107.517,71.677,107.534Z" fill="none"/>
      <path id="Path_1277222" data-name="Path 1277222" d="M87.36,198.13c-1.555-.024-2.993-.048-4.3-.07h0C84.368,198.083,85.805,198.107,87.36,198.13Z" fill="none"/>
      <path id="Path_1277223" data-name="Path 1277223" d="M120.819,198.31l.168,0C120.93,198.308,120.874,198.308,120.819,198.31Z" fill="none"/>
      <path id="Path_1277224" data-name="Path 1277224" d="M73.168,107.591c-.386,0-.763-.012-1.135-.031C72.4,107.579,72.781,107.591,73.168,107.591Z" fill="none"/>
      <path id="Path_1277225" data-name="Path 1277225" d="M118.1,198.33l.364,0C118.34,198.33,118.219,198.33,118.1,198.33Z" fill="none"/>
      <path id="Path_1277226" data-name="Path 1277226" d="M67.92,176.442h7.174V173.6A19.682,19.682,0,0,1,67.92,176.442Z" fill="none"/>
      <path id="Path_1277227" data-name="Path 1277227" d="M70.542,107.425q-.336-.042-.664-.095Q70.205,107.383,70.542,107.425Z" fill="none"/>
      <path id="Path_1277228" data-name="Path 1277228" d="M74.374,71.83l.078.1Z" fill="none"/>
      <path id="Path_1277229" data-name="Path 1277229" d="M74.571,72.073l.085.1Z" fill="none"/>
      <path id="Path_1277230" data-name="Path 1277230" d="M74.207,71.613c.021.029.044.059.068.091C74.251,71.673,74.228,71.642,74.207,71.613Z" fill="none"/>
      <path id="Path_1277231" data-name="Path 1277231" d="M74.8,72.337l.09.1Z" fill="none"/>
      <path id="Path_1277232" data-name="Path 1277232" d="M76.258,73.791l.068.06Z" fill="none"/>
      <path id="Path_1277233" data-name="Path 1277233" d="M75.051,72.622l.079.084Z" fill="none"/>
      <path id="Path_1277234" data-name="Path 1277234" d="M76.607,74.085l.118.1Z" fill="none"/>
      <path id="Path_1277235" data-name="Path 1277235" d="M74.066,71.423l.059.081Z" fill="none"/>
      <path id="Path_1277236" data-name="Path 1277236" d="M61.725,103.553q-.195-.175-.382-.354Q61.53,103.378,61.725,103.553Z" fill="none"/>
      <path id="Path_1277237" data-name="Path 1277237" d="M60.107,101.851q-.238-.294-.456-.6Q59.869,101.556,60.107,101.851Z" fill="none"/>
      <path id="Path_1277238" data-name="Path 1277238" d="M61.135,102.994q-.179-.181-.351-.366Q60.955,102.813,61.135,102.994Z" fill="none"/>
      <path id="Path_1277239" data-name="Path 1277239" d="M60.6,102.428c-.125-.139-.245-.28-.363-.423C60.354,102.148,60.474,102.289,60.6,102.428Z" fill="none"/>
      <path id="Path_1277240" data-name="Path 1277240" d="M62.41,104.131q-.243-.193-.476-.391Q62.166,103.939,62.41,104.131Z" fill="none"/>
      <path id="Path_1277241" data-name="Path 1277241" d="M73.814,71.053l.028.043Z" fill="none"/>
      <path id="Path_1277242" data-name="Path 1277242" d="M73.871,71.141l.038.057Z" fill="none"/>
      <path id="Path_1277243" data-name="Path 1277243" d="M73.955,71.266l.049.07Z" fill="none"/>
      <path id="Path_1277244" data-name="Path 1277244" d="M73.788,71.012l.013.021Z" fill="none"/>
      <path id="Path_1277245" data-name="Path 1277245" d="M72.846,171.119c-.215.13-.434.255-.657.375Q72.522,171.313,72.846,171.119Z" fill="none"/>
      <path id="Path_1277246" data-name="Path 1277246" d="M74.758,169.775c-.183.149-.37.294-.559.436C74.388,170.07,74.575,169.924,74.758,169.775Z" fill="none"/>
      <path id="Path_1277247" data-name="Path 1277247" d="M56.6,170.414c-.059-.042-.119-.081-.177-.123C56.486,170.333,56.546,170.372,56.6,170.414Z" fill="none"/>
      <path id="Path_1277248" data-name="Path 1277248" d="M70.732,172.19c-.245.1-.493.2-.745.29C70.24,172.389,70.487,172.292,70.732,172.19Z" fill="none"/>
      <path id="Path_1277249" data-name="Path 1277249" d="M50.344,160.432a15.368,15.368,0,0,0,6.024,9.813A15.371,15.371,0,0,1,50.344,160.432Z" fill="none"/>
      <path id="Path_1277250" data-name="Path 1277250" d="M73.506,170.7q-.307.205-.624.4Q73.2,170.905,73.506,170.7Z" fill="none"/>
      <path id="Path_1277251" data-name="Path 1277251" d="M71.458,171.865q-.353.169-.717.321Q71.1,172.033,71.458,171.865Z" fill="none"/>
      <path id="Path_1277252" data-name="Path 1277252" d="M74.144,170.252q-.291.214-.592.417Q73.853,170.466,74.144,170.252Z" fill="none"/>
      <path id="Path_1277253" data-name="Path 1277253" d="M72.162,171.508q-.339.182-.687.349C71.708,171.745,71.936,171.628,72.162,171.508Z" fill="none"/>
      <path id="Path_1277254" data-name="Path 1277254" d="M65.26,173.278a15.365,15.365,0,0,0,2.363-.136,16.612,16.612,0,0,0,2.362-.661,16.618,16.618,0,0,1-2.363.661A15.405,15.405,0,0,1,65.26,173.278Z" fill="none"/>
      <path id="Path_1277255" data-name="Path 1277255" d="M74.822,169.722c.091-.075.183-.148.271-.224v-.009C75,169.566,74.914,169.646,74.822,169.722Z" fill="none"/>
      <path id="Path_1277256" data-name="Path 1277256" d="M194.432,216.318H187.96a2.285,2.285,0,0,1-2.285-2.285v-2.477l-.924-.145a41.336,41.336,0,0,1-22.808-.077v2.7a2.284,2.284,0,0,1-2.284,2.285h-6.472a2.277,2.277,0,0,1-2.052-1.3H77.408c-.067,0-.13-.014-.2-.019h-33.3v-2.059c-6.51,1.475-10.208,3.164-10.208,4.959,0,5.752,37.947,10.414,84.758,10.414s84.759-4.662,84.759-10.414c0-1.421-2.317-2.774-6.508-4.008v.14A2.285,2.285,0,0,1,194.432,216.318Z" fill="#e87bae"/>
      <path id="Path_1277257" data-name="Path 1277257" d="M57.21,95.035c-.02-.24-.034-.477-.034-.7C57.177,94.558,57.19,94.8,57.21,95.035Z" fill="#e670a7"/>
      <path id="Path_1277258" data-name="Path 1277258" d="M57.322,95.906c-.043-.247-.076-.49-.1-.727C57.246,95.416,57.278,95.658,57.322,95.906Z" fill="#e670a7"/>
      <path id="Path_1277259" data-name="Path 1277259" d="M53.554,79.205a10.74,10.74,0,0,0-6.208.327,9.519,9.519,0,0,0-18.725,2.236,9.518,9.518,0,0,0-12.651,8.991c0,.255.02.506.04.756q1.472,2.9-.008-.01a9.52,9.52,0,0,0,9.49,8.773c5.2,0,20.114.072,25.5.072.957,0,2.32.016,3.927.043a14.131,14.131,0,0,1-1.367-5.735C53.554,91.1,53.554,84.171,53.554,79.205Z" fill="#e670a7"/>
      <path id="Path_1277260" data-name="Path 1277260" d="M58.545,99.453a13.267,13.267,0,0,1-.741-1.718A13.4,13.4,0,0,0,58.545,99.453Z" fill="#e670a7"/>
      <path id="Path_1277261" data-name="Path 1277261" d="M59.052,100.352q-.263-.429-.488-.862Q58.789,99.923,59.052,100.352Z" fill="#e670a7"/>
      <path id="Path_1277262" data-name="Path 1277262" d="M59.084,100.4l.042.067h0C59.114,100.447,59.1,100.425,59.084,100.4Z" fill="#e670a7"/>
      <path id="Path_1277263" data-name="Path 1277263" d="M57.768,97.629c-.093-.274-.176-.546-.247-.814C57.591,97.084,57.675,97.356,57.768,97.629Z" fill="#e670a7"/>
      <path id="Path_1277264" data-name="Path 1277264" d="M57.508,96.765c-.065-.253-.12-.5-.165-.75Q57.411,96.385,57.508,96.765Z" fill="#e670a7"/>
      <path id="Path_1277265" data-name="Path 1277265" d="M215.381,53.56c-.064-.156-.134-.313-.2-.467l0,.062a9.872,9.872,0,0,0-12.426-5.168,8.239,8.239,0,0,0-14.7,1.139,9.311,9.311,0,0,0-7.142-.345,8.237,8.237,0,0,0-16.2,1.936,8.235,8.235,0,0,0-10.947,7.78c0,.221.017.438.034.654.85,1.672.843,1.668-.006-.009a8.2,8.2,0,0,0,1.148,3.589,29.53,29.53,0,0,1,15.1-4.084,29.938,29.938,0,0,1,10.916,2.037,27.858,27.858,0,0,1,9.556,6.2c5.621.109,12.733.278,15.688.278A9.875,9.875,0,0,0,215.3,53.388C215.321,53.447,215.357,53.5,215.381,53.56Z" fill="#e670a7"/>
      <path id="Path_1277266" data-name="Path 1277266" d="M210.315,121.08a6.083,6.083,0,0,0-.5-2.39l.053.106c-.039-.1-.082-.193-.126-.288l0,.038a6.086,6.086,0,0,0-7.659-3.185,5.078,5.078,0,0,0-9.059.7,5.741,5.741,0,0,0-4.4-.212,5.077,5.077,0,0,0-9.987,1.193,5.076,5.076,0,0,0-6.748,4.8c0,.137.01.27.021.4.524,1.031.52,1.028,0,0a5.077,5.077,0,0,0,5.061,4.679c2.771,0,10.729.038,13.6.038,2.626,0,10.945.228,13.642.228A6.1,6.1,0,0,0,210.315,121.08Z" fill="#e670a7"/>
      <path id="Path_1277267" data-name="Path 1277267" d="M63.527,45.866a5.078,5.078,0,0,0,5.061,4.679c2.771,0,10.729.038,13.6.038,2.626,0,10.945.228,13.642.228a6.086,6.086,0,0,0,5.605-8.491l.053.106c-.04-.1-.082-.193-.126-.288l0,.038a6.086,6.086,0,0,0-7.659-3.185,5.078,5.078,0,0,0-9.059.7,5.736,5.736,0,0,0-4.4-.212,5.078,5.078,0,0,0-9.988,1.193,5.076,5.076,0,0,0-6.747,4.8c0,.136.01.27.021.4C64.054,46.9,64.05,46.9,63.527,45.866Z" fill="#e670a7"/>
      <path id="Path_1277268" data-name="Path 1277268" d="M154.807,160.145a9.882,9.882,0,0,1,3.951,1.509V106.871a28.553,28.553,0,0,1-3.951-1.974Z" fill="#001c2d"/>
      <path id="Path_1277269" data-name="Path 1277269" d="M142.927,88.947a23.109,23.109,0,0,1-.571-5.095c0-.621.033-1.235.082-1.845H94.062v6.94Z" fill="#001c2d"/>
      <path id="Path_1277270" data-name="Path 1277270" d="M83.064,205.35h3.6a1.128,1.128,0,0,1,1.128,1.127V215H77.212c.066.005.129.019.2.019h73.726a2.254,2.254,0,0,1-.233-.988v-8.207c-.51-.39-1-.8-1.471-1.215H83.064Zm40.271,5.96H110.514a1.783,1.783,0,0,1,0-3.565h12.821a1.783,1.783,0,1,1,0,3.565Z" fill="#001c2d"/>
      <path id="Path_1277271" data-name="Path 1277271" d="M79.045,186.1v0H75.094v0h3.951Z" fill="#001c2d"/>
      <path id="Path_1277272" data-name="Path 1277272" d="M79.045,170.227a19.735,19.735,0,0,1-3.951,3.377v2.838h3.951v-6.215Z" fill="#001c2d"/>
      <path id="Path_1277273" data-name="Path 1277273" d="M80.758,88.947h0l2.56-3.376,2.7-3.564h0Z" fill="#001c2d"/>
      <path id="Path_1277274" data-name="Path 1277274" d="M75.094,169.5c.086-.075.169-.151.254-.227-.083.075-.169.145-.254.218Z" fill="#001c2d"/>
      <path id="Path_1277275" data-name="Path 1277275" d="M78.828,164.871c.073-.135.148-.268.217-.4v-.007C78.975,164.6,78.9,164.734,78.828,164.871Z" fill="#001c2d"/>
      <path id="Path_1277276" data-name="Path 1277276" d="M75.912,168.741q-.241.237-.492.464Q75.67,168.976,75.912,168.741Z" fill="#001c2d"/>
      <path id="Path_1277277" data-name="Path 1277277" d="M79.045,143.756V110.7a24.085,24.085,0,0,1-3.951.39v29.293A19.882,19.882,0,0,1,79.045,143.756Z" fill="#001c2d"/>
      <path id="Path_1277278" data-name="Path 1277278" d="M76.449,168.186c-.149.161-.3.318-.457.473Q76.225,168.426,76.449,168.186Z" fill="#001c2d"/>
      <path id="Path_1277279" data-name="Path 1277279" d="M76.961,167.607q-.206.244-.422.48Q76.754,167.85,76.961,167.607Z" fill="#001c2d"/>
      <path id="Path_1277280" data-name="Path 1277280" d="M78.326,165.731c-.1.167-.213.33-.323.493C78.113,166.062,78.222,165.9,78.326,165.731Z" fill="#001c2d"/>
      <path id="Path_1277281" data-name="Path 1277281" d="M77.444,167c-.126.165-.256.327-.388.486C77.188,167.329,77.318,167.168,77.444,167Z" fill="#001c2d"/>
      <path id="Path_1277282" data-name="Path 1277282" d="M78.721,165.066c-.093.166-.191.33-.29.493C78.53,165.4,78.628,165.232,78.721,165.066Z" fill="#001c2d"/>
      <path id="Path_1277283" data-name="Path 1277283" d="M77.9,166.378c-.115.166-.234.328-.355.49C77.666,166.707,77.785,166.544,77.9,166.378Z" fill="#001c2d"/>
      <path id="Path_1277284" data-name="Path 1277284" d="M75.657,95.677l3.388-4.47h0Z" fill="#001c2d"/>
      <path id="Path_1277285" data-name="Path 1277285" d="M123.335,207.745H110.514a1.783,1.783,0,0,0,0,3.565h12.821a1.783,1.783,0,1,0,0-3.565Z" fill="#33b3c6"/>
      <path id="Path_1277286" data-name="Path 1277286" d="M94.062,94.657a13.489,13.489,0,0,1-.915,4.647h55.026a24.125,24.125,0,0,1-5.247-10.356H94.062Z" fill="#e13b24"/>
      <rect id="Rectangle_412913" data-name="Rectangle 412913" width="2.836" transform="translate(78.484 90.077)" fill="#e13b24"/>
      <path id="Path_1277287" data-name="Path 1277287" d="M122.324,198.292h-.089l-.622.007-.627.007-.168,0q-1.166.011-2.356.019l-.364,0c-10.553.064-22.294-.071-30.738-.2-1.555-.024-2.993-.048-4.3-.07v6.551H149.43a23.914,23.914,0,0,1-5.87-7.562c-.05-.1-.091-.21-.139-.313-.092.065-.186.13-.284.186C141.625,197.787,132.964,198.165,122.324,198.292Z" fill="#009aad"/>
      <path id="Path_1277288" data-name="Path 1277288" d="M146.622,175.718a28.46,28.46,0,0,1,7.4-6.168c2.784-5.56-3.155-9.277-1.094-9.453a8.469,8.469,0,0,1,1.876.048V104.9a27.008,27.008,0,0,1-6.634-5.593H146.5C146.557,119.913,146.677,165,146.622,175.718Z" fill="#009aad"/>
      <path id="Path_1277289" data-name="Path 1277289" d="M105.132,146.738h8.827v-2.777h.94V126.408h-.94v-2.775h-8.827v2.775h-.939v17.553h.939Z" fill="#33b3c6"/>
      <path id="Path_1277290" data-name="Path 1277290" d="M120.726,146.738h8.624v-2.777h.939V126.408h-.939v-2.775h-8.624v2.775h-.937v17.553h.937Z" fill="#33b3c6"/>
      <path id="Path_1277291" data-name="Path 1277291" d="M93.913,195.753H82.137a1.128,1.128,0,0,1,.927,1.108v1.2c1.3.022,2.741.046,4.3.07,8.444.129,20.185.264,30.738.2l.364,0,2.356-.019.168,0,.627-.007.622-.007h.089c10.639-.128,19.3-.506,20.813-1.37.1-.057.192-.121.284-.186a20.409,20.409,0,0,1-.791-1.971h-2.263a2.272,2.272,0,0,1-1.833-.933H93.913Z" fill="#33b3c6"/>
      <path id="Path_1277292" data-name="Path 1277292" d="M80.7,159.138c-.02.152-.045.3-.069.454C80.654,159.441,80.68,159.291,80.7,159.138Z" fill="#33b3c6"/>
      <path id="Path_1277293" data-name="Path 1277293" d="M146.5,99.3H93.147a18.225,18.225,0,0,1-14.1,11.4v33.052a19.763,19.763,0,0,1,0,26.472v6.215H85.2a1.128,1.128,0,0,1,1.128,1.128V186.1H79.045v0H92.783a1.128,1.128,0,0,1,1.129,1.128v4.139h44.17v-5.416H92.664a1.232,1.232,0,1,1,0-2.465h46.648a2.261,2.261,0,0,1,1.055-.27h2.1a21.49,21.49,0,0,1,4.155-7.5C146.677,165,146.557,119.913,146.5,99.3Zm-29.081,6.707,20.952,15.127h-2.211v2.5h-.039v2.774h-.939v17.554h.939v2.777h1.643v4.923H96.725v-4.923h1.641v-2.777h.94V126.408h-.94v-2.774h-.037v-2.5H96.115Zm-17.25,72.9-2.814-1.478-2.812,1.478.536-3.133L92.8,173.558l3.145-.458,1.407-2.849,1.407,2.849,3.145.458-2.277,2.217Zm13.333,0-2.813-1.478-2.813,1.478.537-3.133-2.276-2.217,3.144-.458,1.407-2.849,1.408,2.849,3.144.458-2.276,2.217Zm13.333,0-2.814-1.478-2.812,1.478.536-3.133-2.276-2.217,3.146-.458,1.405-2.849,1.407,2.849,3.147.458-2.277,2.217Zm12.8-3.132.538,3.133-2.814-1.478-2.811,1.478.535-3.133-2.276-2.217,3.145-.458,1.407-2.849,1.405,2.849,3.146.458Zm1.055-10.882H94.026a3.7,3.7,0,0,1,0-7.336h46.658a3.7,3.7,0,0,1,0,7.336Z" fill="#33b3c6"/>
      <path id="Path_1277294" data-name="Path 1277294" d="M80.83,157.531c0,.146-.015.292-.024.437C80.815,157.824,80.826,157.677,80.83,157.531Z" fill="#33b3c6"/>
      <path id="Path_1277295" data-name="Path 1277295" d="M80.784,158.34c-.012.149-.03.3-.046.448C80.754,158.638,80.773,158.489,80.784,158.34Z" fill="#33b3c6"/>
      <path id="Path_1277296" data-name="Path 1277296" d="M80.836,156.717c0,.14,0,.279,0,.419C80.835,157,80.839,156.856,80.836,156.717Z" fill="#33b3c6"/>
      <path id="Path_1277297" data-name="Path 1277297" d="M80.576,159.926c-.028.154-.061.308-.094.461C80.516,160.235,80.549,160.081,80.576,159.926Z" fill="#33b3c6"/>
      <path id="Path_1277298" data-name="Path 1277298" d="M80.219,161.468c-.045.159-.1.318-.145.476C80.124,161.785,80.174,161.628,80.219,161.468Z" fill="#33b3c6"/>
      <path id="Path_1277299" data-name="Path 1277299" d="M80.8,155.9c.009.131.012.26.018.39C80.813,156.156,80.81,156.026,80.8,155.9Z" fill="#33b3c6"/>
      <path id="Path_1277300" data-name="Path 1277300" d="M79.42,163.676c-.073.166-.151.328-.231.491C79.269,164,79.347,163.842,79.42,163.676Z" fill="#33b3c6"/>
      <path id="Path_1277301" data-name="Path 1277301" d="M79.988,162.22c-.055.162-.114.322-.173.482C79.874,162.542,79.933,162.382,79.988,162.22Z" fill="#33b3c6"/>
      <path id="Path_1277302" data-name="Path 1277302" d="M79.721,162.955c-.064.164-.132.325-.2.486C79.589,163.281,79.657,163.119,79.721,162.955Z" fill="#33b3c6"/>
      <path id="Path_1277303" data-name="Path 1277303" d="M80.725,155.069c.012.107.019.213.029.321C80.744,155.283,80.737,155.176,80.725,155.069Z" fill="#33b3c6"/>
      <path id="Path_1277304" data-name="Path 1277304" d="M80.416,160.7c-.036.157-.078.313-.119.469C80.338,161.017,80.38,160.861,80.416,160.7Z" fill="#33b3c6"/>
      <path id="Path_1277305" data-name="Path 1277305" d="M79.045,164.466c.015-.028.027-.058.042-.087-.013.027-.028.053-.042.079Z" fill="#33b3c6"/>
      <path id="Path_1277306" data-name="Path 1277306" d="M98.329,123.633h.037v2.774h.94v17.554h-.94v2.777H96.725v4.923h41.036v-4.923h-1.643v-2.777h-.939V126.407h.939v-2.774h.039v-2.5h2.211L117.417,106.01l-21.3,15.127h2.214v2.5Zm21.46,2.775h.937v-2.774h8.625v2.774h.94v17.554h-.94v2.777h-8.625v-2.777h-.937Zm-15.6,0h.939v-2.774h8.827v2.774h.94v17.554h-.94v2.777h-8.827v-2.777h-.939Z" fill="#008b9e"/>
      <path id="Path_1277307" data-name="Path 1277307" d="M140.684,157.558H94.026a3.7,3.7,0,0,0,0,7.336h46.658a3.7,3.7,0,0,0,0-7.336Z" fill="#e13b24"/>
      <path id="Path_1277308" data-name="Path 1277308" d="M98.761,173.1l-1.407-2.849L95.946,173.1l-3.145.458,2.275,2.217-.536,3.132,2.812-1.477,2.814,1.477-.539-3.132,2.277-2.217Z" fill="#f7bb54"/>
      <path id="Path_1277309" data-name="Path 1277309" d="M112.095,173.1l-1.408-2.849L109.28,173.1l-3.144.458,2.276,2.217-.537,3.132,2.813-1.477,2.813,1.477-.537-3.132,2.276-2.217Z" fill="#f7bb54"/>
      <path id="Path_1277310" data-name="Path 1277310" d="M125.426,173.1l-1.408-2.849-1.4,2.849-3.146.458,2.275,2.217-.536,3.132,2.811-1.477,2.814,1.477-.537-3.132,2.276-2.217Z" fill="#f7bb54"/>
      <path id="Path_1277311" data-name="Path 1277311" d="M137.353,170.251l-1.407,2.849-3.145.458,2.275,2.217-.535,3.132,2.811-1.477,2.813,1.477-.538-3.132,2.275-2.217-3.145-.458Z" fill="#f7bb54"/>
      <path id="Path_1277312" data-name="Path 1277312" d="M91.431,184.719a1.233,1.233,0,0,0,1.234,1.232h45.419v-.45a2.278,2.278,0,0,1,1.229-2.015H92.664A1.233,1.233,0,0,0,91.431,184.719Z" fill="#fff"/>
      <path id="Path_1277313" data-name="Path 1277313" d="M93.913,193.832h44.621a2.263,2.263,0,0,1-.451-1.352v-1.114H93.913Z" fill="#fff"/>
      <path id="Path_1277314" data-name="Path 1277314" d="M67.92,176.442c-.087.016-.171.035-.258.05a19.741,19.741,0,0,1-6.927-.05H44.893a1.129,1.129,0,0,0-1.129,1.128V186.1H69.255v-9.653H67.92Z" fill="#f7bb54"/>
      <path id="Path_1277315" data-name="Path 1277315" d="M78.373,176.442H74.52V186.1h3.853Z" fill="#f7bb54"/>
      <path id="Path_1277316" data-name="Path 1277316" d="M86.332,186.1V177.57a1.128,1.128,0,0,0-1.128-1.128H82.323V186.1h4.009Z" fill="#f7bb54"/>
      <path id="Path_1277317" data-name="Path 1277317" d="M82.323,176.442H78.373V186.1h3.949Z" fill="#ee8917"/>
      <rect id="Rectangle_412914" data-name="Rectangle 412914" width="5.266" height="9.653" transform="translate(69.255 176.442)" fill="#ee8917"/>
      <path id="Path_1277318" data-name="Path 1277318" d="M65.987,205.35v-9.6H50.04v-.02H40.32a1.129,1.129,0,0,0-1.129,1.128v8.524h5.584a1.14,1.14,0,0,1,.269-.035H65.987Z" fill="#f7bb54"/>
      <path id="Path_1277319" data-name="Path 1277319" d="M79.055,195.753v9.6h4.01v-7.29h0v-1.2a1.128,1.128,0,0,0-.927-1.108H79.055Z" fill="#f7bb54"/>
      <rect id="Rectangle_412915" data-name="Rectangle 412915" width="3.853" height="9.598" transform="translate(71.252 195.753)" fill="#f7bb54"/>
      <path id="Path_1277320" data-name="Path 1277320" d="M75.975,205.35h3.079v-9.6H75.106v9.6Z" fill="#ee8917"/>
      <path id="Path_1277321" data-name="Path 1277321" d="M71.252,195.753H65.987v9.6h5.266Z" fill="#ee8917"/>
      <path id="Path_1277322" data-name="Path 1277322" d="M70.71,215V205.35H45.044a1.14,1.14,0,0,0-.269.035,1.126,1.126,0,0,0-.86,1.092V215Z" fill="#f4aa14"/>
      <path id="Path_1277323" data-name="Path 1277323" d="M79.83,205.35H75.975V215H79.83Z" fill="#f4aa14"/>
      <path id="Path_1277324" data-name="Path 1277324" d="M83.779,215h4.009v-8.525a1.128,1.128,0,0,0-1.128-1.127H83.779V215Z" fill="#f4aa14"/>
      <path id="Path_1277325" data-name="Path 1277325" d="M79.83,215h3.949V205.35H79.83Z" fill="#e96c18"/>
      <path id="Path_1277326" data-name="Path 1277326" d="M75.975,205.35H70.71V215h5.265Z" fill="#e96c18"/>
      <path id="Path_1277327" data-name="Path 1277327" d="M65.987,195.753H76.834V186.1H51.168a1.128,1.128,0,0,0-1.128,1.128v8.524Z" fill="#f4aa14"/>
      <path id="Path_1277328" data-name="Path 1277328" d="M82.1,195.753h3.855V186.1H82.1Z" fill="#f4aa14"/>
      <path id="Path_1277329" data-name="Path 1277329" d="M93.913,195.753v-8.525a1.128,1.128,0,0,0-1.129-1.128H89.9v9.653h4.01Z" fill="#f4aa14"/>
      <rect id="Rectangle_412916" data-name="Rectangle 412916" width="3.948" height="9.653" transform="translate(85.954 186.1)" fill="#e96c18"/>
      <path id="Path_1277330" data-name="Path 1277330" d="M79.055,195.753H82.1V186.1H76.834v9.653Z" fill="#e96c18"/>
      <path id="Path_1277331" data-name="Path 1277331" d="M67.662,176.493c.087-.015.172-.034.258-.05a18.1,18.1,0,1,0-.258.05ZM48.1,159.749a16.482,16.482,0,0,1,32.5-5.511c.047.277.087.555.12.831.012.107.019.213.029.321.017.169.035.337.047.505.009.131.012.26.018.39s.015.288.018.431,0,.279,0,.419,0,.264,0,.4-.015.292-.024.437c-.007.124-.012.247-.022.37-.012.149-.03.3-.046.448-.013.117-.023.234-.038.351-.02.152-.045.3-.069.454-.018.111-.034.224-.054.334-.028.155-.061.308-.094.461-.022.106-.042.212-.067.317-.036.157-.078.313-.119.469-.025.1-.049.2-.077.294-.045.16-.1.318-.145.476-.029.092-.056.184-.086.276-.055.162-.114.322-.173.482-.031.084-.061.169-.093.253-.064.164-.132.325-.2.486-.034.078-.066.157-.1.234-.073.166-.151.328-.231.491-.034.071-.067.142-.1.213-.014.029-.027.058-.042.087-.069.137-.144.27-.217.4-.036.066-.07.131-.106.2-.093.166-.191.33-.29.493-.035.058-.069.116-.105.173-.1.167-.213.33-.323.493-.034.051-.068.1-.1.153-.115.166-.234.328-.355.49-.034.045-.067.091-.1.135-.126.165-.256.327-.388.486l-.1.116q-.206.244-.422.48l-.09.1c-.149.161-.3.318-.457.473l-.081.082c-.161.158-.325.312-.492.464l-.072.065c-.084.076-.168.153-.254.227s-.181.149-.271.224l-.065.053q-.274.223-.559.436l-.055.041q-.291.215-.592.417l-.047.031q-.307.205-.624.4l-.036.021q-.323.194-.657.375l-.026.014q-.339.182-.687.349l-.018.009q-.353.169-.717.321l-.008,0c-.245.1-.493.2-.745.29h0a16.612,16.612,0,0,1-2.362.661h0c-.171.035-.34.071-.514.1A16.482,16.482,0,0,1,48.1,159.749Z" fill="#faca4c"/>
      <path id="Path_1277332" data-name="Path 1277332" d="M67.11,173.243c.174-.029.343-.066.514-.1h0A15.408,15.408,0,0,1,56.6,170.414c-.059-.042-.119-.081-.177-.123l-.06-.047a15.432,15.432,0,1,1,24.311-15.488c-.023-.173-.044-.345-.073-.518a16.482,16.482,0,1,0-13.5,19Z" fill="#ee8917"/>
      <path id="Path_1277333" data-name="Path 1277333" d="M67.173,159.332a5.477,5.477,0,0,0-2.125-.666l.922,5.432a3.464,3.464,0,0,0,1.765-1.332,2.588,2.588,0,0,0,.383-1.878A2.148,2.148,0,0,0,67.173,159.332Z" fill="#f4aa14"/>
      <path id="Path_1277334" data-name="Path 1277334" d="M60.556,151.592a2.333,2.333,0,0,0,.476,3.026,5.066,5.066,0,0,0,1.816.63l-.8-4.751A4.391,4.391,0,0,0,60.556,151.592Z" fill="#f4aa14"/>
      <path id="Path_1277335" data-name="Path 1277335" d="M62.98,142.633a15.431,15.431,0,0,0-6.613,27.611l.06.047c.058.042.118.081.177.123a15.407,15.407,0,0,0,11.019,2.728,16.618,16.618,0,0,0,2.363-.661h0c.252-.091.5-.188.745-.29l.008,0q.364-.152.717-.321l.018-.009q.348-.166.687-.349l.026-.014c.222-.12.442-.245.657-.375l.036-.021q.317-.192.624-.4l.047-.031q.3-.2.592-.417l.055-.041c.189-.141.376-.287.559-.436l.065-.053c.091-.076.181-.155.271-.233s.171-.144.254-.218l.072-.065q.251-.227.492-.464l.081-.082q.233-.232.457-.473l.09-.1q.215-.236.422-.48l.1-.116c.132-.16.262-.322.388-.486.034-.044.067-.09.1-.135.121-.162.241-.324.355-.49.035-.05.069-.1.1-.153.11-.163.219-.327.323-.493.036-.057.07-.115.105-.173.1-.163.2-.327.29-.493.036-.064.071-.13.106-.2.074-.136.147-.274.217-.412.014-.027.029-.053.042-.079.035-.071.068-.142.1-.213.079-.162.157-.325.231-.491.034-.077.066-.156.1-.234.069-.161.137-.323.2-.486.033-.084.062-.169.093-.253.059-.16.119-.32.173-.482.03-.091.058-.184.086-.276.05-.158.1-.316.145-.476.028-.1.052-.2.077-.294.041-.156.083-.313.119-.469.025-.105.045-.212.067-.317.033-.153.066-.306.094-.461.02-.111.036-.223.054-.334.024-.151.049-.3.069-.454.015-.117.026-.234.038-.351.016-.149.034-.3.046-.448.01-.123.015-.247.022-.37.009-.145.019-.291.024-.437s0-.264,0-.4,0-.279,0-.419-.012-.288-.018-.431-.009-.26-.018-.39c-.011-.168-.03-.337-.047-.505-.01-.107-.017-.213-.029-.321q-.049-.415-.12-.831c.029.173.05.345.073.518A15.431,15.431,0,0,0,62.98,142.633ZM70.9,162.721a5.333,5.333,0,0,1-1.612,2.347,7.047,7.047,0,0,1-2.907,1.451l.342,2.025a.744.744,0,0,1-.7.848.758.758,0,0,1-.878-.591l-.336-1.991a7.951,7.951,0,0,1-2.654-.252,6.087,6.087,0,0,1-2.03-.989,5.46,5.46,0,0,1-1.348-1.431,4.359,4.359,0,0,1-.626-1.585,1.531,1.531,0,0,1,.284-1.152,1.57,1.57,0,0,1,1.079-.674,1.661,1.661,0,0,1,.988.1,1.35,1.35,0,0,1,.656.64,16.04,16.04,0,0,0,.848,1.46,3.031,3.031,0,0,0,.917.858,3.394,3.394,0,0,0,1.45.457l-.977-5.768a15.313,15.313,0,0,1-2.953-.553,4.732,4.732,0,0,1-2.083-1.3,5.39,5.39,0,0,1-.385-6.29,6.174,6.174,0,0,1,3.657-2.254l-.224-1.315q-.175-1.041.605-1.175t.967.882l.228,1.34a7.908,7.908,0,0,1,2.369.159,4.549,4.549,0,0,1,1.865.961,5.313,5.313,0,0,1,1.083,1.156,3.051,3.051,0,0,1,.512,1.177,1.485,1.485,0,0,1-.27,1.15,1.521,1.521,0,0,1-1.022.638,1.569,1.569,0,0,1-1.8-1.047,2.847,2.847,0,0,0-2.321-1.725l.876,5.16q1.61.161,2.581.354a5.164,5.164,0,0,1,1.8.729,4.725,4.725,0,0,1,1.461,1.431,5.191,5.191,0,0,1,.767,2.007A5.585,5.585,0,0,1,70.9,162.721Z" fill="#f4aa14"/>
      <path id="Path_1277336" data-name="Path 1277336" d="M70.346,157.953a4.724,4.724,0,0,0-1.461-1.431,5.164,5.164,0,0,0-1.8-.729q-.972-.192-2.581-.354l-.876-5.16a2.847,2.847,0,0,1,2.321,1.725,1.569,1.569,0,0,0,1.8,1.047,1.521,1.521,0,0,0,1.022-.638,1.485,1.485,0,0,0,.27-1.15,3.051,3.051,0,0,0-.512-1.177,5.309,5.309,0,0,0-1.083-1.156,4.549,4.549,0,0,0-1.865-.961,7.908,7.908,0,0,0-2.369-.159l-.228-1.34q-.171-1.017-.967-.882-.78.133-.605,1.175l.224,1.315a6.173,6.173,0,0,0-3.657,2.254,5.39,5.39,0,0,0,.385,6.29,4.732,4.732,0,0,0,2.083,1.3,15.314,15.314,0,0,0,2.953.553l.977,5.768a3.391,3.391,0,0,1-1.45-.457,3.031,3.031,0,0,1-.917-.858,16.038,16.038,0,0,1-.848-1.46,1.351,1.351,0,0,0-.656-.64,1.661,1.661,0,0,0-.988-.1,1.569,1.569,0,0,0-1.079.674,1.531,1.531,0,0,0-.284,1.152,4.363,4.363,0,0,0,.626,1.585,5.46,5.46,0,0,0,1.348,1.431,6.084,6.084,0,0,0,2.03.989,7.951,7.951,0,0,0,2.654.252l.336,1.991a.758.758,0,0,0,.878.591.744.744,0,0,0,.7-.848l-.342-2.025a7.046,7.046,0,0,0,2.907-1.451,5.332,5.332,0,0,0,1.612-2.347,5.582,5.582,0,0,0,.214-2.761A5.18,5.18,0,0,0,70.346,157.953Zm-9.314-3.335a2.333,2.333,0,0,1-.476-3.026,4.379,4.379,0,0,1,1.487-1.095l.8,4.751A5.088,5.088,0,0,1,61.032,154.618Zm6.7,8.148A3.462,3.462,0,0,1,65.97,164.1l-.922-5.432a5.477,5.477,0,0,1,2.125.666,2.149,2.149,0,0,1,.945,1.556A2.587,2.587,0,0,1,67.735,162.766Z" fill="#faca4c"/>
      <path id="Path_1277337" data-name="Path 1277337" d="M205.194,191.129a3.948,3.948,0,0,0,2.716.3c1.643,1.375,4.846.616,5.218-1.633.133-.8-1.09-1.143-1.224-.338-.216,1.307-1.689,1.561-2.785,1.232l-.082-.034c1.123-1.131,2.339-3.212.67-3.741-2.084-.661-3.1,1.634-2.575,3.33a3.719,3.719,0,0,1-1.815-.493c0,.014,0,.027,0,.04-.025.447-.062.892-.119,1.332A.007.007,0,0,1,205.194,191.129Zm3.281-2.74c.125-.157.727-.325.726-.342a2.506,2.506,0,0,1-.909,1.67,2.265,2.265,0,0,1-.073-.408A1.3,1.3,0,0,1,208.474,188.389Z" fill="#9d1919"/>
      <path id="Path_1277338" data-name="Path 1277338" d="M167.855,170.854c8.366-2.358,16.2.931,17.9,1.185a1.5,1.5,0,0,0,.887-2.792c-11.432-4.718-19.629-1.354-19.629-1.354A1.542,1.542,0,0,0,167.855,170.854Z" fill="#9d1919"/>
      <path id="Path_1277339" data-name="Path 1277339" d="M151.058,176.617a1.954,1.954,0,1,0,1.682,1.935A1.823,1.823,0,0,0,151.058,176.617Z" fill="#9d1919"/>
      <path id="Path_1277340" data-name="Path 1277340" d="M175.5,162.257a9.994,9.994,0,1,0-9.994-9.994A9.994,9.994,0,0,0,175.5,162.257Zm0-18.323a8.33,8.33,0,0,1,8.329,8.329c0,.088,0,.175-.007.264,0-.015,0-.03,0-.045a8.317,8.317,0,0,1-8.1,8.1l.047,0c-.089,0-.177.007-.265.007a8.328,8.328,0,1,1,0-16.657Z" fill="#faca4c"/>
      <path id="Path_1277341" data-name="Path 1277341" d="M175.5,160.592c.073,0,.144-.009.218-.011a7.8,7.8,0,1,1,8.1-8.1c0-.074.011-.145.011-.219a8.329,8.329,0,1,0-8.329,8.328Z" fill="#ee8917"/>
      <path id="Path_1277342" data-name="Path 1277342" d="M175.7,153.155v2.785a1.751,1.751,0,0,0,.992-.514,1.31,1.31,0,0,0,.35-.9,1.083,1.083,0,0,0-.341-.855A2.737,2.737,0,0,0,175.7,153.155Z" fill="#f4aa14"/>
      <path id="Path_1277343" data-name="Path 1277343" d="M173.762,150.039a.986.986,0,0,0,.279.761,2.593,2.593,0,0,0,.852.467v-2.435a2.2,2.2,0,0,0-.832.42A.984.984,0,0,0,173.762,150.039Z" fill="#f4aa14"/>
      <path id="Path_1277344" data-name="Path 1277344" d="M176.026,144.992a7.8,7.8,0,0,0-.311,15.588,8.317,8.317,0,0,0,8.1-8.1A7.8,7.8,0,0,0,176.026,144.992Zm2.249,10.676a2.686,2.686,0,0,1-1,1.033,3.56,3.56,0,0,1-1.571.477v1.038a.376.376,0,0,1-.421.363.383.383,0,0,1-.387-.368V157.19a3.975,3.975,0,0,1-1.3-.349,3.066,3.066,0,0,1-.928-.664,2.747,2.747,0,0,1-.549-.827,2.162,2.162,0,0,1-.178-.842.774.774,0,0,1,.237-.55.8.8,0,0,1,.595-.244.843.843,0,0,1,.484.133.691.691,0,0,1,.273.375,7.793,7.793,0,0,0,.3.8,1.545,1.545,0,0,0,.384.505,1.7,1.7,0,0,0,.684.35v-2.956a7.859,7.859,0,0,1-1.425-.524,2.392,2.392,0,0,1-.927-.824,2.727,2.727,0,0,1,.339-3.166,3.119,3.119,0,0,1,2.013-.814v-.674c0-.356.135-.534.4-.534s.407.173.407.522v.686a3.96,3.96,0,0,1,1.167.279,2.318,2.318,0,0,1,.849.637,2.67,2.67,0,0,1,.44.667,1.51,1.51,0,0,1,.157.63.753.753,0,0,1-.231.549.768.768,0,0,1-.563.232.793.793,0,0,1-.809-.674,1.434,1.434,0,0,0-1.009-1.056V151.5c.526.145.945.276,1.255.395a2.622,2.622,0,0,1,.836.515,2.385,2.385,0,0,1,.608.836,2.63,2.63,0,0,1,.211,1.065A2.833,2.833,0,0,1,178.274,155.668Z" fill="#f4aa14"/>
      <path id="Path_1277345" data-name="Path 1277345" d="M175.762,160.585l-.047,0c-.074,0-.145.011-.218.011C175.585,160.592,175.673,160.587,175.762,160.585Z" fill="#f4aa14"/>
      <path id="Path_1277346" data-name="Path 1277346" d="M183.819,152.527c0-.089.007-.176.007-.264,0,.074-.009.145-.011.219A.38.38,0,0,1,183.819,152.527Z" fill="#f4aa14"/>
      <path id="Path_1277347" data-name="Path 1277347" d="M177.793,152.41a2.62,2.62,0,0,0-.836-.515c-.311-.119-.729-.249-1.255-.395v-2.644a1.434,1.434,0,0,1,1.009,1.056.793.793,0,0,0,.809.674.768.768,0,0,0,.563-.232.753.753,0,0,0,.231-.549,1.509,1.509,0,0,0-.157-.63,2.673,2.673,0,0,0-.44-.667,2.317,2.317,0,0,0-.849-.637,3.955,3.955,0,0,0-1.167-.279V146.9c0-.348-.136-.522-.407-.522s-.4.178-.4.534v.674a3.118,3.118,0,0,0-2.013.814,2.727,2.727,0,0,0-.339,3.166,2.394,2.394,0,0,0,.927.824,7.877,7.877,0,0,0,1.425.524v2.956a1.7,1.7,0,0,1-.684-.35,1.549,1.549,0,0,1-.384-.505,7.79,7.79,0,0,1-.3-.8.691.691,0,0,0-.273-.375.842.842,0,0,0-.484-.133.8.8,0,0,0-.595.244.774.774,0,0,0-.237.55,2.162,2.162,0,0,0,.178.842,2.75,2.75,0,0,0,.549.827,3.066,3.066,0,0,0,.928.664,3.976,3.976,0,0,0,1.3.349v1.021a.383.383,0,0,0,.387.368.376.376,0,0,0,.421-.363v-1.038a3.563,3.563,0,0,0,1.571-.477,2.687,2.687,0,0,0,1-1.033,2.821,2.821,0,0,0,.338-1.358,2.632,2.632,0,0,0-.211-1.065A2.365,2.365,0,0,0,177.793,152.41Zm-2.9-1.145a2.6,2.6,0,0,1-.852-.467,1.181,1.181,0,0,1,.02-1.548,2.2,2.2,0,0,1,.832-.42Zm1.8,4.159a1.752,1.752,0,0,1-.992.514v-2.785a2.766,2.766,0,0,1,1,.511,1.083,1.083,0,0,1,.341.855A1.3,1.3,0,0,1,176.694,155.424Z" fill="#faca4c"/>
      <path id="Path_1277348" data-name="Path 1277348" d="M203.447,180.477l-.026-.056.017.037A.17.17,0,0,1,203.447,180.477Z" fill="#e13b24"/>
      <path id="Path_1277349" data-name="Path 1277349" d="M152.931,160.1c-2.062.175,3.877,3.893,1.094,9.453a28.458,28.458,0,0,0-7.4,6.168,21.49,21.49,0,0,0-4.155,7.5h-2.1a2.313,2.313,0,0,0-2.284,2.284v6.98a2.3,2.3,0,0,0,2.284,2.285h2.263a20.4,20.4,0,0,0,.791,1.971c.048.1.089.209.139.313,1.305.963,2.566,1.995,3.928,2.875a30.318,30.318,0,0,0,9.436,3.675,69.879,69.879,0,0,0,9.885,1.685,40.175,40.175,0,0,0,9.5-.451,34.576,34.576,0,0,0,16.922-7.68,33.995,33.995,0,0,0,6.608-7.867,27.789,27.789,0,0,0,2.128-3.8,19.574,19.574,0,0,0,1.458-5.064c-4.46-9.292-16.175-15.927-29.93-15.927a40.964,40.964,0,0,0-10.436,1.333,16.284,16.284,0,0,0-4.3-4.174,9.883,9.883,0,0,0-3.951-1.509A8.4,8.4,0,0,0,152.931,160.1Zm-1.873,20.39a1.954,1.954,0,1,1,1.682-1.936A1.822,1.822,0,0,1,151.058,180.488Zm15.95-12.6s8.2-3.363,19.629,1.354a1.5,1.5,0,0,1-.887,2.792c-1.693-.254-9.529-3.542-17.9-1.185A1.542,1.542,0,0,1,167.008,167.892Z" fill="#e13b24"/>
      <path id="Path_1277350" data-name="Path 1277350" d="M199.835,189.285a34,34,0,0,1-6.608,7.867,34.575,34.575,0,0,1-16.922,7.68,40.181,40.181,0,0,1-9.5.451,69.892,69.892,0,0,1-9.885-1.685,30.318,30.318,0,0,1-9.436-3.675c-1.362-.88-2.623-1.912-3.928-2.875a23.915,23.915,0,0,0,5.87,7.562c.475.416.961.825,1.471,1.215v8.207a2.309,2.309,0,0,0,2.285,2.285h6.472a2.284,2.284,0,0,0,2.284-2.285v-2.7a41.336,41.336,0,0,0,22.808.077c.309-.089.62-.175.924-.271v2.893a2.285,2.285,0,0,0,2.285,2.285h6.472a2.285,2.285,0,0,0,2.284-2.285v-8.708c4.679-3.792,7.775-8.73,8.478-14.2.057-.44.094-.885.119-1.332.02-.349.034-.7.034-1.053a19.111,19.111,0,0,0-1.909-8.28l-.017-.037v0a19.58,19.58,0,0,1-1.458,5.064A27.749,27.749,0,0,1,199.835,189.285Z" fill="#d52d16"/>
      <path id="Path_1277351" data-name="Path 1277351" d="M166.236,94.737a9.928,9.928,0,0,0,3.213.864v2.521a.943.943,0,0,0,.955.909.928.928,0,0,0,1.04-.9V95.569a8.81,8.81,0,0,0,3.881-1.178,6.644,6.644,0,0,0,2.474-2.554,6.966,6.966,0,0,0,.841-3.354,6.5,6.5,0,0,0-.526-2.631,5.87,5.87,0,0,0-1.5-2.066,6.419,6.419,0,0,0-2.066-1.273q-1.155-.44-3.1-.974V75a3.553,3.553,0,0,1,2.5,2.607,1.956,1.956,0,0,0,2,1.666,1.9,1.9,0,0,0,1.391-.573,1.861,1.861,0,0,0,.574-1.359,3.788,3.788,0,0,0-.386-1.556,6.634,6.634,0,0,0-1.091-1.649,5.7,5.7,0,0,0-2.1-1.571,9.863,9.863,0,0,0-2.884-.691v-1.7q0-1.288-1.005-1.289-.99,0-.99,1.32v1.665a7.717,7.717,0,0,0-4.973,2.011,6.737,6.737,0,0,0-.84,7.825,5.927,5.927,0,0,0,2.294,2.034,19.077,19.077,0,0,0,3.519,1.3v7.306a4.246,4.246,0,0,1-1.689-.864,3.8,3.8,0,0,1-.95-1.249,19.737,19.737,0,0,1-.738-1.971,1.7,1.7,0,0,0-.676-.927,2.075,2.075,0,0,0-1.194-.33,1.967,1.967,0,0,0-1.469.6,1.9,1.9,0,0,0-.589,1.359,5.409,5.409,0,0,0,.441,2.082,6.838,6.838,0,0,0,1.358,2.042A7.6,7.6,0,0,0,166.236,94.737Zm5.207-9.113a6.843,6.843,0,0,1,2.475,1.265,2.675,2.675,0,0,1,.84,2.113,3.228,3.228,0,0,1-.863,2.231,4.314,4.314,0,0,1-2.452,1.272Zm-4.1-5.82a2.917,2.917,0,0,1,.046-3.826,5.484,5.484,0,0,1,2.058-1.037v6.017A6.366,6.366,0,0,1,167.343,79.8Z" fill="#001c2d"/>
      <path id="Path_1277352" data-name="Path 1277352" d="M174.758,89a2.675,2.675,0,0,0-.84-2.113,6.843,6.843,0,0,0-2.475-1.265v6.881a4.314,4.314,0,0,0,2.452-1.272A3.23,3.23,0,0,0,174.758,89Z" fill="#97aa0c"/>
      <path id="Path_1277353" data-name="Path 1277353" d="M169.448,74.941a5.486,5.486,0,0,0-2.058,1.037,2.45,2.45,0,0,0-.738,1.948,2.425,2.425,0,0,0,.692,1.878,6.371,6.371,0,0,0,2.1,1.154Z" fill="#97aa0c"/>
      <path id="Path_1277354" data-name="Path 1277354" d="M178.841,102.322h-.014c7.916-4.436,13.194-12.4,13.194-21.48a24.5,24.5,0,0,0-11.063-20.159,29.935,29.935,0,0,0-10.916-2.037,29.53,29.53,0,0,0-15.1,4.084,24.905,24.905,0,0,0-12.5,19.278c-.049.61-.082,1.224-.082,1.845a23.109,23.109,0,0,0,.571,5.095A24.127,24.127,0,0,0,148.173,99.3a27.01,27.01,0,0,0,6.634,5.593,28.54,28.54,0,0,0,3.951,1.974,29.416,29.416,0,0,0,4.81,1.494,24.8,24.8,0,0,1-1.052,3.018c.05-.116.1-.233.149-.351A59.569,59.569,0,0,0,178.841,102.322Zm-16.259-11.27a5.409,5.409,0,0,1-.441-2.082,1.9,1.9,0,0,1,.589-1.359,1.967,1.967,0,0,1,1.469-.6,2.074,2.074,0,0,1,1.194.33,1.7,1.7,0,0,1,.676.927,19.774,19.774,0,0,0,.738,1.971,3.8,3.8,0,0,0,.95,1.249,4.245,4.245,0,0,0,1.689.864V85.042a19.077,19.077,0,0,1-3.519-1.3,5.926,5.926,0,0,1-2.294-2.034,6.737,6.737,0,0,1,.84-7.825,7.717,7.717,0,0,1,4.973-2.011V70.211q0-1.32.99-1.32,1,0,1.005,1.289v1.7a9.863,9.863,0,0,1,2.884.691,5.7,5.7,0,0,1,2.1,1.571,6.628,6.628,0,0,1,1.091,1.649,3.789,3.789,0,0,1,.386,1.556,1.861,1.861,0,0,1-.574,1.359,1.9,1.9,0,0,1-1.391.573,1.956,1.956,0,0,1-2-1.666,3.553,3.553,0,0,0-2.5-2.607v6.535q1.949.534,3.1.974a6.416,6.416,0,0,1,2.066,1.273,5.871,5.871,0,0,1,1.5,2.066,6.5,6.5,0,0,1,.526,2.631,6.966,6.966,0,0,1-.841,3.354,6.645,6.645,0,0,1-2.474,2.554,8.808,8.808,0,0,1-3.881,1.178v2.564a.928.928,0,0,1-1.04.9.943.943,0,0,1-.955-.909V95.6a9.928,9.928,0,0,1-3.213-.864,7.626,7.626,0,0,1-2.294-1.642A6.823,6.823,0,0,1,162.583,91.052Z" fill="#97aa0c"/>
      <path id="Path_1277355" data-name="Path 1277355" d="M192.021,80.841c0,9.084-5.278,17.045-13.194,21.48h.014a59.552,59.552,0,0,1-16.176,8.71c-.049.118-.1.235-.149.351a8.165,8.165,0,0,1-2.105,3.147c-4.381,3.455,12.248.079,24.138-9.2h-.014c7.917-4.437,13.195-12.4,13.195-21.481a23.913,23.913,0,0,0-7.214-16.966,27.86,27.86,0,0,0-9.556-6.2A24.5,24.5,0,0,1,192.021,80.841Z" fill="#77921b"/>
      <path id="Path_1277356" data-name="Path 1277356" d="M118.713,76.126c-1.754,0-12.152-10.658-16.022-21.279,1.6,11.578,14.263,25.34,16.155,25.34,1.634,0,15.042-12.837,16.235-25.844C131.486,65.918,120.247,76.126,118.713,76.126Z" fill="#b92917"/>
      <path id="Path_1277357" data-name="Path 1277357" d="M118.713,76.126c1.534,0,12.773-10.208,16.368-21.783.056-.607.086-1.215.086-1.822a16.322,16.322,0,0,0-32.643,0,17.09,17.09,0,0,0,.167,2.327C106.561,65.468,116.958,76.126,118.713,76.126Zm.068-35.717a12,12,0,1,1-12,12A12,12,0,0,1,118.781,40.409Z" fill="#e13b24"/>
      <path id="Path_1277358" data-name="Path 1277358" d="M118.781,64.413a12,12,0,1,0-12-12A12,12,0,0,0,118.781,64.413Zm0-22a10,10,0,1,1-10,10A10,10,0,0,1,118.781,42.41Z" fill="#faca4c"/>
      <path id="Path_1277359" data-name="Path 1277359" d="M120.639,55.123a1.3,1.3,0,0,0-.409-1.027,3.33,3.33,0,0,0-1.2-.615v3.344a2.1,2.1,0,0,0,1.192-.617A1.572,1.572,0,0,0,120.639,55.123Z" fill="#f4aa14"/>
      <path id="Path_1277360" data-name="Path 1277360" d="M118.059,48.29a2.658,2.658,0,0,0-1,.5,1.415,1.415,0,0,0-.023,1.859,3.086,3.086,0,0,0,1.024.562V48.29Z" fill="#f4aa14"/>
      <path id="Path_1277361" data-name="Path 1277361" d="M118.781,62.412a10,10,0,1,0-10-10A10,10,0,0,0,118.781,62.412Zm-3.987-7.965a.954.954,0,0,1,.713-.294,1.019,1.019,0,0,1,.582.16.828.828,0,0,1,.327.45,9.729,9.729,0,0,0,.359.959,1.843,1.843,0,0,0,.462.607,2.055,2.055,0,0,0,.822.42V53.2a9.27,9.27,0,0,1-1.711-.63,2.866,2.866,0,0,1-1.114-.989,3.271,3.271,0,0,1,.408-3.8,3.744,3.744,0,0,1,2.418-.978v-.809q0-.642.48-.641t.488.626V46.8a4.744,4.744,0,0,1,1.4.337,2.755,2.755,0,0,1,1.019.763,3.242,3.242,0,0,1,.53.8,1.841,1.841,0,0,1,.188.756.9.9,0,0,1-.279.66.919.919,0,0,1-.676.279.95.95,0,0,1-.969-.809,1.729,1.729,0,0,0-1.215-1.267V51.5q.948.26,1.51.474a3.126,3.126,0,0,1,1,.619,2.861,2.861,0,0,1,.729,1,3.173,3.173,0,0,1,.255,1.279,3.393,3.393,0,0,1-.408,1.63,3.232,3.232,0,0,1-1.2,1.24,4.283,4.283,0,0,1-1.887.573v1.246a.451.451,0,0,1-.505.437.459.459,0,0,1-.463-.443V58.33a4.806,4.806,0,0,1-1.562-.419,3.69,3.69,0,0,1-1.115-.8,3.344,3.344,0,0,1-.66-.993,2.639,2.639,0,0,1-.213-1.011A.924.924,0,0,1,114.794,54.447Z" fill="#f4aa14"/>
      <path id="Path_1277362" data-name="Path 1277362" d="M115.381,57.113a3.692,3.692,0,0,0,1.115.8,4.806,4.806,0,0,0,1.562.419v1.226a.459.459,0,0,0,.463.443.451.451,0,0,0,.505-.437V58.315a4.285,4.285,0,0,0,1.887-.573,3.231,3.231,0,0,0,1.2-1.24,3.392,3.392,0,0,0,.408-1.63,3.173,3.173,0,0,0-.255-1.279,2.861,2.861,0,0,0-.729-1,3.131,3.131,0,0,0-1-.619q-.563-.213-1.51-.474V48.321a1.729,1.729,0,0,1,1.215,1.267.95.95,0,0,0,.969.809.919.919,0,0,0,.676-.279.9.9,0,0,0,.279-.66,1.842,1.842,0,0,0-.188-.756,3.246,3.246,0,0,0-.53-.8,2.756,2.756,0,0,0-1.019-.763,4.744,4.744,0,0,0-1.4-.337v-.825q0-.626-.488-.626t-.48.641V46.8a3.744,3.744,0,0,0-2.418.978,3.271,3.271,0,0,0-.408,3.8,2.866,2.866,0,0,0,1.114.989,9.27,9.27,0,0,0,1.711.63V56.75a2.055,2.055,0,0,1-.822-.42,1.843,1.843,0,0,1-.462-.607,9.716,9.716,0,0,1-.359-.959.829.829,0,0,0-.327-.45,1.019,1.019,0,0,0-.582-.16.954.954,0,0,0-.713.294.925.925,0,0,0-.286.661,2.639,2.639,0,0,0,.213,1.011A3.348,3.348,0,0,0,115.381,57.113Zm3.646-3.631a3.33,3.33,0,0,1,1.2.615,1.3,1.3,0,0,1,.409,1.027,1.572,1.572,0,0,1-.42,1.085,2.094,2.094,0,0,1-1.192.617Zm-1.992-2.829a1.415,1.415,0,0,1,.023-1.859,2.658,2.658,0,0,1,1-.5v2.925A3.082,3.082,0,0,1,117.035,50.653Z" fill="#faca4c"/>
      <path id="Path_1277363" data-name="Path 1277363" d="M93.147,99.3a13.489,13.489,0,0,0,.915-4.647V73.481c-14.18,2.647-20.277-7.752-20.277-7.752s-6.051,10.4-20.23,7.752V94.657a14.13,14.13,0,0,0,1.367,5.735c2.438,5.331,8.231,10.714,18.107,10.714h1.561c.172,0,.336-.009.506-.012a24.1,24.1,0,0,0,3.951-.39A18.225,18.225,0,0,0,93.147,99.3ZM74.5,109.023H73.115c-12.091,0-17.3-9.067-17.3-14.585V75.662c12.594,2.347,17.968-6.874,17.968-6.874S79.2,78.009,91.8,75.662V94.438C91.8,99.956,86.591,109.023,74.5,109.023Z" fill="#001c2d"/>
      <path id="Path_1277364" data-name="Path 1277364" d="M91.8,94.438V75.662C79.2,78.009,73.787,68.789,73.787,68.789s-5.374,9.221-17.968,6.874V94.438c0,5.518,5.206,14.585,17.3,14.585H74.5C86.591,109.023,91.8,99.956,91.8,94.438Zm-17.35,13.153h-1.28c-.386,0-.763-.012-1.135-.031-.12-.006-.236-.017-.355-.025-.25-.017-.5-.037-.74-.062-.133-.014-.264-.031-.4-.048q-.336-.042-.664-.095c-.129-.021-.257-.042-.384-.065-.222-.041-.441-.087-.658-.135-.111-.025-.223-.047-.332-.074-.268-.065-.529-.135-.786-.211-.051-.015-.1-.028-.155-.043q-.457-.139-.894-.3c-.086-.031-.169-.066-.253-.1-.2-.078-.4-.159-.6-.243-.1-.044-.2-.091-.3-.137-.174-.08-.347-.162-.515-.247-.1-.05-.2-.1-.3-.153q-.251-.134-.493-.274c-.088-.051-.177-.1-.264-.154-.184-.111-.361-.226-.537-.343-.058-.038-.117-.075-.174-.114q-.343-.236-.666-.485c-.053-.04-.1-.082-.153-.123q-.243-.193-.476-.391c-.071-.062-.14-.125-.209-.187q-.195-.175-.382-.354l-.208-.2q-.179-.181-.351-.366c-.062-.066-.125-.132-.184-.2-.125-.139-.245-.28-.363-.423-.043-.052-.087-.1-.129-.155q-.238-.294-.456-.6a.032.032,0,0,0,0-.007h0c-.187-.258-.358-.519-.523-.781l-.042-.067-.031-.05q-.263-.429-.488-.862c-.006-.013-.012-.025-.019-.038a13.4,13.4,0,0,1-.741-1.718c-.013-.035-.024-.071-.037-.106-.093-.274-.176-.546-.247-.814,0-.017-.008-.033-.013-.05q-.1-.379-.165-.75c-.007-.036-.014-.073-.021-.109-.043-.247-.076-.49-.1-.727,0-.048-.008-.1-.012-.144-.02-.24-.034-.477-.034-.7V77.26c11.643,2.134,16.612-6.249,16.612-6.249l.013.021.013.02.028.043.029.044.038.057c.014.02.031.044.046.068l.049.07.063.088c.019.026.038.053.059.081l.082.109c.021.029.044.06.068.091l.1.127.078.1.119.146.085.1c.045.053.091.107.14.164l.09.1c.053.061.107.121.165.184l.079.084c.067.071.133.142.206.216l.019.019c.266.271.568.558.9.85l.068.06c.091.077.186.155.281.233l.118.1c.092.073.188.147.284.221l.146.111c.1.072.2.143.3.214l.164.116c.1.07.205.139.31.208l.181.117q.16.1.327.2l.193.113c.114.067.23.132.348.2l.2.107c.123.064.245.129.372.191.067.033.137.065.2.1.132.063.265.125.4.186.063.028.129.054.194.082.146.063.293.125.445.183l.126.046a15.484,15.484,0,0,0,1.749.544c.06.015.119.032.18.046.159.038.323.07.487.1.094.019.187.04.283.058.156.029.317.053.477.078.109.017.217.034.328.049.157.021.318.038.479.055.12.013.239.025.361.035.16.014.324.024.488.033.128.007.256.013.387.018q.247.008.5.01c.135,0,.272,0,.41,0,.168,0,.339-.007.51-.014.112,0,.226-.012.34-.019.308-.018.624-.045.944-.08.107-.011.212-.021.321-.034.417-.051.841-.112,1.277-.192v17.07C90.439,99.347,85.626,107.591,74.448,107.591Z" fill="#000418"/>
      <path id="Path_1277365" data-name="Path 1277365" d="M90.439,94.331V77.261c-.436.08-.86.141-1.277.192-.108.013-.214.023-.321.034-.32.034-.635.062-.944.08-.058,0-.119.012-.176.015V92.6c0,4.853-4.656,12.826-15.468,12.826H71.014q-.479,0-.942-.02c-.14-.006-.275-.019-.414-.028-.166-.011-.334-.019-.5-.033s-.308-.034-.462-.052c-.138-.016-.279-.028-.416-.047-.241-.033-.476-.072-.709-.113-.045-.008-.091-.014-.136-.022-.2-.038-.4-.082-.6-.126-.07-.015-.144-.029-.214-.045-.212-.049-.417-.105-.622-.162-.053-.014-.108-.026-.161-.042-.22-.063-.434-.131-.647-.2l-.107-.033c-.211-.072-.417-.149-.621-.227l-.1-.038c-.2-.079-.4-.163-.589-.249l-.1-.044c-.184-.083-.363-.171-.539-.26l-.124-.059c-.171-.088-.336-.18-.5-.273-.043-.024-.088-.047-.131-.071-.156-.09-.307-.184-.458-.279-.048-.03-.1-.058-.145-.088-.128-.082-.25-.168-.374-.253-.067-.045-.136-.089-.2-.135-.1-.072-.2-.148-.3-.222-.082-.063-.168-.123-.248-.186s-.157-.13-.236-.194-.189-.153-.28-.231c-.061-.053-.117-.107-.177-.161-.1-.091-.206-.182-.3-.275v0l-.005-.005h0a.032.032,0,0,1,0,.007q.218.3.456.6c.042.052.087.1.129.155.118.142.238.284.363.423.06.067.123.134.184.2q.171.185.351.366l.208.2q.187.179.382.354c.069.063.138.125.209.187q.232.2.476.391c.052.041.1.082.153.123q.322.249.666.485c.057.038.116.075.174.114.176.117.353.232.537.343.087.053.176.1.264.154q.243.14.493.274.148.078.3.153c.168.085.341.167.515.247.1.046.2.092.3.137.2.085.4.165.6.243.085.033.167.067.253.1q.437.16.894.3c.051.015.1.028.155.043.258.075.519.146.786.211.109.027.221.049.332.074.217.048.435.093.658.135.127.023.255.044.384.065q.328.053.664.095c.131.017.263.034.4.048.243.025.491.045.74.062.119.009.236.019.355.025.372.019.749.031,1.135.031h1.28C85.626,107.591,90.439,99.347,90.439,94.331Z" fill="#ed8200"/>
      <path id="Path_1277366" data-name="Path 1277366" d="M73.97,101.576a10.732,10.732,0,0,0,9.349-16l-2.559,3.376-1.714,2.261-3.388,4.47a1.633,1.633,0,0,1-1.143.638c-.053,0-.1.007-.156.007a1.633,1.633,0,0,1-1.087-.414L66.885,90.2a1.63,1.63,0,0,1,2.173-2.431L74.126,92.3l7.1-9.365a10.733,10.733,0,1,0-7.255,18.641Z" fill="#faca4c"/>
      <path id="Path_1277367" data-name="Path 1277367" d="M74.126,92.3l-5.067-4.529A1.63,1.63,0,0,0,66.885,90.2l6.385,5.706a1.632,1.632,0,0,0,1.087.414c.053,0,.1,0,.156-.007a1.633,1.633,0,0,0,1.143-.638l3.388-4.47,1.713-2.26,5.261-6.94.708-.935a1.63,1.63,0,0,0-2.6-1.97l-2.905,3.832h0Z" fill="#496f18"/>
      <path id="Path_1277368" data-name="Path 1277368" d="M59.653,101.255v0c.1.093.2.184.3.275.06.053.116.108.177.161.091.079.187.154.28.231s.155.131.236.194.166.124.248.186c.1.074.2.149.3.222.065.046.134.09.2.135.123.085.246.171.374.253.047.03.1.058.145.088.151.095.3.188.458.279.043.024.088.047.131.071.165.093.33.185.5.273l.124.059c.178.088.355.177.539.26l.1.044c.193.086.388.17.589.249l.1.038c.2.078.41.155.621.227l.107.033c.212.071.427.139.647.2.053.015.108.027.161.042.205.057.411.112.622.162.07.016.144.029.214.045.2.044.4.088.6.126l.136.022c.233.041.469.081.709.113.136.019.278.031.416.047.154.018.305.038.462.052s.331.022.5.033c.138.009.273.021.414.028q.463.02.942.02h1.239c10.812,0,15.468-7.974,15.468-12.826V77.582c-.056,0-.109,0-.164,0-.172.008-.342.012-.51.014-.138,0-.274,0-.41,0q-.253,0-.5-.01c-.131,0-.259-.01-.387-.018-.164-.009-.327-.019-.488-.033-.121-.01-.241-.023-.361-.035-.161-.017-.322-.034-.479-.055-.111-.014-.219-.032-.328-.049-.16-.025-.321-.049-.477-.078-.1-.018-.189-.038-.283-.058-.164-.034-.328-.066-.487-.1-.062-.014-.12-.031-.18-.046a15.476,15.476,0,0,1-1.749-.544c-.042-.015-.085-.03-.126-.046-.152-.058-.3-.12-.445-.183-.065-.028-.131-.053-.194-.082-.137-.06-.269-.123-.4-.186-.067-.032-.137-.064-.2-.1-.127-.063-.249-.127-.372-.191l-.2-.107c-.118-.065-.234-.131-.348-.2l-.193-.113q-.166-.1-.327-.2l-.181-.117c-.105-.069-.209-.138-.31-.208l-.164-.116c-.1-.071-.2-.142-.3-.214l-.146-.111c-.1-.074-.192-.148-.284-.221l-.118-.1c-.1-.078-.19-.156-.281-.233l-.068-.06c-.336-.292-.638-.579-.9-.85l-.019-.019c-.072-.074-.139-.145-.206-.216l-.079-.084c-.058-.063-.112-.123-.165-.184l-.09-.1c-.049-.056-.1-.111-.14-.164l-.085-.1-.119-.146-.078-.1-.1-.127c-.024-.031-.047-.061-.068-.091s-.056-.074-.082-.109l-.059-.081L74,71.335l-.049-.07-.046-.068-.038-.057-.029-.044-.028-.043-.013-.02-.013-.021s-4.968,8.382-16.612,6.249v17.07c0,.228.014.464.034.7,0,.048.007.1.012.144.024.237.056.48.1.727.006.036.014.073.021.109.046.247.1.5.165.75,0,.017.008.034.013.05.071.269.154.541.247.814.012.035.024.071.037.106a13.281,13.281,0,0,0,.741,1.718c.007.012.013.025.019.038q.226.432.488.862l.031.05c.014.023.03.044.044.067C59.294,100.733,59.466,101,59.653,101.255ZM73.97,80.11a10.69,10.69,0,0,1,7.255,2.824h0L84.13,79.1a1.63,1.63,0,1,1,2.6,1.97l-.708.935-2.7,3.564A10.733,10.733,0,1,1,73.97,80.11Z" fill="#f4aa14"/>
      <path id="Path_1277369" data-name="Path 1277369" d="M62.163,116.761a.724.724,0,0,0,0,1.446A.724.724,0,0,0,62.163,116.761Z" fill="#fff"/>
      <path id="Path_1277370" data-name="Path 1277370" d="M29.378,110.3a.724.724,0,0,0,0,1.446A.724.724,0,0,0,29.378,110.3Z" fill="#fff"/>
      <path id="Path_1277371" data-name="Path 1277371" d="M32.85,145.785a.724.724,0,0,0,0,1.446A.724.724,0,0,0,32.85,145.785Z" fill="#fff"/>
      <path id="Path_1277372" data-name="Path 1277372" d="M36.707,172.784a.724.724,0,0,0,0,1.446A.724.724,0,0,0,36.707,172.784Z" fill="#fff"/>
      <path id="Path_1277373" data-name="Path 1277373" d="M38.732,63.823a.724.724,0,0,0,0-1.446A.724.724,0,0,0,38.732,63.823Z" fill="#fff"/>
      <path id="Path_1277374" data-name="Path 1277374" d="M50.014,43.574a.724.724,0,0,0,0-1.446A.724.724,0,0,0,50.014,43.574Z" fill="#fff"/>
      <path id="Path_1277375" data-name="Path 1277375" d="M74.024,59.484a.724.724,0,0,0,0-1.446A.724.724,0,0,0,74.024,59.484Z" fill="#fff"/>
      <path id="Path_1277376" data-name="Path 1277376" d="M101.216,73.948a.724.724,0,0,0,0-1.446A.724.724,0,0,0,101.216,73.948Z" fill="#fff"/>
      <path id="Path_1277377" data-name="Path 1277377" d="M140.269,67.873a.724.724,0,0,0,0-1.446A.724.724,0,0,0,140.269,67.873Z" fill="#fff"/>
      <path id="Path_1277378" data-name="Path 1277378" d="M147.789,45.888a.724.724,0,0,0,0-1.446A.724.724,0,0,0,147.789,45.888Z" fill="#fff"/>
      <path id="Path_1277379" data-name="Path 1277379" d="M181.056,38.077a.724.724,0,0,0,0-1.446A.724.724,0,0,0,181.056,38.077Z" fill="#fff"/>
      <path id="Path_1277380" data-name="Path 1277380" d="M210.274,76.841a.724.724,0,0,0,0,1.446A.724.724,0,0,0,210.274,76.841Z" fill="#fff"/>
      <path id="Path_1277381" data-name="Path 1277381" d="M198.413,102.3a.724.724,0,0,0,0-1.446A.724.724,0,0,0,198.413,102.3Z" fill="#fff"/>
      <path id="Path_1277382" data-name="Path 1277382" d="M166.882,129.778a.724.724,0,0,0,0,1.446A.724.724,0,0,0,166.882,129.778Z" fill="#fff"/>
      <path id="Path_1277383" data-name="Path 1277383" d="M198.124,138.457a.724.724,0,0,0,0-1.446A.724.724,0,0,0,198.124,138.457Z" fill="#fff"/>
      <path id="Path_1277384" data-name="Path 1277384" d="M195.81,162.757a.724.724,0,0,0,0-1.446A.724.724,0,0,0,195.81,162.757Z" fill="#fff"/>
      <path id="Path_1277385" data-name="Path 1277385" d="M217.506,184.742a.724.724,0,0,0,0-1.446A.724.724,0,0,0,217.506,184.742Z" fill="#fff"/>
      <path id="Path_1277386" data-name="Path 1277386" d="M214.324,153.789a.724.724,0,0,0,0,1.446A.724.724,0,0,0,214.324,153.789Z" fill="#fff"/>
      <path id="Path_1277387" data-name="Path 1277387" d="M67.37,129.2a.724.724,0,0,0,0,1.446A.724.724,0,0,0,67.37,129.2Z" fill="#fff"/>
      <path id="Path_1277388" data-name="Path 1277388" d="M21.664,146.6a1.447,1.447,0,0,0,0,2.893A1.447,1.447,0,0,0,21.664,146.6Z" fill="#fff"/>
      <path id="Path_1277389" data-name="Path 1277389" d="M31.5,195.2a1.447,1.447,0,0,0,0,2.893A1.447,1.447,0,0,0,31.5,195.2Z" fill="#fff"/>
      <path id="Path_1277390" data-name="Path 1277390" d="M45.193,133.105a1.447,1.447,0,0,0,0-2.893A1.447,1.447,0,0,0,45.193,133.105Z" fill="#fff"/>
      <path id="Path_1277391" data-name="Path 1277391" d="M25.328,68.307a1.447,1.447,0,0,0,0-2.893A1.447,1.447,0,0,0,25.328,68.307Z" fill="#fff"/>
      <path id="Path_1277392" data-name="Path 1277392" d="M54.256,51.336a1.447,1.447,0,0,0,0-2.893A1.447,1.447,0,0,0,54.256,51.336Z" fill="#fff"/>
      <path id="Path_1277393" data-name="Path 1277393" d="M83.377,67.729a1.447,1.447,0,0,0,0-2.893A1.447,1.447,0,0,0,83.377,67.729Z" fill="#fff"/>
      <path id="Path_1277394" data-name="Path 1277394" d="M140.655,55.386a1.447,1.447,0,0,0,0-2.893A1.447,1.447,0,0,0,140.655,55.386Z" fill="#fff"/>
      <path id="Path_1277395" data-name="Path 1277395" d="M132.941,77.178a1.447,1.447,0,0,0,0-2.893A1.447,1.447,0,0,0,132.941,77.178Z" fill="#fff"/>
      <path id="Path_1277396" data-name="Path 1277396" d="M204.874,73.707a1.447,1.447,0,0,0,0,2.892A1.447,1.447,0,0,0,204.874,73.707Z" fill="#fff"/>
      <path id="Path_1277397" data-name="Path 1277397" d="M181.154,134.263a1.447,1.447,0,0,0,0,2.892A1.447,1.447,0,0,0,181.154,134.263Z" fill="#fff"/>
      <path id="Path_1277398" data-name="Path 1277398" d="M209.117,142.362a1.447,1.447,0,0,0,0,2.893A1.447,1.447,0,0,0,209.117,142.362Z" fill="#fff"/>
      <path id="Path_1277399" data-name="Path 1277399" d="M208.152,174.762a1.447,1.447,0,0,0,0-2.893A1.447,1.447,0,0,0,208.152,174.762Z" fill="#fff"/>
      <path id="Path_1277400" data-name="Path 1277400" d="M217.6,196.168a1.447,1.447,0,0,0,0,2.893A1.447,1.447,0,0,0,217.6,196.168Z" fill="#fff"/>
      <path id="Path_1277401" data-name="Path 1277401" d="M209.888,92.8a1.447,1.447,0,0,0,0,2.892A1.447,1.447,0,0,0,209.888,92.8Z" fill="#fff"/>
      <path id="Path_1277402" data-name="Path 1277402" d="M199.474,38.8a1.447,1.447,0,0,0,0-2.893A1.447,1.447,0,0,0,199.474,38.8Z" fill="#fff"/>
    </g>
  </g>
</svg>
