<svg xmlns="http://www.w3.org/2000/svg" xmlns:xlink="http://www.w3.org/1999/xlink" width="88.83" height="85.054" viewBox="0 0 88.83 85.054">
  <defs>
    <clipPath id="clip-path">
      <rect id="Rectangle_413204" data-name="Rectangle 413204" width="78" height="78" transform="translate(-6613.636 1825.63)" fill="#fff" stroke="#707070" stroke-width="1"/>
    </clipPath>
  </defs>
  <g id="Group_1209761" data-name="Group 1209761" transform="translate(6624.466 -1818.576)">
    <g id="Rectangle_413203" data-name="Rectangle 413203" transform="translate(-6624.466 1818.576)" fill="#fd9826" stroke="#af6a1a" stroke-width="3">
      <rect width="70" height="70" rx="10" stroke="none"/>
      <rect x="1.5" y="1.5" width="67" height="67" rx="8.5" fill="none"/>
    </g>
    <g id="Mask_Group_1099380" data-name="Mask Group 1099380" clip-path="url(#clip-path)">
      <g id="book_5318965" transform="translate(-6613.636 1825.63)">
        <g id="Group_1209756" data-name="Group 1209756">
          <g id="Group_1209749" data-name="Group 1209749">
            <path id="Path_1279425" data-name="Path 1279425" d="M76.772,8.145V26.834a2.8,2.8,0,0,1-2.8,2.8H40.929a2.8,2.8,0,0,1-2.8-2.8V8.145a2.8,2.8,0,0,1,2.8-2.8H73.972a2.8,2.8,0,0,1,2.8,2.8Z" fill="#bbf49b"/>
            <g id="Group_1209748" data-name="Group 1209748">
              <path id="Path_1279426" data-name="Path 1279426" d="M46.63,29.634h-5.7a2.8,2.8,0,0,1-2.8-2.8v-5.7a8.5,8.5,0,0,1,8.5,8.5Z" fill="#9be69d"/>
              <path id="Path_1279427" data-name="Path 1279427" d="M76.772,21.133v5.7a2.8,2.8,0,0,1-2.8,2.8h-5.7a8.5,8.5,0,0,1,8.5-8.5Z" fill="#9be69d"/>
              <path id="Path_1279428" data-name="Path 1279428" d="M76.772,8.145v5.7a8.5,8.5,0,0,1-8.5-8.5h5.7a2.8,2.8,0,0,1,2.8,2.8Z" fill="#9be69d"/>
            </g>
          </g>
          <g id="Group_1209752" data-name="Group 1209752">
            <g id="Group_1209751" data-name="Group 1209751">
              <path id="Path_1279429" data-name="Path 1279429" d="M36.941,75.3V33.738A1.64,1.64,0,0,0,35.3,32.1H7.117a5.889,5.889,0,0,0-5.889,5.889V70.916" fill="#60b7ff"/>
              <path id="Path_1279430" data-name="Path 1279430" d="M6.788,66.66H33.835v8.556H6.094a2.325,2.325,0,0,1-2.325-2.325V69.68a3.02,3.02,0,0,1,3.02-3.02Z" fill="#ebebeb"/>
              <g id="Group_1209750" data-name="Group 1209750">
                <path id="Path_1279431" data-name="Path 1279431" d="M7.118,32.1v32.98h0a5.889,5.889,0,0,0-5.889,5.889V37.987A5.89,5.89,0,0,1,7.118,32.1Z" fill="#26a6fe"/>
                <path id="Path_1279432" data-name="Path 1279432" d="M36.941,67.059a1.98,1.98,0,0,1-1.98,1.98H7.22a2.09,2.09,0,0,0-1.47.624,1.873,1.873,0,0,0-.562,1.32A1.931,1.931,0,0,0,7.117,72.9H34.96a1.98,1.98,0,1,1,0,3.961H7.117a5.892,5.892,0,0,1-5.889-5.843,5.986,5.986,0,0,1,5.993-5.936H34.96a1.98,1.98,0,0,1,1.98,1.98Z" fill="#26a6fe"/>
              </g>
            </g>
          </g>
          <g id="Group_1209753" data-name="Group 1209753">
            <path id="Path_1279433" data-name="Path 1279433" d="M27.883,2.679H18.608a8.27,8.27,0,0,0-8.261,8.261v3.268H7.889a1.774,1.774,0,0,0-1.536,2.661L11.858,26.4a1.774,1.774,0,0,0,3.072,0l5.5-9.533A1.774,1.774,0,0,0,18.9,14.208H16.441V10.94a2.169,2.169,0,0,1,2.167-2.167h9.275a3.047,3.047,0,0,0,0-6.094Z" fill="#fe646f"/>
            <path id="Path_1279434" data-name="Path 1279434" d="M46.4,60.086h9.275a8.27,8.27,0,0,0,8.261-8.261V48.557h2.458A1.774,1.774,0,0,0,67.928,45.9l-5.505-9.533a1.774,1.774,0,0,0-3.072,0l-5.5,9.533a1.774,1.774,0,0,0,1.536,2.661H57.84v3.268a2.169,2.169,0,0,1-2.167,2.167H46.4a3.047,3.047,0,0,0,0,6.094Z" fill="#fe646f"/>
          </g>
          <g id="Group_1209755" data-name="Group 1209755">
            <path id="Path_1279435" data-name="Path 1279435" d="M72.963,3.942V22.631a2.8,2.8,0,0,1-2.8,2.8H37.121a2.8,2.8,0,0,1-2.8-2.8V3.942a2.8,2.8,0,0,1,2.8-2.8H70.163a2.8,2.8,0,0,1,2.8,2.8Z" fill="#bbf49b"/>
            <g id="Group_1209754" data-name="Group 1209754">
              <path id="Path_1279436" data-name="Path 1279436" d="M42.821,25.431h-5.7a2.8,2.8,0,0,1-2.8-2.8v-5.7a8.5,8.5,0,0,1,8.5,8.5Z" fill="#9be69d"/>
              <path id="Path_1279437" data-name="Path 1279437" d="M42.821,1.142a8.5,8.5,0,0,1-8.5,8.5v-5.7a2.8,2.8,0,0,1,2.8-2.8h5.7Z" fill="#9be69d"/>
              <path id="Path_1279438" data-name="Path 1279438" d="M72.963,16.93v5.7a2.8,2.8,0,0,1-2.8,2.8h-5.7a8.5,8.5,0,0,1,8.5-8.5Z" fill="#9be69d"/>
              <path id="Path_1279439" data-name="Path 1279439" d="M72.963,3.942v5.7a8.5,8.5,0,0,1-8.5-8.5h5.7a2.8,2.8,0,0,1,2.8,2.8Z" fill="#9be69d"/>
              <circle id="Ellipse_12713" data-name="Ellipse 12713" cx="8.627" cy="8.627" r="8.627" transform="translate(45.016 4.66)" fill="#9be69d"/>
            </g>
          </g>
        </g>
        <g id="Group_1209757" data-name="Group 1209757">
          <path id="Path_1279440" data-name="Path 1279440" d="M74.106,4.206V3.942A3.946,3.946,0,0,0,70.164,0H37.121a3.946,3.946,0,0,0-3.942,3.942V22.631a3.946,3.946,0,0,0,3.809,3.939v.264a3.947,3.947,0,0,0,3.943,3.943H73.972a3.947,3.947,0,0,0,3.943-3.943V8.146a3.947,3.947,0,0,0-3.81-3.939ZM75.63,8.146v4.468a7.21,7.21,0,0,1-1.524-.411V6.495A1.659,1.659,0,0,1,75.63,8.146ZM43.894,24.288a9.659,9.659,0,0,0-8.43-8.43V10.715a9.659,9.659,0,0,0,8.43-8.43h19.5a9.659,9.659,0,0,0,8.43,8.43v5.142a9.659,9.659,0,0,0-8.43,8.43h-19.5Zm23.732,2.285a9.687,9.687,0,0,0-.428,1.918H47.7a9.681,9.681,0,0,0-.428-1.918Zm2.537-2.285H65.694a7.375,7.375,0,0,1,6.126-6.126v4.469a1.659,1.659,0,0,1-1.657,1.657Zm3.942-9.674a9.5,9.5,0,0,0,1.524.308v5.135a9.467,9.467,0,0,0-1.524.308ZM71.82,3.942V8.411a7.375,7.375,0,0,1-6.126-6.126h4.469A1.659,1.659,0,0,1,71.82,3.942Zm-34.7-1.657H41.59a7.375,7.375,0,0,1-6.126,6.126V3.942A1.659,1.659,0,0,1,37.121,2.285ZM35.464,22.631V18.162a7.375,7.375,0,0,1,6.126,6.126H37.121A1.659,1.659,0,0,1,35.464,22.631Zm3.809,4.2v-.26h5.546a7.363,7.363,0,0,1,.576,1.918H40.93A1.659,1.659,0,0,1,39.273,26.834Zm34.7,1.658H69.507a7.367,7.367,0,0,1,.576-1.918h.081a3.946,3.946,0,0,0,3.938-3.8,7.205,7.205,0,0,1,1.528-.412v4.468a1.659,1.659,0,0,1-1.658,1.658Z"/>
          <path id="Path_1279441" data-name="Path 1279441" d="M38.083,33.738A2.785,2.785,0,0,0,35.3,30.956H7.087a7.039,7.039,0,0,0-7,7.03V51.4a1.143,1.143,0,1,0,2.285,0V44.792a4.755,4.755,0,0,1,3.6-4.607V56.52a7.014,7.014,0,0,0-3.6,1.755V56.728a1.143,1.143,0,1,0-2.285,0V70.916c0,.01,0,.02,0,.03,0,.026,0,.051,0,.077A7.034,7.034,0,0,0,7.117,78H34.96a3.127,3.127,0,0,0,3.123-3.123ZM34.978,71.755V70.181a3.106,3.106,0,0,0,.82-.117v1.807A3.118,3.118,0,0,0,34.978,71.755Zm-2.285,0H7.117a.788.788,0,0,1-.785-.779.739.739,0,0,1,.23-.507.954.954,0,0,1,.659-.286H32.693v1.572ZM35.8,33.738V64.053a3.11,3.11,0,0,0-.838-.117H8.26V33.241H35.3a.5.5,0,0,1,.5.5ZM2.37,39.609V37.987a4.753,4.753,0,0,1,3.6-4.606v4.473A7.012,7.012,0,0,0,2.37,39.609Zm3.6,19.241v5.2a7.259,7.259,0,0,0-3.6,1.786V63.458A4.755,4.755,0,0,1,5.975,58.851ZM34.96,75.715H7.117A4.749,4.749,0,0,1,2.37,71.006a4.653,4.653,0,0,1,1.38-3.327,4.926,4.926,0,0,1,3.47-1.457H34.96a.839.839,0,0,1,.838.831v.015a.839.839,0,0,1-.838.831H7.221a3.24,3.24,0,0,0-2.281.961,3.009,3.009,0,0,0-.894,2.134,3.073,3.073,0,0,0,3.071,3.047H34.96a.838.838,0,1,1,0,1.676Z"/>
          <path id="Path_1279442" data-name="Path 1279442" d="M14.562,44.589H30.617a1.143,1.143,0,1,0,0-2.285H14.562a1.143,1.143,0,1,0,0,2.285Z"/>
          <path id="Path_1279443" data-name="Path 1279443" d="M27.823,47.572H17.356a1.143,1.143,0,1,0,0,2.285H27.823a1.143,1.143,0,1,0,0-2.285Z"/>
          <path id="Path_1279444" data-name="Path 1279444" d="M10.869,26.973a2.916,2.916,0,0,0,5.051,0l5.5-9.533A2.916,2.916,0,0,0,18.9,13.065H17.584V10.94a1.025,1.025,0,0,1,1.024-1.024h9.275a4.189,4.189,0,1,0,0-8.379H18.608a9.414,9.414,0,0,0-9.4,9.4v2.126H7.889A2.916,2.916,0,0,0,5.364,17.44ZM7.343,15.666a.62.62,0,0,1,.546-.316h2.458a1.143,1.143,0,0,0,1.143-1.143V10.94a7.126,7.126,0,0,1,7.118-7.118h9.275a1.9,1.9,0,1,1,0,3.809H18.608A3.313,3.313,0,0,0,15.3,10.94v3.268a1.143,1.143,0,0,0,1.143,1.143H18.9a.631.631,0,0,1,.547.947l-5.5,9.533a.631.631,0,0,1-1.093,0L7.343,16.3a.62.62,0,0,1,0-.631Z"/>
          <path id="Path_1279445" data-name="Path 1279445" d="M67.4,42.7a1.143,1.143,0,0,0-1.979,1.143l1.517,2.626a.631.631,0,0,1-.546.946H63.933a1.143,1.143,0,0,0-1.143,1.143v3.269a7.126,7.126,0,0,1-7.118,7.118H46.4a1.9,1.9,0,1,1,0-3.809h9.275a3.313,3.313,0,0,0,3.309-3.309V48.557a1.143,1.143,0,0,0-1.143-1.143H55.382a.63.63,0,0,1-.546-.946l5.5-9.534a.631.631,0,0,1,1.092,0l1.322,2.29a1.143,1.143,0,0,0,1.979-1.143l-1.322-2.29a2.916,2.916,0,0,0-5.05,0l-5.5,9.533A2.915,2.915,0,0,0,55.382,49.7H56.7v2.127a1.025,1.025,0,0,1-1.024,1.024H46.4a4.189,4.189,0,1,0,0,8.379h9.275a9.413,9.413,0,0,0,9.4-9.4V49.7h1.316a2.916,2.916,0,0,0,2.525-4.374Z"/>
          <path id="Path_1279446" data-name="Path 1279446" d="M63.411,13.287a9.769,9.769,0,1,0-9.769,9.769,9.78,9.78,0,0,0,9.769-9.769ZM53.642,20.77a7.484,7.484,0,1,1,7.484-7.484A7.492,7.492,0,0,1,53.642,20.77Z"/>
          <path id="Path_1279447" data-name="Path 1279447" d="M54.956,12.157l-.42-.147a4.894,4.894,0,0,1-1.708-.794.818.818,0,0,1-.145-.745.708.708,0,0,1,.488-.536,1.639,1.639,0,0,1,1.508.229A1.143,1.143,0,1,0,56.14,8.409,3.7,3.7,0,0,0,54.728,7.7V7.491a1.143,1.143,0,0,0-2.285,0v.281a3,3,0,0,0-1.976,2.143,3.07,3.07,0,0,0,.745,2.918,6.375,6.375,0,0,0,2.575,1.337l.408.142a.986.986,0,0,1,.728,1.168,1.355,1.355,0,0,1-1.345,1.143,2.384,2.384,0,0,1-1.75-.455,1.143,1.143,0,1,0-1.251,1.912,4.393,4.393,0,0,0,1.866.767v.235a1.143,1.143,0,1,0,2.285,0v-.357a3.7,3.7,0,0,0,2.448-2.866,3.269,3.269,0,0,0-2.219-3.7Z"/>
        </g>
      </g>
    </g>
  </g>
</svg>
