<svg xmlns="http://www.w3.org/2000/svg" xmlns:xlink="http://www.w3.org/1999/xlink" width="99.269" height="93.869" viewBox="0 0 99.269 93.869">
  <defs>
    <clipPath id="clip-path">
      <rect id="Rectangle_413244" data-name="Rectangle 413244" width="87" height="81" transform="translate(353.051 12677)" fill="#fff" stroke="#707070" stroke-width="1"/>
    </clipPath>
  </defs>
  <g id="Group_1209848" data-name="Group 1209848" transform="translate(-340.782 -12664.131)">
    <g id="Rectangle_412523" data-name="Rectangle 412523" transform="translate(340.782 12664.131)" fill="#b7a8f1" stroke="#7f74a8" stroke-width="3">
      <rect width="79.44" height="79.44" rx="10" stroke="none"/>
      <rect x="1.5" y="1.5" width="76.44" height="76.44" rx="8.5" fill="none"/>
    </g>
    <g id="Mask_Group_1099397" data-name="Mask Group 1099397" clip-path="url(#clip-path)">
      <g id="Colorline_final" transform="translate(351.647 12672.597)">
        <rect id="Rectangle_413249" data-name="Rectangle 413249" width="36.484" height="61.742" rx="2.806" transform="translate(2.806 14.032)" fill="#a6a1ce"/>
        <path id="Path_1279764" data-name="Path 1279764" d="M7.016,19.645H35.081v42.1H7.016Z" fill="#88d392"/>
        <circle id="Ellipse_12726" data-name="Ellipse 12726" cx="2.806" cy="2.806" r="2.806" transform="translate(18.242 65.952)" fill="#cac7e2"/>
        <rect id="Rectangle_413250" data-name="Rectangle 413250" width="36.484" height="61.742" rx="2.806" transform="translate(50.516 14.032)" fill="#a6a1ce"/>
        <path id="Path_1279765" data-name="Path 1279765" d="M54.726,19.645H82.79v42.1H54.726Z" fill="#88d392"/>
        <circle id="Ellipse_12727" data-name="Ellipse 12727" cx="2.806" cy="2.806" r="2.806" transform="translate(65.952 65.952)" fill="#cac7e2"/>
        <path id="Path_1279766" data-name="Path 1279766" d="M58.234,32.976h8.419V48.411H58.234Z" transform="translate(103.137 -21.75) rotate(90)" fill="#f1f2f2"/>
        <path id="Path_1279767" data-name="Path 1279767" d="M78.581,40.694,67.355,30.871V50.516Z" fill="#f1f2f2"/>
        <path id="Path_1279768" data-name="Path 1279768" d="M23.153,32.976h8.419V48.411H23.153Z" transform="translate(68.056 13.331) rotate(90)" fill="#f1f2f2"/>
        <path id="Path_1279769" data-name="Path 1279769" d="M11.226,40.694l11.226-9.823V50.516Z" fill="#f1f2f2"/>
        <circle id="Ellipse_12728" data-name="Ellipse 12728" cx="15.435" cy="15.435" r="15.435" transform="translate(29.468 26.661)" fill="#fcc96d"/>
        <g id="Group_1209895" data-name="Group 1209895">
          <path id="Path_1279770" data-name="Path 1279770" d="M36.484,77.177H5.613a4.21,4.21,0,0,1-4.21-4.21V16.839a4.21,4.21,0,0,1,4.21-4.21H36.484a4.21,4.21,0,0,1,4.21,4.21V27.714a1.4,1.4,0,1,1-2.806,0V16.839a1.4,1.4,0,0,0-1.4-1.4H5.613a1.4,1.4,0,0,0-1.4,1.4V72.968a1.4,1.4,0,0,0,1.4,1.4H36.484a1.4,1.4,0,0,0,1.4-1.4V56.48a1.4,1.4,0,1,1,2.806,0V72.968A4.21,4.21,0,0,1,36.484,77.177Z" fill="#231f20"/>
          <path id="Path_1279771" data-name="Path 1279771" d="M35.081,63.145H7.016a1.4,1.4,0,0,1-1.4-1.4v-42.1a1.4,1.4,0,0,1,1.4-1.4H35.081a1.4,1.4,0,0,1,1.4,1.4V30.183a1.4,1.4,0,0,1-2.806,0V21.048H8.419v39.29H33.677V54.01a1.4,1.4,0,1,1,2.806,0v7.732A1.4,1.4,0,0,1,35.081,63.145Z" fill="#231f20"/>
          <path id="Path_1279772" data-name="Path 1279772" d="M21.048,72.968a4.21,4.21,0,1,1,4.21-4.21A4.21,4.21,0,0,1,21.048,72.968Zm0-5.613a1.4,1.4,0,1,0,1.4,1.4A1.4,1.4,0,0,0,21.048,67.355Z" fill="#231f20"/>
          <path id="Path_1279773" data-name="Path 1279773" d="M84.194,77.177H53.323a4.21,4.21,0,0,1-4.21-4.21V56.48a1.4,1.4,0,1,1,2.806,0V72.968a1.4,1.4,0,0,0,1.4,1.4H84.194a1.4,1.4,0,0,0,1.4-1.4V16.839a1.4,1.4,0,0,0-1.4-1.4H53.323a1.4,1.4,0,0,0-1.4,1.4V27.714a1.4,1.4,0,1,1-2.806,0V16.839a4.21,4.21,0,0,1,4.21-4.21H84.194a4.21,4.21,0,0,1,4.21,4.21V72.968A4.21,4.21,0,0,1,84.194,77.177Z" fill="#231f20"/>
          <path id="Path_1279774" data-name="Path 1279774" d="M82.79,63.145H54.726a1.4,1.4,0,0,1-1.4-1.4V54.01a1.4,1.4,0,1,1,2.806,0v6.329H81.387V21.048H56.129v9.135a1.4,1.4,0,0,1-2.806,0V19.645a1.4,1.4,0,0,1,1.4-1.4H82.79a1.4,1.4,0,0,1,1.4,1.4v42.1A1.4,1.4,0,0,1,82.79,63.145Z" fill="#231f20"/>
          <path id="Path_1279775" data-name="Path 1279775" d="M68.758,72.968a4.21,4.21,0,1,1,4.21-4.21A4.21,4.21,0,0,1,68.758,72.968Zm0-5.613a1.4,1.4,0,1,0,1.4,1.4A1.4,1.4,0,0,0,68.758,67.355Z" fill="#231f20"/>
          <path id="Path_1279776" data-name="Path 1279776" d="M67.355,51.919a1.379,1.379,0,0,1-.58-.126,1.4,1.4,0,0,1-.824-1.277v-4.21H60.086a1.4,1.4,0,0,1,0-2.806h7.269a1.4,1.4,0,0,1,1.4,1.4v2.526l7.691-6.735-7.691-6.735v2.526a1.4,1.4,0,0,1-1.4,1.4H59.286a1.4,1.4,0,0,1,0-2.806h6.665v-4.21a1.4,1.4,0,0,1,2.327-1.057L79.5,39.637a1.4,1.4,0,0,1,0,2.113L68.278,51.573A1.4,1.4,0,0,1,67.355,51.919Z" fill="#231f20"/>
          <path id="Path_1279777" data-name="Path 1279777" d="M22.452,51.919a1.4,1.4,0,0,1-.923-.347L10.3,41.75a1.4,1.4,0,0,1,0-2.113l11.226-9.823a1.4,1.4,0,0,1,2.327,1.057v4.21H30.52a1.4,1.4,0,0,1,0,2.806H22.452a1.4,1.4,0,0,1-1.4-1.4V33.958l-7.691,6.735,7.691,6.735V44.9a1.4,1.4,0,0,1,1.4-1.4H29.72a1.4,1.4,0,1,1,0,2.806H23.855v4.21a1.4,1.4,0,0,1-.824,1.277,1.379,1.379,0,0,1-.58.126Z" fill="#231f20"/>
          <path id="Path_1279778" data-name="Path 1279778" d="M44.9,58.935A16.839,16.839,0,1,1,61.742,42.1,16.839,16.839,0,0,1,44.9,58.935Zm0-30.871A14.032,14.032,0,1,0,58.935,42.1,14.032,14.032,0,0,0,44.9,28.065Z" fill="#231f20"/>
          <path id="Path_1279779" data-name="Path 1279779" d="M46.306,49.113H40.694a1.4,1.4,0,0,1,0-2.806h5.613a1.4,1.4,0,0,0,0-2.806H43.5a4.21,4.21,0,0,1,0-8.419h5.613a1.4,1.4,0,0,1,0,2.806H43.5a1.4,1.4,0,0,0,0,2.806h2.806a4.21,4.21,0,1,1,0,8.419Z" fill="#231f20"/>
          <path id="Path_1279780" data-name="Path 1279780" d="M44.9,37.887a1.4,1.4,0,0,1-1.4-1.4V33.677a1.4,1.4,0,1,1,2.806,0v2.806A1.4,1.4,0,0,1,44.9,37.887Z" fill="#231f20"/>
          <path id="Path_1279781" data-name="Path 1279781" d="M44.9,51.919a1.4,1.4,0,0,1-1.4-1.4V47.71a1.4,1.4,0,0,1,2.806,0v2.806A1.4,1.4,0,0,1,44.9,51.919Z" fill="#231f20"/>
        </g>
      </g>
    </g>
  </g>
</svg>
