<svg xmlns="http://www.w3.org/2000/svg" xmlns:xlink="http://www.w3.org/1999/xlink" width="88.83" height="85.054" viewBox="0 0 88.83 85.054">
  <defs>
    <clipPath id="clip-path">
      <rect id="Rectangle_413202" data-name="Rectangle 413202" width="78" height="78" transform="translate(1132 13457.63)" fill="#fff" stroke="#707070" stroke-width="1"/>
    </clipPath>
  </defs>
  <g id="Group_1209760" data-name="Group 1209760" transform="translate(-1121.17 -13450.576)">
    <g id="Rectangle_413201" data-name="Rectangle 413201" transform="translate(1121.17 13450.576)" fill="#fd9826" stroke="#af6a1a" stroke-width="3">
      <rect width="70" height="70" rx="10" stroke="none"/>
      <rect x="1.5" y="1.5" width="67" height="67" rx="8.5" fill="none"/>
    </g>
    <g id="Mask_Group_1099381" data-name="Mask Group 1099381" clip-path="url(#clip-path)">
      <g id="Layer_26" data-name="Layer 26" transform="translate(1130.742 13456.38)">
        <path id="Path_1279448" data-name="Path 1279448" d="M37.741,2.516H55.354v57.87H37.741Z" fill="#2b66ba"/>
        <path id="Path_1279449" data-name="Path 1279449" d="M37.741,2.516V55.354h8.806a5.032,5.032,0,0,0,5.032-5.032V2.516Z" fill="#3477cc"/>
        <path id="Path_1279450" data-name="Path 1279450" d="M42.773,22.645h7.548V40.257H42.773Z" fill="#bdbdbd"/>
        <path id="Path_1279451" data-name="Path 1279451" d="M42.773,22.645v15.1h2.516a2.516,2.516,0,0,0,2.516-2.516V22.645Z" fill="#f9f9f9"/>
        <path id="Path_1279452" data-name="Path 1279452" d="M37.741,47.805H55.354v5.032H37.741Z" fill="#eeab46"/>
        <path id="Path_1279453" data-name="Path 1279453" d="M37.741,50.321H49.063a2.516,2.516,0,0,0,2.516-2.516H37.741Z" fill="#f3c14f"/>
        <circle id="Ellipse_12714" data-name="Ellipse 12714" cx="20.129" cy="20.129" r="20.129" transform="translate(37.741 37.741)" fill="#eeab46"/>
        <circle id="Ellipse_12715" data-name="Ellipse 12715" cx="15.096" cy="15.096" r="15.096" transform="translate(42.773 42.773)" fill="#f3c14f"/>
        <path id="Path_1279454" data-name="Path 1279454" d="M57.87,42.773a15.079,15.079,0,0,0-12.244,23.9h13.5a8.806,8.806,0,0,0,8.806-8.806V46.64A15.021,15.021,0,0,0,57.87,42.773Z" fill="#f8da95"/>
        <path id="Path_1279455" data-name="Path 1279455" d="M37.741,10.064H55.354V15.1H37.741Z" fill="#eeab46"/>
        <path id="Path_1279456" data-name="Path 1279456" d="M20.129,5.032H37.741V60.386H20.129Z" fill="#b73831"/>
        <path id="Path_1279457" data-name="Path 1279457" d="M20.129,5.032V55.354h8.806a5.032,5.032,0,0,0,5.032-5.032V5.032Z" fill="#d4483f"/>
        <path id="Path_1279458" data-name="Path 1279458" d="M20.129,47.805H37.741v5.032H20.129Z" fill="#eeab46"/>
        <path id="Path_1279459" data-name="Path 1279459" d="M20.129,50.321H31.451a2.516,2.516,0,0,0,2.516-2.516H20.129Z" fill="#f3c14f"/>
        <path id="Path_1279460" data-name="Path 1279460" d="M20.129,12.58H37.741v5.032H20.129Z" fill="#eeab46"/>
        <path id="Path_1279461" data-name="Path 1279461" d="M20.129,15.1H31.451a2.516,2.516,0,0,0,2.516-2.516H20.129Z" fill="#f3c14f"/>
        <path id="Path_1279462" data-name="Path 1279462" d="M25.161,23.9h7.548V41.515H25.161Z" fill="#bdbdbd"/>
        <path id="Path_1279463" data-name="Path 1279463" d="M25.161,23.9V39h2.516a2.516,2.516,0,0,0,2.516-2.516V23.9Z" fill="#f9f9f9"/>
        <path id="Path_1279464" data-name="Path 1279464" d="M37.741,12.58H49.063a2.516,2.516,0,0,0,2.516-2.516H37.741Z" fill="#f3c14f"/>
        <path id="Path_1279465" data-name="Path 1279465" d="M2.516,2.516H20.129v57.87H2.516Z" fill="#2b66ba"/>
        <path id="Path_1279466" data-name="Path 1279466" d="M2.516,2.516V55.354h8.806a5.032,5.032,0,0,0,5.032-5.032V2.516Z" fill="#3477cc"/>
        <path id="Path_1279467" data-name="Path 1279467" d="M2.516,47.805H20.129v5.032H2.516Z" fill="#eeab46"/>
        <path id="Path_1279468" data-name="Path 1279468" d="M2.516,50.321H13.838a2.516,2.516,0,0,0,2.516-2.516H2.516Z" fill="#f3c14f"/>
        <path id="Path_1279469" data-name="Path 1279469" d="M2.516,10.064H20.129V15.1H2.516Z" fill="#eeab46"/>
        <path id="Path_1279470" data-name="Path 1279470" d="M2.516,12.58H13.838a2.516,2.516,0,0,0,2.516-2.516H2.516Z" fill="#f3c14f"/>
        <path id="Path_1279471" data-name="Path 1279471" d="M7.548,22.645H15.1V40.257H7.548Z" fill="#bdbdbd"/>
        <path id="Path_1279472" data-name="Path 1279472" d="M7.548,22.645v15.1h2.516a2.516,2.516,0,0,0,2.516-2.516V22.645Z" fill="#f9f9f9"/>
        <path id="Path_1279473" data-name="Path 1279473" d="M7.548,41.515H15.1a1.258,1.258,0,0,0,1.258-1.258V22.645A1.258,1.258,0,0,0,15.1,21.387H7.548A1.258,1.258,0,0,0,6.29,22.645V40.257A1.258,1.258,0,0,0,7.548,41.515ZM8.806,23.9h5.032V39H8.806Z"/>
        <path id="Path_1279474" data-name="Path 1279474" d="M32.709,22.645H25.161A1.258,1.258,0,0,0,23.9,23.9V41.515a1.258,1.258,0,0,0,1.258,1.258h7.548a1.258,1.258,0,0,0,1.258-1.258V23.9A1.258,1.258,0,0,0,32.709,22.645ZM31.451,40.257H26.419v-15.1h5.032Z"/>
        <path id="Path_1279475" data-name="Path 1279475" d="M57.87,36.483c-.425,0-.839.039-1.258.064V2.516a1.258,1.258,0,0,0-1.258-1.258H37.741a1.258,1.258,0,0,0-1.258,1.258V3.774h-15.1V2.516a1.258,1.258,0,0,0-1.258-1.258H2.516A1.258,1.258,0,0,0,1.258,2.516v57.87a1.258,1.258,0,0,0,1.258,1.258h34.32A21.379,21.379,0,1,0,57.87,36.483Zm-6.29.947V22.645a1.258,1.258,0,0,0-1.258-1.258H42.773a1.258,1.258,0,0,0-1.258,1.258V41.515a1.258,1.258,0,0,0,1.227,1.252,21.545,21.545,0,0,0-2.988,3.78H39V16.354H54.1V36.837a21.156,21.156,0,0,0-2.516.594Zm-5.815,2.827H44.031V23.9h5.032V38.4a21.277,21.277,0,0,0-3.3,1.854ZM54.1,13.838H39V11.322H54.1ZM21.387,18.871h15.1V46.547h-15.1Zm15.1-2.516h-15.1V13.838h15.1ZM18.871,13.838H3.774V11.322h15.1Zm0,2.516V46.547H3.774V16.354Zm0,32.709v2.516H3.774V49.063Zm2.516,0h15.1v2.516h-15.1ZM54.1,3.774V8.806H39V3.774ZM36.483,6.29v5.032h-15.1V6.29ZM18.871,3.774V8.806H3.774V3.774ZM3.774,59.128V54.1h15.1v5.032Zm17.612,0V54.1h15.45a21.452,21.452,0,0,0-.354,3.774c0,.425.039.839.064,1.258ZM57.87,76.74A18.871,18.871,0,1,1,76.74,57.87,18.871,18.871,0,0,1,57.87,76.74Z"/>
        <path id="Path_1279476" data-name="Path 1279476" d="M57.87,41.515A16.354,16.354,0,1,0,74.224,57.87,16.354,16.354,0,0,0,57.87,41.515Zm0,30.193A13.838,13.838,0,1,1,71.708,57.87,13.838,13.838,0,0,1,57.87,71.708Z"/>
        <path id="Path_1279477" data-name="Path 1279477" d="M57.87,51.579A2.516,2.516,0,0,1,60.386,54.1H62.9a5.025,5.025,0,0,0-3.774-4.852v-2.7H56.612v2.695a5.022,5.022,0,0,0,1.371,9.886,2.431,2.431,0,0,1,2.4,2.516,2.516,2.516,0,1,1-5.032,0H52.837A5.032,5.032,0,0,0,56.612,66.5v2.695h2.516V66.5A5.077,5.077,0,0,0,62.9,61.53a4.95,4.95,0,0,0-5.032-4.919,2.516,2.516,0,1,1,0-5.032Z"/>
      </g>
    </g>
  </g>
</svg>
