<svg xmlns="http://www.w3.org/2000/svg" xmlns:xlink="http://www.w3.org/1999/xlink" width="99.269" height="93.869" viewBox="0 0 99.269 93.869">
  <defs>
    <clipPath id="clip-path">
      <rect id="Rectangle_413246" data-name="Rectangle 413246" width="87" height="81" transform="translate(759.411 12677)" fill="#fff" stroke="#707070" stroke-width="1"/>
    </clipPath>
  </defs>
  <g id="Group_1209897" data-name="Group 1209897" transform="translate(-747.142 -12664.131)">
    <g id="Group_1209896" data-name="Group 1209896">
      <g id="Rectangle_413245" data-name="Rectangle 413245" transform="translate(747.142 12664.131)" fill="#b7a8f1" stroke="#7f74a8" stroke-width="3">
        <rect width="79.44" height="79.44" rx="10" stroke="none"/>
        <rect x="1.5" y="1.5" width="76.44" height="76.44" rx="8.5" fill="none"/>
      </g>
      <g id="Mask_Group_1099396" data-name="Mask Group 1099396" clip-path="url(#clip-path)">
        <g id="_x36_166.S2_-_Calculations" transform="translate(747.109 12661.698)">
          <g id="Group_1209894" data-name="Group 1209894">
            <g id="Group_1209893" data-name="Group 1209893">
              <g id="XMLID_4_">
                <g id="Group_1209860" data-name="Group 1209860">
                  <g id="Group_1209853" data-name="Group 1209853">
                    <path id="Path_1279727" data-name="Path 1279727" d="M72.019,46.342H90.94v5.406H72.019Z" fill="#2be"/>
                  </g>
                  <g id="Group_1209854" data-name="Group 1209854">
                    <path id="Path_1279728" data-name="Path 1279728" d="M96.346,40.936V78.777H66.614V40.936H96.346ZM90.94,51.748V46.342H72.019v5.406Z" fill="#3b7ba7"/>
                  </g>
                  <g id="Group_1209855" data-name="Group 1209855">
                    <path id="Path_1279729" data-name="Path 1279729" d="M63.911,89.588v5.406H15.258V22.016h5.406V89.588Z" fill="#c4cad8"/>
                  </g>
                  <g id="Group_1209856" data-name="Group 1209856">
                    <path id="Path_1279730" data-name="Path 1279730" d="M26.07,22.016H58.5V35.53H26.07Z" fill="#2be"/>
                  </g>
                  <g id="Group_1209857" data-name="Group 1209857">
                    <circle id="Ellipse_12725" data-name="Ellipse 12725" cx="9.46" cy="9.46" r="9.46" transform="translate(26.07 65.262)" fill="#98da4c"/>
                  </g>
                  <g id="Group_1209858" data-name="Group 1209858">
                    <path id="Path_1279731" data-name="Path 1279731" d="M74.722,24.719H63.911V16.61Z" fill="#c4cad8"/>
                  </g>
                  <g id="Group_1209859" data-name="Group 1209859">
                    <path id="Path_1279732" data-name="Path 1279732" d="M66.614,73.371v5.406h8.109V89.588H20.664V16.61H63.911v8.109H74.722V40.936H66.614V73.371ZM58.5,35.53V22.016H26.07V35.53ZM44.99,74.722a9.46,9.46,0,1,0-9.46,9.46A9.46,9.46,0,0,0,44.99,74.722Z" fill="#dde2ea"/>
                  </g>
                </g>
                <g id="Group_1209892" data-name="Group 1209892">
                  <g id="Group_1209861" data-name="Group 1209861">
                    <path id="Path_1279733" data-name="Path 1279733" d="M66.614,80.085a1.308,1.308,0,0,1-1.308-1.308V40.936a1.308,1.308,0,1,1,2.616,0V78.777A1.308,1.308,0,0,1,66.614,80.085Z" fill="#333"/>
                  </g>
                  <g id="Group_1209862" data-name="Group 1209862">
                    <path id="Path_1279734" data-name="Path 1279734" d="M74.722,90.9H20.664a1.308,1.308,0,0,1-1.308-1.308V16.61A1.308,1.308,0,0,1,20.664,15.3H63.911a1.308,1.308,0,0,1,.785.262l10.812,8.109a1.308,1.308,0,0,1,.523,1.046V40.936a1.308,1.308,0,0,1-1.308,1.308H69.316a1.308,1.308,0,1,1,0-2.616h4.1V25.372l-9.94-7.455h-41.5V88.28H73.414v-8.2h-4.1a1.308,1.308,0,1,1,0-2.616h5.406a1.308,1.308,0,0,1,1.308,1.308V89.588A1.308,1.308,0,0,1,74.722,90.9Z" fill="#333"/>
                  </g>
                  <g id="Group_1209863" data-name="Group 1209863">
                    <path id="Path_1279735" data-name="Path 1279735" d="M74.722,26.026H63.911A1.308,1.308,0,0,1,62.6,24.719V16.61a1.308,1.308,0,1,1,2.616,0v6.8h9.5a1.308,1.308,0,1,1,0,2.616Z" fill="#333"/>
                  </g>
                  <g id="Group_1209864" data-name="Group 1209864">
                    <path id="Path_1279736" data-name="Path 1279736" d="M58.5,36.838H26.07a1.308,1.308,0,0,1-1.308-1.308V22.016a1.308,1.308,0,0,1,1.308-1.308H58.5a1.308,1.308,0,0,1,1.308,1.308V35.53A1.308,1.308,0,0,1,58.5,36.838ZM27.378,34.222H57.2v-10.9H27.378Z" fill="#333"/>
                  </g>
                  <g id="Group_1209865" data-name="Group 1209865">
                    <path id="Path_1279737" data-name="Path 1279737" d="M69.316,42.244H26.07a1.308,1.308,0,1,1,0-2.616H69.316a1.308,1.308,0,0,1,0,2.616Z" fill="#333"/>
                  </g>
                  <g id="Group_1209866" data-name="Group 1209866">
                    <path id="Path_1279738" data-name="Path 1279738" d="M66.614,47.65H26.07a1.308,1.308,0,1,1,0-2.616H66.614a1.308,1.308,0,0,1,0,2.616Z" fill="#333"/>
                  </g>
                  <g id="Group_1209867" data-name="Group 1209867">
                    <path id="Path_1279739" data-name="Path 1279739" d="M66.614,53.055H26.07a1.308,1.308,0,1,1,0-2.616H66.614a1.308,1.308,0,0,1,0,2.616Z" fill="#333"/>
                  </g>
                  <g id="Group_1209868" data-name="Group 1209868">
                    <path id="Path_1279740" data-name="Path 1279740" d="M66.614,58.461H26.07a1.308,1.308,0,1,1,0-2.616H66.614a1.308,1.308,0,0,1,0,2.616Z" fill="#333"/>
                  </g>
                  <g id="Group_1209869" data-name="Group 1209869">
                    <path id="Path_1279741" data-name="Path 1279741" d="M66.614,63.867H46.342a1.308,1.308,0,0,1,0-2.616H66.614a1.308,1.308,0,0,1,0,2.616Z" fill="#333"/>
                  </g>
                  <g id="Group_1209870" data-name="Group 1209870">
                    <path id="Path_1279742" data-name="Path 1279742" d="M66.614,69.273H50.4a1.308,1.308,0,1,1,0-2.616H66.614a1.308,1.308,0,0,1,0,2.616Z" fill="#333"/>
                  </g>
                  <g id="Group_1209871" data-name="Group 1209871">
                    <path id="Path_1279743" data-name="Path 1279743" d="M66.614,74.679H50.4a1.308,1.308,0,0,1,0-2.616H66.614a1.308,1.308,0,0,1,0,2.616Z" fill="#333"/>
                  </g>
                  <g id="Group_1209872" data-name="Group 1209872">
                    <path id="Path_1279744" data-name="Path 1279744" d="M69.316,80.085H50.4a1.308,1.308,0,1,1,0-2.616h18.92a1.308,1.308,0,0,1,0,2.616Z" fill="#333"/>
                  </g>
                  <g id="Group_1209873" data-name="Group 1209873">
                    <path id="Path_1279745" data-name="Path 1279745" d="M69.316,85.49H50.4a1.308,1.308,0,1,1,0-2.616h18.92a1.308,1.308,0,0,1,0,2.616Z" fill="#333"/>
                  </g>
                  <g id="Group_1209874" data-name="Group 1209874">
                    <path id="Path_1279746" data-name="Path 1279746" d="M53.1,30.081H31.476a1.308,1.308,0,0,1,0-2.616H53.1a1.308,1.308,0,0,1,0,2.616Z" fill="#333"/>
                  </g>
                  <g id="Group_1209875" data-name="Group 1209875">
                    <path id="Path_1279747" data-name="Path 1279747" d="M63.911,96.3H15.258a1.308,1.308,0,0,1-1.308-1.308V22.016a1.308,1.308,0,0,1,1.308-1.308h5.406a1.308,1.308,0,1,1,0,2.616h-4.1V93.686H62.6v-4.1a1.308,1.308,0,1,1,2.616,0v5.406A1.308,1.308,0,0,1,63.911,96.3Z" fill="#333"/>
                  </g>
                  <g id="Group_1209876" data-name="Group 1209876">
                    <path id="Path_1279748" data-name="Path 1279748" d="M35.53,85.49A10.768,10.768,0,1,1,46.3,74.722,10.78,10.78,0,0,1,35.53,85.49Zm0-18.92a8.152,8.152,0,1,0,8.152,8.152A8.162,8.162,0,0,0,35.53,66.57Z" fill="#333"/>
                  </g>
                  <g id="Group_1209877" data-name="Group 1209877">
                    <path id="Path_1279749" data-name="Path 1279749" d="M34.179,78.733a1.3,1.3,0,0,1-.925-.383l-2.027-2.027a1.308,1.308,0,1,1,1.85-1.85l1.1,1.1,3.13-3.13a1.308,1.308,0,0,1,1.85,1.85L35.1,78.35a1.3,1.3,0,0,1-.925.383Z" fill="#333"/>
                  </g>
                  <g id="Group_1209878" data-name="Group 1209878">
                    <path id="Path_1279750" data-name="Path 1279750" d="M96.346,80.085H74.722a1.308,1.308,0,0,1,0-2.616H95.038V42.244H74.722a1.308,1.308,0,0,1,0-2.616H96.346a1.308,1.308,0,0,1,1.308,1.308V78.777A1.308,1.308,0,0,1,96.346,80.085Z" fill="#333"/>
                  </g>
                  <g id="Group_1209879" data-name="Group 1209879">
                    <path id="Path_1279751" data-name="Path 1279751" d="M90.94,53.055H72.019a1.308,1.308,0,0,1-1.308-1.308V46.342a1.308,1.308,0,0,1,1.308-1.308H90.94a1.308,1.308,0,0,1,1.308,1.308v5.406A1.308,1.308,0,0,1,90.94,53.055ZM73.327,50.44h16.3V47.65h-16.3Z" fill="#333"/>
                  </g>
                  <g id="Group_1209880" data-name="Group 1209880">
                    <path id="Path_1279752" data-name="Path 1279752" d="M74.722,58.461h-2.7a1.308,1.308,0,1,1,0-2.616h2.7a1.308,1.308,0,1,1,0,2.616Z" fill="#333"/>
                  </g>
                  <g id="Group_1209881" data-name="Group 1209881">
                    <path id="Path_1279753" data-name="Path 1279753" d="M82.831,58.461h-2.7a1.308,1.308,0,0,1,0-2.616h2.7a1.308,1.308,0,0,1,0,2.616Z" fill="#333"/>
                  </g>
                  <g id="Group_1209882" data-name="Group 1209882">
                    <path id="Path_1279754" data-name="Path 1279754" d="M90.94,58.461h-2.7a1.308,1.308,0,1,1,0-2.616h2.7a1.308,1.308,0,1,1,0,2.616Z" fill="#333"/>
                  </g>
                  <g id="Group_1209883" data-name="Group 1209883">
                    <path id="Path_1279755" data-name="Path 1279755" d="M74.722,63.867h-2.7a1.308,1.308,0,1,1,0-2.616h2.7a1.308,1.308,0,1,1,0,2.616Z" fill="#333"/>
                  </g>
                  <g id="Group_1209884" data-name="Group 1209884">
                    <path id="Path_1279756" data-name="Path 1279756" d="M82.831,63.867h-2.7a1.308,1.308,0,0,1,0-2.616h2.7a1.308,1.308,0,0,1,0,2.616Z" fill="#333"/>
                  </g>
                  <g id="Group_1209885" data-name="Group 1209885">
                    <path id="Path_1279757" data-name="Path 1279757" d="M90.94,63.867h-2.7a1.308,1.308,0,1,1,0-2.616h2.7a1.308,1.308,0,1,1,0,2.616Z" fill="#333"/>
                  </g>
                  <g id="Group_1209886" data-name="Group 1209886">
                    <path id="Path_1279758" data-name="Path 1279758" d="M74.722,69.273h-2.7a1.308,1.308,0,1,1,0-2.616h2.7a1.308,1.308,0,1,1,0,2.616Z" fill="#333"/>
                  </g>
                  <g id="Group_1209887" data-name="Group 1209887">
                    <path id="Path_1279759" data-name="Path 1279759" d="M82.831,69.273h-2.7a1.308,1.308,0,0,1,0-2.616h2.7a1.308,1.308,0,0,1,0,2.616Z" fill="#333"/>
                  </g>
                  <g id="Group_1209888" data-name="Group 1209888">
                    <path id="Path_1279760" data-name="Path 1279760" d="M90.94,69.273h-2.7a1.308,1.308,0,1,1,0-2.616h2.7a1.308,1.308,0,1,1,0,2.616Z" fill="#333"/>
                  </g>
                  <g id="Group_1209889" data-name="Group 1209889">
                    <path id="Path_1279761" data-name="Path 1279761" d="M74.722,74.679h-2.7a1.308,1.308,0,0,1,0-2.616h2.7a1.308,1.308,0,1,1,0,2.616Z" fill="#333"/>
                  </g>
                  <g id="Group_1209890" data-name="Group 1209890">
                    <path id="Path_1279762" data-name="Path 1279762" d="M82.831,74.679h-2.7a1.308,1.308,0,0,1,0-2.616h2.7a1.308,1.308,0,0,1,0,2.616Z" fill="#333"/>
                  </g>
                  <g id="Group_1209891" data-name="Group 1209891">
                    <path id="Path_1279763" data-name="Path 1279763" d="M90.94,74.679h-2.7a1.308,1.308,0,0,1,0-2.616h2.7a1.308,1.308,0,0,1,0,2.616Z" fill="#333"/>
                  </g>
                </g>
              </g>
            </g>
          </g>
        </g>
      </g>
    </g>
  </g>
</svg>
