<svg xmlns="http://www.w3.org/2000/svg" xmlns:xlink="http://www.w3.org/1999/xlink" width="99.269" height="93.869" viewBox="0 0 99.269 93.869">
  <defs>
    <clipPath id="clip-path">
      <rect id="Rectangle_413248" data-name="Rectangle 413248" width="87" height="81" transform="translate(1182.634 12669.785)" fill="#fff" stroke="#707070" stroke-width="1"/>
    </clipPath>
  </defs>
  <g id="Group_1209898" data-name="Group 1209898" transform="translate(-1170.366 -12656.916)">
    <g id="Rectangle_413247" data-name="Rectangle 413247" transform="translate(1170.366 12656.916)" fill="#b7a8f1" stroke="#7f74a8" stroke-width="3">
      <rect width="79.44" height="79.44" rx="10" stroke="none"/>
      <rect x="1.5" y="1.5" width="76.44" height="76.44" rx="8.5" fill="none"/>
    </g>
    <g id="Mask_Group_1099395" data-name="Mask Group 1099395" clip-path="url(#clip-path)">
      <g id="expense_10063577" transform="translate(1184.328 12668.479)">
        <g id="Group_1209852" data-name="Group 1209852">
          <g id="Group_1209849" data-name="Group 1209849">
            <path id="Path_1279714" data-name="Path 1279714" d="M4.124,2.613H50.453a1.46,1.46,0,0,1,1.069.443l8.485,8.485a1.46,1.46,0,0,1,.443,1.069V76.063a1.514,1.514,0,0,1-1.511,1.511H4.124a1.514,1.514,0,0,1-1.511-1.511V4.124A1.514,1.514,0,0,1,4.124,2.613Z" fill="#eceff1" fill-rule="evenodd"/>
            <path id="Path_1279715" data-name="Path 1279715" d="M4.124,2.613H6.889V77.574H4.124a1.514,1.514,0,0,1-1.511-1.511V4.124A1.514,1.514,0,0,1,4.124,2.613Z" fill="#d1d1d6" fill-rule="evenodd"/>
            <path id="Path_1279716" data-name="Path 1279716" d="M51.079,2.744a1.512,1.512,0,0,1,.443.312l8.485,8.485a1.516,1.516,0,0,1,.312.443H51.834a.757.757,0,0,1-.756-.756Z" fill="#a79ba7" fill-rule="evenodd"/>
          </g>
          <g id="Group_1209850" data-name="Group 1209850">
            <path id="Path_1279717" data-name="Path 1279717" d="M28.7,38.338A11.934,11.934,0,0,1,32.2,39.786l2.271-1.008,2.676,2.676-1.008,2.27a11.93,11.93,0,0,1,1.449,3.5l2.317.892V51.9l-2.317.892a11.93,11.93,0,0,1-1.449,3.494l1.008,2.271-2.676,2.676L32.2,60.22a11.931,11.931,0,0,1-3.5,1.449l-.892,2.317H24.027l-.892-2.317a11.934,11.934,0,0,1-3.494-1.449L17.37,61.228l-2.676-2.676,1.008-2.27a11.931,11.931,0,0,1-1.449-3.5L11.937,51.9V48.111l2.317-.892A11.931,11.931,0,0,1,15.7,43.724l-1.008-2.27,2.676-2.676,2.271,1.008a11.934,11.934,0,0,1,3.494-1.449l.892-2.317h3.784Z" fill="#ffe177" fill-rule="evenodd"/>
            <path id="Path_1279718" data-name="Path 1279718" d="M19.641,60.219,17.37,61.228l-.35-.35,2.129-.946q.243.149.491.287ZM28.7,38.338A11.934,11.934,0,0,1,32.2,39.786l-.645.287a15.74,15.74,0,0,0-3.986-1.735l-.892-2.317h1.137ZM32.2,60.22a11.931,11.931,0,0,1-3.5,1.449l-.892,2.317H26.675l.892-2.317a15.734,15.734,0,0,0,3.986-1.735ZM17.021,39.127l.35-.35,2.271,1.008q-.249.137-.491.287Zm16.66,0,.787-.35,2.676,2.676-1.008,2.27a11.93,11.93,0,0,1,1.449,3.5l2.317.892V51.9l-2.317.892a11.93,11.93,0,0,1-1.449,3.494l1.008,2.271-2.676,2.676-.787-.35,2.326-2.326L35,56.281a11.934,11.934,0,0,0,1.449-3.494l2.317-.892V48.111l-2.317-.892A11.93,11.93,0,0,0,35,43.724l1.008-2.27Z" fill="#ffd064" fill-rule="evenodd"/>
            <circle id="Ellipse_12724" data-name="Ellipse 12724" cx="7.352" cy="7.352" r="7.352" transform="translate(15.824 52.396) rotate(-58.28)" fill="#ffc338"/>
            <path id="Path_1279719" data-name="Path 1279719" d="M25.919,42.654a7.349,7.349,0,0,0,0,14.7q.3,0,.584-.023a7.349,7.349,0,0,1,0-14.651Q26.215,42.654,25.919,42.654Z" fill="#f5b829" fill-rule="evenodd"/>
          </g>
          <g id="Group_1209851" data-name="Group 1209851">
            <path id="Path_1279720" data-name="Path 1279720" d="M53.339,42.7H76.886A4.126,4.126,0,0,1,81,46.814V76.886A4.126,4.126,0,0,1,76.886,81H53.339a4.126,4.126,0,0,1-4.114-4.114V46.814A4.126,4.126,0,0,1,53.339,42.7Z" fill="#837683" fill-rule="evenodd"/>
            <path id="Path_1279721" data-name="Path 1279721" d="M74.529,42.7h2.357A4.126,4.126,0,0,1,81,46.814V76.886A4.126,4.126,0,0,1,76.886,81H74.529a4.126,4.126,0,0,0,4.114-4.114V46.814A4.126,4.126,0,0,0,74.529,42.7Z" fill="#685e68" fill-rule="evenodd"/>
            <path id="Path_1279722" data-name="Path 1279722" d="M54.71,48.6h20.8a.947.947,0,0,1,.946.946v3.712a.947.947,0,0,1-.946.946H54.71a.948.948,0,0,1-.946-.946V49.551A.948.948,0,0,1,54.71,48.6Z" fill="#6cf5c2" fill-rule="evenodd"/>
            <path id="Path_1279723" data-name="Path 1279723" d="M75.282,48.6h.233a.947.947,0,0,1,.946.946v3.712a.948.948,0,0,1-.946.946H54.71a.948.948,0,0,1-.946-.946V53.03H74.337a.948.948,0,0,0,.946-.946Z" fill="#00e499" fill-rule="evenodd"/>
            <path id="Path_1279724" data-name="Path 1279724" d="M55.579,58.712h3.534a.947.947,0,0,1,.946.946v1.229a.947.947,0,0,1-.946.946H55.579a.947.947,0,0,1-.946-.946V59.657A.948.948,0,0,1,55.579,58.712ZM71.112,71.975h3.534a.948.948,0,0,1,.946.946V74.15a.948.948,0,0,1-.946.946H71.112a.947.947,0,0,1-.946-.946V72.921A.947.947,0,0,1,71.112,71.975Zm-7.766,0H66.88a.948.948,0,0,1,.946.946V74.15a.948.948,0,0,1-.946.946H63.346a.947.947,0,0,1-.946-.946V72.921A.947.947,0,0,1,63.346,71.975Zm-7.766,0h3.534a.947.947,0,0,1,.946.946V74.15a.948.948,0,0,1-.946.946H55.579a.947.947,0,0,1-.946-.946V72.921A.948.948,0,0,1,55.579,71.975Zm15.533-6.632h3.534a.948.948,0,0,1,.946.946v1.229a.947.947,0,0,1-.946.946H71.112a.947.947,0,0,1-.946-.946V66.289a.947.947,0,0,1,.946-.946Zm-7.766,0H66.88a.948.948,0,0,1,.946.946v1.229a.947.947,0,0,1-.946.946H63.346a.947.947,0,0,1-.946-.946V66.289a.947.947,0,0,1,.946-.946Zm-7.766,0h3.534a.947.947,0,0,1,.946.946v1.229a.947.947,0,0,1-.946.946H55.579a.947.947,0,0,1-.946-.946V66.289a.948.948,0,0,1,.946-.946Zm15.533-6.632h3.534a.948.948,0,0,1,.946.946v1.229a.947.947,0,0,1-.946.946H71.112a.947.947,0,0,1-.946-.946V59.657A.948.948,0,0,1,71.112,58.712Zm-7.766,0H66.88a.948.948,0,0,1,.946.946v1.229a.947.947,0,0,1-.946.946H63.346a.947.947,0,0,1-.946-.946V59.657A.947.947,0,0,1,63.346,58.712Z" fill="#eceff1" fill-rule="evenodd"/>
            <path id="Path_1279725" data-name="Path 1279725" d="M59.272,58.725a.948.948,0,0,1,.788.932v1.229a.947.947,0,0,1-.946.946H55.579a.948.948,0,0,1-.895-.64.934.934,0,0,0,.158.013h3.534a.948.948,0,0,0,.946-.946V59.031A.937.937,0,0,0,59.272,58.725ZM74.8,71.988a.948.948,0,0,1,.788.932V74.15a.948.948,0,0,1-.946.946H71.112a.948.948,0,0,1-.895-.639.951.951,0,0,0,.158.013H73.91a.948.948,0,0,0,.946-.946V72.295A.941.941,0,0,0,74.8,71.988Zm-7.766,0a.948.948,0,0,1,.788.932V74.15a.948.948,0,0,1-.946.946H63.345a.948.948,0,0,1-.895-.639.951.951,0,0,0,.158.013h3.534a.948.948,0,0,0,.946-.946V72.295A.937.937,0,0,0,67.038,71.988Zm-7.766,0a.948.948,0,0,1,.788.932V74.15a.948.948,0,0,1-.946.946H55.579a.948.948,0,0,1-.895-.639.951.951,0,0,0,.158.013h3.534a.948.948,0,0,0,.946-.946V72.295A.937.937,0,0,0,59.272,71.988ZM74.8,65.357a.948.948,0,0,1,.788.932v1.229a.947.947,0,0,1-.946.946H71.112a.948.948,0,0,1-.895-.639.934.934,0,0,0,.158.013H73.91a.948.948,0,0,0,.946-.946v-1.23a.941.941,0,0,0-.051-.306Zm-7.766,0a.948.948,0,0,1,.788.932v1.229a.947.947,0,0,1-.946.946H63.345a.948.948,0,0,1-.895-.639.951.951,0,0,0,.158.013h3.534a.948.948,0,0,0,.946-.946v-1.23a.937.937,0,0,0-.051-.306Zm-7.766,0a.948.948,0,0,1,.788.932v1.229a.947.947,0,0,1-.946.946H55.579a.948.948,0,0,1-.895-.639.934.934,0,0,0,.158.013h3.534a.948.948,0,0,0,.946-.946v-1.23a.936.936,0,0,0-.051-.306ZM74.8,58.725a.948.948,0,0,1,.788.932v1.229a.947.947,0,0,1-.946.946H71.112a.948.948,0,0,1-.895-.64.934.934,0,0,0,.158.013H73.91a.948.948,0,0,0,.946-.946V59.031A.942.942,0,0,0,74.8,58.725Zm-7.766,0a.948.948,0,0,1,.788.932v1.229a.947.947,0,0,1-.946.946H63.345a.948.948,0,0,1-.895-.64.951.951,0,0,0,.158.013h3.534a.948.948,0,0,0,.946-.946V59.031A.937.937,0,0,0,67.038,58.725Z" fill="#d1d1d6" fill-rule="evenodd"/>
          </g>
        </g>
        <path id="Path_1279726" data-name="Path 1279726" d="M14.657,23.6A1.306,1.306,0,0,1,15.964,22.3H35.1a1.306,1.306,0,1,1,0,2.612H15.964A1.307,1.307,0,0,1,14.657,23.6Zm-7.576,0A1.307,1.307,0,0,1,8.388,22.3h2.461a1.306,1.306,0,1,1,0,2.612H8.388A1.308,1.308,0,0,1,7.081,23.6ZM14.657,9.95a1.306,1.306,0,0,1,1.307-1.307H35.1a1.307,1.307,0,1,1,0,2.613H15.964A1.306,1.306,0,0,1,14.657,9.95Zm-7.576,0A1.308,1.308,0,0,1,8.388,8.643h2.461a1.307,1.307,0,1,1,0,2.613H8.388A1.308,1.308,0,0,1,7.081,9.95Zm7.576,6.827a1.306,1.306,0,0,1,1.307-1.306H35.1a1.307,1.307,0,1,1,0,2.613H15.964a1.306,1.306,0,0,1-1.307-1.307Zm-7.576,0A1.308,1.308,0,0,1,8.388,15.47h2.461a1.307,1.307,0,1,1,0,2.613H8.388A1.308,1.308,0,0,1,7.081,16.777ZM75.155,73.79H72.342v-.509h2.814Zm.361-3.121H71.982a2.255,2.255,0,0,0-2.254,2.251v1.23A2.255,2.255,0,0,0,71.982,76.4h3.534a2.255,2.255,0,0,0,2.252-2.252V72.92a2.255,2.255,0,0,0-2.252-2.251Zm-9,3.121H63.708v-.509H66.52Zm.361-3.121H63.347A2.254,2.254,0,0,0,61.1,72.92v1.23A2.254,2.254,0,0,0,63.347,76.4h3.533a2.254,2.254,0,0,0,2.252-2.252V72.92a2.254,2.254,0,0,0-2.252-2.251ZM57.886,73.79H55.072v-.509h2.814Zm.361-3.121H54.711a2.255,2.255,0,0,0-2.252,2.251v1.23A2.255,2.255,0,0,0,54.711,76.4h3.536A2.255,2.255,0,0,0,60.5,74.15V72.92a2.254,2.254,0,0,0-2.251-2.251Zm16.908-3.511H72.342V66.65h2.814Zm.361-3.121H71.982a2.255,2.255,0,0,0-2.254,2.252v1.23a2.256,2.256,0,0,0,2.254,2.252h3.534a2.255,2.255,0,0,0,2.252-2.252v-1.23A2.255,2.255,0,0,0,75.516,64.037Zm-9,3.121H63.708V66.65H66.52Zm.361-3.121H63.347A2.254,2.254,0,0,0,61.1,66.289v1.23a2.254,2.254,0,0,0,2.252,2.252h3.533a2.254,2.254,0,0,0,2.252-2.252v-1.23A2.254,2.254,0,0,0,66.881,64.037Zm-8.995,3.121H55.072V66.65h2.814Zm.361-3.121H54.711a2.255,2.255,0,0,0-2.252,2.252v1.23a2.255,2.255,0,0,0,2.252,2.252h3.536A2.255,2.255,0,0,0,60.5,67.519v-1.23A2.255,2.255,0,0,0,58.247,64.037Zm16.908-3.511H72.342v-.507h2.814Zm.361-3.12H71.982a2.255,2.255,0,0,0-2.254,2.252v1.229a2.255,2.255,0,0,0,2.254,2.252h3.534a2.255,2.255,0,0,0,2.252-2.252V59.658A2.255,2.255,0,0,0,75.516,57.406Zm-9,3.12H63.708v-.507H66.52Zm.361-3.12H63.347A2.254,2.254,0,0,0,61.1,59.658v1.229a2.254,2.254,0,0,0,2.252,2.252h3.533a2.254,2.254,0,0,0,2.252-2.252V59.658a2.254,2.254,0,0,0-2.252-2.252Zm-8.995,3.12H55.072v-.507h2.814Zm.361-3.12H54.711a2.255,2.255,0,0,0-2.252,2.252v1.229a2.255,2.255,0,0,0,2.252,2.252h3.536A2.255,2.255,0,0,0,60.5,60.887V59.658A2.255,2.255,0,0,0,58.247,57.406Zm16.908-4.5H55.072v-2.99H75.155Zm.361-5.6H54.711a2.255,2.255,0,0,0-2.252,2.251v3.712a2.255,2.255,0,0,0,2.252,2.252h20.8a2.255,2.255,0,0,0,2.252-2.252V49.55A2.255,2.255,0,0,0,75.516,47.3Zm4.178,29.588V46.815a2.81,2.81,0,0,0-2.806-2.807H53.341a2.81,2.81,0,0,0-2.807,2.807V76.887a2.81,2.81,0,0,0,2.807,2.807H76.888A2.81,2.81,0,0,0,79.694,76.887ZM47.921,46.815a5.426,5.426,0,0,1,5.421-5.42h5.8V13.29H51.835a2.066,2.066,0,0,1-2.062-2.062V3.92H4.125a.208.208,0,0,0-.206.205V76.063a.208.208,0,0,0,.206.2h43.8ZM57.3,10.677h-4.91V5.767ZM76.888,41.395H61.756V12.61a2.758,2.758,0,0,0-.824-1.993L52.446,2.132a2.765,2.765,0,0,0-1.993-.826H4.125A2.822,2.822,0,0,0,1.306,4.125V76.063a2.821,2.821,0,0,0,2.819,2.817H48.3a5.428,5.428,0,0,0,5.039,3.426H76.888a5.424,5.424,0,0,0,5.418-5.42V46.815A5.424,5.424,0,0,0,76.888,41.395ZM13.243,49.007l1.479-.569a1.3,1.3,0,0,0,.8-.917,10.6,10.6,0,0,1,1.29-3.112,1.3,1.3,0,0,0,.081-1.215l-.644-1.451,1.408-1.408,1.45.644a1.309,1.309,0,0,0,1.217-.081,10.606,10.606,0,0,1,3.111-1.29,1.307,1.307,0,0,0,.918-.8l.57-1.481h1.991l.569,1.481a1.3,1.3,0,0,0,.916.8,10.645,10.645,0,0,1,3.113,1.29,1.3,1.3,0,0,0,1.214.081l1.45-.644,1.408,1.408-.643,1.45a1.308,1.308,0,0,0,.081,1.215,10.61,10.61,0,0,1,1.29,3.113,1.306,1.306,0,0,0,.8.917l1.479.569V51l-1.479.57a1.306,1.306,0,0,0-.8.917,10.618,10.618,0,0,1-1.29,3.112,1.3,1.3,0,0,0-.081,1.215l.643,1.451L34.18,59.672l-1.45-.644a1.3,1.3,0,0,0-1.214.081A10.61,10.61,0,0,1,28.4,60.4a1.307,1.307,0,0,0-.917.8l-.568,1.479H24.926l-.57-1.48a1.308,1.308,0,0,0-.918-.8,10.566,10.566,0,0,1-3.111-1.29,1.309,1.309,0,0,0-1.217-.081l-1.45.644-1.408-1.409.644-1.45a1.305,1.305,0,0,0-.081-1.215,10.592,10.592,0,0,1-1.29-3.113,1.307,1.307,0,0,0-.8-.916L13.243,51V49.007Zm-.08,4.76-1.7-.652a1.308,1.308,0,0,1-.838-1.22V48.11a1.307,1.307,0,0,1,.838-1.219l1.7-.653a13.172,13.172,0,0,1,1.076-2.593l-.74-1.662a1.308,1.308,0,0,1,.27-1.454l2.677-2.676a1.306,1.306,0,0,1,1.453-.27l1.663.738a13.289,13.289,0,0,1,2.593-1.075l.653-1.7a1.307,1.307,0,0,1,1.219-.837h3.785a1.307,1.307,0,0,1,1.22.837l.651,1.7a13.275,13.275,0,0,1,2.594,1.075l1.662-.738a1.3,1.3,0,0,1,1.453.27l2.677,2.676a1.308,1.308,0,0,1,.271,1.454L37.6,43.645a13.289,13.289,0,0,1,1.075,2.594l1.7.653a1.308,1.308,0,0,1,.836,1.219V51.9a1.307,1.307,0,0,1-.836,1.219l-1.7.653A13.3,13.3,0,0,1,37.6,56.361l.738,1.662a1.308,1.308,0,0,1-.271,1.454l-2.677,2.676a1.3,1.3,0,0,1-1.453.27l-1.661-.737a13.258,13.258,0,0,1-2.6,1.075l-.651,1.7a1.307,1.307,0,0,1-1.22.837H24.028a1.307,1.307,0,0,1-1.219-.837l-.653-1.7a13.2,13.2,0,0,1-2.593-1.075l-1.663.738a1.306,1.306,0,0,1-1.453-.27L13.77,59.477a1.308,1.308,0,0,1-.27-1.454l.738-1.661a13.152,13.152,0,0,1-1.075-2.594ZM10.222,59.4a1.306,1.306,0,1,1-2.241,1.344,20.908,20.908,0,0,1,28.81-28.6,1.306,1.306,0,0,1,2.554-.5l.993,3.478a1.307,1.307,0,0,1-1.21,1.664l-3.615.13h-.047a1.306,1.306,0,0,1-.144-2.6A18.3,18.3,0,0,0,10.222,59.4ZM44,39.491a20.909,20.909,0,0,1-28.949,28.37,1.306,1.306,0,0,1-.939,1.4,1.288,1.288,0,0,1-.359.051,1.307,1.307,0,0,1-1.256-.949L11.5,64.888a1.305,1.305,0,0,1,1.208-1.664l3.614-.131a1.306,1.306,0,0,1,.2,2.6A18.3,18.3,0,0,0,41.74,40.807,1.307,1.307,0,0,1,44,39.491ZM26.943,52.025c.016-.019.029-.033.019-.118-.013-.1-.051-.417-1.254-.615-2.691-.442-3.168-2.025-3.212-2.928a3.035,3.035,0,0,1,2.112-3.022,1.307,1.307,0,0,1,2.612-.015,3.515,3.515,0,0,1,2.062,1.965A1.306,1.306,0,1,1,26.872,48.3a1.052,1.052,0,0,0-1.227-.547c-.131.03-.555.152-.538.482.013.288.789.437,1.025.476,2.592.426,3.292,1.8,3.423,2.878a2.689,2.689,0,0,1-.637,2.141,3.534,3.534,0,0,1-1.7,1.034,1.306,1.306,0,0,1-2.608-.024,3.418,3.418,0,0,1-2.32-2.421,1.307,1.307,0,0,1,2.536-.632c.162.649,1.053.647,1.154.644a1.5,1.5,0,0,0,.964-.309Zm-1.029-8.037a6.042,6.042,0,1,1-6.042,6.043,6.05,6.05,0,0,1,6.042-6.043Zm0,14.7a8.655,8.655,0,1,1,8.656-8.655A8.665,8.665,0,0,1,25.913,58.685Z" fill-rule="evenodd"/>
      </g>
    </g>
  </g>
</svg>
