<svg xmlns="http://www.w3.org/2000/svg" xmlns:xlink="http://www.w3.org/1999/xlink" width="274" height="242" viewBox="0 0 274 242">
  <defs>
    <clipPath id="clip-path">
      <path id="Rectangle_412938" data-name="Rectangle 412938" d="M0,0H259a15,15,0,0,1,15,15V227a15,15,0,0,1-15,15H0a0,0,0,0,1,0,0V0A0,0,0,0,1,0,0Z" transform="translate(1041.051 11850.087)" fill="#fff" stroke="#707070" stroke-width="1"/>
    </clipPath>
  </defs>
  <g id="Mask_Group_1099375" data-name="Mask Group 1099375" transform="translate(-1041.051 -11850.087)" clip-path="url(#clip-path)">
    <g id="_6761535_130" data-name="6761535_130" transform="translate(1057.051 11850.087)">
      <rect id="Rectangle_412939" data-name="Rectangle 412939" width="271" height="242" transform="translate(-13)" fill="#6999cc"/>
      <path id="Path_1278440" data-name="Path 1278440" d="M227.2,79.246,185.666,63.07l2.155-5.534c.234-.607.385-1,.385-1a2.736,2.736,0,0,0-1.552-3.551L181,50.788l0,0a6.8,6.8,0,0,0,1.718-2.531c.068-.17.128-.346.181-.52.075-.154.145-.311.211-.477a6.889,6.889,0,0,0-3.8-8.87.231.231,0,0,0-.067-.022l0,0,0,0c-.042-.015-.084-.024-.126-.038s-.093-.035-.138-.047a.355.355,0,0,0-.078-.023,1.684,1.684,0,0,0-.255-.073h-.008c-.078-.02-.157-.035-.236-.052s-.174-.042-.259-.058c-.054-.01-.106-.016-.16-.025l-.11-.017L177.731,38c-.1-.009-.2-.021-.291-.027-.031,0-.061,0-.093,0q-.322-.02-.642-.008h-.081a6.8,6.8,0,0,0-.751.077l-.033,0-.175.034c-.014,0-.031,0-.045.005-.071.01-.141.028-.211.045l-.044.011c-.061.014-.121.031-.181.047s-.106.025-.157.041a.561.561,0,0,0-.1.03.249.249,0,0,0-.046.016l-.04.008a.06.06,0,0,1-.023.008.668.668,0,0,0-.085.03h0l-.1.033-.146.052a.677.677,0,0,0-.082.026.654.654,0,0,1-.083.037c-.039.015-.081.033-.122.052a.229.229,0,0,0-.034.019,6.959,6.959,0,0,0-.847.446c-.026.015-.055.027-.08.043a.123.123,0,0,0-.046.033c-.047.027-.093.06-.14.087a.272.272,0,0,0-.048.037l-.006,0c-.041.028-.08.057-.12.086s-.069.047-.1.073c-.067.048-.131.1-.194.15-.033.026-.062.055-.094.082s-.081.07-.121.105q-.162.143-.315.3c-.051.051-.1.1-.151.154l-.017.017c-.053.052-.1.111-.155.169s-.084.105-.127.157-.085.1-.125.155c-.019.025-.041.047-.059.073-.063.086-.124.167-.184.256-.02.03-.038.063-.058.093-.046.071-.089.144-.133.216s-.078.12-.114.185l-.066.13c-.048.09-.093.18-.137.272-.014.028-.03.056-.043.086-.032.066-.065.131-.091.2s-.057.136-.086.2c-.031.09-.063.18-.091.265-.012.033-.021.067-.033.1-.017.052-.038.1-.054.157l0,0v0l0,.016a.406.406,0,0,0-.024.05,2.388,2.388,0,0,0-.125.289,1.17,1.17,0,0,0-.052.111c-.037.1-.068.188-.1.288-.022.067-.045.127-.064.19-.03.1-.053.192-.076.287-.02.074-.041.148-.059.217-.019.1-.037.185-.052.286-.014.073-.028.145-.04.224s-.024.182-.034.275-.018.157-.02.238-.012.173-.016.257,0,.179,0,.266,0,.153.006.226c0,.094.008.187.016.279l-5.648-2.2a2.459,2.459,0,0,0-.465-.133l-.04,0a2.682,2.682,0,0,0-.391-.042l-.032,0h-.23c-.017,0-.034.006-.051.007a2.765,2.765,0,0,0-.358.05c-.012,0-.024,0-.036,0a.006.006,0,0,0,0,0l-.047.013a.726.726,0,0,0-.091.022.565.565,0,0,0-.066.021,2.745,2.745,0,0,0-.517.219l-.008,0a1.252,1.252,0,0,0-.109.066l-.035.024a2.762,2.762,0,0,0-.4.313c-.02.019-.042.038-.062.058a2.672,2.672,0,0,0-.223.255.678.678,0,0,0-.057.07l-.027.04c-.008.012-.015.026-.023.038-.023.035-.045.071-.067.107a.438.438,0,0,0-.031.052c-.009.014-.017.031-.026.046s-.024.04-.035.06l0,0v0c-.027.053-.05.109-.074.164-.014.033-.03.064-.044.1a.287.287,0,0,1-.016.042l-.008.021-.354.908a.083.083,0,0,1-.009.017l-.065.172-.087.224-.012.03-.1.257c-.02.056-.041.112-.064.173l-.167.43-.03.077-.082.211-.012.025c-.095.246-.194.5-.294.758l-.708,1.817c-.023.059-.047.118-.071.175-.046.121-.09.237-.135.347-.015.048-.037.1-.053.139l-.015.041-.149.382-.111.279L116.395,36.086a3.915,3.915,0,0,0-4.981,2.409L106.47,51.183,79.986,18.933,51.6,42.276,47.57,40.2l-4.243,8.253L36.006,62.695,27.842,78.589l1.4.721,2.226,1.145h0l-.113.6-1.473,7.757-8.773,1.681,1.139,5.92,4.233,21.97,2.38,12.374-8.95,1.436a5.408,5.408,0,0,0-4.477,6.194l11.074,69.026a5.389,5.389,0,0,0,2.016,3.4,5.411,5.411,0,0,0,5.147,2.055l67.164-10.785,68.172,26.555a3.916,3.916,0,0,0,4.983-2.413l3.85-9.884,31.374-80.544,20.024-51.4A3.922,3.922,0,0,0,227.2,79.246Zm-54.437-35.89.1-.168c.046-.068.085-.135.133-.2.058-.095.119-.177.182-.262.015-.014.029-.033.043-.047a2.129,2.129,0,0,1,.165-.193.693.693,0,0,0,.073-.074l.061-.064c.05-.048.1-.1.154-.141a2.921,2.921,0,0,1,.252-.21c.036-.028.069-.059.1-.083.132-.092.268-.181.409-.261a3.689,3.689,0,0,1,.365-.186q.188-.083.379-.147c.1-.033.191-.058.287-.08a1.863,1.863,0,0,1,.23-.055,2.4,2.4,0,0,1,.31-.053,2.742,2.742,0,0,1,.366-.033.1.1,0,0,1,.035,0,4.224,4.224,0,0,1,1.666.265l0,0a.122.122,0,0,1,.066.015,4.322,4.322,0,0,1,2.619,5.093,4.326,4.326,0,0,1-5.377,1.984.329.329,0,0,1-.061-.03l0,0v0c-.078-.032-.152-.071-.228-.106-.055-.028-.115-.047-.167-.08l-.016-.011c-.072-.035-.136-.078-.2-.117a4.253,4.253,0,0,1-.443-.305l-.014-.011-.015-.011a4.318,4.318,0,0,1-1.029-1.206c-.028-.047-.055-.094-.08-.143s-.043-.087-.064-.131c-.041-.082-.081-.165-.114-.25a4.336,4.336,0,0,1-.2-.616.315.315,0,0,1-.007-.038,3.038,3.038,0,0,1-.069-.357c0-.021-.008-.041-.011-.061-.007-.046-.01-.094-.015-.142-.006-.064-.011-.128-.015-.193s-.007-.124-.007-.186,0-.136,0-.205.006-.153.015-.229.016-.153.028-.232a.56.56,0,0,1,.021-.144c0-.009,0-.019.005-.029.017-.09.038-.179.06-.268C172.764,43.358,172.764,43.358,172.765,43.356Z" fill="#d1d3d4"/>
      <g id="Group_1209411" data-name="Group 1209411">
        <g id="Group_1209393" data-name="Group 1209393">
          <g id="Group_1209368" data-name="Group 1209368">
            <path id="Path_1278441" data-name="Path 1278441" d="M28.215,118.695l.771-.376,1.043-.5.83-.4,1.619-.786,8.689-4.212,1.109-.54,3.358-1.627,2.134-1.039,1.247-.6,2.922-1.418,15.784-7.656,1.95-.945.658-.321,2.5-1.213,1.217-.588.086-.044,1.225-.592,3.284-1.594.384-.186,4.813-2.335.752-.364.449-.215.588-.286,1.026-.5,2.076-1.005,11.35-5.506,3.376-1.639,2.726-1.322,1.1-.533,2.245-1.089.521-.254,3.417-1.655,1.794-.872.73-.354.218-.105,1.138-.554,1.491-.723.022-.009.014.03,1.505,3.093.337.7,1.633,3.357.228.473.472.972.4.821.977,2.012.612,1.26,1.316,2.707.246.511.557,1.141.093.2.575,1.179.79,1.628.48.983.109.226.2.419.253.515.451.932.34.7.667,1.372,1.134,2.331.109.226,5.333,10.975-2.372,1.15L125,119.656l-.478.234-2.826,1.372-1.372.667-2.1,1.018-1.614.785-3.348,1.629-1.109.54L80.5,141.275l-33.423,16.24L45.1,153.444,33.574,129.718l-.381-.784-1.008-2.073-.291-.6-.214-.443-2.074-4.267-1.014-2.092Z" fill="#e4e1c5"/>
            <g id="Group_1209363" data-name="Group 1209363">
              <path id="Path_1278442" data-name="Path 1278442" d="M32.169,121.728l1.267,2.608.511,1.044.505,1.045,1.011,2.075.377.776L46.86,151.958l1.251,2.581,32.053-15.577,2.119-1.03.661-.319,4.073-1.982.58-.282L108.485,125.2l1.106-.536,0,0,3.348-1.629,1.612-.782.6-.288.075-.036.577-.284.306-.147.206-.1.661-.319.061-.031,2.659-1.29,1.141-.557,1.372-.667,2.825-1.372.478-.235.618-.3,8.215-3.991.1-.047-1.6-3.3-.964-1.987-1.525-3.136-.109-.226-.158-.325-.308-.634-.667-1.372-.495-1.018-.314-.648-.2-.408-.009-.016-.336-.693-.123-.255-.344-.7-.831-1.711-.081-.166-.818-1.687-.01-.022-.395-.814-.336-.693-2.265-4.659-.345-.709-.264-.548L121.34,85.6l-.979-2.008-.4-.828-1.345-2.772-.649-1.335L117.7,78.1l-.105.05-.883.43-.433.207-.515.253-3.2,1.553-1.128.546-.22.108-.881.427-2.588,1.26-.129.063-2.777,1.346-.6.293L92.321,90.421l-1.931.939-2.073,1.008-2.059,1-.752.364-1.681.817-2.336,1.135-3.3,1.6-.3.142,0,0-1.324.641-.9.436-2.5,1.219-.655.318-1.348.654,0,0-1.461.709-.113.055-16.349,7.943-3.376,1.639-3.354,1.63-1.106.536-10.991,5.342L32.3,119.584l-.951.463Zm8.786-3.857,8.134-3.953,1.106-.536,0,0,3.352-1.626,3.376-1.639,10.486-5.1,4.213-2.047,3.115-1.515.263-.127.655-.318,2.5-1.216.5-.241,1.676-.816.347-.168,2.651-1.286,3.636-1.769.752-.364.663-.322,1.394-.677,2.075-1.011.887-.428,1.681-.817L99,89.669l0,0,.376-.182,5.734-2.783.349-.171.234-.113,2.232-1.085.935-.454,1.1-.532,1.045-.505,0,0,.3-.145,1.407-.682,1.311-.636,1.1-.535.876-.426.2-.1.467-.227.16.331.4.819.4.824.976,2.012.612,1.259.392.811.217.446.059.121,0,0,3.061,6.306.825,1.692.08.161,0,.008.033.073.244.5.577,1.19.329.682.073.151.662,1.359.565,1.157.152.32.339.7.252.524.262.537.031.061.24.491.31.645.34.7,0,0,0,0,.205.427.112.228,2.3,4.734.579,1.186-.559.272-4.861,2.361-.481.232-.473.228-.317.154-2.033.986-1.375.67-1.144.555-1.471.716-.926.45-1.485.722-3.021,1.467,0,0-.5.244-.151.073-.027.011-.889.431-2.489,1.211-3.348,1.629-1.109.54-8.279,4.025-1.99.967-6.631,3.22-.606.3-4.243,2.061-.687.335-2.4,1.167L55.92,148.255l0,0-6.771,3.284-.529-1.082-2.758-5.686v-.006l-7.744-15.926-.378-.782-.181-.37v-.006l-.829-1.7-.505-1.045-.508-1.042-1.37-2.814,2.124-1.031,4.482-2.176Z" fill="#567d3d"/>
            </g>
            <g id="Group_1209367" data-name="Group 1209367">
              <path id="Path_1278443" data-name="Path 1278443" d="M40.64,116.781l-7.789,3.785,3.784,7.789A9.9,9.9,0,0,0,40.64,116.781Z" fill="#567d3d"/>
              <path id="Path_1278444" data-name="Path 1278444" d="M120.867,87.429l-3.785-7.789-7.791,3.784A9.9,9.9,0,0,0,120.867,87.429Z" fill="#567d3d"/>
              <path id="Path_1278445" data-name="Path 1278445" d="M125.092,115.944l7.791-3.785-3.784-7.789A9.9,9.9,0,0,0,125.092,115.944Z" fill="#567d3d"/>
              <path id="Path_1278446" data-name="Path 1278446" d="M44.77,145.1l3.859,7.941,7.94-3.859A9.9,9.9,0,0,0,44.77,145.1Z" fill="#567d3d"/>
              <path id="Path_1278447" data-name="Path 1278447" d="M83.581,113.141c-4.2.3-5.168-.15-5.661-1.21-.474-1.016-.174-2.6,2.23-3.724a10.062,10.062,0,0,1,4.909-.953l.849.033-.151-4.243-.738-.026a13,13,0,0,0-5.049.874l-1.537-3.3-3.8,1.768,1.618,3.479c-3.092,2.313-4.2,5.674-2.824,8.632,1.708,3.67,5.673,3.811,9.7,3.415,3.129-.275,4.667.18,5.315,1.57.707,1.519-.34,3.3-2.546,4.323a11.354,11.354,0,0,1-5.625.983l-.915-.087.233,4.24.649.085a13.307,13.307,0,0,0,6.1-.939l1.579,3.389,3.8-1.767-1.68-3.6c3.712-2.719,4.187-6.5,2.984-9.078C91.548,113.851,88.725,112.7,83.581,113.141Z" fill="#567d3d"/>
              <g id="Group_1209366" data-name="Group 1209366">
                <g id="Group_1209364" data-name="Group 1209364">
                  <path id="Path_1278448" data-name="Path 1278448" d="M64.307,125.336a4.934,4.934,0,1,1-6.592-2.286A4.934,4.934,0,0,1,64.307,125.336Z" fill="#567d3d"/>
                </g>
                <g id="Group_1209365" data-name="Group 1209365">
                  <path id="Path_1278449" data-name="Path 1278449" d="M110.669,102.851a4.933,4.933,0,1,1-6.592-2.286A4.933,4.933,0,0,1,110.669,102.851Z" fill="#567d3d"/>
                </g>
              </g>
            </g>
          </g>
          <path id="Path_1278450" data-name="Path 1278450" d="M127.027,111.727l-.094.019-2.378.457-11.766,2.265-.416.081-8.318,1.6L93.428,118.2l-2.606.5-2.527.484-2.907.559-4.749.916-17.3,3.33-8,1.539L42.7,127.96l-4.588.883-1.916.366-.357.07-.776.151-1.136.22-.353.067L31.9,126.26l.272-4.531.132-2.144.178-2.96,1.461-24.254.05-.854,44.652,2.718,5.183.317,4.557.276,35.812,2.182.492,2.562.221,1.133.22,1.136,1.044,5.427.181.933.483,2.511.146.779Z" fill="#d1d3d4"/>
          <g id="Group_1209374" data-name="Group 1209374">
            <path id="Path_1278451" data-name="Path 1278451" d="M126.745,110.927l-.094.019-14.144,2.723-32.149,6.189L28.85,129.772l-1.03.2-2.789-14.5L20.8,93.5l-1.139-5.92,9.222-1.767,51.455-9.863,22.531-4.319,14-2.687,1.731-.333,2.923,15.194,1.744,9.07,3.283,17.033.147.779Z" fill="#e4e1c5"/>
            <g id="Group_1209369" data-name="Group 1209369">
              <path id="Path_1278452" data-name="Path 1278452" d="M83.786,78.248c.079.085.152.171.226.258.135.154.269.308.395.461l.392-.31,3.117.59s0,0,.009,0c.055.029.111.053.166.082l.127-.025,2.776-.533-1.667-1.108L87.1,77.241l-3.587.692C83.6,78.033,83.694,78.139,83.786,78.248ZM22.958,92.928l2.082,10.822v.006l.217,1.13.749,3.9.15.775,3.425,17.8,2.6-.5,2.266-.435,1.138-.222,1.136-.218,2.854-.552,34.844-6.707,1.945-.374,2.209-.425,3.714-.716,1.553-.3,4.413-.85.558-.109.91-.173,2.238-.43,3.649-.7.888-.169,2.979-.574.561-.106.363-.072,1.331-.255.068-.012.839-.164.775-.15.527-.1,1.187-.227,1.195-.231.62-.12.569-.111.124-.022,6.388-1.232,0,0,0,0,1.967-.378.178-.034.144-.028,1.268-.244.1-.02.95-.18.479-.095,2.5-.479.643-.123.1-.02.677-.129.781-.151.034-.006,0-.017-.2-1.023-.189-.986-.155-.809-.48-2.506-.055-.282-.081-.414-.073-.369-.106-.556L122,99.617l-.259-1.353-.129-.656-.148-.764-.559-2.908-.086-.463-1.1-5.717-.036-.189-.082-.42-.148-.764-.227-1.187-.364-1.894V83.3l-.15-.775-.532-2.756-.211-1.111-.325-1.682-.292-1.51-.317-1.652-.432-2.249-2.863.551-4.033.775-3.57.689-8.522,1.641-5.07.973-3.5.673h-.006L88.327,77l-1.228.237-3.587.692-1.257.242-1.113.214-1.228.237-1.716.331-.792.152-1.113.214-.07.015-1.305.248-.907.175L68.085,80.9l-15.844,3.05-3.568.685-3.542.684L44.2,85.5,32.635,87.723l-2.37.456-1.905.367-.448.087-5.574,1.075Zm14.321-3.818,10.151-1.954.924-.179h.006L51.9,86.3l3.568-.685,15.585-3,1.316-.255,2.649-.508.614-.119.907-.175,2.485-.479.087-.018.767-.145.287-.056,1.367-.264.722-.137,2.883-.557,2.954-.567.127-.025,2.776-.533,1.181-.226.879-.17L95,78l1.263-.243,11.253-2.166,1.854-.358,3.568-.685,0,0,1.888-.363.284,1.48.152.806.384,1.987.112.575.216,1.139.219,1.141.02.1,0,0,.125.654.152.771.363,1.9.459,2.367.165.865,1.15,5.989.529,2.733.2,1.029.125.654.358,1.875.4,2.079.1.516.006.034.5,2.612.18.915.174.9.022.124-.8.154-2.77.532-.025.007-.4.076-1.511.292-1.432.272s-.006,0-.011,0l-.346.069h-.006l-.527.1-2.035.389-.019.006-5.321,1.025-1.31.254-.417.078-.781.151-1.824.349-.662.13-.3.059-.6.117-.758.147-1.051.2-1.128.214-.924.179-4.58.882-.992.19-1.378.266-4.143.8-2.858.55-5.963,1.149-1.516.293-4.405.846h-.006l-1.952.378-27.712,5.328-2,.386-3.041.585-1.136.218-1.141.219-1.44.277-.637.122-1.33-6.919-.091-.47-1.414-7.336-.15-.775-.45-2.351-.612-3.179-.918-4.789-.045-.225-.175-.908V97.78l-1.044-5.428-.166-.871L27.46,91l.454-.088,1.9-.365,2.357-.451.017,0Z" fill="#567d3d"/>
            </g>
            <g id="Group_1209373" data-name="Group 1209373">
              <path id="Path_1278453" data-name="Path 1278453" d="M32.154,88.958l-8.5,1.636,1.636,8.5A9.9,9.9,0,0,0,32.154,88.958Z" fill="#567d3d"/>
              <path id="Path_1278454" data-name="Path 1278454" d="M117.248,81.4l-1.637-8.5-8.505,1.636A9.9,9.9,0,0,0,117.248,81.4Z" fill="#567d3d"/>
              <path id="Path_1278455" data-name="Path 1278455" d="M113.938,110.035l8.505-1.636-1.636-8.5A9.9,9.9,0,0,0,113.938,110.035Z" fill="#567d3d"/>
              <path id="Path_1278456" data-name="Path 1278456" d="M28.8,117.378l1.67,8.67,8.668-1.669A9.9,9.9,0,0,0,28.8,117.378Z" fill="#567d3d"/>
              <path id="Path_1278457" data-name="Path 1278457" d="M74.572,96.57c-4.131-.8-4.952-1.484-5.155-2.636-.195-1.1.507-2.56,3.119-3.019a10.066,10.066,0,0,1,4.988.352l.811.252.954-4.137-.706-.216a13.008,13.008,0,0,0-5.1-.464l-.63-3.583-4.123.724.662,3.779c-3.586,1.433-5.53,4.391-4.965,7.605.7,3.987,4.492,5.151,8.479,5.811,3.093.545,4.461,1.383,4.726,2.894.289,1.65-1.182,3.094-3.58,3.515a11.355,11.355,0,0,1-5.687-.509l-.861-.321-.874,4.156.6.25a13.3,13.3,0,0,0,6.133.673l.647,3.683,4.124-.723-.688-3.917c4.29-1.664,5.727-5.189,5.235-7.995C82.082,99.321,79.655,97.475,74.572,96.57Z" fill="#567d3d"/>
              <g id="Group_1209372" data-name="Group 1209372">
                <g id="Group_1209370" data-name="Group 1209370">
                  <path id="Path_1278458" data-name="Path 1278458" d="M52.8,103.353a4.933,4.933,0,1,1-5.774-3.917A4.933,4.933,0,0,1,52.8,103.353Z" fill="#567d3d"/>
                </g>
                <g id="Group_1209371" data-name="Group 1209371">
                  <path id="Path_1278459" data-name="Path 1278459" d="M103.4,93.653a4.933,4.933,0,1,1-5.774-3.917A4.934,4.934,0,0,1,103.4,93.653Z" fill="#567d3d"/>
                </g>
              </g>
            </g>
          </g>
          <path id="Path_1278460" data-name="Path 1278460" d="M28.882,85.818l1.9-.365L33.152,85l7.342-1.409.93-.18,3.543-.678,3.574-.686L69.5,78.03l2.672-.512.905-.172,2.4-.459.09-.021L76.7,76.65l1.37-.262,2.26-.434.919.175.97.186,4.876.925,5.953,1.136,2.091.4,11.038,2.1,4.151.792,1.844.354,1.844.349,2.467.47,1.13.22,1.241.238,1.5.287,1.165.22.849.161,1.075.206,5.263,1,.515.1,1.169.222.633.123.416.079-.135.7-.179.96-.037.187-1.421,7.5-.021.1-.216,1.147-.031.142-.453,2.4-.113.59-.221,1.16-.32,1.69-.382,1.989-.226,1.2-.129.683-.072.371-.728,3.834-.066.341-.046.256-.166.885-.447,2.349-.274,1.435-.25,1.307L125,119.656l-1.594,8.38L112.15,125.9l-3.666-.7-3.687-.7L93.1,122.281l-4.642-.884-5.876-1.112-.151-.032-2.075-.393-5.935-1.134-5.96-1.127-19.375-3.681-3.684-.7-4.238-.8-8.341-1.586-4.3-.818-2.367-.45-1.724-.329.137-.717.687-3.63,1.137-5.968.049-.268v-.006l1.47-7.733.22-1.18,0,0,.226-1.181Z" fill="#d1d3d4"/>
          <g id="Group_1209380" data-name="Group 1209380">
            <path id="Path_1278461" data-name="Path 1278461" d="M131.166,84.9l-2.608,13.726-5.434,28.609-98.972-18.8L29.9,78.147l2.3-12.12Z" fill="#e4e1c5"/>
            <g id="Group_1209375" data-name="Group 1209375">
              <path id="Path_1278462" data-name="Path 1278462" d="M33.359,71.9l-.406,2.136-.219,1.151-.217,1.148-.437,2.278-.112.6L30.78,85.453l-.515,2.728-.228,1.184-.226,1.181-1.291,6.807-1.21,6.353-.56,2.955,1.172.224L33,107.85l12.627,2.4,4.232.8,3.684.7,20.613,3.917,2.18.412,5.949,1.128,1.3.246,2.073.4h.009l1.081.2.714.135.683.129.09.019,2.229.422,1.859.355.59.113.678.13,15.66,2.974,3.687.7,3.666.7,2.235.426,2.22.42.042-.228.486-2.546.1-.542.191-1.012.327-1.72.524-2.748.637-3.353.144-.747.026-.136.4-2.109.071-.377.479-2.521.256-1.344.152-.8v-.006l.283-1.488.01-.043.063-.337.035-.169.112-.6.364-1.922.271-1.437.125-.651.3-1.593.095-.509.226-1.181L127.249,92l.119-.606v-.006l.671-3.522.181-.964-3.8-.72-1.967-.377-.569-.108-.551-.105-1.5-.284,0,0-.614-.114-.63-.121-1.743-.329L111.3,83.691l-1.838-.35,0,0-1.617-.3-.228-.042-1.416-.272-2.744-.521L91.863,80a.013.013,0,0,1-.009,0L88.215,79.3l-.292-.057c-.006,0-.006,0-.009,0l-3.117-.59-.786-.151-1.756-.332-1.512-.285,0,0-1.7-.322-2.055-.393,0,0-1.385-.26-.123-.022,0,0-1.8-.341-1.485-.28,0,0-1.241-.238L38.13,69.793l-3.359-.641-.858-.162ZM69.5,78.03l0,0,3.663.7,1.244.235,1.786.338.1.02,1.53.293,1.084.2,2.359.449.988.189,3.726.706,14.1,2.68,4.16.793.7.131,1.747.331,1.238.236,1.308.25,2.539.481,2.771.525,2.766.526.973.183,0,0,1.395.267.136.026.319.061,2.211.419.214.041.557.1s0,0,0,0l2.48.474-.491,2.582,0,0-.282,1.494-.265,1.391-.144.747-.191,1.012,0,0-.1.527-.088.435v.006L124.02,97l-.114.614-.127.66-.759,3.986-.081.439-.021.114-.149.783-.075.389-.546,2.871,0,0-.106.566-.2,1.087,0,0-.216,1.133-.311,1.642,0,0-.026.15,0,0-.044.217-.063.337-.168.889-.132.7-.225,1.187,0,0-.424,2.232-.518,2.746-.229,1.208-.178.937-.013.061-.205-.04-1.69-.32-.266-.053-.307-.057-.494-.094-.141-.025-1.443-.276-1.618-.31-.4-.076-.078-.015-.659-.121,0,0-1.271-.239-.314-.062-2.382-.45-1.247-.237L96.427,117.62l-2.139-.408-.088-.017-.515-.1L93,116.966l0,0-3.6-.683-.7-.134-.434-.082-3.638-.689-2.314-.442-4.263-.81-4.4-.836-.657-.124-16.063-3.049-3.684-.7-3.286-.625-.94-.18-4.587-.87-7.654-1.455-3.63-.693-3.768-.716,1.407-7.39.883-4.662,0,0,.5-2.639.017-.087.45-2.368L33.153,85l0,0,.894-4.719.112-.6.162-.858,0,0,.269-1.419.219-1.151L35.03,75.1l.664-3.5,3.428.65,0,0,3.784.722Z" fill="#567d3d"/>
            </g>
            <g id="Group_1209379" data-name="Group 1209379">
              <path id="Path_1278463" data-name="Path 1278463" d="M43.312,71.916,34.8,70.3l-1.617,8.508A9.9,9.9,0,0,0,43.312,71.916Z" fill="#567d3d"/>
              <path id="Path_1278464" data-name="Path 1278464" d="M125.19,96.288l1.617-8.508L118.3,86.162A9.9,9.9,0,0,0,125.19,96.288Z" fill="#567d3d"/>
              <path id="Path_1278465" data-name="Path 1278465" d="M111.549,121.681l8.509,1.618,1.617-8.508A9.9,9.9,0,0,0,111.549,121.681Z" fill="#567d3d"/>
              <path id="Path_1278466" data-name="Path 1278466" d="M29.712,97.095l-1.647,8.674,8.673,1.647A9.9,9.9,0,0,0,29.712,97.095Z" fill="#567d3d"/>
              <path id="Path_1278467" data-name="Path 1278467" d="M79.929,94.641c-3.546-2.266-4.055-3.206-3.818-4.352.227-1.1,1.416-2.193,4.013-1.655A10.062,10.062,0,0,1,84.63,90.8l.661.533L87.7,87.843l-.576-.461a13.006,13.006,0,0,0-4.571-2.314l.737-3.562-4.1-.849-.779,3.757c-3.862.009-6.76,2.041-7.421,5.237-.822,3.963,2.274,6.444,5.737,8.53,2.673,1.648,3.635,2.932,3.325,4.433-.34,1.64-2.24,2.44-4.624,1.946a11.351,11.351,0,0,1-5.1-2.571l-.682-.616-2.345,3.54.469.455a13.3,13.3,0,0,0,5.452,2.889l-.757,3.662,4.1.85.805-3.895c4.6.036,7.237-2.71,7.816-5.5C85.895,99.969,84.32,97.359,79.929,94.641Z" fill="#567d3d"/>
              <g id="Group_1209378" data-name="Group 1209378">
                <g id="Group_1209376" data-name="Group 1209376">
                  <path id="Path_1278468" data-name="Path 1278468" d="M57.186,92.912a4.933,4.933,0,1,1-3.922-5.77A4.934,4.934,0,0,1,57.186,92.912Z" fill="#567d3d"/>
                </g>
                <g id="Group_1209377" data-name="Group 1209377">
                  <path id="Path_1278469" data-name="Path 1278469" d="M107.8,102.566a4.933,4.933,0,1,1-3.922-5.771A4.934,4.934,0,0,1,107.8,102.566Z" fill="#567d3d"/>
                </g>
              </g>
            </g>
          </g>
          <path id="Path_1278470" data-name="Path 1278470" d="M131.166,84.9l-2.608,13.726-2.1,4.09-1.965,3.824-3.1,6.025-.526,1.02-.619,1.21-3.439,6.693-.541,1.048-3.558-1.829-.647-.33-.1-.055-8.606-4.426-19.347-9.945-4.467-2.295L57.269,92.214l-7.982-4.1L34.047,80.278,31.969,79.21,29.9,78.147l2.3-12.12Z" fill="#d1d3d4"/>
          <g id="Group_1209386" data-name="Group 1209386">
            <path id="Path_1278471" data-name="Path 1278471" d="M46.118,37.3l4.034,2.073.237.122,1.92.988,1.085.56,1.081.557,3.9,2.007,0,0,14.631,7.533,5.064,2.6L91.7,60.766l4.646,2.395.733.377,5.087,2.621,4.488,2.309,3.452,1.778,3.628,1.868,1.616.834.3.149,0,0,1.379.712,1.807.929.036.02,1.008.52,1.938,1,0,0,5.029,2.59,0,0,3.858,1.984,1.82.938,3.148,1.619-.7,1.36-.4.787-.856,1.661-.556,1.087-.559,1.085-2.954,5.751,0,0-.349.672-.1.2-.244.473-.763,1.487-.32.623-.116.221-.88,1.718,0,0-.4.768-.311.6-.25.489-.277.535-.224.438-.094.182-.429.829v.006l-.6,1.168,0,0-.835,1.625-1.144,2.226-.055.105-.87,1.7-.113.223,0,0-.166.32-.142.272-.484.95-.97,1.887-1.695,3.3-1.079,2.1-.563,1.1-.065.128-.124.24-.182-.093-1.072-.55-1.421-.731,0,0-.98-.5-.652-.335-.24-.124-2.185-1.125-4.359-2.238-.068-.038-1.206-.62-.176-.089-.371-.192-2.667-1.371-.592-.307-1.525-.78-.522-.268-.586-.3-3.148-1.619-.617-.315-7.543-3.877-1.533-.79-1.615-.828-1.974-1.017-.886-.454-.3-.151-3.01-1.547-.9-.461L73.17,99.73l-2.841-1.463,0,0-5.9-3.033L60.31,93.121,57.252,91.55l-7.418-3.814-1.475-.759h-.005l-3.222-1.656-3.708-1.909-7.264-3.73-2.08-1.071-2.066-1.062-2.227-1.144-1.4-.721L34.553,59.79l7.322-14.239Z" fill="#e4e1c5"/>
            <g id="Group_1209381" data-name="Group 1209381">
              <path id="Path_1278472" data-name="Path 1278472" d="M45.655,43.071l-.285.554-.011.022-.4.784L43.942,46.4,33.706,66.314l-2.465,4.795,0,0-1.856,3.612,1.065.545,0,0,2.066,1.061,1.037.536,1.039.532,2.025,1.043,0,0,8.346,4.288,3.707,1.9L51.9,86.3l1.91.981,0,0,1.481.759.007,0,9.187,4.721,1.347.695,7,3.6,2.84,1.457,2.492,1.282,1.4.721,2.968,1.522,0,0,1.894.975.758.389.6.306,5.294,2.722,4.008,2.06.623.319,3.8,1.954.015.006.534.277.663.342.607.308,0,0,1.427.736,1.187.612,2.38,1.223.835.428,1.206.62,0,0,.358.182.957.495,1.19.608,2.441,1.255.237.122.087.046,1.123.576.944-1.836.355-.688.141-.278.283-.55.856-1.661,0,0,.482-.946,1.295-2.518.268-.521.355-.688.681-1.322.457-.889.151-.291.75-1.462,0,0,.188-.374.718-1.395.192-.371.059-.112.224-.438,1.393-2.707.093-.182.456-.895.075-.141.328-.642.877-1.705.176-.342.58-1.12.687-1.343,2.8-5.447,0,0,.238-.458.445-.873.671-1.3.306-.6-1.385-.711-5.023-2.586-5.163-2.654-.227-.115-2.85-1.464-1.383-.715-.266-.137-.883-.452-2.172-1.116,0,0-1.616-.828-1.616-.834-3.634-1.866,0,0-9.909-5.09-.237-.122L91.01,63.281,58.036,46.332,52.3,43.384l-1.081-.558-1.087-.556-1.916-.986-.24-.124-1.062-.543Zm11.552,5.357L89.145,64.846l2.07,1.064L95,67.857l1.971,1.014,5.518,2.834,3.64,1.871,1.618.831,1.615.829,4.1,2.111,2.178,1.115.627.322.521.268,0,0,1.379.712.438.224,2.412,1.24,0,0,1.32.676.295.152.007,0,3.743,1.923,0,0,2.315,1.187.56.29-1.233,2.4L126.6,90.664l-.546,1.065,0,0-.148.288,0,0-.742,1.443-.369.723-.375.724-.456.895-.079.148-.015.029,0,0-.5.975-.329.637-.337.656-.7,1.363-.9,1.765,0,0-.479.928-.276.54-.02.035-.72,1.4-1.973,3.842-.013.026-.283.55-.192.371-.194.375-.622,1.21-.1.2-1.191,2.313v.009l-.242.465-.242.47,0,0-.746,1.455-1.036-.53-.816-.42-.371-.192-.841-.433-.143-.071-2.825-1.451-.247-.129-.333-.169-2.051-1.056-.841-.433-1.558-.8-.726-.372-.554-.285-2.071-1.07-1.644-.844,0,0-.2-.1-.637-.329-.978-.5-3.16-1.622-7.476-3.845-4.6-2.362L78.188,97.29l-2.834-1.458-3.538-1.819,0,0L71.4,93.8l0,0-1.867-.956-4.143-2.13-9.92-5.1L52.24,83.953l-3.7-1.9-9.315-4.786-.131-.067L35.027,75.1l-1.036-.53,0,0-1.037-.536-.547-.281.953-1.855,1.412-2.748,1.072-2.088v-.006l.156-.307,8.527-16.586,0,0,1.5-2.915.482-.931.4-.784.972-1.9.611.316,2.518,1.295,0,0,2.511,1.29.886.454,0,0Z" fill="#567d3d"/>
            </g>
            <g id="Group_1209385" data-name="Group 1209385">
              <path id="Path_1278473" data-name="Path 1278473" d="M55.1,46.086l-7.7-3.959-3.96,7.7A9.9,9.9,0,0,0,55.1,46.086Z" fill="#567d3d"/>
              <path id="Path_1278474" data-name="Path 1278474" d="M126.731,92.641l3.959-7.7-7.7-3.96A9.9,9.9,0,0,0,126.731,92.641Z" fill="#567d3d"/>
              <path id="Path_1278475" data-name="Path 1278475" d="M106.458,113.135l7.7,3.96,3.959-7.7A9.9,9.9,0,0,0,106.458,113.135Z" fill="#567d3d"/>
              <path id="Path_1278476" data-name="Path 1278476" d="M34.93,66.385l-4.036,7.853,7.852,4.035A9.9,9.9,0,0,0,34.93,66.385Z" fill="#567d3d"/>
              <path id="Path_1278477" data-name="Path 1278477" d="M83.787,78.249c-2.759-3.176-2.982-4.223-2.43-5.255.529-.989,1.979-1.7,4.317-.451A10.065,10.065,0,0,1,89.382,75.9l.483.7,3.3-2.667-.422-.605a13,13,0,0,0-3.729-3.514L90.733,66.6l-3.691-1.975L85.23,68.01c-3.706-1.085-7.061.044-8.6,2.921-1.91,3.569.357,6.825,3.087,9.8,2.1,2.337,2.657,3.841,1.934,5.193-.79,1.477-2.84,1.706-4.986.558a11.346,11.346,0,0,1-4.161-3.91l-.48-.784-3.252,2.731.321.57A13.31,13.31,0,0,0,73.5,89.408l-1.763,3.3,3.692,1.976,1.875-3.508c4.4,1.337,7.709-.55,9.053-3.062C88,85.048,87.228,82.1,83.787,78.249Z" fill="#567d3d"/>
              <g id="Group_1209384" data-name="Group 1209384">
                <g id="Group_1209382" data-name="Group 1209382">
                  <path id="Path_1278478" data-name="Path 1278478" d="M62.464,70.151a4.933,4.933,0,1,1-2.128-6.644A4.934,4.934,0,0,1,62.464,70.151Z" fill="#567d3d"/>
                </g>
                <g id="Group_1209383" data-name="Group 1209383">
                  <path id="Path_1278479" data-name="Path 1278479" d="M108.273,93.74a4.933,4.933,0,1,1-2.128-6.645A4.933,4.933,0,0,1,108.273,93.74Z" fill="#567d3d"/>
                </g>
              </g>
            </g>
          </g>
          <path id="Path_1278480" data-name="Path 1278480" d="M44.725,44.153l.63-.514.015-.015,2.846-2.339,2.173-1.791,1.92.988,1.085.56,1.081.557,3.9,2.007,0,0,14.631,7.533,5.064,2.6L91.7,60.766l4.646,2.395.733.377,5.087,2.621,4.488,2.309,3.452,1.778,3.628,1.868,1.616.834.3.149,0,0,1.379.712,1.807.929.036.02,1.008.52,1.938,1,0,0,5.029,2.59,0,0,3.858,1.984,3.865,4.7,7.26,8.843.155.189-4.115,3.381L135.7,99.765l-.6.5-2.741,2.254-1,.824-.534.442-.467.381-.974.8-.807.668-1.086.888-.514.427-.752.618-.112.09-.346.287,0,0-1.822,1.5-1.127.924-.507.417-1.078.884-.122.1-.39.321,0,0-1.35,1.109,0,0-3.164,2.6-.627.517-.423.348-.013.011-.836.687-.018.012-.734.605-1.873,1.54-.27.222-.219.178-.489.405-1.985,1.63-1.958-2.379-1.937-2.36-.813-.988,0,0-.051-.061-.6-.737-.277-.333-1.337-1.626-.839-1.022-.779-.945-.247-.3-.352-.431-.011-.013-2.53-3.075-.418-.513-.643-.78-2.11-2.566-6.839-8.319L86.3,94.7l-.794-.966-1.665-2.02-.6-.737-.957-1.165-.6-.733,0,0-1.6-1.957-2.213-2.693-2.221-2.7-.406-.495-1.215-1.475-.847-1.032-.994-1.21-1.23-1.5L68.4,72.93l0,0-5.83-7.088,0,0-1.6-1.947-.006,0L49.6,50.076l-3.09-3.761-.778-.939-.773-.946Z" fill="#d1d3d4"/>
          <g id="Group_1209392" data-name="Group 1209392">
            <path id="Path_1278481" data-name="Path 1278481" d="M45.2,43.447l.458-.377,2.321-1.91,2.176-1.788L78.534,16.029l28.845,35.126L132.537,81.8l2.45,2.979,7.482,9.113-.626.517-6.411,5.269-.6.5-2.576,2.118-1.187.975-.54.444-.275.228-.974.8-.81.665-.9.742,0,0-.515.422-.877.717-.038.033-.072.059-2.048,1.685-.168.14-.031.023-1.119.92-.1.085-1.2.99-.084.07,0,0-1.089.892L118.86,113.3l-2.377,1.954-.986.81-2.183,1.8-1.876,1.538-.249.207-.237.2-.566.465-1.2.987L108,119.818l-2.18-2.649-.931-1.131-.034-.044-.605-.733-1.611-1.962-1.312-1.6,0,0-.3-.367-.529-.645-.354-.428-2.4-2.925,0,0-.133-.163-.418-.507L87.719,95.15l-.317-.381-1.146-1.4-1.665-2.02-.619-.757-.539-.652-.063-.079L80.844,86.8l-2.336-2.844-1.97-2.4L75.7,80.546l-.787-.961-.51-.622-1.333-1.618-.891-1.083,0,0-2.542-3.093L50.421,49.8l-3.51-4.27-.776-.942-.776-.943,0-.008Z" fill="#e4e1c5"/>
            <g id="Group_1209387" data-name="Group 1209387">
              <path id="Path_1278482" data-name="Path 1278482" d="M82.556,85.068A13.037,13.037,0,0,1,86.8,87.134l.288.218-.255-.308-3.747-4.555ZM86.281,89.9l.373.451,1.662,2.017,1.461,1.782,2.075-1.011-1.463-1.778L88.73,89.346l-.979-1.19-.144-.176-.279.4ZM93.5,95.14l-.256-.314c.021.1.047.2.076.3Zm-45-51.189,3.95,4.8L73.056,73.816l0,0,.47.574,2.036,2.474,0,0,.03.041,1.807,2.2.417.507,1.2,1.46.067.082,2.856,3.473,3.717,4.52.081.1.536.655.373.451,1.662,2.017,1.461,1.782.661.8,4.907,5.967.831,1.006L98.95,105.3l.421.509,2.547,3.1.354.428.462.563.777.948,1.621,1.969,1.193,1.45.417.507.606.739,1.958,2.379,1.567-1.289.9-.74.983-.812.925-.758,0,0,1.034-.85.306-.251.013-.011L117,111.567l.657-.54.135-.114.844-.692.746-.616.986-.81,1.124-.921.545-.45.186-.152,1.077-.89.991-.816,0,0,.452-.367.754-.62.015-.014,0,0,.113-.09,1.644-1.349.061-.051.446-.366.079-.063.438-.362.815-.672,2-1.648.749-.614.631-.524,2.541-2.088,3.883-3.192-5.2-6.319-1.744-2.12-1.078-1.309-4.046-4.92,0,0-8.2-9.975-.21-.252-13-15.807-27.5-33.443L52.31,40.483l-2.176,1.788-.943.776,0,0-.856.7ZM71.97,27.209l5.669-4.66L82.3,28.22l21.537,26.189,12.107,14.718,3.592,4.372,0,0,2.28,2.775,0,0,4.056,4.927,1.789,2.182,0,0,.824,1,.731.886.791.963.725.882.122.151.173.206.056.069,1.515,1.845,3.159,3.84-3.192,2.627-2.467,2.026-.033.026-.369.306-.675.557-.079.063-.517.425-.329.27-.025.022,0,0-1.2.983,0,0-.548.448-.93.765-.253.2,0,0-.109.092-.318.262-.635.521-1.261,1.038-.13.107-.724.592-.227.188-.894.735-.425.351-2.772,2.277-.038.033-.341.281-.637.525-.7.574-.176.144,0,0-.494.407-1.231,1.01,0,0-3.442,2.833-.161.13-.813.669-.359-.441,0,0-1.488-1.806-.122-.151-.287-.346-1.334-1.623-.388-.471-.736-.9-.743-.9-.357-.43-.895-1.091-1.588-1.931-.077-.094-.422-.515L98.1,100.744l-.089-.107-1.175-1.426-3.149-3.832,0,0-.192-.234-.256-.314-1.389-1.686-1.463-1.778-1.659-2.015-.979-1.19-.144-.176-.51-.622,0-.008-.255-.308L83.092,82.49l-1.016-1.236-.543-.66-.267-.326-1.352-1.64-.872-1.06-.968-1.177-1.528-1.863-.044-.051-.576-.7L56.267,49.873,54.15,47.3l-.624-.756-1.793-2.184,0,0-.244-.3.815-.672L54.475,41.6,57.3,39.278ZM87.327,88.385,86.28,89.9l.373.451,1.662,2.017,1.461,1.782.661.8,2.879.175.18.013-.256-.314L91.851,93.14l-1.463-1.778-1.659-2.015-.979-1.19-.144-.176Zm-4.771-3.316A13.037,13.037,0,0,1,86.8,87.134l.288.218-.255-.308-3.747-4.555Z" fill="#567d3d"/>
            </g>
            <g id="Group_1209391" data-name="Group 1209391">
              <path id="Path_1278483" data-name="Path 1278483" d="M83.3,27.662l-5.5-6.689-6.689,5.5A9.9,9.9,0,0,0,83.3,27.662Z" fill="#567d3d"/>
              <path id="Path_1278484" data-name="Path 1278484" d="M130.589,98.806l6.689-5.5-5.5-6.69A9.9,9.9,0,0,0,130.589,98.806Z" fill="#567d3d"/>
              <path id="Path_1278485" data-name="Path 1278485" d="M103.851,109.579l5.5,6.69,6.689-5.5A9.9,9.9,0,0,0,103.851,109.579Z" fill="#567d3d"/>
              <path id="Path_1278486" data-name="Path 1278486" d="M56.728,38.3l-6.819,5.609,5.608,6.818A9.9,9.9,0,0,0,56.728,38.3Z" fill="#567d3d"/>
              <path id="Path_1278487" data-name="Path 1278487" d="M96.874,68.563c-1.273-4.01-1.063-5.059-.147-5.788.877-.7,2.492-.778,4.142,1.3a10.073,10.073,0,0,1,2.074,4.55l.166.833,4.091-1.139-.147-.723a13,13,0,0,0-2.029-4.7l2.846-2.265-2.606-3.277-3,2.387c-2.972-2.466-6.5-2.76-9.053-.728-3.169,2.519-2.379,6.407-1.054,10.225,1,2.977.916,4.58-.284,5.535-1.311,1.043-3.283.44-4.8-1.466a11.35,11.35,0,0,1-2.27-5.24l-.13-.91L80.6,68.37l.069.65a13.312,13.312,0,0,0,2.338,5.709l-2.926,2.328,2.605,3.278L85.8,77.859c3.511,2.973,7.295,2.552,9.525.78C98.045,76.475,98.507,73.461,96.874,68.563Z" fill="#567d3d"/>
              <g id="Group_1209390" data-name="Group 1209390">
                <g id="Group_1209388" data-name="Group 1209388">
                  <path id="Path_1278488" data-name="Path 1278488" d="M80.51,52.673a4.933,4.933,0,1,1,.682-6.943A4.933,4.933,0,0,1,80.51,52.673Z" fill="#567d3d"/>
                </g>
                <g id="Group_1209389" data-name="Group 1209389">
                  <path id="Path_1278489" data-name="Path 1278489" d="M113.209,92.494a4.933,4.933,0,1,1,.682-6.943A4.933,4.933,0,0,1,113.209,92.494Z" fill="#567d3d"/>
                </g>
              </g>
            </g>
          </g>
        </g>
        <g id="Group_1209410" data-name="Group 1209410">
          <g id="Group_1209399" data-name="Group 1209399">
            <path id="Path_1278490" data-name="Path 1278490" d="M106.487,91.64a10.909,10.909,0,0,0-1.929,1.026,10.634,10.634,0,1,0-17.117,3.827,10.821,10.821,0,0,0-1.114.293,10.636,10.636,0,1,0,10.508,2.339,10.6,10.6,0,0,0,3.719-1.546,10.857,10.857,0,1,0,5.932-5.939Z" fill="#d1d3d4"/>
            <g id="Group_1209394" data-name="Group 1209394">
              <path id="Path_1278491" data-name="Path 1278491" d="M99.1,96.936a10.859,10.859,0,1,1,5.823,14.211A10.86,10.86,0,0,1,99.1,96.936Z" fill="#fcc707"/>
              <path id="Path_1278492" data-name="Path 1278492" d="M99.577,97.134a10.344,10.344,0,1,1,5.547,13.538A10.345,10.345,0,0,1,99.577,97.134Z" fill="#ffef08"/>
              <path id="Path_1278493" data-name="Path 1278493" d="M101.065,96.69a9.2,9.2,0,1,1,3.614,12.493A9.2,9.2,0,0,1,101.065,96.69Z" fill="#fcc707"/>
              <path id="Path_1278494" data-name="Path 1278494" d="M107.935,101.892c1.448,1.378,1.6,1.863,1.386,2.376-.206.492-.859.893-2.022.407a4.779,4.779,0,0,1-1.9-1.421l-.26-.308-1.442,1.41.227.268a6.178,6.178,0,0,0,1.921,1.494l-.667,1.594,1.835.768.7-1.681a3.323,3.323,0,0,0,3.936-1.768c.743-1.774-.475-3.211-1.9-4.5-1.1-1.011-1.429-1.7-1.148-2.369.307-.734,1.266-.934,2.332-.487a5.4,5.4,0,0,1,2.145,1.662l.262.349,1.415-1.437L114.576,98a6.313,6.313,0,0,0-2.28-1.842l.686-1.639-1.835-.768-.729,1.742a3.5,3.5,0,0,0-4.144,1.854C105.637,98.866,106.134,100.227,107.935,101.892Z" fill="#fff33a"/>
            </g>
            <g id="Group_1209395" data-name="Group 1209395">
              <path id="Path_1278495" data-name="Path 1278495" d="M98.659,107.668a9.813,9.813,0,0,1-.181,1.02,10.5,10.5,0,0,1-.909,2.511,10.627,10.627,0,0,1-12.461,5.347,10.584,10.584,0,0,1-4.515-2.671A10.642,10.642,0,0,1,84.1,96.5q.272-.107.541-.2a10.017,10.017,0,0,1,1.1-.316l.105-.024.113-.023c.21-.043.419-.082.628-.113.062-.009.121-.014.179-.022a11.245,11.245,0,0,1,1.176-.085,10.35,10.35,0,0,1,1.127.044A10.086,10.086,0,0,1,91,96.119a10.476,10.476,0,0,1,1.949.765c.207.108.41.219.6.338.069.037.137.078.205.124a9.913,9.913,0,0,1,1.1.793c.167.136.329.279.486.425h0c.037.033.069.066.106.1a10.539,10.539,0,0,1,3.249,8.43C98.7,107.289,98.682,107.479,98.659,107.668Z" fill="#fcc707"/>
              <path id="Path_1278496" data-name="Path 1278496" d="M97.119,110.969a10.13,10.13,0,1,1-4.394-13.636A10.13,10.13,0,0,1,97.119,110.969Z" fill="#ffef08"/>
              <path id="Path_1278497" data-name="Path 1278497" d="M95.807,111.405a9.215,9.215,0,1,1-2.645-12.761A9.214,9.214,0,0,1,95.807,111.405Z" fill="#fcc707"/>
              <path id="Path_1278498" data-name="Path 1278498" d="M89.117,110.206a3.452,3.452,0,0,1-3.658-3.615l2.828,1.45,1.172-.907L85.8,105.257c.011-.025.023-.049.035-.073.026-.051.054-.1.082-.151l3.822,1.959,1.172-.908L86.837,104a3.453,3.453,0,0,1,5,.928l.166.266,1.142-.883L93,104.088a4.882,4.882,0,0,0-4.979-2.133,4.943,4.943,0,0,0-2.556,1.338l-1.036-.531-1.173.907,1.385.71c-.028.05-.055.1-.081.151-.012.024-.025.048-.036.072l-.824-.422-1.173.907,1.572.806a4.929,4.929,0,0,0,.369,2.905,4.883,4.883,0,0,0,4.649,2.842l.261-.012.051-1.442Z" fill="#fff33a"/>
            </g>
            <g id="Group_1209396" data-name="Group 1209396">
              <path id="Path_1278499" data-name="Path 1278499" d="M103.676,89.977c-.048.284-.108.567-.18.845-.055.21-.114.415-.18.62-.074.228-.155.451-.248.672s-.176.42-.271.624c-.056.116-.11.227-.169.339a0,0,0,0,1,0,0,10.675,10.675,0,0,1-2.143,2.826c-.181.169-.369.334-.561.494-.273.219-.557.429-.851.621-.1.065-.192.127-.294.188a10.6,10.6,0,0,1-2.31,1.063c-.32.1-.637.19-.957.26-.051.014-.1.024-.151.034h0c-.21.043-.42.082-.628.113a10.271,10.271,0,0,1-1.355.107c-.176,0-.356,0-.531-.005a10.127,10.127,0,0,1-1.561-.172,10.6,10.6,0,0,1-3.735-1.456c-.091-.057-.178-.112-.265-.172-.158-.106-.316-.22-.473-.333-.123-.093-.246-.191-.364-.291-.167-.136-.325-.274-.483-.421-.029-.028-.062-.057-.091-.089a.754.754,0,0,1-.084-.08,9.929,9.929,0,0,1-.866-.948q-.2-.246-.389-.515a10.591,10.591,0,0,1-1.189-2.182q-.14-.349-.255-.707a10.633,10.633,0,0,1,20.241-6.522A10.492,10.492,0,0,1,103.676,89.977Z" fill="#fcc707"/>
              <path id="Path_1278500" data-name="Path 1278500" d="M102.844,85.043a10.13,10.13,0,1,1-12.75-6.535A10.13,10.13,0,0,1,102.844,85.043Z" fill="#ffef08"/>
              <path id="Path_1278501" data-name="Path 1278501" d="M102.225,86.28a9.215,9.215,0,1,1-10.893-7.153A9.214,9.214,0,0,1,102.225,86.28Z" fill="#fcc707"/>
              <path id="Path_1278502" data-name="Path 1278502" d="M96.646,90.163a3.452,3.452,0,0,1-5.143.03l3.024-.975.187-1.47L90.8,89.009c-.009-.025-.018-.051-.026-.076-.018-.055-.033-.109-.048-.165l4.087-1.317L95,85.98l-4.357,1.4a3.452,3.452,0,0,1,4.189-2.876l.306.07.182-1.432-.256-.054A4.885,4.885,0,0,0,90.037,85.1a4.94,4.94,0,0,0-.861,2.753l-1.108.357-.188,1.471,1.482-.477c.016.056.032.11.05.165.008.026.016.051.026.076l-.881.284L88.367,91.2l1.681-.542a4.929,4.929,0,0,0,2.315,1.794,4.835,4.835,0,0,0,3.2.069,4.889,4.889,0,0,0,2.1-1.346l.177-.193-.984-1.056Z" fill="#fff33a"/>
            </g>
            <g id="Group_1209398" data-name="Group 1209398">
              <path id="Path_1278503" data-name="Path 1278503" d="M95.542,87.207a10.859,10.859,0,1,0,11.683,9.967A10.86,10.86,0,0,0,95.542,87.207Z" fill="#d1d3d4"/>
              <g id="Group_1209397" data-name="Group 1209397">
                <path id="Path_1278504" data-name="Path 1278504" d="M94.056,86.649a10.859,10.859,0,1,1-9.968,11.683A10.86,10.86,0,0,1,94.056,86.649Z" fill="#fcc707"/>
                <path id="Path_1278505" data-name="Path 1278505" d="M94.1,87.162A10.344,10.344,0,1,1,84.6,98.29,10.345,10.345,0,0,1,94.1,87.162Z" fill="#ffef08"/>
                <path id="Path_1278506" data-name="Path 1278506" d="M95.173,88.282a9.2,9.2,0,1,1-9.452,8.932A9.2,9.2,0,0,1,95.173,88.282Z" fill="#fcc707"/>
                <path id="Path_1278507" data-name="Path 1278507" d="M93.694,96.77c-.562,1.918-.924,2.276-1.478,2.319-.531.042-1.188-.355-1.287-1.611a4.791,4.791,0,0,1,.391-2.343l.155-.373-1.914-.636-.134.324a6.176,6.176,0,0,0-.449,2.392l-1.723.136.157,1.983,1.816-.144a3.323,3.323,0,0,0,3.373,2.69c1.917-.152,2.637-1.893,3.129-3.749.4-1.438.855-2.047,1.581-2.1.793-.062,1.409.7,1.5,1.85a5.4,5.4,0,0,1-.5,2.667l-.191.393,1.925.6.146-.274a6.316,6.316,0,0,0,.594-2.87l1.771-.14-.157-1.983-1.883.149a3.5,3.5,0,0,0-3.546-2.835C95.333,93.342,94.35,94.408,93.694,96.77Z" fill="#fff33a"/>
              </g>
            </g>
          </g>
          <g id="Group_1209401" data-name="Group 1209401">
            <path id="Path_1278508" data-name="Path 1278508" d="M70.829,138.132a8.469,8.469,0,0,1-11.394,3.694,8.507,8.507,0,0,1-3.214-2.867,8.393,8.393,0,0,1-1.115-2.484s0-.009-.006-.013a8.469,8.469,0,0,1,12.035-9.724c.1.049.2.1.291.155,0,0,.008,0,.012.005a8.362,8.362,0,0,1,2.155,1.727A8.47,8.47,0,0,1,70.829,138.132Z" fill="#d1d3d4"/>
            <g id="Group_1209400" data-name="Group 1209400">
              <path id="Path_1278509" data-name="Path 1278509" d="M70.068,137.153a8.464,8.464,0,0,1-11.394,3.694c-.131-.065-.261-.135-.387-.208a8.475,8.475,0,1,1,11.781-3.486Z" fill="#fcc707"/>
              <path id="Path_1278510" data-name="Path 1278510" d="M69.712,136.972a8.069,8.069,0,1,1-3.517-10.856A8.069,8.069,0,0,1,69.712,136.972Z" fill="#ffef08"/>
              <path id="Path_1278511" data-name="Path 1278511" d="M68.528,137.229a7.173,7.173,0,1,1-2.075-9.93A7.172,7.172,0,0,1,68.528,137.229Z" fill="#fcc707"/>
              <path id="Path_1278512" data-name="Path 1278512" d="M63.491,132.78c-1.045-1.157-1.135-1.543-.938-1.929.189-.371.721-.645,1.6-.2a3.734,3.734,0,0,1,1.4,1.217l.184.255,1.2-1.012-.16-.221a4.8,4.8,0,0,0-1.407-1.275l.613-1.2-1.382-.706-.646,1.266a2.593,2.593,0,0,0-3.166,1.143c-.682,1.336.181,2.526,1.213,3.61.793.851,1.012,1.4.753,1.91-.282.553-1.04.651-1.843.242a4.205,4.205,0,0,1-1.57-1.419l-.183-.287-1.185,1.034.123.209a4.931,4.931,0,0,0,1.665,1.567l-.63,1.234,1.382.705.67-1.312a2.729,2.729,0,0,0,3.332-1.2C65.1,135.268,64.793,134.18,63.491,132.78Z" fill="#fff33a"/>
            </g>
          </g>
          <g id="Group_1209403" data-name="Group 1209403">
            <path id="Path_1278513" data-name="Path 1278513" d="M65.175,59.3a8.472,8.472,0,0,1-14.511.97c-.028-.04-.055-.081-.079-.121a8.422,8.422,0,0,1-1.136-2.507v0a8.465,8.465,0,0,1,12.032-9.732c.1.049.2.1.291.155,0,0,.008,0,.012.006A8.468,8.468,0,0,1,65.175,59.3Z" fill="#d1d3d4"/>
            <g id="Group_1209402" data-name="Group 1209402">
              <path id="Path_1278514" data-name="Path 1278514" d="M64.415,58.322A8.477,8.477,0,0,1,50.7,60.275a1.5,1.5,0,0,1-.111-.124,8.47,8.47,0,1,1,13.829-1.829Z" fill="#fcc707"/>
              <path id="Path_1278515" data-name="Path 1278515" d="M64.057,58.141A8.069,8.069,0,1,1,60.54,47.285,8.069,8.069,0,0,1,64.057,58.141Z" fill="#ffef08"/>
              <path id="Path_1278516" data-name="Path 1278516" d="M62.873,58.4a7.173,7.173,0,1,1-2.075-9.93A7.172,7.172,0,0,1,62.873,58.4Z" fill="#fcc707"/>
              <path id="Path_1278517" data-name="Path 1278517" d="M57.836,53.949c-1.045-1.157-1.135-1.543-.938-1.929.189-.37.721-.645,1.6-.2a3.734,3.734,0,0,1,1.4,1.217l.184.255,1.2-1.012-.161-.221a4.8,4.8,0,0,0-1.407-1.275l.613-1.2-1.382-.706L58.3,50.146a2.592,2.592,0,0,0-3.165,1.143c-.682,1.336.181,2.526,1.213,3.61.794.851,1.012,1.4.753,1.91-.282.553-1.04.651-1.843.242a4.205,4.205,0,0,1-1.57-1.419l-.183-.287L52.318,56.38l.123.209a4.931,4.931,0,0,0,1.665,1.567l-.63,1.234,1.382.706.67-1.312a2.729,2.729,0,0,0,3.332-1.2C59.444,56.438,59.138,55.35,57.836,53.949Z" fill="#fff33a"/>
            </g>
          </g>
          <g id="Group_1209405" data-name="Group 1209405">
            <path id="Path_1278518" data-name="Path 1278518" d="M52.778,105.559a9.193,9.193,0,1,1-6.519-13.222,9.063,9.063,0,0,1,2.514.852c.1.054.207.108.306.166a9.016,9.016,0,0,1,2.341,1.87A9.188,9.188,0,0,1,52.778,105.559Z" fill="#d1d3d4"/>
            <g id="Group_1209404" data-name="Group 1209404">
              <path id="Path_1278519" data-name="Path 1278519" d="M46.6,109.063a8.971,8.971,0,0,1-2.51.44,9.192,9.192,0,1,1,7.328-14.28,9.094,9.094,0,0,1,1.094,2.26A9.2,9.2,0,0,1,46.6,109.063Z" fill="#fcc707"/>
              <path id="Path_1278520" data-name="Path 1278520" d="M52.1,97.618a8.758,8.758,0,1,1-11.031-5.632A8.758,8.758,0,0,1,52.1,97.618Z" fill="#ffef08"/>
              <path id="Path_1278521" data-name="Path 1278521" d="M51.388,98.724A7.785,7.785,0,1,1,42.175,92.7,7.785,7.785,0,0,1,51.388,98.724Z" fill="#fcc707"/>
              <path id="Path_1278522" data-name="Path 1278522" d="M44.107,99.175c-1.69-.086-2.056-.314-2.2-.761-.139-.43.059-1.048,1.074-1.377a4.054,4.054,0,0,1,2.006-.138l.337.054.148-1.7-.293-.047a5.233,5.233,0,0,0-2.058.1l-.451-1.392-1.6.519.475,1.467a2.813,2.813,0,0,0-1.552,3.307c.5,1.549,2.077,1.8,3.7,1.84,1.262.044,1.854.3,2.044.888.208.64-.3,1.3-1.228,1.6a4.567,4.567,0,0,1-2.294.116l-.361-.08-.116,1.7.255.066a5.348,5.348,0,0,0,2.48-.075l.464,1.431,1.6-.519-.493-1.521a2.961,2.961,0,0,0,1.637-3.477C47.251,99.85,46.181,99.25,44.107,99.175Z" fill="#fff33a"/>
            </g>
          </g>
          <g id="Group_1209407" data-name="Group 1209407">
            <path id="Path_1278523" data-name="Path 1278523" d="M77.745,92.555a9.194,9.194,0,0,1-12.37,4.008,8.207,8.207,0,0,1-.732-.42,9.215,9.215,0,0,1-3.974-5.409A9.193,9.193,0,0,1,73.736,80.189c.112.055.219.113.326.176a.021.021,0,0,1,.015.01A9.057,9.057,0,0,1,76.4,82.234,9.191,9.191,0,0,1,77.745,92.555Z" fill="#d1d3d4"/>
            <g id="Group_1209406" data-name="Group 1209406">
              <path id="Path_1278524" data-name="Path 1278524" d="M71.566,96.059A9.193,9.193,0,1,1,65.9,78.568a7.533,7.533,0,0,1,.771-.21A9.2,9.2,0,0,1,76.4,82.235a9.07,9.07,0,0,1,1.079,2.246A9.189,9.189,0,0,1,71.566,96.059Z" fill="#fcc707"/>
              <path id="Path_1278525" data-name="Path 1278525" d="M77.065,84.614a8.758,8.758,0,1,1-11.031-5.632A8.758,8.758,0,0,1,77.065,84.614Z" fill="#ffef08"/>
              <path id="Path_1278526" data-name="Path 1278526" d="M76.354,85.721a7.785,7.785,0,1,1-9.212-6.028A7.785,7.785,0,0,1,76.354,85.721Z" fill="#fcc707"/>
              <path id="Path_1278527" data-name="Path 1278527" d="M69.073,86.171c-1.69-.086-2.056-.314-2.2-.761-.139-.429.059-1.048,1.074-1.377a4.054,4.054,0,0,1,2.006-.138l.337.054.148-1.7-.293-.047a5.224,5.224,0,0,0-2.058.1l-.451-1.392-1.6.519.475,1.467A2.813,2.813,0,0,0,64.957,86.2c.5,1.549,2.077,1.8,3.7,1.84,1.262.044,1.854.3,2.044.888.208.641-.3,1.3-1.228,1.6a4.568,4.568,0,0,1-2.294.116l-.361-.08-.116,1.7.255.066a5.348,5.348,0,0,0,2.481-.075l.464,1.431,1.6-.519-.493-1.521a2.961,2.961,0,0,0,1.637-3.477C72.218,86.847,71.148,86.247,69.073,86.171Z" fill="#fff33a"/>
            </g>
          </g>
          <g id="Group_1209409" data-name="Group 1209409">
            <path id="Path_1278528" data-name="Path 1278528" d="M94.7,64.44v0a9.2,9.2,0,0,1-15.849.908,9.333,9.333,0,0,1-1.226-2.731c-.03-.114-.057-.228-.084-.342a9.193,9.193,0,0,1,13.15-10.2c.107.054.219.113.321.175h0a9.036,9.036,0,0,1,2.329,1.864A9.191,9.191,0,0,1,94.7,64.44Z" fill="#d1d3d4"/>
            <g id="Group_1209408" data-name="Group 1209408">
              <path id="Path_1278529" data-name="Path 1278529" d="M93.352,64.27A9.188,9.188,0,0,1,77,62.21c-.022-.056-.043-.116-.06-.175A9.194,9.194,0,1,1,93.352,64.27Z" fill="#fcc707"/>
              <path id="Path_1278530" data-name="Path 1278530" d="M94.014,56.5a8.758,8.758,0,1,1-11.031-5.632A8.758,8.758,0,0,1,94.014,56.5Z" fill="#ffef08"/>
              <path id="Path_1278531" data-name="Path 1278531" d="M93.3,57.607a7.785,7.785,0,1,1-9.212-6.028A7.785,7.785,0,0,1,93.3,57.607Z" fill="#fcc707"/>
              <path id="Path_1278532" data-name="Path 1278532" d="M86.022,58.057c-1.69-.086-2.056-.314-2.2-.761-.139-.429.059-1.048,1.074-1.377a4.054,4.054,0,0,1,2.006-.138l.337.054.148-1.7-.293-.047a5.224,5.224,0,0,0-2.058.1L84.585,52.8l-1.6.519.475,1.467a2.813,2.813,0,0,0-1.552,3.307c.5,1.549,2.077,1.8,3.7,1.84,1.262.044,1.854.3,2.044.888.208.641-.3,1.3-1.228,1.6a4.567,4.567,0,0,1-2.294.116l-.361-.08-.116,1.7.255.066a5.346,5.346,0,0,0,2.48-.075l.464,1.431,1.6-.519-.493-1.521A2.961,2.961,0,0,0,89.6,60.062C89.167,58.732,88.1,58.133,86.022,58.057Z" fill="#fff33a"/>
            </g>
          </g>
        </g>
      </g>
      <g id="Group_1209434" data-name="Group 1209434">
        <g id="Group_1209415" data-name="Group 1209415">
          <path id="Path_1278533" data-name="Path 1278533" d="M227.79,81.491l-20.023,51.4-31.373,80.542-3.853,9.888a3.918,3.918,0,0,1-4.985,2.41L99.385,199.171,56.749,182.565a3.92,3.92,0,0,1-2.038-5.15l21.949-56.347,33.3-85.479a3.921,3.921,0,0,1,4.98-2.41l41.537,16.18h0l13.8,5.377h0l13.93,5.43,41.537,16.175A3.925,3.925,0,0,1,227.79,81.491Z" fill="#1a3857"/>
          <path id="Path_1278534" data-name="Path 1278534" d="M59.42,176.257,112.642,39.628A2.486,2.486,0,0,1,115.8,38.1L221.792,79.384a2.486,2.486,0,0,1,1.289,3.265L169.859,219.277a2.486,2.486,0,0,1-3.158,1.532L60.71,179.521A2.485,2.485,0,0,1,59.42,176.257Z" fill="#244e78"/>
          <rect id="Rectangle_412940" data-name="Rectangle 412940" width="133.839" height="104.157" transform="matrix(0.363, -0.932, 0.932, 0.363, 68.834, 177.314)" fill="#fff"/>
          <rect id="Rectangle_412941" data-name="Rectangle 412941" width="133.839" height="104.157" transform="matrix(0.363, -0.932, 0.932, 0.363, 68.726, 175.947)" fill="#d1d3d4"/>
          <rect id="Rectangle_412942" data-name="Rectangle 412942" width="133.839" height="104.157" transform="matrix(0.363, -0.932, 0.932, 0.363, 68.769, 174.996)" fill="#fff"/>
          <rect id="Rectangle_412943" data-name="Rectangle 412943" width="134.207" height="104.157" transform="matrix(0.363, -0.932, 0.932, 0.363, 67.699, 175.546)" fill="#d1d3d4"/>
          <g id="Group_1209412" data-name="Group 1209412">
            <rect id="Rectangle_412944" data-name="Rectangle 412944" width="104.157" height="133.839" transform="matrix(0.932, 0.363, -0.363, 0.932, 116.156, 50.396)" fill="#fff"/>
          </g>
          <path id="Path_1278535" data-name="Path 1278535" d="M199.548,71.869a15.828,15.828,0,0,0-4.022-2.449c-1.7-.726-3.63-1.549-5.445-2.386-.015-.01-.024-.01-.039-.019-3.809-1.767-7.091-3.611-6.655-4.729l.387-.992.44-1.128,2.154-5.537a2.735,2.735,0,0,0-1.554-3.548l-6.253-2.439a6.631,6.631,0,0,0,.987-.76v0a6.776,6.776,0,0,0,1.718-2.526c.068-.174.131-.348.184-.523a6.889,6.889,0,0,0-3.978-8.354.277.277,0,0,0-.068-.019v-.01a.384.384,0,0,1-.106-.029c-.165-.058-.329-.106-.489-.15a.053.053,0,0,1-.024,0c-.111-.029-.232-.048-.348-.068s-.194-.048-.3-.068a.236.236,0,0,1-.058,0l0,0c-.053,0-.106-.01-.16-.019a6.519,6.519,0,0,0-.968-.048c-.063,0-.131,0-.194,0a.366.366,0,0,1-.073,0,5.754,5.754,0,0,0-.581.058c-.1.019-.189.039-.281.053l-.106.015c-.048.015-.1.019-.15.034l-.053.015-.14.034c-.063.019-.126.034-.189.053a.827.827,0,0,0-.145.044,1.089,1.089,0,0,0-.116.039.648.648,0,0,0-.126.044c-.082.019-.155.053-.232.077s-.15.068-.218.1a6.286,6.286,0,0,0-.842.436c-.039.024-.082.044-.121.068s-.058.048-.087.068c-.16.1-.315.213-.46.324-.053.048-.111.087-.165.131a6.641,6.641,0,0,0-1.065,1.113c-.034.044-.068.092-.1.14-.111.16-.227.329-.329.508-.019.029-.048.063-.073.1l-.087.179c-.048.082-.087.169-.131.257,0,0-.01.01-.01.015s0,0,0,.01v0a.25.25,0,0,0-.029.063,2.626,2.626,0,0,0-.126.29.772.772,0,0,0-.048.111c-.039.1-.068.189-.1.286a1.793,1.793,0,0,0-.063.194,2.086,2.086,0,0,0-.077.286,1.811,1.811,0,0,0-.058.218c-.019.1-.039.184-.053.286-.015.073-.029.145-.044.223s-.024.184-.034.276-.015.155-.019.237-.01.174-.015.257,0,.179,0,.266,0,.155,0,.227a2.64,2.64,0,0,0,.019.276v0c0,.024,0,.053,0,.073,0,.048.01.092.015.136a4.59,4.59,0,0,0,.073.508c.029.165.073.344.111.508l-6.244-2.435a2.823,2.823,0,0,0-.508-.136c-.029,0-.048-.01-.068-.015a2.909,2.909,0,0,0-.455-.029h-.068a2.808,2.808,0,0,0-.5.063,2.684,2.684,0,0,0-.46.15c-.019.01-.048.019-.073.034a2.278,2.278,0,0,0-.411.227.294.294,0,0,1-.048.034,3.245,3.245,0,0,0-.339.29.314.314,0,0,1-.044.039,3.209,3.209,0,0,0-.3.378l-.048.077c-.073.131-.145.257-.208.4,0,0,0,.01,0,.015a.236.236,0,0,0-.015.034c-.077.2-.169.436-.266.682-.024.053-.044.111-.068.169l-.106.281c-.058.15-.121.3-.184.465-.077.2-.155.4-.237.61-.237.62-.489,1.263-.726,1.863-.029.087-.058.16-.087.237-.073.179-.14.358-.208.528-.019.053-.044.106-.058.155l-.116.286c-.034.087-.068.179-.1.261s-.063.169-.1.252-.073.189-.106.276l-.121.31s0,.01,0,.019h0a.426.426,0,0,0-.024.073c-.015.029-.024.058-.034.082q-.022.065-.044.116l0,0v0c0,.01,0,.015-.01.024s0,.015-.01.019l-.368.944-.01.015a1.014,1.014,0,0,1-.063.126.185.185,0,0,0-.044.044.452.452,0,0,1-.073.063.491.491,0,0,1-.063.044c-.024.019-.053.034-.082.053s-.053.019-.082.034-.063.024-.1.039-.063.015-.092.024a1.18,1.18,0,0,0-.126.029,1.022,1.022,0,0,0-.1.015l-.145.015a.791.791,0,0,1-.106.01c-.058,0-.116,0-.179,0a.711.711,0,0,1-.1,0c-.073,0-.15,0-.227,0-.024,0-.048,0-.077-.01a30.685,30.685,0,0,1-6.476-1.544s-.015,0-.019,0,0,0-.01,0c-1.888-.605-3.857-1.3-5.585-1.917a15.973,15.973,0,0,0-4.492-.905s-.019,0-.029,0h-.048a.131.131,0,0,0-.044,0s0,0-.01,0c-.068,0-.131,0-.194,0-.3-.01-.6-.015-.886,0q-.348.007-.7.029c-.542.039-1.084.1-1.617.194a.007.007,0,0,1-.01,0,0,0,0,0,1,0,0,12.1,12.1,0,0,0-1.379.31.032.032,0,0,0-.029,0,11.319,11.319,0,0,0-1.263.411h-.01c-.2.077-.4.155-.6.242-.044.015-.087.034-.126.048-.131.058-.257.111-.382.169l-.571.286c-.1.053-.2.1-.3.16-.015.01-.034.015-.058.029-.1.058-.2.116-.3.169a15.186,15.186,0,0,0-1.621,1.1s-.01,0-.015.01a.728.728,0,0,0-.15.116l-.01.01a14.946,14.946,0,0,0-1.36,1.244c-.319.329-.624.678-.915,1.036-.116.145-.227.3-.339.445l-.218.3c-.184.276-.363.547-.537.832a.042.042,0,0,1-.015.029l0,0c-.039.068-.077.136-.116.2s-.058.1-.087.155-.053.087-.073.131a.178.178,0,0,0-.039.073c-.019.029-.034.068-.053.092-.048.1-.1.2-.145.3a.163.163,0,0,0-.039.068c-.068.131-.126.261-.184.387q-.109.232-.2.465c-.034.087-.073.174-.111.261l-.494,1.258v0h0v0l-.392.992,40.656,15.836L203.169,90.9l.387-1,.6-1.554a10.53,10.53,0,0,0,.348-1.133c.053-.208.106-.416.16-.629a12,12,0,0,0,.223-1.234v0c.019-.126.029-.247.039-.373l0,0c.024-.184.039-.368.053-.547v0c.01-.15.019-.3.024-.445A15.02,15.02,0,0,0,199.548,71.869ZM170.794,42.292c0-.029,0-.058,0-.092.01-.106.024-.2.039-.3.01-.077.024-.15.034-.218s.024-.116.039-.179.039-.14.058-.213a.426.426,0,0,0,.024-.073c.029-.092.058-.179.092-.266a2.067,2.067,0,0,1,.092-.208,1.9,1.9,0,0,1,.077-.174.443.443,0,0,0,.034-.068c.01-.01.01-.019.015-.029l0,0s0-.01,0-.01c.034-.053.068-.116.1-.169.048-.068.087-.136.131-.2.063-.092.121-.174.184-.261.015-.01.029-.034.044-.044a1.58,1.58,0,0,1,.165-.194c.029-.024.048-.048.073-.073l.063-.068c.048-.044.1-.1.155-.14a2.5,2.5,0,0,1,.252-.208c.034-.029.068-.058.1-.082a4.465,4.465,0,0,1,.407-.261c.116-.068.242-.131.368-.189s.252-.1.378-.145c.1-.034.194-.058.29-.082a1.932,1.932,0,0,1,.227-.053,2.179,2.179,0,0,1,.31-.053,3.055,3.055,0,0,1,.368-.034h.034a4.232,4.232,0,0,1,1.665.266l0,0a.123.123,0,0,1,.068.015,4.321,4.321,0,0,1,2.618,5.092,3.662,3.662,0,0,1-.165.508,4.327,4.327,0,0,1-5.6,2.473c-.024-.015-.044-.019-.058-.029l0,0c-.121-.053-.237-.106-.348-.165-.019-.015-.039-.015-.053-.024l-.015-.01a3.913,3.913,0,0,1-.668-.445l-.063-.048c-.077-.068-.155-.14-.237-.213a.653.653,0,0,1-.058-.058,4.043,4.043,0,0,1-.711-.958h0c-.015-.024-.024-.044-.034-.063-.058-.116-.111-.227-.16-.344a3.609,3.609,0,0,1-.194-.586.626.626,0,0,1-.034-.1,4.415,4.415,0,0,1-.1-.624l-.015-.145v-.121a.973.973,0,0,0,0-.116C170.789,42.427,170.794,42.36,170.794,42.292Z" fill="#d1d3d4"/>
          <g id="Group_1209414" data-name="Group 1209414">
            <g id="Group_1209413" data-name="Group 1209413">
              <path id="Path_1278536" data-name="Path 1278536" d="M199.94,70.872h0l0,0a15.839,15.839,0,0,0-4.012-2.444c-5.295-2.246-12.787-5.474-12.144-7.129l.44-1.128,2.154-5.537c.232-.6.387-.992.387-.992a2.742,2.742,0,0,0-1.554-3.553l-5.653-2.2-.6-.232a6.853,6.853,0,0,0,2.5-2.822c.073-.155.145-.31.208-.474a6.888,6.888,0,0,0-3.795-8.872.291.291,0,0,0-.068-.024h0c-.044-.019-.087-.034-.131-.048s-.092-.029-.131-.039a.281.281,0,0,0-.077-.024,2.232,2.232,0,0,0-.257-.073c-.082-.019-.169-.044-.252-.063s-.165-.034-.252-.048l-.348-.058h-.024a.141.141,0,0,0-.044-.01c-.048,0-.1,0-.145-.015a7.229,7.229,0,0,0-1.166-.01c-.087,0-.174.015-.257.024-.2.024-.4.053-.6.1-.053.01-.1.019-.155.034s-.106.024-.16.039a2.783,2.783,0,0,0-.344.1c-.01,0-.015,0-.024.01h-.019a.037.037,0,0,1-.019,0,.082.082,0,0,1-.024.01c-.044.015-.092.029-.136.048-.068.019-.131.044-.194.068h0c-.029.01-.053.015-.077.024a.429.429,0,0,1-.082.039l-.126.053a.211.211,0,0,0-.034.019c-.029.015-.058.024-.087.039-.286.14-.571.286-.837.45l-.024.015a.048.048,0,0,0-.024.019c-.034.019-.068.044-.106.063a0,0,0,0,1,0,0l-.029.015a.422.422,0,0,0-.048.039,6.511,6.511,0,0,0-.784.634q-.174.16-.334.334c-.053.053-.1.111-.155.169-.1.111-.194.232-.286.353a5.5,5.5,0,0,0-.329.474,2.246,2.246,0,0,0-.121.2.723.723,0,0,0-.068.116l-.106.208c-.024.044-.048.082-.068.121-.073.145-.14.29-.2.445l-.044.1c-.029.092-.063.179-.092.266a1.922,1.922,0,0,0-.073.237s-.01.01-.01.015,0,0,0,.01v0c-.01.029-.015.058-.024.087-.029.1-.058.208-.082.31,0,.01,0,.024-.01.034a1.562,1.562,0,0,0-.029.16,6.049,6.049,0,0,0-.121.876,4.13,4.13,0,0,0-.015.426.165.165,0,0,0,0,.048v.019a.12.12,0,0,0,0,.039v.048a1.708,1.708,0,0,0,0,.223c0,.015,0,.029,0,.048v.044c.01.2.029.4.058.59a2.45,2.45,0,0,0,.044.261c.01.044.015.087.024.131l.029.131c.015.058.029.121.048.184a.171.171,0,0,0,.015.068l-.6-.227v0l-5.648-2.2c-.04-.015-.08-.021-.12-.034a2.694,2.694,0,0,0-.268-.076c-.026-.006-.051-.017-.077-.022a.107.107,0,0,0-.039,0,1.243,1.243,0,0,0-.194-.029c-.077-.01-.155-.01-.232-.015h-.232a.106.106,0,0,0-.039,0c-.068,0-.136.01-.2.019s-.136.024-.2.039a0,0,0,0,0,0,0c-.044.01-.087.019-.136.034s-.092.029-.136.044a1.511,1.511,0,0,0-.189.073c-.068.029-.136.063-.2.1-.024.01-.048.019-.068.029a2.615,2.615,0,0,0-.329.223,1.881,1.881,0,0,0-.257.223,2.322,2.322,0,0,0-.227.257.128.128,0,0,0-.024.029l-.015.015a.343.343,0,0,0-.034.044l-.029.039c-.01.019-.024.039-.034.063-.01,0-.015.01-.015.019a.078.078,0,0,0-.019.034,0,0,0,0,0,0,0c-.015.024-.034.048-.048.077a2.4,2.4,0,0,0-.179.373s-.145.368-.368.944c0,0,0,.01,0,.015a.236.236,0,0,0-.015.034c-.077.2-.169.436-.266.682-.024.053-.044.111-.068.169l-.106.281c-.058.15-.121.3-.184.465-.077.2-.155.4-.237.61-.237.62-.489,1.263-.726,1.863-.029.087-.058.16-.087.237-.073.179-.14.358-.208.528-.019.053-.044.106-.058.155l-.116.286c-.034.087-.068.179-.1.261h0c-.034.087-.068.169-.1.252s-.073.189-.106.276c-.019.053-.039.1-.053.15s-.044.111-.068.16c0,0,0,.01,0,.019l-.029.073c-.015.029-.024.058-.034.082q-.022.065-.044.116l0,0v0c0,.01,0,.015-.01.024s0,.015-.01.019-.01.015-.015.024-.01.015-.015.024a.417.417,0,0,1-.034.048.5.5,0,0,1-.087.087.314.314,0,0,1-.044.039.459.459,0,0,1-.082.048,1.46,1.46,0,0,1-.547.165c-.058.01-.121.015-.189.019h-.044a2.536,2.536,0,0,1-.276.01c-.106,0-.223,0-.344-.015a10.81,10.81,0,0,1-1.5-.2c-.121-.019-.247-.044-.373-.073-.1-.019-.194-.039-.3-.063-.155-.034-.3-.073-.46-.106h-.01c-.029,0-.063-.015-.092-.019s-.048-.015-.077-.024l-.058-.015c-.077-.019-.16-.039-.237-.063a.786.786,0,0,1-.092-.019c-.431-.111-.881-.232-1.341-.368l-.407-.116c-.048-.015-.1-.029-.15-.048-.1-.029-.2-.058-.3-.092-.184-.053-.358-.106-.537-.165h0a.172.172,0,0,1-.053-.015c-.252-.082-.5-.16-.755-.242-.092-.029-.179-.058-.271-.092-.126-.039-.252-.082-.378-.121-.194-.063-.387-.131-.581-.194-.247-.077-.489-.165-.731-.247-.8-.271-1.592-.552-2.352-.818-.174-.063-.344-.126-.518-.184s-.334-.121-.5-.179h0c-.136-.044-.276-.092-.411-.136-.048-.019-.092-.034-.14-.053a.9.9,0,0,1-.106-.034c-.048-.015-.1-.024-.15-.039s-.106-.034-.16-.048c-.087-.029-.169-.053-.252-.073-.015,0-.024,0-.034,0-.136-.034-.271-.073-.416-.106a.542.542,0,0,0-.111-.029.473.473,0,0,1-.111-.029c-.015,0-.024,0-.034,0a14.385,14.385,0,0,0-1.471-.252c-.2-.024-.4-.048-.59-.063a1.762,1.762,0,0,0-.218-.015l-.16-.015c-.063,0-.131-.01-.2-.01a.052.052,0,0,0-.039,0s0,0,0,0,0,0,0,0a.017.017,0,0,0-.01,0h-.044q-.341-.015-.668-.015h-.16c-.082,0-.169,0-.252,0-.058,0-.106,0-.155,0s-.106,0-.16,0c-.106,0-.218.015-.324.019a.6.6,0,0,0-.1.01c-.039,0-.077,0-.116,0l-.271.029q-.632.058-1.249.174c-.145.024-.29.053-.436.082l-.189.044c-.155.034-.31.073-.46.111l-.223.058c-.053.015-.1.029-.15.039l-.145.044a.225.225,0,0,0-.044.015c-.077.024-.15.044-.223.068s-.14.044-.213.073-.169.053-.247.082-.165.058-.247.092c-.319.116-.634.242-.944.382l-.16.073a.408.408,0,0,0-.068.029l-.334.16a.57.57,0,0,0-.092.053c-.136.068-.271.14-.4.213a.134.134,0,0,0-.058.024c-.087.053-.179.1-.266.155-.029.015-.058.034-.092.053-.242.145-.479.3-.711.455a2.353,2.353,0,0,0-.227.155c-.029.019-.053.039-.077.058-.053.034-.1.073-.15.106a.1.1,0,0,0-.048.029.1.1,0,0,1-.029.019.63.63,0,0,1-.111.087c-.218.16-.426.324-.629.5-.087.068-.169.14-.252.213a.864.864,0,0,1-.068.063c-.015.015-.034.029-.048.044l-.145.131c-.1.092-.2.184-.3.281-.053.048-.1.1-.15.15a.6.6,0,0,0-.077.082c-.106.111-.213.223-.315.339-.136.14-.257.286-.387.431s-.257.3-.373.46c-.1.126-.2.257-.29.382s-.189.261-.276.392c-.024.034-.048.068-.068.1a1.156,1.156,0,0,1-.063.1l-.068.1a1.16,1.16,0,0,0-.063.1l-.039.053v0a.17.17,0,0,0-.024.039c-.044.068-.087.136-.126.2l-.044.073v0a.841.841,0,0,0-.053.087c-.068.111-.131.223-.189.339-.034.073-.077.14-.111.213a.06.06,0,0,0-.019.039.092.092,0,0,0-.015.039.426.426,0,0,0-.029.048c-.01,0-.015.01-.015.019s-.01.015-.015.024c-.044.087-.092.174-.131.266a.037.037,0,0,0-.01.019q-.131.261-.247.537-.109.254-.218.523v0l-.353.91-.494,1.258,0,0,40.656,15.836L203.556,89.9l.6-1.554.247-.62c.145-.363.266-.726.373-1.094l0,0c.039-.14.077-.271.111-.407.073-.266.14-.532.2-.794.019-.121.044-.247.073-.368q.051-.269.087-.537v0a12.9,12.9,0,0,0,.145-1.544A15.016,15.016,0,0,0,199.94,70.872Zm-20.4-27.782a3.707,3.707,0,0,1-.227.484,4.328,4.328,0,0,1-5.377,1.984.251.251,0,0,1-.063-.029l0,0a1.694,1.694,0,0,1-.3-.14.455.455,0,0,1-.106-.058,3.248,3.248,0,0,1-.358-.2.8.8,0,0,1-.1-.077.63.63,0,0,1-.073-.048,1.06,1.06,0,0,1-.121-.1,4.268,4.268,0,0,1-.411-.373,2.182,2.182,0,0,1-.227-.247c-.019-.024-.044-.053-.063-.082a.148.148,0,0,0-.024-.034c-.015-.015-.024-.029-.039-.044a.065.065,0,0,0-.015-.024c-.034-.048-.073-.1-.1-.145s-.077-.116-.111-.174a1.881,1.881,0,0,1-.165-.29c-.019-.044-.044-.087-.063-.131-.053-.111-.1-.227-.145-.344-.019-.053-.039-.1-.053-.15a.45.45,0,0,1-.019-.063,2.388,2.388,0,0,1-.092-.378,2.441,2.441,0,0,1-.053-.271c0-.019,0-.034-.01-.053a1.65,1.65,0,0,1-.024-.223.2.2,0,0,1,0-.053,3.351,3.351,0,0,1,.01-.7.692.692,0,0,1,.015-.14c0-.029.01-.058.015-.092v-.034a.7.7,0,0,1,.019-.106c.01-.058.019-.116.034-.169a.184.184,0,0,1,.015-.048.094.094,0,0,0,0-.034c0-.015,0-.029.01-.039s0-.01,0-.01a3.8,3.8,0,0,1,.16-.5c.024-.063.048-.121.073-.179.01-.019.019-.034.029-.053a3.9,3.9,0,0,1,.2-.4c.039-.068.082-.131.126-.194.019-.034.048-.068.073-.1s.039-.053.058-.082a.465.465,0,0,1,.063-.082l.073-.087a1.358,1.358,0,0,1,.155-.184l.048-.048a1.484,1.484,0,0,1,.121-.126c.044-.039.092-.082.136-.126a4.23,4.23,0,0,1,.678-.489c.034-.019.073-.044.111-.063a4.023,4.023,0,0,1,.741-.319,1.732,1.732,0,0,1,.169-.053c.082-.024.165-.044.247-.063a1.066,1.066,0,0,1,.179-.034s0,0,.01,0a.858.858,0,0,1,.155-.024.018.018,0,0,1,.015,0c.039,0,.077-.015.116-.019a1.053,1.053,0,0,1,.121,0,.366.366,0,0,1,.073,0,.586.586,0,0,0,.092,0c.048,0,.1,0,.155,0h.024c.015,0,.034,0,.048,0h0s0,0,.01,0c.1,0,.2,0,.31.01a1.946,1.946,0,0,1,.242.029.091.091,0,0,1,.039.01.072.072,0,0,1,.034,0,.619.619,0,0,1,.174.034.687.687,0,0,1,.106.024.893.893,0,0,0,.111.019,2.78,2.78,0,0,1,.416.136l0,0a.327.327,0,0,1,.068.01A4.336,4.336,0,0,1,179.54,43.091Z" fill="#c1c2ca"/>
            </g>
            <path id="Path_1278537" data-name="Path 1278537" d="M142.275,47.523c5.417,1.933,13.119,4.62,13.764,2.966l2.983-7.659a2.74,2.74,0,0,1,3.547-1.558l6.249,2.435a6.884,6.884,0,0,1,8.976-8.252l-.785,2.015a4.323,4.323,0,0,0-3.138,8.056l-11.1,28.5L122.115,58.183l.847-2.175A15.072,15.072,0,0,1,142.275,47.523Z" fill="#999aa1"/>
          </g>
        </g>
        <g id="Group_1209433" data-name="Group 1209433">
          <g id="Group_1209423" data-name="Group 1209423">
            <g id="Group_1209421" data-name="Group 1209421">
              <g id="Group_1209416" data-name="Group 1209416">
                <path id="Path_1278538" data-name="Path 1278538" d="M134.847,75.794a13.283,13.283,0,0,0-19.712,10.112l13.2,1.464Z" fill="#ffe690"/>
              </g>
              <g id="Group_1209417" data-name="Group 1209417">
                <path id="Path_1278539" data-name="Path 1278539" d="M115.134,85.906a13.3,13.3,0,0,0,5.716,12.433l7.487-10.97Z" fill="#7b7bb3"/>
              </g>
              <g id="Group_1209418" data-name="Group 1209418">
                <path id="Path_1278540" data-name="Path 1278540" d="M141.522,85.758a13.29,13.29,0,0,0-6.675-9.964l-6.51,11.575Z" fill="#ff806d"/>
              </g>
              <g id="Group_1209419" data-name="Group 1209419">
                <path id="Path_1278541" data-name="Path 1278541" d="M143.663,93.765a13.221,13.221,0,0,0,.809-6.433l-13.185,1.612,5.129,12.248A13.238,13.238,0,0,0,143.663,93.765Z" fill="#ffc378"/>
              </g>
              <g id="Group_1209420" data-name="Group 1209420">
                <path id="Path_1278542" data-name="Path 1278542" d="M120.85,98.34a13.262,13.262,0,0,0,12.616,1.278L128.336,87.37Z" fill="#8b82e0"/>
              </g>
              <path id="Path_1278543" data-name="Path 1278543" d="M143.485,95.314l7.555-7.5,7.334,2.857" fill="none" stroke="#bec8db" stroke-miterlimit="10" stroke-width="0.984"/>
              <rect id="Rectangle_412945" data-name="Rectangle 412945" width="1.967" height="6.231" transform="matrix(0.363, -0.932, 0.932, 0.363, 152.072, 86.987)" fill="#bec8db"/>
              <rect id="Rectangle_412946" data-name="Rectangle 412946" width="1.967" height="6.231" transform="matrix(0.363, -0.932, 0.932, 0.363, 146.185, 75.894)" fill="#bec8db"/>
              <rect id="Rectangle_412947" data-name="Rectangle 412947" width="1.967" height="6.231" transform="matrix(0.363, -0.932, 0.932, 0.363, 117.868, 64.864)" fill="#bec8db"/>
              <rect id="Rectangle_412948" data-name="Rectangle 412948" width="1.968" height="6.231" transform="matrix(0.363, -0.932, 0.932, 0.363, 105.599, 92.947)" fill="#bec8db"/>
              <rect id="Rectangle_412949" data-name="Rectangle 412949" width="1.967" height="6.231" transform="matrix(0.363, -0.932, 0.932, 0.363, 132.882, 105.314)" fill="#bec8db"/>
              <path id="Path_1278544" data-name="Path 1278544" d="M139.762,80.193l5.294-3.508,7.432,2.9" fill="none" stroke="#bec8db" stroke-miterlimit="10" stroke-width="0.984"/>
              <path id="Path_1278545" data-name="Path 1278545" d="M125.255,74.208l-.881-5.579-7.639-2.976" fill="none" stroke="#bec8db" stroke-miterlimit="10" stroke-width="0.984"/>
              <path id="Path_1278546" data-name="Path 1278546" d="M116.6,94.461l-4.213,2.231-8.1-3.155" fill="none" stroke="#bec8db" stroke-miterlimit="10" stroke-width="0.984"/>
              <path id="Path_1278547" data-name="Path 1278547" d="M129.89,100.913l1.193,4.822,7.753,3.02" fill="none" stroke="#bec8db" stroke-miterlimit="10" stroke-width="0.984"/>
            </g>
            <g id="Group_1209422" data-name="Group 1209422">
              <rect id="Rectangle_412950" data-name="Rectangle 412950" width="1.22" height="44.1" transform="matrix(0.363, -0.932, 0.932, 0.363, 164.111, 81.297)" fill="#bec8db"/>
              <rect id="Rectangle_412951" data-name="Rectangle 412951" width="1.22" height="44.1" transform="matrix(0.363, -0.932, 0.932, 0.363, 162.506, 85.418)" fill="#bec8db"/>
              <rect id="Rectangle_412952" data-name="Rectangle 412952" width="1.22" height="44.1" transform="matrix(0.363, -0.932, 0.932, 0.363, 160.9, 89.54)" fill="#bec8db"/>
              <rect id="Rectangle_412953" data-name="Rectangle 412953" width="1.22" height="44.1" transform="matrix(0.363, -0.932, 0.932, 0.363, 159.294, 93.661)" fill="#bec8db"/>
              <rect id="Rectangle_412954" data-name="Rectangle 412954" width="1.22" height="44.1" transform="matrix(0.363, -0.932, 0.932, 0.363, 157.689, 97.782)" fill="#bec8db"/>
              <rect id="Rectangle_412955" data-name="Rectangle 412955" width="1.22" height="44.1" transform="matrix(0.363, -0.932, 0.932, 0.363, 156.084, 101.903)" fill="#bec8db"/>
              <rect id="Rectangle_412956" data-name="Rectangle 412956" width="1.22" height="44.1" transform="matrix(0.363, -0.932, 0.932, 0.363, 154.479, 106.025)" fill="#bec8db"/>
              <rect id="Rectangle_412957" data-name="Rectangle 412957" width="1.22" height="44.1" transform="matrix(0.363, -0.932, 0.932, 0.363, 152.873, 110.146)" fill="#bec8db"/>
              <rect id="Rectangle_412958" data-name="Rectangle 412958" width="1.22" height="44.1" transform="matrix(0.363, -0.932, 0.932, 0.363, 151.268, 114.267)" fill="#bec8db"/>
            </g>
          </g>
          <g id="Group_1209431" data-name="Group 1209431">
            <g id="Group_1209424" data-name="Group 1209424">
              <rect id="Rectangle_412959" data-name="Rectangle 412959" width="0.65" height="45.947" transform="matrix(0.363, -0.932, 0.932, 0.363, 84.635, 145.961)" fill="#bec8db"/>
              <rect id="Rectangle_412960" data-name="Rectangle 412960" width="0.65" height="45.947" transform="matrix(0.363, -0.932, 0.932, 0.363, 83.781, 148.156)" fill="#bec8db"/>
              <rect id="Rectangle_412961" data-name="Rectangle 412961" width="0.65" height="45.947" transform="matrix(0.363, -0.932, 0.932, 0.363, 82.926, 150.35)" fill="#bec8db"/>
              <rect id="Rectangle_412962" data-name="Rectangle 412962" width="0.65" height="45.947" transform="matrix(0.363, -0.932, 0.932, 0.363, 82.071, 152.544)" fill="#bec8db"/>
              <rect id="Rectangle_412963" data-name="Rectangle 412963" width="0.65" height="45.947" transform="matrix(0.363, -0.932, 0.932, 0.363, 81.216, 154.739)" fill="#bec8db"/>
              <rect id="Rectangle_412964" data-name="Rectangle 412964" width="0.65" height="45.947" transform="matrix(0.363, -0.932, 0.932, 0.363, 80.361, 156.934)" fill="#bec8db"/>
              <rect id="Rectangle_412965" data-name="Rectangle 412965" width="0.65" height="45.947" transform="matrix(0.363, -0.932, 0.932, 0.363, 79.506, 159.128)" fill="#bec8db"/>
              <rect id="Rectangle_412966" data-name="Rectangle 412966" width="0.65" height="45.947" transform="matrix(0.363, -0.932, 0.932, 0.363, 78.652, 161.323)" fill="#bec8db"/>
              <rect id="Rectangle_412967" data-name="Rectangle 412967" width="0.65" height="45.947" transform="matrix(0.363, -0.932, 0.932, 0.363, 77.797, 163.518)" fill="#bec8db"/>
              <rect id="Rectangle_412968" data-name="Rectangle 412968" width="0.65" height="45.947" transform="matrix(0.363, -0.932, 0.932, 0.363, 76.942, 165.712)" fill="#bec8db"/>
              <rect id="Rectangle_412969" data-name="Rectangle 412969" width="0.65" height="45.947" transform="matrix(0.363, -0.932, 0.932, 0.363, 76.087, 167.907)" fill="#bec8db"/>
            </g>
            <g id="Group_1209430" data-name="Group 1209430">
              <g id="Group_1209425" data-name="Group 1209425">
                <rect id="Rectangle_412970" data-name="Rectangle 412970" width="21.729" height="7.874" transform="matrix(0.363, -0.932, 0.932, 0.363, 126.448, 186.912)" fill="#ffe690"/>
              </g>
              <g id="Group_1209426" data-name="Group 1209426">
                <rect id="Rectangle_412971" data-name="Rectangle 412971" width="12.082" height="7.874" transform="matrix(0.363, -0.932, 0.932, 0.363, 133.785, 189.77)" fill="#7b7bb3"/>
              </g>
              <g id="Group_1209427" data-name="Group 1209427">
                <rect id="Rectangle_412972" data-name="Rectangle 412972" width="13.74" height="7.874" transform="matrix(0.363, -0.932, 0.932, 0.363, 141.122, 192.628)" fill="#8b82e0"/>
              </g>
              <g id="Group_1209428" data-name="Group 1209428">
                <rect id="Rectangle_412973" data-name="Rectangle 412973" width="7.874" height="7.874" transform="matrix(0.363, -0.932, 0.932, 0.363, 148.458, 195.485)" fill="#ff806d"/>
              </g>
              <g id="Group_1209429" data-name="Group 1209429">
                <rect id="Rectangle_412974" data-name="Rectangle 412974" width="18.952" height="7.874" transform="matrix(0.363, -0.932, 0.932, 0.363, 155.795, 198.343)" fill="#ffc378"/>
              </g>
            </g>
          </g>
          <g id="Group_1209432" data-name="Group 1209432">
            <rect id="Rectangle_412975" data-name="Rectangle 412975" width="2.267" height="95.381" transform="matrix(0.363, -0.932, 0.932, 0.363, 98, 109.746)" fill="#bec8db"/>
            <rect id="Rectangle_412976" data-name="Rectangle 412976" width="2.267" height="95.381" transform="matrix(0.363, -0.932, 0.932, 0.363, 96.929, 112.491)" fill="#bec8db"/>
            <rect id="Rectangle_412977" data-name="Rectangle 412977" width="2.267" height="95.381" transform="matrix(0.363, -0.932, 0.932, 0.363, 95.857, 115.236)" fill="#bec8db"/>
            <rect id="Rectangle_412978" data-name="Rectangle 412978" width="2.267" height="95.381" transform="matrix(0.363, -0.932, 0.932, 0.363, 87.365, 136.986)" fill="#bec8db"/>
            <rect id="Rectangle_412979" data-name="Rectangle 412979" width="2.267" height="76.387" transform="matrix(0.363, -0.932, 0.932, 0.363, 111.99, 126.155)" fill="#bec8db"/>
            <rect id="Rectangle_412980" data-name="Rectangle 412980" width="2.267" height="10.733" transform="matrix(0.363, -0.932, 0.932, 0.363, 96.114, 119.962)" fill="#ffe690"/>
            <rect id="Rectangle_412981" data-name="Rectangle 412981" width="2.267" height="10.733" transform="matrix(0.363, -0.932, 0.932, 0.363, 94.85, 123.199)" fill="#ff806d"/>
            <rect id="Rectangle_412982" data-name="Rectangle 412982" width="2.267" height="10.733" transform="matrix(0.363, -0.932, 0.932, 0.363, 93.586, 126.438)" fill="#ffc378"/>
            <rect id="Rectangle_412983" data-name="Rectangle 412983" width="2.267" height="10.733" transform="matrix(0.363, -0.932, 0.932, 0.363, 92.323, 129.676)" fill="#8b82e0"/>
            <rect id="Rectangle_412984" data-name="Rectangle 412984" width="2.267" height="10.733" transform="matrix(0.363, -0.932, 0.932, 0.363, 91.058, 132.914)" fill="#7b7bb3"/>
            <rect id="Rectangle_412985" data-name="Rectangle 412985" width="2.267" height="76.387" transform="matrix(0.363, -0.932, 0.932, 0.363, 110.725, 129.393)" fill="#bec8db"/>
            <rect id="Rectangle_412986" data-name="Rectangle 412986" width="2.267" height="76.387" transform="matrix(0.363, -0.932, 0.932, 0.363, 109.461, 132.63)" fill="#bec8db"/>
            <rect id="Rectangle_412987" data-name="Rectangle 412987" width="2.267" height="76.387" transform="matrix(0.363, -0.932, 0.932, 0.363, 108.196, 135.868)" fill="#bec8db"/>
            <rect id="Rectangle_412988" data-name="Rectangle 412988" width="2.267" height="76.387" transform="matrix(0.363, -0.932, 0.932, 0.363, 106.931, 139.106)" fill="#bec8db"/>
          </g>
        </g>
      </g>
      <path id="Path_1278548" data-name="Path 1278548" d="M104.781,196.688s0,.01-.01.015a5.326,5.326,0,0,1-3.509,2.168l-1.878.3L56.749,182.565a3.92,3.92,0,0,1-2.038-5.15l21.949-56.347,4.54-.726,7.255-1.166a5.553,5.553,0,0,1,.934-.068,2.75,2.75,0,0,1,.286.015,5,5,0,0,1,.808.116,3.026,3.026,0,0,1,.3.077,4.593,4.593,0,0,1,.566.194,5.4,5.4,0,0,1,3.3,4.148l.131.813.416,2.594.223,1.384.416,2.594.223,1.384.416,2.594L97,138.308l.416,2.594,1.6,9.961.116.741.315,1.955.121.745.315,1.951L100,157l.315,1.951.121.745.31,1.951.121.745.315,1.951.116.745.315,1.951.121.745.31,1.951.121.745.315,1.951.116.745.315,1.951.121.745.315,1.951.116.745,1.7,10.6.1.61.068.421.227,1.418.169,1.06A5.359,5.359,0,0,1,104.781,196.688Z" fill="#d1d3d4"/>
      <g id="Group_1209439" data-name="Group 1209439">
        <g id="Group_1209438" data-name="Group 1209438">
          <path id="Path_1278549" data-name="Path 1278549" d="M31.254,208.991a5.418,5.418,0,0,1-6.2-4.486L13.984,135.478a5.408,5.408,0,0,1,4.477-6.194L87.487,118.21a5.413,5.413,0,0,1,6.195,4.479l11.074,69.025a5.4,5.4,0,0,1-4.462,6.192Z" fill="#0875ad"/>
          <path id="Path_1278550" data-name="Path 1278550" d="M92.767,122.835c3.028,18.9.816,5.108,11.074,69.025a4.471,4.471,0,0,1-3.71,5.133L31.108,208.077a4.479,4.479,0,0,1-5.135-3.72c-10.259-63.918-8.047-50.124-11.075-69.025a4.484,4.484,0,0,1,3.711-5.133l69.025-11.074A4.483,4.483,0,0,1,92.767,122.835Z" fill="#f2eeee"/>
          <path id="Path_1278551" data-name="Path 1278551" d="M19.779,153.626,16.954,136c-.31-1.932.569-3.684,1.961-3.908L87.94,121.034c1.393-.224,2.778,1.164,3.088,3.094l2.826,17.621Z" fill="#034e6e"/>
          <rect id="Rectangle_412989" data-name="Rectangle 412989" width="67.091" height="10.755" transform="translate(21.346 138.389) rotate(-9.114)" fill="#7eb6a9"/>
          <g id="Group_1209435" data-name="Group 1209435">
            <path id="Path_1278552" data-name="Path 1278552" d="M26.653,162.744l7.5-1.2a.468.468,0,0,0,.389-.537l-1.068-6.658a.47.47,0,0,0-.538-.39l-7.5,1.2a.469.469,0,0,0-.389.538l1.068,6.658A.471.471,0,0,0,26.653,162.744Z" fill="#58595b"/>
            <path id="Path_1278553" data-name="Path 1278553" d="M28.249,172.688l7.5-1.2a.469.469,0,0,0,.389-.538l-1.069-6.658a.47.47,0,0,0-.538-.389l-7.5,1.2a.469.469,0,0,0-.389.537l1.068,6.659A.469.469,0,0,0,28.249,172.688Z" fill="#58595b"/>
            <path id="Path_1278554" data-name="Path 1278554" d="M29.845,182.633l7.5-1.2a.469.469,0,0,0,.389-.538l-1.069-6.658a.469.469,0,0,0-.537-.389l-7.5,1.2a.47.47,0,0,0-.389.539l1.068,6.657A.469.469,0,0,0,29.845,182.633Z" fill="#58595b"/>
            <path id="Path_1278555" data-name="Path 1278555" d="M31.441,192.578l7.5-1.2a.469.469,0,0,0,.389-.538l-1.068-6.658a.469.469,0,0,0-.538-.389l-7.5,1.2a.47.47,0,0,0-.39.538l1.069,6.658A.469.469,0,0,0,31.441,192.578Z" fill="#58595b"/>
            <path id="Path_1278556" data-name="Path 1278556" d="M47.427,161.83l-7.5,1.2a.468.468,0,0,0-.389.537l1.069,6.658a.469.469,0,0,0,.537.39l7.5-1.2a.469.469,0,0,0,.389-.538l-1.068-6.658A.469.469,0,0,0,47.427,161.83Z" fill="#58595b"/>
            <path id="Path_1278557" data-name="Path 1278557" d="M49.022,171.775l-7.5,1.2a.47.47,0,0,0-.389.538l1.069,6.657a.469.469,0,0,0,.537.389l7.5-1.2a.468.468,0,0,0,.389-.538l-1.068-6.657A.469.469,0,0,0,49.022,171.775Z" fill="#58595b"/>
            <path id="Path_1278558" data-name="Path 1278558" d="M50.619,181.72l-7.5,1.2a.469.469,0,0,0-.389.538L43.8,190.12a.47.47,0,0,0,.538.39l7.5-1.2a.47.47,0,0,0,.389-.538l-1.068-6.659A.47.47,0,0,0,50.619,181.72Z" fill="#58595b"/>
            <path id="Path_1278559" data-name="Path 1278559" d="M58.467,160.059l-7.5,1.2a.47.47,0,0,0-.389.538l1.069,6.657a.468.468,0,0,0,.537.39l7.5-1.2a.469.469,0,0,0,.39-.538l-1.068-6.658A.47.47,0,0,0,58.467,160.059Z" fill="#58595b"/>
            <path id="Path_1278560" data-name="Path 1278560" d="M60.063,170l-7.5,1.2a.468.468,0,0,0-.389.537l1.068,6.658a.469.469,0,0,0,.538.389l7.5-1.2a.47.47,0,0,0,.389-.538L60.6,170.392A.47.47,0,0,0,60.063,170Z" fill="#58595b"/>
            <path id="Path_1278561" data-name="Path 1278561" d="M61.659,179.948l-7.5,1.2a.47.47,0,0,0-.389.538l1.069,6.658a.47.47,0,0,0,.537.39l7.5-1.2a.47.47,0,0,0,.39-.537L62.2,180.337A.47.47,0,0,0,61.659,179.948Z" fill="#58595b"/>
            <path id="Path_1278562" data-name="Path 1278562" d="M45.831,151.885l-7.5,1.2a.469.469,0,0,0-.389.538l1.068,6.658a.469.469,0,0,0,.538.389l7.5-1.2a.469.469,0,0,0,.389-.538l-1.068-6.658A.47.47,0,0,0,45.831,151.885Z" fill="#58595b"/>
            <path id="Path_1278563" data-name="Path 1278563" d="M56.872,150.114l-7.5,1.2a.468.468,0,0,0-.389.537l1.068,6.658a.469.469,0,0,0,.538.389l7.5-1.2a.469.469,0,0,0,.389-.539L57.409,150.5A.469.469,0,0,0,56.872,150.114Z" fill="#58595b"/>
            <path id="Path_1278564" data-name="Path 1278564" d="M67.911,148.343l-7.5,1.2a.47.47,0,0,0-.389.538l1.069,6.657a.468.468,0,0,0,.537.389l7.5-1.2a.468.468,0,0,0,.389-.537l-1.068-6.659A.469.469,0,0,0,67.911,148.343Z" fill="#58595b"/>
            <path id="Path_1278565" data-name="Path 1278565" d="M69.507,158.287l-7.5,1.2a.47.47,0,0,0-.389.538l1.069,6.658a.47.47,0,0,0,.538.39l7.5-1.2a.47.47,0,0,0,.389-.538l-1.068-6.658A.471.471,0,0,0,69.507,158.287Z" fill="#58595b"/>
            <path id="Path_1278566" data-name="Path 1278566" d="M71.1,168.232l-7.5,1.2a.469.469,0,0,0-.389.538l1.069,6.658a.469.469,0,0,0,.538.389l7.5-1.2a.469.469,0,0,0,.389-.538l-1.068-6.657A.471.471,0,0,0,71.1,168.232Z" fill="#58595b"/>
            <path id="Path_1278567" data-name="Path 1278567" d="M72.7,178.177l-7.5,1.2a.47.47,0,0,0-.389.538l1.069,6.658a.47.47,0,0,0,.538.389l7.5-1.2a.47.47,0,0,0,.389-.538l-1.068-6.657A.471.471,0,0,0,72.7,178.177Z" fill="#58595b"/>
            <path id="Path_1278568" data-name="Path 1278568" d="M52.065,190.738l-7.5,1.2a.469.469,0,0,0-.389.538l1.068,6.658a.471.471,0,0,0,.539.389l7.5-1.2a.469.469,0,0,0,.389-.538L52.6,191.126A.469.469,0,0,0,52.065,190.738Z" fill="#58595b"/>
            <path id="Path_1278569" data-name="Path 1278569" d="M41.8,192.385,31.739,194a.539.539,0,0,0-.447.618l1.046,6.52a.539.539,0,0,0,.618.447l10.059-1.614a.539.539,0,0,0,.447-.618l-1.046-6.52A.54.54,0,0,0,41.8,192.385Z" fill="#58595b"/>
            <path id="Path_1278570" data-name="Path 1278570" d="M63.106,188.966l-7.5,1.2a.47.47,0,0,0-.389.538l1.069,6.658a.47.47,0,0,0,.538.389l7.5-1.2a.47.47,0,0,0,.389-.538l-1.069-6.657A.468.468,0,0,0,63.106,188.966Z" fill="#58595b"/>
            <path id="Path_1278571" data-name="Path 1278571" d="M74.146,187.194l-7.5,1.2a.471.471,0,0,0-.389.539l1.068,6.657a.47.47,0,0,0,.538.39l7.5-1.2a.47.47,0,0,0,.39-.538l-1.069-6.658A.47.47,0,0,0,74.146,187.194Z" fill="#58595b"/>
            <path id="Path_1278572" data-name="Path 1278572" d="M81.812,156.313l-7.5,1.2a.47.47,0,0,0-.389.539l1.068,6.657a.469.469,0,0,0,.538.389l7.5-1.2a.469.469,0,0,0,.389-.538L82.35,156.7A.469.469,0,0,0,81.812,156.313Z" fill="#58595b"/>
            <path id="Path_1278573" data-name="Path 1278573" d="M83.408,166.258l-7.5,1.2a.469.469,0,0,0-.389.538l1.069,6.658a.469.469,0,0,0,.537.389l7.5-1.2a.47.47,0,0,0,.389-.538l-1.069-6.658A.469.469,0,0,0,83.408,166.258Z" fill="#58595b"/>
            <path id="Path_1278574" data-name="Path 1278574" d="M84.781,176.238l-7.056,1.132a.7.7,0,0,0-.576.8L79.594,193.4a.694.694,0,0,0,.8.575l7.056-1.133a.693.693,0,0,0,.575-.8l-2.444-15.231A.694.694,0,0,0,84.781,176.238Z" fill="#58595b"/>
            <path id="Path_1278575" data-name="Path 1278575" d="M80.217,146.368l-7.5,1.2a.469.469,0,0,0-.389.538l1.069,6.658a.469.469,0,0,0,.537.39l7.5-1.2a.47.47,0,0,0,.389-.539l-1.068-6.657A.469.469,0,0,0,80.217,146.368Z" fill="#58595b"/>
            <path id="Path_1278576" data-name="Path 1278576" d="M90.5,144.718l-7.5,1.2a.47.47,0,0,0-.39.538l1.069,6.658a.471.471,0,0,0,.538.39l7.5-1.2a.469.469,0,0,0,.389-.539l-1.067-6.657A.47.47,0,0,0,90.5,144.718Z" fill="#58595b"/>
            <path id="Path_1278577" data-name="Path 1278577" d="M92.093,154.663l-7.5,1.2a.47.47,0,0,0-.389.538l1.068,6.659a.47.47,0,0,0,.538.389l7.5-1.2a.468.468,0,0,0,.389-.537l-1.068-6.658A.47.47,0,0,0,92.093,154.663Z" fill="#58595b"/>
            <path id="Path_1278578" data-name="Path 1278578" d="M93.69,164.608l-7.5,1.2a.469.469,0,0,0-.389.538l1.068,6.658a.47.47,0,0,0,.538.389l7.5-1.2a.468.468,0,0,0,.389-.538L94.227,165A.468.468,0,0,0,93.69,164.608Z" fill="#58595b"/>
            <path id="Path_1278579" data-name="Path 1278579" d="M95.063,174.588l-7.056,1.133a.694.694,0,0,0-.576.8l2.444,15.231a.7.7,0,0,0,.8.576l7.056-1.133a.7.7,0,0,0,.575-.8l-2.444-15.23A.693.693,0,0,0,95.063,174.588Z" fill="#58595b"/>
          </g>
          <g id="Group_1209437" data-name="Group 1209437">
            <path id="Path_1278580" data-name="Path 1278580" d="M33.633,161.331l-7.5,1.2a.47.47,0,0,1-.538-.389l-1.068-6.657a.469.469,0,0,1,.389-.538l7.5-1.2a.47.47,0,0,1,.538.389l1.068,6.658A.468.468,0,0,1,33.633,161.331Z" fill="#6687a8"/>
            <path id="Path_1278581" data-name="Path 1278581" d="M35.229,171.276l-7.5,1.2a.469.469,0,0,1-.538-.389l-1.068-6.658a.468.468,0,0,1,.389-.537l7.5-1.2a.47.47,0,0,1,.538.389l1.069,6.658A.469.469,0,0,1,35.229,171.276Z" fill="#6687a8"/>
            <path id="Path_1278582" data-name="Path 1278582" d="M36.825,181.221l-7.5,1.2a.47.47,0,0,1-.538-.389l-1.068-6.657a.469.469,0,0,1,.389-.538l7.5-1.2a.469.469,0,0,1,.537.39l1.069,6.658A.469.469,0,0,1,36.825,181.221Z" fill="#6687a8"/>
            <path id="Path_1278583" data-name="Path 1278583" d="M38.421,191.165l-7.5,1.2a.469.469,0,0,1-.537-.39l-1.069-6.657a.47.47,0,0,1,.389-.538l7.5-1.2a.47.47,0,0,1,.538.389l1.069,6.658A.471.471,0,0,1,38.421,191.165Z" fill="#eb6441"/>
            <path id="Path_1278584" data-name="Path 1278584" d="M48.124,169.207l-7.5,1.2a.468.468,0,0,1-.537-.39l-1.069-6.658a.469.469,0,0,1,.389-.538l7.5-1.2a.469.469,0,0,1,.538.389l1.069,6.658A.47.47,0,0,1,48.124,169.207Z" fill="#0875ad"/>
            <path id="Path_1278585" data-name="Path 1278585" d="M49.72,179.152l-7.5,1.2a.47.47,0,0,1-.538-.39l-1.069-6.657A.47.47,0,0,1,41,172.77l7.5-1.2a.47.47,0,0,1,.538.39l1.068,6.657A.468.468,0,0,1,49.72,179.152Z" fill="#0875ad"/>
            <path id="Path_1278586" data-name="Path 1278586" d="M51.316,189.1l-7.5,1.2a.469.469,0,0,1-.537-.389l-1.069-6.658a.47.47,0,0,1,.389-.538l7.5-1.2a.47.47,0,0,1,.538.389l1.068,6.658A.47.47,0,0,1,51.316,189.1Z" fill="#0875ad"/>
            <path id="Path_1278587" data-name="Path 1278587" d="M59.164,167.435l-7.5,1.2a.469.469,0,0,1-.538-.389l-1.068-6.657a.47.47,0,0,1,.389-.539l7.5-1.2a.47.47,0,0,1,.538.389l1.068,6.658A.47.47,0,0,1,59.164,167.435Z" fill="#0875ad"/>
            <path id="Path_1278588" data-name="Path 1278588" d="M60.76,177.38l-7.5,1.2a.468.468,0,0,1-.538-.389l-1.069-6.658a.469.469,0,0,1,.389-.538l7.5-1.2a.47.47,0,0,1,.538.389l1.068,6.657A.469.469,0,0,1,60.76,177.38Z" fill="#0875ad"/>
            <path id="Path_1278589" data-name="Path 1278589" d="M62.355,187.325l-7.5,1.2a.469.469,0,0,1-.537-.389l-1.069-6.658a.47.47,0,0,1,.39-.538l7.5-1.2a.47.47,0,0,1,.538.389l1.068,6.659A.47.47,0,0,1,62.355,187.325Z" fill="#0875ad"/>
            <g id="Group_1209436" data-name="Group 1209436">
              <path id="Path_1278590" data-name="Path 1278590" d="M46.528,159.262l-7.5,1.2a.47.47,0,0,1-.538-.389l-1.068-6.658a.469.469,0,0,1,.389-.538l7.5-1.2a.471.471,0,0,1,.538.39l1.068,6.658A.469.469,0,0,1,46.528,159.262Z" fill="#6687a8"/>
              <path id="Path_1278591" data-name="Path 1278591" d="M57.568,157.491l-7.5,1.2a.47.47,0,0,1-.538-.389l-1.068-6.658a.468.468,0,0,1,.389-.537l7.5-1.2a.469.469,0,0,1,.538.389l1.068,6.658A.47.47,0,0,1,57.568,157.491Z" fill="#6687a8"/>
              <path id="Path_1278592" data-name="Path 1278592" d="M68.609,155.719l-7.5,1.2a.469.469,0,0,1-.538-.389L59.5,149.876a.469.469,0,0,1,.389-.538l7.5-1.2a.47.47,0,0,1,.538.389L69,155.182A.469.469,0,0,1,68.609,155.719Z" fill="#6687a8"/>
            </g>
            <path id="Path_1278593" data-name="Path 1278593" d="M70.2,165.664l-7.5,1.2a.468.468,0,0,1-.537-.389L61.1,159.821a.469.469,0,0,1,.389-.538l7.5-1.2a.47.47,0,0,1,.538.389l1.068,6.658A.469.469,0,0,1,70.2,165.664Z" fill="#0875ad"/>
            <path id="Path_1278594" data-name="Path 1278594" d="M71.8,175.609l-7.5,1.2a.47.47,0,0,1-.538-.389l-1.069-6.658a.469.469,0,0,1,.389-.538l7.5-1.2a.471.471,0,0,1,.539.39l1.069,6.657A.47.47,0,0,1,71.8,175.609Z" fill="#0875ad"/>
            <path id="Path_1278595" data-name="Path 1278595" d="M73.4,185.554l-7.5,1.2a.469.469,0,0,1-.537-.389l-1.069-6.658a.47.47,0,0,1,.389-.538l7.5-1.2a.47.47,0,0,1,.538.39l1.068,6.657A.47.47,0,0,1,73.4,185.554Z" fill="#0875ad"/>
            <path id="Path_1278596" data-name="Path 1278596" d="M52.763,198.114l-7.5,1.2a.47.47,0,0,1-.538-.389l-1.068-6.658a.47.47,0,0,1,.39-.538l7.5-1.2a.469.469,0,0,1,.538.389l1.068,6.658A.469.469,0,0,1,52.763,198.114Z" fill="#0875ad"/>
            <path id="Path_1278597" data-name="Path 1278597" d="M42.5,199.762l-10.059,1.614a.539.539,0,0,1-.618-.447l-1.046-6.52a.539.539,0,0,1,.447-.618l10.059-1.614a.539.539,0,0,1,.618.447l1.046,6.52A.539.539,0,0,1,42.5,199.762Z" fill="#eb6441"/>
            <path id="Path_1278598" data-name="Path 1278598" d="M63.8,196.343l-7.5,1.2a.47.47,0,0,1-.538-.389L54.7,190.5a.469.469,0,0,1,.389-.538l7.5-1.2a.468.468,0,0,1,.538.39l1.069,6.657A.47.47,0,0,1,63.8,196.343Z" fill="#0875ad"/>
            <path id="Path_1278599" data-name="Path 1278599" d="M74.843,194.571l-7.5,1.2a.47.47,0,0,1-.538-.39l-1.068-6.657a.47.47,0,0,1,.389-.538l7.5-1.2a.47.47,0,0,1,.538.389l1.069,6.658A.469.469,0,0,1,74.843,194.571Z" fill="#0875ad"/>
            <path id="Path_1278600" data-name="Path 1278600" d="M82.509,163.689l-7.5,1.2a.469.469,0,0,1-.538-.39L73.4,157.846a.47.47,0,0,1,.39-.538l7.5-1.2a.47.47,0,0,1,.538.389l1.069,6.658A.469.469,0,0,1,82.509,163.689Z" fill="#6687a8"/>
            <path id="Path_1278601" data-name="Path 1278601" d="M84.1,173.634l-7.5,1.2a.469.469,0,0,1-.537-.389L75,167.791a.47.47,0,0,1,.389-.538l7.5-1.2a.47.47,0,0,1,.538.389l1.068,6.658A.469.469,0,0,1,84.1,173.634Z" fill="#6687a8"/>
            <path id="Path_1278602" data-name="Path 1278602" d="M86.925,192.632l-7.056,1.133a.7.7,0,0,1-.8-.575l-2.444-15.231a.7.7,0,0,1,.576-.8l7.056-1.132a.694.694,0,0,1,.8.575L87.5,191.837A.692.692,0,0,1,86.925,192.632Z" fill="#6687a8"/>
            <path id="Path_1278603" data-name="Path 1278603" d="M80.913,153.745l-7.5,1.2a.47.47,0,0,1-.538-.389L71.806,147.9a.47.47,0,0,1,.389-.538l7.5-1.2a.469.469,0,0,1,.538.389l1.068,6.657A.469.469,0,0,1,80.913,153.745Z" fill="#6687a8"/>
            <path id="Path_1278604" data-name="Path 1278604" d="M91.2,152.1l-7.5,1.2a.47.47,0,0,1-.538-.389l-1.069-6.658a.469.469,0,0,1,.39-.538l7.5-1.2a.469.469,0,0,1,.538.389l1.068,6.658A.469.469,0,0,1,91.2,152.1Z" fill="#6687a8"/>
            <path id="Path_1278605" data-name="Path 1278605" d="M92.791,162.04l-7.5,1.2a.47.47,0,0,1-.538-.389L83.684,156.2a.47.47,0,0,1,.389-.538l7.5-1.2a.47.47,0,0,1,.538.389l1.068,6.657A.468.468,0,0,1,92.791,162.04Z" fill="#6687a8"/>
            <path id="Path_1278606" data-name="Path 1278606" d="M94.387,171.985l-7.5,1.2a.47.47,0,0,1-.538-.389l-1.068-6.658a.469.469,0,0,1,.389-.538l7.5-1.2a.468.468,0,0,1,.537.389l1.068,6.658A.47.47,0,0,1,94.387,171.985Z" fill="#6687a8"/>
            <path id="Path_1278607" data-name="Path 1278607" d="M89.355,191.539l-2.444-15.231a.694.694,0,0,1,.576-.8l7.056-1.132a.694.694,0,0,1,.8.575l2.444,15.231a.7.7,0,0,1-.575.8l-7.057,1.132a.7.7,0,0,1-.8-.576" fill="#6687a8"/>
          </g>
          <rect id="Rectangle_412990" data-name="Rectangle 412990" width="25.948" height="4.405" transform="translate(61.069 126.286) rotate(-9.137)" fill="#14252d"/>
        </g>
      </g>
      <path id="Path_1278608" data-name="Path 1278608" d="M178.342,101.085c0-.329-.007-.659-.022-.985-.009-.2-.028-.4-.041-.595-.019-.288-.036-.578-.063-.864-.02-.213-.049-.424-.074-.635-.031-.268-.061-.537-.1-.8-.032-.221-.072-.439-.109-.659-.043-.254-.084-.507-.133-.759-.044-.225-.1-.448-.144-.671-.053-.242-.105-.483-.164-.723s-.119-.455-.181-.682-.124-.458-.192-.684-.144-.462-.219-.691-.141-.434-.217-.649c-.082-.234-.169-.466-.257-.7-.078-.2-.156-.409-.238-.611-.1-.237-.2-.471-.3-.7-.084-.192-.168-.383-.256-.572q-.166-.359-.341-.711c-.088-.178-.177-.355-.269-.53q-.189-.363-.387-.719-.136-.245-.276-.486-.213-.367-.436-.728c-.091-.147-.184-.292-.277-.438-.16-.248-.322-.5-.49-.739-.09-.13-.181-.258-.272-.387-.18-.253-.361-.5-.548-.75-.084-.111-.171-.22-.257-.33-.2-.258-.406-.514-.616-.766-.075-.09-.152-.178-.228-.266-.227-.266-.457-.529-.694-.786-.06-.065-.121-.128-.182-.192-.258-.276-.519-.549-.788-.815l-.108-.1A29.616,29.616,0,1,0,143.271,130.6l-.692,6.631-.877-.09a1.8,1.8,0,0,0-1.975,1.609l-5.045,49.383a5.315,5.315,0,0,0,4.747,5.827l1.218.124a5.294,5.294,0,0,0,2.586-.38q.237-.1.463-.22a5.322,5.322,0,0,0,2.779-4.146l5.045-49.383a1.8,1.8,0,0,0-1.609-1.975l-.785-.08.711-6.812h0q.675-.025,1.342-.081l.1-.007c.426-.036.849-.083,1.27-.137l.149-.018q.613-.082,1.217-.19l.181-.032q.592-.108,1.175-.241l.2-.045q.575-.134,1.142-.29l.207-.058q.562-.16,1.115-.34l.207-.069c.367-.123.732-.252,1.093-.39l.2-.077c.363-.141.722-.287,1.077-.441l.179-.08c.36-.159.717-.323,1.069-.5l.146-.074c.361-.18.719-.364,1.073-.559l.088-.05a29.749,29.749,0,0,0,6.3-4.672l.1-.091c.242-.237.476-.482.711-.726.086-.09.174-.177.258-.268.206-.221.4-.448.6-.676.106-.121.214-.241.318-.364.181-.213.356-.432.53-.651.115-.144.231-.287.344-.433.161-.21.318-.424.473-.638.118-.162.236-.323.351-.488.145-.209.286-.421.426-.633.117-.177.233-.354.346-.533.131-.208.258-.419.384-.631q.17-.286.334-.575.176-.313.346-.631t.317-.612c.105-.209.209-.42.309-.632s.2-.43.3-.648.185-.42.274-.633.183-.453.272-.681c.082-.211.163-.421.24-.634.085-.236.165-.475.245-.715.07-.21.14-.419.206-.631.076-.249.146-.5.216-.752.058-.208.118-.416.172-.626.067-.263.126-.529.186-.794.046-.2.095-.406.136-.61.058-.284.106-.571.156-.857.033-.192.071-.381.1-.575.049-.323.088-.65.127-.976.019-.16.044-.319.06-.48q.076-.735.117-1.481t.042-1.493C178.353,101.412,178.344,101.249,178.342,101.085Zm-55.761-.983a26.187,26.187,0,0,1,27.543-24.758c.641.034,1.272.1,1.9.178a26.091,26.091,0,0,1,15.109,7.347l.04.038c.248.246.489.5.727.755.043.045.086.09.128.136.215.235.424.475.631.717.061.071.123.141.182.213.189.227.373.458.554.691.072.092.145.184.216.278.167.221.33.446.49.672.078.11.157.221.234.332.149.217.293.438.436.659.081.126.162.253.241.38q.2.32.387.648.123.212.242.426.176.316.342.637.121.232.236.467.155.313.3.63c.077.167.151.335.225.5q.135.309.263.623c.073.179.142.359.211.54.077.2.154.409.227.616.066.19.129.381.191.572s.132.406.193.611.114.4.169.6.11.4.16.6.1.425.145.638c.044.2.088.394.127.592.044.223.08.447.118.672.032.193.067.385.1.58.034.236.061.474.088.711.022.187.047.373.065.56.024.254.039.509.056.765.012.175.028.348.035.524.013.288.016.579.02.869,0,.145.009.289.008.435q0,.656-.037,1.319a26.4,26.4,0,0,1-.47,3.73c-.035.179-.074.357-.113.534a25.967,25.967,0,0,1-1.771,5.273c-.259.564-.531,1.121-.828,1.662q-.306.557-.637,1.1a26.227,26.227,0,0,1-23.723,12.461c-.214-.011-.424-.034-.637-.05h0A26.183,26.183,0,0,1,122.582,100.1Z" fill="#d1d3d4"/>
      <g id="Group_1209440" data-name="Group 1209440">
        <path id="Path_1278609" data-name="Path 1278609" d="M142.45,186.493l6.056-58.013-6.546-.683L135.9,185.81C138.21,189.23,139.617,189.749,142.45,186.493Z" fill="#034e6e"/>
        <path id="Path_1278610" data-name="Path 1278610" d="M117.7,98.468a29.621,29.621,0,1,1,28,31.154A29.62,29.62,0,0,1,117.7,98.468Zm28.186,27.724A26.187,26.187,0,1,0,121.129,98.65,26.186,26.186,0,0,0,145.887,126.192Z" fill="#034e6e"/>
        <path id="Path_1278611" data-name="Path 1278611" d="M121.13,98.65a26.187,26.187,0,1,1,24.758,27.542A26.187,26.187,0,0,1,121.13,98.65Z" fill="#c7dcff" opacity="0.24"/>
        <path id="Path_1278612" data-name="Path 1278612" d="M164.247,114.131l-.595-.77a23.992,23.992,0,0,0,.764-28.6l1.292-1A22.778,22.778,0,0,1,164.247,114.131Z" fill="#fff"/>
        <path id="Path_1278613" data-name="Path 1278613" d="M139.194,192.634l-1.218-.124a5.315,5.315,0,0,1-4.747-5.827l5.045-49.383a1.8,1.8,0,0,1,1.975-1.608l8.209.839a1.8,1.8,0,0,1,1.609,1.975l-5.045,49.383A5.315,5.315,0,0,1,139.194,192.634Z" fill="#ec463a"/>
        <path id="Path_1278614" data-name="Path 1278614" d="M176.858,101.617a29.616,29.616,0,0,0-25.939-30.963l-.349,3.416a26.183,26.183,0,0,1-4.683,52.122c-.214-.011-.424-.034-.637-.05l-6.786,66.417.729.075a5.315,5.315,0,0,0,5.827-4.747l5.045-49.383a1.8,1.8,0,0,0-1.609-1.975l-.785-.08.711-6.812A29.618,29.618,0,0,0,176.858,101.617Z" fill="#bcbec0"/>
      </g>
    </g>
  </g>
</svg>
