<svg xmlns="http://www.w3.org/2000/svg" xmlns:xlink="http://www.w3.org/1999/xlink" width="295" height="336" viewBox="0 0 295 336">
  <defs>
    <clipPath id="clip-path">
      <path id="Rectangle_413081" data-name="Rectangle 413081" d="M0,0H280a15,15,0,0,1,15,15V321a15,15,0,0,1-15,15H0a0,0,0,0,1,0,0V0A0,0,0,0,1,0,0Z" transform="translate(1020 1445.134)" fill="#fff" stroke="#707070" stroke-width="1"/>
    </clipPath>
  </defs>
  <g id="Mask_Group_1099377" data-name="Mask Group 1099377" transform="translate(-1020 -1445.134)" clip-path="url(#clip-path)">
    <g id="_10103145_17839621" data-name="10103145_17839621" transform="translate(1020 1440.938)">
      <rect id="Rectangle_413082" data-name="Rectangle 413082" width="295" height="343.698" fill="#44b4d6"/>
      <g id="Group_1209704" data-name="Group 1209704" transform="translate(148.403 142.338)">
        <rect id="Rectangle_413083" data-name="Rectangle 413083" width="97.176" height="42.003" transform="matrix(1, 0.007, -0.007, 1, 2.66, 0)" fill="#6c6b6b" opacity="0.5"/>
        <rect id="Rectangle_413084" data-name="Rectangle 413084" width="97.176" height="42.003" transform="matrix(1, 0.007, -0.007, 1, 0.315, 2.45)" fill="#fffefe"/>
        <rect id="Rectangle_413085" data-name="Rectangle 413085" width="36.166" height="91.343" transform="matrix(0.007, -1, 1, 0.007, 2.925, 41.547)" fill="#719c65"/>
        <path id="Path_1279088" data-name="Path 1279088" d="M241.822,160.029l.222-29.446-2-.015.019-2.5-16.559-.125-.019,2.5-71.035-.535-.222,29.446,71.035.536-.019,2.5,16.559.125.019-2.5Z" transform="translate(-148.403 -121.15)" fill="#fffefe"/>
        <path id="Path_1279089" data-name="Path 1279089" d="M172.264,144.776a7.391,7.391,0,1,0-7.447,7.339A7.393,7.393,0,0,0,172.264,144.776Zm-7.432,5.293a5.349,5.349,0,1,1,5.387-5.309A5.348,5.348,0,0,1,164.833,150.07Z" transform="translate(-148.403 -121.146)" fill="#719c65"/>
        <path id="Path_1279090" data-name="Path 1279090" d="M168.22,143.208c-.421-1.052-1.417-1.584-1.8-1.253a2.306,2.306,0,0,1-.891.353.755.755,0,0,0,.242-.538.878.878,0,0,0-1.748-.013.754.754,0,0,0,.234.541,2.305,2.305,0,0,1-.886-.366c-.379-.336-1.383.18-1.82,1.226a3.884,3.884,0,0,0-.5,2.523c.234.574.722-.948,1.437-1.038a2.372,2.372,0,0,1,1.323.593,1.711,1.711,0,0,0,.314.51l-1.236-.009c0,.034,0,.069,0,.1q-.009,1.156-.017,2.312c0,.034,0,.069,0,.1a9.719,9.719,0,0,0,3.946.03c0-.034,0-.069,0-.1q.009-1.156.017-2.312c0-.034,0-.069,0-.1l-1.236-.009a1.714,1.714,0,0,0,.322-.505,2.374,2.374,0,0,1,1.331-.573c.714.1,1.179,1.63,1.421,1.059A3.875,3.875,0,0,0,168.22,143.208Zm-3.331-.647h-.008v0h.015v0Z" transform="translate(-148.403 -121.145)" fill="#719c65"/>
        <path id="Path_1279091" data-name="Path 1279091" d="M232.25,145.265c.006-.414-.576-.763-1.34-.838-.012-.1-.024-.194-.04-.291.71-.289,1.167-.79,1.043-1.186s-.783-.547-1.533-.384c-.042-.088-.079-.18-.125-.266.583-.5.861-1.111.621-1.449s-.913-.277-1.575.11c-.068-.071-.135-.141-.2-.211.4-.652.48-1.326.148-1.575s-.952.018-1.462.588c-.086-.048-.177-.087-.263-.132.181-.746.047-1.41-.348-1.543s-.9.312-1.209,1.015c-.1-.019-.193-.034-.29-.047-.057-.766-.392-1.357-.807-1.362s-.761.577-.837,1.341c-.1.011-.2.025-.293.04-.287-.709-.79-1.166-1.185-1.042s-.546.783-.382,1.532c-.089.041-.182.079-.267.125-.495-.582-1.109-.861-1.447-.622s-.278.914.111,1.575c-.074.068-.143.136-.211.206-.652-.4-1.326-.479-1.574-.146s.019.95.586,1.459c-.047.086-.088.177-.131.266-.743-.183-1.409-.047-1.542.347s.312.9,1.014,1.21c-.017.1-.033.192-.047.29-.766.054-1.354.389-1.36.8s.577.765,1.341.839c.012.1.024.193.04.291-.711.289-1.167.789-1.044,1.186s.785.549,1.534.384c.04.089.079.181.124.267-.585.494-.862,1.109-.62,1.447s.915.28,1.574-.109c.067.072.136.141.207.211-.407.652-.483,1.325-.147,1.573s.951-.014,1.46-.586c.086.049.176.088.265.131-.186.746-.049,1.411.345,1.543s.9-.311,1.212-1.014c.095.018.192.034.289.047.055.767.39,1.358.806,1.362s.763-.576.836-1.341c.1-.011.193-.024.291-.041.289.712.789,1.169,1.188,1.044s.546-.785.381-1.536c.089-.04.18-.079.267-.124.495.585,1.109.864,1.449.624s.278-.915-.11-1.578c.069-.067.141-.134.21-.2.652.405,1.326.482,1.573.148s-.015-.954-.586-1.462c.048-.086.087-.174.133-.264.744.185,1.409.049,1.541-.345s-.312-.9-1.014-1.211c.021-.1.034-.191.049-.29C231.655,146.016,232.247,145.681,232.25,145.265Zm-7.521,5.845a5.938,5.938,0,1,1,5.981-5.893A5.937,5.937,0,0,1,224.73,151.111Z" transform="translate(-148.403 -121.146)" fill="#7fae71"/>
        <path id="Path_1279092" data-name="Path 1279092" d="M229.6,145.207a4.825,4.825,0,1,0-4.861,4.79A4.826,4.826,0,0,0,229.6,145.207Zm-4.857,4.211a4.248,4.248,0,1,1,4.278-4.215A4.247,4.247,0,0,1,224.742,149.419Z" transform="translate(-148.403 -121.145)" fill="#7fae71"/>
        <path id="Path_1279093" data-name="Path 1279093" d="M228.034,148.624l-2.714-2.23h-.131l-.238,0,.024-3.1a9.113,9.113,0,0,1,1.642.2L226.6,145.1l-.876-.006a1.215,1.215,0,0,0,2.347.018l-1.158-.009.012-1.617c.027-.108.041-.157.075-.292a5.22,5.22,0,0,0-4.428-.026c.033.143.044.184.073.306l-.012,1.6-1.218-.009a1.215,1.215,0,0,0,2.347.017l-.817-.006.012-1.619a9.128,9.128,0,0,1,1.646-.171l-.024,3.1-.291,0h-.078l-2.748,2.189,1.031.008,2.269-1.807L227,148.616Z" transform="translate(-148.403 -121.144)" fill="#7fae71"/>
        <path id="Path_1279094" data-name="Path 1279094" d="M187.581,130.444s4.017.372,5.452,2.865.99,4.8,1.579,6.087,3.556,4.818,2.085,7.032-2.155,2.294-2.926,2.459,5.007,5.171,6.361,7.15,2.787,4.727,2.787,4.727l-33.441-.081s2.1-5.717,4.932-7.578,2.669-2.376,2.669-2.376-2.735-.277-2.634-2.244,1.388-2.642,1.478-3.24-1.184-1.806-.061-3.166.447-2.564.879-3.159a25.086,25.086,0,0,0,1.559-2.555c.088-.256,1.566-3.5,2.684-4.258A9.191,9.191,0,0,1,187.581,130.444Z" transform="translate(-148.403 -121.149)" fill="#719c65"/>
        <path id="Path_1279095" data-name="Path 1279095" d="M214.21,154.647l-.005-.006v-.06h-.055a3.479,3.479,0,0,1-1.163-2.633l.7.005a.484.484,0,1,0,.007-.968l-6.818-.052a.484.484,0,1,0-.007.968l.7.005a3.48,3.48,0,0,1-1.2,2.615h-.055v.06l-.005.006h.005l-.029,3.895,7.9.06.029-3.895Z" transform="translate(-148.403 -121.141)" fill="#e6a643"/>
        <rect id="Rectangle_413086" data-name="Rectangle 413086" width="4.595" height="5.758" transform="matrix(1, 0.007, -0.007, 1, 51.514, 2.834)" fill="#87adfc" opacity="0.5"/>
        <rect id="Rectangle_413087" data-name="Rectangle 413087" width="4.595" height="5.758" transform="matrix(1, 0.007, -0.007, 1, 51.244, 39.02)" fill="#87adfc" opacity="0.5"/>
        <rect id="Rectangle_413088" data-name="Rectangle 413088" width="4.595" height="9.813" transform="matrix(1, 0.007, -0.007, 1, 51.451, 11.221)" fill="#87adfc" opacity="0.5"/>
        <rect id="Rectangle_413089" data-name="Rectangle 413089" width="4.595" height="12.341" transform="matrix(1, 0.007, -0.007, 1, 51.36, 23.511)" fill="#87adfc" opacity="0.5"/>
        <path id="Path_1279096" data-name="Path 1279096" d="M227.693,158.785l-.189-.211.134-.147a.516.516,0,0,0,.144-.345l0-.665a.517.517,0,0,0-.138-.347l-.252-.282a.323.323,0,0,0-.064-.038l.135-.181.067-.149-.07-.12a.343.343,0,0,0-.3-.157h-.051l-.559.1a1.433,1.433,0,0,0-.377.12l-.933.463a.8.8,0,0,0-.288.228l-.221.3-.068.149.07.12a.345.345,0,0,0,.3.158h.05l.559-.1a1.44,1.44,0,0,0,.378-.12l.491-.244a.461.461,0,0,0-.02.1l0,.665a.517.517,0,0,0,.138.347l.188.211-.134.147a.511.511,0,0,0-.145.346l0,.665a.515.515,0,0,0,.139.348l.252.282a.369.369,0,0,0,.25.09.383.383,0,0,0,.269-.1l.239-.262a.517.517,0,0,0,.143-.345l0-.665A.51.51,0,0,0,227.693,158.785Z" transform="translate(-148.403 -121.139)" fill="#e6a643"/>
        <path id="Path_1279097" data-name="Path 1279097" d="M238.414,158.9a.519.519,0,0,0-.139-.348l-.159-.179.132-.144a.517.517,0,0,0,.143-.345l0-.665a.515.515,0,0,0-.138-.347l-.254-.284a.31.31,0,0,0-.053-.031.3.3,0,0,0-.236-.279l-.52-.123a1.844,1.844,0,0,0-.416-.049l-1.315-.01a1.9,1.9,0,0,0-.418.042l-.533.119a.293.293,0,0,0-.225.255.4.4,0,0,0-.107.066l-.237.26a.511.511,0,0,0-.145.346l0,.665a.517.517,0,0,0,.139.348l.122.137-.169.185a.517.517,0,0,0-.143.345l0,.665a.515.515,0,0,0,.138.347l.254.284a.334.334,0,0,0,.133.069.3.3,0,0,0,.23.242l.519.123a1.856,1.856,0,0,0,.417.049l1.315.01a1.859,1.859,0,0,0,.417-.042l.533-.119a.293.293,0,0,0,.225-.255.407.407,0,0,0,.107-.067l.238-.261a.515.515,0,0,0,.144-.345Zm-1.149-.355a.517.517,0,0,0-.143.345l0,.665a.5.5,0,0,0,.086.264l-.037-.009a1.863,1.863,0,0,0-.416-.049l-1.315-.01a1.876,1.876,0,0,0-.417.043l-.087.019a.5.5,0,0,0,.1-.273l0-.665a.519.519,0,0,0-.139-.348l-.122-.137.169-.185a.517.517,0,0,0,.143-.345l0-.665a.5.5,0,0,0-.086-.263l.035.008a1.875,1.875,0,0,0,.417.049l1.315.01a1.871,1.871,0,0,0,.417-.043.494.494,0,0,0-.085.253l0,.665a.515.515,0,0,0,.139.348l.159.179Z" transform="translate(-148.403 -121.139)" fill="#e6a643"/>
        <path id="Path_1279098" data-name="Path 1279098" d="M233,158.515l-.159-.179.132-.144a.517.517,0,0,0,.143-.345l0-.665a.515.515,0,0,0-.138-.347l-.254-.284a.347.347,0,0,0-.053-.031.3.3,0,0,0-.236-.279l-.519-.123a1.844,1.844,0,0,0-.417-.049l-1.315-.01a1.862,1.862,0,0,0-.417.042l-.533.119a.293.293,0,0,0-.225.255.4.4,0,0,0-.107.066l-.238.261a.514.514,0,0,0-.144.345l0,.665a.519.519,0,0,0,.139.348l.122.137-.169.185a.517.517,0,0,0-.143.345l0,.665a.515.515,0,0,0,.138.347l.254.284a.334.334,0,0,0,.133.069.3.3,0,0,0,.23.242l.52.123a1.847,1.847,0,0,0,.416.049l1.315.01a1.9,1.9,0,0,0,.418-.042l.533-.119a.293.293,0,0,0,.225-.255.4.4,0,0,0,.107-.067l.237-.26a.511.511,0,0,0,.145-.346l0-.665A.517.517,0,0,0,233,158.515Zm-1.009-.006a.517.517,0,0,0-.143.345l0,.665a.5.5,0,0,0,.086.264l-.036-.008a1.865,1.865,0,0,0-.417-.049l-1.315-.01a1.866,1.866,0,0,0-.417.043l-.087.019a.5.5,0,0,0,.1-.274l0-.665a.517.517,0,0,0-.139-.348l-.122-.137.168-.184a.516.516,0,0,0,.144-.346l0-.665a.5.5,0,0,0-.086-.263l.036.008a1.863,1.863,0,0,0,.416.049l1.315.01a1.9,1.9,0,0,0,.417-.043.487.487,0,0,0-.085.253l0,.665a.519.519,0,0,0,.139.348l.159.179Z" transform="translate(-148.403 -121.139)" fill="#e6a643"/>
        <path id="Path_1279099" data-name="Path 1279099" d="M227.894,132l-.188-.211.136-.148a.517.517,0,0,0,.143-.345l0-.665a.517.517,0,0,0-.138-.347L227.6,130a.308.308,0,0,0-.063-.037l.135-.181.067-.149-.07-.12a.345.345,0,0,0-.3-.158h-.05l-.559.1a1.442,1.442,0,0,0-.378.12l-.933.463a.794.794,0,0,0-.289.228l-.221.3-.067.149.07.12a.345.345,0,0,0,.3.158h.05l.559-.1a1.431,1.431,0,0,0,.377-.12l.491-.243a.462.462,0,0,0-.02.1l0,.665a.519.519,0,0,0,.138.348l.188.211-.134.146a.511.511,0,0,0-.145.346l0,.665a.511.511,0,0,0,.138.347l.254.284a.371.371,0,0,0,.248.089.381.381,0,0,0,.269-.1l.238-.261a.515.515,0,0,0,.144-.345l0-.665A.51.51,0,0,0,227.894,132Z" transform="translate(-148.403 -121.149)" fill="#719c65"/>
        <path id="Path_1279100" data-name="Path 1279100" d="M238.616,132.115a.515.515,0,0,0-.138-.347l-.16-.18.131-.143a.515.515,0,0,0,.144-.345l0-.665a.516.516,0,0,0-.139-.347l-.252-.282a.663.663,0,0,1-.291-.311l-.52-.123a1.864,1.864,0,0,0-.416-.049l-1.315-.01a1.887,1.887,0,0,0-.418.043l-.533.119a.293.293,0,0,0-.225.254.4.4,0,0,0-.106.066l-.238.26a.511.511,0,0,0-.145.346l0,.665a.512.512,0,0,0,.138.347l.123.138-.168.184a.514.514,0,0,0-.144.345l0,.665a.516.516,0,0,0,.139.347l.252.282a.339.339,0,0,0,.134.071.3.3,0,0,0,.23.242l.519.123a1.876,1.876,0,0,0,.417.049l1.315.01a1.875,1.875,0,0,0,.417-.043l.533-.119a.293.293,0,0,0,.225-.254.389.389,0,0,0,.107-.067l.238-.261a.515.515,0,0,0,.144-.345Zm-1.664.86-1.315-.01a1.884,1.884,0,0,0-.418.043l-.086.019a.5.5,0,0,0,.1-.273l0-.665a.515.515,0,0,0-.138-.347l-.123-.138.168-.184a.514.514,0,0,0,.144-.345l0-.665a.487.487,0,0,0-.086-.262l.035.008a1.875,1.875,0,0,0,.417.049l1.315.01a1.9,1.9,0,0,0,.416-.043.492.492,0,0,0-.084.253l0,.665a.512.512,0,0,0,.138.347l.16.18-.131.143a.514.514,0,0,0-.144.345l0,.665a.5.5,0,0,0,.086.263l-.037-.009A1.867,1.867,0,0,0,236.952,132.976Z" transform="translate(-148.403 -121.149)" fill="#719c65"/>
        <path id="Path_1279101" data-name="Path 1279101" d="M233.2,131.729l-.16-.18.131-.143a.515.515,0,0,0,.144-.345l0-.665a.514.514,0,0,0-.139-.347l-.252-.282a.33.33,0,0,0-.054-.032.3.3,0,0,0-.236-.279l-.519-.123a1.865,1.865,0,0,0-.417-.049l-1.315-.01a1.906,1.906,0,0,0-.417.043l-.533.119a.293.293,0,0,0-.225.254.4.4,0,0,0-.106.066l-.238.261a.514.514,0,0,0-.144.345l0,.665a.513.513,0,0,0,.139.347l.123.138-.168.184a.515.515,0,0,0-.144.345l0,.665a.515.515,0,0,0,.139.347l.252.282a.339.339,0,0,0,.134.071.3.3,0,0,0,.23.242l.52.123a1.864,1.864,0,0,0,.416.049l1.315.01a1.907,1.907,0,0,0,.418-.043l.533-.119a.293.293,0,0,0,.225-.254.39.39,0,0,0,.107-.067l.238-.26a.511.511,0,0,0,.145-.346l0-.665A.509.509,0,0,0,233.2,131.729Zm-1.526,1.207-1.315-.01a1.875,1.875,0,0,0-.417.043l-.087.019a.5.5,0,0,0,.1-.273l0-.665a.511.511,0,0,0-.138-.347l-.123-.138.168-.184a.511.511,0,0,0,.145-.346l0-.665a.49.49,0,0,0-.086-.263l.035.008a1.864,1.864,0,0,0,.416.049l1.315.01a1.871,1.871,0,0,0,.417-.043.49.49,0,0,0-.084.253l0,.665a.515.515,0,0,0,.138.347l.16.18-.131.143a.515.515,0,0,0-.144.345l0,.665a.493.493,0,0,0,.086.263l-.036-.008A1.962,1.962,0,0,0,231.678,132.936Z" transform="translate(-148.403 -121.149)" fill="#719c65"/>
      </g>
      <g id="Group_1209705" data-name="Group 1209705" transform="translate(153.035 173.395)">
        <rect id="Rectangle_413090" data-name="Rectangle 413090" width="97.18" height="42.007" transform="translate(6.987 0) rotate(5.347)" fill="#6c6b6b" opacity="0.5"/>
        <rect id="Rectangle_413091" data-name="Rectangle 413091" width="97.18" height="42.007" transform="translate(3.915 2.275) rotate(5.347)" fill="#fffefe"/>
        <rect id="Rectangle_413092" data-name="Rectangle 413092" width="36.164" height="91.345" transform="translate(3.189 41.443) rotate(-84.653)" fill="#719c65"/>
        <path id="Path_1279102" data-name="Path 1279102" d="M249.341,168.622l-3.118-.292.234-2.494L232.224,164.5,231.99,167l-71.855-6.726-2.743,29.319,71.855,6.726-.233,2.494,14.233,1.332.233-2.494,3.119.292Z" transform="translate(-153.035 -151.407)" fill="#fffefe"/>
        <path id="Path_1279103" data-name="Path 1279103" d="M227.683,178.264c-3.384.075-4.248-3.64-7.793-4.368s-3.121,2.084-6.7,1.328-3.7-2.678-7.3-4.182c-.622-.26-1.507-4.8-.925-4.817,3.333-.117,4.021,3.45,7.54,4.158s3.1-2.1,6.583-1.424,3.706,2.682,7.313,4.2C227.035,173.42,228.27,178.25,227.683,178.264Z" transform="translate(-153.035 -151.404)" fill="#e8cccc"/>
        <path id="Path_1279104" data-name="Path 1279104" d="M229.159,186.394c-3.476,0-4.347-3.722-7.985-4.528s-3.215,2.006-6.886,1.172-3.791-2.753-7.478-4.334c-.639-.273-1.533-4.82-.935-4.825,3.426-.04,4.119,3.533,7.732,4.318s3.19-2.026,6.77-1.269,3.8,2.757,7.5,4.349C228.518,181.555,229.762,186.393,229.159,186.394Z" transform="translate(-153.035 -151.401)" fill="#e8cccc"/>
        <path id="Path_1279105" data-name="Path 1279105" d="M230.635,194.524c-3.568-.078-4.445-3.8-8.177-4.687s-3.308,1.928-7.073,1.016-3.881-2.828-7.661-4.486c-.654-.286-1.558-4.841-.944-4.833,3.518.036,4.218,3.614,7.924,4.477s3.283-1.948,6.958-1.113,3.886,2.832,7.678,4.5C230,189.69,231.254,194.536,230.635,194.524Z" transform="translate(-153.035 -151.398)" fill="#e8cccc"/>
        <path id="Path_1279106" data-name="Path 1279106" d="M171.932,168.734a7.394,7.394,0,1,0,6.67,8.051A7.392,7.392,0,0,0,171.932,168.734Zm4.635,7.86a5.347,5.347,0,1,1-4.826-5.824A5.348,5.348,0,0,1,176.567,176.594Z" transform="translate(-153.035 -151.403)" fill="#719c65"/>
        <path id="Path_1279107" data-name="Path 1279107" d="M174.707,174.876c-.329-1.084-1.277-1.7-1.687-1.4a2.306,2.306,0,0,1-.918.275.757.757,0,0,0,.287-.515.878.878,0,0,0-1.74-.163.754.754,0,0,0,.187.559,2.3,2.3,0,0,1-.851-.44c-.349-.368-1.393.061-1.918,1.065a3.877,3.877,0,0,0-.709,2.471c.184.592.8-.882,1.521-.911a2.372,2.372,0,0,1,1.267.7,1.71,1.71,0,0,0,.269.535l-1.231-.115c0,.034-.006.069-.01.1l-.215,2.3c0,.034-.006.069-.01.1a9.732,9.732,0,0,0,3.929.368c0-.034.006-.069.01-.1l.215-2.3c0-.034.006-.069.01-.1l-1.231-.115a1.707,1.707,0,0,0,.364-.476,2.37,2.37,0,0,1,1.376-.456c.7.161,1.035,1.724,1.326,1.178A3.88,3.88,0,0,0,174.707,174.876Zm-3.263-.931h-.008v0l.007,0h.007v0Z" transform="translate(-153.035 -151.402)" fill="#719c65"/>
        <path id="Path_1279108" data-name="Path 1279108" d="M238.327,182.41c.042-.412-.509-.81-1.264-.95,0-.1-.007-.2-.015-.293.732-.228,1.231-.687,1.141-1.092s-.733-.612-1.495-.514c-.035-.091-.063-.186-.1-.275.623-.444.953-1.033.743-1.39s-.886-.355-1.579-.025c-.061-.077-.122-.152-.186-.228.459-.615.592-1.28.282-1.556s-.95-.063-1.507.46c-.081-.055-.169-.1-.25-.154.244-.727.167-1.4-.214-1.568s-.924.234-1.292.907c-.094-.027-.19-.05-.285-.072.009-.768-.274-1.385-.687-1.426s-.807.51-.949,1.264c-.1,0-.2.008-.295.015-.225-.731-.687-1.23-1.092-1.14s-.611.733-.512,1.494c-.091.034-.188.063-.277.1-.443-.623-1.031-.953-1.389-.743s-.355.887-.025,1.579c-.079.061-.154.123-.228.186-.615-.458-1.28-.59-1.556-.28s-.062.948.459,1.5c-.054.082-.1.169-.153.253-.725-.246-1.4-.168-1.566.213s.234.925.907,1.292q-.038.141-.072.285c-.767-.012-1.382.271-1.424.685s.509.812,1.264.951c0,.1.008.195.015.293-.733.227-1.23.686-1.142,1.092s.736.615,1.5.514c.032.092.063.187.1.277-.625.443-.953,1.031-.742,1.389s.887.358,1.578.027c.06.078.123.152.188.227-.461.615-.595,1.279-.282,1.555s.949.067,1.505-.459c.081.056.167.1.252.153-.249.727-.17,1.4.211,1.568s.927-.233,1.294-.907c.093.026.189.05.284.072-.011.769.273,1.387.687,1.426s.809-.509.948-1.265c.1,0,.195-.008.293-.016.227.734.686,1.233,1.094,1.142s.612-.735.511-1.5c.093-.032.187-.063.277-.1.443.626,1.032.956,1.39.746s.356-.888.025-1.581c.075-.061.151-.122.227-.186.615.46,1.279.594,1.555.282s.067-.952-.459-1.507c.055-.081.1-.166.155-.251.725.248,1.4.17,1.565-.212s-.234-.928-.907-1.294c.029-.093.05-.188.074-.284C237.669,183.107,238.288,182.824,238.327,182.41Zm-1.531-.18a5.936,5.936,0,1,1-5.357-6.466A5.937,5.937,0,0,1,236.8,182.23Z" transform="translate(-153.035 -151.401)" fill="#7fae71"/>
        <path id="Path_1279109" data-name="Path 1279109" d="M231.336,176.87a4.827,4.827,0,1,0,4.354,5.256A4.825,4.825,0,0,0,231.336,176.87Zm3.778,5.2a4.246,4.246,0,1,1-3.832-4.625A4.246,4.246,0,0,1,235.114,182.071Z" transform="translate(-153.035 -151.4)" fill="#7fae71"/>
        <path id="Path_1279110" data-name="Path 1279110" d="M231.841,181.682c-.046.5.439.946,1.085,1.006a1.065,1.065,0,0,0,1.252-.787l-1.153-.108.15-1.61c.036-.105.055-.153.1-.285a5.223,5.223,0,0,0-4.41-.405c.021.146.028.188.046.311l-.148,1.59-1.213-.114c-.046.5.439.946,1.084,1.006a1.065,1.065,0,0,0,1.252-.787l-.813-.076.151-1.612a9.111,9.111,0,0,1,1.654-.03l-.289,3.091-.29-.027h0l-.077-.007-2.925,1.945,1.027.1,2.415-1.606,2.075,2.026,1.027.1-2.514-2.454-.367-.034.289-3.091a9.093,9.093,0,0,1,1.619.336l-.151,1.611Z" transform="translate(-153.035 -151.399)" fill="#7fae71"/>
        <path id="Path_1279111" data-name="Path 1279111" d="M174.83,191.431a10.43,10.43,0,0,1,.861-2.879s4.642-3.54,6.222-4.154,1.618-3.739,1.618-3.739a4.485,4.485,0,0,1-1.439-3.6c.28-2.088.413-2.725,1.024-2.922s-.739-3.733,0-5.354c0,0,2.344-1.557,2.912-3.11s3.367-2.56,3.367-2.56l5.12.394s2.635.754,2.952,1.883,1.652.408,2.273,1.9a14.4,14.4,0,0,1,1.042,6.748c-.206,3.13-1.238,7.1-2.026,8.3s1.367,1.65,1.367,1.65l-.993.668,7.543,4.066,1.125,6.3Z" transform="translate(-153.035 -151.406)" fill="#719c65"/>
        <path id="Path_1279112" data-name="Path 1279112" d="M235.837,195.221a1.559,1.559,0,0,1-.273-.237l-.506-.171a1.824,1.824,0,0,0-.413-.087l-1.309-.122a1.822,1.822,0,0,0-.421.009l-.028,0a.488.488,0,0,0,.055-.181l.064-.683a.5.5,0,0,0-.04-.229l.05.017a1.792,1.792,0,0,0,.413.087l1.309.122a1.825,1.825,0,0,0,.422-.009l.543-.077a.3.3,0,0,0,.249-.257.3.3,0,0,0-.21-.3l-.506-.171a1.8,1.8,0,0,0-.413-.087l-1.309-.122a1.821,1.821,0,0,0-.421.009l-.543.076a.31.31,0,0,0-.224.165.383.383,0,0,0-.172.074l-.261.248a.532.532,0,0,0-.171.334l-.064.683a.532.532,0,0,0,.106.361l.226.312a.344.344,0,0,0,.161.092.332.332,0,0,0,.184.169l.506.171a1.793,1.793,0,0,0,.413.087l1.309.122a1.823,1.823,0,0,0,.367-.007.5.5,0,0,0-.045.151l-.064.682a.5.5,0,0,0,.038.225,1.782,1.782,0,0,0-.387-.081l-1.309-.122a1.79,1.79,0,0,0-.421.008l-.542.077a.294.294,0,0,0-.25.257.3.3,0,0,0,.21.3l.506.172a1.8,1.8,0,0,0,.413.086l1.309.122a1.794,1.794,0,0,0,.422-.008l.542-.077a.3.3,0,0,0,.238-.212.4.4,0,0,0,.087-.045l.261-.248a.532.532,0,0,0,.171-.335l.064-.682a.532.532,0,0,0-.106-.361Z" transform="translate(-153.035 -151.394)" fill="#e6a643"/>
        <path id="Path_1279113" data-name="Path 1279113" d="M241.443,195.332l.062-.662a.517.517,0,0,0-.108-.358l-.229-.3a.335.335,0,0,0-.05-.035.3.3,0,0,0-.212-.3l-.507-.168a1.858,1.858,0,0,0-.411-.085l-1.309-.122a1.9,1.9,0,0,0-.42.007l-.541.073a.293.293,0,0,0-.247.234.4.4,0,0,0-.112.057l-.259.24a.514.514,0,0,0-.173.332l-.062.662a.517.517,0,0,0,.108.357l.111.148-.183.169a.514.514,0,0,0-.173.332l-.062.662a.519.519,0,0,0,.108.358l.228.3a.34.34,0,0,0,.126.081.3.3,0,0,0,.209.261l.507.168a1.858,1.858,0,0,0,.411.085l1.309.122a1.9,1.9,0,0,0,.42-.007l.541-.073a.293.293,0,0,0,.247-.235.393.393,0,0,0,.112-.057l.261-.24a.514.514,0,0,0,.173-.331l.062-.662a.517.517,0,0,0-.108-.358l-.144-.192.143-.131A.519.519,0,0,0,241.443,195.332Zm-1.795,1.728-1.309-.122a1.9,1.9,0,0,0-.42.007l-.088.012a.5.5,0,0,0,.12-.264l.062-.662a.519.519,0,0,0-.108-.358l-.111-.148.183-.169a.514.514,0,0,0,.173-.332l.062-.662a.493.493,0,0,0-.062-.269l.034.011a1.85,1.85,0,0,0,.411.084l1.309.122a1.883,1.883,0,0,0,.419-.006.486.486,0,0,0-.105.244l-.062.662a.517.517,0,0,0,.108.358l.144.193-.143.131a.514.514,0,0,0-.173.331l-.062.662a.493.493,0,0,0,.063.27l-.035-.012A1.874,1.874,0,0,0,239.648,197.06Z" transform="translate(-153.035 -151.394)" fill="#e6a643"/>
        <path id="Path_1279114" data-name="Path 1279114" d="M238.274,169.177a.32.32,0,0,0-.087-.063.327.327,0,0,0-.186-.173l-.506-.171a1.819,1.819,0,0,0-.413-.087l-1.309-.122a1.818,1.818,0,0,0-.421.008l-.028,0a.5.5,0,0,0,.055-.181l.064-.683a.5.5,0,0,0-.04-.229l.05.017a1.8,1.8,0,0,0,.413.086l1.309.122a1.8,1.8,0,0,0,.422-.008l.542-.077a.294.294,0,0,0,.25-.256.3.3,0,0,0-.21-.3l-.507-.172a1.83,1.83,0,0,0-.412-.086l-1.309-.122a1.824,1.824,0,0,0-.421.008l-.542.077a.308.308,0,0,0-.226.165.374.374,0,0,0-.172.075l-.261.248a.532.532,0,0,0-.171.334l-.064.683a.532.532,0,0,0,.106.361l.226.312a.344.344,0,0,0,.161.092.327.327,0,0,0,.184.168l.506.172a1.823,1.823,0,0,0,.413.087l1.309.122a1.819,1.819,0,0,0,.367-.007.486.486,0,0,0-.044.152l-.064.682a.5.5,0,0,0,.038.225,1.814,1.814,0,0,0-.387-.081l-1.309-.122a1.819,1.819,0,0,0-.421.008l-.542.077a.293.293,0,0,0-.25.257.3.3,0,0,0,.21.3l.507.172a1.832,1.832,0,0,0,.412.086l1.309.122a1.829,1.829,0,0,0,.422-.008l.542-.077a.3.3,0,0,0,.238-.212.4.4,0,0,0,.087-.045l.261-.248a.532.532,0,0,0,.171-.335l.064-.682a.532.532,0,0,0-.105-.361Z" transform="translate(-153.035 -151.404)" fill="#719c65"/>
        <path id="Path_1279115" data-name="Path 1279115" d="M243.88,169.289l.062-.662a.517.517,0,0,0-.108-.358l-.229-.3a.355.355,0,0,0-.049-.035.3.3,0,0,0-.213-.3l-.505-.167a1.849,1.849,0,0,0-.412-.085l-1.309-.122a1.831,1.831,0,0,0-.42.007l-.541.072a.293.293,0,0,0-.247.235.4.4,0,0,0-.112.057l-.259.24a.514.514,0,0,0-.173.332l-.062.662a.517.517,0,0,0,.108.359l.11.147-.184.17a.515.515,0,0,0-.172.331l-.062.662a.519.519,0,0,0,.108.359l.229.3a.335.335,0,0,0,.126.079.3.3,0,0,0,.209.261l.507.168a1.856,1.856,0,0,0,.411.084l1.309.122a1.862,1.862,0,0,0,.42-.006l.541-.073a.293.293,0,0,0,.247-.235.4.4,0,0,0,.112-.057l.262-.241a.515.515,0,0,0,.172-.331l.062-.662a.518.518,0,0,0-.108-.358l-.144-.192.143-.131A.516.516,0,0,0,243.88,169.289Zm-1.8,1.728-1.309-.122a1.9,1.9,0,0,0-.42.007l-.088.012a.5.5,0,0,0,.12-.265l.062-.662a.517.517,0,0,0-.108-.358l-.111-.147.183-.169a.514.514,0,0,0,.173-.332l.062-.662a.5.5,0,0,0-.062-.269l.034.011a1.85,1.85,0,0,0,.412.085l1.309.122a1.827,1.827,0,0,0,.419-.007.493.493,0,0,0-.106.245l-.062.662a.516.516,0,0,0,.109.358l.144.192-.144.132a.515.515,0,0,0-.172.331l-.062.662a.5.5,0,0,0,.063.27l-.035-.012A1.835,1.835,0,0,0,242.085,171.016Z" transform="translate(-153.035 -151.404)" fill="#719c65"/>
      </g>
      <g id="Group_1209713" data-name="Group 1209713" transform="translate(136.154 59.27)">
        <path id="Path_1279116" data-name="Path 1279116" d="M210.159,42.284V39.836h-1.318v2.448h-3.418V39.836h-1.318v2.448h-3.418V39.836H199.37v2.448h-3.418V39.836h-1.318v2.448h-3.418V39.836H189.9v2.448h-3.418V39.836h-1.318v2.448h-3.418V39.836h-1.318v2.448H177.01V39.836h-1.318v2.448h-3.418V39.836h-1.317v2.448h-3.418V39.836h-1.318v2.448H162.8V39.836h-1.318v2.448h-3.418V39.836H156.75v2.448h-3.418V39.836h-1.318v2.448H148.6V39.836h-1.317v2.448h-3.456V39.836h-1.318v2.448h-3.317v62.463H214.02V42.284Z" transform="translate(-136.154 -39.836)" fill="#ccc"/>
        <rect id="Rectangle_413093" data-name="Rectangle 413093" width="74.832" height="62.463" transform="translate(0 5.551)" fill="#fff"/>
        <rect id="Rectangle_413094" data-name="Rectangle 413094" width="74.832" height="10.609" transform="translate(0 5.551)" fill="#ed7a2c"/>
        <g id="Group_1209706" data-name="Group 1209706" transform="translate(2.818 8.41)">
          <ellipse id="Ellipse_12672" data-name="Ellipse 12672" cx="1.448" cy="1.449" rx="1.448" ry="1.449" fill="#666"/>
          <ellipse id="Ellipse_12673" data-name="Ellipse 12673" cx="1.448" cy="1.449" rx="1.448" ry="1.449" transform="translate(4.736)" fill="#666"/>
          <ellipse id="Ellipse_12674" data-name="Ellipse 12674" cx="1.448" cy="1.449" rx="1.448" ry="1.449" transform="translate(9.471)" fill="#666"/>
          <ellipse id="Ellipse_12675" data-name="Ellipse 12675" cx="1.448" cy="1.449" rx="1.448" ry="1.449" transform="translate(14.207)" fill="#666"/>
          <ellipse id="Ellipse_12676" data-name="Ellipse 12676" cx="1.448" cy="1.449" rx="1.448" ry="1.449" transform="translate(18.942)" fill="#666"/>
          <ellipse id="Ellipse_12677" data-name="Ellipse 12677" cx="1.448" cy="1.449" rx="1.448" ry="1.449" transform="translate(23.678)" fill="#666"/>
          <ellipse id="Ellipse_12678" data-name="Ellipse 12678" cx="1.448" cy="1.449" rx="1.448" ry="1.449" transform="translate(28.414)" fill="#666"/>
          <ellipse id="Ellipse_12679" data-name="Ellipse 12679" cx="1.448" cy="1.449" rx="1.448" ry="1.449" transform="translate(33.15)" fill="#666"/>
          <ellipse id="Ellipse_12680" data-name="Ellipse 12680" cx="1.448" cy="1.449" rx="1.448" ry="1.449" transform="translate(37.885)" fill="#666"/>
          <ellipse id="Ellipse_12681" data-name="Ellipse 12681" cx="1.448" cy="1.449" rx="1.448" ry="1.449" transform="translate(42.621)" fill="#666"/>
          <ellipse id="Ellipse_12682" data-name="Ellipse 12682" cx="1.448" cy="1.449" rx="1.448" ry="1.449" transform="translate(47.356)" fill="#666"/>
          <ellipse id="Ellipse_12683" data-name="Ellipse 12683" cx="1.448" cy="1.449" rx="1.448" ry="1.449" transform="translate(52.092)" fill="#666"/>
          <ellipse id="Ellipse_12684" data-name="Ellipse 12684" cx="1.448" cy="1.449" rx="1.448" ry="1.449" transform="translate(56.828)" fill="#666"/>
          <ellipse id="Ellipse_12685" data-name="Ellipse 12685" cx="1.448" cy="1.449" rx="1.448" ry="1.449" transform="translate(61.563)" fill="#666"/>
          <ellipse id="Ellipse_12686" data-name="Ellipse 12686" cx="1.448" cy="1.449" rx="1.448" ry="1.449" transform="translate(66.299)" fill="#666"/>
        </g>
        <g id="Group_1209707" data-name="Group 1209707" transform="translate(3.589 3.103)">
          <rect id="Rectangle_413095" data-name="Rectangle 413095" width="1.318" height="6.619" fill="#fff"/>
          <rect id="Rectangle_413096" data-name="Rectangle 413096" width="1.318" height="6.619" transform="translate(4.773)" fill="#fff"/>
          <rect id="Rectangle_413097" data-name="Rectangle 413097" width="1.318" height="6.619" transform="translate(9.509)" fill="#fff"/>
          <rect id="Rectangle_413098" data-name="Rectangle 413098" width="1.318" height="6.619" transform="translate(14.245)" fill="#fff"/>
          <rect id="Rectangle_413099" data-name="Rectangle 413099" width="1.318" height="6.619" transform="translate(18.98)" fill="#fff"/>
          <rect id="Rectangle_413100" data-name="Rectangle 413100" width="1.318" height="6.619" transform="translate(23.716)" fill="#fff"/>
          <rect id="Rectangle_413101" data-name="Rectangle 413101" width="1.318" height="6.619" transform="translate(28.451)" fill="#fff"/>
          <rect id="Rectangle_413102" data-name="Rectangle 413102" width="1.318" height="6.619" transform="translate(33.187)" fill="#fff"/>
          <rect id="Rectangle_413103" data-name="Rectangle 413103" width="1.318" height="6.619" transform="translate(37.923)" fill="#fff"/>
          <rect id="Rectangle_413104" data-name="Rectangle 413104" width="1.318" height="6.619" transform="translate(42.658)" fill="#fff"/>
          <rect id="Rectangle_413105" data-name="Rectangle 413105" width="1.318" height="6.619" transform="translate(47.394)" fill="#fff"/>
          <rect id="Rectangle_413106" data-name="Rectangle 413106" width="1.318" height="6.619" transform="translate(52.129)" fill="#fff"/>
          <rect id="Rectangle_413107" data-name="Rectangle 413107" width="1.318" height="6.619" transform="translate(56.865)" fill="#fff"/>
          <rect id="Rectangle_413108" data-name="Rectangle 413108" width="1.318" height="6.619" transform="translate(61.601)" fill="#fff"/>
          <rect id="Rectangle_413109" data-name="Rectangle 413109" width="1.318" height="6.619" transform="translate(66.337)" fill="#fff"/>
        </g>
        <rect id="Rectangle_413110" data-name="Rectangle 413110" width="12.497" height="8.319" transform="translate(43.54 29.797)" fill="#ed7a2c"/>
        <path id="Path_1279117" data-name="Path 1279117" d="M142.131,102.987v-41.9H205.01v41.9Zm62.049-.83V94.792H192.6v7.365h11.58Zm-12.41,0V94.792H180.19v7.365h11.58Zm-12.41,0V94.792H167.78v7.365h11.58Zm-12.41,0V94.792h-11.58v7.365h11.58Zm-12.41,0V94.792H142.96v7.365h11.58Zm49.639-8.29V86.6H192.6v7.269Zm-12.41,0V86.6H180.19v7.269Zm-12.41,0V86.6H167.78v7.269Zm-12.41,0V86.6h-11.58v7.269Zm-12.41,0V86.6H142.96v7.269Zm49.639-8.195V78.4H192.6v7.27Zm-12.41,0V78.4H180.19v7.27Zm-12.41,0V78.4H167.78v7.27Zm-12.41,0V78.4h-11.58v7.27Zm-12.41,0V78.4H142.96v7.27Zm49.639-8.2V70.207H192.6v7.269Zm-12.41,0V70.207H180.19v7.269Zm-12.41,0V70.207H167.78v7.269Zm-12.41,0V70.207h-11.58v7.269Zm-12.41,0V70.207H142.96v7.269Zm49.639-8.195V61.916H192.6v7.365Zm-12.41,0V61.916H180.19v7.365Zm-12.41,0V61.916H167.78v7.365Zm-12.41,0V61.916h-11.58v7.365Zm-12.41,0V61.916H142.96v7.365Z" transform="translate(-136.154 -39.827)" fill="#548394"/>
        <g id="Group_1209708" data-name="Group 1209708" transform="translate(7.913 22.899)">
          <rect id="Rectangle_413111" data-name="Rectangle 413111" width="1.984" height="1.552" fill="#548394"/>
          <rect id="Rectangle_413112" data-name="Rectangle 413112" width="1.984" height="1.552" transform="translate(12.376)" fill="#548394"/>
          <rect id="Rectangle_413113" data-name="Rectangle 413113" width="1.984" height="1.552" transform="translate(24.752)" fill="#548394"/>
          <rect id="Rectangle_413114" data-name="Rectangle 413114" width="1.984" height="1.552" transform="translate(37.129)" fill="#548394"/>
          <rect id="Rectangle_413115" data-name="Rectangle 413115" width="1.984" height="1.552" transform="translate(49.505)" fill="#548394"/>
        </g>
        <g id="Group_1209709" data-name="Group 1209709" transform="translate(7.899 31.276)">
          <rect id="Rectangle_413116" data-name="Rectangle 413116" width="1.984" height="1.552" fill="#548394"/>
          <rect id="Rectangle_413117" data-name="Rectangle 413117" width="1.984" height="1.552" transform="translate(12.376)" fill="#548394"/>
          <rect id="Rectangle_413118" data-name="Rectangle 413118" width="1.984" height="1.552" transform="translate(24.753)" fill="#548394"/>
          <rect id="Rectangle_413119" data-name="Rectangle 413119" width="1.984" height="1.552" transform="translate(37.129)" fill="#548394"/>
          <rect id="Rectangle_413120" data-name="Rectangle 413120" width="1.984" height="1.552" transform="translate(49.505)" fill="#548394"/>
        </g>
        <g id="Group_1209710" data-name="Group 1209710" transform="translate(7.899 39.61)">
          <rect id="Rectangle_413121" data-name="Rectangle 413121" width="1.984" height="1.552" fill="#548394"/>
          <rect id="Rectangle_413122" data-name="Rectangle 413122" width="1.984" height="1.552" transform="translate(12.376)" fill="#548394"/>
          <rect id="Rectangle_413123" data-name="Rectangle 413123" width="1.984" height="1.552" transform="translate(24.753)" fill="#548394"/>
          <rect id="Rectangle_413124" data-name="Rectangle 413124" width="1.984" height="1.552" transform="translate(37.129)" fill="#548394"/>
          <rect id="Rectangle_413125" data-name="Rectangle 413125" width="1.984" height="1.552" transform="translate(49.505)" fill="#548394"/>
        </g>
        <g id="Group_1209711" data-name="Group 1209711" transform="translate(7.899 47.813)">
          <rect id="Rectangle_413126" data-name="Rectangle 413126" width="1.984" height="1.552" fill="#548394"/>
          <rect id="Rectangle_413127" data-name="Rectangle 413127" width="1.984" height="1.552" transform="translate(12.376)" fill="#548394"/>
          <rect id="Rectangle_413128" data-name="Rectangle 413128" width="1.984" height="1.552" transform="translate(24.753)" fill="#548394"/>
          <rect id="Rectangle_413129" data-name="Rectangle 413129" width="1.984" height="1.552" transform="translate(37.129)" fill="#548394"/>
          <rect id="Rectangle_413130" data-name="Rectangle 413130" width="1.984" height="1.552" transform="translate(49.505)" fill="#548394"/>
        </g>
        <g id="Group_1209712" data-name="Group 1209712" transform="translate(7.899 56.151)">
          <rect id="Rectangle_413131" data-name="Rectangle 413131" width="1.984" height="1.552" fill="#548394"/>
          <rect id="Rectangle_413132" data-name="Rectangle 413132" width="1.984" height="1.552" transform="translate(12.376)" fill="#548394"/>
          <rect id="Rectangle_413133" data-name="Rectangle 413133" width="1.984" height="1.552" transform="translate(24.753)" fill="#548394"/>
          <rect id="Rectangle_413134" data-name="Rectangle 413134" width="1.984" height="1.552" transform="translate(37.129)" fill="#548394"/>
          <rect id="Rectangle_413135" data-name="Rectangle 413135" width="1.984" height="1.552" transform="translate(49.505)" fill="#548394"/>
        </g>
      </g>
      <g id="Group_1209714" data-name="Group 1209714" transform="translate(199.187 226.073)">
        <path id="Path_1279118" data-name="Path 1279118" d="M214.519,226.344A10.182,10.182,0,1,1,224.7,216.162,10.191,10.191,0,0,1,214.519,226.344Z" transform="translate(-199.187 -203.292)" fill="#ccc"/>
        <circle id="Ellipse_12687" data-name="Ellipse 12687" cx="9.686" cy="9.686" r="9.686" transform="translate(0 13.698) rotate(-45)" fill="#ffe18c"/>
        <ellipse id="Ellipse_12688" data-name="Ellipse 12688" cx="8.437" cy="8.441" rx="8.437" ry="8.441" transform="translate(5.264 5.258)" fill="#e3ad26"/>
        <circle id="Ellipse_12689" data-name="Ellipse 12689" cx="8" cy="8" r="8" transform="translate(2.384 13.698) rotate(-45)" fill="#f5c953"/>
        <path id="Path_1279119" data-name="Path 1279119" d="M209.365,215.575c0,1.273.924,2.106,2.895,2.7,1.441.445,2.07.7,2.069,1.277,0,.469-.532.87-1.626.867a4.169,4.169,0,0,1-1.857-.393l-.025-.009-.082-.031h-.013a.908.908,0,0,0-.233-.035.871.871,0,0,0-.186,1.725,6.091,6.091,0,0,0,2.343.4c.05,0,.1,0,.147,0v.427a.7.7,0,1,0,1.4,0v-.567a.127.127,0,0,0,0-.014c1.694-.362,2.678-1.335,2.68-2.544,0-1.313-1.205-2.146-3.06-2.672-1.341-.392-1.871-.714-1.87-1.276,0-.59.615-.977,1.775-.974a5.412,5.412,0,0,1,2.18.47.843.843,0,0,0,.19.073l.02.008h0a.911.911,0,0,0,.2.025.883.883,0,0,0,.284-1.723,6.623,6.623,0,0,0-2.379-.531v-.5a.7.7,0,1,0-1.4,0v.553C210.479,213.089,209.369,214.248,209.365,215.575Z" transform="translate(-199.187 -203.29)" fill="#e3ad26"/>
        <path id="Path_1279120" data-name="Path 1279120" d="M208.965,215.174c0,1.273.924,2.106,2.894,2.7,1.441.445,2.07.7,2.069,1.277,0,.469-.532.87-1.626.868a4.174,4.174,0,0,1-1.857-.393l-.025-.009-.082-.031h-.013a.908.908,0,0,0-.233-.035.871.871,0,0,0-.186,1.725,6.091,6.091,0,0,0,2.343.4c.05,0,.1,0,.147,0v.427a.7.7,0,1,0,1.4,0v-.567a.131.131,0,0,0,0-.014c1.694-.362,2.678-1.335,2.68-2.544,0-1.313-1.205-2.146-3.06-2.672-1.341-.392-1.871-.714-1.87-1.276,0-.59.615-.977,1.775-.974a5.411,5.411,0,0,1,2.18.47.843.843,0,0,0,.19.073l.02.008h0a.911.911,0,0,0,.2.025.883.883,0,0,0,.284-1.723,6.625,6.625,0,0,0-2.379-.531v-.5a.7.7,0,1,0-1.4,0v.553C210.078,212.688,208.968,213.848,208.965,215.174Z" transform="translate(-199.187 -203.29)" fill="#ffe88c"/>
      </g>
      <g id="Group_1209715" data-name="Group 1209715" transform="translate(233.104 118.462)">
        <path id="Path_1279121" data-name="Path 1279121" d="M244.418,115.767a8.493,8.493,0,1,1,8.489-8.493A8.5,8.5,0,0,1,244.418,115.767Z" transform="translate(-233.104 -98.014)" fill="#ccc"/>
        <ellipse id="Ellipse_12690" data-name="Ellipse 12690" cx="8.079" cy="8.082" rx="8.079" ry="8.082" transform="translate(1.876 1.869)" fill="#ffe18c"/>
        <circle id="Ellipse_12691" data-name="Ellipse 12691" cx="7.038" cy="7.038" r="7.038" transform="translate(0 9.953) rotate(-45)" fill="#e3ad26"/>
        <circle id="Ellipse_12692" data-name="Ellipse 12692" cx="6.673" cy="6.673" r="6.673" transform="translate(0.515 9.953) rotate(-45)" fill="#f5c953"/>
        <path id="Path_1279122" data-name="Path 1279122" d="M240.12,106.784c0,1.062.77,1.757,2.415,2.251,1.2.371,1.727.584,1.726,1.065,0,.391-.444.725-1.356.724a3.479,3.479,0,0,1-1.549-.328l-.021-.007-.068-.026h-.011a.744.744,0,0,0-.194-.029.726.726,0,0,0-.155,1.439,5.08,5.08,0,0,0,1.954.335c.042,0,.082,0,.123,0v.356a.585.585,0,1,0,1.171,0v-.473a.086.086,0,0,0,0-.012c1.413-.3,2.234-1.114,2.236-2.122,0-1.095-1-1.789-2.552-2.229-1.119-.327-1.561-.6-1.56-1.064,0-.492.513-.815,1.481-.813a4.508,4.508,0,0,1,1.818.393.709.709,0,0,0,.158.061l.017.006h0a.737.737,0,0,0,.4-1.417,5.527,5.527,0,0,0-1.984-.443v-.421a.586.586,0,1,0-1.171,0v.462C241.049,104.711,240.123,105.678,240.12,106.784Z" transform="translate(-233.104 -98.012)" fill="#e3ad26"/>
        <path id="Path_1279123" data-name="Path 1279123" d="M239.786,106.451c0,1.062.77,1.756,2.415,2.251,1.2.371,1.727.584,1.726,1.065,0,.391-.444.725-1.356.724a3.479,3.479,0,0,1-1.549-.328l-.021-.007-.068-.026h-.011a.732.732,0,0,0-.937.7.731.731,0,0,0,.587.714,5.08,5.08,0,0,0,1.954.335c.042,0,.082,0,.123,0v.356a.585.585,0,1,0,1.171,0v-.473s0-.008,0-.012c1.413-.3,2.234-1.114,2.236-2.122,0-1.095-1-1.789-2.552-2.229-1.119-.327-1.561-.6-1.56-1.064,0-.492.513-.815,1.481-.813a4.507,4.507,0,0,1,1.818.393.7.7,0,0,0,.158.061l.017.006h0a.737.737,0,0,0,.4-1.417,5.527,5.527,0,0,0-1.984-.443V103.7a.586.586,0,1,0-1.171,0v.462C240.715,104.377,239.789,105.344,239.786,106.451Z" transform="translate(-233.104 -98.012)" fill="#ffe88c"/>
      </g>
      <g id="Group_1209716" data-name="Group 1209716" transform="translate(203.886 134.416)">
        <path id="Path_1279124" data-name="Path 1279124" d="M214.685,130.885a8.493,8.493,0,1,1,8.489-8.493A8.5,8.5,0,0,1,214.685,130.885Z" transform="translate(-203.886 -113.648)" fill="#ccc"/>
        <ellipse id="Ellipse_12693" data-name="Ellipse 12693" cx="8.082" cy="8.079" rx="8.082" ry="8.079" transform="translate(0.181 16.136) rotate(-80.828)" fill="#ffe18c"/>
        <ellipse id="Ellipse_12694" data-name="Ellipse 12694" cx="7.04" cy="7.038" rx="7.04" ry="7.038" transform="translate(1.34 15.209) rotate(-80.492)" fill="#e3ad26"/>
        <circle id="Ellipse_12695" data-name="Ellipse 12695" cx="6.673" cy="6.673" r="6.673" transform="translate(0 9.438) rotate(-45)" fill="#f5c953"/>
        <path id="Path_1279125" data-name="Path 1279125" d="M210.387,121.9c0,1.062.77,1.757,2.415,2.251,1.2.371,1.727.584,1.726,1.065,0,.391-.444.725-1.356.724a3.479,3.479,0,0,1-1.549-.328l-.021-.007-.068-.026h-.011a.732.732,0,0,0-.937.7.731.731,0,0,0,.587.714,5.08,5.08,0,0,0,1.954.335c.042,0,.082,0,.123,0v.356a.585.585,0,1,0,1.171,0v-.473a.089.089,0,0,0,0-.012c1.413-.3,2.234-1.114,2.236-2.122,0-1.095-1-1.789-2.552-2.229-1.119-.327-1.561-.6-1.56-1.064,0-.492.513-.815,1.481-.813a4.507,4.507,0,0,1,1.818.393.7.7,0,0,0,.158.061l.017.006h0a.735.735,0,0,0,.166.021.737.737,0,0,0,.236-1.438,5.525,5.525,0,0,0-1.984-.443v-.421a.586.586,0,1,0-1.171,0v.462C211.315,119.83,210.39,120.8,210.387,121.9Z" transform="translate(-203.886 -113.646)" fill="#e3ad26"/>
        <path id="Path_1279126" data-name="Path 1279126" d="M210.053,121.569c0,1.062.77,1.757,2.415,2.251,1.2.371,1.727.584,1.726,1.065,0,.391-.444.725-1.356.724a3.479,3.479,0,0,1-1.549-.328l-.021-.007-.068-.026h-.011a.744.744,0,0,0-.194-.029.726.726,0,0,0-.155,1.439,5.08,5.08,0,0,0,1.954.335c.042,0,.082,0,.123,0v.356a.585.585,0,1,0,1.171,0v-.473a.086.086,0,0,0,0-.012c1.413-.3,2.234-1.114,2.236-2.122,0-1.095-1-1.789-2.552-2.229-1.119-.327-1.561-.6-1.56-1.064,0-.492.513-.815,1.481-.813a4.507,4.507,0,0,1,1.818.393.7.7,0,0,0,.158.061l.017.007h0a.737.737,0,0,0,.4-1.417,5.525,5.525,0,0,0-1.984-.443v-.421a.586.586,0,1,0-1.171,0v.462C210.982,119.5,210.055,120.463,210.053,121.569Z" transform="translate(-203.886 -113.646)" fill="#ffe88c"/>
      </g>
      <g id="Group_1209721" data-name="Group 1209721" transform="translate(66.295 95.619)">
        <g id="Group_1209717" data-name="Group 1209717" transform="translate(0)">
          <path id="Path_1279127" data-name="Path 1279127" d="M194.643,231.679l-4.478-131.337h0l-.117-3.362-.111-3.223v-.021h0l0-.118-.116-3.362-.117-3.362L174.1,73.988l-15.137.543-15.136.543-15.136.543-15.137.543L98.419,76.7l-15.137.543L68.611,91.234v.041h0L73.55,236.019h0l7.517-.27,55.022-1.972Z" transform="translate(-66.295 -73.988)" fill="#6a6b67" opacity="0.5"/>
          <path id="Path_1279128" data-name="Path 1279128" d="M187.883,100.706l-15.136.533-15.137.533-15.136.533-15.137.533-15.136.533-15.137.533-15.136.533-15.137.533-.116-3.3-.116-3.3-.117-3.3-.116-3.3L81,78.011l15.136-.533,15.137-.533,15.136-.533,15.136-.533,15.137-.533,15.136-.533,15.6,12.68.117,3.3.116,3.3.117,3.3Z" transform="translate(-66.295 -73.988)" fill="#ffcc63"/>
          <rect id="Rectangle_413136" data-name="Rectangle 413136" width="121.169" height="142.307" transform="matrix(0.999, -0.035, 0.035, 0.999, 0, 17.811)" fill="#f7b625"/>
          <rect id="Rectangle_413137" data-name="Rectangle 413137" width="121.169" height="135.62" transform="matrix(0.999, -0.035, 0.035, 0.999, 0.235, 24.493)" fill="#ffd478"/>
          <path id="Path_1279129" data-name="Path 1279129" d="M180.679,93.994l-.2.007L74.061,97.748l-7.228-5.974-.507.018,4.938,142.221,121.093-4.265-4.938-142.22-.694.024Z" transform="translate(-66.295 -73.983)" fill="#e09a00"/>
          <path id="Path_1279130" data-name="Path 1279130" d="M180.7,94.455l-.2.007L74.077,98.21l-7.743-6.188,4.93,141.99,7.516-.265L185.2,230l7.16-.252-4.938-142.22Z" transform="translate(-66.295 -73.983)" fill="#ffcc63"/>
          <rect id="Rectangle_413138" data-name="Rectangle 413138" width="90.55" height="3.659" transform="matrix(0.999, -0.035, 0.035, 0.999, 14.917, 5.403)" fill="#ffe5b0"/>
        </g>
        <g id="Group_1209718" data-name="Group 1209718" transform="translate(5.573 22.664)">
          <rect id="Rectangle_413139" data-name="Rectangle 413139" width="132.651" height="103.343" transform="translate(0 131.208) rotate(-81.541)" fill="#c7c7c7" opacity="0.5"/>
          <rect id="Rectangle_413140" data-name="Rectangle 413140" width="100.854" height="130.267" transform="translate(20.133 0.615) rotate(8.459)" fill="#f5f5f5"/>
        </g>
        <g id="Group_1209719" data-name="Group 1209719" transform="translate(11.137 24.783)">
          <rect id="Rectangle_413141" data-name="Rectangle 413141" width="132.653" height="103.345" transform="translate(0 132.166) rotate(-85.089)" fill="#c7c7c7" opacity="0.5"/>
          <rect id="Rectangle_413142" data-name="Rectangle 413142" width="100.849" height="130.265" transform="translate(12.022 0.577) rotate(4.911)" fill="#f7f7f7"/>
        </g>
        <g id="Group_1209720" data-name="Group 1209720" transform="translate(14.894 28.582)">
          <rect id="Rectangle_413143" data-name="Rectangle 413143" width="96.68" height="132.079" transform="matrix(1, -0.032, 0.032, 1, 0, 3.055)" fill="#c7c7c7" opacity="0.5"/>
          <rect id="Rectangle_413144" data-name="Rectangle 413144" width="94.156" height="129.846" transform="matrix(1, -0.032, 0.032, 1, 0.827, 3.531)" fill="#fff"/>
          <rect id="Rectangle_413145" data-name="Rectangle 413145" width="94.157" height="9.114" transform="matrix(1, -0.032, 0.032, 1, 0.827, 3.531)" fill="#bcc8d6"/>
          <rect id="Rectangle_413146" data-name="Rectangle 413146" width="19.034" height="3.443" transform="matrix(1, -0.032, 0.032, 1, 72.585, 17.647)" fill="#bcc8d6"/>
          <rect id="Rectangle_413147" data-name="Rectangle 413147" width="25.311" height="3.443" transform="matrix(1, -0.032, 0.032, 1, 66.451, 22.301)" fill="#bcc8d6"/>
          <rect id="Rectangle_413148" data-name="Rectangle 413148" width="21.464" height="3.443" transform="matrix(1, -0.032, 0.032, 1, 70.444, 26.835)" fill="#bcc8d6"/>
          <rect id="Rectangle_413149" data-name="Rectangle 413149" width="29.742" height="3.443" transform="matrix(-1, 0.032, -0.032, -1, 35.621, 22.262)" fill="#bcc8d6"/>
          <rect id="Rectangle_413150" data-name="Rectangle 413150" width="39.092" height="3.443" transform="matrix(-1, 0.032, -0.032, -1, 45.107, 26.421)" fill="#bcc8d6"/>
          <rect id="Rectangle_413151" data-name="Rectangle 413151" width="39.092" height="3.443" transform="matrix(-1, 0.032, -0.032, -1, 47.61, 105.586)" fill="#bcc8d6"/>
          <rect id="Rectangle_413152" data-name="Rectangle 413152" width="34.083" height="3.443" transform="matrix(-1, 0.032, -0.032, -1, 40.248, 31.236)" fill="#bcc8d6"/>
          <rect id="Rectangle_413153" data-name="Rectangle 413153" width="86.07" height="5.873" transform="matrix(-1, 0.032, -0.032, -1, 93.636, 74.765)" fill="#bcc8d6"/>
          <rect id="Rectangle_413154" data-name="Rectangle 413154" width="86.07" height="5.873" transform="matrix(-1, 0.032, -0.032, -1, 94.005, 86.436)" fill="#bcc8d6"/>
          <path id="Path_1279131" data-name="Path 1279131" d="M174.936,165.126l-.185-5.872-87.016,2.752.185,5.872h0l.217,6.861h0l.149,4.719h0l.217,6.86h0l.155,4.9h0l.217,6.861,62.145-1.965.161,5.085h0l.217,6.861,24.87-.787-.217-6.861h0l-.192-6.073-.185-5.872h0l-.155-4.9h0l-.183-5.785h0l-.216-6.86h0l-.182-5.795Zm.312,41.186-22.893.725-.154-4.882,22.893-.725Zm-.192-6.074-22.893.725-.154-4.882,22.893-.724Zm-.186-5.871-23.12.731-61.918,1.959-.154-4.883,85.038-2.69Zm-.34-10.756.154,4.883-85.038,2.689-.154-4.883ZM89.308,180.5l85.038-2.689.152,4.8L89.46,185.3Zm85-3.766-85.038,2.689-.149-4.719,85.038-2.689Zm-.183-5.785-85.038,2.689-.152-4.805,83.306-2.635,1.733-.055Z" transform="translate(-81.189 -102.537)" fill="#bcc8d6"/>
          <path id="Path_1279132" data-name="Path 1279132" d="M174.168,140.836l-87.016,2.752.186,5.871h0l.217,6.86,19.62-.62h0l24.894-.787h0l18.215-.576h0l24.287-.768-.217-6.86h0Zm-24.9,12.542-17.226.545-.154-4.882,17.226-.545Zm-42.12,1.332-.154-4.883,23.905-.756.154,4.882ZM94.2,150.233l11.8-.373.154,4.882-17.643.558-.154-4.883,3.9-.123Zm79.354,2.377-23.3.737-.154-4.882,22.015-.7,1.283-.04Z" transform="translate(-81.189 -102.544)" fill="#bcc8d6"/>
          <path id="Path_1279133" data-name="Path 1279133" d="M174.751,159.254l-43.288,1.369,1.143,36.149,19.406-.613h0l23.882-.756Zm-42.269,2.327,17.429-.551,1.08,34.172-17.429.551Zm19.5,33.589L150.9,161l22.893-.724,1.08,34.172Z" transform="translate(-81.189 -102.537)" fill="#bcc8d6"/>
        </g>
      </g>
      <g id="Group_1209722" data-name="Group 1209722" transform="translate(132.901 195.372)">
        <path id="Path_1279134" data-name="Path 1279134" d="M202.5,255.934l-17.711-29.315a.883.883,0,0,0-1.224-.193l-.366.221a.891.891,0,0,0-1.182-1.284l-.476.288a.832.832,0,0,0-.6-1.512l-1.832-3.028a24.575,24.575,0,1,0-2.855,1.729l1.831,3.028a.832.832,0,0,0,1.062,1.23l-.476.288a.89.89,0,0,0-.3,1.223h0a.889.889,0,0,0,.889.42l-.363.22a.883.883,0,0,0-.4,1.174l17.711,29.315a.883.883,0,0,0,1.224.193l4.665-2.824A.881.881,0,0,0,202.5,255.934Zm-17.77-50.107a20.334,20.334,0,1,1-2.35-15.4A20.215,20.215,0,0,1,184.727,205.827Z" transform="translate(-132.901 -172.283)" fill="#ccc"/>
        <rect id="Rectangle_413155" data-name="Rectangle 413155" width="5.425" height="3.338" transform="translate(42.154 47.737) rotate(58.823)" fill="#dedede"/>
        <ellipse id="Ellipse_12696" data-name="Ellipse 12696" cx="21.59" cy="21.584" rx="21.59" ry="21.584" transform="translate(0 39.122) rotate(-64.962)" fill="#7accff" opacity="0.3"/>
        <path id="Path_1279135" data-name="Path 1279135" d="M181.538,188.907a23.3,23.3,0,1,0-7.873,32.012A23.139,23.139,0,0,0,181.538,188.907ZM167.792,181.6a20.338,20.338,0,1,1-16.721,1.965A20.258,20.258,0,0,1,167.792,181.6Z" transform="translate(-132.901 -172.283)" fill="#fff"/>
        <path id="Path_1279136" data-name="Path 1279136" d="M182.658,188.23a24.606,24.606,0,1,0-8.315,33.81A24.443,24.443,0,0,0,182.658,188.23Zm-14.518-7.717a21.48,21.48,0,1,1-17.66,2.075A21.4,21.4,0,0,1,168.14,180.514Z" transform="translate(-132.901 -172.283)" fill="#548394"/>
        <path id="Path_1279137" data-name="Path 1279137" d="M192.839,259.73l-17.711-29.315a.883.883,0,0,1,.4-1.174l4.665-2.824a.882.882,0,0,1,1.224.193l17.71,29.315a.883.883,0,0,1-.4,1.174l-4.665,2.824A.881.881,0,0,1,192.839,259.73Z" transform="translate(-132.901 -172.264)" fill="#d35d0d"/>
        <path id="Path_1279138" data-name="Path 1279138" d="M175.112,228.786l-.225-.372a.673.673,0,0,1,.227-.924l3.715-2.249a.672.672,0,0,1,.923.227l.225.372a.673.673,0,0,1-.227.924l-3.715,2.249A.672.672,0,0,1,175.112,228.786Z" transform="translate(-132.901 -172.264)" fill="#999"/>
        <path id="Path_1279139" data-name="Path 1279139" d="M174.775,226.964l-.211-.349a.63.63,0,0,1,.213-.866l2.666-1.614a.63.63,0,0,1,.865.213l.211.349a.63.63,0,0,1-.213.866l-2.666,1.614A.63.63,0,0,1,174.775,226.964Z" transform="translate(-132.901 -172.264)" fill="#b3b3b3"/>
      </g>
      <g id="Group_1209723" data-name="Group 1209723" transform="translate(30.708 171.318)">
        <path id="Path_1279140" data-name="Path 1279140" d="M104,207.615,56.347,224.928a2.385,2.385,0,0,1-3.057-1.429L34.669,172.2a2.387,2.387,0,0,1,1.428-3.058L83.752,151.83a2.385,2.385,0,0,1,3.057,1.429l18.621,51.3A2.388,2.388,0,0,1,104,207.615Z" transform="translate(-30.708 -149.05)" fill="#ccc"/>
        <path id="Path_1279141" data-name="Path 1279141" d="M101.43,206.2,52.944,223.812a2.339,2.339,0,0,1-3-1.4l-19.1-52.606a2.341,2.341,0,0,1,1.4-3l48.487-17.615a2.339,2.339,0,0,1,3,1.4l19.1,52.606A2.341,2.341,0,0,1,101.43,206.2Z" transform="translate(-30.708 -149.051)" fill="#fff"/>
        <path id="Path_1279142" data-name="Path 1279142" d="M100.351,205.088,52.816,222.358a2.075,2.075,0,0,1-2.659-1.242L31.6,169.985a2.076,2.076,0,0,1,1.242-2.66l47.535-17.269a2.075,2.075,0,0,1,2.659,1.242l18.56,51.131A2.077,2.077,0,0,1,100.351,205.088Z" transform="translate(-30.708 -149.05)" fill="#fff"/>
        <path id="Path_1279143" data-name="Path 1279143" d="M79.881,150.234,33.332,167.144a2.606,2.606,0,0,0-1.556,3.332l6.086,16.767A218.272,218.272,0,0,0,89.3,168.558L83.212,151.79A2.605,2.605,0,0,0,79.881,150.234Z" transform="translate(-30.708 -149.05)" fill="#bcc8d6"/>
        <path id="Path_1279144" data-name="Path 1279144" d="M41.646,184.383a3.1,3.1,0,0,1-3.524-1.9l-3.889-10.712a2.683,2.683,0,0,1,1.6-3.425l42.743-15.528a2.682,2.682,0,0,1,3.423,1.6l3.889,10.712a3.1,3.1,0,0,1-1.482,3.721A202.712,202.712,0,0,1,41.646,184.383Z" transform="translate(-30.708 -149.049)" fill="#fff"/>
        <path id="Path_1279145" data-name="Path 1279145" d="M83.889,167.406,41.117,182.945a1.444,1.444,0,0,1-1.85-.865l-3.9-10.741a1.445,1.445,0,0,1,.864-1.851L79,153.949a1.444,1.444,0,0,1,1.85.865l3.9,10.741A1.445,1.445,0,0,1,83.889,167.406Z" transform="translate(-30.708 -149.049)" fill="#828a94"/>
        <path id="Path_1279146" data-name="Path 1279146" d="M41.6,182.007a1.407,1.407,0,0,1-1.824-.8l-3.422-9.426A1.409,1.409,0,0,1,37.245,170l41.339-15.018a1.408,1.408,0,0,1,1.824.8l3.422,9.426a1.409,1.409,0,0,1-.888,1.781Z" transform="translate(-30.708 -149.048)" fill="#bcc8d6"/>
        <path id="Path_1279147" data-name="Path 1279147" d="M90.967,182.949l-5.884,2.138a.9.9,0,0,1-1.186-.462l-1.257-3.464a.9.9,0,0,1,.613-1.116l5.884-2.138a.9.9,0,0,1,1.186.462l1.258,3.464A.905.905,0,0,1,90.967,182.949Z" transform="translate(-30.708 -149.039)" fill="#414852"/>
        <path id="Path_1279148" data-name="Path 1279148" d="M81.279,186.467,75.395,188.6a.9.9,0,0,1-1.186-.462l-1.258-3.464a.9.9,0,0,1,.613-1.116l5.884-2.138a.9.9,0,0,1,1.186.462l1.257,3.464A.9.9,0,0,1,81.279,186.467Z" transform="translate(-30.708 -149.038)" fill="#417b96"/>
        <path id="Path_1279149" data-name="Path 1279149" d="M71.591,189.985l-5.884,2.138a.9.9,0,0,1-1.186-.462L63.264,188.2a.9.9,0,0,1,.613-1.116l5.884-2.138a.9.9,0,0,1,1.186.462l1.257,3.464A.9.9,0,0,1,71.591,189.985Z" transform="translate(-30.708 -149.036)" fill="#417b96"/>
        <path id="Path_1279150" data-name="Path 1279150" d="M61.9,193.5l-5.884,2.138a.9.9,0,0,1-1.186-.462l-1.257-3.464a.9.9,0,0,1,.613-1.116l5.884-2.138a.9.9,0,0,1,1.186.462l1.258,3.464A.905.905,0,0,1,61.9,193.5Z" transform="translate(-30.708 -149.035)" fill="#417b96"/>
        <path id="Path_1279151" data-name="Path 1279151" d="M52.215,197.021l-5.884,2.138a.9.9,0,0,1-1.186-.462l-1.258-3.464a.9.9,0,0,1,.613-1.116l5.884-2.138a.9.9,0,0,1,1.186.462l1.257,3.464A.9.9,0,0,1,52.215,197.021Z" transform="translate(-30.708 -149.034)" fill="#414852"/>
        <path id="Path_1279152" data-name="Path 1279152" d="M93.421,189.707l-5.884,2.138a.9.9,0,0,1-1.186-.462l-1.257-3.464a.9.9,0,0,1,.613-1.116l5.884-2.138a.9.9,0,0,1,1.186.462l1.258,3.464A.9.9,0,0,1,93.421,189.707Z" transform="translate(-30.708 -149.036)" fill="#414852"/>
        <path id="Path_1279153" data-name="Path 1279153" d="M83.733,193.226l-5.884,2.138a.9.9,0,0,1-1.186-.462L75.4,191.437a.9.9,0,0,1,.613-1.116l5.884-2.138a.9.9,0,0,1,1.186.462l1.257,3.464A.9.9,0,0,1,83.733,193.226Z" transform="translate(-30.708 -149.035)" fill="#417b96"/>
        <path id="Path_1279154" data-name="Path 1279154" d="M74.045,196.743l-5.884,2.138a.9.9,0,0,1-1.186-.462l-1.257-3.464a.9.9,0,0,1,.613-1.116l5.884-2.138a.9.9,0,0,1,1.186.462l1.257,3.464A.9.9,0,0,1,74.045,196.743Z" transform="translate(-30.708 -149.034)" fill="#417b96"/>
        <path id="Path_1279155" data-name="Path 1279155" d="M64.357,200.262,58.473,202.4a.9.9,0,0,1-1.186-.462l-1.257-3.464a.9.9,0,0,1,.613-1.116l5.884-2.138a.9.9,0,0,1,1.186.462l1.258,3.464A.9.9,0,0,1,64.357,200.262Z" transform="translate(-30.708 -149.032)" fill="#417b96"/>
        <path id="Path_1279156" data-name="Path 1279156" d="M54.669,203.78l-5.884,2.138a.9.9,0,0,1-1.186-.462l-1.257-3.464a.9.9,0,0,1,.613-1.116l5.884-2.138a.9.9,0,0,1,1.186.462l1.258,3.464A.9.9,0,0,1,54.669,203.78Z" transform="translate(-30.708 -149.031)" fill="#414852"/>
        <path id="Path_1279157" data-name="Path 1279157" d="M86.187,199.984,80.3,202.122a.9.9,0,0,1-1.186-.462L77.859,198.2a.9.9,0,0,1,.613-1.116l5.884-2.138a.9.9,0,0,1,1.186.462l1.258,3.464A.905.905,0,0,1,86.187,199.984Z" transform="translate(-30.708 -149.032)" fill="#417b96"/>
        <path id="Path_1279158" data-name="Path 1279158" d="M76.5,203.5l-5.884,2.138a.9.9,0,0,1-1.186-.462l-1.257-3.464a.9.9,0,0,1,.613-1.116l5.884-2.138a.9.9,0,0,1,1.186.462l1.257,3.464A.9.9,0,0,1,76.5,203.5Z" transform="translate(-30.708 -149.031)" fill="#417b96"/>
        <path id="Path_1279159" data-name="Path 1279159" d="M66.812,207.02l-5.884,2.138a.9.9,0,0,1-1.186-.462l-1.257-3.464a.9.9,0,0,1,.613-1.116l5.884-2.138a.9.9,0,0,1,1.186.462l1.257,3.464A.9.9,0,0,1,66.812,207.02Z" transform="translate(-30.708 -149.03)" fill="#417b96"/>
        <path id="Path_1279160" data-name="Path 1279160" d="M57.124,210.538l-5.884,2.138a.9.9,0,0,1-1.186-.462L48.8,208.749a.9.9,0,0,1,.613-1.116l5.884-2.138a.9.9,0,0,1,1.186.462l1.257,3.464A.9.9,0,0,1,57.124,210.538Z" transform="translate(-30.708 -149.028)" fill="#944c1b"/>
        <path id="Path_1279161" data-name="Path 1279161" d="M94.045,191.424l-5.884,2.138a.905.905,0,0,0-.613,1.116l1.249,3.441.008.024,1.2,3.3.052.144,1.205,3.321a.9.9,0,0,0,1.186.462l5.884-2.138a.9.9,0,0,0,.613-1.116l-1.206-3.321-.052-.144-1.2-3.3-.008-.024-1.249-3.441A.9.9,0,0,0,94.045,191.424Z" transform="translate(-30.708 -149.034)" fill="#414852"/>
        <path id="Path_1279162" data-name="Path 1279162" d="M88.642,206.742l-5.884,2.138a.9.9,0,0,1-1.186-.462l-1.258-3.464a.9.9,0,0,1,.613-1.116l5.884-2.138a.9.9,0,0,1,1.186.462l1.258,3.464A.9.9,0,0,1,88.642,206.742Z" transform="translate(-30.708 -149.03)" fill="#417b96"/>
        <path id="Path_1279163" data-name="Path 1279163" d="M78.954,210.26,73.07,212.4a.9.9,0,0,1-1.186-.462l-1.257-3.464a.9.9,0,0,1,.613-1.116l5.884-2.138a.9.9,0,0,1,1.186.462l1.257,3.464A.9.9,0,0,1,78.954,210.26Z" transform="translate(-30.708 -149.028)" fill="#417b96"/>
        <path id="Path_1279164" data-name="Path 1279164" d="M69.266,213.778l-5.884,2.138a.9.9,0,0,1-1.186-.462l-1.258-3.464a.9.9,0,0,1,.613-1.116l5.884-2.138a.9.9,0,0,1,1.186.462l1.258,3.464A.9.9,0,0,1,69.266,213.778Z" transform="translate(-30.708 -149.027)" fill="#417b96"/>
        <path id="Path_1279165" data-name="Path 1279165" d="M59.578,217.3l-5.884,2.138a.9.9,0,0,1-1.186-.462l-1.258-3.464a.9.9,0,0,1,.613-1.116l5.884-2.138a.9.9,0,0,1,1.186.462l1.257,3.464A.9.9,0,0,1,59.578,217.3Z" transform="translate(-30.708 -149.026)" fill="#944c1b"/>
        <path id="Path_1279166" data-name="Path 1279166" d="M90.448,182.774l-5.869,2.132a.9.9,0,0,1-1.18-.452l-1.239-3.415a.9.9,0,0,1,.615-1.1l5.869-2.132a.9.9,0,0,1,1.18.452l1.239,3.415A.9.9,0,0,1,90.448,182.774Z" transform="translate(-30.708 -149.039)" fill="#548394"/>
        <path id="Path_1279167" data-name="Path 1279167" d="M80.786,186.283l-5.869,2.132a.9.9,0,0,1-1.18-.452L72.5,184.548a.9.9,0,0,1,.615-1.1l5.869-2.132a.9.9,0,0,1,1.18.452l1.239,3.415A.9.9,0,0,1,80.786,186.283Z" transform="translate(-30.708 -149.038)" fill="#44b4d6"/>
        <path id="Path_1279168" data-name="Path 1279168" d="M71.123,189.792l-5.869,2.132a.9.9,0,0,1-1.18-.452l-1.239-3.415a.9.9,0,0,1,.615-1.1l5.869-2.132a.9.9,0,0,1,1.18.452l1.239,3.416A.9.9,0,0,1,71.123,189.792Z" transform="translate(-30.708 -149.036)" fill="#44b4d6"/>
        <path id="Path_1279169" data-name="Path 1279169" d="M61.459,193.3l-5.869,2.132a.9.9,0,0,1-1.18-.452l-1.24-3.415a.9.9,0,0,1,.615-1.1l5.87-2.132a.9.9,0,0,1,1.18.452l1.24,3.415A.9.9,0,0,1,61.459,193.3Z" transform="translate(-30.708 -149.035)" fill="#44b4d6"/>
        <path id="Path_1279170" data-name="Path 1279170" d="M51.8,196.81l-5.87,2.132a.9.9,0,0,1-1.18-.452l-1.239-3.415a.9.9,0,0,1,.615-1.1l5.869-2.132a.9.9,0,0,1,1.18.452l1.24,3.415A.9.9,0,0,1,51.8,196.81Z" transform="translate(-30.708 -149.034)" fill="#548394"/>
        <path id="Path_1279171" data-name="Path 1279171" d="M92.868,189.437,87,191.569a.9.9,0,0,1-1.18-.452L84.58,187.7a.9.9,0,0,1,.615-1.1l5.87-2.132a.9.9,0,0,1,1.18.452l1.239,3.415A.9.9,0,0,1,92.868,189.437Z" transform="translate(-30.708 -149.037)" fill="#548394"/>
        <path id="Path_1279172" data-name="Path 1279172" d="M83.205,192.946l-5.87,2.132a.9.9,0,0,1-1.18-.452l-1.24-3.415a.9.9,0,0,1,.615-1.1l5.869-2.132a.9.9,0,0,1,1.18.452l1.24,3.415A.9.9,0,0,1,83.205,192.946Z" transform="translate(-30.708 -149.035)" fill="#44b4d6"/>
        <path id="Path_1279173" data-name="Path 1279173" d="M73.543,196.455l-5.869,2.132a.9.9,0,0,1-1.18-.452l-1.239-3.415a.9.9,0,0,1,.615-1.1l5.869-2.132a.9.9,0,0,1,1.18.452l1.239,3.415A.9.9,0,0,1,73.543,196.455Z" transform="translate(-30.708 -149.034)" fill="#44b4d6"/>
        <path id="Path_1279174" data-name="Path 1279174" d="M63.879,199.964,58.01,202.1a.9.9,0,0,1-1.18-.452l-1.239-3.415a.9.9,0,0,1,.615-1.1l5.869-2.132a.9.9,0,0,1,1.18.452l1.239,3.415A.9.9,0,0,1,63.879,199.964Z" transform="translate(-30.708 -149.032)" fill="#44b4d6"/>
        <path id="Path_1279175" data-name="Path 1279175" d="M54.216,203.474l-5.869,2.132a.9.9,0,0,1-1.18-.452l-1.239-3.415a.9.9,0,0,1,.615-1.1l5.869-2.132a.9.9,0,0,1,1.18.452l1.239,3.415A.9.9,0,0,1,54.216,203.474Z" transform="translate(-30.708 -149.031)" fill="#548394"/>
        <path id="Path_1279176" data-name="Path 1279176" d="M85.625,199.609l-5.869,2.132a.9.9,0,0,1-1.18-.452l-1.239-3.415a.9.9,0,0,1,.615-1.1l5.869-2.132a.9.9,0,0,1,1.18.452l1.239,3.415A.9.9,0,0,1,85.625,199.609Z" transform="translate(-30.708 -149.033)" fill="#44b4d6"/>
        <path id="Path_1279177" data-name="Path 1279177" d="M75.962,203.119l-5.869,2.132a.9.9,0,0,1-1.18-.452l-1.24-3.415a.9.9,0,0,1,.615-1.1l5.87-2.132a.9.9,0,0,1,1.18.452l1.239,3.415A.9.9,0,0,1,75.962,203.119Z" transform="translate(-30.708 -149.031)" fill="#44b4d6"/>
        <path id="Path_1279178" data-name="Path 1279178" d="M66.3,206.628,60.43,208.76a.9.9,0,0,1-1.18-.452l-1.239-3.415a.9.9,0,0,1,.615-1.1l5.869-2.132a.9.9,0,0,1,1.18.452l1.24,3.415A.9.9,0,0,1,66.3,206.628Z" transform="translate(-30.708 -149.03)" fill="#44b4d6"/>
        <path id="Path_1279179" data-name="Path 1279179" d="M56.636,210.137l-5.869,2.132a.9.9,0,0,1-1.18-.452L48.348,208.4a.9.9,0,0,1,.615-1.1l5.869-2.132a.9.9,0,0,1,1.18.452l1.24,3.415A.9.9,0,0,1,56.636,210.137Z" transform="translate(-30.708 -149.028)" fill="#ed7a2c"/>
        <path id="Path_1279180" data-name="Path 1279180" d="M93.484,191.129l-5.869,2.132a.9.9,0,0,0-.615,1.1l1.231,3.392.008.023,1.18,3.251.051.142,1.188,3.274a.9.9,0,0,0,1.18.452l5.869-2.132a.9.9,0,0,0,.615-1.1l-1.188-3.274-.052-.142L95.9,195l-.008-.023-1.231-3.392A.9.9,0,0,0,93.484,191.129Z" transform="translate(-30.708 -149.034)" fill="#548394"/>
        <path id="Path_1279181" data-name="Path 1279181" d="M88.045,206.273l-5.869,2.132a.9.9,0,0,1-1.18-.452l-1.239-3.415a.9.9,0,0,1,.615-1.1L86.24,201.3a.9.9,0,0,1,1.18.452l1.239,3.415A.9.9,0,0,1,88.045,206.273Z" transform="translate(-30.708 -149.03)" fill="#44b4d6"/>
        <path id="Path_1279182" data-name="Path 1279182" d="M78.382,209.782l-5.869,2.132a.9.9,0,0,1-1.18-.452l-1.239-3.415a.9.9,0,0,1,.615-1.1l5.869-2.132a.9.9,0,0,1,1.18.452L79,208.678A.9.9,0,0,1,78.382,209.782Z" transform="translate(-30.708 -149.028)" fill="#44b4d6"/>
        <path id="Path_1279183" data-name="Path 1279183" d="M68.719,213.291l-5.869,2.132a.9.9,0,0,1-1.18-.452l-1.239-3.415a.9.9,0,0,1,.615-1.1l5.869-2.132a.9.9,0,0,1,1.18.452l1.239,3.415A.9.9,0,0,1,68.719,213.291Z" transform="translate(-30.708 -149.027)" fill="#44b4d6"/>
        <path id="Path_1279184" data-name="Path 1279184" d="M59.056,216.8l-5.869,2.132a.9.9,0,0,1-1.18-.452l-1.24-3.415a.9.9,0,0,1,.615-1.1l5.87-2.132a.9.9,0,0,1,1.18.452l1.24,3.415A.9.9,0,0,1,59.056,216.8Z" transform="translate(-30.708 -149.026)" fill="#ed7a2c"/>
        <path id="Path_1279185" data-name="Path 1279185" d="M87.923,175.823l-4.592,1.668a.5.5,0,0,1-.647-.3l-.494-1.36a.5.5,0,0,1,.3-.647l4.592-1.668a.5.5,0,0,1,.647.3l.494,1.361A.5.5,0,0,1,87.923,175.823Z" transform="translate(-30.708 -149.041)" fill="gray"/>
        <path id="Path_1279186" data-name="Path 1279186" d="M80.088,178.669,75.5,180.338a.5.5,0,0,1-.647-.3l-.494-1.36a.505.505,0,0,1,.3-.647l4.592-1.668a.5.5,0,0,1,.647.3l.494,1.36A.506.506,0,0,1,80.088,178.669Z" transform="translate(-30.708 -149.04)" fill="gray"/>
        <path id="Path_1279187" data-name="Path 1279187" d="M72.252,181.514l-4.592,1.668a.5.5,0,0,1-.647-.3l-.494-1.36a.505.505,0,0,1,.3-.647l4.592-1.668a.5.5,0,0,1,.647.3l.494,1.36A.5.5,0,0,1,72.252,181.514Z" transform="translate(-30.708 -149.039)" fill="gray"/>
        <path id="Path_1279188" data-name="Path 1279188" d="M64.416,184.36l-4.592,1.668a.5.5,0,0,1-.647-.3l-.494-1.36a.5.5,0,0,1,.3-.647l4.592-1.668a.5.5,0,0,1,.647.3l.494,1.36A.5.5,0,0,1,64.416,184.36Z" transform="translate(-30.708 -149.038)" fill="gray"/>
        <path id="Path_1279189" data-name="Path 1279189" d="M56.581,187.205l-4.592,1.668a.5.5,0,0,1-.647-.3l-.494-1.36a.505.505,0,0,1,.3-.647l4.592-1.668a.5.5,0,0,1,.647.3l.494,1.361A.5.5,0,0,1,56.581,187.205Z" transform="translate(-30.708 -149.036)" fill="gray"/>
        <path id="Path_1279190" data-name="Path 1279190" d="M48.745,190.051l-4.592,1.668a.5.5,0,0,1-.647-.3l-.494-1.36a.505.505,0,0,1,.3-.647l4.592-1.668a.5.5,0,0,1,.647.3l.494,1.36A.5.5,0,0,1,48.745,190.051Z" transform="translate(-30.708 -149.035)" fill="gray"/>
        <path id="Path_1279191" data-name="Path 1279191" d="M87.441,175.552l-4.587,1.666a.492.492,0,0,1-.638-.28l-.471-1.3a.493.493,0,0,1,.31-.624l4.587-1.666a.493.493,0,0,1,.638.28l.471,1.3A.493.493,0,0,1,87.441,175.552Z" transform="translate(-30.708 -149.041)" fill="#e1e9f2"/>
        <path id="Path_1279192" data-name="Path 1279192" d="M79.615,178.394l-4.587,1.666a.492.492,0,0,1-.638-.28l-.471-1.3a.493.493,0,0,1,.31-.624l4.587-1.666a.493.493,0,0,1,.638.28l.471,1.3A.493.493,0,0,1,79.615,178.394Z" transform="translate(-30.708 -149.04)" fill="#e1e9f2"/>
        <path id="Path_1279193" data-name="Path 1279193" d="M71.789,181.237,67.2,182.9a.492.492,0,0,1-.638-.28l-.471-1.3a.493.493,0,0,1,.31-.624l4.587-1.666a.493.493,0,0,1,.638.28l.471,1.3A.494.494,0,0,1,71.789,181.237Z" transform="translate(-30.708 -149.039)" fill="#e1e9f2"/>
        <path id="Path_1279194" data-name="Path 1279194" d="M63.963,184.078l-4.587,1.666a.492.492,0,0,1-.638-.28l-.471-1.3a.493.493,0,0,1,.31-.624l4.587-1.666a.493.493,0,0,1,.638.28l.471,1.3A.493.493,0,0,1,63.963,184.078Z" transform="translate(-30.708 -149.038)" fill="#e1e9f2"/>
        <path id="Path_1279195" data-name="Path 1279195" d="M56.137,186.92l-4.587,1.666a.492.492,0,0,1-.638-.28l-.471-1.3a.493.493,0,0,1,.31-.624l4.587-1.666a.493.493,0,0,1,.638.28l.471,1.3A.493.493,0,0,1,56.137,186.92Z" transform="translate(-30.708 -149.036)" fill="#e1e9f2"/>
        <path id="Path_1279196" data-name="Path 1279196" d="M48.311,189.763l-4.587,1.666a.493.493,0,0,1-.638-.28l-.471-1.3a.493.493,0,0,1,.31-.624l4.587-1.666a.493.493,0,0,1,.638.28l.471,1.3A.493.493,0,0,1,48.311,189.763Z" transform="translate(-30.708 -149.035)" fill="#e1e9f2"/>
      </g>
      <g id="Group_1209724" data-name="Group 1209724" transform="translate(62.274 180.31)">
        <path id="Path_1279197" data-name="Path 1279197" d="M64.453,165.01l-1.732.646-.446-1.2,4.895-1.824.447,1.2-1.732.645,1.9,5.11-1.432.533Z" transform="translate(-62.274 -158.676)" fill="#fff"/>
        <path id="Path_1279198" data-name="Path 1279198" d="M68.94,161.972l1.712-.638,4.323,5.574-1.509.562-.946-1.356-1.925.718.172,1.644-1.451.541Zm1.531,3.638,1.345-.5-.361-.526c-.408-.564-.86-1.244-1.269-1.841l-.038.014c.093.726.2,1.522.263,2.216Z" transform="translate(-62.274 -158.677)" fill="#fff"/>
        <path id="Path_1279199" data-name="Path 1279199" d="M75.511,163.018l-2.787-2.455,1.587-.591.995.985c.254.237.511.515.833.847l.039-.014c0-.451.01-.83.028-1.168l.059-1.378,1.519-.566-.468,3.745,2.923,2.525-1.587.591-1.108-1.053c-.277-.271-.541-.537-.859-.859l-.038.014c0,.441-.027.815-.04,1.194l-.111,1.508-1.529.57Z" transform="translate(-62.274 -158.678)" fill="#fff"/>
      </g>
    </g>
  </g>
</svg>
