<svg xmlns="http://www.w3.org/2000/svg" xmlns:xlink="http://www.w3.org/1999/xlink" width="272" height="265" viewBox="0 0 272 265">
  <defs>
    <clipPath id="clip-path">
      <path id="Rectangle_412917" data-name="Rectangle 412917" d="M0,0H257a15,15,0,0,1,15,15V250a15,15,0,0,1-15,15H0a0,0,0,0,1,0,0V0A0,0,0,0,1,0,0Z" transform="translate(1056.602 2620.087)" fill="#fff"/>
    </clipPath>
    <clipPath id="clip-path-2">
      <path id="Path_1277435" data-name="Path 1277435" d="M93.949,199.928l5.3-6.178,5.223,6.178,5.3-6.178L115,199.928l5.3-6.178,5.222,6.178,5.3-6.178,5.223,6.178,5.3-6.178,5.222,6.178,5.3-6.178,5.222,6.178,5.3-6.178,5.223,6.178,5.3-6.178,5.222,6.178,5.3-6.178,5.223,6.178,5.3-6.178,5.222,6.178,5.3-6.178,5.222,6.178,5.3-6.178,5.208,6.161V49.256H93.938V199.928Z" transform="translate(-93.938 -49.256)"/>
    </clipPath>
  </defs>
  <g id="Mask_Group_1099371" data-name="Mask Group 1099371" transform="translate(-1056.602 -2620.087)" clip-path="url(#clip-path)">
    <g id="_7006526_794" data-name="7006526_794" transform="translate(1057.051 2620.087)">
      <g id="Layer_1">
        <rect id="Rectangle_412918" data-name="Rectangle 412918" width="272" height="265" transform="translate(-0.449)" fill="#20c1c7"/>
      </g>
      <g id="Layer_3" transform="translate(26.459 29.762)">
        <g id="Group_1209272" data-name="Group 1209272" transform="translate(0 52.669)">
          <g id="Group_1209270" data-name="Group 1209270">
            <path id="Path_1277403" data-name="Path 1277403" d="M33.422,183.614l3.853-4.489,3.794,4.489,3.853-4.489,3.794,4.489,3.853-4.489,3.794,4.489,3.853-4.489,3.794,4.489,3.853-4.489,3.794,4.489,3.853-4.489,3.794,4.489,3.853-4.489,3.794,4.489,3.853-4.489,3.794,4.489,3.853-4.489,3.794,4.489,3.854-4.489,3.794,4.489,3.854-4.489,3.794,4.489,3.854-4.489,3.783,4.476V91.479H33.413v92.135Z" transform="translate(-24.704 -82.431)" fill="#3c6f7a" opacity="0.16"/>
            <path id="Path_1277404" data-name="Path 1277404" d="M25.147,175.166,29,170.678l3.794,4.488,3.853-4.488,3.794,4.488,3.853-4.488,3.794,4.488,3.853-4.488,3.794,4.488,3.853-4.488,3.794,4.488,3.853-4.488,3.794,4.488,3.853-4.488,3.794,4.488,3.853-4.488,3.794,4.488,3.853-4.488,3.794,4.488,3.853-4.488,3.794,4.488,3.853-4.488,3.794,4.488,3.854-4.488,3.784,4.475V82.431H25.139v92.734Z" transform="translate(-25.139 -82.431)" fill="#ebebeb"/>
          </g>
          <path id="Path_1277405" data-name="Path 1277405" d="M82.672,143.851H42.486a9.032,9.032,0,0,0-9.254,8.792h0a9.032,9.032,0,0,0,9.254,8.792H82.672a9.032,9.032,0,0,0,9.254-8.792h0A9.032,9.032,0,0,0,82.672,143.851Z" transform="translate(-24.714 -82.431)" fill="#e0e0e0"/>
          <g id="Group_1209271" data-name="Group 1209271" transform="translate(9.243 17.599)">
            <path id="Path_1277406" data-name="Path 1277406" d="M66.055,103.135h-30.5a1.6,1.6,0,0,1-1.634-1.552h0a1.6,1.6,0,0,1,1.634-1.552h30.5a1.6,1.6,0,0,1,1.634,1.552h0A1.6,1.6,0,0,1,66.055,103.135Z" transform="translate(-33.921 -100.03)" fill="#c4c4c4"/>
            <path id="Path_1277407" data-name="Path 1277407" d="M102.049,103.135H90.593a1.6,1.6,0,0,1-1.634-1.552h0a1.6,1.6,0,0,1,1.634-1.552h11.457a1.6,1.6,0,0,1,1.634,1.552h0A1.6,1.6,0,0,1,102.049,103.135Z" transform="translate(-31.03 -100.03)" fill="#c4c4c4"/>
            <path id="Path_1277408" data-name="Path 1277408" d="M102.049,110H90.593a1.6,1.6,0,0,1-1.634-1.552h0a1.6,1.6,0,0,1,1.634-1.552h11.457a1.6,1.6,0,0,1,1.634,1.552h0A1.6,1.6,0,0,1,102.049,110Z" transform="translate(-31.03 -100.03)" fill="#c4c4c4"/>
            <path id="Path_1277409" data-name="Path 1277409" d="M102.049,116.86H90.593a1.6,1.6,0,0,1-1.634-1.552h0a1.6,1.6,0,0,1,1.634-1.552h11.457a1.6,1.6,0,0,1,1.634,1.552h0A1.6,1.6,0,0,1,102.049,116.86Z" transform="translate(-31.03 -100.03)" fill="#c4c4c4"/>
            <path id="Path_1277410" data-name="Path 1277410" d="M102.049,130.584H90.593a1.6,1.6,0,0,1-1.634-1.553h0a1.6,1.6,0,0,1,1.634-1.552h11.457a1.6,1.6,0,0,1,1.634,1.552h0A1.6,1.6,0,0,1,102.049,130.584Z" transform="translate(-31.03 -100.03)" fill="#c4c4c4"/>
            <path id="Path_1277411" data-name="Path 1277411" d="M102.049,137.446H90.593a1.6,1.6,0,0,1-1.634-1.552h0a1.6,1.6,0,0,1,1.634-1.552h11.457a1.6,1.6,0,0,1,1.634,1.552h0A1.6,1.6,0,0,1,102.049,137.446Z" transform="translate(-31.03 -100.03)" fill="#c4c4c4"/>
            <path id="Path_1277412" data-name="Path 1277412" d="M54.238,110H35.555a1.6,1.6,0,0,1-1.634-1.552h0a1.6,1.6,0,0,1,1.634-1.552H54.238a1.6,1.6,0,0,1,1.634,1.552h0A1.6,1.6,0,0,1,54.238,110Z" transform="translate(-33.921 -100.03)" fill="#c4c4c4"/>
            <path id="Path_1277413" data-name="Path 1277413" d="M58.735,116.86H35.555a1.6,1.6,0,0,1-1.634-1.552h0a1.6,1.6,0,0,1,1.634-1.552H58.735a1.6,1.6,0,0,1,1.634,1.552h0A1.6,1.6,0,0,1,58.735,116.86Z" transform="translate(-33.921 -100.03)" fill="#c4c4c4"/>
            <path id="Path_1277414" data-name="Path 1277414" d="M61.052,130.584h-25.5a1.6,1.6,0,0,1-1.634-1.553h0a1.6,1.6,0,0,1,1.634-1.552h25.5a1.6,1.6,0,0,1,1.634,1.552h0A1.6,1.6,0,0,1,61.052,130.584Z" transform="translate(-33.921 -100.03)" fill="#c4c4c4"/>
            <path id="Path_1277415" data-name="Path 1277415" d="M64.05,137.446h-28.5a1.6,1.6,0,0,1-1.634-1.552h0a1.6,1.6,0,0,1,1.634-1.552h28.5a1.6,1.6,0,0,1,1.634,1.552h0A1.6,1.6,0,0,1,64.05,137.446Z" transform="translate(-33.921 -100.03)" fill="#c4c4c4"/>
          </g>
        </g>
        <g id="Group_1209275" data-name="Group 1209275" transform="translate(72.413 19.494)">
          <g id="Group_1209273" data-name="Group 1209273">
            <path id="Path_1277416" data-name="Path 1277416" d="M105.339,211.555l5.3-6.178,5.222,6.178,5.3-6.178,5.223,6.178,5.3-6.178,5.223,6.178,5.3-6.178,5.222,6.178,5.3-6.178,5.223,6.178,5.3-6.178,5.222,6.178,5.3-6.178,5.222,6.178,5.3-6.178,5.222,6.178,5.3-6.178,5.222,6.178,5.3-6.178,5.223,6.178,5.3-6.178,5.222,6.178,5.3-6.178,5.208,6.161V63.379H105.328V211.555Z" transform="translate(-93.34 -49.256)" fill="#3c6f7a" opacity="0.16"/>
            <path id="Path_1277417" data-name="Path 1277417" d="M93.949,199.928l5.3-6.178,5.223,6.178,5.3-6.178L115,199.928l5.3-6.178,5.222,6.178,5.3-6.178,5.223,6.178,5.3-6.178,5.222,6.178,5.3-6.178,5.222,6.178,5.3-6.178,5.223,6.178,5.3-6.178,5.222,6.178,5.3-6.178,5.223,6.178,5.3-6.178,5.222,6.178,5.3-6.178,5.222,6.178,5.3-6.178,5.208,6.161V49.256H93.938V199.928Z" transform="translate(-93.938 -49.256)" fill="#f7f7f7"/>
          </g>
          <g id="Group_1209274" data-name="Group 1209274" transform="translate(12.722 18.671)">
            <path id="Path_1277418" data-name="Path 1277418" d="M150.255,100.785H108.274a2.195,2.195,0,0,1-2.249-2.137h0a2.2,2.2,0,0,1,2.249-2.137h41.981a2.195,2.195,0,0,1,2.249,2.137h0A2.195,2.195,0,0,1,150.255,100.785Z" transform="translate(-106.025 -67.926)" fill="#c4c4c4"/>
            <path id="Path_1277419" data-name="Path 1277419" d="M199.8,100.785H184.028a2.2,2.2,0,0,1-2.249-2.137h0a2.2,2.2,0,0,1,2.249-2.137H199.8a2.195,2.195,0,0,1,2.249,2.137h0A2.194,2.194,0,0,1,199.8,100.785Z" transform="translate(-102.047 -67.926)" fill="#c4c4c4"/>
            <path id="Path_1277420" data-name="Path 1277420" d="M199.8,110.23H184.028a2.2,2.2,0,0,1-2.249-2.137h0a2.195,2.195,0,0,1,2.249-2.137H199.8a2.195,2.195,0,0,1,2.249,2.137h0A2.194,2.194,0,0,1,199.8,110.23Z" transform="translate(-102.047 -67.926)" fill="#c4c4c4"/>
            <path id="Path_1277421" data-name="Path 1277421" d="M199.8,119.675H184.028a2.2,2.2,0,0,1-2.249-2.137h0a2.2,2.2,0,0,1,2.249-2.137H199.8a2.195,2.195,0,0,1,2.249,2.137h0A2.194,2.194,0,0,1,199.8,119.675Z" transform="translate(-102.047 -67.926)" fill="#c4c4c4"/>
            <path id="Path_1277422" data-name="Path 1277422" d="M199.8,138.566H184.028a2.2,2.2,0,0,1-2.249-2.137h0a2.2,2.2,0,0,1,2.249-2.137H199.8a2.195,2.195,0,0,1,2.249,2.137h0A2.194,2.194,0,0,1,199.8,138.566Z" transform="translate(-102.047 -67.926)" fill="#c4c4c4"/>
            <path id="Path_1277423" data-name="Path 1277423" d="M199.8,148.011H184.028a2.2,2.2,0,0,1-2.249-2.137h0a2.2,2.2,0,0,1,2.249-2.137H199.8a2.195,2.195,0,0,1,2.249,2.137h0A2.195,2.195,0,0,1,199.8,148.011Z" transform="translate(-102.047 -67.926)" fill="#c4c4c4"/>
            <path id="Path_1277424" data-name="Path 1277424" d="M133.991,110.23H108.275a2.195,2.195,0,0,1-2.249-2.137h0a2.195,2.195,0,0,1,2.249-2.137h25.716a2.195,2.195,0,0,1,2.249,2.137h0A2.2,2.2,0,0,1,133.991,110.23Z" transform="translate(-106.025 -67.926)" fill="#c4c4c4"/>
            <path id="Path_1277425" data-name="Path 1277425" d="M140.18,119.675H108.274a2.195,2.195,0,0,1-2.249-2.137h0a2.2,2.2,0,0,1,2.249-2.137H140.18a2.2,2.2,0,0,1,2.249,2.137h0A2.194,2.194,0,0,1,140.18,119.675Z" transform="translate(-106.025 -67.926)" fill="#c4c4c4"/>
            <path id="Path_1277426" data-name="Path 1277426" d="M143.369,138.566H108.274a2.2,2.2,0,0,1-2.249-2.137h0a2.2,2.2,0,0,1,2.249-2.137h35.095a2.195,2.195,0,0,1,2.249,2.137h0A2.194,2.194,0,0,1,143.369,138.566Z" transform="translate(-106.025 -67.926)" fill="#c4c4c4"/>
            <path id="Path_1277427" data-name="Path 1277427" d="M147.5,148.011H108.274a2.195,2.195,0,0,1-2.249-2.137h0a2.2,2.2,0,0,1,2.249-2.137H147.5a2.195,2.195,0,0,1,2.249,2.137h0A2.195,2.195,0,0,1,147.5,148.011Z" transform="translate(-106.025 -67.926)" fill="#c4c4c4"/>
            <path id="Path_1277428" data-name="Path 1277428" d="M199.8,72.2H184.028a2.2,2.2,0,0,1-2.249-2.137h0a2.2,2.2,0,0,1,2.249-2.137H199.8a2.195,2.195,0,0,1,2.249,2.137h0A2.194,2.194,0,0,1,199.8,72.2Z" transform="translate(-102.047 -67.926)" fill="#c4c4c4"/>
            <path id="Path_1277429" data-name="Path 1277429" d="M199.8,81.645H184.028a2.2,2.2,0,0,1-2.249-2.137h0a2.195,2.195,0,0,1,2.249-2.137H199.8a2.195,2.195,0,0,1,2.249,2.137h0A2.194,2.194,0,0,1,199.8,81.645Z" transform="translate(-102.047 -67.926)" fill="#c4c4c4"/>
            <path id="Path_1277430" data-name="Path 1277430" d="M143.369,72.2H108.274a2.2,2.2,0,0,1-2.249-2.137h0a2.2,2.2,0,0,1,2.249-2.137h35.095a2.195,2.195,0,0,1,2.249,2.137h0A2.195,2.195,0,0,1,143.369,72.2Z" transform="translate(-106.025 -67.926)" fill="#c4c4c4"/>
            <path id="Path_1277431" data-name="Path 1277431" d="M147.5,81.645H108.274a2.195,2.195,0,0,1-2.249-2.137h0a2.195,2.195,0,0,1,2.249-2.137H147.5a2.195,2.195,0,0,1,2.249,2.137h0A2.195,2.195,0,0,1,147.5,81.645Z" transform="translate(-106.025 -67.926)" fill="#c4c4c4"/>
          </g>
        </g>
        <path id="Path_1277432" data-name="Path 1277432" d="M155.465,160.166H115.279a9.032,9.032,0,0,0-9.254,8.792h0a9.032,9.032,0,0,0,9.254,8.792h40.186a9.032,9.032,0,0,0,9.254-8.792h0A9.032,9.032,0,0,0,155.465,160.166Z" transform="translate(-20.89 -29.762)" fill="#e8e8e8"/>
        <g id="Group_1209277" data-name="Group 1209277" transform="translate(168.009 126.499)">
          <g id="Group_1209276" data-name="Group 1209276">
            <path id="Path_1277433" data-name="Path 1277433" d="M192.691,176.347v2.511h-2.642v-2.511h-5.285v-3.766h5.285v-3.138q-5.286,0-5.285-5.272,0-5.4,5.285-5.4v-2.511h2.642v2.511h5.285v3.766h-5.285v3.138q5.285,0,5.285,5.4Q197.975,176.347,192.691,176.347Zm-3.963-12.176q0,1.506,1.321,1.506v-3.138Q188.727,162.539,188.728,164.17Zm3.963,5.272v3.138q1.321,0,1.321-1.506Q194.012,169.443,192.691,169.442Z" transform="translate(-184.764 -156.261)" fill="#f55b62"/>
          </g>
        </g>
        <g id="Group_1209280" data-name="Group 1209280" transform="translate(72.413 19.494)">
          <g id="Group_1209279" data-name="Group 1209279">
            <g id="Group_1209278" data-name="Group 1209278" clip-path="url(#clip-path-2)">
              <path id="Path_1277434" data-name="Path 1277434" d="M207.7,123.2c-26.356,0-47.8-20.372-47.8-45.413s21.442-45.413,47.8-45.413,47.8,20.372,47.8,45.413S234.052,123.2,207.7,123.2Z" transform="translate(-90.474 -49.256)" fill="#595959" opacity="0.13"/>
            </g>
          </g>
        </g>
        <g id="Group_1209282" data-name="Group 1209282" transform="translate(139.462)">
          <ellipse id="Ellipse_12668" data-name="Ellipse 12668" cx="43.095" cy="40.944" rx="43.095" ry="40.944" fill="#f03e3e"/>
          <g id="Group_1209281" data-name="Group 1209281" transform="translate(27.139 26.097)">
            <line id="Line_692" data-name="Line 692" x2="31.517" y2="29.945" fill="#13d6bf"/>
            <line id="Line_693" data-name="Line 693" y1="29.945" x2="31.517" fill="#13d6bf"/>
          </g>
        </g>
      </g>
    </g>
  </g>
</svg>
