<svg xmlns="http://www.w3.org/2000/svg" xmlns:xlink="http://www.w3.org/1999/xlink" width="272" height="269" viewBox="0 0 272 269">
  <defs>
    <clipPath id="clip-path">
      <path id="Rectangle_412921" data-name="Rectangle 412921" d="M0,0H257a15,15,0,0,1,15,15V254a15,15,0,0,1-15,15H0a0,0,0,0,1,0,0V0A0,0,0,0,1,0,0Z" transform="translate(1043.051 5434.087)" fill="#fff"/>
    </clipPath>
  </defs>
  <g id="Mask_Group_1099373" data-name="Mask Group 1099373" transform="translate(-1043.051 -5434.087)" clip-path="url(#clip-path)">
    <g id="_5055745_45830" data-name="5055745_45830" transform="translate(1043.051 5459.462)">
      <rect id="Rectangle_412922" data-name="Rectangle 412922" width="272" height="275.249" transform="translate(0 -24)" fill="#6c6dad"/>
      <g id="Group_1209361" data-name="Group 1209361">
        <g id="Group_1209322" data-name="Group 1209322">
          <g id="Group_1209312" data-name="Group 1209312">
            <g id="Group_1209291" data-name="Group 1209291">
              <path id="Path_1277461" data-name="Path 1277461" d="M239.667,53.039l-56.728-8.028a8.184,8.184,0,0,0-9.249,6.955l-3.767,26.621-5.242,37.038-1.927,42.819a9.936,9.936,0,0,0,8.445,11.229l45.072,6.379a9.937,9.937,0,0,0,11.231-8.445l10.112-41.661,5.241-37.038,3.768-26.62A8.183,8.183,0,0,0,239.667,53.039Z" fill="#e9eaed"/>
              <path id="Path_1277462" data-name="Path 1277462" d="M239.667,53.039l-56.728-8.028a8.184,8.184,0,0,0-9.249,6.955L169.369,82.5l28.475,4.03c8.691,1.23,20.271,1.182,27.539,6.872,5.53,4.328,5.514,10.787,4.312,17.2-1.831,9.769-2.98,19.771-5.849,29.312-3.461,11.5-6.56,28.1-21.27,29.373-9.876.856-20.353-1.444-30-3.352-2.936-.579-6.959-.677-9.159-3.055a5,5,0,0,1-.451-.584,9.936,9.936,0,0,0,8.232,7.373l45.072,6.379a9.937,9.937,0,0,0,11.231-8.445l10.112-41.661,9.009-63.659A8.182,8.182,0,0,0,239.667,53.039Z" fill="#c3c2d0"/>
              <path id="Path_1277463" data-name="Path 1277463" d="M242.937,88.329l3.685-26.041a8.183,8.183,0,0,0-6.955-9.249L182.94,45.011a8.184,8.184,0,0,0-9.249,6.955l-3.685,26.042Z" fill="#9694c4"/>
              <path id="Path_1277464" data-name="Path 1277464" d="M179.172,62.236c4.512-4.564,10.3-6.506,16.552-7.554a88.581,88.581,0,0,1,20.731-.755l-31.039-4.392a8.182,8.182,0,0,0-9.249,6.955L173.64,74.349C174.979,70.14,175.817,65.63,179.172,62.236Z" fill="#a5a9d2"/>
              <path id="Path_1277465" data-name="Path 1277465" d="M239.667,53.039l-5.285-.748a20.83,20.83,0,0,1,.516,12.655c-1.627,6.78-6.012,9.9-12.957,9.8-12.117-.178-23.8-3.332-35.814-4.134-3.971-.265-10.541.16-14.789-2.016l-1.332,9.411,72.932,10.321,3.685-26.041A8.183,8.183,0,0,0,239.667,53.039Z" fill="#857eb1"/>
              <g id="Group_1209287" data-name="Group 1209287">
                <path id="Path_1277466" data-name="Path 1277466" d="M240.791,74.287a5.174,5.174,0,0,1-5.846,4.4L180.358,70.96a5.174,5.174,0,0,1-4.4-5.848h0a5.173,5.173,0,0,1,5.847-4.4l54.587,7.725a5.174,5.174,0,0,1,4.4,5.847Z" fill="#6c6dad"/>
                <path id="Path_1277467" data-name="Path 1277467" d="M236.395,68.44l-.333-.047a5.167,5.167,0,0,1-5.236,7.643l-54.255-7.678a5.161,5.161,0,0,0,3.786,2.6l54.587,7.725a5.173,5.173,0,0,0,1.45-10.244Z" fill="#5e60a4"/>
              </g>
              <g id="Group_1209290" data-name="Group 1209290">
                <g id="Group_1209288" data-name="Group 1209288">
                  <path id="Path_1277468" data-name="Path 1277468" d="M191.275,123.4a2.648,2.648,0,0,1-2.993,2.252l-10.121-1.432a2.648,2.648,0,0,1-2.25-2.993l1.432-10.122a2.647,2.647,0,0,1,2.992-2.249l10.121,1.432a2.647,2.647,0,0,1,2.251,2.991Z" fill="#6c6dad"/>
                  <path id="Path_1277469" data-name="Path 1277469" d="M208.753,125.874a2.648,2.648,0,0,1-2.993,2.251l-10.119-1.432a2.648,2.648,0,0,1-2.25-2.993l1.432-10.122a2.647,2.647,0,0,1,2.993-2.249l10.12,1.432a2.646,2.646,0,0,1,2.25,2.991Z" fill="#6c6dad"/>
                  <path id="Path_1277470" data-name="Path 1277470" d="M226.234,128.349a2.65,2.65,0,0,1-2.994,2.251l-10.121-1.432a2.649,2.649,0,0,1-2.25-2.993l1.432-10.121a2.648,2.648,0,0,1,2.992-2.25l10.121,1.432a2.648,2.648,0,0,1,2.252,2.991Z" fill="#6c6dad"/>
                  <path id="Path_1277471" data-name="Path 1277471" d="M188.619,142.163a2.649,2.649,0,0,1-2.993,2.252l-10.121-1.432a2.648,2.648,0,0,1-2.25-2.994l1.432-10.12a2.646,2.646,0,0,1,2.992-2.25l10.121,1.432a2.647,2.647,0,0,1,2.25,2.993Z" fill="#6c6dad"/>
                  <path id="Path_1277472" data-name="Path 1277472" d="M206.1,144.638a2.648,2.648,0,0,1-2.993,2.252l-10.12-1.432a2.648,2.648,0,0,1-2.25-2.994l1.432-10.119a2.647,2.647,0,0,1,2.993-2.25l10.119,1.432a2.648,2.648,0,0,1,2.251,2.993Z" fill="#6c6dad"/>
                  <path id="Path_1277473" data-name="Path 1277473" d="M223.579,147.111a2.649,2.649,0,0,1-2.994,2.252l-10.121-1.432a2.649,2.649,0,0,1-2.25-2.994l1.432-10.12a2.648,2.648,0,0,1,2.993-2.25L222.759,134a2.648,2.648,0,0,1,2.252,2.993Z" fill="#6c6dad"/>
                  <path id="Path_1277474" data-name="Path 1277474" d="M185.964,160.926a2.648,2.648,0,0,1-2.993,2.252l-10.121-1.432a2.648,2.648,0,0,1-2.25-2.993l1.432-10.121a2.646,2.646,0,0,1,2.992-2.25l10.121,1.432a2.646,2.646,0,0,1,2.25,2.993Z" fill="#6c6dad"/>
                  <path id="Path_1277475" data-name="Path 1277475" d="M203.442,163.4a2.648,2.648,0,0,1-2.993,2.252L190.33,164.22a2.649,2.649,0,0,1-2.251-2.994l1.432-10.12a2.647,2.647,0,0,1,2.993-2.25l10.12,1.432a2.647,2.647,0,0,1,2.25,2.993Z" fill="#6c6dad"/>
                  <path id="Path_1277476" data-name="Path 1277476" d="M220.924,165.874a2.65,2.65,0,0,1-2.994,2.252l-10.121-1.432a2.649,2.649,0,0,1-2.25-2.994l1.432-10.121a2.649,2.649,0,0,1,2.993-2.25l10.121,1.432a2.648,2.648,0,0,1,2.252,2.993Z" fill="#6c6dad"/>
                </g>
                <g id="Group_1209289" data-name="Group 1209289">
                  <path id="Path_1277477" data-name="Path 1277477" d="M231.831,93.168a1.985,1.985,0,0,0-1.689-2.245L181.575,84.05a1.984,1.984,0,0,0-2.243,1.688L177.3,100.125a1.986,1.986,0,0,0,1.687,2.245l48.568,6.873a1.986,1.986,0,0,0,2.245-1.689Z" fill="#95bae1"/>
                  <path id="Path_1277478" data-name="Path 1277478" d="M199.5,88.742c9.544,1.1,19.118,2.108,28.67,3.242l-45.2-6.4a1.985,1.985,0,0,0-2.244,1.688l-1.572,11.1C182.186,89.79,191.123,87.783,199.5,88.742Z" fill="#a2cbeb"/>
                  <path id="Path_1277479" data-name="Path 1277479" d="M230.143,90.923l-3.768-.534-1.647,11.635a1.986,1.986,0,0,1-2.245,1.688l-44.8-6.34-.39,2.753a1.986,1.986,0,0,0,1.687,2.245l48.568,6.873a1.986,1.986,0,0,0,2.245-1.689l2.036-14.387A1.987,1.987,0,0,0,230.143,90.923Z" fill="#80b2de"/>
                </g>
              </g>
            </g>
            <g id="Group_1209311" data-name="Group 1209311">
              <rect id="Rectangle_412923" data-name="Rectangle 412923" width="51.042" height="55.463" transform="translate(180.188 70.942) rotate(-81.946)" fill="#e9eaed"/>
              <path id="Path_1277480" data-name="Path 1277480" d="M189.438,42.02c2.442-4.978,5.212-8.885,10.418-11.187a46.444,46.444,0,0,1,17.159-3.75L190.1,23.274,186.7,47.3C187.587,45.528,188.564,43.8,189.438,42.02Z" fill="#fdfdfd"/>
              <path id="Path_1277481" data-name="Path 1277481" d="M230.222,78.016l4.889.692,7.153-50.54-4.065-.575q-.1.683-.191,1.368C236.3,41.288,234.6,53.615,232.73,65.92A87.838,87.838,0,0,1,230.222,78.016Z" fill="#d5d5de"/>
              <g id="Group_1209310" data-name="Group 1209310">
                <g id="Group_1209292" data-name="Group 1209292">
                  <path id="Path_1277482" data-name="Path 1277482" d="M211.953,47.236a.718.718,0,0,1-.811.609l-20.676-2.926a.717.717,0,0,1-.61-.811h0a.717.717,0,0,1,.811-.609l20.676,2.926a.718.718,0,0,1,.609.811Z" fill="#dadce0"/>
                  <path id="Path_1277483" data-name="Path 1277483" d="M210.376,47.013a.717.717,0,0,1-.811.608l-17.522-2.479a.717.717,0,0,1-.61-.811h0a.717.717,0,0,1,.811-.608L209.766,46.2a.718.718,0,0,1,.61.811Z" fill="#dadce0"/>
                </g>
                <g id="Group_1209293" data-name="Group 1209293">
                  <path id="Path_1277484" data-name="Path 1277484" d="M222.222,51.222a.717.717,0,0,1-.81.61l-31.3-4.429a.718.718,0,0,1-.609-.811h0a.716.716,0,0,1,.811-.61l31.3,4.429a.716.716,0,0,1,.608.811Z" fill="#dadce0"/>
                  <path id="Path_1277485" data-name="Path 1277485" d="M220.646,51a.719.719,0,0,1-.811.61l-28.143-3.983a.719.719,0,0,1-.61-.811h0a.717.717,0,0,1,.811-.61l28.143,3.983a.718.718,0,0,1,.61.811Z" fill="#dadce0"/>
                </g>
                <g id="Group_1209300" data-name="Group 1209300">
                  <g id="Group_1209296" data-name="Group 1209296">
                    <g id="Group_1209294" data-name="Group 1209294">
                      <path id="Path_1277486" data-name="Path 1277486" d="M208.62,32.837l-1.438-.2a.237.237,0,0,0-.185.047.231.231,0,0,0-.1.164l-.728,5.139a.247.247,0,0,1-.092.165.232.232,0,0,1-.19.047l-1.541-.218a.239.239,0,0,1-.165-.1.234.234,0,0,1-.049-.185l.727-5.139a.253.253,0,0,0-.041-.184.233.233,0,0,0-.17-.1l-1.46-.207a.249.249,0,0,1-.212-.281l.2-1.4a.243.243,0,0,1,.1-.164.235.235,0,0,1,.185-.047l5.427.768a.233.233,0,0,1,.17.1.247.247,0,0,1,.043.184l-.2,1.4a.248.248,0,0,1-.093.165A.229.229,0,0,1,208.62,32.837Z" fill="#dadce0"/>
                      <path id="Path_1277487" data-name="Path 1277487" d="M211.312,31.529a.381.381,0,0,1,.161-.14.366.366,0,0,1,.221-.037l1.44.2a.353.353,0,0,1,.19.095.4.4,0,0,1,.118.179l2.012,7.416a.22.22,0,0,1-.042.193.231.231,0,0,1-.236.072l-1.758-.249a.372.372,0,0,1-.2-.1.475.475,0,0,1-.126-.18l-.19-.656a.489.489,0,0,0-.127-.181.359.359,0,0,0-.192-.094l-2.169-.306a.371.371,0,0,0-.219.036.392.392,0,0,0-.161.141l-.377.576a.386.386,0,0,1-.16.139.357.357,0,0,1-.212.039l-1.768-.251a.321.321,0,0,1-.1-.036.24.24,0,0,1-.084-.075.211.211,0,0,1-.032-.109.248.248,0,0,1,.052-.139Zm-.026,4.557.915.129a.17.17,0,0,0,.159-.045.143.143,0,0,0,.017-.161c-.044-.179-.1-.393-.161-.636s-.121-.47-.177-.68c-.017-.066-.043-.1-.079-.106s-.068.022-.1.08l-.69,1.171a.167.167,0,0,0-.023.159A.165.165,0,0,0,211.286,36.086Z" fill="#dadce0"/>
                      <path id="Path_1277488" data-name="Path 1277488" d="M218.555,35.994l-2.112-3.675a.2.2,0,0,1,0-.189.13.13,0,0,1,.146-.084l1.975.28a.464.464,0,0,1,.206.093.525.525,0,0,1,.154.169l1.018,2.063a.183.183,0,0,0,.133.1.175.175,0,0,0,.155-.062q.394-.416.787-.858c.262-.3.518-.579.765-.852a.5.5,0,0,1,.194-.113.479.479,0,0,1,.225-.027l1.963.278a.132.132,0,0,1,.132.124.223.223,0,0,1-.07.178L221.2,36.368a.326.326,0,0,0-.09.186.317.317,0,0,0,.035.2l2.053,3.583a.2.2,0,0,1,0,.194.141.141,0,0,1-.154.089l-1.953-.276a.448.448,0,0,1-.207-.093.53.53,0,0,1-.155-.169l-.979-1.973a.175.175,0,0,0-.132-.1.181.181,0,0,0-.157.063L217.967,39.7a.522.522,0,0,1-.2.12.455.455,0,0,1-.225.031l-1.952-.276a.134.134,0,0,1-.12-.127.208.208,0,0,1,.059-.186l2.965-2.872a.326.326,0,0,0,.088-.187A.315.315,0,0,0,218.555,35.994Z" fill="#dadce0"/>
                    </g>
                    <g id="Group_1209295" data-name="Group 1209295">
                      <path id="Path_1277489" data-name="Path 1277489" d="M208.62,32.837l-1.438-.2a.237.237,0,0,0-.185.047.231.231,0,0,0-.1.164l-.728,5.139a.247.247,0,0,1-.092.165.232.232,0,0,1-.19.047l-1.541-.218a.239.239,0,0,1-.165-.1.234.234,0,0,1-.049-.185l.727-5.139a.253.253,0,0,0-.041-.184.233.233,0,0,0-.17-.1l-1.46-.207a.249.249,0,0,1-.212-.281l.2-1.4a.243.243,0,0,1,.1-.164.235.235,0,0,1,.185-.047l5.427.768a.233.233,0,0,1,.17.1.247.247,0,0,1,.043.184l-.2,1.4a.248.248,0,0,1-.093.165A.229.229,0,0,1,208.62,32.837Z" fill="#dadce0"/>
                      <path id="Path_1277490" data-name="Path 1277490" d="M211.312,31.529a.381.381,0,0,1,.161-.14.366.366,0,0,1,.221-.037l1.44.2a.353.353,0,0,1,.19.095.4.4,0,0,1,.118.179l2.012,7.416a.22.22,0,0,1-.042.193.231.231,0,0,1-.236.072l-1.758-.249a.372.372,0,0,1-.2-.1.475.475,0,0,1-.126-.18l-.19-.656a.489.489,0,0,0-.127-.181.359.359,0,0,0-.192-.094l-2.169-.306a.371.371,0,0,0-.219.036.392.392,0,0,0-.161.141l-.377.576a.386.386,0,0,1-.16.139.357.357,0,0,1-.212.039l-1.768-.251a.321.321,0,0,1-.1-.036.24.24,0,0,1-.084-.075.211.211,0,0,1-.032-.109.248.248,0,0,1,.052-.139Zm-.026,4.557.915.129a.17.17,0,0,0,.159-.045.143.143,0,0,0,.017-.161c-.044-.179-.1-.393-.161-.636s-.121-.47-.177-.68c-.017-.066-.043-.1-.079-.106s-.068.022-.1.08l-.69,1.171a.167.167,0,0,0-.023.159A.165.165,0,0,0,211.286,36.086Z" fill="#dadce0"/>
                      <path id="Path_1277491" data-name="Path 1277491" d="M218.555,35.994l-2.112-3.675a.2.2,0,0,1,0-.189.13.13,0,0,1,.146-.084l1.975.28a.464.464,0,0,1,.206.093.525.525,0,0,1,.154.169l1.018,2.063a.183.183,0,0,0,.133.1.175.175,0,0,0,.155-.062q.394-.416.787-.858c.262-.3.518-.579.765-.852a.5.5,0,0,1,.194-.113.479.479,0,0,1,.225-.027l1.963.278a.132.132,0,0,1,.132.124.223.223,0,0,1-.07.178L221.2,36.368a.326.326,0,0,0-.09.186.317.317,0,0,0,.035.2l2.053,3.583a.2.2,0,0,1,0,.194.141.141,0,0,1-.154.089l-1.953-.276a.448.448,0,0,1-.207-.093.53.53,0,0,1-.155-.169l-.979-1.973a.175.175,0,0,0-.132-.1.181.181,0,0,0-.157.063L217.967,39.7a.522.522,0,0,1-.2.12.455.455,0,0,1-.225.031l-1.952-.276a.134.134,0,0,1-.12-.127.208.208,0,0,1,.059-.186l2.965-2.872a.326.326,0,0,0,.088-.187A.315.315,0,0,0,218.555,35.994Z" fill="#dadce0"/>
                    </g>
                  </g>
                  <g id="Group_1209299" data-name="Group 1209299">
                    <g id="Group_1209297" data-name="Group 1209297">
                      <path id="Path_1277492" data-name="Path 1277492" d="M235.776,32.544a.717.717,0,0,1-.81.609L192.972,27.21a.717.717,0,0,1-.61-.811h0a.717.717,0,0,1,.811-.61l41.995,5.943a.718.718,0,0,1,.609.811Z" fill="#dadce0"/>
                      <path id="Path_1277493" data-name="Path 1277493" d="M234.2,32.321a.717.717,0,0,1-.811.609l-38.84-5.5a.718.718,0,0,1-.61-.81h0a.718.718,0,0,1,.811-.61l38.84,5.5a.718.718,0,0,1,.61.811Z" fill="#dadce0"/>
                    </g>
                    <g id="Group_1209298" data-name="Group 1209298">
                      <path id="Path_1277494" data-name="Path 1277494" d="M234.1,44.394a.718.718,0,0,1-.811.61L191.3,39.062a.718.718,0,0,1-.61-.811h0a.717.717,0,0,1,.811-.609l41.995,5.943a.718.718,0,0,1,.609.81Z" fill="#dadce0"/>
                      <path id="Path_1277495" data-name="Path 1277495" d="M232.522,44.172a.719.719,0,0,1-.811.61l-38.839-5.5a.717.717,0,0,1-.61-.811h0a.717.717,0,0,1,.811-.609l38.84,5.5a.717.717,0,0,1,.61.81Z" fill="#dadce0"/>
                    </g>
                  </g>
                </g>
                <g id="Group_1209309" data-name="Group 1209309">
                  <g id="Group_1209301" data-name="Group 1209301">
                    <path id="Path_1277496" data-name="Path 1277496" d="M231.56,60.29a2.25,2.25,0,0,1-2.543,1.913L190.627,56.77a2.25,2.25,0,0,1-1.913-2.543h0a2.25,2.25,0,0,1,2.544-1.913l38.39,5.433a2.25,2.25,0,0,1,1.912,2.543Z" fill="#dadce0"/>
                    <path id="Path_1277497" data-name="Path 1277497" d="M226.611,59.59a2.25,2.25,0,0,1-2.543,1.912l-28.49-4.032a2.249,2.249,0,0,1-1.911-2.543h0a2.25,2.25,0,0,1,2.542-1.913l28.49,4.032a2.251,2.251,0,0,1,1.913,2.544Z" fill="#dadce0"/>
                  </g>
                  <g id="Group_1209302" data-name="Group 1209302">
                    <path id="Path_1277498" data-name="Path 1277498" d="M187.537,70.98a1.183,1.183,0,0,1-1-1.337l2.191-15.481a1.183,1.183,0,0,1,1.337-1.006h0a1.183,1.183,0,0,1,1.007,1.338l-2.191,15.481a1.184,1.184,0,0,1-1.339,1Z" fill="#dadce0"/>
                    <path id="Path_1277499" data-name="Path 1277499" d="M187.906,68.377a1.183,1.183,0,0,1-1-1.338l1.454-10.276a1.183,1.183,0,0,1,1.337-1h0A1.184,1.184,0,0,1,190.7,57.1l-1.454,10.276a1.184,1.184,0,0,1-1.339,1.006Z" fill="#dadce0"/>
                  </g>
                  <g id="Group_1209303" data-name="Group 1209303">
                    <path id="Path_1277500" data-name="Path 1277500" d="M201.438,72.843a.739.739,0,0,1-.615-.844L203.26,54.77a.741.741,0,0,1,.826-.641h0a.739.739,0,0,1,.615.844L202.263,72.2a.738.738,0,0,1-.825.64Z" fill="#dadce0"/>
                    <path id="Path_1277501" data-name="Path 1277501" d="M201.672,71.193a.739.739,0,0,1-.615-.845l1.97-13.926a.739.739,0,0,1,.826-.641h0a.738.738,0,0,1,.615.844L202.5,70.552a.739.739,0,0,1-.825.641Z" fill="#dadce0"/>
                  </g>
                  <g id="Group_1209304" data-name="Group 1209304">
                    <path id="Path_1277502" data-name="Path 1277502" d="M228.042,76.712a1.183,1.183,0,0,1-1.006-1.338l2.192-15.481a1.183,1.183,0,0,1,1.338-1.006h0a1.183,1.183,0,0,1,1,1.338l-2.191,15.481a1.182,1.182,0,0,1-1.337,1.006Z" fill="#dadce0"/>
                    <path id="Path_1277503" data-name="Path 1277503" d="M228.411,74.11a1.183,1.183,0,0,1-1.006-1.338L228.858,62.5a1.183,1.183,0,0,1,1.338-1h0a1.182,1.182,0,0,1,1,1.336L229.748,73.1a1.184,1.184,0,0,1-1.337,1.006Z" fill="#dadce0"/>
                  </g>
                  <g id="Group_1209308" data-name="Group 1209308">
                    <g id="Group_1209305" data-name="Group 1209305">
                      <path id="Path_1277504" data-name="Path 1277504" d="M186.462,70.14a.691.691,0,0,1,.79-.576l41.457,5.867a.689.689,0,0,1,.6.772h0a.69.69,0,0,1-.789.576l-41.458-5.867a.692.692,0,0,1-.6-.773Z" fill="#dadce0"/>
                      <path id="Path_1277505" data-name="Path 1277505" d="M188,70.357a.69.69,0,0,1,.789-.576l38.374,5.43a.691.691,0,0,1,.6.773h0a.692.692,0,0,1-.79.576L188.6,71.131a.692.692,0,0,1-.6-.773Z" fill="#dadce0"/>
                    </g>
                    <g id="Group_1209306" data-name="Group 1209306">
                      <path id="Path_1277506" data-name="Path 1277506" d="M187.115,65.53a.692.692,0,0,1,.79-.575l41.457,5.867a.691.691,0,0,1,.6.773h0a.69.69,0,0,1-.789.577L187.714,66.3a.692.692,0,0,1-.6-.774Z" fill="#dadce0"/>
                      <path id="Path_1277507" data-name="Path 1277507" d="M188.657,65.749a.691.691,0,0,1,.789-.576L227.82,70.6a.692.692,0,0,1,.6.772h0a.692.692,0,0,1-.79.577l-38.374-5.43a.691.691,0,0,1-.6-.773Z" fill="#dadce0"/>
                    </g>
                    <g id="Group_1209307" data-name="Group 1209307">
                      <path id="Path_1277508" data-name="Path 1277508" d="M187.766,60.923a.693.693,0,0,1,.791-.577l41.457,5.867a.69.69,0,0,1,.6.773h0a.689.689,0,0,1-.789.575l-41.458-5.867a.69.69,0,0,1-.6-.771Z" fill="#dadce0"/>
                      <path id="Path_1277509" data-name="Path 1277509" d="M189.309,61.142a.691.691,0,0,1,.789-.577L228.472,66a.693.693,0,0,1,.6.774h0a.692.692,0,0,1-.79.575l-38.374-5.43a.69.69,0,0,1-.6-.772Z" fill="#dadce0"/>
                    </g>
                  </g>
                </g>
              </g>
            </g>
          </g>
          <g id="Group_1209321" data-name="Group 1209321">
            <path id="Path_1277510" data-name="Path 1277510" d="M249.269,155.605a3.717,3.717,0,0,0-3.16-4.2l-58.493-8.278a3.719,3.719,0,0,0-4.2,3.161L178,184.559a3.718,3.718,0,0,0,3.16,4.2l58.493,8.278a3.718,3.718,0,0,0,4.2-3.161Z" fill="#fdda59"/>
            <path id="Path_1277511" data-name="Path 1277511" d="M249.269,155.605a3.717,3.717,0,0,0-3.16-4.2l-58.493-8.278a3.719,3.719,0,0,0-4.2,3.161L178,184.559a3.718,3.718,0,0,0,3.16,4.2l58.493,8.278a3.718,3.718,0,0,0,4.2-3.161Z" fill="#fdda59"/>
            <path id="Path_1277512" data-name="Path 1277512" d="M184.531,163.432c1.6-4.321,3.468-9.349,7.538-11.95,4.267-2.726,9.287-2.973,14.223-2.956,3.443.012,6.874.3,10.3.625l-26.978-3.818a3.718,3.718,0,0,0-4.2,3.161L182.371,170C183.046,167.8,183.731,165.593,184.531,163.432Z" fill="#ffeb7e"/>
            <path id="Path_1277513" data-name="Path 1277513" d="M246.109,151.4l-4.44-.628-3.923,27.72a3.717,3.717,0,0,1-4.2,3.159l-54.052-7.65-.426,3.012a3.719,3.719,0,0,0,3.16,4.2l58.493,8.277a3.718,3.718,0,0,0,4.2-3.16l4.349-30.732A3.718,3.718,0,0,0,246.109,151.4Z" fill="#f7be45"/>
            <path id="Path_1277514" data-name="Path 1277514" d="M179.152,176.4,178,184.56a3.718,3.718,0,0,0,3.16,4.2l58.493,8.278a3.718,3.718,0,0,0,4.2-3.161l1.155-8.161Z" fill="#6c6dad"/>
            <path id="Path_1277515" data-name="Path 1277515" d="M237,184.586l-.706,5a3.718,3.718,0,0,1-4.2,3.161l-54.127-7.66a3.715,3.715,0,0,0,3.193,3.681l58.493,8.278a3.718,3.718,0,0,0,4.2-3.161l1.155-8.161Z" fill="#5e60a4"/>
            <g id="Group_1209320" data-name="Group 1209320">
              <path id="Path_1277516" data-name="Path 1277516" d="M203.66,161.716a1.117,1.117,0,0,1-1.261.948l-15.186-2.149a1.116,1.116,0,0,1-.949-1.261l1.38-9.755a1.116,1.116,0,0,1,1.262-.948l15.186,2.149a1.115,1.115,0,0,1,.947,1.261Z" fill="#6c6dad"/>
              <path id="Path_1277517" data-name="Path 1277517" d="M204.094,150.7l-2.47-.35-1.168,8.254a1.115,1.115,0,0,1-1.26.947l-12.717-1.8-.213,1.5a1.116,1.116,0,0,0,.949,1.261l15.186,2.149a1.116,1.116,0,0,0,1.261-.948l1.38-9.756A1.115,1.115,0,0,0,204.094,150.7Z" fill="#5e60a4"/>
              <g id="Group_1209315" data-name="Group 1209315">
                <g id="Group_1209313" data-name="Group 1209313">
                  <path id="Path_1277518" data-name="Path 1277518" d="M226.886,163.116a.663.663,0,0,1-.75.564l-19.127-2.707a.663.663,0,0,1-.564-.75h0a.663.663,0,0,1,.75-.564l19.127,2.707a.663.663,0,0,1,.564.75Z" fill="#dadce0"/>
                  <path id="Path_1277519" data-name="Path 1277519" d="M225.426,162.91a.664.664,0,0,1-.75.564l-16.209-2.294a.664.664,0,0,1-.564-.75h0a.663.663,0,0,1,.75-.564l16.209,2.293a.664.664,0,0,1,.564.75Z" fill="#dadce0"/>
                </g>
                <g id="Group_1209314" data-name="Group 1209314">
                  <path id="Path_1277520" data-name="Path 1277520" d="M236.387,166.8a.663.663,0,0,1-.75.563l-28.954-4.1a.663.663,0,0,1-.564-.749h0a.663.663,0,0,1,.749-.564l28.954,4.1a.663.663,0,0,1,.565.75Z" fill="#dadce0"/>
                  <path id="Path_1277521" data-name="Path 1277521" d="M234.928,166.6a.665.665,0,0,1-.751.564l-26.034-3.685a.663.663,0,0,1-.564-.749h0a.663.663,0,0,1,.75-.564l26.034,3.685a.663.663,0,0,1,.565.75Z" fill="#dadce0"/>
                </g>
              </g>
              <g id="Group_1209319" data-name="Group 1209319">
                <g id="Group_1209316" data-name="Group 1209316">
                  <path id="Path_1277522" data-name="Path 1277522" d="M205.64,169.686a.663.663,0,0,1-.749.564l-19.128-2.707a.664.664,0,0,1-.565-.75h0a.664.664,0,0,1,.751-.564l19.128,2.707a.663.663,0,0,1,.563.75Z" fill="#dadce0"/>
                  <path id="Path_1277523" data-name="Path 1277523" d="M204.181,169.48a.664.664,0,0,1-.75.564l-16.209-2.294a.663.663,0,0,1-.564-.75h0a.662.662,0,0,1,.749-.564l16.21,2.294a.663.663,0,0,1,.564.75Z" fill="#dadce0"/>
                </g>
                <g id="Group_1209317" data-name="Group 1209317">
                  <path id="Path_1277524" data-name="Path 1277524" d="M211.96,176.929a.662.662,0,0,1-.75.563l-26.328-3.726a.663.663,0,0,1-.565-.749h0a.663.663,0,0,1,.751-.564l26.328,3.726a.663.663,0,0,1,.564.75Z" fill="#dadce0"/>
                  <path id="Path_1277525" data-name="Path 1277525" d="M210.5,176.723a.664.664,0,0,1-.75.564l-23.41-3.313a.664.664,0,0,1-.564-.75h0a.662.662,0,0,1,.749-.564l23.411,3.313a.663.663,0,0,1,.564.75Z" fill="#dadce0"/>
                </g>
                <g id="Group_1209318" data-name="Group 1209318">
                  <path id="Path_1277526" data-name="Path 1277526" d="M212.4,173.816a.665.665,0,0,1-.751.564l-26.328-3.726a.665.665,0,0,1-.565-.75h0a.664.664,0,0,1,.751-.563l26.328,3.726a.663.663,0,0,1,.565.749Z" fill="#dadce0"/>
                  <path id="Path_1277527" data-name="Path 1277527" d="M210.942,173.61a.662.662,0,0,1-.75.564l-23.411-3.313a.663.663,0,0,1-.564-.75h0a.664.664,0,0,1,.749-.564l23.411,3.313a.664.664,0,0,1,.564.75Z" fill="#dadce0"/>
                </g>
              </g>
              <path id="Path_1277528" data-name="Path 1277528" d="M241.521,177.233a4.5,4.5,0,0,1-5.092,3.828l-18.936-2.68a4.5,4.5,0,0,1-3.83-5.091h0a4.505,4.505,0,0,1,5.093-3.829l18.936,2.68a4.5,4.5,0,0,1,3.829,5.092Z" fill="#6c6dad"/>
              <path id="Path_1277529" data-name="Path 1277529" d="M237.691,172.14l-.29-.041a4.5,4.5,0,0,1-4.559,6.655L214.2,176.116a4.49,4.49,0,0,0,3.3,2.265l18.936,2.68a4.5,4.5,0,1,0,1.262-8.92Z" fill="#5e60a4"/>
            </g>
          </g>
        </g>
        <g id="Group_1209360" data-name="Group 1209360">
          <g id="Group_1209326" data-name="Group 1209326">
            <g id="Group_1209323" data-name="Group 1209323">
              <path id="Path_1277530" data-name="Path 1277530" d="M128.735,91.444,56.046,108.737l-4.877-20.5a8.846,8.846,0,0,1,6.55-10.641l55.5-13.2a8.846,8.846,0,0,1,10.641,6.551ZM62.658,98,118,84.832l-2.8-11.749L59.863,86.248Z" fill="#62b8a6"/>
            </g>
            <g id="Group_1209325" data-name="Group 1209325">
              <g id="Group_1209324" data-name="Group 1209324">
                <path id="Path_1277531" data-name="Path 1277531" d="M116.5,78.543l1.5,6.289L62.658,98l-1.5-6.289-8.674,2.064,3.559,14.965,72.689-17.293L125.177,76.48Z" fill="#1ea39a"/>
              </g>
            </g>
            <path id="Path_1277532" data-name="Path 1277532" d="M35.081,148.782,45.124,191a8.917,8.917,0,0,0,10.738,6.611l113.058-26.9a8.915,8.915,0,0,0,6.611-10.738l-10.042-42.216Z" fill="#62b8a6"/>
            <path id="Path_1277533" data-name="Path 1277533" d="M35.081,148.782l1.173,4.931c27.642-6.538,55.613-12.335,83-19.839,6.689-1.833,13.332-3.837,20.23-4.714,3.149-.4,6.873-.383,9.289,2.053,2.839,2.863,3.692,6.717,4.271,10.587.6,3.99,1.326,8.313.456,12.316-2.294,10.559-13.649,12.946-22.683,15.249-14.128,3.6-28.364,6.739-42.478,10.4-7.371,1.911-14.745,3.835-22.184,5.464-5.247,1.148-11.533,3.371-16.987,2.673a9.8,9.8,0,0,1-5.283-2.1l1.237,5.2a8.917,8.917,0,0,0,10.738,6.611l113.058-26.9a8.915,8.915,0,0,0,6.611-10.738L165.489,117.76Z" fill="#1ea39a"/>
            <rect id="Rectangle_412924" data-name="Rectangle 412924" width="134.04" height="3.12" transform="translate(35.074 148.779) rotate(-13.38)" fill="#00908e"/>
            <path id="Path_1277534" data-name="Path 1277534" d="M169.772,116.739l-7.844-32.972a9.5,9.5,0,0,0-11.444-7.045L30,105.386a9.5,9.5,0,0,0-7.045,11.443L30.8,149.8Z" fill="#62b8a6"/>
            <path id="Path_1277535" data-name="Path 1277535" d="M50.814,108.476c11.554-6.38,76.248-22.436,78.006-23.086l-94.993,22.6a9.5,9.5,0,0,0-7.046,11.444l3.974,16.7a35.257,35.257,0,0,1,2.419-9.448C36.512,118.748,43.392,112.574,50.814,108.476Z" fill="#92cdce"/>
            <path id="Path_1277536" data-name="Path 1277536" d="M150.484,76.723l-2.528.6a14.4,14.4,0,0,1,4.99,7.572c1.976,6.421,4.5,14.239,3.686,21-.916,7.639-10.637,9.72-16.825,10.814a125.269,125.269,0,0,0-14.386,3.015c-5.158,1.549-10.448,3.667-15.8,4.4-3.786.52-7.279-1.611-11-1.68-6.155-.115-6.926,5.285-11.62,7.331-4.91,2.142-10.594,2.842-15.8,4.034-5.492,1.257-10.995,2.466-16.485,3.735C47.6,139.2,40.062,142.71,32.7,142.794a11.8,11.8,0,0,1-3.7-.524L30.8,149.8l138.974-33.062-7.844-32.972A9.5,9.5,0,0,0,150.484,76.723Z" fill="#1ea39a"/>
            <path id="Path_1277537" data-name="Path 1277537" d="M107.028,134.645a6.242,6.242,0,0,1-4.628,7.517h0a6.241,6.241,0,0,1-7.517-4.627l-1.341-5.64a6.241,6.241,0,0,1,4.627-7.517h0a6.242,6.242,0,0,1,7.517,4.628Z" fill="#e465a1"/>
          </g>
          <g id="Group_1209359" data-name="Group 1209359">
            <g id="Group_1209352" data-name="Group 1209352">
              <rect id="Rectangle_412925" data-name="Rectangle 412925" width="69.609" height="92.365" transform="translate(108.883 101.076)" fill="#e9eaed"/>
              <path id="Path_1277538" data-name="Path 1277538" d="M115.285,127.579c2.159-6.615,4.918-11.957,10.979-15.735a58.294,58.294,0,0,1,20.664-7.676H112.812v30.451C113.6,132.263,114.513,129.943,115.285,127.579Z" fill="#fdfdfd"/>
              <path id="Path_1277539" data-name="Path 1277539" d="M173.339,101.076q0,.866,0,1.733c.044,15.619.1,31.237-.056,46.855-.117,11.781-.752,25.411-9.23,34.574-8.127,8.784-20.767,6.97-31.442,5.578a121.768,121.768,0,0,0-22.592-.59c-.345.019-.731.047-1.137.07v4.145h69.609V101.076Z" fill="#d5d5de"/>
              <g id="Group_1209351" data-name="Group 1209351">
                <g id="Group_1209327" data-name="Group 1209327">
                  <path id="Path_1277540" data-name="Path 1277540" d="M171.2,168a.9.9,0,0,1-.9.9H117.074a.9.9,0,0,1-.9-.9h0a.9.9,0,0,1,.9-.9H170.3a.9.9,0,0,1,.9.9Z" fill="#dadce0"/>
                  <path id="Path_1277541" data-name="Path 1277541" d="M169.2,168a.9.9,0,0,1-.9.9H119.074a.9.9,0,0,1-.9-.9h0a.9.9,0,0,1,.9-.9H168.3a.9.9,0,0,1,.9.9Z" fill="#dadce0"/>
                </g>
                <g id="Group_1209328" data-name="Group 1209328">
                  <path id="Path_1277542" data-name="Path 1277542" d="M171.2,179.292a.9.9,0,0,1-.9.9H117.074a.9.9,0,0,1-.9-.9h0a.9.9,0,0,1,.9-.9H170.3a.9.9,0,0,1,.9.9Z" fill="#dadce0"/>
                  <path id="Path_1277543" data-name="Path 1277543" d="M169.2,179.292a.9.9,0,0,1-.9.9H119.074a.9.9,0,0,1-.9-.9h0a.9.9,0,0,1,.9-.9H168.3a.9.9,0,0,1,.9.9Z" fill="#dadce0"/>
                </g>
                <g id="Group_1209329" data-name="Group 1209329">
                  <path id="Path_1277544" data-name="Path 1277544" d="M171.2,186.861a.9.9,0,0,1-.9.9H117.074a.9.9,0,0,1-.9-.9h0a.9.9,0,0,1,.9-.9H170.3a.9.9,0,0,1,.9.9Z" fill="#dadce0"/>
                  <path id="Path_1277545" data-name="Path 1277545" d="M169.2,186.861a.9.9,0,0,1-.9.9H119.074a.9.9,0,0,1-.9-.9h0a.9.9,0,0,1,.9-.9H168.3a.9.9,0,0,1,.9.9Z" fill="#dadce0"/>
                </g>
                <g id="Group_1209330" data-name="Group 1209330">
                  <path id="Path_1277546" data-name="Path 1277546" d="M148.6,171.145a.9.9,0,0,1-.9.9H117.074a.9.9,0,0,1-.9-.9h0a.9.9,0,0,1,.9-.9H147.7a.9.9,0,0,1,.9.9Z" fill="#dadce0"/>
                  <path id="Path_1277547" data-name="Path 1277547" d="M146.6,171.145a.9.9,0,0,1-.9.9H119.074a.9.9,0,0,1-.9-.9h0a.9.9,0,0,1,.9-.9H145.7a.9.9,0,0,1,.9.9Z" fill="#dadce0"/>
                </g>
                <g id="Group_1209331" data-name="Group 1209331">
                  <path id="Path_1277548" data-name="Path 1277548" d="M144.181,130.1a.9.9,0,0,1-.9.9H117.074a.9.9,0,0,1-.9-.9h0a.9.9,0,0,1,.9-.9h26.207a.9.9,0,0,1,.9.9Z" fill="#dadce0"/>
                  <path id="Path_1277549" data-name="Path 1277549" d="M142.182,130.1a.9.9,0,0,1-.9.9H119.074a.9.9,0,0,1-.9-.9h0a.9.9,0,0,1,.9-.9h22.209a.9.9,0,0,1,.9.9Z" fill="#dadce0"/>
                </g>
                <g id="Group_1209332" data-name="Group 1209332">
                  <path id="Path_1277550" data-name="Path 1277550" d="M157.643,133.248a.9.9,0,0,1-.9.9H117.074a.9.9,0,0,1-.9-.9h0a.9.9,0,0,1,.9-.9h39.669a.9.9,0,0,1,.9.9Z" fill="#dadce0"/>
                  <path id="Path_1277551" data-name="Path 1277551" d="M155.644,133.248a.9.9,0,0,1-.9.9H119.074a.9.9,0,0,1-.9-.9h0a.9.9,0,0,1,.9-.9h35.671a.9.9,0,0,1,.9.9Z" fill="#dadce0"/>
                </g>
                <g id="Group_1209339" data-name="Group 1209339">
                  <g id="Group_1209335" data-name="Group 1209335">
                    <g id="Group_1209333" data-name="Group 1209333">
                      <path id="Path_1277552" data-name="Path 1277552" d="M137.508,112.794h-1.824a.3.3,0,0,0-.222.092.3.3,0,0,0-.091.221v6.515a.316.316,0,0,1-.084.222.3.3,0,0,1-.228.091H133.1a.312.312,0,0,1-.313-.313v-6.515a.315.315,0,0,0-.084-.221.3.3,0,0,0-.228-.092h-1.851a.311.311,0,0,1-.312-.313v-1.771a.311.311,0,0,1,.312-.313h6.881a.3.3,0,0,1,.228.091.317.317,0,0,1,.084.222v1.771a.314.314,0,0,1-.084.222A.3.3,0,0,1,137.508,112.794Z" fill="#dadce0"/>
                      <path id="Path_1277553" data-name="Path 1277553" d="M140.622,110.7a.49.49,0,0,1,.175-.2.469.469,0,0,1,.267-.084h1.824a.442.442,0,0,1,.253.084.491.491,0,0,1,.176.2l3.8,8.861a.268.268,0,0,1-.019.248.292.292,0,0,1-.28.13H144.6a.466.466,0,0,1-.267-.084.591.591,0,0,1-.189-.2l-.352-.782a.6.6,0,0,0-.189-.2.45.45,0,0,0-.255-.084h-2.749a.464.464,0,0,0-.267.084.476.476,0,0,0-.175.2l-.365.782a.481.481,0,0,1-.177.2.446.446,0,0,1-.255.084h-2.241a.394.394,0,0,1-.137-.026.283.283,0,0,1-.118-.077.27.27,0,0,1-.059-.13.3.3,0,0,1,.04-.183Zm.769,5.668h1.16a.215.215,0,0,0,.189-.085.182.182,0,0,0-.006-.2c-.088-.216-.191-.47-.313-.762s-.235-.562-.338-.814c-.036-.078-.074-.117-.118-.117s-.083.039-.118.117l-.651,1.577a.209.209,0,0,0,0,.2A.212.212,0,0,0,141.391,116.365Z" fill="#dadce0"/>
                      <path id="Path_1277554" data-name="Path 1277554" d="M150.408,114.971l-3.271-4.2a.251.251,0,0,1-.04-.235.164.164,0,0,1,.17-.13h2.5a.577.577,0,0,1,.274.078.677.677,0,0,1,.222.182l1.629,2.385a.212.212,0,0,0,.365,0q.418-.585.828-1.205t.8-1.192a.607.607,0,0,1,.222-.175.618.618,0,0,1,.274-.072h2.489a.16.16,0,0,1,.182.13.283.283,0,0,1-.052.235l-3.245,4.2a.4.4,0,0,0-.078.248.406.406,0,0,0,.078.248l3.18,4.091a.252.252,0,0,1,.033.242.176.176,0,0,1-.176.136h-2.476a.577.577,0,0,1-.274-.078.676.676,0,0,1-.222-.182l-1.563-2.28a.211.211,0,0,0-.365,0l-1.563,2.28a.663.663,0,0,1-.222.182.575.575,0,0,1-.274.078h-2.475a.165.165,0,0,1-.17-.136.262.262,0,0,1,.039-.242l3.179-4.091a.431.431,0,0,0,0-.5Z" fill="#dadce0"/>
                    </g>
                    <g id="Group_1209334" data-name="Group 1209334">
                      <path id="Path_1277555" data-name="Path 1277555" d="M137.508,112.794h-1.824a.3.3,0,0,0-.222.092.3.3,0,0,0-.091.221v6.515a.316.316,0,0,1-.084.222.3.3,0,0,1-.228.091H133.1a.312.312,0,0,1-.313-.313v-6.515a.315.315,0,0,0-.084-.221.3.3,0,0,0-.228-.092h-1.851a.311.311,0,0,1-.312-.313v-1.771a.311.311,0,0,1,.312-.313h6.881a.3.3,0,0,1,.228.091.317.317,0,0,1,.084.222v1.771a.314.314,0,0,1-.084.222A.3.3,0,0,1,137.508,112.794Z" fill="#dadce0"/>
                      <path id="Path_1277556" data-name="Path 1277556" d="M140.622,110.7a.49.49,0,0,1,.175-.2.469.469,0,0,1,.267-.084h1.824a.442.442,0,0,1,.253.084.491.491,0,0,1,.176.2l3.8,8.861a.268.268,0,0,1-.019.248.292.292,0,0,1-.28.13H144.6a.466.466,0,0,1-.267-.084.591.591,0,0,1-.189-.2l-.352-.782a.6.6,0,0,0-.189-.2.45.45,0,0,0-.255-.084h-2.749a.464.464,0,0,0-.267.084.476.476,0,0,0-.175.2l-.365.782a.481.481,0,0,1-.177.2.446.446,0,0,1-.255.084h-2.241a.394.394,0,0,1-.137-.026.283.283,0,0,1-.118-.077.27.27,0,0,1-.059-.13.3.3,0,0,1,.04-.183Zm.769,5.668h1.16a.215.215,0,0,0,.189-.085.182.182,0,0,0-.006-.2c-.088-.216-.191-.47-.313-.762s-.235-.562-.338-.814c-.036-.078-.074-.117-.118-.117s-.083.039-.118.117l-.651,1.577a.209.209,0,0,0,0,.2A.212.212,0,0,0,141.391,116.365Z" fill="#dadce0"/>
                      <path id="Path_1277557" data-name="Path 1277557" d="M150.408,114.971l-3.271-4.2a.251.251,0,0,1-.04-.235.164.164,0,0,1,.17-.13h2.5a.577.577,0,0,1,.274.078.677.677,0,0,1,.222.182l1.629,2.385a.212.212,0,0,0,.365,0q.418-.585.828-1.205t.8-1.192a.607.607,0,0,1,.222-.175.618.618,0,0,1,.274-.072h2.489a.16.16,0,0,1,.182.13.283.283,0,0,1-.052.235l-3.245,4.2a.4.4,0,0,0-.078.248.406.406,0,0,0,.078.248l3.18,4.091a.252.252,0,0,1,.033.242.176.176,0,0,1-.176.136h-2.476a.577.577,0,0,1-.274-.078.676.676,0,0,1-.222-.182l-1.563-2.28a.211.211,0,0,0-.365,0l-1.563,2.28a.663.663,0,0,1-.222.182.575.575,0,0,1-.274.078h-2.475a.165.165,0,0,1-.17-.136.262.262,0,0,1,.039-.242l3.179-4.091a.431.431,0,0,0,0-.5Z" fill="#dadce0"/>
                    </g>
                  </g>
                  <g id="Group_1209338" data-name="Group 1209338">
                    <g id="Group_1209336" data-name="Group 1209336">
                      <path id="Path_1277558" data-name="Path 1277558" d="M171.2,107.655a.9.9,0,0,1-.9.9H117.074a.9.9,0,0,1-.9-.9h0a.9.9,0,0,1,.9-.9H170.3a.9.9,0,0,1,.9.9Z" fill="#dadce0"/>
                      <path id="Path_1277559" data-name="Path 1277559" d="M169.2,107.655a.9.9,0,0,1-.9.9H119.074a.9.9,0,0,1-.9-.9h0a.9.9,0,0,1,.9-.9H168.3a.9.9,0,0,1,.9.9Z" fill="#dadce0"/>
                    </g>
                    <g id="Group_1209337" data-name="Group 1209337">
                      <path id="Path_1277560" data-name="Path 1277560" d="M171.2,122.676a.9.9,0,0,1-.9.9H117.074a.9.9,0,0,1-.9-.9h0a.9.9,0,0,1,.9-.9H170.3a.9.9,0,0,1,.9.9Z" fill="#dadce0"/>
                      <path id="Path_1277561" data-name="Path 1277561" d="M169.2,122.676a.9.9,0,0,1-.9.9H119.074a.9.9,0,0,1-.9-.9h0a.9.9,0,0,1,.9-.9H168.3a.9.9,0,0,1,.9.9Z" fill="#dadce0"/>
                    </g>
                  </g>
                </g>
                <g id="Group_1209348" data-name="Group 1209348">
                  <g id="Group_1209340" data-name="Group 1209340">
                    <path id="Path_1277562" data-name="Path 1277562" d="M170.841,142.875a2.823,2.823,0,0,1-2.824,2.824h-48.66a2.824,2.824,0,0,1-2.824-2.824h0a2.824,2.824,0,0,1,2.824-2.824h48.66a2.824,2.824,0,0,1,2.824,2.824Z" fill="#dadce0"/>
                    <path id="Path_1277563" data-name="Path 1277563" d="M164.568,142.875a2.824,2.824,0,0,1-2.824,2.824H125.632a2.824,2.824,0,0,1-2.823-2.824h0a2.824,2.824,0,0,1,2.823-2.824h36.112a2.824,2.824,0,0,1,2.824,2.824Z" fill="#dadce0"/>
                  </g>
                  <g id="Group_1209341" data-name="Group 1209341">
                    <path id="Path_1277564" data-name="Path 1277564" d="M118.018,163.9a1.485,1.485,0,0,1-1.484-1.485V142.791a1.484,1.484,0,0,1,1.484-1.483h0a1.484,1.484,0,0,1,1.485,1.483v19.624a1.484,1.484,0,0,1-1.485,1.485Z" fill="#dadce0"/>
                    <path id="Path_1277565" data-name="Path 1277565" d="M118.018,160.6a1.484,1.484,0,0,1-1.484-1.484V146.09a1.484,1.484,0,0,1,1.484-1.484h0a1.485,1.485,0,0,1,1.485,1.484v13.026a1.484,1.484,0,0,1-1.485,1.484Z" fill="#dadce0"/>
                  </g>
                  <g id="Group_1209342" data-name="Group 1209342">
                    <path id="Path_1277566" data-name="Path 1277566" d="M135.618,163.771a.928.928,0,0,1-.913-.942V140.993a.928.928,0,0,1,.913-.942h0a.927.927,0,0,1,.913.942v21.836a.927.927,0,0,1-.913.942Z" fill="#dadce0"/>
                    <path id="Path_1277567" data-name="Path 1277567" d="M135.618,161.677a.928.928,0,0,1-.913-.942V143.084a.927.927,0,0,1,.913-.941h0a.926.926,0,0,1,.913.941v17.651a.927.927,0,0,1-.913.942Z" fill="#dadce0"/>
                  </g>
                  <g id="Group_1209343" data-name="Group 1209343">
                    <path id="Path_1277568" data-name="Path 1277568" d="M169.357,163.9a1.485,1.485,0,0,1-1.485-1.485V142.791a1.484,1.484,0,0,1,1.485-1.483h0a1.483,1.483,0,0,1,1.484,1.483v19.624a1.484,1.484,0,0,1-1.484,1.485Z" fill="#dadce0"/>
                    <path id="Path_1277569" data-name="Path 1277569" d="M169.357,160.6a1.485,1.485,0,0,1-1.485-1.484V146.09a1.485,1.485,0,0,1,1.485-1.484h0a1.484,1.484,0,0,1,1.484,1.484v13.026a1.484,1.484,0,0,1-1.484,1.484Z" fill="#dadce0"/>
                  </g>
                  <g id="Group_1209347" data-name="Group 1209347">
                    <g id="Group_1209344" data-name="Group 1209344">
                      <path id="Path_1277570" data-name="Path 1277570" d="M116.534,163.043a.867.867,0,0,1,.88-.855h52.548a.867.867,0,0,1,.88.855h0a.868.868,0,0,1-.88.856H117.414a.868.868,0,0,1-.88-.856Z" fill="#dadce0"/>
                      <path id="Path_1277571" data-name="Path 1277571" d="M118.489,163.043a.867.867,0,0,1,.88-.855h48.639a.867.867,0,0,1,.879.855h0a.868.868,0,0,1-.879.856H119.369a.868.868,0,0,1-.88-.856Z" fill="#dadce0"/>
                    </g>
                    <g id="Group_1209345" data-name="Group 1209345">
                      <path id="Path_1277572" data-name="Path 1277572" d="M116.534,157.2a.868.868,0,0,1,.88-.855h52.548a.868.868,0,0,1,.88.855h0a.868.868,0,0,1-.88.856H117.414a.868.868,0,0,1-.88-.856Z" fill="#dadce0"/>
                      <path id="Path_1277573" data-name="Path 1277573" d="M118.489,157.2a.868.868,0,0,1,.88-.855h48.639a.868.868,0,0,1,.879.855h0a.868.868,0,0,1-.879.856H119.369a.868.868,0,0,1-.88-.856Z" fill="#dadce0"/>
                    </g>
                    <g id="Group_1209346" data-name="Group 1209346">
                      <path id="Path_1277574" data-name="Path 1277574" d="M116.534,151.362a.868.868,0,0,1,.88-.856h52.548a.868.868,0,0,1,.88.856h0a.867.867,0,0,1-.88.855H117.414a.867.867,0,0,1-.88-.855Z" fill="#dadce0"/>
                      <path id="Path_1277575" data-name="Path 1277575" d="M118.489,151.362a.868.868,0,0,1,.88-.856h48.639a.868.868,0,0,1,.879.856h0a.867.867,0,0,1-.879.855H119.369a.867.867,0,0,1-.88-.855Z" fill="#dadce0"/>
                    </g>
                  </g>
                </g>
                <g id="Group_1209349" data-name="Group 1209349">
                  <path id="Path_1277576" data-name="Path 1277576" d="M117.087,187.761a.927.927,0,0,1-.913-.941v-7.486a.928.928,0,0,1,.913-.942h0a.928.928,0,0,1,.913.942v7.486a.928.928,0,0,1-.913.941Z" fill="#dadce0"/>
                  <path id="Path_1277577" data-name="Path 1277577" d="M117.087,185.669a.928.928,0,0,1-.913-.942v-3.3a.928.928,0,0,1,.913-.942h0a.928.928,0,0,1,.913.942v3.3a.928.928,0,0,1-.913.942Z" fill="#dadce0"/>
                </g>
                <g id="Group_1209350" data-name="Group 1209350">
                  <path id="Path_1277578" data-name="Path 1277578" d="M170.271,187.761a.927.927,0,0,1-.914-.941v-7.486a.928.928,0,0,1,.914-.942h0a.928.928,0,0,1,.913.942v7.486a.928.928,0,0,1-.913.941Z" fill="#dadce0"/>
                  <path id="Path_1277579" data-name="Path 1277579" d="M170.271,185.669a.928.928,0,0,1-.914-.942v-3.3a.928.928,0,0,1,.914-.942h0a.928.928,0,0,1,.913.942v3.3a.928.928,0,0,1-.913.942Z" fill="#dadce0"/>
                </g>
              </g>
            </g>
            <g id="Group_1209358" data-name="Group 1209358">
              <path id="Path_1277580" data-name="Path 1277580" d="M168.039,107.605a26.329,26.329,0,1,0-5.356,36.847A26.329,26.329,0,0,0,168.039,107.605ZM159.5,140.188a21.008,21.008,0,1,1,4.273-29.4A21.006,21.006,0,0,1,159.5,140.188Z" fill="#e465a1"/>
              <g id="Group_1209357" data-name="Group 1209357">
                <g id="Group_1209356" data-name="Group 1209356">
                  <path id="Path_1277581" data-name="Path 1277581" d="M163.774,110.786a21.008,21.008,0,1,1-29.4-4.274A21.008,21.008,0,0,1,163.774,110.786Z" fill="#95bae1" opacity="0.48"/>
                  <path id="Path_1277582" data-name="Path 1277582" d="M136.705,141.7a21,21,0,0,1,11.725-39.3,23.865,23.865,0,0,1,6.383-.617,23.474,23.474,0,1,0-2.764,44.124A21.549,21.549,0,0,1,136.705,141.7Z" fill="#e775aa"/>
                  <g id="Group_1209355" data-name="Group 1209355">
                    <g id="Group_1209354" data-name="Group 1209354">
                      <g id="Group_1209353" data-name="Group 1209353">
                        <path id="Path_1277583" data-name="Path 1277583" d="M147.125,97.025a26.326,26.326,0,0,1-5.156,52.18,26.327,26.327,0,1,0,5.156-52.18Z" fill="#e04592"/>
                      </g>
                    </g>
                  </g>
                  <path id="Path_1277584" data-name="Path 1277584" d="M141.117,103.163a18.7,18.7,0,0,1,17.047,7.138c6.309,8.456,3.885,20.936-5.414,27.873a22.144,22.144,0,0,1-14.106,4.475,21.007,21.007,0,1,0,2.473-39.486Z" fill="#95bae1" opacity="0.48"/>
                  <path id="Path_1277585" data-name="Path 1277585" d="M150.12,140.688a15.991,15.991,0,0,1-14.573-6.1c-5.394-7.229-3.321-17.9,4.628-23.83a18.928,18.928,0,0,1,12.058-3.825,17.959,17.959,0,1,0-2.114,33.757Z" fill="#fff" opacity="0.15"/>
                </g>
                <rect id="Rectangle_412926" data-name="Rectangle 412926" width="6.046" height="6.309" transform="translate(159.247 144.92) rotate(-36.735)" fill="#e04592"/>
                <path id="Path_1277586" data-name="Path 1277586" d="M189.845,169.427a4.206,4.206,0,0,1-.856,5.887l-4.214,3.144a4.2,4.2,0,0,1-5.885-.855l-17.308-25.247a4.205,4.205,0,0,1,.856-5.885l2.09-1.56a4.207,4.207,0,0,1,5.887.855Z" fill="#e465a1"/>
                <path id="Path_1277587" data-name="Path 1277587" d="M167.872,157.238c-.954-2.239-2.364-4.44-2.749-6.868-.282-1.777,1.118-3.519,2.179-4.753a.111.111,0,0,1,.013-.012,3.6,3.6,0,0,0-1.563.667l-1.8,1.342a3.619,3.619,0,0,0-.736,5.066l6.475,9.446C169.1,160.493,168.556,158.841,167.872,157.238Z" fill="#e775aa"/>
                <path id="Path_1277588" data-name="Path 1277588" d="M170.414,145.764a4.2,4.2,0,0,0-3.745-1.668,4.059,4.059,0,0,1,.32.376l19.432,23.661a4.206,4.206,0,0,1-.856,5.886l-4.213,3.144a4.187,4.187,0,0,1-2.142.814,4.2,4.2,0,0,0,5.565.479l4.214-3.144a4.206,4.206,0,0,0,.856-5.887Z" fill="#e04592"/>
              </g>
            </g>
          </g>
        </g>
      </g>
    </g>
  </g>
</svg>
