<svg xmlns="http://www.w3.org/2000/svg" xmlns:xlink="http://www.w3.org/1999/xlink" width="88.83" height="85.054" viewBox="0 0 88.83 85.054">
  <defs>
    <clipPath id="clip-path">
      <rect id="Rectangle_413216" data-name="Rectangle 413216" width="78" height="78" transform="translate(1545 7613.717)" fill="#fff" stroke="#707070" stroke-width="1"/>
    </clipPath>
  </defs>
  <g id="Group_1209763" data-name="Group 1209763" transform="translate(-1534.17 -7606.663)">
    <g id="Group_1209765" data-name="Group 1209765">
      <g id="Rectangle_413215" data-name="Rectangle 413215" transform="translate(1534.17 7606.663)" fill="#fd9826" stroke="#af6a1a" stroke-width="3">
        <rect width="70" height="70" rx="10" stroke="none"/>
        <rect x="1.5" y="1.5" width="67" height="67" rx="8.5" fill="none"/>
      </g>
      <g id="Mask_Group_1099385" data-name="Mask Group 1099385" clip-path="url(#clip-path)">
        <g id="fiscal_12463702" transform="translate(1536.511 7604.284)">
          <g id="Group_1209764" data-name="Group 1209764">
            <path id="Path_1279511" data-name="Path 1279511" d="M15.506,33.512H79.8v4.449h-64.3Z" fill="#80311a" fill-rule="evenodd"/>
            <path id="Path_1279512" data-name="Path 1279512" d="M47.655,10.565,63.729,22.038,79.8,33.512h-64.3L31.58,22.038Z" fill="#dd6e42" fill-rule="evenodd"/>
            <path id="Path_1279513" data-name="Path 1279513" d="M67,37.961h8.861v3.768H67Zm-47.541,0h8.861v3.768H19.463Zm15.847,0h8.861v3.768H35.31Zm15.847,0h8.861v3.768H51.157Z" fill="#bb572e" fill-rule="evenodd"/>
            <path id="Path_1279514" data-name="Path 1279514" d="M22.057,41.729h3.862V65.793H22.057Zm31.562,0h3.862V65.793H53.619Zm15.79,0h3.862V65.793H69.409Zm-31.562,0H41.71V65.793H37.847Z" fill="#dd6e42" fill-rule="evenodd"/>
            <path id="Path_1279515" data-name="Path 1279515" d="M30.728,52.88A16.718,16.718,0,1,1,14.011,69.6,16.71,16.71,0,0,1,30.728,52.88Z" fill="#ffeb00" fill-rule="evenodd"/>
            <path id="Path_1279516" data-name="Path 1279516" d="M64.448,53.3a16.51,16.51,0,1,1-16.51,16.51A16.5,16.5,0,0,1,64.448,53.3Z" fill="#336667" fill-rule="evenodd"/>
            <path id="Path_1279517" data-name="Path 1279517" d="M74.085,79.652l-5.831.038V83L57.935,76.585l10.091-6.8-.019,3.5,6.078.038Z" fill="#9c9" fill-rule="evenodd"/>
            <path id="Path_1279518" data-name="Path 1279518" d="M54.811,66.436l5.812.057.019,3.313,10.3-6.418L60.87,56.572l.019,3.5-6.078.038Z" fill="#f26739" fill-rule="evenodd"/>
          </g>
          <path id="Path_1279519" data-name="Path 1279519" d="M55.947,65.319l4.7.038a1.152,1.152,0,0,1,1.136,1.136v1.269l7.1-4.43-6.854-4.62v1.363a1.127,1.127,0,0,1-1.136,1.136l-4.942.019Zm3.559,2.291-4.7-.038a1.139,1.139,0,0,1-1.136-1.136V60.113a1.127,1.127,0,0,1,1.136-1.136l4.942-.019-.019-2.291a1.122,1.122,0,0,1,1.761-1.022l10.072,6.8a1.15,1.15,0,0,1-.038,1.912l-10.3,6.418a1.127,1.127,0,0,1-1.723-.947ZM73.991,80.788l-4.6.038-.019,2.2a1.122,1.122,0,0,1-1.723.947l-10.3-6.418a1.141,1.141,0,0,1-.038-1.912l10.072-6.8a1.129,1.129,0,0,1,1.761,1.022l-.019,2.291,4.942.019A1.139,1.139,0,0,1,75.2,73.309v6.324A1.118,1.118,0,0,1,73.991,80.788Zm-5.737-2.215,4.7-.038V74.464l-4.942-.019a1.139,1.139,0,0,1-1.136-1.136V71.946l-6.854,4.6,7.1,4.43V79.69a1.148,1.148,0,0,1,1.136-1.117ZM64.448,52.161a17.034,17.034,0,0,1,3.824.417V42.865H67a1.139,1.139,0,0,1-1.136-1.136V39.1H61.154v2.632a1.139,1.139,0,0,1-1.136,1.136h-1.4V53.145A17.456,17.456,0,0,1,64.448,52.161Zm6.1,1.079a16.582,16.582,0,0,1,1.59.663V42.865h-1.59Zm3.862,1.988A17.642,17.642,0,1,1,47.674,75.259a17.856,17.856,0,1,1-26.753-20.6V42.846H19.463a1.139,1.139,0,0,1-1.136-1.136V39.078H15.506a1.139,1.139,0,0,1-1.136-1.136v-4.43a1.088,1.088,0,0,1,.549-.966L47.011,9.637a1.136,1.136,0,0,1,1.325.019L80.39,32.527a1.122,1.122,0,0,1,.549.966v4.449A1.139,1.139,0,0,1,79.8,39.078H76.982V41.71a1.139,1.139,0,0,1-1.136,1.136H74.407Zm-26.677,8.9a17.508,17.508,0,0,1,4.752-7.308V42.865H51.138A1.139,1.139,0,0,1,50,41.729V39.1H45.288v2.632a1.139,1.139,0,0,1-1.136,1.136H42.827V56.459A17.773,17.773,0,0,1,47.73,64.127Zm7.024-9.069a16.6,16.6,0,0,1,1.59-.928V42.884h-1.59ZM75.316,58.92a15.369,15.369,0,1,0,4.506,10.868A15.308,15.308,0,0,0,75.316,58.92Zm-45.724,2.2V59.639a1.136,1.136,0,1,1,2.272,0v1.477a4.869,4.869,0,0,1,3.73,4.733,1.136,1.136,0,1,1-2.272,0,2.594,2.594,0,1,0-5.188,0c0,1.95,1.42,2.291,2.859,2.632,2.31.549,4.6,1.1,4.6,4.828a4.869,4.869,0,0,1-3.73,4.733v1.477a1.136,1.136,0,0,1-2.272,0V78.042a4.869,4.869,0,0,1-3.73-4.733,1.136,1.136,0,0,1,2.272,0,2.594,2.594,0,1,0,5.188,0c0-1.95-1.42-2.291-2.859-2.632-2.31-.549-4.6-1.1-4.6-4.828A4.885,4.885,0,0,1,29.592,61.116Zm1.136-9.372a17.693,17.693,0,0,1,5.964,1.022v-9.9h-1.4a1.139,1.139,0,0,1-1.136-1.136V39.1H29.441v2.632a1.139,1.139,0,0,1-1.136,1.136H27.037v9.258a18.365,18.365,0,0,1,3.692-.379Zm8.255,2.007a16.6,16.6,0,0,1,1.59.928V42.865h-1.59Zm-15.79-.341a14.689,14.689,0,0,1,1.59-.644V42.884h-1.59Zm18.554,5.169a15.577,15.577,0,1,0,0,22.019A15.581,15.581,0,0,0,41.748,58.579ZM67,36.825H78.686V34.648H16.642v2.177H28.324c5.263.038,10.584-.038,15.847,0s10.584-.038,15.847,0ZM68.14,39.1v1.5h6.589V39.1ZM20.6,39.1v1.5h6.589V39.1Zm15.847,0v1.5h6.589V39.1Zm15.847,0v1.5h6.589V39.1ZM63.085,22.966l-15.412-11L19.066,32.376h57.2Z"/>
        </g>
      </g>
    </g>
  </g>
</svg>
