<svg xmlns="http://www.w3.org/2000/svg" xmlns:xlink="http://www.w3.org/1999/xlink" width="88.83" height="85.054" viewBox="0 0 88.83 85.054">
  <defs>
    <clipPath id="clip-path">
      <rect id="Rectangle_413218" data-name="Rectangle 413218" width="78" height="78" transform="translate(762.949 -4035.37)" fill="#fff" stroke="#707070" stroke-width="1"/>
    </clipPath>
  </defs>
  <g id="Group_1209766" data-name="Group 1209766" transform="translate(-752.119 4042.424)">
    <g id="Rectangle_413217" data-name="Rectangle 413217" transform="translate(752.119 -4042.424)" fill="#fd9826" stroke="#af6a1a" stroke-width="3">
      <rect width="70" height="70" rx="10" stroke="none"/>
      <rect x="1.5" y="1.5" width="67" height="67" rx="8.5" fill="none"/>
    </g>
    <g id="Mask_Group_1099384" data-name="Mask Group 1099384" clip-path="url(#clip-path)">
      <g id="_16-online_money" data-name="16-online money" transform="translate(762.949 -4035.37)">
        <rect id="Rectangle_413219" data-name="Rectangle 413219" width="9.75" height="7.313" transform="translate(1.219 1.219)" fill="#c1ced1"/>
        <rect id="Rectangle_413220" data-name="Rectangle 413220" width="9.75" height="7.313" transform="translate(67.031 1.219)" fill="#c1ced1"/>
        <rect id="Rectangle_413221" data-name="Rectangle 413221" width="56.063" height="7.313" transform="translate(10.969 1.219)" fill="#dfe6e9"/>
        <rect id="Rectangle_413222" data-name="Rectangle 413222" width="75.563" height="56.063" transform="translate(1.219 8.531)" fill="#edf1f2"/>
        <path id="Path_1279500" data-name="Path 1279500" d="M67.031,71.906H25.594a4.875,4.875,0,0,0-4.875-4.875V52.406a4.875,4.875,0,0,0,4.875-4.875H67.031a4.875,4.875,0,0,0,4.875,4.875V67.031A4.875,4.875,0,0,0,67.031,71.906Z" fill="#dfe6e9"/>
        <path id="Path_1279501" data-name="Path 1279501" d="M39,32.906A6.094,6.094,0,0,1,45.094,39H56.063V36.563l-5.216-.378a11.849,11.849,0,0,0-1.487-3.571l3.425-3.961-3.437-3.437-3.961,3.425a11.849,11.849,0,0,0-3.571-1.487l-.378-5.216H36.563l-.378,5.216a11.849,11.849,0,0,0-3.571,1.487l-3.961-3.425-3.437,3.437,3.425,3.961a11.849,11.849,0,0,0-1.487,3.571l-5.216.378V39H32.906A6.094,6.094,0,0,1,39,32.906Z" fill="#fdcb6e"/>
        <path id="Path_1279502" data-name="Path 1279502" d="M76.781,42.656V76.781H15.844V42.656ZM71.906,67.031V52.406a4.875,4.875,0,0,1-4.875-4.875H25.594a4.875,4.875,0,0,1-4.875,4.875V67.031a4.875,4.875,0,0,1,4.875,4.875H67.031A4.875,4.875,0,0,1,71.906,67.031Z" fill="#55efc4"/>
        <path id="Path_1279503" data-name="Path 1279503" d="M25.594,10.969v3.656l-5.35.292A16.982,16.982,0,0,1,18.172,19.9l3.583,4-5.167,5.167-4-3.583A16.982,16.982,0,0,1,7.6,27.556l-.292,5.35H1.219V21.938H3.656A10.969,10.969,0,0,0,14.625,10.969V8.531H25.594Z" fill="#74b9ff"/>
        <path id="Path_1279504" data-name="Path 1279504" d="M76.781,0H1.219A1.219,1.219,0,0,0,0,1.219V64.594a1.219,1.219,0,0,0,1.219,1.219H12.188V63.375H2.438V34.125H7.313a1.219,1.219,0,0,0,1.219-1.152l.244-4.467a18.289,18.289,0,0,0,3.656-1.522l3.342,3a1.219,1.219,0,0,0,1.676-.046l5.167-5.167a1.219,1.219,0,0,0,.046-1.675l-2.992-3.349a18.193,18.193,0,0,0,1.523-3.656l4.467-.244a1.219,1.219,0,0,0,1.152-1.219V9.75h48.75V39H78V1.219A1.219,1.219,0,0,0,76.781,0ZM13.406,9.75v1.219a9.761,9.761,0,0,1-9.75,9.75H2.438V9.75ZM12.188,7.313V2.438H65.813V7.313ZM9.75,2.438V7.313H2.438V2.438ZM24.375,13.471l-4.2.23a1.219,1.219,0,0,0-1.119.935,15.787,15.787,0,0,1-1.923,4.631,1.219,1.219,0,0,0,.13,1.452l2.813,3.138-3.534,3.534-3.137-2.815a1.219,1.219,0,0,0-1.453-.129,15.844,15.844,0,0,1-4.631,1.924,1.219,1.219,0,0,0-.934,1.119l-.23,4.2H2.438V23.156H3.656A12.2,12.2,0,0,0,15.844,10.969V9.75h8.531ZM68.25,7.313V2.438h7.313V7.313Z"/>
        <path id="Path_1279505" data-name="Path 1279505" d="M76.781,41.438H15.844a1.219,1.219,0,0,0-1.219,1.219V76.781A1.219,1.219,0,0,0,15.844,78H76.781A1.219,1.219,0,0,0,78,76.781V42.656A1.219,1.219,0,0,0,76.781,41.438ZM75.563,75.563h-58.5V43.875h58.5Z"/>
        <path id="Path_1279506" data-name="Path 1279506" d="M20.719,68.25a3.656,3.656,0,0,1,3.656,3.656,1.219,1.219,0,0,0,1.219,1.219H67.031a1.219,1.219,0,0,0,1.219-1.219,3.656,3.656,0,0,1,3.656-3.656,1.219,1.219,0,0,0,1.219-1.219V52.406a1.219,1.219,0,0,0-1.219-1.219,3.656,3.656,0,0,1-3.656-3.656,1.219,1.219,0,0,0-1.219-1.219H25.594a1.219,1.219,0,0,0-1.219,1.219,3.656,3.656,0,0,1-3.656,3.656A1.219,1.219,0,0,0,19.5,52.406V67.031A1.219,1.219,0,0,0,20.719,68.25ZM21.938,53.5a6.11,6.11,0,0,0,4.753-4.753H65.934A6.11,6.11,0,0,0,70.688,53.5V65.934a6.11,6.11,0,0,0-4.753,4.753H26.691a6.11,6.11,0,0,0-4.753-4.753Z"/>
        <path id="Path_1279507" data-name="Path 1279507" d="M45.094,68.25h2.438V65.813h2.438a1.219,1.219,0,0,0,1.219-1.219V59.719A1.219,1.219,0,0,0,49.969,58.5H43.875V56.063h7.313V53.625H47.531V51.188H45.094v2.438H42.656a1.219,1.219,0,0,0-1.219,1.219v4.875a1.219,1.219,0,0,0,1.219,1.219H48.75v2.438H41.438v2.438h3.656Z"/>
        <path id="Path_1279508" data-name="Path 1279508" d="M21.85,35.344a1.219,1.219,0,0,0-1.131,1.219V39h2.438V37.7l4.085-.3a1.219,1.219,0,0,0,1.1-.934,10.651,10.651,0,0,1,1.341-3.205,1.219,1.219,0,0,0-.111-1.447l-2.681-3.1,1.828-1.828,3.1,2.681a1.219,1.219,0,0,0,1.445.11,10.629,10.629,0,0,1,3.2-1.333,1.219,1.219,0,0,0,.935-1.1l.292-4.09H40.3l.295,4.086a1.219,1.219,0,0,0,.935,1.1,10.629,10.629,0,0,1,3.2,1.333,1.219,1.219,0,0,0,1.445-.11l3.1-2.681,1.828,1.828-2.681,3.1a1.219,1.219,0,0,0-.111,1.447,10.65,10.65,0,0,1,1.335,3.205,1.219,1.219,0,0,0,1.1.934l4.089.3V39h2.438V36.563a1.219,1.219,0,0,0-1.131-1.219L51.8,35.032a13.09,13.09,0,0,0-.946-2.278l2.857-3.3a1.219,1.219,0,0,0-.06-1.659l-3.437-3.437a1.219,1.219,0,0,0-1.659-.06l-3.3,2.857a13.048,13.048,0,0,0-2.278-.945l-.314-4.357a1.219,1.219,0,0,0-1.219-1.131H36.563a1.219,1.219,0,0,0-1.219,1.131L35.032,26.2a13.048,13.048,0,0,0-2.278.945l-3.3-2.857a1.219,1.219,0,0,0-1.659.06l-3.437,3.437a1.219,1.219,0,0,0-.06,1.659l2.857,3.3a13.091,13.091,0,0,0-.946,2.278Z"/>
        <path id="Path_1279509" data-name="Path 1279509" d="M39,31.688A7.32,7.32,0,0,0,31.687,39h2.438a4.875,4.875,0,0,1,9.75,0h2.438A7.32,7.32,0,0,0,39,31.687Z"/>
        <path id="Path_1279510" data-name="Path 1279510" d="M46.67,11.326l-3.656,3.656a1.187,1.187,0,0,0,.009,1.715l-.007.007,3.656,3.656,1.723-1.723-1.577-1.575H67.031a3.656,3.656,0,0,1,0,7.313h-6.7a4.266,4.266,0,1,0,0,8.531h6.7a3.656,3.656,0,0,1,3.656,3.656V39h2.438V36.563a6.1,6.1,0,0,0-6.094-6.094h-6.7a1.828,1.828,0,1,1,0-3.656h6.7a6.094,6.094,0,0,0,0-12.187H46.817l1.576-1.576Z"/>
        <rect id="Rectangle_413223" data-name="Rectangle 413223" width="7.313" height="2.438" transform="translate(4.875 58.5)"/>
        <rect id="Rectangle_413224" data-name="Rectangle 413224" width="7.313" height="2.438" transform="translate(4.875 53.625)"/>
        <rect id="Rectangle_413225" data-name="Rectangle 413225" width="7.313" height="2.438" transform="translate(4.875 48.75)"/>
        <rect id="Rectangle_413226" data-name="Rectangle 413226" width="7.313" height="2.438" transform="translate(4.875 43.875)"/>
        <rect id="Rectangle_413227" data-name="Rectangle 413227" width="2.438" height="2.438" transform="translate(4.875 39)"/>
        <rect id="Rectangle_413228" data-name="Rectangle 413228" width="2.438" height="2.438" transform="translate(9.75 39)"/>
      </g>
    </g>
  </g>
</svg>
