<svg xmlns="http://www.w3.org/2000/svg" xmlns:xlink="http://www.w3.org/1999/xlink" width="88.83" height="85.054" viewBox="0 0 88.83 85.054">
  <defs>
    <clipPath id="clip-path">
      <rect id="Rectangle_413238" data-name="Rectangle 413238" width="78" height="78" transform="translate(754.915 1097.605)" fill="#fff" stroke="#707070" stroke-width="1"/>
    </clipPath>
  </defs>
  <g id="Group_1209846" data-name="Group 1209846" transform="translate(-744.085 -1090.551)">
    <g id="Rectangle_413237" data-name="Rectangle 413237" transform="translate(744.085 1090.551)" fill="#fd9826" stroke="#af6a1a" stroke-width="3">
      <rect width="70" height="70" rx="10" stroke="none"/>
      <rect x="1.5" y="1.5" width="67" height="67" rx="8.5" fill="none"/>
    </g>
    <g id="Mask_Group_1099390" data-name="Mask Group 1099390" clip-path="url(#clip-path)">
      <g id="account_3524807" transform="translate(753.657 1096.347)">
        <g id="Group_1209820" data-name="Group 1209820">
          <g id="Group_1209813" data-name="Group 1209813">
            <path id="Path_1279615" data-name="Path 1279615" d="M45.29,32.71H10.065a2.515,2.515,0,0,1-2.516-2.516V5.032a2.515,2.515,0,0,1,2.516-2.516h32.71A2.515,2.515,0,0,1,45.29,5.032Z" fill="#ccd1d9"/>
          </g>
          <g id="Group_1209814" data-name="Group 1209814">
            <path id="Path_1279616" data-name="Path 1279616" d="M12.581,7.548H40.258V27.677H12.581Z" fill="#e6e9ed"/>
          </g>
          <g id="Group_1209815" data-name="Group 1209815">
            <path id="Path_1279617" data-name="Path 1279617" d="M57.871,27.677V55.355A12.581,12.581,0,0,0,53.9,60.387h-23.7a2.524,2.524,0,0,1-2.516-2.516V27.677a2.524,2.524,0,0,1,2.516-2.516H55.355A2.524,2.524,0,0,1,57.871,27.677Z" fill="#f0d0b4"/>
          </g>
          <g id="Group_1209816" data-name="Group 1209816">
            <path id="Path_1279618" data-name="Path 1279618" d="M22.645,12.581H35.226v5.032H22.645Z" fill="#69d6f4"/>
          </g>
          <g id="Group_1209817" data-name="Group 1209817">
            <path id="Path_1279619" data-name="Path 1279619" d="M12.581,10.492a7.614,7.614,0,1,1-2.516-.428A7.553,7.553,0,0,1,12.581,10.492Z" fill="#ff826e"/>
          </g>
          <g id="Group_1209818" data-name="Group 1209818">
            <path id="Path_1279620" data-name="Path 1279620" d="M35.226,30.194h15.1v15.1h-15.1Z" fill="#ff826e"/>
          </g>
          <g id="Group_1209819" data-name="Group 1209819">
            <path id="Path_1279621" data-name="Path 1279621" d="M65.419,52.839A12.581,12.581,0,1,1,52.839,65.419,12.431,12.431,0,0,1,53.9,60.387a12.56,12.56,0,0,1,11.524-7.548Z" fill="#fcd770"/>
          </g>
        </g>
        <g id="Group_1209821" data-name="Group 1209821">
          <path id="Path_1279622" data-name="Path 1279622" d="M64.161,61.645h2.516A1.259,1.259,0,0,1,67.935,62.9h2.516a3.779,3.779,0,0,0-3.774-3.774V56.613H64.161v2.516a3.774,3.774,0,0,0,0,7.548h2.516a1.258,1.258,0,0,1,0,2.516H64.161A1.259,1.259,0,0,1,62.9,67.935H60.387a3.779,3.779,0,0,0,3.774,3.774v2.516h2.516V71.71a3.774,3.774,0,0,0,0-7.548H64.161a1.258,1.258,0,1,1,0-2.516Z"/>
          <path id="Path_1279623" data-name="Path 1279623" d="M65.419,51.581a13.748,13.748,0,0,0-6.29,1.527V27.677A3.779,3.779,0,0,0,55.355,23.9H46.548V5.032a3.779,3.779,0,0,0-3.774-3.774H10.065A3.779,3.779,0,0,0,6.29,5.032V9.668a8.787,8.787,0,0,0,0,15.889v4.636a3.779,3.779,0,0,0,3.774,3.774H26.419v23.9a3.779,3.779,0,0,0,3.774,3.774H52.117a13.832,13.832,0,1,0,13.3-10.065ZM8.806,5.032a1.259,1.259,0,0,1,1.258-1.258h32.71a1.259,1.259,0,0,1,1.258,1.258V23.9H41.516V6.29H11.323V8.907a8.839,8.839,0,0,0-1.258-.1,8.839,8.839,0,0,0-1.258.1ZM26.651,26.419H13.839v-.862a8.787,8.787,0,0,0,0-15.889V8.806H39V23.9H30.194A3.769,3.769,0,0,0,26.651,26.419ZM3.774,17.613a6.29,6.29,0,1,1,6.29,6.29A6.3,6.3,0,0,1,3.774,17.613Zm6.29,13.839a1.259,1.259,0,0,1-1.258-1.258V26.319a8.838,8.838,0,0,0,1.258.1,8.839,8.839,0,0,0,1.258-.1v2.617h15.1v2.516ZM30.194,59.129a1.259,1.259,0,0,1-1.258-1.258V27.677a1.259,1.259,0,0,1,1.258-1.258H55.355a1.259,1.259,0,0,1,1.258,1.258V54.752a13.922,13.922,0,0,0-3.5,4.377ZM65.419,76.742A11.323,11.323,0,1,1,76.742,65.419,11.336,11.336,0,0,1,65.419,76.742Z"/>
          <path id="Path_1279624" data-name="Path 1279624" d="M11.323,21.387V18.871h2.516V16.355H11.323V13.839H8.806v2.516H6.29v2.516H8.806v2.516Z"/>
          <path id="Path_1279625" data-name="Path 1279625" d="M36.484,11.323h-15.1v7.548h15.1ZM23.9,13.839h2.516v2.516H23.9Zm10.065,2.516H28.935V13.839h5.032Z"/>
          <path id="Path_1279626" data-name="Path 1279626" d="M33.968,46.548H51.581V28.935H33.968Zm2.516-15.1H49.065V44.032H36.484Z"/>
          <path id="Path_1279627" data-name="Path 1279627" d="M33.968,54.1h2.516v2.516H33.968Z"/>
          <path id="Path_1279628" data-name="Path 1279628" d="M39,54.1H51.581v2.516H39Z"/>
          <path id="Path_1279629" data-name="Path 1279629" d="M33.968,49.065H51.581v2.516H33.968Z"/>
          <path id="Path_1279630" data-name="Path 1279630" d="M41.516,38.479l-1.627-1.627-1.779,1.779,3.406,3.406,7.18-7.18-1.779-1.779Z"/>
          <path id="Path_1279631" data-name="Path 1279631" d="M40.258,69.194A28.968,28.968,0,0,1,11.323,40.258a29.5,29.5,0,0,1,.224-3.619l-2.5-.309A31.469,31.469,0,0,0,40.258,71.71a31.417,31.417,0,0,0,9.173-1.36L48.7,67.943A28.929,28.929,0,0,1,40.258,69.194Z"/>
          <path id="Path_1279632" data-name="Path 1279632" d="M69.194,40.258A28.889,28.889,0,0,1,67.943,48.7l2.408.733a31.491,31.491,0,0,0-20.92-39.264L48.7,12.573A28.772,28.772,0,0,1,69.194,40.258Z"/>
        </g>
      </g>
    </g>
  </g>
</svg>
