<svg xmlns="http://www.w3.org/2000/svg" xmlns:xlink="http://www.w3.org/1999/xlink" width="281" height="193" viewBox="0 0 281 193">
  <defs>
    <clipPath id="clip-path">
      <path id="Rectangle_413204" data-name="Rectangle 413204" d="M0,0H266a15,15,0,0,1,15,15V178a15,15,0,0,1-15,15H0a0,0,0,0,1,0,0V0A0,0,0,0,1,0,0Z" transform="translate(1033.852 13392)" fill="#fff" stroke="#707070" stroke-width="1"/>
    </clipPath>
  </defs>
  <g id="Mask_Group_1099365" data-name="Mask Group 1099365" transform="translate(-1033.852 -13392)" clip-path="url(#clip-path)">
    <g id="_18922898_61486ed6efd6f523f4a8df86" data-name="18922898_61486ed6efd6f523f4a8df86" transform="translate(1077.852 13392)">
      <rect id="Rectangle_413205" data-name="Rectangle 413205" width="282" height="193" transform="translate(-45)" fill="#363c69"/>
      <g id="Group_1209779" data-name="Group 1209779">
        <path id="Path_1249282" data-name="Path 1249282" d="M176.647,156.847l-21.711-17.509a1.778,1.778,0,0,0-2.291.052l-3.177-2.562a23.59,23.59,0,0,0,2.008-18.332l5.593-1.986,1.051,2.958a.317.317,0,0,0,.4.193l4.491-1.6a.317.317,0,0,0,.192-.4l-.571-1.609a.766.766,0,0,0-.882-.509.737.737,0,0,0-.521.963h0l.2.558-2.31.82-.663-1.867L164.142,114h0l6.237-2.216a3.2,3.2,0,0,0,2.087-4.008l-8.752-24.639a3.032,3.032,0,0,0-2.3-1.932l-3.726-.748a3.033,3.033,0,0,1-2.3-1.932L136.529,25.411a3.2,3.2,0,0,0-4.148-1.794l-6.238,2.216h0l-21.381,7.594L81.11,19.347a4.931,4.931,0,0,0-6.759,1.715L64.261,38.009a4.931,4.931,0,0,0,1.715,6.759l2.563,1.526-.757.269a3.2,3.2,0,0,0-2.087,4.008l2.48,6.983-45.817,7.57,11.6,70.2a8.7,8.7,0,1,0,2.626,15.891l1.955,11.834,18.579-3.07,44.856,19.846,15.091-34.11a23.605,23.605,0,0,0,27.45-2.746l3.177,2.562a1.778,1.778,0,0,0,.435,2.25l21.711,17.509a1.782,1.782,0,0,0,2.505-.268l4.574-5.672A1.782,1.782,0,0,0,176.647,156.847Z" fill="#2d3257"/>
        <path id="Path_1249283" data-name="Path 1249283" d="M20.136,156.061a8.7,8.7,0,1,0,12.243,1.2A8.7,8.7,0,0,0,20.136,156.061Z" fill="#2d3257"/>
      </g>
      <g id="Group_1209880" data-name="Group 1209880">
        <g id="Group_1209784" data-name="Group 1209784">
          <g id="Group_1209780" data-name="Group 1209780">
            <path id="Path_1249284" data-name="Path 1249284" d="M160.6,113.766l.2.558-2.31.82-1.559-4.39a.766.766,0,0,0-.882-.509.737.737,0,0,0-.521.963l1.961,5.52a.317.317,0,0,0,.4.192l4.491-1.595a.317.317,0,0,0,.192-.4L162,113.313a.766.766,0,0,0-.882-.509.737.737,0,0,0-.521.963Z" fill="#f9dd45"/>
          </g>
          <g id="Group_1209783" data-name="Group 1209783">
            <g id="Group_1209782" data-name="Group 1209782">
              <g id="Group_1209781" data-name="Group 1209781">
                <path id="Path_1249285" data-name="Path 1249285" d="M169.748,109.042l-64.3,22.838a3.2,3.2,0,0,1-4.148-1.794l-30-84.469a3.2,3.2,0,0,1,2.087-4.008l58.362-20.73a3.2,3.2,0,0,1,4.148,1.794l18.865,53.111a3.032,3.032,0,0,0,2.3,1.932l3.726.748a3.032,3.032,0,0,1,2.3,1.932l8.752,24.639A3.2,3.2,0,0,1,169.748,109.042Z" fill="#4aa7a1"/>
                <path id="Path_1249286" data-name="Path 1249286" d="M163.509,111.257,99.212,134.1a3.2,3.2,0,0,1-4.148-1.794l-30-84.469a3.2,3.2,0,0,1,2.087-4.008l58.362-20.73a3.2,3.2,0,0,1,4.148,1.794L148.523,78a3.032,3.032,0,0,0,2.3,1.932l3.726.748a3.033,3.033,0,0,1,2.3,1.932l8.752,24.639A3.2,3.2,0,0,1,163.509,111.257Z" fill="#52bbb5"/>
              </g>
            </g>
          </g>
          <rect id="Rectangle_413206" data-name="Rectangle 413206" width="24.377" height="2.732" transform="translate(154.644 84.742) rotate(70.445)" fill="#fff"/>
        </g>
        <g id="Group_1209791" data-name="Group 1209791">
          <rect id="Rectangle_413207" data-name="Rectangle 413207" width="73.154" height="99.251" transform="translate(21.724 62.384) rotate(-9.381)" fill="#ededed"/>
          <g id="Group_1209790" data-name="Group 1209790">
            <g id="Group_1209785" data-name="Group 1209785">
              <path id="Path_1249287" data-name="Path 1249287" d="M67.1,105.744l-.013-.079L42.2,109.777,38.185,85.464,63,81.365l4.03,24.392.079-.013-.013-.079.013.079.079-.013L63.141,81.26a.08.08,0,0,0-.093-.066L38.08,85.319a.08.08,0,0,0-.066.093l4.043,24.471a.08.08,0,0,0,.033.052.081.081,0,0,0,.06.014l24.969-4.125a.08.08,0,0,0,.066-.092Z" fill="#a7dcf8"/>
              <path id="Path_1249288" data-name="Path 1249288" d="M40.283,85.037l4.043,24.471a.08.08,0,0,0,.159-.026L40.442,85.01a.08.08,0,0,0-.159.026" fill="#a7dcf8"/>
              <path id="Path_1249289" data-name="Path 1249289" d="M42.553,84.662,46.6,109.132a.08.08,0,0,0,.159-.026L42.712,84.635a.08.08,0,1,0-.159.026" fill="#a7dcf8"/>
              <path id="Path_1249290" data-name="Path 1249290" d="M44.823,84.287l4.043,24.471a.08.08,0,1,0,.159-.026L44.982,84.26a.08.08,0,1,0-.159.026" fill="#a7dcf8"/>
              <path id="Path_1249291" data-name="Path 1249291" d="M47.093,83.911l4.043,24.471a.08.08,0,0,0,.159-.026L47.251,83.885a.08.08,0,1,0-.159.026" fill="#a7dcf8"/>
              <path id="Path_1249292" data-name="Path 1249292" d="M49.363,83.536l4.043,24.471a.08.08,0,1,0,.159-.026L49.522,83.51a.08.08,0,1,0-.159.026" fill="#a7dcf8"/>
              <path id="Path_1249293" data-name="Path 1249293" d="M51.633,83.161l4.043,24.471a.08.08,0,0,0,.159-.026L51.791,83.135a.08.08,0,1,0-.159.026" fill="#a7dcf8"/>
              <path id="Path_1249294" data-name="Path 1249294" d="M53.9,82.786l4.043,24.471a.08.08,0,0,0,.159-.026L54.061,82.76a.08.08,0,1,0-.159.026" fill="#a7dcf8"/>
              <path id="Path_1249295" data-name="Path 1249295" d="M56.173,82.411l4.043,24.471a.08.08,0,1,0,.159-.026L56.331,82.385a.08.08,0,1,0-.159.026" fill="#a7dcf8"/>
              <path id="Path_1249296" data-name="Path 1249296" d="M58.443,82.036l4.043,24.471a.08.08,0,0,0,.159-.026L58.6,82.01a.08.08,0,1,0-.159.026" fill="#a7dcf8"/>
              <path id="Path_1249297" data-name="Path 1249297" d="M60.712,81.661l4.043,24.471a.08.08,0,0,0,.159-.026L60.871,81.635a.08.08,0,0,0-.159.026" fill="#a7dcf8"/>
              <path id="Path_1249298" data-name="Path 1249298" d="M41.815,107.928l24.97-4.126a.08.08,0,1,0-.026-.159l-24.97,4.126a.08.08,0,1,0,.026.159" fill="#a7dcf8"/>
              <path id="Path_1249299" data-name="Path 1249299" d="M41.44,105.658l24.97-4.126a.08.08,0,0,0-.026-.159L41.414,105.5a.08.08,0,1,0,.026.159" fill="#a7dcf8"/>
              <path id="Path_1249300" data-name="Path 1249300" d="M41.065,103.388l24.97-4.126a.08.08,0,1,0-.026-.159l-24.97,4.126a.08.08,0,1,0,.026.159" fill="#a7dcf8"/>
              <path id="Path_1249301" data-name="Path 1249301" d="M40.69,101.118l24.97-4.126a.08.08,0,1,0-.026-.159l-24.97,4.126a.08.08,0,1,0,.026.159" fill="#a7dcf8"/>
              <path id="Path_1249302" data-name="Path 1249302" d="M40.315,98.848l24.97-4.126a.08.08,0,0,0-.026-.159L40.289,98.69a.08.08,0,0,0,.026.159" fill="#a7dcf8"/>
              <path id="Path_1249303" data-name="Path 1249303" d="M39.94,96.578l24.97-4.126a.08.08,0,0,0-.026-.159L39.913,96.42a.08.08,0,1,0,.026.159" fill="#a7dcf8"/>
              <path id="Path_1249304" data-name="Path 1249304" d="M39.565,94.308l24.97-4.126a.08.08,0,0,0-.026-.159L39.539,94.15a.08.08,0,0,0,.026.159" fill="#a7dcf8"/>
              <path id="Path_1249305" data-name="Path 1249305" d="M39.19,92.038l24.97-4.126a.08.08,0,0,0-.026-.159L39.163,91.88a.08.08,0,1,0,.026.159" fill="#a7dcf8"/>
              <path id="Path_1249306" data-name="Path 1249306" d="M38.815,89.769l24.97-4.126a.08.08,0,0,0-.026-.159L38.789,89.61a.08.08,0,1,0,.026.159" fill="#a7dcf8"/>
              <path id="Path_1249307" data-name="Path 1249307" d="M38.44,87.5l24.97-4.126a.08.08,0,0,0-.026-.159L38.413,87.34a.08.08,0,0,0,.026.159" fill="#a7dcf8"/>
            </g>
            <rect id="Rectangle_413208" data-name="Rectangle 413208" width="32.093" height="3.35" transform="translate(43.308 67.079) rotate(-9.381)" fill="#97b3cd"/>
            <rect id="Rectangle_413209" data-name="Rectangle 413209" width="53.914" height="1.379" transform="translate(33.973 77.508) rotate(-9.381)" fill="#a4c2de"/>
            <rect id="Rectangle_413210" data-name="Rectangle 413210" width="53.914" height="1.379" transform="translate(34.334 79.695) rotate(-9.381)" fill="#a4c2de"/>
            <rect id="Rectangle_413211" data-name="Rectangle 413211" width="53.914" height="1.379" transform="translate(40.145 114.866) rotate(-9.381)" fill="#a4c2de"/>
            <rect id="Rectangle_413212" data-name="Rectangle 413212" width="53.914" height="1.379" transform="translate(40.506 117.053) rotate(-9.381)" fill="#a4c2de"/>
            <rect id="Rectangle_413213" data-name="Rectangle 413213" width="21.411" height="1.379" transform="translate(40.867 119.24) rotate(-9.381)" fill="#a4c2de"/>
            <g id="Group_1209788" data-name="Group 1209788">
              <g id="Group_1209786" data-name="Group 1209786">
                <rect id="Rectangle_413214" data-name="Rectangle 413214" width="4.223" height="23.442" transform="translate(40.705 86.425) rotate(-9.381)" fill="#52bbb5"/>
                <rect id="Rectangle_413215" data-name="Rectangle 413215" width="4.223" height="16.632" transform="translate(57.821 90.499) rotate(-9.381)" fill="#2a6ab2"/>
                <rect id="Rectangle_413216" data-name="Rectangle 413216" width="4.223" height="12.216" transform="translate(53.205 95.739) rotate(-9.381)" fill="#f9dd45"/>
                <rect id="Rectangle_413217" data-name="Rectangle 413217" width="4.223" height="10.993" transform="translate(48.069 97.827) rotate(-9.381)" fill="#e7344c"/>
              </g>
              <g id="Group_1209787" data-name="Group 1209787">
                <rect id="Rectangle_413218" data-name="Rectangle 413218" width="2.13" height="1.964" transform="translate(73.032 85.346) rotate(-9.381)" fill="#52bbb5"/>
                <rect id="Rectangle_413219" data-name="Rectangle 413219" width="2.131" height="1.964" transform="translate(74.999 97.264) rotate(-9.381)" fill="#2a6ab2"/>
                <rect id="Rectangle_413220" data-name="Rectangle 413220" width="2.13" height="1.964" transform="translate(74.343 93.292) rotate(-9.381)" fill="#f9dd45"/>
                <rect id="Rectangle_413221" data-name="Rectangle 413221" width="2.13" height="1.964" transform="translate(73.688 89.318) rotate(-9.381)" fill="#e7344c"/>
              </g>
              <rect id="Rectangle_413222" data-name="Rectangle 413222" width="8.661" height="0.676" transform="translate(75.813 84.967) rotate(-9.381)" fill="#a4c2de"/>
              <rect id="Rectangle_413223" data-name="Rectangle 413223" width="6.297" height="0.676" transform="translate(75.976 85.956) rotate(-9.381)" fill="#a4c2de"/>
              <rect id="Rectangle_413224" data-name="Rectangle 413224" width="8.661" height="0.676" transform="translate(76.479 89.003) rotate(-9.381)" fill="#a4c2de"/>
              <rect id="Rectangle_413225" data-name="Rectangle 413225" width="6.297" height="0.676" transform="translate(76.642 89.991) rotate(-9.381)" fill="#a4c2de"/>
              <rect id="Rectangle_413226" data-name="Rectangle 413226" width="8.661" height="0.676" transform="translate(77.136 92.975) rotate(-9.381)" fill="#a4c2de"/>
              <rect id="Rectangle_413227" data-name="Rectangle 413227" width="6.297" height="0.676" transform="translate(77.299 93.963) rotate(-9.381)" fill="#a4c2de"/>
              <rect id="Rectangle_413228" data-name="Rectangle 413228" width="8.661" height="0.676" transform="translate(77.792 96.947) rotate(-9.381)" fill="#a4c2de"/>
              <rect id="Rectangle_413229" data-name="Rectangle 413229" width="6.297" height="0.676" transform="translate(77.955 97.935) rotate(-9.381)" fill="#a4c2de"/>
            </g>
            <path id="Path_1249308" data-name="Path 1249308" d="M68.35,120.194a12.939,12.939,0,1,0,14.875,10.657A12.939,12.939,0,0,0,68.35,120.194Zm3.4,20.606a7.947,7.947,0,1,1,6.546-9.137A7.947,7.947,0,0,1,71.755,140.8Z" fill="#a7dcf8"/>
            <path id="Path_1249309" data-name="Path 1249309" d="M69.164,125.119a7.892,7.892,0,0,1,9.233,7.71l4.964-.82c-.029-.384-.072-.771-.136-1.158a12.941,12.941,0,0,0-19.568-8.9l2.292,4.474A7.892,7.892,0,0,1,69.164,125.119Z" fill="#2a6ab2"/>
            <path id="Path_1249310" data-name="Path 1249310" d="M64.266,138.31l.146-.206a7.9,7.9,0,0,1-1.794-3.849A8.03,8.03,0,0,1,63,130.215l-4.783-1.448a12.933,12.933,0,0,0,.889,10.4Z" fill="#e7344c"/>
            <path id="Path_1249311" data-name="Path 1249311" d="M78.395,132.68a7.938,7.938,0,0,1-14.866,4.154l-5.118.846a12.937,12.937,0,0,0,24.937-5.818Z" fill="#52bbb5"/>
            <path id="Path_1249312" data-name="Path 1249312" d="M63.4,143.8l2.916-4.07a7.93,7.93,0,0,1-3.629-5.152l-4.933.815A12.907,12.907,0,0,0,63.4,143.8Z" fill="#f9dd45"/>
            <g id="Group_1209789" data-name="Group 1209789">
              <path id="Path_1249313" data-name="Path 1249313" d="M77.352,125.11l7.459-5.826a.276.276,0,0,0-.34-.436l-7.459,5.826a.276.276,0,0,0,.34.436" fill="#a7dcf8"/>
              <path id="Path_1249314" data-name="Path 1249314" d="M58.417,132.115l-9.393-1.155a.276.276,0,1,0-.067.549l9.393,1.155a.276.276,0,1,0,.067-.549" fill="#a7dcf8"/>
              <path id="Path_1249315" data-name="Path 1249315" d="M77.982,139.838,86.5,143.97a.276.276,0,0,0,.241-.5l-8.514-4.132a.276.276,0,1,0-.241.5" fill="#a7dcf8"/>
              <path id="Path_1249316" data-name="Path 1249316" d="M60.381,139.057l-7.315,6a.276.276,0,0,0,.351.427l7.315-6a.276.276,0,1,0-.351-.427" fill="#a7dcf8"/>
            </g>
          </g>
        </g>
        <g id="Group_1209799" data-name="Group 1209799">
          <rect id="Rectangle_413230" data-name="Rectangle 413230" width="73.156" height="99.254" transform="translate(74.597 56.722) rotate(23.866)" fill="#fff"/>
          <g id="Group_1209798" data-name="Group 1209798">
            <g id="Group_1209793" data-name="Group 1209793">
              <g id="Group_1209792" data-name="Group 1209792">
                <path id="Path_1249317" data-name="Path 1249317" d="M88.776,117.863l.033-.074-23.07-10.207,9.97-22.535,23,10.174-10,22.608.073.033.033-.074-.033.074.074.033L98.885,95.214a.08.08,0,0,0-.041-.106L75.7,84.868a.08.08,0,0,0-.106.041L65.559,107.591a.08.08,0,0,0,.041.106l23.144,10.24a.082.082,0,0,0,.062,0,.081.081,0,0,0,.045-.042Z" fill="#a7dcf8"/>
                <path id="Path_1249318" data-name="Path 1249318" d="M77.7,85.84,67.663,108.522a.08.08,0,0,0,.147.065L77.845,85.9a.08.08,0,1,0-.147-.065" fill="#a7dcf8"/>
                <path id="Path_1249319" data-name="Path 1249319" d="M79.8,86.771,69.767,109.453a.08.08,0,0,0,.147.065L79.949,86.836a.08.08,0,1,0-.147-.065" fill="#a7dcf8"/>
                <path id="Path_1249320" data-name="Path 1249320" d="M81.906,87.7,71.871,110.383a.08.08,0,1,0,.147.065L82.053,87.767a.08.08,0,1,0-.147-.065" fill="#a7dcf8"/>
                <path id="Path_1249321" data-name="Path 1249321" d="M84.01,88.632,73.975,111.314a.08.08,0,0,0,.147.065L84.157,88.7a.08.08,0,0,0-.147-.065" fill="#a7dcf8"/>
                <path id="Path_1249322" data-name="Path 1249322" d="M86.114,89.563,76.079,112.245a.08.08,0,0,0,.147.065L86.261,89.628a.08.08,0,0,0-.147-.065" fill="#a7dcf8"/>
                <path id="Path_1249323" data-name="Path 1249323" d="M88.218,90.494,78.183,113.176a.08.08,0,0,0,.147.065L88.365,90.559a.08.08,0,1,0-.147-.065" fill="#a7dcf8"/>
                <path id="Path_1249324" data-name="Path 1249324" d="M90.322,91.425,80.287,114.107a.08.08,0,0,0,.147.065L90.469,91.49a.08.08,0,1,0-.147-.065" fill="#a7dcf8"/>
                <path id="Path_1249325" data-name="Path 1249325" d="M92.426,92.356,82.391,115.038a.08.08,0,0,0,.147.065L92.573,92.421a.08.08,0,1,0-.147-.065" fill="#a7dcf8"/>
                <path id="Path_1249326" data-name="Path 1249326" d="M94.53,93.287,84.5,115.968a.08.08,0,0,0,.147.065L94.677,93.352a.08.08,0,1,0-.147-.065" fill="#a7dcf8"/>
                <path id="Path_1249327" data-name="Path 1249327" d="M96.634,94.217,86.6,116.9a.08.08,0,0,0,.147.065L96.781,94.282a.08.08,0,1,0-.147-.065" fill="#a7dcf8"/>
                <path id="Path_1249328" data-name="Path 1249328" d="M66.429,105.824l23.145,10.24a.08.08,0,1,0,.065-.147l-23.144-10.24a.08.08,0,1,0-.065.147" fill="#a7dcf8"/>
                <path id="Path_1249329" data-name="Path 1249329" d="M67.36,103.719,90.5,113.959a.08.08,0,0,0,.065-.147l-23.145-10.24a.08.08,0,1,0-.065.147" fill="#a7dcf8"/>
                <path id="Path_1249330" data-name="Path 1249330" d="M68.291,101.616l23.145,10.24a.08.08,0,1,0,.065-.147l-23.144-10.24a.08.08,0,1,0-.065.147" fill="#a7dcf8"/>
                <path id="Path_1249331" data-name="Path 1249331" d="M69.221,99.512l23.145,10.24a.08.08,0,0,0,.065-.147L69.286,99.365a.08.08,0,1,0-.065.147" fill="#a7dcf8"/>
                <path id="Path_1249332" data-name="Path 1249332" d="M70.152,97.408,93.3,107.648a.08.08,0,0,0,.065-.147L70.217,97.261a.08.08,0,1,0-.065.147" fill="#a7dcf8"/>
                <path id="Path_1249333" data-name="Path 1249333" d="M71.083,95.3l23.145,10.24a.08.08,0,0,0,.065-.147L71.148,95.157a.08.08,0,1,0-.065.147" fill="#a7dcf8"/>
                <path id="Path_1249334" data-name="Path 1249334" d="M72.014,93.2l23.144,10.24a.08.08,0,0,0,.065-.147L72.079,93.053a.08.08,0,1,0-.065.147" fill="#a7dcf8"/>
                <path id="Path_1249335" data-name="Path 1249335" d="M72.945,91.1l23.144,10.24a.08.08,0,1,0,.065-.147L73.01,90.949a.08.08,0,1,0-.065.147" fill="#a7dcf8"/>
                <path id="Path_1249336" data-name="Path 1249336" d="M73.876,88.992,97.02,99.232a.08.08,0,0,0,.065-.147L73.941,88.845a.08.08,0,1,0-.065.147" fill="#a7dcf8"/>
                <path id="Path_1249337" data-name="Path 1249337" d="M74.807,86.888l23.144,10.24a.08.08,0,0,0,.065-.147L74.872,86.741a.08.08,0,1,0-.065.147" fill="#a7dcf8"/>
              </g>
            </g>
            <rect id="Rectangle_413231" data-name="Rectangle 413231" width="32.094" height="3.35" transform="translate(90.076 72.482) rotate(23.866)" fill="#97b3cd"/>
            <rect id="Rectangle_413232" data-name="Rectangle 413232" width="53.916" height="1.379" transform="translate(76.55 76.086) rotate(23.866)" fill="#a4c2de"/>
            <rect id="Rectangle_413233" data-name="Rectangle 413233" width="53.916" height="1.379" transform="translate(75.653 78.114) rotate(23.866)" fill="#a4c2de"/>
            <rect id="Rectangle_413234" data-name="Rectangle 413234" width="53.916" height="1.379" transform="translate(61.229 110.714) rotate(23.866)" fill="#a4c2de"/>
            <rect id="Rectangle_413235" data-name="Rectangle 413235" width="53.916" height="1.379" transform="translate(60.333 112.741) rotate(23.866)" fill="#a4c2de"/>
            <rect id="Rectangle_413236" data-name="Rectangle 413236" width="21.411" height="1.379" transform="translate(59.435 114.769) rotate(23.866)" fill="#a4c2de"/>
            <g id="Group_1209796" data-name="Group 1209796">
              <g id="Group_1209794" data-name="Group 1209794">
                <rect id="Rectangle_413237" data-name="Rectangle 413237" width="23.443" height="4.223" transform="translate(67.806 108.672) rotate(-66.134)" fill="#52bbb5"/>
                <rect id="Rectangle_413238" data-name="Rectangle 413238" width="16.633" height="4.223" transform="translate(82.642 115.236) rotate(-66.134)" fill="#2a6ab2"/>
                <rect id="Rectangle_413239" data-name="Rectangle 413239" width="12.216" height="4.223" transform="translate(77.697 113.049) rotate(-66.134)" fill="#f9dd45"/>
                <rect id="Rectangle_413240" data-name="Rectangle 413240" width="10.993" height="4.223" transform="translate(72.752 110.861) rotate(-66.134)" fill="#e7344c"/>
              </g>
              <g id="Group_1209795" data-name="Group 1209795">
                <rect id="Rectangle_413241" data-name="Rectangle 413241" width="1.964" height="2.131" transform="translate(104.123 105.851) rotate(-66.134)" fill="#52bbb5"/>
                <rect id="Rectangle_413242" data-name="Rectangle 413242" width="1.964" height="2.131" transform="translate(99.236 116.897) rotate(-66.134)" fill="#2a6ab2"/>
                <rect id="Rectangle_413243" data-name="Rectangle 413243" width="1.964" height="2.131" transform="translate(100.866 113.215) rotate(-66.134)" fill="#f9dd45"/>
                <rect id="Rectangle_413244" data-name="Rectangle 413244" width="1.964" height="2.131" transform="translate(102.494 109.534) rotate(-66.134)" fill="#e7344c"/>
              </g>
              <rect id="Rectangle_413245" data-name="Rectangle 413245" width="8.662" height="0.676" transform="translate(107.452 105.264) rotate(23.866)" fill="#a4c2de"/>
              <rect id="Rectangle_413246" data-name="Rectangle 413246" width="6.297" height="0.676" transform="translate(107.047 106.18) rotate(23.866)" fill="#a4c2de"/>
              <rect id="Rectangle_413247" data-name="Rectangle 413247" width="8.662" height="0.676" transform="translate(105.798 109.005) rotate(23.866)" fill="#a4c2de"/>
              <rect id="Rectangle_413248" data-name="Rectangle 413248" width="6.297" height="0.676" transform="translate(105.392 109.921) rotate(23.866)" fill="#a4c2de"/>
              <rect id="Rectangle_413249" data-name="Rectangle 413249" width="8.662" height="0.676" transform="translate(104.168 112.687) rotate(23.866)" fill="#a4c2de"/>
              <rect id="Rectangle_413250" data-name="Rectangle 413250" width="6.297" height="0.676" transform="translate(103.763 113.603) rotate(23.866)" fill="#a4c2de"/>
              <rect id="Rectangle_413251" data-name="Rectangle 413251" width="8.662" height="0.676" transform="translate(102.539 116.369) rotate(23.866)" fill="#a4c2de"/>
              <rect id="Rectangle_413252" data-name="Rectangle 413252" width="6.297" height="0.676" transform="translate(102.134 117.285) rotate(23.866)" fill="#a4c2de"/>
            </g>
            <path id="Path_1249338" data-name="Path 1249338" d="M81.9,130.63a12.939,12.939,0,1,0,6.6,17.068A12.939,12.939,0,0,0,81.9,130.63Zm-8.451,19.1a7.947,7.947,0,1,1,10.483-4.052A7.947,7.947,0,0,1,73.445,149.73Z" fill="#a7dcf8"/>
            <path id="Path_1249339" data-name="Path 1249339" d="M79.876,135.2a7.892,7.892,0,0,1,3.494,11.51l4.6,2.036c.187-.337.362-.684.521-1.043a12.941,12.941,0,0,0-11.486-18.171l-.536,5A7.906,7.906,0,0,1,79.876,135.2Z" fill="#2a6ab2"/>
            <path id="Path_1249340" data-name="Path 1249340" d="M68.547,143.542l.235-.092a7.9,7.9,0,0,1,.61-4.2,8.03,8.03,0,0,1,2.535-3.17l-3.206-3.833a12.933,12.933,0,0,0-4.956,9.182Z" fill="#e7344c"/>
            <path id="Path_1249341" data-name="Path 1249341" d="M83.45,146.58A7.938,7.938,0,0,1,68.74,141.9L64,139.8a12.938,12.938,0,0,0,24.045,8.807Z" fill="#52bbb5"/>
            <path id="Path_1249342" data-name="Path 1249342" d="M64.815,147.658l4.671-1.805a7.93,7.93,0,0,1-.211-6.3L64.7,137.531A12.906,12.906,0,0,0,64.815,147.658Z" fill="#f9dd45"/>
            <g id="Group_1209797" data-name="Group 1209797">
              <path id="Path_1249343" data-name="Path 1249343" d="M86.728,139.677l9.432-.783a.276.276,0,1,0-.046-.551l-9.432.783a.276.276,0,0,0,.046.551" fill="#a7dcf8"/>
              <path id="Path_1249344" data-name="Path 1249344" d="M67.052,135.153l-7.223-6.116a.276.276,0,1,0-.357.422l7.223,6.116a.276.276,0,1,0,.357-.422" fill="#a7dcf8"/>
              <path id="Path_1249345" data-name="Path 1249345" d="M79.18,152.339l4.855,8.124a.276.276,0,1,0,.475-.284l-4.855-8.124a.276.276,0,0,0-.475.284" fill="#a7dcf8"/>
              <path id="Path_1249346" data-name="Path 1249346" d="M64.888,142.037l-9.41,1.011a.276.276,0,0,0,.059.55l9.41-1.011a.276.276,0,0,0-.059-.55" fill="#a7dcf8"/>
            </g>
          </g>
        </g>
        <g id="Group_1209801" data-name="Group 1209801">
          <g id="Group_1209800" data-name="Group 1209800">
            <path id="Path_1249347" data-name="Path 1249347" d="M124.67,142.162a19.892,19.892,0,0,0,10.977-1.1l-13.78-37.344a19.866,19.866,0,0,0-10.058,7.65l11.054,29.957Z" fill="#b0d0ef"/>
            <path id="Path_1249348" data-name="Path 1249348" d="M146.361,130.908a19.92,19.92,0,0,0-6.178-24.3l-7.506-3.46c-.2-.046-.4-.086-.6-.126q5.974,15.918,11.844,31.874A19.956,19.956,0,0,0,146.361,130.908Z" fill="#b0d0ef"/>
            <path id="Path_1249349" data-name="Path 1249349" d="M111.81,111.372a19.908,19.908,0,0,0,3.912,26.665l7.142,3.292Q117.336,126.35,111.81,111.372Z" fill="#dae8f8"/>
            <path id="Path_1249350" data-name="Path 1249350" d="M143.917,134.9q-5.89-15.949-11.844-31.874a19.869,19.869,0,0,0-10.2.7l13.78,37.344A19.866,19.866,0,0,0,143.917,134.9Z" fill="#dae8f8"/>
          </g>
          <rect id="Rectangle_413253" data-name="Rectangle 413253" width="7.893" height="7.893" transform="matrix(0.628, -0.778, 0.778, 0.628, 141.792, 138.547)" fill="#eecc43"/>
          <path id="Path_1249351" data-name="Path 1249351" d="M176.282,156.613l-4.574,5.672a1.782,1.782,0,0,1-2.505.268l-21.711-17.509a1.782,1.782,0,0,1-.268-2.505l4.574-5.672a1.782,1.782,0,0,1,2.505-.268l21.711,17.509A1.782,1.782,0,0,1,176.282,156.613Z" fill="#e7344c"/>
          <path id="Path_1249352" data-name="Path 1249352" d="M109.892,107.751a23.591,23.591,0,1,0,33.173-3.554A23.591,23.591,0,0,0,109.892,107.751Zm33.139,26.726a18.982,18.982,0,1,1-2.859-26.692A18.982,18.982,0,0,1,143.031,134.476Z" fill="#f9dd45"/>
        </g>
        <g id="Group_1209805" data-name="Group 1209805">
          <path id="Path_1249353" data-name="Path 1249353" d="M108.291,38.9,98.2,55.852a4.931,4.931,0,0,1-6.759,1.715L65.343,42.03a4.931,4.931,0,0,1-1.715-6.759L73.717,18.323a4.931,4.931,0,0,1,6.759-1.715l26.1,15.537A4.931,4.931,0,0,1,108.291,38.9Z" fill="#2a6ab2"/>
          <g id="Group_1209804" data-name="Group 1209804">
            <g id="Group_1209803" data-name="Group 1209803">
              <rect id="Rectangle_413254" data-name="Rectangle 413254" width="6.421" height="21.275" transform="matrix(-0.859, -0.511, 0.511, -0.859, 72.706, 41.58)" fill="#b0d0ef"/>
              <g id="Group_1209802" data-name="Group 1209802">
                <path id="Path_1249354" data-name="Path 1249354" d="M81.873,22.275q-.209,1.546-.418,3.092-.132.98-.263,1.959l-2.776,4.663L79.9,21.1Z" fill="#dae8f8"/>
                <path id="Path_1249355" data-name="Path 1249355" d="M75.01,37.712l-2.3,3.867-.348-.207c.694-5.09,1.381-10.176,2.1-15.282l2.767-4.648Z" fill="#dae8f8"/>
                <path id="Path_1249356" data-name="Path 1249356" d="M69.982,39.956l-1.314-.782q.3-2.187.6-4.377L71.1,31.724Z" fill="#dae8f8"/>
              </g>
            </g>
            <path id="Path_1249357" data-name="Path 1249357" d="M81.082,42.7,79.9,44.678a1.017,1.017,0,0,1-1.394.354l-1.981-1.179a1.017,1.017,0,0,1-.354-1.394l1.179-1.981a1.017,1.017,0,0,1,1.394-.354L80.729,41.3A1.017,1.017,0,0,1,81.082,42.7Z" fill="#b0d0ef"/>
            <path id="Path_1249358" data-name="Path 1249358" d="M83.97,37.846l-1.179,1.981a1.017,1.017,0,0,1-1.394.354L79.416,39a1.017,1.017,0,0,1-.354-1.394l1.179-1.981a1.017,1.017,0,0,1,1.394-.354l1.981,1.179A1.017,1.017,0,0,1,83.97,37.846Z" fill="#b0d0ef"/>
            <path id="Path_1249359" data-name="Path 1249359" d="M86.858,33l-1.179,1.981a1.017,1.017,0,0,1-1.394.354L82.3,34.151a1.017,1.017,0,0,1-.354-1.394l1.179-1.981a1.017,1.017,0,0,1,1.394-.354L86.5,31.6A1.017,1.017,0,0,1,86.858,33Z" fill="#b0d0ef"/>
            <path id="Path_1249360" data-name="Path 1249360" d="M89.745,28.145l-1.179,1.981a1.017,1.017,0,0,1-1.394.354L85.191,29.3a1.017,1.017,0,0,1-.354-1.394l1.179-1.981a1.017,1.017,0,0,1,1.394-.354l1.981,1.179A1.017,1.017,0,0,1,89.745,28.145Z" fill="#e7344c"/>
            <path id="Path_1249361" data-name="Path 1249361" d="M85.9,45.567l-1.179,1.981a1.017,1.017,0,0,1-1.394.354l-1.981-1.179A1.017,1.017,0,0,1,81,45.329l1.179-1.981a1.017,1.017,0,0,1,1.394-.354l1.981,1.179A1.017,1.017,0,0,1,85.9,45.567Z" fill="#b0d0ef"/>
            <path id="Path_1249362" data-name="Path 1249362" d="M88.791,40.716,87.611,42.7a1.017,1.017,0,0,1-1.394.354l-1.981-1.179a1.017,1.017,0,0,1-.354-1.394L85.062,38.5a1.017,1.017,0,0,1,1.394-.354l1.981,1.179A1.017,1.017,0,0,1,88.791,40.716Z" fill="#b0d0ef"/>
            <path id="Path_1249363" data-name="Path 1249363" d="M91.679,35.865,90.5,37.847a1.017,1.017,0,0,1-1.394.354l-1.981-1.179a1.017,1.017,0,0,1-.354-1.394l1.179-1.981a1.017,1.017,0,0,1,1.394-.354l1.981,1.179A1.018,1.018,0,0,1,91.679,35.865Z" fill="#b0d0ef"/>
            <path id="Path_1249364" data-name="Path 1249364" d="M94.567,31.015,93.387,33a1.017,1.017,0,0,1-1.394.354L90.012,32.17a1.017,1.017,0,0,1-.354-1.394l1.179-1.981a1.017,1.017,0,0,1,1.394-.354l1.981,1.179A1.018,1.018,0,0,1,94.567,31.015Z" fill="#52bbb5"/>
            <path id="Path_1249365" data-name="Path 1249365" d="M90.724,48.437l-1.179,1.981a1.017,1.017,0,0,1-1.394.354l-1.981-1.179a1.017,1.017,0,0,1-.354-1.394L87,46.217a1.017,1.017,0,0,1,1.394-.354l1.981,1.179A1.017,1.017,0,0,1,90.724,48.437Z" fill="#b0d0ef"/>
            <path id="Path_1249366" data-name="Path 1249366" d="M93.611,43.586l-1.179,1.981a1.017,1.017,0,0,1-1.394.354l-1.981-1.179a1.017,1.017,0,0,1-.354-1.394l1.179-1.981a1.017,1.017,0,0,1,1.394-.354l1.981,1.179A1.016,1.016,0,0,1,93.611,43.586Z" fill="#b0d0ef"/>
            <path id="Path_1249367" data-name="Path 1249367" d="M96.5,38.735,95.32,40.716a1.017,1.017,0,0,1-1.394.354L91.945,39.89a1.017,1.017,0,0,1-.354-1.394l1.179-1.981a1.017,1.017,0,0,1,1.394-.354l1.981,1.179A1.016,1.016,0,0,1,96.5,38.735Z" fill="#b0d0ef"/>
            <path id="Path_1249368" data-name="Path 1249368" d="M104.208,36.754l-1.179,1.981a1.017,1.017,0,0,1-1.394.354l-6.8-4.049a1.017,1.017,0,0,1-.354-1.394l1.179-1.981a1.017,1.017,0,0,1,1.394-.354l6.8,4.049A1.017,1.017,0,0,1,104.208,36.754Z" fill="#f9dd45"/>
            <path id="Path_1249369" data-name="Path 1249369" d="M95.545,51.306l-1.179,1.981a1.017,1.017,0,0,1-1.394.354L90.99,52.462a1.017,1.017,0,0,1-.354-1.394l1.179-1.981a1.017,1.017,0,0,1,1.394-.354l1.981,1.179A1.016,1.016,0,0,1,95.545,51.306Z" fill="#b0d0ef"/>
            <path id="Path_1249370" data-name="Path 1249370" d="M98.432,46.456l-1.179,1.981a1.017,1.017,0,0,1-1.394.354l-1.981-1.179a1.017,1.017,0,0,1-.354-1.394L94.7,44.236a1.017,1.017,0,0,1,1.394-.354l1.981,1.179A1.016,1.016,0,0,1,98.432,46.456Z" fill="#b0d0ef"/>
            <path id="Path_1249371" data-name="Path 1249371" d="M101.32,41.6l-1.179,1.981a1.017,1.017,0,0,1-1.394.354L96.766,42.76a1.017,1.017,0,0,1-.354-1.394l1.179-1.981a1.017,1.017,0,0,1,1.394-.354l1.981,1.179A1.016,1.016,0,0,1,101.32,41.6Z" fill="#b0d0ef"/>
          </g>
        </g>
        <g id="Group_1209842" data-name="Group 1209842">
          <circle id="Ellipse_12683" data-name="Ellipse 12683" cx="8.699" cy="8.699" r="8.699" transform="translate(19.107 141.065) rotate(-45)" fill="#f4c123"/>
          <ellipse id="Ellipse_12684" data-name="Ellipse 12684" cx="8.3" cy="8.299" rx="8.3" ry="8.299" transform="translate(21.419 147.219) rotate(-76.627)" fill="#f9dd45"/>
          <path id="Path_1249372" data-name="Path 1249372" d="M37.427,141.066a6.017,6.017,0,1,1-6.017-6.017A6.017,6.017,0,0,1,37.427,141.066Z" fill="#f4c123"/>
          <g id="Group_1209839" data-name="Group 1209839">
            <g id="Group_1209838" data-name="Group 1209838">
              <g id="Group_1209807" data-name="Group 1209807">
                <g id="Group_1209806" data-name="Group 1209806">
                  <path id="Path_1249373" data-name="Path 1249373" d="M31.609,133.95a.2.2,0,1,1-.2-.2A.2.2,0,0,1,31.609,133.95Z" fill="#f4c123"/>
                </g>
              </g>
              <g id="Group_1209809" data-name="Group 1209809">
                <g id="Group_1209808" data-name="Group 1209808">
                  <path id="Path_1249374" data-name="Path 1249374" d="M31.609,148.182a.2.2,0,1,1-.2-.2A.2.2,0,0,1,31.609,148.182Z" fill="#f4c123"/>
                </g>
              </g>
              <g id="Group_1209811" data-name="Group 1209811">
                <g id="Group_1209810" data-name="Group 1209810">
                  <path id="Path_1249375" data-name="Path 1249375" d="M28.826,134.432a.2.2,0,1,1-.262-.106A.2.2,0,0,1,28.826,134.432Z" fill="#f4c123"/>
                </g>
              </g>
              <g id="Group_1209813" data-name="Group 1209813">
                <g id="Group_1209812" data-name="Group 1209812">
                  <path id="Path_1249376" data-name="Path 1249376" d="M34.361,147.544a.2.2,0,1,1-.261-.106A.2.2,0,0,1,34.361,147.544Z" fill="#f4c123"/>
                </g>
              </g>
              <g id="Group_1209815" data-name="Group 1209815">
                <g id="Group_1209814" data-name="Group 1209814">
                  <path id="Path_1249377" data-name="Path 1249377" d="M36.645,136.241a.2.2,0,1,1,0-.282A.2.2,0,0,1,36.645,136.241Z" fill="#f4c123"/>
                </g>
              </g>
              <g id="Group_1209817" data-name="Group 1209817">
                <g id="Group_1209816" data-name="Group 1209816">
                  <path id="Path_1249378" data-name="Path 1249378" d="M26.453,146.176a.2.2,0,1,1,0-.282A.2.2,0,0,1,26.453,146.176Z" fill="#f4c123"/>
                </g>
              </g>
              <g id="Group_1209819" data-name="Group 1209819">
                <g id="Group_1209818" data-name="Group 1209818">
                  <path id="Path_1249379" data-name="Path 1249379" d="M34.357,134.586a.2.2,0,1,1-.106-.261A.2.2,0,0,1,34.357,134.586Z" fill="#f4c123"/>
                </g>
              </g>
              <g id="Group_1209821" data-name="Group 1209821">
                <g id="Group_1209820" data-name="Group 1209820">
                  <path id="Path_1249380" data-name="Path 1249380" d="M28.83,147.7a.2.2,0,1,1-.106-.261A.2.2,0,0,1,28.83,147.7Z" fill="#f4c123"/>
                </g>
              </g>
              <g id="Group_1209823" data-name="Group 1209823">
                <g id="Group_1209822" data-name="Group 1209822">
                  <path id="Path_1249381" data-name="Path 1249381" d="M38.528,141.188a.2.2,0,1,1,.2-.2A.2.2,0,0,1,38.528,141.188Z" fill="#f4c123"/>
                </g>
              </g>
              <g id="Group_1209825" data-name="Group 1209825">
                <g id="Group_1209824" data-name="Group 1209824">
                  <path id="Path_1249382" data-name="Path 1249382" d="M24.3,141.343a.2.2,0,1,1,.2-.2A.2.2,0,0,1,24.3,141.343Z" fill="#f4c123"/>
                </g>
              </g>
              <g id="Group_1209827" data-name="Group 1209827">
                <g id="Group_1209826" data-name="Group 1209826">
                  <path id="Path_1249383" data-name="Path 1249383" d="M38.015,138.41a.2.2,0,1,1,.1-.263A.2.2,0,0,1,38.015,138.41Z" fill="#f4c123"/>
                </g>
              </g>
              <g id="Group_1209829" data-name="Group 1209829">
                <g id="Group_1209828" data-name="Group 1209828">
                  <path id="Path_1249384" data-name="Path 1249384" d="M24.964,144.088a.2.2,0,1,1,.1-.263A.2.2,0,0,1,24.964,144.088Z" fill="#f4c123"/>
                </g>
              </g>
              <g id="Group_1209831" data-name="Group 1209831">
                <g id="Group_1209830" data-name="Group 1209830">
                  <path id="Path_1249385" data-name="Path 1249385" d="M36.29,146.248a.2.2,0,1,1,.282,0A.2.2,0,0,1,36.29,146.248Z" fill="#f4c123"/>
                </g>
              </g>
              <g id="Group_1209833" data-name="Group 1209833">
                <g id="Group_1209832" data-name="Group 1209832">
                  <path id="Path_1249386" data-name="Path 1249386" d="M26.246,136.165a.2.2,0,1,1,.282,0A.2.2,0,0,1,26.246,136.165Z" fill="#f4c123"/>
                </g>
              </g>
              <g id="Group_1209835" data-name="Group 1209835">
                <g id="Group_1209834" data-name="Group 1209834">
                  <path id="Path_1249387" data-name="Path 1249387" d="M37.922,143.942a.2.2,0,1,1,.26-.109A.2.2,0,0,1,37.922,143.942Z" fill="#f4c123"/>
                </g>
              </g>
              <g id="Group_1209837" data-name="Group 1209837">
                <g id="Group_1209836" data-name="Group 1209836">
                  <path id="Path_1249388" data-name="Path 1249388" d="M24.747,138.559a.2.2,0,1,1,.26-.109A.2.2,0,0,1,24.747,138.559Z" fill="#f4c123"/>
                </g>
              </g>
            </g>
          </g>
          <g id="Group_1209841" data-name="Group 1209841">
            <g id="Group_1209840" data-name="Group 1209840">
              <path id="Path_1249389" data-name="Path 1249389" d="M36.971,137.316h0a.17.17,0,0,1,.046-.236l.408-.275a.17.17,0,0,1,.236.046h0a.17.17,0,0,1-.046.236l-.408.275A.17.17,0,0,1,36.971,137.316Z" fill="#f4c123"/>
              <path id="Path_1249390" data-name="Path 1249390" d="M25.158,145.281h0a.17.17,0,0,1,.046-.236l.408-.275a.17.17,0,0,1,.236.046h0a.17.17,0,0,1-.046.236l-.408.275A.171.171,0,0,1,25.158,145.281Z" fill="#f4c123"/>
              <path id="Path_1249391" data-name="Path 1249391" d="M27.66,135.5h0a.17.17,0,0,1-.236-.046l-.275-.408a.17.17,0,0,1,.046-.236h0a.17.17,0,0,1,.236.046l.275.408A.17.17,0,0,1,27.66,135.5Z" fill="#f4c123"/>
              <path id="Path_1249392" data-name="Path 1249392" d="M35.625,147.317h0a.17.17,0,0,1-.236-.046l-.275-.408a.17.17,0,0,1,.046-.236h0a.17.17,0,0,1,.236.046l.275.408A.17.17,0,0,1,35.625,147.317Z" fill="#f4c123"/>
              <path id="Path_1249393" data-name="Path 1249393" d="M32.691,134.482h0a.17.17,0,0,1-.135-.2l.094-.483a.17.17,0,0,1,.2-.135h0a.17.17,0,0,1,.135.2l-.094.483A.171.171,0,0,1,32.691,134.482Z" fill="#f4c123"/>
              <path id="Path_1249394" data-name="Path 1249394" d="M29.97,148.467h0a.17.17,0,0,1-.135-.2l.094-.483a.17.17,0,0,1,.2-.135h0a.17.17,0,0,1,.135.2l-.094.483A.17.17,0,0,1,29.97,148.467Z" fill="#f4c123"/>
              <path id="Path_1249395" data-name="Path 1249395" d="M24.826,139.785h0a.17.17,0,0,1-.2.135l-.483-.094a.17.17,0,0,1-.135-.2h0a.17.17,0,0,1,.2-.135l.483.094A.17.17,0,0,1,24.826,139.785Z" fill="#f4c123"/>
              <path id="Path_1249396" data-name="Path 1249396" d="M38.811,142.505h0a.17.17,0,0,1-.2.135l-.483-.094a.17.17,0,0,1-.135-.2h0a.17.17,0,0,1,.2-.135l.483.094A.17.17,0,0,1,38.811,142.505Z" fill="#f4c123"/>
              <path id="Path_1249397" data-name="Path 1249397" d="M35.143,135.494h0a.17.17,0,0,1-.047-.236l.274-.409a.17.17,0,0,1,.236-.047h0a.17.17,0,0,1,.047.236l-.274.409A.171.171,0,0,1,35.143,135.494Z" fill="#f4c123"/>
              <path id="Path_1249398" data-name="Path 1249398" d="M27.213,147.329h0a.17.17,0,0,1-.047-.236l.274-.409a.17.17,0,0,1,.236-.047h0a.17.17,0,0,1,.047.236l-.274.409A.169.169,0,0,1,27.213,147.329Z" fill="#f4c123"/>
              <path id="Path_1249399" data-name="Path 1249399" d="M25.837,137.332h0a.17.17,0,0,1-.236.047l-.409-.274a.17.17,0,0,1-.047-.236h0a.17.17,0,0,1,.236-.047l.409.274A.17.17,0,0,1,25.837,137.332Z" fill="#f4c123"/>
              <path id="Path_1249400" data-name="Path 1249400" d="M37.674,145.262h0a.17.17,0,0,1-.236.047l-.409-.274a.17.17,0,0,1-.047-.236h0a.17.17,0,0,1,.236-.047l.409.274A.17.17,0,0,1,37.674,145.262Z" fill="#f4c123"/>
              <path id="Path_1249401" data-name="Path 1249401" d="M30.109,134.486h0a.17.17,0,0,1-.2-.134l-.1-.482a.17.17,0,0,1,.134-.2h0a.17.17,0,0,1,.2.134l.1.482A.17.17,0,0,1,30.109,134.486Z" fill="#f4c123"/>
              <path id="Path_1249402" data-name="Path 1249402" d="M32.872,148.463h0a.17.17,0,0,1-.2-.134l-.1-.482a.17.17,0,0,1,.134-.2h0a.17.17,0,0,1,.2.134l.1.482A.171.171,0,0,1,32.872,148.463Z" fill="#f4c123"/>
              <path id="Path_1249403" data-name="Path 1249403" d="M24.83,142.366h0a.17.17,0,0,1-.134.2l-.482.1a.17.17,0,0,1-.2-.134h0a.17.17,0,0,1,.134-.2l.482-.1A.171.171,0,0,1,24.83,142.366Z" fill="#f4c123"/>
              <path id="Path_1249404" data-name="Path 1249404" d="M38.806,139.6h0a.17.17,0,0,1-.134.2l-.482.1a.17.17,0,0,1-.2-.134h0a.17.17,0,0,1,.134-.2l.482-.1A.171.171,0,0,1,38.806,139.6Z" fill="#f4c123"/>
            </g>
          </g>
          <path id="Path_1249405" data-name="Path 1249405" d="M32.881,140.035h.893a.2.2,0,0,0,.2-.2v-.6a2.2,2.2,0,0,0-1.918-2.184v-.675a.2.2,0,0,0-.2-.2h-.893a.2.2,0,0,0-.2.2v.675a2.2,2.2,0,0,0-1.917,2.174v0h0v0h0v.009a2.38,2.38,0,0,0,.233,1.08,1.959,1.959,0,0,0,.544.665,2.652,2.652,0,0,0,.585.345,6.727,6.727,0,0,0,.974.319l.044.012c.257.069.469.127.657.2a2.156,2.156,0,0,1,.367.167,1.007,1.007,0,0,1,.185.138.69.69,0,0,1,.171.255,1.283,1.283,0,0,1,.075.471.918.918,0,0,1-.917.916h-.713a.916.916,0,0,1-.916-.917v-.6a.2.2,0,0,0-.2-.2h-.893a.2.2,0,0,0-.2.2v.6a2.2,2.2,0,0,0,1.918,2.185v.675a.2.2,0,0,0,.2.2h.893a.2.2,0,0,0,.2-.2v-.675a2.2,2.2,0,0,0,1.918-2.185,2.465,2.465,0,0,0-.23-1.093,1.992,1.992,0,0,0-.54-.677,2.625,2.625,0,0,0-.586-.355,6.526,6.526,0,0,0-1.006-.333l-.018,0-.007,0c-.237-.064-.461-.124-.655-.192a2.234,2.234,0,0,1-.369-.164,1.013,1.013,0,0,1-.185-.134.652.652,0,0,1-.166-.242,1.2,1.2,0,0,1-.073-.449v-.006a.917.917,0,0,1,.917-.92h.713a.916.916,0,0,1,.916.917v.6A.2.2,0,0,0,32.881,140.035Z" fill="#f9dd45"/>
        </g>
        <g id="Group_1209879" data-name="Group 1209879">
          <path id="Path_1249406" data-name="Path 1249406" d="M31.745,154.527a8.7,8.7,0,1,1-12.243-1.2A8.7,8.7,0,0,1,31.745,154.527Z" fill="#f4c123"/>
          <ellipse id="Ellipse_12685" data-name="Ellipse 12685" cx="8.299" cy="8.299" rx="8.299" ry="8.299" transform="translate(13.283 160.045) rotate(-45)" fill="#f9dd45"/>
          <path id="Path_1249407" data-name="Path 1249407" d="M29.673,156.228a6.017,6.017,0,1,1-8.468-.833A6.017,6.017,0,0,1,29.673,156.228Z" fill="#f4c123"/>
          <g id="Group_1209876" data-name="Group 1209876">
            <g id="Group_1209875" data-name="Group 1209875">
              <g id="Group_1209844" data-name="Group 1209844">
                <g id="Group_1209843" data-name="Group 1209843">
                  <path id="Path_1249408" data-name="Path 1249408" d="M20.661,154.419a.2.2,0,1,1-.281-.028A.2.2,0,0,1,20.661,154.419Z" fill="#f4c123"/>
                </g>
              </g>
              <g id="Group_1209846" data-name="Group 1209846">
                <g id="Group_1209845" data-name="Group 1209845">
                  <path id="Path_1249409" data-name="Path 1249409" d="M29.691,165.42a.2.2,0,1,1-.281-.028A.2.2,0,0,1,29.691,165.42Z" fill="#f4c123"/>
                </g>
              </g>
              <g id="Group_1209848" data-name="Group 1209848">
                <g id="Group_1209847" data-name="Group 1209847">
                  <path id="Path_1249410" data-name="Path 1249410" d="M18.816,156.558a.2.2,0,1,1-.269.084A.2.2,0,0,1,18.816,156.558Z" fill="#f4c123"/>
                </g>
              </g>
              <g id="Group_1209850" data-name="Group 1209850">
                <g id="Group_1209849" data-name="Group 1209849">
                  <path id="Path_1249411" data-name="Path 1249411" d="M31.413,163.181a.2.2,0,1,1-.27.084A.2.2,0,0,1,31.413,163.181Z" fill="#f4c123"/>
                </g>
              </g>
              <g id="Group_1209852" data-name="Group 1209852">
                <g id="Group_1209851" data-name="Group 1209851">
                  <path id="Path_1249412" data-name="Path 1249412" d="M26.008,153a.2.2,0,1,1-.176-.22A.2.2,0,0,1,26.008,153Z" fill="#f4c123"/>
                </g>
              </g>
              <g id="Group_1209854" data-name="Group 1209854">
                <g id="Group_1209853" data-name="Group 1209853">
                  <path id="Path_1249413" data-name="Path 1249413" d="M24.432,167.14a.2.2,0,1,1-.176-.22A.2.2,0,0,1,24.432,167.14Z" fill="#f4c123"/>
                </g>
              </g>
              <g id="Group_1209856" data-name="Group 1209856">
                <g id="Group_1209855" data-name="Group 1209855">
                  <path id="Path_1249414" data-name="Path 1249414" d="M23.188,153.167a.2.2,0,1,1-.248-.135A.2.2,0,0,1,23.188,153.167Z" fill="#f4c123"/>
                </g>
              </g>
              <g id="Group_1209858" data-name="Group 1209858">
                <g id="Group_1209857" data-name="Group 1209857">
                  <path id="Path_1249415" data-name="Path 1249415" d="M27.238,166.811a.2.2,0,1,1-.248-.135A.2.2,0,0,1,27.238,166.811Z" fill="#f4c123"/>
                </g>
              </g>
              <g id="Group_1209860" data-name="Group 1209860">
                <g id="Group_1209859" data-name="Group 1209859">
                  <path id="Path_1249416" data-name="Path 1249416" d="M30.6,155.624a.2.2,0,1,1,.025-.281A.2.2,0,0,1,30.6,155.624Z" fill="#f4c123"/>
                </g>
              </g>
              <g id="Group_1209862" data-name="Group 1209862">
                <g id="Group_1209861" data-name="Group 1209861">
                  <path id="Path_1249417" data-name="Path 1249417" d="M19.7,164.773a.2.2,0,1,1,.024-.281A.2.2,0,0,1,19.7,164.773Z" fill="#f4c123"/>
                </g>
              </g>
              <g id="Group_1209864" data-name="Group 1209864">
                <g id="Group_1209863" data-name="Group 1209863">
                  <path id="Path_1249418" data-name="Path 1249418" d="M28.442,153.8a.2.2,0,1,1-.087-.269A.2.2,0,0,1,28.442,153.8Z" fill="#f4c123"/>
                </g>
              </g>
              <g id="Group_1209866" data-name="Group 1209866">
                <g id="Group_1209865" data-name="Group 1209865">
                  <path id="Path_1249419" data-name="Path 1249419" d="M21.957,166.471a.2.2,0,1,1-.087-.269A.2.2,0,0,1,21.957,166.471Z" fill="#f4c123"/>
                </g>
              </g>
              <g id="Group_1209868" data-name="Group 1209868">
                <g id="Group_1209867" data-name="Group 1209867">
                  <path id="Path_1249420" data-name="Path 1249420" d="M32.082,160.956a.2.2,0,1,1,.218-.179A.2.2,0,0,1,32.082,160.956Z" fill="#f4c123"/>
                </g>
              </g>
              <g id="Group_1209870" data-name="Group 1209870">
                <g id="Group_1209869" data-name="Group 1209869">
                  <path id="Path_1249421" data-name="Path 1249421" d="M17.921,159.534a.2.2,0,1,1,.219-.179A.2.2,0,0,1,17.921,159.534Z" fill="#f4c123"/>
                </g>
              </g>
              <g id="Group_1209872" data-name="Group 1209872">
                <g id="Group_1209871" data-name="Group 1209871">
                  <path id="Path_1249422" data-name="Path 1249422" d="M31.88,158.138a.2.2,0,1,1,.132-.25A.2.2,0,0,1,31.88,158.138Z" fill="#f4c123"/>
                </g>
              </g>
              <g id="Group_1209874" data-name="Group 1209874">
                <g id="Group_1209873" data-name="Group 1209873">
                  <path id="Path_1249423" data-name="Path 1249423" d="M18.281,162.336a.2.2,0,1,1,.132-.25A.2.2,0,0,1,18.281,162.336Z" fill="#f4c123"/>
                </g>
              </g>
            </g>
          </g>
          <g id="Group_1209878" data-name="Group 1209878">
            <g id="Group_1209877" data-name="Group 1209877">
              <path id="Path_1249424" data-name="Path 1249424" d="M26.941,153.619h0a.17.17,0,0,1-.114-.212l.141-.471a.17.17,0,0,1,.212-.114h0a.17.17,0,0,1,.114.212l-.141.471A.17.17,0,0,1,26.941,153.619Z" fill="#f4c123"/>
              <path id="Path_1249425" data-name="Path 1249425" d="M22.864,167.271h0a.17.17,0,0,1-.114-.212l.141-.471a.17.17,0,0,1,.212-.114h0a.17.17,0,0,1,.114.212l-.141.471A.171.171,0,0,1,22.864,167.271Z" fill="#f4c123"/>
              <path id="Path_1249426" data-name="Path 1249426" d="M18.595,158.126h0a.17.17,0,0,1-.212.114l-.471-.141a.17.17,0,0,1-.114-.212h0a.17.17,0,0,1,.212-.114l.471.141A.17.17,0,0,1,18.595,158.126Z" fill="#f4c123"/>
              <path id="Path_1249427" data-name="Path 1249427" d="M32.246,162.2h0a.17.17,0,0,1-.212.114l-.471-.141a.17.17,0,0,1-.114-.212h0a.17.17,0,0,1,.212-.114l.471.141A.17.17,0,0,1,32.246,162.2Z" fill="#f4c123"/>
              <path id="Path_1249428" data-name="Path 1249428" d="M21.835,154.144h0a.17.17,0,0,1-.231-.069l-.234-.433a.17.17,0,0,1,.069-.231h0a.17.17,0,0,1,.231.069l.234.433A.17.17,0,0,1,21.835,154.144Z" fill="#f4c123"/>
              <path id="Path_1249429" data-name="Path 1249429" d="M28.6,166.68h0a.17.17,0,0,1-.231-.069l-.234-.433a.17.17,0,0,1,.069-.231h0a.17.17,0,0,1,.231.069l.234.433A.17.17,0,0,1,28.6,166.68Z" fill="#f4c123"/>
              <path id="Path_1249430" data-name="Path 1249430" d="M19.12,163.233h0a.17.17,0,0,1-.069.231l-.433.234a.17.17,0,0,1-.231-.069h0a.17.17,0,0,1,.069-.231l.433-.234A.17.17,0,0,1,19.12,163.233Z" fill="#f4c123"/>
              <path id="Path_1249431" data-name="Path 1249431" d="M31.656,156.463h0a.17.17,0,0,1-.069.231l-.433.234a.17.17,0,0,1-.231-.069h0a.17.17,0,0,1,.069-.231l.433-.234A.17.17,0,0,1,31.656,156.463Z" fill="#f4c123"/>
              <path id="Path_1249432" data-name="Path 1249432" d="M24.372,153.37h0a.17.17,0,0,1-.186-.153l-.048-.489a.17.17,0,0,1,.153-.186h0a.17.17,0,0,1,.186.153l.048.489A.17.17,0,0,1,24.372,153.37Z" fill="#f4c123"/>
              <path id="Path_1249433" data-name="Path 1249433" d="M25.752,167.55h0a.17.17,0,0,1-.186-.153l-.048-.489a.17.17,0,0,1,.153-.186h0a.17.17,0,0,1,.186.153l.048.489A.17.17,0,0,1,25.752,167.55Z" fill="#f4c123"/>
              <path id="Path_1249434" data-name="Path 1249434" d="M18.346,160.7h0a.17.17,0,0,1-.153.186l-.489.048a.17.17,0,0,1-.186-.153h0a.17.17,0,0,1,.153-.186l.489-.048A.17.17,0,0,1,18.346,160.7Z" fill="#f4c123"/>
              <path id="Path_1249435" data-name="Path 1249435" d="M32.526,159.315h0a.17.17,0,0,1-.153.186l-.489.048a.17.17,0,0,1-.186-.153h0a.17.17,0,0,1,.153-.186l.489-.048A.171.171,0,0,1,32.526,159.315Z" fill="#f4c123"/>
              <path id="Path_1249436" data-name="Path 1249436" d="M19.842,155.785h0a.17.17,0,0,1-.24.023l-.38-.312a.17.17,0,0,1-.023-.24h0a.17.17,0,0,1,.24-.023l.38.312A.17.17,0,0,1,19.842,155.785Z" fill="#f4c123"/>
              <path id="Path_1249437" data-name="Path 1249437" d="M30.844,164.836h0a.17.17,0,0,1-.24.023l-.38-.312a.17.17,0,0,1-.023-.24h0a.17.17,0,0,1,.24-.023l.38.312A.17.17,0,0,1,30.844,164.836Z" fill="#f4c123"/>
              <path id="Path_1249438" data-name="Path 1249438" d="M20.761,165.226h0a.17.17,0,0,1,.023.24l-.312.38a.17.17,0,0,1-.24.023h0a.17.17,0,0,1-.023-.24l.312-.38A.17.17,0,0,1,20.761,165.226Z" fill="#f4c123"/>
              <path id="Path_1249439" data-name="Path 1249439" d="M29.812,154.223h0a.17.17,0,0,1,.023.24l-.312.38a.17.17,0,0,1-.24.023h0a.17.17,0,0,1-.023-.24l.312-.38A.17.17,0,0,1,29.812,154.223Z" fill="#f4c123"/>
            </g>
          </g>
          <path id="Path_1249440" data-name="Path 1249440" d="M25.5,158.315l.69-.566a.2.2,0,0,0,.027-.279l-.38-.462a2.2,2.2,0,0,0-2.868-.472l-.429-.522a.2.2,0,0,0-.279-.027l-.69.566a.2.2,0,0,0-.027.279l.429.522a2.2,2.2,0,0,0-.1,2.9l0,0h0l0,0h0l.006.007a2.38,2.38,0,0,0,.865.687,1.96,1.96,0,0,0,.842.168,2.652,2.652,0,0,0,.671-.1,6.724,6.724,0,0,0,.955-.372l.041-.019c.243-.11.443-.2.632-.266a2.154,2.154,0,0,1,.389-.1,1.012,1.012,0,0,1,.231-.011.69.69,0,0,1,.294.089,1.282,1.282,0,0,1,.357.317.918.918,0,0,1-.127,1.29l-.551.452a.917.917,0,0,1-1.29-.127l-.379-.462a.2.2,0,0,0-.279-.027l-.69.566a.2.2,0,0,0-.027.279l.38.462a2.2,2.2,0,0,0,2.868.472l.429.522a.2.2,0,0,0,.279.027l.69-.566a.2.2,0,0,0,.027-.279l-.429-.522a2.2,2.2,0,0,0,.1-2.905,2.464,2.464,0,0,0-.871-.7,1.992,1.992,0,0,0-.847-.181,2.633,2.633,0,0,0-.678.1,6.537,6.537,0,0,0-.989.381l-.017.008-.006,0c-.224.1-.435.2-.628.267a2.226,2.226,0,0,1-.389.108,1,1,0,0,1-.228.014.653.653,0,0,1-.282-.081,1.2,1.2,0,0,1-.341-.3l0,0a.916.916,0,0,1,.125-1.293l.551-.452a.916.916,0,0,1,1.29.127l.379.462A.2.2,0,0,0,25.5,158.315Z" fill="#f9dd45"/>
        </g>
      </g>
    </g>
  </g>
</svg>
