<svg xmlns="http://www.w3.org/2000/svg" xmlns:xlink="http://www.w3.org/1999/xlink" width="277" height="265" viewBox="0 0 277 265">
  <defs>
    <clipPath id="clip-path">
      <path id="Rectangle_413046" data-name="Rectangle 413046" d="M0,0H262a15,15,0,0,1,15,15V250a15,15,0,0,1-15,15H0a0,0,0,0,1,0,0V0A0,0,0,0,1,0,0Z" transform="translate(1037.852 5183)" fill="#fff" stroke="#707070" stroke-width="1"/>
    </clipPath>
  </defs>
  <g id="Mask_Group_1099361" data-name="Mask Group 1099361" transform="translate(-1037.852 -5183)" clip-path="url(#clip-path)">
    <g id="_4391942_23" data-name="4391942_23" transform="translate(1043.852 5183)">
      <g id="BG" transform="translate(-4.484 -3.583)">
        <rect id="Rectangle_413047" data-name="Rectangle 413047" width="275" height="274" transform="translate(0.484 -0.417)" fill="#b3e5fc"/>
        <ellipse id="Ellipse_12657" data-name="Ellipse 12657" cx="106.016" cy="104.778" rx="106.016" ry="104.778" transform="translate(31.8 31.8)" fill="#81d4fa"/>
      </g>
      <g id="Artwork">
        <rect id="Rectangle_413048" data-name="Rectangle 413048" width="167.392" height="18.992" transform="translate(48.583 175.783)" fill="#eee"/>
        <path id="Path_1248203" data-name="Path 1248203" d="M216.2,175.783H48.8V75.083a4.417,4.417,0,0,1,4.417-4.417H211.779a4.417,4.417,0,0,1,4.417,4.417Z" fill="#616161"/>
        <path id="Path_1248204" data-name="Path 1248204" d="M196.542,57.417a13.249,13.249,0,0,0-13.25,13.25v103.35a13.249,13.249,0,0,1-13.25,13.25H72.875V70.667a13.249,13.249,0,0,1,13.25-13.25Z" fill="#fafafa"/>
        <path id="Path_1248205" data-name="Path 1248205" d="M196.542,57.417a13.25,13.25,0,0,0-13.25,13.25h26.5A13.25,13.25,0,0,0,196.542,57.417Z" fill="#e0e0e0"/>
        <path id="Path_1248206" data-name="Path 1248206" d="M46.375,174.017h26.5a13.25,13.25,0,0,1-26.5,0Z" fill="#e0e0e0"/>
        <path id="Path_1248207" data-name="Path 1248207" d="M156.792,174.017H59.625v13.25H170.042A13.249,13.249,0,0,1,156.792,174.017Z" fill="#e0e0e0"/>
        <rect id="Rectangle_413049" data-name="Rectangle 413049" width="53" height="13.25" transform="translate(106 194.775)" fill="#eee"/>
        <rect id="Rectangle_413050" data-name="Rectangle 413050" width="53" height="5.742" transform="translate(106 194.775)" fill="#e0e0e0"/>
        <rect id="Rectangle_413051" data-name="Rectangle 413051" width="89.217" height="5.3" transform="translate(87.892 208.025)" fill="#fafafa"/>
        <rect id="Rectangle_413052" data-name="Rectangle 413052" width="97.167" height="2.65" transform="translate(79.942 83.033)" fill="#bdbdbd"/>
        <rect id="Rectangle_413053" data-name="Rectangle 413053" width="97.167" height="2.65" transform="translate(79.942 118.367)" fill="#bdbdbd"/>
        <rect id="Rectangle_413054" data-name="Rectangle 413054" width="97.167" height="2.65" transform="translate(79.942 153.7)" fill="#bdbdbd"/>
        <rect id="Rectangle_413055" data-name="Rectangle 413055" width="97.167" height="7.067" transform="translate(79.942 88.775)" fill="#e0e0e0"/>
        <rect id="Rectangle_413056" data-name="Rectangle 413056" width="59.625" height="2.208" transform="translate(79.942 98.933)" fill="#e0e0e0"/>
        <rect id="Rectangle_413057" data-name="Rectangle 413057" width="30.917" height="2.208" transform="translate(146.192 98.933)" fill="#e0e0e0"/>
        <rect id="Rectangle_413058" data-name="Rectangle 413058" width="34.45" height="2.208" transform="translate(79.942 103.35)" fill="#e0e0e0"/>
        <rect id="Rectangle_413059" data-name="Rectangle 413059" width="9.717" height="2.208" transform="translate(146.192 103.35)" fill="#e0e0e0"/>
        <rect id="Rectangle_413060" data-name="Rectangle 413060" width="45.933" height="2.208" transform="translate(79.942 107.767)" fill="#e0e0e0"/>
        <rect id="Rectangle_413061" data-name="Rectangle 413061" width="19.433" height="2.208" transform="translate(146.192 107.767)" fill="#e0e0e0"/>
        <rect id="Rectangle_413062" data-name="Rectangle 413062" width="15.458" height="2.208" transform="translate(146.192 112.183)" fill="#e0e0e0"/>
        <rect id="Rectangle_413063" data-name="Rectangle 413063" width="27.825" height="2.208" transform="translate(79.942 112.183)" fill="#e0e0e0"/>
        <rect id="Rectangle_413064" data-name="Rectangle 413064" width="97.167" height="7.067" transform="translate(79.942 124.108)" fill="#e0e0e0"/>
        <rect id="Rectangle_413065" data-name="Rectangle 413065" width="59.625" height="2.208" transform="translate(79.942 134.267)" fill="#e0e0e0"/>
        <rect id="Rectangle_413066" data-name="Rectangle 413066" width="30.917" height="2.208" transform="translate(146.192 134.267)" fill="#e0e0e0"/>
        <rect id="Rectangle_413067" data-name="Rectangle 413067" width="34.45" height="2.208" transform="translate(79.942 138.683)" fill="#e0e0e0"/>
        <rect id="Rectangle_413068" data-name="Rectangle 413068" width="9.717" height="2.208" transform="translate(146.192 138.683)" fill="#e0e0e0"/>
        <rect id="Rectangle_413069" data-name="Rectangle 413069" width="45.933" height="2.208" transform="translate(79.942 143.1)" fill="#e0e0e0"/>
        <rect id="Rectangle_413070" data-name="Rectangle 413070" width="19.433" height="2.208" transform="translate(146.192 143.1)" fill="#e0e0e0"/>
        <rect id="Rectangle_413071" data-name="Rectangle 413071" width="15.458" height="2.208" transform="translate(146.192 147.517)" fill="#e0e0e0"/>
        <rect id="Rectangle_413072" data-name="Rectangle 413072" width="27.825" height="2.208" transform="translate(79.942 147.517)" fill="#e0e0e0"/>
        <g id="Group_1209550" data-name="Group 1209550">
          <path id="Path_1248208" data-name="Path 1248208" d="M248.217,158.558H188.15a.883.883,0,0,1-.883-.883V119.692a.883.883,0,0,1,.883-.883h60.067a.883.883,0,0,1,.883.883v37.983A.883.883,0,0,1,248.217,158.558Z" fill="#dce775"/>
          <rect id="Rectangle_413073" data-name="Rectangle 413073" width="61.833" height="4.858" transform="translate(187.267 128.083)" fill="#424242"/>
          <path id="Path_1248209" data-name="Path 1248209" d="M245.125,144.867H191.242a.883.883,0,0,1-.883-.883v-7.067a.883.883,0,0,1,.883-.883h53.883a.883.883,0,0,1,.883.883v7.067A.883.883,0,0,1,245.125,144.867Z" fill="#f5f5f5"/>
          <path id="Path_1248210" data-name="Path 1248210" d="M200.075,155.025h-8.833a.883.883,0,0,1-.883-.883v-4.417a.883.883,0,0,1,.883-.883h8.833a.883.883,0,0,1,.883.883v4.417A.883.883,0,0,1,200.075,155.025Z" fill="#ffee58"/>
          <path id="Path_1248211" data-name="Path 1248211" d="M248.217,118.808H188.15a.883.883,0,0,0-.883.883v37.983a.883.883,0,0,0,.883.883l60.886-39.191A.882.882,0,0,0,248.217,118.808Z" fill="#fafafa" opacity="0.1"/>
        </g>
        <g id="Group_1209551" data-name="Group 1209551">
          <circle id="Ellipse_12658" data-name="Ellipse 12658" cx="15.9" cy="15.9" r="15.9" transform="translate(200.075 80.383)" fill="#fdd835"/>
          <path id="Path_1248212" data-name="Path 1248212" d="M215.975,80.383a15.9,15.9,0,0,0-11.243,27.143L227.218,85.04A15.85,15.85,0,0,0,215.975,80.383Z" fill="#fff" opacity="0.25"/>
          <circle id="Ellipse_12659" data-name="Ellipse 12659" cx="11.925" cy="11.925" r="11.925" transform="translate(204.05 84.358)" fill="#fbc02d"/>
          <circle id="Ellipse_12660" data-name="Ellipse 12660" cx="10.158" cy="10.158" r="10.158" transform="translate(205.817 86.125)" fill="#fdd835"/>
        </g>
        <g id="Group_1209553" data-name="Group 1209553">
          <rect id="Rectangle_413074" data-name="Rectangle 413074" width="48.583" height="58.742" transform="translate(20.317 97.608)" fill="#424242"/>
          <rect id="Rectangle_413075" data-name="Rectangle 413075" width="41.958" height="8.833" transform="translate(23.85 106)" fill="#81d4fa"/>
          <rect id="Rectangle_413076" data-name="Rectangle 413076" width="8.833" height="5.3" transform="translate(23.85 117.483)" fill="#ff7043"/>
          <rect id="Rectangle_413077" data-name="Rectangle 413077" width="8.833" height="5.3" transform="translate(34.892 117.483)" fill="#757575"/>
          <rect id="Rectangle_413078" data-name="Rectangle 413078" width="8.833" height="5.3" transform="translate(45.933 117.483)" fill="#757575"/>
          <rect id="Rectangle_413079" data-name="Rectangle 413079" width="8.833" height="5.3" transform="translate(56.975 117.483)" fill="#757575"/>
          <rect id="Rectangle_413080" data-name="Rectangle 413080" width="8.833" height="5.3" transform="translate(23.85 124.992)" fill="#757575"/>
          <rect id="Rectangle_413081" data-name="Rectangle 413081" width="8.833" height="5.3" transform="translate(34.892 124.992)" fill="#757575"/>
          <rect id="Rectangle_413082" data-name="Rectangle 413082" width="8.833" height="5.3" transform="translate(45.933 124.992)" fill="#757575"/>
          <rect id="Rectangle_413083" data-name="Rectangle 413083" width="8.833" height="5.3" transform="translate(56.975 124.992)" fill="#757575"/>
          <rect id="Rectangle_413084" data-name="Rectangle 413084" width="8.833" height="5.3" transform="translate(23.85 132.5)" fill="#757575"/>
          <rect id="Rectangle_413085" data-name="Rectangle 413085" width="8.833" height="5.3" transform="translate(34.892 132.5)" fill="#757575"/>
          <rect id="Rectangle_413086" data-name="Rectangle 413086" width="8.833" height="5.3" transform="translate(45.933 132.5)" fill="#757575"/>
          <rect id="Rectangle_413087" data-name="Rectangle 413087" width="8.833" height="5.3" transform="translate(23.85 140.008)" fill="#757575"/>
          <rect id="Rectangle_413088" data-name="Rectangle 413088" width="8.833" height="5.3" transform="translate(34.892 140.008)" fill="#757575"/>
          <rect id="Rectangle_413089" data-name="Rectangle 413089" width="8.833" height="5.3" transform="translate(45.933 140.008)" fill="#757575"/>
          <rect id="Rectangle_413090" data-name="Rectangle 413090" width="8.833" height="12.808" transform="translate(56.975 132.5)" fill="#dce775"/>
          <g id="Group_1209552" data-name="Group 1209552" opacity="0.25">
            <path id="Path_1248213" data-name="Path 1248213" d="M30.917,114.833H29.15L35.775,106h1.767Z" fill="#fafafa"/>
            <path id="Path_1248214" data-name="Path 1248214" d="M53,114.833H51.233L57.858,106h1.767Z" fill="#fafafa"/>
            <path id="Path_1248215" data-name="Path 1248215" d="M48.583,114.833H33.567L40.192,106H55.208Z" fill="#fafafa"/>
          </g>
        </g>
        <g id="Group_1209554" data-name="Group 1209554">
          <path id="Path_1248216" data-name="Path 1248216" d="M177.55,227.458h0a5.3,5.3,0,0,1-5.3-5.3v-7.067h10.6v7.067A5.3,5.3,0,0,1,177.55,227.458Z" fill="#ffc107"/>
          <path id="Path_1248217" data-name="Path 1248217" d="M177.108,107.325a32.683,32.683,0,1,0,32.683,32.683A32.683,32.683,0,0,0,177.108,107.325Zm0,57.858a25.175,25.175,0,1,1,25.175-25.175A25.175,25.175,0,0,1,177.108,165.183Z" fill="#424242"/>
          <circle id="Ellipse_12661" data-name="Ellipse 12661" cx="25.175" cy="25.175" r="25.175" transform="translate(151.933 114.833)" fill="#90caf9" opacity="0.2"/>
          <circle id="Ellipse_12662" data-name="Ellipse 12662" cx="6.625" cy="6.625" r="6.625" transform="translate(179.758 124.55)" fill="#fff" opacity="0.25"/>
          <rect id="Rectangle_413091" data-name="Rectangle 413091" width="5.3" height="7.067" transform="translate(174.9 172.692)" fill="#ffc107"/>
          <rect id="Rectangle_413092" data-name="Rectangle 413092" width="15.017" height="43.725" transform="translate(170.042 179.758)" fill="#f4511e"/>
          <rect id="Rectangle_413093" data-name="Rectangle 413093" width="3.975" height="43.725" transform="translate(181.083 179.758)" fill="#e64a19"/>
          <path id="Path_1248218" data-name="Path 1248218" d="M185.279,183.733H169.821a1.988,1.988,0,0,1-1.988-1.988h0a1.988,1.988,0,0,1,1.988-1.988h15.458a1.988,1.988,0,0,1,1.988,1.988h0A1.988,1.988,0,0,1,185.279,183.733Z" fill="#424242"/>
          <path id="Path_1248219" data-name="Path 1248219" d="M185.279,223.483H169.821a1.988,1.988,0,0,1-1.988-1.988h0a1.988,1.988,0,0,1,1.988-1.988h15.458a1.988,1.988,0,0,1,1.988,1.988h0A1.988,1.988,0,0,1,185.279,223.483Z" fill="#424242"/>
        </g>
      </g>
    </g>
  </g>
</svg>
