<svg xmlns="http://www.w3.org/2000/svg" xmlns:xlink="http://www.w3.org/1999/xlink" width="88.83" height="85.055" viewBox="0 0 88.83 85.055">
  <defs>
    <clipPath id="clip-path">
      <rect id="Rectangle_413305" data-name="Rectangle 413305" width="78" height="78" transform="translate(766.415 9304.531)" fill="#fff" stroke="#707070" stroke-width="1"/>
    </clipPath>
  </defs>
  <g id="Group_1210017" data-name="Group 1210017" transform="translate(-755.585 -9297.477)">
    <g id="Rectangle_413304" data-name="Rectangle 413304" transform="translate(755.585 9297.477)" fill="#fd9826" stroke="#af6a1a" stroke-width="3">
      <rect width="70" height="70" rx="10" stroke="none"/>
      <rect x="1.5" y="1.5" width="67" height="67" rx="8.5" fill="none"/>
    </g>
    <g id="Mask_Group_1099392" data-name="Mask Group 1099392" clip-path="url(#clip-path)">
      <g id="alarm-marketing-seo-alart-notification" transform="translate(763.813 9301.955)">
        <path id="Path_1249941" data-name="Path 1249941" d="M66.3,68.9H3.9l7.8-7.8V37.7a23.4,23.4,0,0,1,46.8,0V61.1Z" fill="#57a4ff"/>
        <path id="Path_1249942" data-name="Path 1249942" d="M66.3,68.9H3.9l5.2-5.2H54.6L52,61.1V46.4a19.28,19.28,0,0,1-8.359-3.939L39,44.2l1.2-5.382a19.407,19.407,0,0,1-2.054-19.566q.39-.858.858-1.677a5.766,5.766,0,0,1,.377-.6,24.766,24.766,0,0,0-3.835-1.625,21.863,21.863,0,0,0-3.705-.819A23.165,23.165,0,0,1,40.782,15c.429.1.845.221,1.261.351A23.251,23.251,0,0,1,58.5,37.7V61.1Z" fill="#006df0"/>
        <path id="Path_1249943" data-name="Path 1249943" d="M79.3,23.4A19.507,19.507,0,0,1,59.8,42.9c-.442,0-.871-.013-1.3-.052a19.347,19.347,0,0,1-10.959-4.29L42.9,40.3l1.2-5.382a19.407,19.407,0,0,1-2.054-19.566q.39-.858.858-1.677A19.5,19.5,0,0,1,79.3,23.4Z" fill="#ff7956"/>
        <path id="Path_1249944" data-name="Path 1249944" d="M79.3,23.4A19.507,19.507,0,0,1,59.8,42.9c-.442,0-.871-.013-1.3-.052a19.347,19.347,0,0,1-10.959-4.29L42.9,40.3l1.2-5.382c-.13-.182-.26-.351-.364-.533A19.2,19.2,0,0,0,53.3,37.649c.429.039.858.052,1.3.052A19.51,19.51,0,0,0,70.748,7.254,19.521,19.521,0,0,1,79.3,23.4Z" fill="#ff5023"/>
        <path id="Path_1249945" data-name="Path 1249945" d="M24.7,68.9H45.5a10.4,10.4,0,0,1-20.8,0Z" fill="#ff7956"/>
        <path id="Path_1249946" data-name="Path 1249946" d="M42.9,11.7v1.976q-.468.819-.858,1.677a23.4,23.4,0,0,0-14.742.286V11.7a7.8,7.8,0,0,1,15.6,0Z" fill="#ff7956"/>
        <path id="Path_1249947" data-name="Path 1249947" d="M45.5,68.9A10.4,10.4,0,0,1,35.1,79.3a10.71,10.71,0,0,1-2.6-.325A10.408,10.408,0,0,0,40.3,68.9Z" fill="#ff5023"/>
        <path id="Path_1249948" data-name="Path 1249948" d="M42.9,11.7v1.976q-.468.819-.858,1.677a22.788,22.788,0,0,0-4.732-.949c.117-.247.26-.494.39-.728V11.7a7.727,7.727,0,0,0-2.288-5.512A7.5,7.5,0,0,0,32.5,4.355,7.54,7.54,0,0,1,35.1,3.9,7.812,7.812,0,0,1,42.9,11.7Z" fill="#ff5023"/>
        <path id="Path_1249949" data-name="Path 1249949" d="M44.916,57.345A2.592,2.592,0,0,1,42.589,61.1H27.613a2.592,2.592,0,0,1-2.327-3.757l7.488-14.989a2.6,2.6,0,0,1,4.654,0Z" fill="#ff7956"/>
        <path id="Path_1249950" data-name="Path 1249950" d="M42.589,61.1H27.613A2.61,2.61,0,0,1,25,58.5H37.389a2.592,2.592,0,0,0,2.327-3.757l-6.5-13.026a2.6,2.6,0,0,1,4.212.637l7.488,14.989A2.592,2.592,0,0,1,42.589,61.1Z" fill="#ff5023"/>
        <circle id="Ellipse_12715" data-name="Ellipse 12715" cx="13" cy="13" r="13" transform="translate(46.801 10.4)" fill="#ffde55"/>
        <path id="Path_1249951" data-name="Path 1249951" d="M72.8,23.4a13,13,0,0,1-24.415,6.214A12.87,12.87,0,0,0,54.6,31.2a13,13,0,0,0,13-13,12.871,12.871,0,0,0-1.586-6.214A12.98,12.98,0,0,1,72.8,23.4Z" fill="#ebbf00"/>
        <path id="Path_1249952" data-name="Path 1249952" d="M38.59,41.772a3.9,3.9,0,0,0-6.979,0L24.12,56.757A3.9,3.9,0,0,0,27.608,62.4H42.594a3.9,3.9,0,0,0,3.488-5.645ZM43.7,59.184a1.284,1.284,0,0,1-1.106.618H27.608a1.3,1.3,0,0,1-1.162-1.881l7.492-14.987a1.3,1.3,0,0,1,2.327,0l7.492,14.987A1.281,1.281,0,0,1,43.7,59.184Z"/>
        <rect id="Rectangle_413308" data-name="Rectangle 413308" width="2.6" height="2.6" transform="translate(33.801 54.602)"/>
        <rect id="Rectangle_413309" data-name="Rectangle 413309" width="2.6" height="5.2" transform="translate(33.801 46.801)"/>
        <path id="Path_1249953" data-name="Path 1249953" d="M80.6,23.4A20.784,20.784,0,0,0,44.019,9.88a8.86,8.86,0,0,0-2.483-4.6A8.962,8.962,0,0,0,35.1,2.6,9.111,9.111,0,0,0,26,11.7v3.055A24.738,24.738,0,0,0,10.4,37.7V60.569l-7.423,7.41A1.3,1.3,0,0,0,2.7,69.4a1.283,1.283,0,0,0,1.2.806H23.479a11.7,11.7,0,0,0,23.245,0H66.3a1.283,1.283,0,0,0,1.2-.806,1.3,1.3,0,0,0-.273-1.417L59.8,60.569V44.2A20.828,20.828,0,0,0,80.6,23.4Zm-52-11.7a6.5,6.5,0,1,1,13,0v1.651c-.091.156-.156.312-.247.468A24.137,24.137,0,0,0,28.6,13.9ZM35.1,78a9.1,9.1,0,0,1-9-7.8H44.1a9.1,9.1,0,0,1-9,7.8ZM63.169,67.6H7.033l5.59-5.577A1.343,1.343,0,0,0,13,61.1V37.7A22.132,22.132,0,0,1,35.1,15.6a22.409,22.409,0,0,1,5.2.624A20.847,20.847,0,0,0,39,23.4a20.554,20.554,0,0,0,3.705,11.8l-1.079,4.81a1.312,1.312,0,0,0,.416,1.261,1.284,1.284,0,0,0,1.313.247l3.965-1.5a20.868,20.868,0,0,0,9.88,3.991V61.1a1.343,1.343,0,0,0,.377.923ZM48.361,37.545a1.334,1.334,0,0,0-.819-.286,1.4,1.4,0,0,0-.455.078l-2.392.91.676-3.042a1.277,1.277,0,0,0-.234-1.053,18.151,18.151,0,1,1,3.224,3.393Z"/>
        <path id="Path_1249954" data-name="Path 1249954" d="M58.5,32.5h2.6V29.9a2.6,2.6,0,0,0,2.6-2.6V24.7a2.6,2.6,0,0,0-2.6-2.6H58.5V19.5h5.2V16.9H61.1V14.3H58.5v2.6a2.6,2.6,0,0,0-2.6,2.6v2.6a2.6,2.6,0,0,0,2.6,2.6h2.6v2.6H55.9v2.6h2.6Z"/>
        <path id="Path_1249955" data-name="Path 1249955" d="M59.8,37.7A14.3,14.3,0,1,0,45.5,23.4,14.3,14.3,0,0,0,59.8,37.7Zm0-26A11.7,11.7,0,1,1,48.1,23.4,11.7,11.7,0,0,1,59.8,11.7Z"/>
      </g>
    </g>
  </g>
</svg>
