<svg xmlns="http://www.w3.org/2000/svg" xmlns:xlink="http://www.w3.org/1999/xlink" width="86.846" height="83.141" viewBox="0 0 86.846 83.141">
  <defs>
    <clipPath id="clip-path">
      <rect id="Rectangle_413329" data-name="Rectangle 413329" width="73.833" height="73.833" transform="translate(13886.463 -9382.079)" fill="#fff" stroke="#707070" stroke-width="1"/>
    </clipPath>
  </defs>
  <g id="Group_1210061" data-name="Group 1210061" transform="translate(-13873.45 9391.387)">
    <g id="Rectangle_413328" data-name="Rectangle 413328" transform="translate(13873.45 -9391.387)" fill="#fd9826" stroke="#af6a1a" stroke-width="3">
      <rect width="70" height="70" rx="10" stroke="none"/>
      <rect x="1.5" y="1.5" width="67" height="67" rx="8.5" fill="none"/>
    </g>
    <g id="Mask_Group_1099404" data-name="Mask Group 1099404" clip-path="url(#clip-path)">
      <g id="root-cause_12056754" transform="translate(13888.441 -9382.664)">
        <path id="Path_1250129" data-name="Path 1250129" d="M43.007,1.6a13.681,13.681,0,0,1,11.764,20.66,2.32,2.32,0,0,0,.357,2.856l2.443,2.443-2.283,2.283L52.845,27.4a2.32,2.32,0,0,0-2.856-.357A13.679,13.679,0,1,1,43.007,1.6Z" fill="#fdb0a0" fill-rule="evenodd"/>
        <path id="Path_1250130" data-name="Path 1250130" d="M56.626,28.508l-1.338,1.338L52.845,27.4a2.32,2.32,0,0,0-2.856-.357A13.68,13.68,0,1,1,37.27,2.863a13.662,13.662,0,0,1,4.388-.719c10.679,0,17.273,10.932,11.38,20.276a2.32,2.32,0,0,0,.357,2.856l3.232,3.232Z" fill="#ffcec0" fill-rule="evenodd"/>
        <path id="Path_1250131" data-name="Path 1250131" d="M66.418,34.562l-7.954-7.954a1.412,1.412,0,0,0-1.993,0l-2.138,2.138a1.412,1.412,0,0,0,0,1.993l7.954,7.954a2.922,2.922,0,1,0,4.132-4.132Z" fill="#a34f41" fill-rule="evenodd"/>
        <path id="Path_1250132" data-name="Path 1250132" d="M55.4,27.677l-1.069,1.069h0a1.412,1.412,0,0,0,0,1.993l7.954,7.954a2.933,2.933,0,0,0,3.526.464,2.933,2.933,0,0,0-.464-3.526l-7.954-7.954a1.412,1.412,0,0,0-1.993,0Z" fill="#c86f5c" fill-rule="evenodd"/>
        <circle id="Ellipse_12727" data-name="Ellipse 12727" cx="9.675" cy="9.675" r="9.675" transform="translate(30.731 23.285) rotate(-80.792)" fill="#fdb0a0"/>
        <circle id="Ellipse_12728" data-name="Ellipse 12728" cx="9.675" cy="9.675" r="9.675" transform="translate(31.899 23.285) rotate(-80.792)" fill="#f3f3ff"/>
        <circle id="Ellipse_12729" data-name="Ellipse 12729" cx="14.847" cy="14.847" r="14.847" transform="translate(-1.858 52.787) rotate(-45)" fill="#f23353"/>
        <g id="Group_1210060" data-name="Group 1210060">
          <path id="Path_1250133" data-name="Path 1250133" d="M17.719,67.571a14.849,14.849,0,0,1,0-29.561,14.849,14.849,0,0,1,0,29.561Z" fill="#ff5471" fill-rule="evenodd"/>
          <path id="Path_1250134" data-name="Path 1250134" d="M12.781,47.495h9L26,52.791l-4.211,5.3h-9l4.211-5.3Z" fill="#4eb1fc" fill-rule="evenodd"/>
          <path id="Path_1250135" data-name="Path 1250135" d="M27.685,47.495h9l4.211,5.3-4.211,5.3h-9l4.211-5.3Z" fill="#78eaff" fill-rule="evenodd"/>
          <path id="Path_1250136" data-name="Path 1250136" d="M42.59,47.495h9l4.211,5.3-4.211,5.3h-9l4.211-5.3Z" fill="#a8e304" fill-rule="evenodd"/>
          <path id="Path_1250137" data-name="Path 1250137" d="M57.494,47.495h9l4.211,5.3-4.211,5.3h-9l4.211-5.3Z" fill="#fcdb35" fill-rule="evenodd"/>
          <path id="Path_1250138" data-name="Path 1250138" d="M43.009,11.431a8.859,8.859,0,0,1,7.315,3.853,8.87,8.87,0,0,1-14.63,0,8.859,8.859,0,0,1,7.315-3.853Z" fill="#2a92fa" fill-rule="evenodd"/>
          <path id="Path_1250139" data-name="Path 1250139" d="M39.891,18.574a8.9,8.9,0,0,1-4.2-3.289A8.9,8.9,0,0,1,39.891,12a9.88,9.88,0,0,1,1.834-.171,9.176,9.176,0,0,1,7.315,3.46,9.176,9.176,0,0,1-7.315,3.46A9.868,9.868,0,0,1,39.891,18.574Z" fill="#4eb1fc" fill-rule="evenodd"/>
        </g>
        <circle id="Ellipse_12730" data-name="Ellipse 12730" cx="2.394" cy="2.394" r="2.394" transform="translate(39.617 15.288) rotate(-45)" fill="#b6dbff"/>
        <path id="Path_1250140" data-name="Path 1250140" d="M43.332,12.912a2.395,2.395,0,0,1,0,4.746,2.395,2.395,0,0,1,0-4.746Z" fill="#f3f3ff" fill-rule="evenodd"/>
        <circle id="Ellipse_12731" data-name="Ellipse 12731" cx="9.266" cy="9.266" r="9.266" transform="translate(8.048 37.806) rotate(-77.117)" fill="#fcdb35"/>
        <path id="Path_1250141" data-name="Path 1250141" d="M17.719,40.015a9.266,9.266,0,0,1,0-18.31,9.266,9.266,0,0,1,0,18.31Z" fill="#ffeb87" fill-rule="evenodd"/>
        <path id="Path_1250142" data-name="Path 1250142" d="M63.916,47.495H66.5l4.211,5.3-4.211,5.3H63.916l4.211-5.3Z" fill="#fdc72e" fill-rule="evenodd"/>
        <path id="Path_1250143" data-name="Path 1250143" d="M49.011,47.495h2.582l4.211,5.3-4.211,5.3H49.011l4.211-5.3Z" fill="#99d100" fill-rule="evenodd"/>
        <path id="Path_1250144" data-name="Path 1250144" d="M34.107,47.495h2.582l4.211,5.3-4.211,5.3H34.107l4.211-5.3Z" fill="#2dcffc" fill-rule="evenodd"/>
        <path id="Path_1250145" data-name="Path 1250145" d="M19.2,47.495h2.582L26,52.791l-4.211,5.3H19.2l4.211-5.3Z" fill="#2a92fa" fill-rule="evenodd"/>
        <circle id="Ellipse_12732" data-name="Ellipse 12732" cx="3.461" cy="3.461" r="3.461" transform="translate(60.64 65.438)" fill="#f23353"/>
        <path id="Path_1250146" data-name="Path 1250146" d="M63,65.617a3.462,3.462,0,0,0,0,6.565,3.462,3.462,0,0,0,0-6.565Z" fill="#ff5471" fill-rule="evenodd"/>
        <circle id="Ellipse_12733" data-name="Ellipse 12733" cx="3.461" cy="3.461" r="3.461" transform="translate(45.736 33.223)" fill="#f23353"/>
        <path id="Path_1250147" data-name="Path 1250147" d="M48.1,39.966a3.462,3.462,0,0,1,0-6.565,3.462,3.462,0,0,1,0,6.565Z" fill="#ff5471" fill-rule="evenodd"/>
        <circle id="Ellipse_12734" data-name="Ellipse 12734" cx="3.461" cy="3.461" r="3.461" transform="translate(30.832 66.47)" fill="#f23353"/>
        <path id="Path_1250148" data-name="Path 1250148" d="M33.194,66.648a3.462,3.462,0,0,0,0,6.565,3.462,3.462,0,0,0,0-6.565Z" fill="#ff5471" fill-rule="evenodd"/>
        <path id="Path_1250149" data-name="Path 1250149" d="M20.165,35.451v.226a1.025,1.025,0,0,1-2.051,0v-.226a1.025,1.025,0,0,1,2.051,0ZM15.753,27.99a3.431,3.431,0,0,1,3.392-2.973,3.492,3.492,0,0,1,2.577,1.1,3.319,3.319,0,0,1,.595,3.425A5.23,5.23,0,0,1,21.108,31.2c-.135.14-.262.273-.366.392a1.955,1.955,0,0,0-.577,1.4,1.025,1.025,0,0,1-2.051,0,3.977,3.977,0,0,1,1.079-2.741c.139-.159.29-.317.437-.47a3.909,3.909,0,0,0,.774-.968,1.276,1.276,0,0,0-.192-1.3,1.454,1.454,0,0,0-1.066-.439,1.375,1.375,0,0,0-1.359,1.19,1.025,1.025,0,1,1-2.033-.268ZM34.292,72.368a2.435,2.435,0,1,1,2.435-2.436A2.439,2.439,0,0,1,34.292,72.368ZM19.147,66.614A13.825,13.825,0,0,1,14.2,39.88a10.274,10.274,0,0,0,9.894,0,13.786,13.786,0,0,1,7.351,6.589H27.684a1.026,1.026,0,0,0-.8,1.664l3.7,4.658-3.7,4.657a1.027,1.027,0,0,0,.8,1.665h3.759a13.749,13.749,0,0,1-12.3,7.5ZM10.906,30.86a8.24,8.24,0,1,0,8.241-8.239,8.249,8.249,0,0,0-8.241,8.239ZM39.589,52.791l-3.4-4.271H29.81L32.7,52.153a1.023,1.023,0,0,1,0,1.275L29.81,57.062h3.457V55.813a1.026,1.026,0,0,1,2.051,0v1.248h.876l3.4-4.271ZM35.318,65.564V59.113h1.37a1.018,1.018,0,0,0,.8-.389l4.212-5.3a1.024,1.024,0,0,0,0-1.275l-4.212-5.3a1.025,1.025,0,0,0-.8-.389H33.711a15.834,15.834,0,0,0-7.668-7.98,10.291,10.291,0,1,0-13.795,0,15.877,15.877,0,1,0,21.018,21.56v5.515a4.486,4.486,0,1,0,2.051,0Zm1.66-50.278a7.852,7.852,0,0,1,3.653-2.457,3.412,3.412,0,0,0,0,4.912A7.856,7.856,0,0,1,36.978,15.285Zm12.061,0a7.856,7.856,0,0,1-3.654,2.456,3.412,3.412,0,0,0,0-4.912A7.85,7.85,0,0,1,49.039,15.285Zm-6.03-1.37a1.369,1.369,0,1,1-1.37,1.37A1.371,1.371,0,0,1,43.009,13.916Zm8.159,1.95a1.025,1.025,0,0,0,0-1.161,9.895,9.895,0,0,0-16.32,0,1.023,1.023,0,0,0,0,1.161,9.895,9.895,0,0,0,16.32,0ZM43.009,6.641a8.644,8.644,0,1,1-8.645,8.644,8.653,8.653,0,0,1,8.645-8.644Zm0,19.338A10.695,10.695,0,1,1,53.7,15.285,10.707,10.707,0,0,1,43.009,25.98Zm0-23.343a12.651,12.651,0,0,1,10.879,19.1,3.326,3.326,0,0,0,.513,4.1l.687.687-.832.831-.685-.686a3.325,3.325,0,0,0-4.1-.514A12.65,12.65,0,1,1,43.008,2.636Zm14.468,24.57a.39.39,0,0,0-.278.115l-2.153,2.153a.4.4,0,0,0,0,.557l7.925,7.925a1.916,1.916,0,0,0,2.711-2.709l-7.925-7.925a.392.392,0,0,0-.278-.115ZM43.009,29.984a14.682,14.682,0,0,0,7.5-2.057,1.3,1.3,0,0,1,1.607.2l.879.88a2.446,2.446,0,0,0,.6,2.474l7.927,7.925A3.966,3.966,0,0,0,67.13,33.8L59.2,25.871a2.445,2.445,0,0,0-2.474-.6l-.88-.88a1.3,1.3,0,0,1-.2-1.606,14.7,14.7,0,1,0-12.641,7.195ZM59.618,57.062l2.889-3.633a1.023,1.023,0,0,0,0-1.275L59.618,48.52H66l3.4,4.271L66,57.062h-.876V54.781a1.026,1.026,0,0,0-2.051,0v2.281H59.617ZM66.535,68.9A2.435,2.435,0,1,1,64.1,66.463,2.436,2.436,0,0,1,66.535,68.9ZM66.5,59.113a1.018,1.018,0,0,0,.8-.389l4.211-5.3a1.023,1.023,0,0,0,0-1.275l-4.211-5.3a1.025,1.025,0,0,0-.8-.389h-9a1.026,1.026,0,0,0-.8,1.664l3.7,4.658-3.7,4.657a1.027,1.027,0,0,0,.8,1.665h5.583v5.42a4.485,4.485,0,1,0,2.051,0v-5.42ZM51.1,57.062H44.714L47.6,53.428a1.024,1.024,0,0,0,0-1.275L44.714,48.52h3.457V50.8a1.026,1.026,0,0,0,2.051,0V48.52H51.1l3.4,4.271-3.4,4.271ZM46.76,36.684A2.436,2.436,0,1,1,49.2,39.119,2.438,2.438,0,0,1,46.76,36.684Zm9.846,15.469a1.023,1.023,0,0,1,0,1.275l-4.211,5.3a1.021,1.021,0,0,1-.8.389h-9a1.027,1.027,0,0,1-.8-1.665l3.7-4.657-3.7-4.658a1.026,1.026,0,0,1,.8-1.664h5.583V41.05a4.486,4.486,0,1,1,2.051,0v5.419h1.37a1.027,1.027,0,0,1,.8.389ZM21.288,57.062l3.4-4.271-3.4-4.271H14.906l2.889,3.633a1.026,1.026,0,0,1,0,1.275l-2.889,3.633h6.382Zm5.51-4.909-4.212-5.3a1.025,1.025,0,0,0-.8-.389h-9a1.026,1.026,0,0,0-.8,1.664l3.7,4.658-3.7,4.657a1.027,1.027,0,0,0,.8,1.665h9a1.022,1.022,0,0,0,.8-.387l4.212-5.3a1.023,1.023,0,0,0,0-1.275Z" fill-rule="evenodd"/>
      </g>
    </g>
  </g>
</svg>
