<svg xmlns="http://www.w3.org/2000/svg" xmlns:xlink="http://www.w3.org/1999/xlink" width="88.83" height="85.054" viewBox="0 0 88.83 85.054">
  <defs>
    <clipPath id="clip-path">
      <rect id="Rectangle_413293" data-name="Rectangle 413293" width="78" height="78" transform="translate(13517.466 -3471.36)" fill="#fff" stroke="#707070" stroke-width="1"/>
    </clipPath>
  </defs>
  <g id="Group_1209996" data-name="Group 1209996" transform="translate(-13506.636 3478.414)">
    <g id="Rectangle_413292" data-name="Rectangle 413292" transform="translate(13506.636 -3478.414)" fill="#fd9826" stroke="#af6a1a" stroke-width="3">
      <rect width="70" height="70" rx="10" stroke="none"/>
      <rect x="1.5" y="1.5" width="67" height="67" rx="8.5" fill="none"/>
    </g>
    <g id="Mask_Group_1099383" data-name="Mask Group 1099383" clip-path="url(#clip-path)">
      <g id="cashflow_14699771" transform="translate(13517.545 -3471.36)">
        <g id="Group_1209937" data-name="Group 1209937">
          <path id="Path_1249772" data-name="Path 1249772" d="M72.8,76.857H24.546a2.227,2.227,0,0,1-2.227-2.227V6.9a2.227,2.227,0,0,1,2.227-2.227H72.8A2.227,2.227,0,0,1,75.027,6.9V74.63A2.227,2.227,0,0,1,72.8,76.857Z" fill="#fff9df"/>
          <path id="Path_1249773" data-name="Path 1249773" d="M75.027,6.9V74.63A2.226,2.226,0,0,1,72.8,76.857H68.227a2.226,2.226,0,0,0,2.227-2.227V6.9a2.227,2.227,0,0,0-2.227-2.227H72.8A2.227,2.227,0,0,1,75.027,6.9Z" fill="#fff6ce"/>
          <g id="Group_1209932" data-name="Group 1209932">
            <circle id="Ellipse_12704" data-name="Ellipse 12704" cx="9.881" cy="9.881" r="9.881" transform="translate(13.523 48.287)" fill="#ffe177"/>
          </g>
          <g id="Group_1209933" data-name="Group 1209933">
            <path id="Path_1249774" data-name="Path 1249774" d="M43.31,31.947h0a2.361,2.361,0,0,1-2.361-2.361V14.08a2.361,2.361,0,0,1,2.361-2.361h0a2.361,2.361,0,0,1,2.361,2.361V29.586A2.361,2.361,0,0,1,43.31,31.947Z" fill="#8ac9fe"/>
            <path id="Path_1249775" data-name="Path 1249775" d="M53.849,31.947h0a2.361,2.361,0,0,1-2.361-2.361V23.959A2.361,2.361,0,0,1,53.849,21.6h0a2.361,2.361,0,0,1,2.361,2.361v5.627A2.361,2.361,0,0,1,53.849,31.947Z" fill="#978ecb"/>
            <path id="Path_1249776" data-name="Path 1249776" d="M32.959,31.947h0A2.361,2.361,0,0,1,30.6,29.586V18.733a2.361,2.361,0,0,1,2.361-2.361h0a2.361,2.361,0,0,1,2.361,2.361V29.586A2.361,2.361,0,0,1,32.959,31.947Z" fill="#fe76a8"/>
            <path id="Path_1249777" data-name="Path 1249777" d="M64.387,31.947h0a2.361,2.361,0,0,1-2.361-2.361V18.733a2.361,2.361,0,0,1,2.361-2.361h0a2.361,2.361,0,0,1,2.361,2.361V29.586A2.361,2.361,0,0,1,64.387,31.947Z" fill="#e19974"/>
          </g>
          <g id="Group_1209934" data-name="Group 1209934">
            <path id="Path_1249778" data-name="Path 1249778" d="M43.683,66.5s-2.424-4.155-2.466-4.212a2.046,2.046,0,0,0-1.911-1.3h0a2.044,2.044,0,0,0-1.96,1.434,14.578,14.578,0,0,1-27.883,0A2.044,2.044,0,0,0,7.5,60.992h0a2.057,2.057,0,0,0-1.966,2.661,18.686,18.686,0,0,0,34.011,3.922l.581,1a2.057,2.057,0,0,0,3.555-2.07Z" fill="#60b7ff"/>
            <path id="Path_1249779" data-name="Path 1249779" d="M5.966,54.526a2.04,2.04,0,0,0,1.565.726h0a2.044,2.044,0,0,0,1.956-1.423,14.578,14.578,0,0,1,27.834,0,2.044,2.044,0,0,0,1.956,1.423h0a2.057,2.057,0,0,0,1.964-2.67A18.684,18.684,0,0,0,7.267,48.753l-.459-.789a2.057,2.057,0,0,0-3.555,2.07S5.827,54.394,5.966,54.526Z" fill="#60b7ff"/>
          </g>
          <g id="Group_1209935" data-name="Group 1209935">
            <path id="Path_1249780" data-name="Path 1249780" d="M33.284,58.168a9.887,9.887,0,0,1-12.7,9.471,9.884,9.884,0,0,0,0-18.944,9.887,9.887,0,0,1,12.7,9.473Z" fill="#ffd15b"/>
          </g>
          <g id="Group_1209936" data-name="Group 1209936">
            <path id="Path_1249781" data-name="Path 1249781" d="M42.94,69.316a2.058,2.058,0,0,1-2.812-.742l-.58-1a18.705,18.705,0,0,1-18.469,9.139c6.033-.829,11.324-5.171,14.24-10.155a14.56,14.56,0,0,0,2.028-4.133A2.044,2.044,0,0,1,39.3,60.992h0a2.045,2.045,0,0,1,1.91,1.3c.041.058,2.466,4.212,2.466,4.212A2.056,2.056,0,0,1,42.94,69.316Z" fill="#26a6fe"/>
            <path id="Path_1249782" data-name="Path 1249782" d="M3.762,47.38c-.251.353-.491.718-.718,1.089A2.055,2.055,0,0,1,3.762,47.38Z" fill="#26a6fe"/>
            <path id="Path_1249783" data-name="Path 1249783" d="M41.336,53.2a2.057,2.057,0,0,1-4.014.631,14.275,14.275,0,0,0-.53-1.427A18.741,18.741,0,0,0,21.2,39.6a19.09,19.09,0,0,1,2.2-.128,18.724,18.724,0,0,1,17.838,13.1A2.087,2.087,0,0,1,41.336,53.2Z" fill="#26a6fe"/>
          </g>
        </g>
        <g id="Group_1209947" data-name="Group 1209947">
          <g id="Group_1209939" data-name="Group 1209939">
            <circle id="Ellipse_12705" data-name="Ellipse 12705" cx="9.881" cy="9.881" r="9.881" transform="translate(13.523 48.287)" fill="none" stroke="#000" stroke-linecap="round" stroke-linejoin="round" stroke-miterlimit="10" stroke-width="2.285"/>
            <g id="Group_1209938" data-name="Group 1209938">
              <path id="Path_1249784" data-name="Path 1249784" d="M25.043,54.534a2.524,2.524,0,0,0-2.371-.427,1.766,1.766,0,0,0-.751,2.908,8.518,8.518,0,0,0,2.335,1.106c2.338.826,1.474,4.124-.9,4.14a3.182,3.182,0,0,1-2.177-.586" fill="none" stroke="#000" stroke-linecap="round" stroke-linejoin="round" stroke-miterlimit="10" stroke-width="2.285"/>
              <line id="Line_684" data-name="Line 684" y1="1.204" transform="translate(23.352 62.26)" fill="none" stroke="#000" stroke-linecap="round" stroke-linejoin="round" stroke-miterlimit="10" stroke-width="2.285"/>
              <line id="Line_685" data-name="Line 685" y1="1.116" transform="translate(23.352 52.871)" fill="none" stroke="#000" stroke-linecap="round" stroke-linejoin="round" stroke-miterlimit="10" stroke-width="2.285"/>
            </g>
          </g>
          <g id="Group_1209940" data-name="Group 1209940">
            <line id="Line_686" data-name="Line 686" x1="17.536" transform="translate(49.213 45.06)" fill="none" stroke="#000" stroke-linecap="round" stroke-linejoin="round" stroke-miterlimit="10" stroke-width="2.285"/>
            <line id="Line_687" data-name="Line 687" x1="17.536" transform="translate(49.213 49.189)" fill="none" stroke="#000" stroke-linecap="round" stroke-linejoin="round" stroke-miterlimit="10" stroke-width="2.285"/>
            <line id="Line_688" data-name="Line 688" x1="17.536" transform="translate(49.213 53.318)" fill="none" stroke="#000" stroke-linecap="round" stroke-linejoin="round" stroke-miterlimit="10" stroke-width="2.285"/>
          </g>
          <g id="Group_1209941" data-name="Group 1209941">
            <line id="Line_689" data-name="Line 689" x1="17.536" transform="translate(49.213 61.693)" fill="none" stroke="#000" stroke-linecap="round" stroke-linejoin="round" stroke-miterlimit="10" stroke-width="2.285"/>
            <line id="Line_690" data-name="Line 690" x1="5.196" transform="translate(61.553 65.822)" fill="none" stroke="#000" stroke-linecap="round" stroke-linejoin="round" stroke-miterlimit="10" stroke-width="2.285"/>
          </g>
          <line id="Line_691" data-name="Line 691" y1="4.715" transform="translate(22.319 43.631)" fill="none" stroke="#000" stroke-linecap="round" stroke-linejoin="round" stroke-miterlimit="10" stroke-width="2.285"/>
          <line id="Line_692" data-name="Line 692" y1="4.715" transform="translate(22.319 67.988)" fill="none" stroke="#000" stroke-linecap="round" stroke-linejoin="round" stroke-miterlimit="10" stroke-width="2.285"/>
          <path id="Path_1249785" data-name="Path 1249785" d="M22.319,34.13V6.9a2.228,2.228,0,0,1,2.227-2.227H72.8A2.227,2.227,0,0,1,75.027,6.9V74.63A2.226,2.226,0,0,1,72.8,76.857H24.546a2.023,2.023,0,0,1-.289-.02" fill="none" stroke="#000" stroke-linecap="round" stroke-linejoin="round" stroke-miterlimit="10" stroke-width="2.285"/>
          <g id="Group_1209942" data-name="Group 1209942">
            <path id="Path_1249786" data-name="Path 1249786" d="M45.671,21.15v8.436a2.361,2.361,0,0,1-2.361,2.361h0a2.361,2.361,0,0,1-2.361-2.361V14.08a2.361,2.361,0,0,1,2.361-2.361h0a2.361,2.361,0,0,1,2.361,2.361v1.707" fill="none" stroke="#000" stroke-linecap="round" stroke-linejoin="round" stroke-miterlimit="10" stroke-width="2.285"/>
            <path id="Path_1249787" data-name="Path 1249787" d="M53.849,31.947h0a2.361,2.361,0,0,1-2.361-2.361V23.959A2.361,2.361,0,0,1,53.849,21.6h0a2.361,2.361,0,0,1,2.361,2.361v5.627A2.361,2.361,0,0,1,53.849,31.947Z" fill="none" stroke="#000" stroke-linecap="round" stroke-linejoin="round" stroke-miterlimit="10" stroke-width="2.285"/>
            <path id="Path_1249788" data-name="Path 1249788" d="M32.959,31.947h0A2.361,2.361,0,0,1,30.6,29.586V18.733a2.361,2.361,0,0,1,2.361-2.361h0a2.361,2.361,0,0,1,2.361,2.361V29.586A2.361,2.361,0,0,1,32.959,31.947Z" fill="none" stroke="#000" stroke-linecap="round" stroke-linejoin="round" stroke-miterlimit="10" stroke-width="2.285"/>
            <path id="Path_1249789" data-name="Path 1249789" d="M64.387,31.947h0a2.361,2.361,0,0,1-2.361-2.361V18.733a2.361,2.361,0,0,1,2.361-2.361h0a2.361,2.361,0,0,1,2.361,2.361V29.586A2.361,2.361,0,0,1,64.387,31.947Z" fill="none" stroke="#000" stroke-linecap="round" stroke-linejoin="round" stroke-miterlimit="10" stroke-width="2.285"/>
          </g>
          <line id="Line_693" data-name="Line 693" x1="36.304" transform="translate(30.521 36.493)" fill="none" stroke="#000" stroke-linecap="round" stroke-linejoin="round" stroke-miterlimit="10" stroke-width="2.285"/>
          <g id="Group_1209945" data-name="Group 1209945">
            <g id="Group_1209943" data-name="Group 1209943">
              <line id="Line_694" data-name="Line 694" y2="7.07" transform="translate(31.198 1.143)" fill="none" stroke="#000" stroke-linecap="round" stroke-linejoin="round" stroke-miterlimit="10" stroke-width="2.285"/>
              <line id="Line_695" data-name="Line 695" y2="7.07" transform="translate(36.66 1.143)" fill="none" stroke="#000" stroke-linecap="round" stroke-linejoin="round" stroke-miterlimit="10" stroke-width="2.285"/>
            </g>
            <g id="Group_1209944" data-name="Group 1209944">
              <line id="Line_696" data-name="Line 696" y2="7.07" transform="translate(60.687 1.143)" fill="none" stroke="#000" stroke-linecap="round" stroke-linejoin="round" stroke-miterlimit="10" stroke-width="2.285"/>
              <line id="Line_697" data-name="Line 697" y2="7.07" transform="translate(66.149 1.143)" fill="none" stroke="#000" stroke-linecap="round" stroke-linejoin="round" stroke-miterlimit="10" stroke-width="2.285"/>
            </g>
          </g>
          <g id="Group_1209946" data-name="Group 1209946">
            <path id="Path_1249790" data-name="Path 1249790" d="M43.683,66.5s-2.424-4.155-2.466-4.212a2.046,2.046,0,0,0-1.911-1.3h0a2.044,2.044,0,0,0-1.96,1.434,14.578,14.578,0,0,1-27.883,0A2.044,2.044,0,0,0,7.5,60.992h0a2.057,2.057,0,0,0-1.966,2.661,18.686,18.686,0,0,0,34.011,3.922l.581,1a2.057,2.057,0,0,0,3.555-2.07Z" fill="none" stroke="#000" stroke-linecap="round" stroke-linejoin="round" stroke-miterlimit="10" stroke-width="2.285"/>
            <path id="Path_1249791" data-name="Path 1249791" d="M5.966,54.526a2.04,2.04,0,0,0,1.565.726h0a2.044,2.044,0,0,0,1.956-1.423,14.578,14.578,0,0,1,27.834,0,2.044,2.044,0,0,0,1.956,1.423h0a2.057,2.057,0,0,0,1.964-2.67A18.684,18.684,0,0,0,7.267,48.753l-.459-.789a2.057,2.057,0,0,0-3.555,2.07S5.827,54.394,5.966,54.526Z" fill="none" stroke="#000" stroke-linecap="round" stroke-linejoin="round" stroke-miterlimit="10" stroke-width="2.285"/>
          </g>
        </g>
      </g>
    </g>
  </g>
</svg>
