<svg xmlns="http://www.w3.org/2000/svg" xmlns:xlink="http://www.w3.org/1999/xlink" width="88.83" height="85.055" viewBox="0 0 88.83 85.055">
  <defs>
    <clipPath id="clip-path">
      <rect id="Rectangle_413303" data-name="Rectangle 413303" width="78" height="78" transform="translate(397 9304.531)" fill="#fff" stroke="#707070" stroke-width="1"/>
    </clipPath>
  </defs>
  <g id="Group_1210016" data-name="Group 1210016" transform="translate(-386.17 -9297.477)">
    <g id="Rectangle_413302" data-name="Rectangle 413302" transform="translate(386.17 9297.477)" fill="#fd9826" stroke="#af6a1a" stroke-width="3">
      <rect width="70" height="70" rx="10" stroke="none"/>
      <rect x="1.5" y="1.5" width="67" height="67" rx="8.5" fill="none"/>
    </g>
    <g id="Mask_Group_1099393" data-name="Mask Group 1099393" clip-path="url(#clip-path)">
      <g id="status_4944564" transform="translate(397 9304.531)">
        <g id="Group_1210005" data-name="Group 1210005">
          <path id="Path_1249956" data-name="Path 1249956" d="M57.587,56.094H20.413a17.094,17.094,0,1,1,0-34.189H57.587a17.094,17.094,0,0,1,0,34.189Z" fill="#e4d5f4"/>
        </g>
        <g id="Group_1210006" data-name="Group 1210006">
          <path id="Path_1249957" data-name="Path 1249957" d="M68.446,25.8A17.1,17.1,0,0,1,52.722,49.607H15.549a17.024,17.024,0,0,1-10.86-3.892,17.1,17.1,0,0,0,15.724,10.38H57.587a17.095,17.095,0,0,0,10.86-30.3Z" fill="#ddc8f1"/>
        </g>
        <g id="Group_1210007" data-name="Group 1210007">
          <circle id="Ellipse_12716" data-name="Ellipse 12716" cx="10.143" cy="10.143" r="10.143" transform="translate(10.441 28.857)" fill="#e28086"/>
        </g>
        <g id="Group_1210008" data-name="Group 1210008">
          <circle id="Ellipse_12717" data-name="Ellipse 12717" cx="10.143" cy="10.143" r="10.143" transform="translate(47.274 28.857)" fill="#78d090"/>
        </g>
        <g id="Group_1210009" data-name="Group 1210009">
          <path id="Path_1249958" data-name="Path 1249958" d="M25.862,30.338A10.144,10.144,0,0,1,11.922,44.279,10.144,10.144,0,1,0,25.862,30.338Z" fill="#dd636e"/>
        </g>
        <g id="Group_1210010" data-name="Group 1210010">
          <path id="Path_1249959" data-name="Path 1249959" d="M62.7,30.338A10.144,10.144,0,0,1,48.755,44.279,10.144,10.144,0,1,0,62.7,30.338Z" fill="#66b49d"/>
        </g>
        <g id="Group_1210012" data-name="Group 1210012">
          <g id="Group_1210011" data-name="Group 1210011">
            <path id="Path_1249960" data-name="Path 1249960" d="M57.587,58.307H20.413a19.307,19.307,0,0,1,0-38.614H57.587a19.307,19.307,0,0,1,0,38.614ZM20.413,24.118a14.882,14.882,0,0,0,0,29.763H57.587a14.882,14.882,0,0,0,0-29.763Z" fill="#f9f6f9"/>
          </g>
        </g>
        <g id="Group_1210014" data-name="Group 1210014">
          <g id="Group_1210013" data-name="Group 1210013">
            <path id="Path_1249961" data-name="Path 1249961" d="M73.309,27.807A19.3,19.3,0,0,1,56.028,55.716H18.855A19.3,19.3,0,0,1,3.132,47.6,19.328,19.328,0,0,0,20.413,58.307H57.587a19.3,19.3,0,0,0,15.723-30.5Z" fill="#f1eaf9"/>
          </g>
        </g>
        <g id="Group_1210015" data-name="Group 1210015">
          <path id="Path_1249962" data-name="Path 1249962" d="M9.334,39A11.249,11.249,0,1,0,20.583,27.751,11.262,11.262,0,0,0,9.334,39ZM29.62,39a9.037,9.037,0,1,1-9.037-9.037A9.047,9.047,0,0,1,29.62,39Z"/>
          <path id="Path_1249963" data-name="Path 1249963" d="M68.666,39A11.249,11.249,0,1,0,57.416,50.249,11.262,11.262,0,0,0,68.666,39ZM48.38,39a9.037,9.037,0,1,1,9.037,9.037A9.047,9.047,0,0,1,48.38,39Z"/>
          <path id="Path_1249964" data-name="Path 1249964" d="M57.587,18.587H20.413A20.409,20.409,0,0,0,9.006,55.922a1.106,1.106,0,0,0,1.239-1.833A18.2,18.2,0,0,1,20.413,20.8H57.587a18.2,18.2,0,1,1,0,36.4H20.413a18.123,18.123,0,0,1-5.745-.929,1.106,1.106,0,0,0-.7,2.1,20.332,20.332,0,0,0,6.445,1.042H57.587a20.413,20.413,0,1,0,0-40.827Z"/>
          <path id="Path_1249965" data-name="Path 1249965" d="M55.069,54.988h2.517a15.988,15.988,0,0,0,0-31.976H20.413A15.9,15.9,0,0,0,9.3,27.513a1.106,1.106,0,0,0,1.539,1.59,13.7,13.7,0,0,1,9.572-3.879H57.587a13.775,13.775,0,0,1,0,27.551H55.069a1.106,1.106,0,1,0,0,2.212Z"/>
          <path id="Path_1249966" data-name="Path 1249966" d="M7.616,31.331a1.107,1.107,0,0,0-1.486.489A15.8,15.8,0,0,0,4.425,39,16.006,16.006,0,0,0,20.413,54.988H49.787a1.106,1.106,0,0,0,0-2.213H20.413A13.791,13.791,0,0,1,6.638,39,13.6,13.6,0,0,1,8.1,32.818,1.107,1.107,0,0,0,7.616,31.331Z"/>
          <path id="Path_1249967" data-name="Path 1249967" d="M44.223,32.182l-3.08-3.08a1.106,1.106,0,0,0-1.565,1.565l1.191,1.191H34.787a1.106,1.106,0,1,0,0,2.213H40.77l-1.191,1.191a1.106,1.106,0,1,0,1.564,1.565l3.08-3.08a1.113,1.113,0,0,0,0-1.564Z"/>
          <path id="Path_1249968" data-name="Path 1249968" d="M44.547,44.6A1.106,1.106,0,0,0,43.441,43.5H37.458l1.191-1.191a1.106,1.106,0,0,0-1.565-1.565L34,43.822a1.106,1.106,0,0,0,0,1.565l3.08,3.08A1.106,1.106,0,0,0,38.649,46.9L37.458,45.71h5.983A1.106,1.106,0,0,0,44.547,44.6Z"/>
          <path id="Path_1249969" data-name="Path 1249969" d="M62.722,35.313a1.106,1.106,0,0,0-1.565,0L56.13,40.34l-2.271-2.271a1.106,1.106,0,1,0-1.565,1.565l3.054,3.054a1.107,1.107,0,0,0,1.565,0l5.809-5.809a1.107,1.107,0,0,0,0-1.565Z"/>
          <path id="Path_1249970" data-name="Path 1249970" d="M17.234,34.086a1.106,1.106,0,0,0-1.565,1.565L19.019,39l-3.349,3.349a1.106,1.106,0,0,0,1.565,1.565l3.349-3.349,3.349,3.349A1.106,1.106,0,1,0,25.5,42.349L22.148,39,25.5,35.651a1.106,1.106,0,1,0-1.565-1.565l-3.349,3.349Z"/>
        </g>
      </g>
    </g>
  </g>
</svg>
