<svg xmlns="http://www.w3.org/2000/svg" xmlns:xlink="http://www.w3.org/1999/xlink" width="86.846" height="83.141" viewBox="0 0 86.846 83.141">
  <defs>
    <clipPath id="clip-path">
      <rect id="Rectangle_413323" data-name="Rectangle 413323" width="73.833" height="73.833" transform="translate(1136.463 2231.988)" fill="#fff" stroke="#707070" stroke-width="1"/>
    </clipPath>
  </defs>
  <g id="Group_1210050" data-name="Group 1210050" transform="translate(-1123.45 -2222.681)">
    <g id="Rectangle_413322" data-name="Rectangle 413322" transform="translate(1123.45 2222.681)" fill="#fd9826" stroke="#af6a1a" stroke-width="3">
      <rect width="70" height="70" rx="10" stroke="none"/>
      <rect x="1.5" y="1.5" width="67" height="67" rx="8.5" fill="none"/>
    </g>
    <g id="Mask_Group_1099401" data-name="Mask Group 1099401" clip-path="url(#clip-path)">
      <g id="Layer_12" data-name="Layer 12" transform="translate(1135.272 2230.797)">
        <path id="Path_1250061" data-name="Path 1250061" d="M16.672,2.382H59.543V53.588H16.672Z" fill="#c8cded"/>
        <path id="Path_1250062" data-name="Path 1250062" d="M16.672,2.382h39.3V50.016h-39.3Z" fill="#f2f2f2"/>
        <path id="Path_1250063" data-name="Path 1250063" d="M54.779,64.306V60.734l4.763-7.145H54.779V47.634A2.382,2.382,0,0,0,52.4,45.252H50.016V52.4a4.744,4.744,0,0,0-3.15,1.191H38.107V55.97l2.382,4.763v3.573Z" fill="#fbe1ca"/>
        <path id="Path_1250064" data-name="Path 1250064" d="M38.107,64.306H57.161v9.527H38.107Z" fill="#4d8c28"/>
        <path id="Path_1250065" data-name="Path 1250065" d="M54.779,67.879V64.306H38.107v7.145h13.1A3.573,3.573,0,0,0,54.779,67.879Z" fill="#559b2d"/>
        <path id="Path_1250066" data-name="Path 1250066" d="M23.817,7.145H52.4v14.29H23.817Z" fill="#5e87ca"/>
        <path id="Path_1250067" data-name="Path 1250067" d="M23.817,7.145H48.825V17.863H23.817Z" fill="#78a0d4"/>
        <path id="Path_1250068" data-name="Path 1250068" d="M27.39,10.718H48.825V13.1H27.39Z" fill="#f2f2f2"/>
        <path id="Path_1250069" data-name="Path 1250069" d="M27.39,15.481H48.825v2.382H27.39Z" fill="#f2f2f2"/>
        <circle id="Ellipse_12724" data-name="Ellipse 12724" cx="9.527" cy="9.527" r="9.527" transform="translate(21.435 26.199)" fill="#4d8c28"/>
        <path id="Path_1250070" data-name="Path 1250070" d="M30.962,26.2a9.521,9.521,0,0,0-7.818,14.963A9.521,9.521,0,0,0,36.4,27.908,9.479,9.479,0,0,0,30.962,26.2Z" fill="#559b2d"/>
        <path id="Path_1250071" data-name="Path 1250071" d="M28.581,40.489a1.191,1.191,0,0,1-.842-.349l-2.382-2.382,1.684-1.684,1.54,1.54,6.3-6.3L36.568,33,29.422,40.14a1.191,1.191,0,0,1-.842.349Z" fill="#f2f2f2"/>
        <g id="Group_1210049" data-name="Group 1210049">
          <path id="Path_1250072" data-name="Path 1250072" d="M44.062,29.771H55.97v2.382H44.062Z" fill="#9da1bf"/>
          <path id="Path_1250073" data-name="Path 1250073" d="M44.062,34.535H55.97v2.382H44.062Z" fill="#9da1bf"/>
          <path id="Path_1250074" data-name="Path 1250074" d="M44.062,39.3H55.97V41.68H44.062Z" fill="#9da1bf"/>
        </g>
        <path id="Path_1250075" data-name="Path 1250075" d="M60.734,2.382a1.191,1.191,0,0,0-1.191-1.191H16.672a1.191,1.191,0,0,0-1.191,1.191V53.588a1.191,1.191,0,0,0,1.191,1.191H36.917V55.97a1.191,1.191,0,0,0,.125.532L39.3,61.015v2.1H38.107a1.191,1.191,0,0,0-1.191,1.191v9.527a1.191,1.191,0,0,0,1.191,1.191H57.161a1.191,1.191,0,0,0,1.191-1.191V64.306a1.191,1.191,0,0,0-1.191-1.191H55.97V61.091l4.563-6.845-.018-.012a1.162,1.162,0,0,0,.218-.645ZM17.863,3.573H58.352V52.4H55.97V47.634A3.573,3.573,0,0,0,52.4,44.062H50.016a1.191,1.191,0,0,0-1.191,1.191v6.073a5.9,5.9,0,0,0-2.382,1.1V52.4H17.863ZM55.97,72.642H39.3V65.5H55.97ZM53.789,60.073a1.2,1.2,0,0,0-.2.661v2.382H41.68V60.734a1.191,1.191,0,0,0-.119-.532L39.3,55.689v-.91h5.283a5.88,5.88,0,0,0-.519,2.382v2.382h2.382V57.161a3.573,3.573,0,0,1,3.573-3.573A1.191,1.191,0,0,0,51.207,52.4V46.443H52.4a1.191,1.191,0,0,1,1.191,1.191V55.97H55.97V54.779h1.348Z"/>
        <path id="Path_1250076" data-name="Path 1250076" d="M23.817,22.626H52.4a1.191,1.191,0,0,0,1.191-1.191V7.145A1.191,1.191,0,0,0,52.4,5.954H23.817a1.191,1.191,0,0,0-1.191,1.191v14.29A1.191,1.191,0,0,0,23.817,22.626Zm1.191-14.29h26.2V20.245h-26.2Z"/>
        <path id="Path_1250077" data-name="Path 1250077" d="M27.39,10.718H48.825V13.1H27.39Z"/>
        <path id="Path_1250078" data-name="Path 1250078" d="M27.39,15.481H48.825v2.382H27.39Z"/>
        <path id="Path_1250079" data-name="Path 1250079" d="M30.962,25.008A10.718,10.718,0,1,0,41.68,35.726,10.718,10.718,0,0,0,30.962,25.008Zm0,19.054A8.336,8.336,0,1,1,39.3,35.726,8.336,8.336,0,0,1,30.962,44.062Z"/>
        <path id="Path_1250080" data-name="Path 1250080" d="M28.581,37.614l-1.54-1.54-1.684,1.684,2.382,2.382a1.191,1.191,0,0,0,1.684,0L36.568,33l-1.684-1.684Z"/>
        <path id="Path_1250081" data-name="Path 1250081" d="M44.062,29.771H55.97v2.382H44.062Z"/>
        <path id="Path_1250082" data-name="Path 1250082" d="M44.062,34.535H55.97v2.382H44.062Z"/>
        <path id="Path_1250083" data-name="Path 1250083" d="M44.062,39.3H55.97V41.68H44.062Z"/>
      </g>
    </g>
  </g>
</svg>
