<svg xmlns="http://www.w3.org/2000/svg" xmlns:xlink="http://www.w3.org/1999/xlink" width="96.704" height="98.556" viewBox="0 0 96.704 98.556">
  <defs>
    <clipPath id="clip-path">
      <rect id="Rectangle_412725" data-name="Rectangle 412725" width="86.912" height="86.912" transform="translate(346.088 8674.86)" fill="#fff" stroke="#707070" stroke-width="1"/>
    </clipPath>
  </defs>
  <g id="Group_1210000" data-name="Group 1210000" transform="translate(-336.296 -8663.217)">
    <g id="Rectangle_412724" data-name="Rectangle 412724" transform="translate(336.296 8663.217)" fill="#b7a8f1" stroke="#7f74a8" stroke-width="3">
      <rect width="79.44" height="79.44" rx="10" stroke="none"/>
      <rect x="1.5" y="1.5" width="76.44" height="76.44" rx="8.5" fill="none"/>
    </g>
    <g id="Mask_Group_1099390" data-name="Mask Group 1099390" clip-path="url(#clip-path)">
      <g id="continuous-learning_18493840" transform="translate(341.295 8671.895)">
        <g id="Group_1209999" data-name="Group 1209999">
          <path id="Path_1249920" data-name="Path 1249920" d="M69.623,37.451H6.285V79.415H34.355v1.79A2.351,2.351,0,0,0,36.76,83.48h2.406a2.351,2.351,0,0,0,2.406-2.275v-1.79H69.642V37.451Z" fill="#902e57" fill-rule="evenodd"/>
          <path id="Path_1249921" data-name="Path 1249921" d="M63.58,36.649V71.786a74.56,74.56,0,0,0-10.631.242A66.907,66.907,0,0,0,38.029,74.92V36.574a66.808,66.808,0,0,1,14.921-2.91,74.664,74.664,0,0,1,10.631-.242Z" fill="#e6e6e6" fill-rule="evenodd"/>
          <path id="Path_1249922" data-name="Path 1249922" d="M12.5,36.649V71.786a74.56,74.56,0,0,1,10.631.242A66.907,66.907,0,0,1,38.047,74.92V36.574a66.808,66.808,0,0,0-14.921-2.91A74.561,74.561,0,0,0,12.5,33.422Z" fill="#e6e6e6" fill-rule="evenodd"/>
          <path id="Path_1249923" data-name="Path 1249923" d="M67.254,9.363A22.959,22.959,0,1,1,44.3,32.322,22.956,22.956,0,0,1,67.254,9.363Z" fill="#fcb13b" fill-rule="evenodd"/>
        </g>
        <path id="Path_1249924" data-name="Path 1249924" d="M72.756,21.9a1.489,1.489,0,0,1,1.4-2.63,14.753,14.753,0,0,1,2.014,24.843,1.879,1.879,0,0,1-.429.224l.653,1.156a1.485,1.485,0,0,1-1.38,2.2l-5.11-.075a1.475,1.475,0,0,1-1.25-2.238L71.3,40.938a1.491,1.491,0,0,1,2.592.075l.429.765.056-.056A11.816,11.816,0,0,0,72.756,21.9Zm-11,20.851a1.489,1.489,0,0,1-1.4,2.63,14.749,14.749,0,0,1-1.623-25.122l-.615-1.1a1.488,1.488,0,0,1,1.38-2.2l5.11.075a1.475,1.475,0,0,1,1.25,2.238l-2.63,4.439a1.491,1.491,0,0,1-2.592-.075l-.429-.765A11.819,11.819,0,0,0,57.146,38.4a12,12,0,0,0,4.607,4.346Zm5.5-34.877a24.456,24.456,0,0,1,3.861,48.6v22.94a1.5,1.5,0,0,1-1.492,1.492H43.046v.3a3.846,3.846,0,0,1-3.9,3.767H36.742a3.846,3.846,0,0,1-3.9-3.767v-.3H6.285a1.5,1.5,0,0,1-1.492-1.492V37.451a1.5,1.5,0,0,1,1.492-1.492h4.7V33.422a1.5,1.5,0,0,1,1.4-1.492,81.668,81.668,0,0,1,19.08,1.4,56.449,56.449,0,0,1,6.546,1.66c.8-.261,1.679-.522,2.611-.765.69-.187,1.417-.354,2.182-.522A24.5,24.5,0,0,1,67.254,7.871Zm.877,48.883a23.559,23.559,0,0,1-3.04-.075V71.768a1.48,1.48,0,0,1-1.679,1.473c-1.529-.093-3.171-.112-4.905-.075-6.248.149-14.305,1.175-19.975,3.133a1.5,1.5,0,0,1-.988,0c-5.651-1.958-13.746-3-19.975-3.133-1.716-.037-3.376-.019-4.905.075a1.48,1.48,0,0,1-1.679-1.473V38.943H7.777v38.98H34.336a1.5,1.5,0,0,1,1.492,1.492v1.79a.871.871,0,0,0,.914.783h2.425a.857.857,0,0,0,.914-.783v-1.79a1.5,1.5,0,0,1,1.492-1.492H68.15V56.754Zm-6.024-.522a24.521,24.521,0,0,1-18.93-19.565c-1.231.28-2.462.6-3.656.97V72.868A80.026,80.026,0,0,1,62.088,70.2V56.232ZM82.436,17.14a21.47,21.47,0,1,0,0,30.363A21.455,21.455,0,0,0,82.436,17.14ZM45.414,66.919a1.493,1.493,0,0,1-.485-2.947l7.4-1.194a1.493,1.493,0,1,1,.485,2.947Zm0-7.087a1.493,1.493,0,0,1-.485-2.947l4.681-.765a1.493,1.493,0,1,1,.485,2.947ZM32.023,48.977a1.493,1.493,0,0,1-.485,2.947L18.017,49.741a1.493,1.493,0,0,1,.485-2.947Zm0-7.759a1.493,1.493,0,1,1-.485,2.947l-11.023-1.79A1.493,1.493,0,0,1,21,39.428Zm0,22.866a1.493,1.493,0,0,1-.485,2.947l-13.522-2.2a1.493,1.493,0,0,1,.485-2.947Zm0-7.759a1.493,1.493,0,0,1-.485,2.947l-11.023-1.79A1.493,1.493,0,0,1,21,54.535ZM13.969,42.262V70.22a80.026,80.026,0,0,1,22.567,2.667V37.637a75.471,75.471,0,0,0-22.567-2.8Z"/>
      </g>
    </g>
  </g>
</svg>
