<svg xmlns="http://www.w3.org/2000/svg" xmlns:xlink="http://www.w3.org/1999/xlink" width="96.703" height="98.556" viewBox="0 0 96.703 98.556">
  <defs>
    <clipPath id="clip-path">
      <rect id="Rectangle_413299" data-name="Rectangle 413299" width="86.912" height="86.912" transform="translate(761.439 8674.86)" fill="#fff" stroke="#707070" stroke-width="1"/>
    </clipPath>
  </defs>
  <g id="Group_1210001" data-name="Group 1210001" transform="translate(-751.648 -8663.217)">
    <g id="Rectangle_413298" data-name="Rectangle 413298" transform="translate(751.648 8663.217)" fill="#b7a8f1" stroke="#7f74a8" stroke-width="3">
      <rect width="79.44" height="79.44" rx="10" stroke="none"/>
      <rect x="1.5" y="1.5" width="76.44" height="76.44" rx="8.5" fill="none"/>
    </g>
    <g id="Mask_Group_1099389" data-name="Mask Group 1099389" clip-path="url(#clip-path)">
      <g id="trend_18199156" transform="translate(760.751 8674.173)">
        <path id="Path_1249902" data-name="Path 1249902" d="M62.69,13.728h9.546V47.983H62.69Z" fill="#11bef7"/>
        <path id="Path_1249903" data-name="Path 1249903" d="M49.121,19.5h9.546V47.983H49.121Z" fill="#3cb54b"/>
        <path id="Path_1249904" data-name="Path 1249904" d="M35.547,25.259h9.546V47.983H35.547Z" fill="#ffcb5b"/>
        <path id="Path_1249905" data-name="Path 1249905" d="M21.978,31.027h9.546V47.983H21.978Z" fill="#ee2b39"/>
        <g id="Group_1209998" data-name="Group 1209998">
          <path id="Path_1249906" data-name="Path 1249906" d="M57.03,61.151l-.205-.044c1.828-2.576,1.124-5.753-3.07-5.646-8.041.205-14.82-4.052-23.506-3.827-6.208.161-10.353,1.55-13.574,3.612-3.148,2.014-4.189,4.883-7.821,7.479L6.062,66.455l8.8,8.8L22.6,82.986l3.48-3.035c2.156-2.464,4.414-4.942,10.92-4.438,8.085.626,14.209,2.2,21.815-1.066,9.321-4,31.542-15.881,27.192-21.243-1.017-1.256-3.285-.684-5.636.352-9,3.969-12.992,7.161-23.34,7.6Z" fill="#e2b698" fill-rule="evenodd"/>
          <path id="Path_1249907" data-name="Path 1249907" d="M57.03,61.151l-.205-.044c1.828-2.576,1.124-5.753-3.07-5.646-8.041.205-14.82-4.052-23.506-3.827-6.208.161-10.353,1.55-13.574,3.612-3.148,2.014-4.189,4.883-7.821,7.479l-1.716,2.3,7.728,7.728L22.6,80.483l2.727-3.324C27.486,74.7,30.493,72.5,37,73c8.085.63,14.209,2.2,21.815-1.061C66.7,68.557,83.8,59.539,86.265,53.595a2.709,2.709,0,0,0-.259-.391c-1.017-1.256-3.285-.684-5.636.352-9,3.969-12.992,7.161-23.34,7.6Z" fill="#efc9ae" fill-rule="evenodd"/>
          <path id="Path_1249908" data-name="Path 1249908" d="M2.524,69.06,19.744,86.281a2.732,2.732,0,0,0,3.862,0l3.49-3.49a2.741,2.741,0,0,0,0-3.862L9.875,61.708a2.747,2.747,0,0,0-3.866,0L2.524,65.2a2.732,2.732,0,0,0,0,3.862Z" fill="#00ade6" fill-rule="evenodd"/>
          <path id="Path_1249909" data-name="Path 1249909" d="M2.524,69.06l14.9,14.9a2.732,2.732,0,0,0,3.862,0l3.49-3.485a2.747,2.747,0,0,0,0-3.866l-14.9-14.9a2.747,2.747,0,0,0-3.866,0L2.524,65.2a2.732,2.732,0,0,0,0,3.862Z" fill="#11bef7" fill-rule="evenodd"/>
        </g>
        <path id="Path_1249910" data-name="Path 1249910" d="M21.978,31.027h3.656V47.983H21.978Z" fill="#cd212d"/>
        <path id="Path_1249911" data-name="Path 1249911" d="M35.547,25.259h3.661V47.983H35.547Z" fill="#f7b84e"/>
        <path id="Path_1249912" data-name="Path 1249912" d="M49.121,19.5h3.656V47.983H49.121Z" fill="#32a13f"/>
        <path id="Path_1249913" data-name="Path 1249913" d="M62.69,13.728h3.661V47.983H62.69Z" fill="#00ade6"/>
        <path id="Path_1249914" data-name="Path 1249914" d="M77.212,37.886H80.17v9.027H77.212Z" transform="translate(-6.934 68.072) rotate(-45)" fill="#7b858c"/>
        <path id="Path_1249915" data-name="Path 1249915" d="M59.655,23.357a11.606,11.606,0,1,1,0,16.414A11.609,11.609,0,0,1,59.655,23.357Z" fill="#3589c9" fill-rule="evenodd"/>
        <path id="Path_1249916" data-name="Path 1249916" d="M83.787,49.581l2.092-2.092a.717.717,0,0,0,0-1.012l-3.1-3.1a.717.717,0,0,0-1.012,0l-2.1,2.1a.717.717,0,0,0,0,1.012l3.1,3.1a.717.717,0,0,0,1.012,0Z" fill="#3589c9" fill-rule="evenodd"/>
        <path id="Path_1249917" data-name="Path 1249917" d="M62.079,25.782a8.178,8.178,0,1,1,0,11.565A8.181,8.181,0,0,1,62.079,25.782Z" fill="#cad1d8" fill-rule="evenodd"/>
        <path id="Path_1249918" data-name="Path 1249918" d="M68.927,23.46a8.177,8.177,0,0,1,0,16.214,8.177,8.177,0,0,1,0-16.214Z" fill="#e2e5e7" fill-rule="evenodd"/>
        <path id="Path_1249919" data-name="Path 1249919" d="M86.811,52.033c-1.59-1.955-4.678-.9-6.863.057-1.991.878-3.7,1.7-5.353,2.494C69.318,57.121,65.407,59,58.529,59.511a4.787,4.787,0,0,0,.245-2.158c-.231-1.721-1.681-3.527-5.045-3.443-3.791.1-7.291-.838-10.995-1.827-3.9-1.042-7.933-2.115-12.512-2-5.844.152-10.327,1.352-14.106,3.776A17.594,17.594,0,0,0,12.15,57.59a29.848,29.848,0,0,1-2.182,2.361,3.776,3.776,0,0,0-4.691.508l-3.49,3.49a3.777,3.777,0,0,0,0,5.327L19.008,86.5a3.774,3.774,0,0,0,5.332,0l3.483-3.488a3.761,3.761,0,0,0,.591-4.558c1.6-1.517,3.782-2.787,8.506-2.421,1.5.116,2.94.266,4.333.411,6.194.645,11.543,1.2,17.972-1.558A134.362,134.362,0,0,0,75.7,66.236c7.1-4.429,11.063-8.135,11.774-11.017a3.534,3.534,0,0,0-.666-3.186ZM26.359,81.542l-3.485,3.489a1.7,1.7,0,0,1-2.4,0L3.253,67.811a1.7,1.7,0,0,1,0-2.4l3.49-3.49a1.7,1.7,0,0,1,2.4,0l17.221,17.22a1.7,1.7,0,0,1,0,2.4ZM85.465,54.724c-.325,1.317-2.167,4.335-10.858,9.754a132.115,132.115,0,0,1-16.2,8.5c-5.933,2.547-11.033,2.016-16.939,1.4-1.406-.146-2.859-.3-4.387-.416-5.278-.41-8.033,1.076-10.036,2.936L11.5,61.356a32.492,32.492,0,0,0,2.224-2.418,15.747,15.747,0,0,1,3.51-3.335c3.448-2.211,7.592-3.307,13.041-3.449,4.279-.112,8.165.927,11.923,1.931,3.683.984,7.492,2,11.583,1.9,1.011-.027,2.737.154,2.937,1.646a3.471,3.471,0,0,1-.68,2.288,1.031,1.031,0,0,0-.117.167,6.685,6.685,0,0,1-3.87,2.445c-3.3.809-9.219-.035-13.623-1.231a1.036,1.036,0,0,0-.543,2,45.105,45.105,0,0,0,10.934,1.621,15.961,15.961,0,0,0,3.726-.379A8.877,8.877,0,0,0,57.3,61.659c8.134-.377,12.362-2.406,18.188-5.206,1.638-.787,3.332-1.6,5.291-2.465,3.169-1.394,4.129-1,4.419-.648a1.459,1.459,0,0,1,.262,1.383ZM73.274,13.212a1.036,1.036,0,0,0-1.036-1.036H62.691a1.036,1.036,0,0,0-1.036,1.036v6.826A12.549,12.549,0,0,0,59.7,21.4V18.98a1.036,1.036,0,0,0-1.036-1.036H49.117a1.036,1.036,0,0,0-1.036,1.036V47.467A1.036,1.036,0,0,0,49.117,48.5h9.546A1.036,1.036,0,0,0,59.7,47.467V40.7a12.549,12.549,0,0,0,1.955,1.361v5.408A1.036,1.036,0,0,0,62.691,48.5h9.546a1.036,1.036,0,0,0,1.036-1.036v-5a12.528,12.528,0,0,0,1.568-.882L78.448,45.2a1.766,1.766,0,0,0-.022.264,1.74,1.74,0,0,0,.512,1.239l3.1,3.1a1.754,1.754,0,0,0,2.477,0l2.1-2.092a1.753,1.753,0,0,0,0-2.477l-3.1-3.1a1.74,1.74,0,0,0-1.239-.513,1.762,1.762,0,0,0-.264.022l-3.6-3.6a12.635,12.635,0,0,0-5.129-18.406V13.212Zm-9.546,1.036H71.2v4.614a12.733,12.733,0,0,0-7.474.242V14.248ZM50.153,46.431V20.016h7.474v3.613a12.677,12.677,0,0,0,0,14.839v7.962Zm21.048,0H63.727V42.992a12.68,12.68,0,0,0,7.474.241Zm13.719.036-1.643,1.639L80.631,45.46l1.639-1.643,2.65,2.65ZM80.3,42.858l-.628.63L76.478,40.3c.109-.1.218-.2.324-.308s.2-.213.305-.321L80.3,42.858Zm-4.962-4.336a10.57,10.57,0,1,1,0-14.948,10.544,10.544,0,0,1,0,14.948ZM35.548,23.706a1.036,1.036,0,0,0-1.036,1.036V47.467A1.036,1.036,0,0,0,35.548,48.5h9.546a1.036,1.036,0,0,0,1.036-1.036V24.743a1.036,1.036,0,0,0-1.036-1.036Zm8.51,22.724H36.584V25.779h7.474ZM21.974,48.5H31.52a1.036,1.036,0,0,0,1.036-1.036V30.51a1.036,1.036,0,0,0-1.036-1.036H21.974a1.036,1.036,0,0,0-1.036,1.036V47.467A1.036,1.036,0,0,0,21.974,48.5ZM23.01,31.547h7.474V46.431H23.01Zm-.9-6.869a1.036,1.036,0,0,1,.864-1.184C37.2,21.269,57.052,11.673,69.25,3.174l-2.18.237a1.036,1.036,0,0,1-.224-2.06L72.86.7A1,1,0,0,1,73.04.69,1.05,1.05,0,0,1,73.2.711,1.036,1.036,0,0,1,74,1.95c-.012.052,0,0,0,0a1.039,1.039,0,0,1-.078.226l-2.518,5.5a1.036,1.036,0,0,1-1.884-.863L70.4,4.9c-12.42,8.636-32.606,18.375-47.1,20.643a1.047,1.047,0,0,1-.161.013,1.036,1.036,0,0,1-1.023-.876Zm39.239-.145h0a9.214,9.214,0,1,0,13.03,0,9.229,9.229,0,0,0-13.03,0ZM72.912,26a7.141,7.141,0,1,1-10.1,0A7.154,7.154,0,0,1,72.912,26Z"/>
      </g>
    </g>
  </g>
</svg>
