<svg xmlns="http://www.w3.org/2000/svg" xmlns:xlink="http://www.w3.org/1999/xlink" width="88.83" height="85.055" viewBox="0 0 88.83 85.055">
  <defs>
    <clipPath id="clip-path">
      <rect id="Rectangle_413307" data-name="Rectangle 413307" width="78" height="78" transform="translate(1132 9304.531)" fill="#fff" stroke="#707070" stroke-width="1"/>
    </clipPath>
  </defs>
  <g id="Group_1210018" data-name="Group 1210018" transform="translate(-1121.17 -9297.477)">
    <g id="Rectangle_413306" data-name="Rectangle 413306" transform="translate(1121.17 9297.477)" fill="#fd9826" stroke="#af6a1a" stroke-width="3">
      <rect width="70" height="70" rx="10" stroke="none"/>
      <rect x="1.5" y="1.5" width="67" height="67" rx="8.5" fill="none"/>
    </g>
    <g id="Mask_Group_1099391" data-name="Mask Group 1099391" clip-path="url(#clip-path)">
      <g id="estimate_2339994" transform="translate(1132.022 9304.535)">
        <path id="Path_1249925" data-name="Path 1249925" d="M62.384,59.784V10.4a3.9,3.9,0,0,0-3.9-3.9H19.495a3.9,3.9,0,0,0-3.9,3.9V59.784Z" fill="#a0745c"/>
        <path id="Path_1249926" data-name="Path 1249926" d="M20.795,6.5h36.39V59.784H20.795Z" fill="#dbdbdb"/>
        <circle id="Ellipse_12712" data-name="Ellipse 12712" cx="16.896" cy="16.896" r="16.896" transform="translate(42.889 42.889)" fill="#fab344"/>
        <circle id="Ellipse_12713" data-name="Ellipse 12713" cx="16.896" cy="16.896" r="16.896" transform="translate(1.3 42.889)" fill="#686868"/>
        <circle id="Ellipse_12714" data-name="Ellipse 12714" cx="11.697" cy="11.697" r="11.697" transform="translate(6.498 48.087)" fill="#fff"/>
        <path id="Path_1249927" data-name="Path 1249927" d="M48.087,5.2V7.8a1.3,1.3,0,0,1-1.3,1.3h-15.6a1.3,1.3,0,0,1-1.3-1.3V5.2a1.3,1.3,0,0,1,1.3-1.3h2.6a1.3,1.3,0,0,0,1.3-1.3,1.3,1.3,0,0,1,1.3-1.3h5.2a1.3,1.3,0,0,1,1.3,1.3,1.3,1.3,0,0,0,1.3,1.3h2.6A1.3,1.3,0,0,1,48.087,5.2Z" fill="#aaa"/>
        <g id="Group_1210004" data-name="Group 1210004">
          <path id="Path_1249928" data-name="Path 1249928" d="M59.784,41.589c-.439,0-.868.035-1.3.066V7.8a2.6,2.6,0,0,1,2.6,2.6V37.69a1.3,1.3,0,1,0,2.6,0V10.4a5.2,5.2,0,0,0-5.2-5.2h-9.1a2.6,2.6,0,0,0-2.6-2.6h-2.6a2.6,2.6,0,0,0-2.6-2.6h-5.2a2.6,2.6,0,0,0-2.6,2.6h-2.6a2.6,2.6,0,0,0-2.6,2.6h-9.1a5.2,5.2,0,0,0-5.2,5.2V42.021A18.2,18.2,0,1,0,36.324,61.084h5.329A18.186,18.186,0,1,0,59.784,41.589ZM31.192,5.2h2.6a2.6,2.6,0,0,0,2.6-2.6h5.2a2.6,2.6,0,0,0,2.6,2.6h2.6V7.8h-15.6Zm0,5.2h15.6a2.6,2.6,0,0,0,2.6-2.6h6.5V42.021a18.212,18.212,0,0,0-14.23,16.464H36.327A18.212,18.212,0,0,0,22.094,42.021V7.8h6.5a2.6,2.6,0,0,0,2.6,2.6Zm-14.3,0a2.6,2.6,0,0,1,2.6-2.6V41.655c-.431-.031-.86-.066-1.3-.066s-.868.035-1.3.066ZM18.2,75.38a15.6,15.6,0,1,1,15.6-15.6A15.6,15.6,0,0,1,18.2,75.38Zm41.589,0a15.6,15.6,0,1,1,15.6-15.6A15.6,15.6,0,0,1,59.784,75.38Z" fill="#373737"/>
          <path id="Path_1249929" data-name="Path 1249929" d="M63.683,54.586a1.3,1.3,0,0,0,2.6,0,6.51,6.51,0,0,0-5.2-6.368v-.13a1.3,1.3,0,0,0-2.6,0v.13a6.5,6.5,0,0,0,0,12.737v7.69a3.9,3.9,0,0,1-2.6-3.661,1.3,1.3,0,1,0-2.6,0,6.51,6.51,0,0,0,5.2,6.368v.13a1.3,1.3,0,1,0,2.6,0v-.13a6.5,6.5,0,0,0,0-12.737V50.926a3.9,3.9,0,0,1,2.6,3.66Zm-7.8,0a3.9,3.9,0,0,1,2.6-3.66v7.32a3.9,3.9,0,0,1-2.6-3.66Zm7.8,10.4a3.9,3.9,0,0,1-2.6,3.66v-7.32a3.9,3.9,0,0,1,2.6,3.66Z" fill="#373737"/>
          <path id="Path_1249930" data-name="Path 1249930" d="M27.385,50.594c-.01-.012-.026-.014-.036-.025a12.968,12.968,0,0,0-18.307,0c-.01.01-.026.013-.036.025s-.014.026-.025.036a12.968,12.968,0,0,0,0,18.307c.01.01.013.026.025.036s.026.014.036.025a12.968,12.968,0,0,0,18.307,0c.01-.01.026-.013.036-.025s.014-.026.025-.036a12.968,12.968,0,0,0,0-18.307C27.4,50.62,27.4,50.6,27.385,50.594Zm-.092,10.49H28.5a10.336,10.336,0,0,1-2.1,5.069l-.851-.851a1.3,1.3,0,1,0-1.838,1.838l.851.851a10.336,10.336,0,0,1-5.066,2.1v-1.21a1.3,1.3,0,1,0-2.6,0v1.21a10.336,10.336,0,0,1-5.069-2.1l.851-.851A1.3,1.3,0,1,0,10.84,65.3l-.851.851a10.336,10.336,0,0,1-2.1-5.066H9.1a1.3,1.3,0,1,0,0-2.6H7.888a10.336,10.336,0,0,1,2.1-5.069l.851.851a1.3,1.3,0,1,0,1.838-1.838l-.854-.849a10.336,10.336,0,0,1,5.069-2.1v1.21a1.3,1.3,0,0,0,2.6,0v-1.21a10.336,10.336,0,0,1,5.069,2.1l-.851.851A1.3,1.3,0,1,0,25.55,54.27l.851-.851a10.336,10.336,0,0,1,2.1,5.066h-1.21a1.3,1.3,0,1,0,0,2.6Z" fill="#373737"/>
          <path id="Path_1249931" data-name="Path 1249931" d="M20.214,57.321l-.719.36v-1.8a1.3,1.3,0,0,0-2.6,0v3.9a1.3,1.3,0,0,0,1.881,1.17l2.6-1.3a1.3,1.3,0,1,0-1.162-2.326Z" fill="#373737"/>
          <path id="Path_1249932" data-name="Path 1249932" d="M46.485,18.02a1.3,1.3,0,0,0,1.775-.473,1.3,1.3,0,1,1,1.127,1.948,1.3,1.3,0,0,0-1.3,1.3v1.3a1.3,1.3,0,1,0,2.6,0v-.222a3.9,3.9,0,1,0-4.679-5.628,1.3,1.3,0,0,0,.477,1.775Z" fill="#373737"/>
          <path id="Path_1249933" data-name="Path 1249933" d="M49.387,25.993a1.3,1.3,0,0,0-1.3,1.3v.291a1.3,1.3,0,1,0,2.6,0v-.291A1.3,1.3,0,0,0,49.387,25.993Z" fill="#373737"/>
          <path id="Path_1249934" data-name="Path 1249934" d="M25.993,19.495h7.8a1.3,1.3,0,0,0,0-2.6h-7.8a1.3,1.3,0,1,0,0,2.6Z" fill="#373737"/>
          <path id="Path_1249935" data-name="Path 1249935" d="M25.993,24.693h5.2a1.3,1.3,0,0,0,0-2.6h-5.2a1.3,1.3,0,1,0,0,2.6Z" fill="#373737"/>
          <path id="Path_1249936" data-name="Path 1249936" d="M38.99,19.495h2.6a1.3,1.3,0,0,0,0-2.6h-2.6a1.3,1.3,0,0,0,0,2.6Z" fill="#373737"/>
          <path id="Path_1249937" data-name="Path 1249937" d="M25.993,35.091h7.8a1.3,1.3,0,0,0,0-2.6h-7.8a1.3,1.3,0,1,0,0,2.6Z" fill="#373737"/>
          <path id="Path_1249938" data-name="Path 1249938" d="M31.192,37.69h-5.2a1.3,1.3,0,1,0,0,2.6h5.2a1.3,1.3,0,0,0,0-2.6Z" fill="#373737"/>
          <path id="Path_1249939" data-name="Path 1249939" d="M38.99,35.091h2.6a1.3,1.3,0,0,0,0-2.6h-2.6a1.3,1.3,0,0,0,0,2.6Z" fill="#373737"/>
          <path id="Path_1249940" data-name="Path 1249940" d="M46.485,34.915a1.3,1.3,0,0,0,1.775-.473,1.3,1.3,0,1,1,1.127,1.948,1.3,1.3,0,0,0-1.3,1.3v1.3a1.3,1.3,0,1,0,2.6,0v-.222a3.9,3.9,0,1,0-4.679-5.628,1.3,1.3,0,0,0,.477,1.775Z" fill="#373737"/>
        </g>
      </g>
    </g>
  </g>
</svg>
