<svg xmlns="http://www.w3.org/2000/svg" xmlns:xlink="http://www.w3.org/1999/xlink" width="86.846" height="83.141" viewBox="0 0 86.846 83.141">
  <defs>
    <clipPath id="clip-path">
      <rect id="Rectangle_412676" data-name="Rectangle 412676" width="73.833" height="73.833" transform="translate(399.183 2222.681)" fill="#fff" stroke="#707070" stroke-width="1"/>
    </clipPath>
  </defs>
  <g id="Group_1210052" data-name="Group 1210052" transform="translate(-386.17 -2213.373)">
    <g id="Rectangle_412675" data-name="Rectangle 412675" transform="translate(386.17 2213.373)" fill="#fd9826" stroke="#af6a1a" stroke-width="3">
      <rect width="70" height="70" rx="10" stroke="none"/>
      <rect x="1.5" y="1.5" width="67" height="67" rx="8.5" fill="none"/>
    </g>
    <g id="Mask_Group_1099399" data-name="Mask Group 1099399" clip-path="url(#clip-path)">
      <g id="standard_11670141" transform="translate(397.759 2221.511)">
        <g id="Group_1210047" data-name="Group 1210047">
          <g id="Group_1210042" data-name="Group 1210042">
            <path id="Path_1250037" data-name="Path 1250037" d="M30.865,12.5a11.014,11.014,0,0,1,3.225,1.337l2.1-.931,2.47,2.47-.93,2.095a11.017,11.017,0,0,1,1.337,3.226l2.138.823v3.493l-2.138.823a11.014,11.014,0,0,1-1.337,3.225l.931,2.1-2.47,2.47-2.095-.93a11.014,11.014,0,0,1-3.226,1.337l-.823,2.138H26.549l-.823-2.138A11.012,11.012,0,0,1,22.5,32.691l-2.1.931-2.47-2.47.93-2.095a11.017,11.017,0,0,1-1.337-3.226l-2.138-.823V21.516l2.138-.823a11.007,11.007,0,0,1,1.337-3.225l-.931-2.1,2.47-2.47,2.1.931A11.018,11.018,0,0,1,25.726,12.5l.823-2.138h3.493Z" fill="#ffe177" fill-rule="evenodd"/>
            <path id="Path_1250038" data-name="Path 1250038" d="M22.5,32.691l-2.1.931-.324-.324,1.964-.872q.225.138.456.266ZM30.865,12.5a11.013,11.013,0,0,1,3.184,1.312l.04.025-.6.266a14.547,14.547,0,0,0-3.681-1.6l-.823-2.138h1.055Zm-10.784.73.324-.324,2.1.931q-.231.127-.456.266Zm15.374,0,.73-.324,2.47,2.47-.93,2.095a11.018,11.018,0,0,1,1.337,3.226l2.138.823v3.493l-2.138.823a11.014,11.014,0,0,1-1.337,3.225l.931,2.1-2.47,2.47-.73-.324L37.6,31.152l-.931-2.1a11.016,11.016,0,0,0,1.337-3.225l2.138-.823V21.516l-2.138-.823a11.018,11.018,0,0,0-1.337-3.226l.93-2.095ZM34.05,32.716a11.012,11.012,0,0,1-3.185,1.312l-.823,2.138H28.988l.823-2.138a14.548,14.548,0,0,0,3.682-1.6l.6.266Z" fill="#ffd064" fill-rule="evenodd"/>
            <circle id="Ellipse_12722" data-name="Ellipse 12722" cx="6.636" cy="6.636" r="6.636" transform="matrix(0.957, -0.29, 0.29, 0.957, 20.022, 18.828)" fill="#eceff1"/>
            <path id="Path_1250039" data-name="Path 1250039" d="M28.3,16.626c.157,0,.312.006.466.017a6.636,6.636,0,0,0,0,13.24c-.154.011-.31.017-.466.017a6.636,6.636,0,1,1,0-13.273Z" fill="#d1d1d6" fill-rule="evenodd"/>
          </g>
          <g id="Group_1210045" data-name="Group 1210045">
            <g id="Group_1210044" data-name="Group 1210044">
              <g id="Group_1210043" data-name="Group 1210043">
                <path id="Path_1250040" data-name="Path 1250040" d="M30.96,32.373H51.522a1.133,1.133,0,0,1,.829.343l6.578,6.578a1.132,1.132,0,0,1,.343.828V68.2A1.174,1.174,0,0,1,58.1,69.373H30.96A1.174,1.174,0,0,1,29.789,68.2V33.544a1.174,1.174,0,0,1,1.172-1.171Z" fill="#eceff1" fill-rule="evenodd"/>
                <path id="Path_1250041" data-name="Path 1250041" d="M30.96,32.373h1.473a1.174,1.174,0,0,0-1.172,1.172V68.2a1.174,1.174,0,0,0,1.172,1.172H30.96A1.174,1.174,0,0,1,29.789,68.2V33.544a1.174,1.174,0,0,1,1.172-1.171Z" fill="#d1d1d6" fill-rule="evenodd"/>
              </g>
              <path id="Path_1250042" data-name="Path 1250042" d="M52.007,32.474a1.178,1.178,0,0,1,.343.242l6.578,6.578a1.172,1.172,0,0,1,.242.343H52.593a.587.587,0,0,1-.586-.586Z" fill="#a79ba7" fill-rule="evenodd"/>
            </g>
          </g>
          <g id="Group_1210046" data-name="Group 1210046">
            <circle id="Ellipse_12723" data-name="Ellipse 12723" cx="8.199" cy="8.199" r="8.199" transform="translate(46.551 61.054) rotate(-31.72)" fill="#8ac9fe"/>
            <path id="Path_1250043" data-name="Path 1250043" d="M57.8,55.516c-.242,0-.482.011-.719.032a8.2,8.2,0,0,1,0,16.327c.237.021.477.032.719.032a8.2,8.2,0,1,0,0-16.391Z" fill="#60b7ff" fill-rule="evenodd"/>
          </g>
        </g>
        <path id="Path_1250044" data-name="Path 1250044" d="M62.539,62.59l-5.421,4.919a1.169,1.169,0,0,1-1.613-.039l-2.5-2.5a1.17,1.17,0,1,1,1.655-1.654l1.709,1.71,4.6-4.171a1.169,1.169,0,1,1,1.571,1.732Zm-4.746,8.756a7.162,7.162,0,1,0-7.161-7.162,7.17,7.17,0,0,0,7.161,7.162Zm-27.305-2.6h0a.025.025,0,0,0,.022.021H49.477a9.48,9.48,0,0,1,.455-9.916H34.408a1.17,1.17,0,1,1,0-2.339H52.193a9.447,9.447,0,0,1,5.6-1.832c.11,0,.22,0,.328.008V40.88H52.5a1.767,1.767,0,0,1-1.764-1.765v-5.62H30.509a.024.024,0,0,0-.021.021ZM26.828,35.013l-.549-1.425a1.168,1.168,0,0,0-.82-.717,10.016,10.016,0,0,1-2.936-1.217,1.17,1.17,0,0,0-1.088-.073l-1.4.62-1.374-1.375.62-1.4a1.171,1.171,0,0,0-.073-1.088,10,10,0,0,1-1.218-2.937,1.166,1.166,0,0,0-.718-.821l-1.424-.548V22.092l1.426-.548a1.167,1.167,0,0,0,.716-.821,10.038,10.038,0,0,1,1.218-2.936,1.172,1.172,0,0,0,.073-1.088l-.619-1.4,1.374-1.375,1.4.62a1.17,1.17,0,0,0,1.087-.073,10,10,0,0,1,2.936-1.217,1.169,1.169,0,0,0,.82-.718l.549-1.424h1.944l.55,1.424a1.165,1.165,0,0,0,.82.718,10.009,10.009,0,0,1,2.936,1.217,1.17,1.17,0,0,0,1.088.073l1.4-.62L36.937,15.3l-.62,1.4a1.167,1.167,0,0,0,.073,1.088,10,10,0,0,1,1.218,2.937,1.169,1.169,0,0,0,.716.821l1.425.548v1.945l-1.424.548a1.17,1.17,0,0,0-.718.821,10.042,10.042,0,0,1-1.216,2.936,1.167,1.167,0,0,0-.073,1.088l.62,1.4-.33.331h-6.1a2.364,2.364,0,0,0-2.361,2.361v1.5h-1.32Zm29.639,3.528H53.075V35.149ZM60.46,55.066V40.2a2.311,2.311,0,0,0-.692-1.669l-6.687-6.687a2.312,2.312,0,0,0-1.668-.691H46.36A20.349,20.349,0,0,0,45.353,12.97a1.17,1.17,0,0,0-2.028,1.167,17.983,17.983,0,0,1,.45,17.018H39.5a1.16,1.16,0,0,0-.1-.546l-.7-1.585a12.444,12.444,0,0,0,1.024-2.472l1.617-.623a1.167,1.167,0,0,0,.749-1.091V21.289a1.168,1.168,0,0,0-.749-1.091l-1.616-.622A12.246,12.246,0,0,0,38.7,17.1l.7-1.584a1.167,1.167,0,0,0-.242-1.3l-2.512-2.511a1.169,1.169,0,0,0-1.3-.242l-1.584.7a12.307,12.307,0,0,0-2.473-1.025l-.623-1.617a1.167,1.167,0,0,0-1.091-.749H26.025a1.171,1.171,0,0,0-1.093.75l-.621,1.617a12.3,12.3,0,0,0-2.472,1.025l-1.585-.7a1.171,1.171,0,0,0-1.3.242l-2.51,2.511a1.168,1.168,0,0,0-.242,1.3l.7,1.584a12.347,12.347,0,0,0-1.025,2.473l-1.617.622a1.17,1.17,0,0,0-.75,1.092V24.84a1.169,1.169,0,0,0,.749,1.091l1.616.622A12.331,12.331,0,0,0,16.9,29.027l-.7,1.583a1.168,1.168,0,0,0,.241,1.3l2.511,2.511a1.17,1.17,0,0,0,1.3.242l1.585-.7a12.313,12.313,0,0,0,2.472,1.025l.622,1.617a1.17,1.17,0,0,0,1.092.749h2.123v3.61a17.848,17.848,0,0,1-5.815-.845l1.092-.182a1.17,1.17,0,1,0-.384-2.307l-4.941.821a1.169,1.169,0,0,0-.785,1.8l2.752,4.185a1.169,1.169,0,1,0,1.954-1.285l-.56-.852a20.151,20.151,0,0,0,6.318,1.014c.123,0,.246-.005.368-.007V68.749a2.364,2.364,0,0,0,2.361,2.361H51.3a9.5,9.5,0,1,0,9.159-16.043ZM33.239,46.2a1.169,1.169,0,0,1,1.169-1.17H54.2a1.17,1.17,0,0,1,0,2.339H34.408A1.169,1.169,0,0,1,33.239,46.2Zm0,5.742a1.169,1.169,0,0,1,1.169-1.169H54.2a1.17,1.17,0,0,1,0,2.339H34.408A1.169,1.169,0,0,1,33.239,51.942Zm0-11.485a1.169,1.169,0,0,1,1.169-1.17H47.552a1.17,1.17,0,0,1,0,2.339H34.409a1.169,1.169,0,0,1-1.17-1.169ZM12.276,31.99a1.17,1.17,0,1,1-2.027,1.167A20.25,20.25,0,0,1,34.141,3.835l-.561-.853A1.169,1.169,0,1,1,35.534,1.7l2.753,4.185a1.171,1.171,0,0,1-.785,1.8L32.56,8.5a1.2,1.2,0,0,1-.195.016,1.17,1.17,0,0,1-.19-2.323l1.093-.182A17.911,17.911,0,0,0,12.276,31.99ZM27.8,28.147a5.083,5.083,0,1,0-5.083-5.083A5.089,5.089,0,0,0,27.8,28.147Zm7.424-5.084A7.424,7.424,0,1,0,27.8,30.487,7.432,7.432,0,0,0,35.224,23.064Z" fill="#242222" fill-rule="evenodd"/>
      </g>
    </g>
  </g>
</svg>
