<svg xmlns="http://www.w3.org/2000/svg" xmlns:xlink="http://www.w3.org/1999/xlink" width="88.83" height="85.055" viewBox="0 0 88.83 85.055">
  <defs>
    <clipPath id="clip-path">
      <rect id="Rectangle_413319" data-name="Rectangle 413319" width="78" height="78" transform="translate(13604.563 779.181)" fill="#fff" stroke="#707070" stroke-width="1"/>
    </clipPath>
  </defs>
  <g id="Group_1210030" data-name="Group 1210030" transform="translate(-13593.733 -772.126)">
    <g id="Rectangle_413318" data-name="Rectangle 413318" transform="translate(13593.733 772.126)" fill="#fd9826" stroke="#af6a1a" stroke-width="3">
      <rect width="70" height="70" rx="10" stroke="none"/>
      <rect x="1.5" y="1.5" width="67" height="67" rx="8.5" fill="none"/>
    </g>
    <g id="Mask_Group_1099394" data-name="Mask Group 1099394" clip-path="url(#clip-path)">
      <g id="fixed-asset_17994332" transform="translate(13603.293 777.914)">
        <g id="Group_1210019" data-name="Group 1210019">
          <path id="Path_1249971" data-name="Path 1249971" d="M62.686,63.483a19.695,19.695,0,1,1,0-27.853A19.695,19.695,0,0,1,62.686,63.483Z" fill="#f5b445" fill-rule="evenodd"/>
          <path id="Path_1249972" data-name="Path 1249972" d="M48.759,70.5a20.942,20.942,0,1,1,14.817-6.126A20.883,20.883,0,0,1,48.759,70.5Zm0-39.371A18.429,18.429,0,1,0,61.8,36.519,18.378,18.378,0,0,0,48.759,31.127Z"/>
        </g>
        <g id="Group_1210020" data-name="Group 1210020">
          <path id="Path_1249973" data-name="Path 1249973" d="M59.943,60.737a15.814,15.814,0,1,1,0-22.365A15.807,15.807,0,0,1,59.943,60.737Z" fill="#ffe177" fill-rule="evenodd"/>
          <path id="Path_1249974" data-name="Path 1249974" d="M48.761,66.629a17.074,17.074,0,1,1,12.07-5A16.958,16.958,0,0,1,48.761,66.629Zm0-31.624a14.551,14.551,0,1,0,10.291,4.258A14.511,14.511,0,0,0,48.761,35Z"/>
        </g>
        <g id="Group_1210021" data-name="Group 1210021">
          <path id="Path_1249975" data-name="Path 1249975" d="M48.759,58.587a6.164,6.164,0,0,1-4.014-1.449,4.841,4.841,0,0,1-1.763-3.7,1.257,1.257,0,1,1,2.513,0,2.37,2.37,0,0,0,.886,1.793,3.818,3.818,0,0,0,4.752,0,2.258,2.258,0,0,0,0-3.586,3.834,3.834,0,0,0-2.493-.838,6.258,6.258,0,0,1-3.9-1.436,4.761,4.761,0,0,1,0-7.4,6.276,6.276,0,0,1,8.028,0,4.841,4.841,0,0,1,1.762,3.7,1.257,1.257,0,0,1-2.513,0,2.37,2.37,0,0,0-.886-1.793,3.814,3.814,0,0,0-4.752,0,2.252,2.252,0,0,0,0,3.58,3.834,3.834,0,0,0,2.493.838,6.258,6.258,0,0,1,3.9,1.436,4.766,4.766,0,0,1,0,7.4,6.15,6.15,0,0,1-4.012,1.45Z"/>
        </g>
        <g id="Group_1210022" data-name="Group 1210022">
          <path id="Path_1249976" data-name="Path 1249976" d="M48.761,62.069A1.256,1.256,0,0,1,47.5,60.812V57.321a1.257,1.257,0,0,1,2.513,0v3.492A1.256,1.256,0,0,1,48.761,62.069Zm0-19.019A1.256,1.256,0,0,1,47.5,41.793V38.3a1.257,1.257,0,1,1,2.513,0v3.492A1.256,1.256,0,0,1,48.761,43.05Z"/>
        </g>
        <g id="Group_1210023" data-name="Group 1210023">
          <path id="Path_1249977" data-name="Path 1249977" d="M36.139,44.6a19.695,19.695,0,1,1,0-27.853A19.695,19.695,0,0,1,36.139,44.6Z" fill="#f5b445" fill-rule="evenodd"/>
          <path id="Path_1249978" data-name="Path 1249978" d="M22.212,51.617a20.941,20.941,0,1,1,14.815-6.126A20.886,20.886,0,0,1,22.212,51.617Zm0-39.383a18.44,18.44,0,1,0,13.038,5.4,18.314,18.314,0,0,0-13.038-5.4Z"/>
        </g>
        <g id="Group_1210024" data-name="Group 1210024">
          <path id="Path_1249979" data-name="Path 1249979" d="M33.4,41.854a15.815,15.815,0,1,1,0-22.365A15.811,15.811,0,0,1,33.4,41.854Z" fill="#ffe177" fill-rule="evenodd"/>
          <path id="Path_1249980" data-name="Path 1249980" d="M22.211,47.746a17.074,17.074,0,1,1,12.075-5,16.955,16.955,0,0,1-12.075,5Zm0-31.623a14.549,14.549,0,1,0,10.3,4.256,14.512,14.512,0,0,0-10.3-4.256Z"/>
        </g>
        <g id="Group_1210025" data-name="Group 1210025">
          <path id="Path_1249981" data-name="Path 1249981" d="M22.211,39.707A6.148,6.148,0,0,1,18.2,38.256a4.841,4.841,0,0,1-1.762-3.7,1.257,1.257,0,1,1,2.513,0,2.37,2.37,0,0,0,.886,1.793,3.814,3.814,0,0,0,4.752,0,2.258,2.258,0,0,0,0-3.586,3.834,3.834,0,0,0-2.493-.838,6.258,6.258,0,0,1-3.9-1.436,4.761,4.761,0,0,1,0-7.4,6.278,6.278,0,0,1,8.028,0,4.836,4.836,0,0,1,1.763,3.7,1.257,1.257,0,1,1-2.513,0A2.366,2.366,0,0,0,24.59,25a3.814,3.814,0,0,0-4.75,0,2.252,2.252,0,0,0,0,3.581,3.834,3.834,0,0,0,2.493.838,6.258,6.258,0,0,1,3.9,1.436,4.766,4.766,0,0,1,0,7.4,6.169,6.169,0,0,1-4.017,1.452Z"/>
        </g>
        <g id="Group_1210026" data-name="Group 1210026">
          <path id="Path_1249982" data-name="Path 1249982" d="M22.211,43.187a1.256,1.256,0,0,1-1.257-1.257V38.438a1.257,1.257,0,0,1,2.513,0V41.93A1.256,1.256,0,0,1,22.211,43.187Zm0-19.019a1.256,1.256,0,0,1-1.257-1.257V19.419a1.257,1.257,0,0,1,2.513,0v3.492A1.257,1.257,0,0,1,22.211,24.167Z"/>
        </g>
        <g id="Group_1210027" data-name="Group 1210027">
          <path id="Path_1249983" data-name="Path 1249983" d="M68.455,61.031a5.426,5.426,0,0,0,5.412-5.412v-5.7c0-2.979-2.435-5.934-5.412-5.934A5.43,5.43,0,0,0,63.043,49.4v6.737C63.041,59.114,65.476,61.031,68.455,61.031Z" fill="#fff" fill-rule="evenodd"/>
          <path id="Path_1249984" data-name="Path 1249984" d="M68.455,62.288c-3.8,0-6.671-2.644-6.671-6.148V49.4a6.679,6.679,0,0,1,6.671-6.674c3.553,0,6.671,3.361,6.671,7.191v5.7a6.679,6.679,0,0,1-6.671,6.669Zm0-17.045A4.162,4.162,0,0,0,64.3,49.4v6.737c0,2.5,2.153,3.633,4.156,3.633a4.16,4.16,0,0,0,4.156-4.156v-5.7C72.611,47.515,70.591,45.242,68.455,45.242Z"/>
        </g>
        <g id="Group_1210028" data-name="Group 1210028">
          <path id="Path_1249985" data-name="Path 1249985" d="M58.895,52.511H78.013V69.556H58.895Z" fill="#ffe177" fill-rule="evenodd"/>
          <path id="Path_1249986" data-name="Path 1249986" d="M78.013,70.813H58.895a1.256,1.256,0,0,1-1.257-1.257V52.511a1.256,1.256,0,0,1,1.257-1.257H78.013a1.256,1.256,0,0,1,1.257,1.257V69.556A1.255,1.255,0,0,1,78.013,70.813ZM60.153,68.3h16.6V53.767h-16.6Z"/>
        </g>
        <g id="Group_1210029" data-name="Group 1210029">
          <path id="Path_1249987" data-name="Path 1249987" d="M66.671,64.781a.917.917,0,0,1-.093,0,1.105,1.105,0,0,1-.794-.444l-1.922-2.6a1.1,1.1,0,1,1,1.773-1.307l1.177,1.593L71.4,57.594a1.1,1.1,0,1,1,1.529,1.585l-5.493,5.293a1.1,1.1,0,0,1-.764.308Z"/>
        </g>
      </g>
    </g>
  </g>
</svg>
