<svg xmlns="http://www.w3.org/2000/svg" xmlns:xlink="http://www.w3.org/1999/xlink" width="88.83" height="85.055" viewBox="0 0 88.83 85.055">
  <defs>
    <clipPath id="clip-path">
      <rect id="Rectangle_413315" data-name="Rectangle 413315" width="78" height="78" transform="translate(1132 12396.901)" fill="#fff" stroke="#707070" stroke-width="1"/>
    </clipPath>
  </defs>
  <g id="Group_1210034" data-name="Group 1210034" transform="translate(-1121.17 -12389.847)">
    <g id="Rectangle_413314" data-name="Rectangle 413314" transform="translate(1121.17 12389.847)" fill="#fd9826" stroke="#af6a1a" stroke-width="3">
      <rect width="70" height="70" rx="10" stroke="none"/>
      <rect x="1.5" y="1.5" width="67" height="67" rx="8.5" fill="none"/>
    </g>
    <g id="Mask_Group_1099396" data-name="Mask Group 1099396" clip-path="url(#clip-path)">
      <g id="evaluation_12885093" transform="translate(1130.842 12395.597)">
        <path id="Path_1249993" data-name="Path 1249993" d="M72.436,61.07,66.071,68.2a1.256,1.256,0,0,1-.914.423H65.13a1.255,1.255,0,0,1-.9-.388L61,64.9a1.259,1.259,0,0,1,1.814-1.747l2.278,2.363,5.461-6.12a1.26,1.26,0,0,1,1.881,1.676ZM66.7,53.862A9.941,9.941,0,1,0,76.64,63.8,9.952,9.952,0,0,0,66.7,53.862Z" fill="#12b581"/>
        <path id="Path_1249994" data-name="Path 1249994" d="M42.414,60.018l-2.835-2.831-.013-.013-.018-.018-2.826-2.831-3.785,9.481,9.477-3.789Z" fill="#635463"/>
        <path id="Path_1249995" data-name="Path 1249995" d="M42.236,56.283l2.42,2.421,19.092-19.1-2.42-2.416Z" fill="#d6763e"/>
        <path id="Path_1249996" data-name="Path 1249996" d="M35.152,51.482a.091.091,0,0,0,.018-.027,1.112,1.112,0,0,1,.062-.094c.009-.013.018-.022.027-.036a.51.51,0,0,1,.062-.076.248.248,0,0,1,.031-.04l.018-.018.3-.3V47.038H33.953v7.426l1.137-2.849c.018-.045.04-.089.062-.134Z" fill="#12b581"/>
        <path id="Path_1249997" data-name="Path 1249997" d="M17.683,53.862H19.4v4.3H17.683Z" fill="#ff7577"/>
        <path id="Path_1249998" data-name="Path 1249998" d="M49.68,57.237,46.627,60.29v8.978a1.4,1.4,0,0,1-1.4,1.4H8.13a1.4,1.4,0,0,1-1.4-1.4V17.831a1.4,1.4,0,0,1,1.4-1.4h7.337V13.578H3.677V73.516h46Z" fill="#635463"/>
        <path id="Path_1249999" data-name="Path 1249999" d="M46.626,17.831V39.937l3.053-3.053v-23.3H37.889v2.853h7.342a1.4,1.4,0,0,1,1.4,1.4Z" fill="#635463"/>
        <path id="Path_1250000" data-name="Path 1250000" d="M62.219,34.516c.009.009.013.018.022.022l3.285,3.29L67.7,35.653l-6.615-6.615-2.175,2.175L62.2,34.5a.1.1,0,0,1,.022.018Z" fill="#ffe8db"/>
        <path id="Path_1250001" data-name="Path 1250001" d="M38.193,52.235,40.457,54.5,59.549,35.408,57.133,33,38.193,51.932Z" fill="#c2591d"/>
        <path id="Path_1250002" data-name="Path 1250002" d="M71.741,31.614A4.678,4.678,0,0,0,65.126,25L62.87,27.254l6.615,6.615,2.256-2.256Z" fill="#635463"/>
        <path id="Path_1250003" data-name="Path 1250003" d="M26.366,16.966a3.747,3.747,0,1,1,3.749-3.749A3.751,3.751,0,0,1,26.366,16.966Zm9-5.354H31.1a1.263,1.263,0,0,1-1.262-1.262,3.49,3.49,0,0,0-6.981,0A1.26,1.26,0,0,1,21.6,11.613H17.986v6.374H35.371V11.613Z" fill="#ffd574"/>
        <path id="Path_1250004" data-name="Path 1250004" d="M24.5,26.813a3.217,3.217,0,0,1,.918-.513v-.4a1.259,1.259,0,0,1,2.519,0v.4a3.387,3.387,0,0,1,.927.517,1.259,1.259,0,1,1-1.578,1.961,1.075,1.075,0,0,0-1.212,0c-.076.067-.107.12-.107.143a.267.267,0,0,0,.107.143c.165.134.29.156.718.192a3.53,3.53,0,0,1,2.073.74,2.637,2.637,0,0,1,0,4.208,3.324,3.324,0,0,1-.927.517v.392a1.259,1.259,0,1,1-2.519,0v-.4A3.209,3.209,0,0,1,24.5,34.2a1.257,1.257,0,1,1,1.574-1.961,1.023,1.023,0,0,0,.6.187h.018a.993.993,0,0,0,.6-.187.276.276,0,0,0,.107-.143c0-.018-.022-.071-.107-.143-.165-.129-.29-.156-.718-.192a3.53,3.53,0,0,1-2.073-.74,2.633,2.633,0,0,1,0-4.208Zm7.043,8.554a6.878,6.878,0,1,0-9.727,0,6.839,6.839,0,0,0,9.727,0Z" fill="#ffd574"/>
        <path id="Path_1250005" data-name="Path 1250005" d="M26.366,11.992a1.228,1.228,0,1,0,1.23,1.226A1.228,1.228,0,0,0,26.366,11.992Z" fill="#fff"/>
        <path id="Path_1250006" data-name="Path 1250006" d="M16.007,46.092A29.031,29.031,0,0,0,33.855,39.95a1.237,1.237,0,0,1-.4-.829,1.259,1.259,0,0,1,1.163-1.351l2.077-.152h.134a.153.153,0,0,1,.045,0,1.227,1.227,0,0,1,.539.161.023.023,0,0,0,.018.009c.027.018.058.04.089.058a.1.1,0,0,0,.022.018l.076.062,0,0a.116.116,0,0,1,.027.022l.058.058c.013.013.022.027.036.04l.04.053a.345.345,0,0,1,.036.049.377.377,0,0,1,.036.053.208.208,0,0,1,.031.053.542.542,0,0,1,.031.053c.009.018.013.036.022.053s.018.04.027.058.013.04.018.058.013.04.018.058l.013.067.013.053a.445.445,0,0,1,.009.076c0,.013,0,.027,0,.04l.147,1.966A1.258,1.258,0,0,1,37.028,42.1c-.036,0-.067,0-.1,0a1.257,1.257,0,0,1-1.047-.566,31.073,31.073,0,0,1-19.667,7.074h-.232a1.259,1.259,0,0,1,.022-2.519Zm4.03-22.23A9.39,9.39,0,1,1,17.282,30.5a9.409,9.409,0,0,1,2.755-6.642ZM9.249,68.149H44.108V62.055L31.145,67.231a1.213,1.213,0,0,1-.464.094,1.263,1.263,0,0,1-1.172-1.73l1.961-4.912H14.621a1.259,1.259,0,0,1,0-2.519h.544V53a1.666,1.666,0,0,1,1.667-1.658h3.428A1.665,1.665,0,0,1,21.922,53v5.162H23.3V49.592a1.669,1.669,0,0,1,1.667-1.663h3.428a1.666,1.666,0,0,1,1.663,1.663v8.572h1.377V46.181A1.667,1.667,0,0,1,33.1,44.519H36.53a1.663,1.663,0,0,1,1.663,1.663V48.37l5.915-5.915V18.95H37.76A2.312,2.312,0,0,1,35.58,20.5h-17.8A2.316,2.316,0,0,1,15.6,18.95H9.249Z" fill="#fff"/>
        <path id="Path_1250007" data-name="Path 1250007" d="M25.818,50.448h1.721v7.716H25.818Z" fill="#ffd574"/>
        <g id="Group_1210033" data-name="Group 1210033">
          <path id="Path_1250008" data-name="Path 1250008" d="M72.334,59.292a1.261,1.261,0,0,0-1.779.1l-5.461,6.12-2.278-2.363A1.259,1.259,0,0,0,61,64.9l3.223,3.339a1.256,1.256,0,0,0,.9.388h.027a1.256,1.256,0,0,0,.914-.423l6.366-7.132a1.265,1.265,0,0,0-.1-1.779Z" fill="#030403"/>
          <path id="Path_1250009" data-name="Path 1250009" d="M66.7,73.743A9.941,9.941,0,1,1,76.64,63.8,9.957,9.957,0,0,1,66.7,73.743Zm0-22.4A12.459,12.459,0,1,0,79.158,63.8,12.471,12.471,0,0,0,66.7,51.344Z" fill="#030403"/>
          <path id="Path_1250010" data-name="Path 1250010" d="M24.494,31.021a3.531,3.531,0,0,0,2.073.74c.428.036.553.062.718.192.085.071.107.125.107.143a.276.276,0,0,1-.107.143.993.993,0,0,1-.6.187H26.67a1.023,1.023,0,0,1-.6-.187A1.257,1.257,0,1,0,24.5,34.2a3.217,3.217,0,0,0,.918.513v.4a1.259,1.259,0,1,0,2.519,0v-.392a3.322,3.322,0,0,0,.927-.517,2.637,2.637,0,0,0,0-4.208,3.531,3.531,0,0,0-2.073-.74c-.428-.036-.553-.058-.718-.192a.267.267,0,0,1-.107-.143c0-.022.031-.076.107-.143a1.075,1.075,0,0,1,1.212,0,1.259,1.259,0,1,0,1.578-1.961,3.387,3.387,0,0,0-.927-.517v-.4a1.259,1.259,0,0,0-2.519,0v.4a3.209,3.209,0,0,0-.918.513,2.633,2.633,0,0,0,0,4.208Z" fill="#030403"/>
          <path id="Path_1250011" data-name="Path 1250011" d="M26.366,14.448a1.228,1.228,0,1,1,1.23-1.23A1.232,1.232,0,0,1,26.366,14.448Zm0-4.975a3.747,3.747,0,1,0,3.749,3.744A3.75,3.75,0,0,0,26.366,9.473Z" fill="#030403"/>
          <path id="Path_1250012" data-name="Path 1250012" d="M21.815,25.645A6.871,6.871,0,1,1,19.8,30.5a6.854,6.854,0,0,1,2.015-4.859Zm4.863,14.247a9.383,9.383,0,1,0-6.642-2.741,9.372,9.372,0,0,0,6.642,2.741Z" fill="#030403"/>
          <path id="Path_1250013" data-name="Path 1250013" d="M3.677,13.578H15.468v2.853H8.13a1.4,1.4,0,0,0-1.4,1.4V69.268a1.4,1.4,0,0,0,1.4,1.4h37.1a1.4,1.4,0,0,0,1.4-1.4V60.29l3.053-3.053V73.516h-46ZM19.4,53.862v4.3H17.683v-4.3Zm8.135-3.41v7.712H25.818V50.452ZM15.6,18.95a2.316,2.316,0,0,0,2.18,1.551h17.8a2.312,2.312,0,0,0,2.18-1.551h6.348V42.455L38.192,48.37V46.182a1.663,1.663,0,0,0-1.663-1.663H33.1a1.667,1.667,0,0,0-1.667,1.663V58.164H30.057V49.592a1.666,1.666,0,0,0-1.663-1.663H24.967A1.669,1.669,0,0,0,23.3,49.592v8.572H21.922V53a1.665,1.665,0,0,0-1.663-1.658H16.832A1.666,1.666,0,0,0,15.164,53v5.162h-.544a1.259,1.259,0,0,0,0,2.519h16.85l-1.961,4.912a1.263,1.263,0,0,0,1.172,1.73,1.213,1.213,0,0,0,.464-.094l12.963-5.175v6.094H9.249V18.95H15.6Zm2.389-7.337H21.6a1.26,1.26,0,0,0,1.262-1.262,3.49,3.49,0,0,1,6.981,0A1.263,1.263,0,0,0,31.1,11.613h4.27v6.374H17.986V11.613Zm19.9,1.966H49.68v23.3l-3.053,3.053V17.831a1.4,1.4,0,0,0-1.4-1.4H37.89V13.578ZM57.133,33l2.416,2.412L40.457,54.5l-2.264-2.264v-.3L57.133,33Zm3.954-3.958L67.7,35.653l-2.175,2.175-3.285-3.29c-.009,0-.013-.013-.022-.022A.1.1,0,0,0,62.2,34.5l-3.285-3.285ZM65.126,25a4.678,4.678,0,0,1,6.615,6.615L69.485,33.87,62.87,27.255,65.126,25ZM33.953,54.464V47.038h1.721v3.851l-.3.3-.018.018a.239.239,0,0,0-.031.04.52.52,0,0,0-.062.076c-.009.013-.018.022-.027.036a1.114,1.114,0,0,0-.062.094.092.092,0,0,1-.018.027c-.022.045-.045.089-.062.134l-1.137,2.849Zm2.768-.138,2.826,2.831.018.018.013.013,2.835,2.831-9.477,3.789,3.785-9.481ZM44.656,58.7l-2.42-2.42L61.328,37.191l2.42,2.416L44.656,58.7ZM3.552,76.039H49.809A2.4,2.4,0,0,0,52.2,73.645V54.718L73.519,33.4A7.2,7.2,0,0,0,63.347,23.216L52.2,34.364V13.449a2.392,2.392,0,0,0-2.389-2.389H37.862A2.312,2.312,0,0,0,35.58,9.094H32.224a6.009,6.009,0,0,0-11.75,0h-2.7a2.312,2.312,0,0,0-2.282,1.966H3.552a2.393,2.393,0,0,0-2.394,2.389v60.2a2.4,2.4,0,0,0,2.394,2.394Z" fill="#030403"/>
          <path id="Path_1250014" data-name="Path 1250014" d="M15.985,48.611h.232a31.073,31.073,0,0,0,19.667-7.074,1.258,1.258,0,0,0,1.047.566c.031,0,.062,0,.1,0a1.258,1.258,0,0,0,1.159-1.351l-.147-1.966c0-.013,0-.027,0-.04a.429.429,0,0,0-.009-.076l-.013-.053L38,38.546c0-.018-.013-.04-.018-.058s-.013-.04-.018-.058-.018-.04-.027-.058-.013-.036-.022-.053a.59.59,0,0,0-.031-.053.21.21,0,0,0-.031-.053.368.368,0,0,0-.036-.053.345.345,0,0,0-.036-.049l-.04-.053c-.013-.013-.022-.027-.036-.04l-.058-.058a.116.116,0,0,0-.027-.022l0,0-.076-.062a.1.1,0,0,1-.022-.018c-.031-.018-.062-.04-.089-.058a.023.023,0,0,1-.018-.009,1.229,1.229,0,0,0-.539-.161.153.153,0,0,0-.045,0H36.7l-2.077.152a1.259,1.259,0,0,0-1.163,1.351,1.238,1.238,0,0,0,.4.829,29.03,29.03,0,0,1-17.848,6.143,1.259,1.259,0,0,0-.022,2.519Z" fill="#030403"/>
        </g>
      </g>
    </g>
  </g>
</svg>
