<svg xmlns="http://www.w3.org/2000/svg" xmlns:xlink="http://www.w3.org/1999/xlink" width="88.83" height="85.054" viewBox="0 0 88.83 85.054">
  <defs>
    <clipPath id="clip-path">
      <rect id="Rectangle_413279" data-name="Rectangle 413279" width="78" height="78" transform="translate(292 7423.622)" fill="#fff" stroke="#707070" stroke-width="1"/>
    </clipPath>
  </defs>
  <g id="Group_1209928" data-name="Group 1209928" transform="translate(-281.17 -7416.568)">
    <g id="Rectangle_413278" data-name="Rectangle 413278" transform="translate(281.17 7416.568)" fill="#fd9826" stroke="#af6a1a" stroke-width="3">
      <rect width="70" height="70" rx="10" stroke="none"/>
      <rect x="1.5" y="1.5" width="67" height="67" rx="8.5" fill="none"/>
    </g>
    <g id="Mask_Group_1099382" data-name="Mask Group 1099382" clip-path="url(#clip-path)">
      <g id="ledger_2244571" transform="translate(290.742 7422.364)">
        <g id="Group_1209926" data-name="Group 1209926">
          <path id="Path_1249748" data-name="Path 1249748" d="M15.1,2.516V7.548H32.71V20.129H7.548V15.1H2.516v45.29H37.742v-7.8a12.605,12.605,0,0,1-9.813-9.813h-7.8V45.29L10.065,40.258l10.065-5.032v2.516h7.8a12.605,12.605,0,0,1,9.813-9.813V2.516Z" fill="#f0d0b4"/>
          <path id="Path_1249749" data-name="Path 1249749" d="M32.71,7.548V20.129H7.548V15.1H15.1V7.548Z" fill="#ff826e"/>
          <path id="Path_1249750" data-name="Path 1249750" d="M15.1,7.548V15.1H2.516L15.1,2.516Z" fill="#e6e9ed"/>
          <path id="Path_1249751" data-name="Path 1249751" d="M42.774,20.129v7.8a12.605,12.605,0,0,1,9.813,9.813h7.8V35.226l10.065,5.032L60.387,45.29V42.774h-7.8a12.605,12.605,0,0,1-9.813,9.813V78H65.419V65.419H78V20.129Z" fill="#e6e9ed"/>
          <path id="Path_1249752" data-name="Path 1249752" d="M47.806,65.419H60.387v7.548H47.806Z" fill="#b4dd7f"/>
          <path id="Path_1249753" data-name="Path 1249753" d="M78,65.419,65.419,78V65.419Z" fill="#ff826e"/>
          <path id="Path_1249754" data-name="Path 1249754" d="M20.129,37.742h7.8a12.706,12.706,0,0,0,0,5.032h-7.8V45.29L10.065,40.258l10.065-5.032Z" fill="#b4dd7f"/>
          <path id="Path_1249755" data-name="Path 1249755" d="M52.839,40.258a12.642,12.642,0,0,0-.252-2.516h7.8V35.226l10.065,5.032L60.387,45.29V42.774h-7.8A12.642,12.642,0,0,0,52.839,40.258Z" fill="#b4dd7f"/>
          <path id="Path_1249756" data-name="Path 1249756" d="M52.587,37.742a12.567,12.567,0,1,1-9.813-9.813A12.642,12.642,0,0,1,52.587,37.742Z" fill="#fcd770"/>
        </g>
        <g id="Group_1209927" data-name="Group 1209927">
          <path id="Path_1249757" data-name="Path 1249757" d="M41.516,36.484a1.26,1.26,0,0,1,1.258,1.258H45.29a3.779,3.779,0,0,0-3.774-3.774V31.452H39v2.516H35.226v3.774A3.779,3.779,0,0,0,39,41.516h2.516a1.259,1.259,0,0,1,1.258,1.258v1.258H39a1.259,1.259,0,0,1-1.258-1.258H35.226A3.779,3.779,0,0,0,39,46.548v2.516h2.516V46.548H45.29V42.774A3.779,3.779,0,0,0,41.516,39H39a1.26,1.26,0,0,1-1.258-1.258V36.484Z"/>
          <path id="Path_1249758" data-name="Path 1249758" d="M41.516,18.871v7.613c-.415-.038-.833-.064-1.258-.064s-.843.026-1.258.064V1.258H14.576L1.258,14.576V61.645H39V54.033c.415.038.833.064,1.258.064s.843-.026,1.258-.064V79.258H65.94L79.258,65.94V18.871ZM5.553,13.839l8.286-8.286v8.286Zm3.253,2.516h7.548V8.806h15.1V18.871H8.806ZM36.484,59.129H3.774V16.355H6.29v5.032H33.968V6.29H16.355V3.774H36.484V26.955a13.878,13.878,0,0,0-9.529,9.529H21.387V33.19L7.251,40.258l14.136,7.068V44.032h5.568a13.878,13.878,0,0,0,9.529,9.529Zm-10-17.613H18.871v1.739l-5.993-3,5.993-3V39h7.613c-.038.415-.064.833-.064,1.258S26.446,41.1,26.484,41.516Zm2.452-1.258A11.323,11.323,0,1,1,40.258,51.581,11.336,11.336,0,0,1,28.935,40.258Zm15.1,13.3a13.878,13.878,0,0,0,9.529-9.529h5.568v3.294l14.136-7.068L59.129,33.19v3.294H53.561a13.878,13.878,0,0,0-9.529-9.529V21.387h32.71V64.161H64.161V76.742H44.032ZM54.033,39h7.613V37.261l5.993,3-5.993,3V41.516H54.033c.038-.415.064-.833.064-1.258S54.07,39.415,54.033,39Zm20.93,27.677-8.286,8.286V66.677Z"/>
          <path id="Path_1249759" data-name="Path 1249759" d="M6.29,23.9H8.806v2.516H6.29Z"/>
          <path id="Path_1249760" data-name="Path 1249760" d="M11.323,23.9H33.968v2.516H11.323Z"/>
          <path id="Path_1249761" data-name="Path 1249761" d="M6.29,28.935H26.419v2.516H6.29Z"/>
          <path id="Path_1249762" data-name="Path 1249762" d="M6.29,49.065H27.677v2.516H6.29Z"/>
          <path id="Path_1249763" data-name="Path 1249763" d="M6.29,54.1H33.968v2.516H6.29Z"/>
          <path id="Path_1249764" data-name="Path 1249764" d="M46.548,64.161V74.226h15.1V64.161ZM59.129,71.71H49.065V66.677H59.129Z"/>
          <path id="Path_1249765" data-name="Path 1249765" d="M71.71,59.129h2.516v2.516H71.71Z"/>
          <path id="Path_1249766" data-name="Path 1249766" d="M46.548,59.129H69.194v2.516H46.548Z"/>
          <path id="Path_1249767" data-name="Path 1249767" d="M46.548,54.1H74.226v2.516H46.548Z"/>
          <path id="Path_1249768" data-name="Path 1249768" d="M54.1,49.065H74.226v2.516H54.1Z"/>
          <path id="Path_1249769" data-name="Path 1249769" d="M46.548,23.9h2.516v2.516H46.548Z"/>
          <path id="Path_1249770" data-name="Path 1249770" d="M51.581,23.9H74.226v2.516H51.581Z"/>
          <path id="Path_1249771" data-name="Path 1249771" d="M56.613,28.935H74.226v2.516H56.613Z"/>
        </g>
      </g>
    </g>
  </g>
</svg>
