<svg xmlns="http://www.w3.org/2000/svg" xmlns:xlink="http://www.w3.org/1999/xlink" width="88.83" height="85.055" viewBox="0 0 88.83 85.055">
  <defs>
    <clipPath id="clip-path">
      <rect id="Rectangle_413313" data-name="Rectangle 413313" width="78" height="78" transform="translate(766.415 12396.901)" fill="#fff" stroke="#707070" stroke-width="1"/>
    </clipPath>
  </defs>
  <g id="Group_1210035" data-name="Group 1210035" transform="translate(-755.585 -12389.847)">
    <g id="Rectangle_413312" data-name="Rectangle 413312" transform="translate(755.585 12389.847)" fill="#fd9826" stroke="#af6a1a" stroke-width="3">
      <rect width="70" height="70" rx="10" stroke="none"/>
      <rect x="1.5" y="1.5" width="67" height="67" rx="8.5" fill="none"/>
    </g>
    <g id="Mask_Group_1099397" data-name="Mask Group 1099397" clip-path="url(#clip-path)">
      <g id="recovery_17373376" transform="translate(765.157 12395.644)">
        <path id="Path_1250015" data-name="Path 1250015" d="M39.027,31.561a9.8,9.8,0,1,0,9.794,9.794,9.8,9.8,0,0,0-9.794-9.794Z" fill="#eceff1"/>
        <path id="Path_1250016" data-name="Path 1250016" d="M29.05,22.609,24.413,20.9a1.1,1.1,0,0,0-1.159.254L18.827,25.58a1.1,1.1,0,0,0-.254,1.159l1.71,4.637-1.565,3.778-4.49,2.071a1.1,1.1,0,0,0-.64,1v6.258a1.1,1.1,0,0,0,.639,1l4.491,2.075,1.565,3.774-1.71,4.637a1.1,1.1,0,0,0,.254,1.159l4.426,4.426a1.1,1.1,0,0,0,1.159.254L29.05,60.1l3.778,1.565,2.071,4.49a1.1,1.1,0,0,0,1,.64h6.258a1.1,1.1,0,0,0,1-.64l2.071-4.49L49,60.1l4.637,1.71a1.1,1.1,0,0,0,1.159-.254l4.426-4.426a1.1,1.1,0,0,0,.254-1.159l-1.71-4.637,1.565-3.774,4.491-2.075a1.1,1.1,0,0,0,.639-1V38.225a1.1,1.1,0,0,0-.64-1l-4.49-2.071-1.565-3.778,1.71-4.637a1.1,1.1,0,0,0-.254-1.159L54.8,21.154a1.1,1.1,0,0,0-1.159-.254L49,22.609l-3.778-1.565-2.071-4.486a1.1,1.1,0,0,0-1-.639H35.9a1.1,1.1,0,0,0-1,.639l-2.071,4.486-3.778,1.565Zm5.6-.251L36.6,18.121h4.85l1.956,4.237a1.1,1.1,0,0,0,.578.556l4.573,1.894a1.1,1.1,0,0,0,.8.016l4.381-1.615,3.43,3.43L55.558,31.02a1.1,1.1,0,0,0,.016.8L57.468,36.4a1.1,1.1,0,0,0,.556.578l4.241,1.956v4.85l-4.242,1.96a1.1,1.1,0,0,0-.555.578l-1.894,4.569a1.1,1.1,0,0,0-.016.8l1.615,4.381-3.43,3.43-4.381-1.615a1.1,1.1,0,0,0-.8.016l-4.573,1.894a1.1,1.1,0,0,0-.578.556l-1.956,4.241H36.6l-1.956-4.241a1.1,1.1,0,0,0-.578-.556L29.495,57.9a1.1,1.1,0,0,0-.8-.016L24.312,59.5l-3.43-3.43L22.5,51.689a1.1,1.1,0,0,0-.016-.8l-1.894-4.569a1.1,1.1,0,0,0-.555-.578l-4.242-1.96V38.93l4.241-1.956a1.1,1.1,0,0,0,.556-.578l1.894-4.573a1.1,1.1,0,0,0,.016-.8l-1.615-4.381,3.43-3.43,4.381,1.615a1.1,1.1,0,0,0,.8-.016l4.573-1.894a1.1,1.1,0,0,0,.578-.556ZM5.664,53.71a1.1,1.1,0,1,1-2.064.766A37.788,37.788,0,0,1,29.764,4.735l-2.231-1.29a1.1,1.1,0,1,1,1.1-1.906l4.712,2.724a1.1,1.1,0,0,1,.4,1.5L31.03,10.478a1.1,1.1,0,1,1-1.907-1.1l1.495-2.59A35.6,35.6,0,0,0,5.664,53.71ZM68.1,65.472a37.772,37.772,0,0,1-56.15,2.21v2.585a1.1,1.1,0,0,1-2.2,0V64.819a1.1,1.1,0,0,1,1.1-1.1h5.443a1.1,1.1,0,1,1,0,2.2H13.307a35.57,35.57,0,0,0,53.1-1.855A1.1,1.1,0,0,1,68.1,65.472Zm10.609-13.21L73.99,54.981a1.1,1.1,0,0,1-1.5-.4l-2.719-4.712a1.1,1.1,0,0,1,1.907-1.1l1.5,2.591A35.608,35.608,0,0,0,45.01,6.291a1.1,1.1,0,0,1,.367-2.171,37.8,37.8,0,0,1,30,47.52l2.23-1.286a1.1,1.1,0,0,1,1.1,1.907ZM39.027,53.354a12,12,0,1,0-12-12,12.011,12.011,0,0,0,12,12Zm0-21.793a9.8,9.8,0,1,1-9.794,9.794,9.8,9.8,0,0,1,9.794-9.794ZM37.628,42.5l-.254-5.6a1.654,1.654,0,0,1,3.307,0l-.254,5.6a1.4,1.4,0,1,1-2.8,0Zm2.8,3.571a1.4,1.4,0,1,1-1.4-1.4A1.4,1.4,0,0,1,40.432,46.066Z" fill-rule="evenodd"/>
        <path id="Path_1250017" data-name="Path 1250017" d="M57.468,36.4l-1.894-4.573a1.1,1.1,0,0,1-.016-.8l1.615-4.381-3.43-3.43-4.381,1.615a1.1,1.1,0,0,1-.8-.016l-4.573-1.894a1.1,1.1,0,0,1-.578-.556l-1.956-4.237H36.6l-1.956,4.237a1.1,1.1,0,0,1-.578.556L29.5,24.808a1.1,1.1,0,0,1-.8.016l-4.381-1.615-3.43,3.43L22.5,31.02a1.1,1.1,0,0,1-.016.8L20.587,36.4a1.1,1.1,0,0,1-.556.578L15.79,38.93v4.85l4.242,1.96a1.1,1.1,0,0,1,.555.578l1.894,4.569a1.1,1.1,0,0,1,.016.8l-1.615,4.381,3.43,3.43,4.381-1.615a1.1,1.1,0,0,1,.8.016l4.573,1.894a1.1,1.1,0,0,1,.578.556L36.6,64.592h4.849l1.956-4.241a1.1,1.1,0,0,1,.578-.556L48.56,57.9a1.1,1.1,0,0,1,.8-.016L53.743,59.5l3.43-3.43-1.615-4.381a1.1,1.1,0,0,1,.016-.8l1.894-4.569a1.1,1.1,0,0,1,.555-.578l4.242-1.96V38.93l-4.241-1.956a1.1,1.1,0,0,1-.556-.578ZM39.027,53.354a12,12,0,1,1,12-12A12.011,12.011,0,0,1,39.027,53.354Z" fill="#ffc338"/>
      </g>
    </g>
  </g>
</svg>
