<svg xmlns="http://www.w3.org/2000/svg" xmlns:xlink="http://www.w3.org/1999/xlink" width="88.83" height="85.054" viewBox="0 0 88.83 85.054">
  <defs>
    <clipPath id="clip-path">
      <rect id="Rectangle_413291" data-name="Rectangle 413291" width="78" height="78" transform="translate(1135.83 8139.383)" fill="#fff" stroke="#707070" stroke-width="1"/>
    </clipPath>
  </defs>
  <g id="Group_1209994" data-name="Group 1209994" transform="translate(-1125 -8132.329)">
    <g id="Rectangle_413290" data-name="Rectangle 413290" transform="translate(1125 8132.329)" fill="#fd9826" stroke="#af6a1a" stroke-width="3">
      <rect width="70" height="70" rx="10" stroke="none"/>
      <rect x="1.5" y="1.5" width="67" height="67" rx="8.5" fill="none"/>
    </g>
    <g id="Mask_Group_1099385" data-name="Mask Group 1099385" clip-path="url(#clip-path)">
      <g id="compensation_16648074" transform="translate(1135.829 8139.383)">
        <g id="Group_1209970" data-name="Group 1209970">
          <path id="Path_1249839" data-name="Path 1249839" d="M39.352,12.968,31.613,17.18a2.782,2.782,0,1,0,2.661,4.886l8.388-4.56Z" fill="#fbc894" fill-rule="evenodd"/>
          <path id="Path_1249840" data-name="Path 1249840" d="M40.615,7.96l-16.2,8.805a2.783,2.783,0,1,0,2.666,4.886L35.446,17.1a2.791,2.791,0,0,0,1.907,2.3q4.787,1.538,9.575,3.079a9.136,9.136,0,0,0,7.418-.695l9.822-5.343L58.515,6.085,54.854,8.076a6.628,6.628,0,0,1-5.372.506l-3.5-1.129a6.63,6.63,0,0,0-5.37.507Z" fill="#fbbd80" fill-rule="evenodd"/>
          <path id="Path_1249841" data-name="Path 1249841" d="M60.59,18.4l3.577-1.945L58.515,6.086,54.854,8.077c-.058.034-.113.062-.172.091Z" fill="#e2aa73" fill-rule="evenodd"/>
          <path id="Path_1249842" data-name="Path 1249842" d="M67.807,16.878,59.679,2.768a.734.734,0,0,0-1-.264L55.069,4.584a.729.729,0,0,0-.264.992l8.128,14.106a.726.726,0,0,0,.992.268l3.614-2.079A.728.728,0,0,0,67.807,16.878Z" fill="#0593fc" fill-rule="evenodd"/>
          <path id="Path_1249843" data-name="Path 1249843" d="M50.985,17.949q-1.9-.608-3.8-1.222-4.061-1.312-8.124-2.614a2.782,2.782,0,1,0-1.706,5.3l7.43,2.389Z" fill="#fbbd80" fill-rule="evenodd"/>
          <path id="Path_1249844" data-name="Path 1249844" d="M67.807,16.878,59.679,2.768c-.008-.008-.012-.021-.021-.029l7.559,13.118a.729.729,0,0,1-.264.992l-3.618,2.083a.727.727,0,0,1-.97-.239l.568.987a.726.726,0,0,0,.992.268l3.614-2.079a.726.726,0,0,0,.268-.99Z" fill="#0584e3" fill-rule="evenodd"/>
          <path id="Path_1249845" data-name="Path 1249845" d="M38.648,65.033l7.734-4.212a2.782,2.782,0,1,0-2.661-4.886l-8.383,4.56Z" fill="#fbc894" fill-rule="evenodd"/>
          <path id="Path_1249846" data-name="Path 1249846" d="M37.385,70.04l16.194-8.805a2.782,2.782,0,0,0-2.661-4.886L42.556,60.9a2.8,2.8,0,0,0-1.907-2.3q-4.787-1.538-9.575-3.079a9.134,9.134,0,0,0-7.418.695l-9.823,5.341L19.48,71.914l3.664-1.991a6.618,6.618,0,0,1,5.367-.506l3.5,1.129a6.631,6.631,0,0,0,5.373-.506Z" fill="#fbbd80" fill-rule="evenodd"/>
          <path id="Path_1249847" data-name="Path 1249847" d="M17.41,59.6l-3.577,1.945L19.48,71.914l3.664-1.991c.055-.034.113-.062.168-.091Z" fill="#e2aa73" fill-rule="evenodd"/>
          <path id="Path_1249848" data-name="Path 1249848" d="M10.193,61.122l8.128,14.11a.729.729,0,0,0,.992.264l3.614-2.079a.726.726,0,0,0,.268-.992L15.067,58.319a.73.73,0,0,0-.995-.268L10.457,60.13a.731.731,0,0,0-.264.992Z" fill="#0593fc" fill-rule="evenodd"/>
          <path id="Path_1249849" data-name="Path 1249849" d="M27.011,60.051q1.9.608,3.8,1.222,4.065,1.312,8.128,2.614a2.782,2.782,0,0,0,1.706-5.3L33.217,56.2Z" fill="#fbbd80" fill-rule="evenodd"/>
          <path id="Path_1249850" data-name="Path 1249850" d="M10.193,61.122l8.128,14.11c0,.009.012.021.017.029L10.778,62.143a.725.725,0,0,1,.268-.992l3.614-2.083a.733.733,0,0,1,.975.239l-.568-.987a.73.73,0,0,0-.995-.268L10.457,60.13a.731.731,0,0,0-.264.992Z" fill="#0584e3" fill-rule="evenodd"/>
          <path id="Path_1249851" data-name="Path 1249851" d="M42.23,50.776a12.1,12.1,0,0,0,3.024-1.255.727.727,0,0,1,.716-.021l1.761.9a.743.743,0,0,0,.865-.139l1.79-1.79a.735.735,0,0,0,.134-.865l-.9-1.761a.716.716,0,0,1,.021-.716A12.3,12.3,0,0,0,50.9,42.1a.721.721,0,0,1,.489-.518l1.878-.611a.738.738,0,0,0,.515-.711V37.736a.738.738,0,0,0-.515-.711l-1.878-.611A.712.712,0,0,1,50.9,35.9a12.205,12.205,0,0,0-1.255-3.024.72.72,0,0,1-.021-.716l.9-1.761a.735.735,0,0,0-.134-.865l-1.79-1.79a.743.743,0,0,0-.865-.139l-1.761.9a.727.727,0,0,1-.716-.021,12.128,12.128,0,0,0-3.024-1.255.726.726,0,0,1-.519-.489L41.1,24.855a.741.741,0,0,0-.711-.518H37.86a.738.738,0,0,0-.711.518l-.611,1.878a.728.728,0,0,1-.519.489,12.034,12.034,0,0,0-3.024,1.255.728.728,0,0,1-.716.021l-1.766-.9a.739.739,0,0,0-.862.139l-1.79,1.79a.743.743,0,0,0-.139.865l.9,1.761a.727.727,0,0,1-.021.716A12.058,12.058,0,0,0,27.344,35.9a.726.726,0,0,1-.489.518l-1.878.611a.741.741,0,0,0-.518.711v2.527a.742.742,0,0,0,.518.711l1.878.611a.721.721,0,0,1,.489.518A12.1,12.1,0,0,0,28.6,45.127a.727.727,0,0,1,.021.716l-.9,1.761a.743.743,0,0,0,.139.865l1.79,1.79a.739.739,0,0,0,.862.139l1.766-.9a.719.719,0,0,1,.711.021,12.136,12.136,0,0,0,3.029,1.255.731.731,0,0,1,.519.489l.611,1.878a.736.736,0,0,0,.711.518h2.527a.742.742,0,0,0,.711-.518l.611-1.878A.723.723,0,0,1,42.23,50.776Z" fill="#2f5274" fill-rule="evenodd"/>
          <path id="Path_1249852" data-name="Path 1249852" d="M39.125,47.057A8.057,8.057,0,1,0,31.067,39,8.072,8.072,0,0,0,39.125,47.057Z" fill="#ebf5fc" fill-rule="evenodd"/>
          <path id="Path_1249853" data-name="Path 1249853" d="M32.454,39a8.055,8.055,0,0,1,7.363-8.027c-.225-.021-.456-.029-.69-.029a8.057,8.057,0,0,0,0,16.115c.235,0,.465-.008.69-.029A8.06,8.06,0,0,1,32.454,39Z" fill="#d4dde3" fill-rule="evenodd"/>
        </g>
        <path id="Path_1249854" data-name="Path 1249854" d="M69.792,15.556,61.4.995A1.968,1.968,0,0,0,58.709.264L54.976,2.415A1.98,1.98,0,0,0,54.254,5.1l.526.911a5.639,5.639,0,0,1-4.586.427L46.582,5.277a7.981,7.981,0,0,0-6.5.608l-16.721,9.1a4.093,4.093,0,0,0,3.917,7.188L29.242,21.1A4.088,4.088,0,0,0,34.7,22.6L38.6,20.477l8.214,2.648a11.142,11.142,0,0,0,3.434.559,10.739,10.739,0,0,0,5.178-1.367l6.662-3.629.567.984a1.974,1.974,0,0,0,1.709.984,1.942,1.942,0,0,0,.977-.262l3.734-2.148a1.973,1.973,0,0,0,.721-2.69Zm-36.255,4.9a1.662,1.662,0,0,1-2.153-.519l3.289-1.79a4.116,4.116,0,0,0,1.015,1.138Zm20.722-.277a8.252,8.252,0,0,1-6.7.628L37.67,17.617a1.666,1.666,0,0,1-1.133-1.371c0-.023-.009-.046-.014-.069s0-.046,0-.069a1.623,1.623,0,0,1,.076-.574,1.659,1.659,0,0,1,2.087-1.066l4.159,1.338,4.228,1.36a1.218,1.218,0,0,0,.746-2.319l-4.226-1.36-4.161-1.339a4.075,4.075,0,0,0-5.327,3.531L29.38,18.251a1.145,1.145,0,0,0-.12.066l-3.141,1.711a1.664,1.664,0,0,1-2.252-.664,1.663,1.663,0,0,1,.663-2.243l16.721-9.1a5.633,5.633,0,0,1,4.586-.428l3.612,1.161a8.093,8.093,0,0,0,6.5-.608L56,8.12l4.87,8.454ZM64.527,18.05,57.534,5.914a.054.054,0,0,1-.006-.014c-.006-.012-.015-.024-.021-.035L56.6,4.292l2.92-1.683L67.45,16.369ZM53.834,55.506a4.057,4.057,0,0,0-3.112.329L48.761,56.9a4.1,4.1,0,0,0-5.468-1.494L39.4,57.525l-8.211-2.648a10.608,10.608,0,0,0-8.612.806l-6.664,3.629-.567-.983a1.973,1.973,0,0,0-2.689-.724L8.921,59.757a1.974,1.974,0,0,0-.711,2.686L16.6,77.014a1.966,1.966,0,0,0,2.687.722l3.723-2.147a1.968,1.968,0,0,0,.731-2.692l-.524-.909a5.66,5.66,0,0,1,4.589-.428l3.608,1.161a8.359,8.359,0,0,0,2.578.416,8.152,8.152,0,0,0,3.924-1.024l16.717-9.1a4.083,4.083,0,0,0-.8-7.508Zm-9.377,2.04a1.66,1.66,0,0,1,2.16.521l-3.291,1.792a4.1,4.1,0,0,0-1.019-1.143ZM18.476,75.393,10.55,61.629l2.922-1.68.9,1.571a.09.09,0,0,0,.006.012c.006.012.014.021.02.034L21.4,73.709Zm34.99-14.515-16.717,9.1a5.638,5.638,0,0,1-4.59.428l-3.612-1.162a8.013,8.013,0,0,0-6.5.609L22,69.88l-4.87-8.457,6.61-3.6a8.252,8.252,0,0,1,6.7-.628l9.887,3.187a1.664,1.664,0,0,1,1.132,1.376c0,.015.006.03.009.046s0,.058,0,.087a1.654,1.654,0,0,1-2.159,1.639l-4.24-1.363-4.151-1.336a1.217,1.217,0,0,0-.743,2.319l4.15,1.335q2.121.683,4.238,1.363a4.072,4.072,0,0,0,5.326-3.524l8-4.352a1.655,1.655,0,0,1,1.583,2.907Zm-17.3-23.592a2.933,2.933,0,0,1,1.744-2.675v-.568a1.217,1.217,0,1,1,2.434,0v.445a2.977,2.977,0,0,1,1.5,1.053A1.217,1.217,0,0,1,39.9,37a.515.515,0,0,0-.405-.21h-.4a.494.494,0,1,0,0,.989h.2a1.191,1.191,0,0,1,.277.034,2.926,2.926,0,0,1,.772,5.574v.568a1.217,1.217,0,1,1-2.434,0v-.445a2.973,2.973,0,0,1-1.5-1.051A1.217,1.217,0,0,1,38.359,41a.515.515,0,0,0,.405.21h.4a.494.494,0,1,0,0-.989h-.2a1.191,1.191,0,0,1-.277-.034,2.937,2.937,0,0,1-2.518-2.9ZM24.143,35.807A1.992,1.992,0,0,0,22.775,37.7V40.3A1.981,1.981,0,0,0,24.153,42.2l1.708.556a13.748,13.748,0,0,0,1.234,2.975l-.823,1.61a1.989,1.989,0,0,0,.37,2.3l1.848,1.848a1.99,1.99,0,0,0,2.308.366l1.6-.818a13.6,13.6,0,0,0,2.977,1.234l.553,1.7a1.981,1.981,0,0,0,1.894,1.382h2.608a2,2,0,0,0,1.892-1.377l.555-1.708a13.748,13.748,0,0,0,2.975-1.234l1.61.823a1.992,1.992,0,0,0,2.3-.37l1.848-1.848a1.978,1.978,0,0,0,.363-2.306l-.815-1.6a13.938,13.938,0,0,0,1.236-2.975l1.7-.553a1.979,1.979,0,0,0,1.377-1.894V37.7A1.993,1.993,0,0,0,54.1,35.805l-1.708-.556a13.823,13.823,0,0,0-1.236-2.975l.812-1.6a1.982,1.982,0,0,0-.36-2.313l-1.848-1.848a1.992,1.992,0,0,0-2.31-.366l-1.6.818a13.654,13.654,0,0,0-2.975-1.234l-.558-1.717a1.993,1.993,0,0,0-1.889-1.368H37.822a1.98,1.98,0,0,0-1.892,1.377l-.556,1.708A13.692,13.692,0,0,0,32.4,26.968l-1.61-.823a1.989,1.989,0,0,0-2.3.37L26.64,28.363a1.992,1.992,0,0,0-.366,2.31l.818,1.6a13.629,13.629,0,0,0-1.234,2.977Zm4.007.3a11.261,11.261,0,0,1,1.167-2.814,1.965,1.965,0,0,0,.058-1.913l-.78-1.526,1.389-1.389,1.528.78a1.974,1.974,0,0,0,1.907-.056,11.263,11.263,0,0,1,2.818-1.168,1.977,1.977,0,0,0,1.38-1.306l.532-1.633h1.959l.53,1.63a1.973,1.973,0,0,0,1.383,1.309,11.322,11.322,0,0,1,2.812,1.165,1.961,1.961,0,0,0,1.913.058l1.526-.78,1.386,1.386-.774,1.523a1.963,1.963,0,0,0,.05,1.912A11.374,11.374,0,0,1,50.106,36.1a1.963,1.963,0,0,0,1.307,1.388l1.629.53v1.962l-1.626.529a1.977,1.977,0,0,0-1.309,1.383A11.427,11.427,0,0,1,48.942,44.7a1.965,1.965,0,0,0-.059,1.912l.778,1.531-1.386,1.386-1.536-.782a1.956,1.956,0,0,0-1.9.059,11.357,11.357,0,0,1-2.818,1.17,1.973,1.973,0,0,0-1.382,1.306l-.53,1.633H38.151l-.53-1.63a1.982,1.982,0,0,0-1.383-1.31,11.28,11.28,0,0,1-2.812-1.165,1.974,1.974,0,0,0-1.913-.058l-1.526.78L28.6,48.145l.785-1.536a1.956,1.956,0,0,0-.059-1.9,11.33,11.33,0,0,1-1.17-2.821,1.98,1.98,0,0,0-1.306-1.38l-1.633-.532V38.019l1.63-.53a1.978,1.978,0,0,0,1.307-1.382ZM39.13,48.535A9.535,9.535,0,1,0,29.594,39,9.546,9.546,0,0,0,39.13,48.535Zm0-16.634a7.1,7.1,0,1,1-7.1,7.1A7.107,7.107,0,0,1,39.13,31.9Z"/>
      </g>
    </g>
  </g>
</svg>
