<svg id="Group_1205648" data-name="Group 1205648" xmlns="http://www.w3.org/2000/svg" xmlns:xlink="http://www.w3.org/1999/xlink" width="1327.245" height="345.317" viewBox="0 0 1327.245 345.317">
  <defs>
    <linearGradient id="linear-gradient" x1="0.5" x2="0.5" y2="1" gradientUnits="objectBoundingBox">
      <stop offset="0" stop-color="#7fe5cf"/>
      <stop offset="1" stop-color="#7fe5cf" stop-opacity="0"/>
    </linearGradient>
    <linearGradient id="linear-gradient-2" x1="0.5" x2="0.5" y2="1" gradientUnits="objectBoundingBox">
      <stop offset="0" stop-color="#7fe5cf" stop-opacity="0"/>
      <stop offset="1" stop-color="#7fe5cf"/>
    </linearGradient>
  </defs>
  <path id="Union_5" data-name="Union 5" d="M.488,336.085v-155.2L0,180.409V52.062C56.885,11.443,174.18-1.378,283.218.115c87.178,1.194,169.893,12.6,244.168,28.669C593.074,43,653.116,60.887,721.026,73.545c167.706,31.262,355.721,3.007,522.961-28.382q40.884-7.673,82.073-15.139V162.141h1.183V336.085Z" transform="translate(0.003 0)" opacity="0.22" fill="url(#linear-gradient)"/>
  <path id="Union_6" data-name="Union 6" d="M1048.857,277.919c-107.484,0-211.882-16.555-314.068-33.732-100.237-16.85-212.925-32.017-313.441-15.235-40.7,6.795-76.689,16.4-116.06,24.028a825.487,825.487,0,0,1-146.345,15.389c-59.066.725-122.176-4.829-158.943-22V0H1327.242V166.088h-1.183v57.156c-33.724,26.585-112.364,43.934-192.982,51.062-28.29,2.5-56.342,3.614-84.2,3.614Z" transform="translate(1327.242 345.317) rotate(180)" opacity="0.33" fill="url(#linear-gradient-2)"/>
</svg>
