<svg xmlns="http://www.w3.org/2000/svg" xmlns:xlink="http://www.w3.org/1999/xlink" width="282" height="353" viewBox="0 0 282 353">
  <defs>
    <clipPath id="clip-path">
      <path id="Rectangle_413044" data-name="Rectangle 413044" d="M0,0H267a15,15,0,0,1,15,15V338a15,15,0,0,1-15,15H0a0,0,0,0,1,0,0V0A0,0,0,0,1,0,0Z" transform="translate(1032.852 10868)" fill="#fff" stroke="#707070" stroke-width="1"/>
    </clipPath>
  </defs>
  <g id="Mask_Group_1099363" data-name="Mask Group 1099363" transform="translate(-1032.852 -10868)" clip-path="url(#clip-path)">
    <g id="_343208678_6d96fb46-570a-47a4-a159-71e497284b0d" data-name="343208678_6d96fb46-570a-47a4-a159-71e497284b0d" transform="translate(1032.852 10950.5)">
      <rect id="Rectangle_413170" data-name="Rectangle 413170" width="282" height="378" transform="translate(0 -94)" fill="#99dfe2"/>
      <g id="Group_1209592" data-name="Group 1209592">
        <path id="Path_1248233" data-name="Path 1248233" d="M250.6,142.282c-.24-5.76-2.468-14.825-3.043-16.942-.81-2.982-3.977-9.487-8.166-12.915-4.582-3.75-9.933-6.7-13.589-11.356-3.582-4.564-5.2-10.366-6.08-16.1S218.6,73.4,217.379,67.73a50.676,50.676,0,0,0-17.844-28.707c-15.1-12-36.7-14.612-53.436-4.754-8.96,5.278-16.665,12.5-25.675,17.69a67.4,67.4,0,0,1-26.048,8.549c-7.51.842-15.159-.224-22.57,1.135a38.434,38.434,0,0,0-19.112,9.468c-5.858,5.428-9.879,12.605-12.584,20.12-3.385,9.4-5.075,19.333-6.072,29.226-.2,2-1.319,18.228.412,21.412,3.574,6.574,15.822,40.534,46.971,31.774,35.946-10.11,43.585-23.14,71.893-3.595s81.553,2.589,89.866-7.58S250.6,142.282,250.6,142.282Z" fill="#80c3c4"/>
        <path id="Path_1248234" data-name="Path 1248234" d="M166.324,21.022s27.715,0,45.69,17.417" fill="none" stroke="#80c3c4" stroke-linecap="round" stroke-linejoin="round" stroke-miterlimit="10" stroke-width="2.604"/>
        <path id="Path_1248235" data-name="Path 1248235" d="M226.133,75.5c.266,11.868,3.856,19.5,12.1,23.927" fill="none" stroke="#80c3c4" stroke-linecap="round" stroke-linejoin="round" stroke-miterlimit="10" stroke-width="2.604"/>
        <path id="Path_1248236" data-name="Path 1248236" d="M50.234,64.2c-5.983,3.088-17.683,19.308-18.481,36.46" fill="none" stroke="#80c3c4" stroke-linecap="round" stroke-linejoin="round" stroke-miterlimit="10" stroke-width="2.604"/>
      </g>
      <ellipse id="Ellipse_12673" data-name="Ellipse 12673" cx="108.063" cy="12.43" rx="108.063" ry="12.43" transform="translate(33.713 155.174)" fill="#80c3c4"/>
      <g id="Group_1209593" data-name="Group 1209593">
        <path id="Path_1248237" data-name="Path 1248237" d="M172.973,169.294H74.821a2.5,2.5,0,0,1-2.5-2.5V39.921a2.5,2.5,0,0,1,2.5-2.5h98.152a2.5,2.5,0,0,1,2.5,2.5V166.795A2.5,2.5,0,0,1,172.973,169.294Z" fill="#2451a6"/>
        <rect id="Rectangle_413171" data-name="Rectangle 413171" width="88.859" height="114.151" transform="translate(79.003 44.137)" fill="#fff"/>
        <path id="Path_1248238" data-name="Path 1248238" d="M145.24,49.658H101.477A3.075,3.075,0,0,1,98.4,46.583v-4.46h49.913v4.46A3.075,3.075,0,0,1,145.24,49.658Z" fill="#37577c"/>
        <path id="Path_1248239" data-name="Path 1248239" d="M145.886,45.89h-45.07A2.415,2.415,0,0,1,98.4,43.475V36.293a2.415,2.415,0,0,1,2.415-2.415h45.07a2.415,2.415,0,0,1,2.415,2.415v7.182A2.415,2.415,0,0,1,145.886,45.89Z" fill="#193359"/>
        <path id="Path_1248240" data-name="Path 1248240" d="M123.351,17.446a9.531,9.531,0,1,0,9.532,9.531A9.531,9.531,0,0,0,123.351,17.446Zm0,13.97a4.439,4.439,0,1,1,4.44-4.439A4.44,4.44,0,0,1,123.351,31.416Z" fill="#193359"/>
      </g>
      <g id="Group_1209605" data-name="Group 1209605">
        <path id="Path_1248241" data-name="Path 1248241" d="M229.58,174.242H141.024a7.221,7.221,0,0,1-7.2-7.2V107.157a7.221,7.221,0,0,1,7.2-7.2H229.58a7.221,7.221,0,0,1,7.2,7.2v59.885A7.221,7.221,0,0,1,229.58,174.242Z" fill="#193359"/>
        <path id="Path_1248242" data-name="Path 1248242" d="M233.007,170.3H137.6a1.131,1.131,0,0,1-1.128-1.128V112.035a1.131,1.131,0,0,1,1.128-1.128h95.41a1.131,1.131,0,0,1,1.128,1.128v57.132A1.132,1.132,0,0,1,233.007,170.3Z" fill="#dfe8f9"/>
        <g id="Group_1209599" data-name="Group 1209599">
          <g id="Group_1209594" data-name="Group 1209594">
            <path id="Path_1248243" data-name="Path 1248243" d="M145.555,99.957c0-.23-.041-.462-.041-.7a5.888,5.888,0,1,1,8.373,5.339" fill="none" stroke="#231f20" stroke-miterlimit="10" stroke-width="0.965"/>
            <circle id="Ellipse_12674" data-name="Ellipse 12674" cx="1.554" cy="1.554" r="1.554" transform="translate(152.087 103.213)" fill="#231f20"/>
          </g>
          <g id="Group_1209595" data-name="Group 1209595">
            <path id="Path_1248244" data-name="Path 1248244" d="M162.724,99.957c0-.23-.041-.462-.041-.7a5.888,5.888,0,1,1,8.373,5.339" fill="none" stroke="#231f20" stroke-miterlimit="10" stroke-width="0.965"/>
            <circle id="Ellipse_12675" data-name="Ellipse 12675" cx="1.554" cy="1.554" r="1.554" transform="translate(169.256 103.213)" fill="#231f20"/>
          </g>
          <g id="Group_1209596" data-name="Group 1209596">
            <path id="Path_1248245" data-name="Path 1248245" d="M179.893,99.957c0-.23-.041-.462-.041-.7a5.888,5.888,0,1,1,8.373,5.339" fill="none" stroke="#231f20" stroke-miterlimit="10" stroke-width="0.965"/>
            <circle id="Ellipse_12676" data-name="Ellipse 12676" cx="1.554" cy="1.554" r="1.554" transform="translate(186.425 103.213)" fill="#231f20"/>
          </g>
          <g id="Group_1209597" data-name="Group 1209597">
            <path id="Path_1248246" data-name="Path 1248246" d="M196.624,99.957c0-.23-.041-.462-.041-.7a5.888,5.888,0,1,1,8.373,5.339" fill="none" stroke="#231f20" stroke-miterlimit="10" stroke-width="0.965"/>
            <circle id="Ellipse_12677" data-name="Ellipse 12677" cx="1.554" cy="1.554" r="1.554" transform="translate(203.156 103.213)" fill="#231f20"/>
          </g>
          <g id="Group_1209598" data-name="Group 1209598">
            <path id="Path_1248247" data-name="Path 1248247" d="M213.356,99.957c0-.23-.041-.462-.041-.7a5.888,5.888,0,1,1,8.373,5.339" fill="none" stroke="#231f20" stroke-miterlimit="10" stroke-width="0.965"/>
            <circle id="Ellipse_12678" data-name="Ellipse 12678" cx="1.554" cy="1.554" r="1.554" transform="translate(219.887 103.213)" fill="#231f20"/>
          </g>
        </g>
        <g id="Group_1209604" data-name="Group 1209604">
          <g id="Group_1209600" data-name="Group 1209600">
            <rect id="Rectangle_413172" data-name="Rectangle 413172" width="10.654" height="10.654" transform="translate(140.836 117.418)" fill="#37577c"/>
            <rect id="Rectangle_413173" data-name="Rectangle 413173" width="10.654" height="10.654" transform="translate(153.883 117.418)" fill="#37577c"/>
            <rect id="Rectangle_413174" data-name="Rectangle 413174" width="10.654" height="10.654" transform="translate(166.929 117.418)" fill="#37577c"/>
            <rect id="Rectangle_413175" data-name="Rectangle 413175" width="10.654" height="10.654" transform="translate(179.975 117.418)" fill="#37577c"/>
            <rect id="Rectangle_413176" data-name="Rectangle 413176" width="10.654" height="10.654" transform="translate(193.021 117.418)" fill="#37577c"/>
            <rect id="Rectangle_413177" data-name="Rectangle 413177" width="10.654" height="10.654" transform="translate(206.068 117.418)" fill="#37577c"/>
            <rect id="Rectangle_413178" data-name="Rectangle 413178" width="10.654" height="10.654" transform="translate(219.114 117.418)" fill="#37577c"/>
          </g>
          <g id="Group_1209601" data-name="Group 1209601">
            <rect id="Rectangle_413179" data-name="Rectangle 413179" width="10.654" height="10.654" transform="translate(140.836 129.898)" fill="#37577c"/>
            <rect id="Rectangle_413180" data-name="Rectangle 413180" width="10.654" height="10.654" transform="translate(153.883 129.898)" fill="#37577c"/>
            <rect id="Rectangle_413181" data-name="Rectangle 413181" width="10.654" height="10.654" transform="translate(166.929 129.898)" fill="#37577c"/>
            <rect id="Rectangle_413182" data-name="Rectangle 413182" width="10.654" height="10.654" transform="translate(179.975 129.898)" fill="#37577c"/>
            <rect id="Rectangle_413183" data-name="Rectangle 413183" width="10.654" height="10.654" transform="translate(193.021 129.898)" fill="#37577c"/>
            <rect id="Rectangle_413184" data-name="Rectangle 413184" width="10.654" height="10.654" transform="translate(206.068 129.898)" fill="#37577c"/>
            <rect id="Rectangle_413185" data-name="Rectangle 413185" width="10.654" height="10.654" transform="translate(219.114 129.898)" fill="#37577c"/>
          </g>
          <g id="Group_1209602" data-name="Group 1209602">
            <rect id="Rectangle_413186" data-name="Rectangle 413186" width="10.654" height="10.654" transform="translate(140.836 142.377)" fill="#37577c"/>
            <rect id="Rectangle_413187" data-name="Rectangle 413187" width="10.654" height="10.654" transform="translate(153.883 142.377)" fill="#37577c"/>
            <rect id="Rectangle_413188" data-name="Rectangle 413188" width="10.654" height="10.654" transform="translate(166.929 142.377)" fill="#37577c"/>
            <rect id="Rectangle_413189" data-name="Rectangle 413189" width="10.654" height="10.654" transform="translate(179.975 142.377)" fill="#37577c"/>
            <rect id="Rectangle_413190" data-name="Rectangle 413190" width="10.654" height="10.654" transform="translate(193.021 142.377)" fill="#37577c"/>
            <rect id="Rectangle_413191" data-name="Rectangle 413191" width="10.654" height="10.654" transform="translate(206.068 142.377)" fill="#37577c"/>
            <rect id="Rectangle_413192" data-name="Rectangle 413192" width="10.654" height="10.654" transform="translate(219.114 142.377)" fill="#37577c"/>
          </g>
          <g id="Group_1209603" data-name="Group 1209603">
            <rect id="Rectangle_413193" data-name="Rectangle 413193" width="10.654" height="10.654" transform="translate(140.836 154.857)" fill="#37577c"/>
            <rect id="Rectangle_413194" data-name="Rectangle 413194" width="10.654" height="10.654" transform="translate(153.883 154.857)" fill="#37577c"/>
            <rect id="Rectangle_413195" data-name="Rectangle 413195" width="10.654" height="10.654" transform="translate(166.929 154.857)" fill="#37577c"/>
            <rect id="Rectangle_413196" data-name="Rectangle 413196" width="10.654" height="10.654" transform="translate(179.975 154.857)" fill="#37577c"/>
            <rect id="Rectangle_413197" data-name="Rectangle 413197" width="10.654" height="10.654" transform="translate(193.021 154.857)" fill="#37577c"/>
            <rect id="Rectangle_413198" data-name="Rectangle 413198" width="10.654" height="10.654" transform="translate(206.068 154.857)" fill="#37577c"/>
            <rect id="Rectangle_413199" data-name="Rectangle 413199" width="10.654" height="10.654" transform="translate(219.114 154.857)" fill="#37577c"/>
          </g>
        </g>
      </g>
      <g id="Group_1209611" data-name="Group 1209611">
        <g id="Group_1209607" data-name="Group 1209607">
          <path id="Path_1248248" data-name="Path 1248248" d="M68.8,113.568S49.87,128.495,49.87,153.38s16.3,23.248,26.653,22.593,31.6,4.948,35.111-15.1S99.7,115.943,87.408,112.45Z" fill="#4ba53c"/>
          <g id="Group_1209606" data-name="Group 1209606">
            <path id="Path_1248249" data-name="Path 1248249" d="M85.587,99.488s-19.807-9.23-19.734,1.1S85.587,99.488,85.587,99.488Z" fill="#3e872a"/>
            <path id="Path_1248250" data-name="Path 1248250" d="M90.386,110.8s5.384-7.878,2.692-13.7S85.842,101,77,99.487s-12.24-3.373-10.836,3.521,4.916,8.059,10.416,8.059S90.386,110.8,90.386,110.8Z" fill="#4ba53c"/>
          </g>
          <path id="Path_1248251" data-name="Path 1248251" d="M74.1,113.978s-7.71,7.64-8.244,21.611c0,0,3.592-16.7,11.4-21.065Z" fill="#3e872a"/>
          <path id="Path_1248252" data-name="Path 1248252" d="M84.94,113.978s7.71,7.64,8.244,21.611c0,0-3.592-16.7-11.4-21.065Z" fill="#3e872a"/>
          <path id="Path_1248253" data-name="Path 1248253" d="M90.276,116.452H69.409a2.917,2.917,0,0,1-2.909-2.909v-3.166a2.917,2.917,0,0,1,2.909-2.909H90.276a2.917,2.917,0,0,1,2.909,2.909v3.166A2.918,2.918,0,0,1,90.276,116.452Z" fill="#6cb75c"/>
          <path id="Path_1248254" data-name="Path 1248254" d="M89.239,96.187c3.423.655,4.257,4.53,2.9,7.258C92.136,103.446,92.311,98.425,89.239,96.187Z" fill="#6cb75c"/>
          <path id="Path_1248255" data-name="Path 1248255" d="M74.448,113.542s15.493.437,17.643-2.074c0,0,1.217,1.877-7.351,2.729A38.689,38.689,0,0,1,74.448,113.542Z" fill="#3e872a"/>
        </g>
        <g id="Group_1209610" data-name="Group 1209610">
          <g id="Group_1209608" data-name="Group 1209608">
            <circle id="Ellipse_12679" data-name="Ellipse 12679" cx="13.693" cy="13.693" r="13.693" transform="translate(67.277 134.568)" fill="#6cb75c"/>
          </g>
          <g id="Group_1209609" data-name="Group 1209609">
            <path id="Path_1248256" data-name="Path 1248256" d="M81.275,157.007a7.112,7.112,0,0,1-2.838-.566,6.654,6.654,0,0,1-2.262-1.577,6.427,6.427,0,0,1-1.4-2.36l2.479-1.066a5.006,5.006,0,0,0,1.7,2.186,4.191,4.191,0,0,0,2.5.794,3.393,3.393,0,0,0,1.359-.25,2.1,2.1,0,0,0,.892-.685,1.731,1.731,0,0,0,.315-1.044,1.658,1.658,0,0,0-.424-1.174,3,3,0,0,0-1.272-.739l-3.11-1a5.862,5.862,0,0,1-2.86-1.751A4.2,4.2,0,0,1,75.381,145a4.392,4.392,0,0,1,.7-2.458A4.7,4.7,0,0,1,78,140.881a6.358,6.358,0,0,1,2.816-.6,6.85,6.85,0,0,1,2.675.511,6.312,6.312,0,0,1,2.1,1.414,5.786,5.786,0,0,1,1.316,2.12l-2.458,1.087a3.915,3.915,0,0,0-1.425-1.87,3.77,3.77,0,0,0-2.207-.674,3.2,3.2,0,0,0-1.3.25,2.043,2.043,0,0,0-.881.707,1.792,1.792,0,0,0-.315,1.044,1.772,1.772,0,0,0,.435,1.185,2.8,2.8,0,0,0,1.327.794l2.98.935a6.381,6.381,0,0,1,2.9,1.74,4.021,4.021,0,0,1,.968,2.74,4.294,4.294,0,0,1-.718,2.458,4.885,4.885,0,0,1-1.979,1.675A6.742,6.742,0,0,1,81.275,157.007Zm-1.022,1.914V138.369H82.1v20.552Z" fill="#ecefb6"/>
          </g>
        </g>
      </g>
      <g id="Group_1209613" data-name="Group 1209613">
        <g id="Group_1209612" data-name="Group 1209612">
          <path id="Path_1248257" data-name="Path 1248257" d="M137.536,167.5v7.164a3.32,3.32,0,0,1-1,1.128,8.672,8.672,0,0,1-1.329.871,13.426,13.426,0,0,1-1.39.647c-.4.162-.842.322-1.329.477q-.64.2-1.39.4-.624.16-1.329.306-.658.136-1.39.259-.635.105-1.329.2-.666.09-1.389.166-.641.069-1.33.124-.672.056-1.389.1-.646.039-1.329.067t-1.39.043q-.649.015-1.329.02l-.7,0-.7,0q-.68-.006-1.329-.02-.715-.017-1.39-.043t-1.329-.067q-.717-.043-1.389-.1-.689-.056-1.33-.124-.723-.076-1.389-.166-.695-.093-1.329-.2-.733-.123-1.39-.259-.707-.147-1.329-.306-.75-.191-1.39-.4c-.488-.155-.929-.316-1.329-.477a13.427,13.427,0,0,1-1.39-.647,8.667,8.667,0,0,1-1.329-.871,3.32,3.32,0,0,1-1-1.128V167.5l1,.094,1.329.125,1.39.13,1.329.125,1.39.131,1.329.125,1.39.13,1.329.125,1.389.13,1.33.125,1.389.131,1.329.125,1.39.13,1.329.125.7.065.7-.065,1.329-.125,1.39-.13,1.329-.125,1.389-.131,1.33-.125,1.389-.13,1.329-.125,1.39-.13,1.329-.125,1.39-.131,1.329-.125,1.39-.13,1.329-.125Z" fill="#f4910f"/>
          <path id="Path_1248258" data-name="Path 1248258" d="M137.536,167.5a2.677,2.677,0,0,1-1,1.921,7.23,7.23,0,0,1-1.329.956,13.209,13.209,0,0,1-1.39.687q-.621.265-1.329.508-.66.226-1.39.431c-.426.119-.87.233-1.329.34s-.913.2-1.39.3q-.649.125-1.329.235t-1.389.2q-.653.086-1.33.156t-1.389.128q-.656.051-1.329.089t-1.39.061q-.658.022-1.329.029c-.231,0-.462,0-.7,0s-.464,0-.7,0q-.671-.007-1.329-.029-.7-.022-1.39-.061t-1.329-.089q-.705-.056-1.389-.128t-1.33-.156q-.71-.092-1.389-.2t-1.329-.235q-.716-.14-1.39-.3c-.459-.107-.9-.221-1.329-.34q-.729-.2-1.39-.431-.708-.243-1.329-.508a13.2,13.2,0,0,1-1.39-.687,7.226,7.226,0,0,1-1.329-.956,2.677,2.677,0,0,1-1-1.921c0-3.339,8.658-6.046,19.339-6.046S137.536,164.164,137.536,167.5Z" fill="#ffb444"/>
          <ellipse id="Ellipse_12680" data-name="Ellipse 12680" cx="13.376" cy="4.182" rx="13.376" ry="4.182" transform="translate(104.686 163.337)" fill="#f4910f"/>
          <path id="Path_1248259" data-name="Path 1248259" d="M101.186,170.381v6.286a8.666,8.666,0,0,1-1.329-.871v-6.371A7.274,7.274,0,0,0,101.186,170.381Z" fill="#ffb444"/>
          <path id="Path_1248260" data-name="Path 1248260" d="M103.905,171.576v6.215c-.488-.155-.929-.316-1.329-.477v-6.246Q103.2,171.333,103.905,171.576Z" fill="#ffb444"/>
          <path id="Path_1248261" data-name="Path 1248261" d="M106.625,172.347v6.146q-.707-.147-1.329-.306v-6.18C105.722,172.126,106.166,172.239,106.625,172.347Z" fill="#ffb444"/>
          <path id="Path_1248262" data-name="Path 1248262" d="M109.345,172.88v6.071q-.695-.093-1.329-.2v-6.107Q108.664,172.769,109.345,172.88Z" fill="#ffb444"/>
          <path id="Path_1248263" data-name="Path 1248263" d="M112.064,173.239v6q-.689-.056-1.33-.124v-6.034Q111.387,173.169,112.064,173.239Z" fill="#ffb444"/>
          <path id="Path_1248264" data-name="Path 1248264" d="M114.783,173.455v5.95q-.684-.028-1.329-.067v-5.972Q114.11,173.417,114.783,173.455Z" fill="#ffb444"/>
          <path id="Path_1248265" data-name="Path 1248265" d="M117.5,173.546v5.924q-.68-.006-1.329-.02v-5.932Q116.831,173.538,117.5,173.546Z" fill="#ffb444"/>
          <path id="Path_1248266" data-name="Path 1248266" d="M120.222,173.516v5.932q-.649.015-1.329.02v-5.924Q119.564,173.538,120.222,173.516Z" fill="#ffb444"/>
          <path id="Path_1248267" data-name="Path 1248267" d="M122.942,173.367v5.972q-.646.039-1.329.067v-5.95Q122.286,173.417,122.942,173.367Z" fill="#ffb444"/>
          <path id="Path_1248268" data-name="Path 1248268" d="M125.662,173.082v6.034q-.641.069-1.33.124v-6Q125.008,173.169,125.662,173.082Z" fill="#ffb444"/>
          <path id="Path_1248269" data-name="Path 1248269" d="M128.38,172.644v6.107q-.635.105-1.329.2v-6.071Q127.731,172.771,128.38,172.644Z" fill="#ffb444"/>
          <path id="Path_1248270" data-name="Path 1248270" d="M131.1,172.007v6.18q-.624.16-1.329.306v-6.146C130.229,172.239,130.674,172.126,131.1,172.007Z" fill="#ffb444"/>
          <path id="Path_1248271" data-name="Path 1248271" d="M133.819,171.068v6.246c-.4.162-.842.322-1.329.477v-6.215Q133.2,171.333,133.819,171.068Z" fill="#ffb444"/>
          <path id="Path_1248272" data-name="Path 1248272" d="M136.539,169.425V175.8a8.67,8.67,0,0,1-1.329.871v-6.286A7.241,7.241,0,0,0,136.539,169.425Z" fill="#ffb444"/>
        </g>
        <path id="Path_1248273" data-name="Path 1248273" d="M127.021,166.783h-2.236s-.755-1.362-3.6-1.362-3.143,2.364-5.016,2.364-1.458-2.349-1.458-2.349l-2.6-.038-.023,1.385h-2.719v1.359h2.765s-.106,1.573,3.762,1.573,3.324-2.295,5.2-2.295a1.709,1.709,0,0,1,1.813,1.785l2.357-.008v-1.056h1.753v-1.359Z" fill="#ffb444"/>
      </g>
      <g id="Group_1209615" data-name="Group 1209615">
        <g id="Group_1209614" data-name="Group 1209614">
          <path id="Path_1248274" data-name="Path 1248274" d="M134.152,157.747v7.164a3.32,3.32,0,0,1-1,1.128,8.669,8.669,0,0,1-1.329.871,13.422,13.422,0,0,1-1.39.647c-.4.162-.842.322-1.329.477q-.64.2-1.39.4-.624.16-1.329.306-.658.136-1.39.259-.635.105-1.329.2-.666.09-1.389.166-.641.069-1.33.124-.672.056-1.389.1-.646.039-1.329.067t-1.39.043q-.649.015-1.329.021l-.7,0-.7,0q-.68-.006-1.329-.021-.715-.017-1.39-.043t-1.329-.067q-.717-.043-1.389-.1-.689-.056-1.33-.124-.723-.076-1.389-.166-.695-.093-1.329-.2-.733-.123-1.39-.259-.707-.147-1.329-.306-.75-.191-1.39-.4c-.488-.155-.929-.316-1.329-.477a13.426,13.426,0,0,1-1.39-.647,8.671,8.671,0,0,1-1.329-.871,3.321,3.321,0,0,1-1-1.128v-7.164l1,.094,1.329.125,1.39.13,1.329.125,1.39.131,1.329.125,1.39.13,1.329.125,1.389.13,1.33.125,1.389.131,1.329.125,1.39.13,1.329.125.7.066.7-.066,1.329-.125,1.39-.13,1.329-.125,1.389-.131,1.33-.125,1.389-.13,1.329-.125,1.39-.13,1.329-.125,1.39-.131,1.329-.125,1.39-.13,1.329-.125Z" fill="#f4910f"/>
          <path id="Path_1248275" data-name="Path 1248275" d="M134.152,157.747a2.677,2.677,0,0,1-1,1.921,7.23,7.23,0,0,1-1.329.956,13.206,13.206,0,0,1-1.39.687q-.621.265-1.329.508-.66.226-1.39.431c-.426.119-.87.233-1.329.34s-.913.2-1.39.3q-.649.125-1.329.235t-1.389.2q-.653.086-1.33.156t-1.389.128q-.656.051-1.329.089t-1.39.061q-.658.022-1.329.029c-.231,0-.462,0-.7,0s-.464,0-.7,0q-.671-.007-1.329-.029-.7-.022-1.39-.061t-1.329-.089q-.705-.056-1.389-.128t-1.33-.156q-.71-.092-1.389-.2t-1.329-.235q-.716-.14-1.39-.3c-.459-.107-.9-.221-1.329-.34q-.729-.2-1.39-.431-.708-.243-1.329-.508a13.2,13.2,0,0,1-1.39-.687,7.224,7.224,0,0,1-1.329-.956,2.677,2.677,0,0,1-1-1.921c0-3.339,8.658-6.046,19.339-6.046S134.152,154.408,134.152,157.747Z" fill="#ffb444"/>
          <ellipse id="Ellipse_12681" data-name="Ellipse 12681" cx="13.376" cy="4.182" rx="13.376" ry="4.182" transform="translate(101.301 153.58)" fill="#f4910f"/>
          <path id="Path_1248276" data-name="Path 1248276" d="M97.8,160.624v6.286a8.671,8.671,0,0,1-1.329-.871v-6.371A7.2,7.2,0,0,0,97.8,160.624Z" fill="#ffb444"/>
          <path id="Path_1248277" data-name="Path 1248277" d="M100.521,161.82v6.215c-.488-.155-.929-.316-1.329-.477v-6.245Q99.813,161.577,100.521,161.82Z" fill="#ffb444"/>
          <path id="Path_1248278" data-name="Path 1248278" d="M103.241,162.59v6.146q-.707-.147-1.329-.306v-6.18C102.337,162.369,102.781,162.483,103.241,162.59Z" fill="#ffb444"/>
          <path id="Path_1248279" data-name="Path 1248279" d="M105.961,163.123v6.071q-.695-.093-1.329-.2v-6.107Q105.279,163.013,105.961,163.123Z" fill="#ffb444"/>
          <path id="Path_1248280" data-name="Path 1248280" d="M108.68,163.482v6q-.689-.056-1.33-.124v-6.034Q108,163.412,108.68,163.482Z" fill="#ffb444"/>
          <path id="Path_1248281" data-name="Path 1248281" d="M111.4,163.7v5.95q-.684-.028-1.329-.067V163.61Q110.725,163.661,111.4,163.7Z" fill="#ffb444"/>
          <path id="Path_1248282" data-name="Path 1248282" d="M114.118,163.789v5.924q-.68-.006-1.329-.021V163.76Q113.447,163.782,114.118,163.789Z" fill="#ffb444"/>
          <path id="Path_1248283" data-name="Path 1248283" d="M116.838,163.76v5.932q-.649.015-1.329.021v-5.924Q116.18,163.782,116.838,163.76Z" fill="#ffb444"/>
          <path id="Path_1248284" data-name="Path 1248284" d="M119.558,163.61v5.972q-.646.039-1.329.067V163.7Q118.9,163.661,119.558,163.61Z" fill="#ffb444"/>
          <path id="Path_1248285" data-name="Path 1248285" d="M122.277,163.326v6.034q-.641.069-1.33.124v-6Q121.624,163.412,122.277,163.326Z" fill="#ffb444"/>
          <path id="Path_1248286" data-name="Path 1248286" d="M125,162.888V169q-.635.105-1.329.2v-6.071Q124.347,163.014,125,162.888Z" fill="#ffb444"/>
          <path id="Path_1248287" data-name="Path 1248287" d="M127.715,162.251v6.18q-.624.16-1.329.306v-6.146C126.845,162.483,127.29,162.369,127.715,162.251Z" fill="#ffb444"/>
          <path id="Path_1248288" data-name="Path 1248288" d="M130.435,161.312v6.245c-.4.162-.842.322-1.329.477V161.82Q129.814,161.577,130.435,161.312Z" fill="#ffb444"/>
          <path id="Path_1248289" data-name="Path 1248289" d="M133.155,159.668v6.371a8.669,8.669,0,0,1-1.329.871v-6.286A7.238,7.238,0,0,0,133.155,159.668Z" fill="#ffb444"/>
        </g>
        <path id="Path_1248290" data-name="Path 1248290" d="M123.636,157.027H121.4s-.755-1.362-3.6-1.362-3.143,2.364-5.016,2.364-1.458-2.349-1.458-2.349l-2.6-.038-.023,1.385H105.99v1.359h2.765s-.106,1.573,3.762,1.573,3.324-2.295,5.2-2.295a1.709,1.709,0,0,1,1.813,1.785l2.357-.008v-1.056h1.753v-1.359Z" fill="#ffb444"/>
      </g>
      <g id="Group_1209617" data-name="Group 1209617">
        <g id="Group_1209616" data-name="Group 1209616">
          <path id="Path_1248291" data-name="Path 1248291" d="M139.561,148.213v7.164a3.32,3.32,0,0,1-1,1.128,8.669,8.669,0,0,1-1.329.871,13.422,13.422,0,0,1-1.39.647c-.4.162-.842.322-1.329.477q-.64.2-1.39.4-.624.16-1.329.306-.658.136-1.39.259-.635.105-1.329.2-.666.09-1.389.166-.641.069-1.33.124-.672.056-1.389.1-.646.039-1.329.067t-1.39.043q-.649.015-1.329.021l-.7,0-.7,0q-.681-.006-1.329-.021-.715-.017-1.39-.043t-1.329-.067q-.717-.043-1.389-.1-.689-.056-1.33-.124-.723-.076-1.389-.166-.695-.093-1.329-.2-.733-.123-1.39-.259-.707-.147-1.329-.306-.75-.19-1.39-.4c-.488-.155-.929-.316-1.329-.477a13.425,13.425,0,0,1-1.39-.647,8.671,8.671,0,0,1-1.329-.871,3.32,3.32,0,0,1-1-1.128v-7.164l1,.094,1.329.125,1.39.13,1.329.125,1.39.131,1.329.125,1.39.13,1.329.125,1.389.13,1.33.125,1.389.131,1.329.125,1.39.13,1.329.125.7.065.7-.065,1.329-.125,1.39-.13,1.329-.125,1.389-.131,1.33-.125,1.389-.13,1.329-.125,1.39-.13,1.329-.125,1.39-.131,1.329-.125,1.39-.13,1.329-.125Z" fill="#f4910f"/>
          <path id="Path_1248292" data-name="Path 1248292" d="M139.561,148.213a2.677,2.677,0,0,1-1,1.921,7.23,7.23,0,0,1-1.329.956,13.206,13.206,0,0,1-1.39.687q-.621.265-1.329.508-.66.226-1.39.431c-.426.119-.87.233-1.329.34s-.913.2-1.39.3q-.649.125-1.329.235t-1.389.2q-.653.086-1.33.156t-1.389.128q-.656.051-1.329.089t-1.39.061q-.658.022-1.329.029c-.231,0-.462,0-.7,0s-.464,0-.7,0q-.671-.007-1.329-.029-.7-.022-1.39-.061t-1.329-.089q-.705-.056-1.389-.128t-1.33-.156q-.71-.092-1.389-.2t-1.329-.235q-.716-.14-1.39-.3c-.459-.107-.9-.221-1.329-.34q-.729-.2-1.39-.431-.708-.243-1.329-.508a13.205,13.205,0,0,1-1.39-.687,7.226,7.226,0,0,1-1.329-.956,2.677,2.677,0,0,1-1-1.921c0-3.339,8.658-6.046,19.339-6.046S139.561,144.873,139.561,148.213Z" fill="#ffb444"/>
          <ellipse id="Ellipse_12682" data-name="Ellipse 12682" cx="13.376" cy="4.182" rx="13.376" ry="4.182" transform="translate(106.71 144.045)" fill="#f4910f"/>
          <path id="Path_1248293" data-name="Path 1248293" d="M103.211,151.09v6.286a8.67,8.67,0,0,1-1.329-.871v-6.371A7.222,7.222,0,0,0,103.211,151.09Z" fill="#ffb444"/>
          <path id="Path_1248294" data-name="Path 1248294" d="M105.93,152.285V158.5c-.488-.155-.929-.316-1.329-.477v-6.245Q105.222,152.042,105.93,152.285Z" fill="#ffb444"/>
          <path id="Path_1248295" data-name="Path 1248295" d="M108.649,153.056V159.2q-.707-.147-1.329-.306v-6.18C107.746,152.835,108.19,152.949,108.649,153.056Z" fill="#ffb444"/>
          <path id="Path_1248296" data-name="Path 1248296" d="M111.369,153.588v6.071q-.695-.093-1.329-.2v-6.107Q110.688,153.479,111.369,153.588Z" fill="#ffb444"/>
          <path id="Path_1248297" data-name="Path 1248297" d="M114.089,153.948v6q-.689-.056-1.33-.124v-6.034Q113.412,153.878,114.089,153.948Z" fill="#ffb444"/>
          <path id="Path_1248298" data-name="Path 1248298" d="M116.808,154.164v5.95q-.684-.028-1.329-.067v-5.972Q116.134,154.126,116.808,154.164Z" fill="#ffb444"/>
          <path id="Path_1248299" data-name="Path 1248299" d="M119.527,154.254v5.924q-.681-.006-1.329-.021v-5.932Q118.856,154.248,119.527,154.254Z" fill="#ffb444"/>
          <path id="Path_1248300" data-name="Path 1248300" d="M122.247,154.225v5.932q-.649.015-1.329.021v-5.924Q121.589,154.247,122.247,154.225Z" fill="#ffb444"/>
          <path id="Path_1248301" data-name="Path 1248301" d="M124.966,154.075v5.972q-.646.039-1.329.067v-5.95Q124.31,154.127,124.966,154.075Z" fill="#ffb444"/>
          <path id="Path_1248302" data-name="Path 1248302" d="M127.686,153.791v6.034q-.641.069-1.33.124v-6Q127.033,153.878,127.686,153.791Z" fill="#ffb444"/>
          <path id="Path_1248303" data-name="Path 1248303" d="M130.4,153.353v6.107q-.635.105-1.329.2v-6.071Q129.756,153.479,130.4,153.353Z" fill="#ffb444"/>
          <path id="Path_1248304" data-name="Path 1248304" d="M133.124,152.716v6.18q-.624.16-1.329.306v-6.146C132.254,152.949,132.7,152.835,133.124,152.716Z" fill="#ffb444"/>
          <path id="Path_1248305" data-name="Path 1248305" d="M135.844,151.777v6.245c-.4.162-.842.322-1.329.477v-6.215Q135.222,152.043,135.844,151.777Z" fill="#ffb444"/>
          <path id="Path_1248306" data-name="Path 1248306" d="M138.564,150.134V156.5a8.669,8.669,0,0,1-1.329.871V151.09A7.216,7.216,0,0,0,138.564,150.134Z" fill="#ffb444"/>
        </g>
        <path id="Path_1248307" data-name="Path 1248307" d="M129.046,147.492H126.81s-.755-1.362-3.6-1.362-3.143,2.364-5.016,2.364-1.458-2.349-1.458-2.349l-2.6-.038-.023,1.385H111.4v1.359h2.765s-.106,1.573,3.762,1.573,3.324-2.295,5.2-2.295a1.709,1.709,0,0,1,1.813,1.785l2.357-.008v-1.056h1.753v-1.359Z" fill="#ffb444"/>
      </g>
      <path id="Path_1248308" data-name="Path 1248308" d="M101.664,93.573l15.981,13.474,27.978-24.477,2.462,2.734-30.3,27.249-19-16.219Z" fill="#ffb444"/>
      <rect id="Rectangle_413200" data-name="Rectangle 413200" width="59.719" height="2.319" transform="translate(95.475 61.884)" fill="#80c3c4"/>
      <rect id="Rectangle_413201" data-name="Rectangle 413201" width="43.089" height="2.307" transform="translate(95.475 68.399)" fill="#80c3c4"/>
      <rect id="Rectangle_413202" data-name="Rectangle 413202" width="59.719" height="2.319" transform="translate(95.475 74.902)" fill="#80c3c4"/>
      <rect id="Rectangle_413203" data-name="Rectangle 413203" width="43.089" height="2.307" transform="translate(95.475 81.417)" fill="#80c3c4"/>
    </g>
  </g>
</svg>
