<svg xmlns="http://www.w3.org/2000/svg" xmlns:xlink="http://www.w3.org/1999/xlink" width="270" height="265" viewBox="0 0 270 265">
  <defs>
    <clipPath id="clip-path">
      <path id="Rectangle_413045" data-name="Rectangle 413045" d="M0,0H255a15,15,0,0,1,15,15V250a15,15,0,0,1-15,15H0a0,0,0,0,1,0,0V0A0,0,0,0,1,0,0Z" transform="translate(1052.77 6793)" fill="#fff" stroke="#707070" stroke-width="1"/>
    </clipPath>
  </defs>
  <g id="Mask_Group_1099362" data-name="Mask Group 1099362" transform="translate(-1052.77 -6793)" clip-path="url(#clip-path)">
    <g id="_4391945_26" data-name="4391945_26" transform="translate(1052.852 6794.5)">
      <g id="BG">
        <rect id="Rectangle_413094" data-name="Rectangle 413094" width="269.918" height="262" fill="#a5d6a7"/>
      </g>
      <g id="Artwork" transform="translate(46.189 26.515)">
        <ellipse id="Ellipse_12663" data-name="Ellipse 12663" cx="18.894" cy="18.34" rx="18.894" ry="18.34" transform="translate(145.453 31.999)" fill="#212121" opacity="0.2"/>
        <path id="Path_1248229" data-name="Path 1248229" d="M0,0,129.861,1.39l1.773,162.329L1.773,162.329Z" transform="translate(0 50.071) rotate(-23.291)" fill="#e0e0e0"/>
        <path id="Path_1248230" data-name="Path 1248230" d="M0,0,130.339.658l.839,161.709L.839,161.709Z" transform="translate(10.009 30.755) rotate(-10.056)" fill="#f5f5f5"/>
        <g id="Group_1209585" data-name="Group 1209585" transform="translate(23.54 18.462)">
          <rect id="Rectangle_413097" data-name="Rectangle 413097" width="130.46" height="161.567" fill="#fafafa"/>
          <rect id="Rectangle_413098" data-name="Rectangle 413098" width="116.964" height="7.86" transform="translate(6.748 7.86)" fill="#dcedc8"/>
          <rect id="Rectangle_413099" data-name="Rectangle 413099" width="116.964" height="7.86" transform="translate(6.748 102.617)" fill="#dcedc8"/>
          <rect id="Rectangle_413100" data-name="Rectangle 413100" width="66.58" height="2.62" transform="translate(6.748 19.65)" fill="#eee"/>
          <rect id="Rectangle_413101" data-name="Rectangle 413101" width="116.964" height="19.213" transform="translate(6.748 25.763)" fill="#dcedc8"/>
          <g id="Group_1209560" data-name="Group 1209560" transform="translate(6.748 48.907)">
            <rect id="Rectangle_413102" data-name="Rectangle 413102" width="116.964" height="2.62" fill="#eee"/>
            <rect id="Rectangle_413103" data-name="Rectangle 413103" width="116.964" height="2.62" transform="translate(0 7.86)" fill="#eee"/>
            <g id="Group_1209555" data-name="Group 1209555" transform="translate(114.715)">
              <rect id="Rectangle_413104" data-name="Rectangle 413104" width="2.699" height="10.48" fill="#eee"/>
            </g>
            <g id="Group_1209556" data-name="Group 1209556" transform="translate(86.374)">
              <rect id="Rectangle_413105" data-name="Rectangle 413105" width="2.699" height="10.48" fill="#eee"/>
            </g>
            <g id="Group_1209557" data-name="Group 1209557" transform="translate(57.583)">
              <rect id="Rectangle_413106" data-name="Rectangle 413106" width="2.699" height="10.48" fill="#eee"/>
            </g>
            <g id="Group_1209558" data-name="Group 1209558" transform="translate(28.791)">
              <rect id="Rectangle_413107" data-name="Rectangle 413107" width="2.699" height="10.48" fill="#eee"/>
            </g>
            <g id="Group_1209559" data-name="Group 1209559">
              <rect id="Rectangle_413108" data-name="Rectangle 413108" width="2.699" height="10.48" fill="#eee"/>
            </g>
          </g>
          <g id="Group_1209566" data-name="Group 1209566" transform="translate(6.748 56.767)">
            <rect id="Rectangle_413109" data-name="Rectangle 413109" width="116.964" height="2.62" fill="#eee"/>
            <rect id="Rectangle_413110" data-name="Rectangle 413110" width="116.964" height="2.62" transform="translate(0 7.86)" fill="#eee"/>
            <g id="Group_1209561" data-name="Group 1209561" transform="translate(114.715)">
              <rect id="Rectangle_413111" data-name="Rectangle 413111" width="2.699" height="10.48" fill="#eee"/>
            </g>
            <g id="Group_1209562" data-name="Group 1209562" transform="translate(86.374)">
              <rect id="Rectangle_413112" data-name="Rectangle 413112" width="2.699" height="10.48" fill="#eee"/>
            </g>
            <g id="Group_1209563" data-name="Group 1209563" transform="translate(57.583)">
              <rect id="Rectangle_413113" data-name="Rectangle 413113" width="2.699" height="10.48" fill="#eee"/>
            </g>
            <g id="Group_1209564" data-name="Group 1209564" transform="translate(28.791)">
              <rect id="Rectangle_413114" data-name="Rectangle 413114" width="2.699" height="10.48" fill="#eee"/>
            </g>
            <g id="Group_1209565" data-name="Group 1209565">
              <rect id="Rectangle_413115" data-name="Rectangle 413115" width="2.699" height="10.48" fill="#eee"/>
            </g>
          </g>
          <g id="Group_1209572" data-name="Group 1209572" transform="translate(6.748 64.627)">
            <rect id="Rectangle_413116" data-name="Rectangle 413116" width="116.964" height="2.62" fill="#eee"/>
            <rect id="Rectangle_413117" data-name="Rectangle 413117" width="116.964" height="2.62" transform="translate(0 7.86)" fill="#eee"/>
            <g id="Group_1209567" data-name="Group 1209567" transform="translate(114.715)">
              <rect id="Rectangle_413118" data-name="Rectangle 413118" width="2.699" height="10.48" fill="#eee"/>
            </g>
            <g id="Group_1209568" data-name="Group 1209568" transform="translate(86.374)">
              <rect id="Rectangle_413119" data-name="Rectangle 413119" width="2.699" height="10.48" fill="#eee"/>
            </g>
            <g id="Group_1209569" data-name="Group 1209569" transform="translate(57.583)">
              <rect id="Rectangle_413120" data-name="Rectangle 413120" width="2.699" height="10.48" fill="#eee"/>
            </g>
            <g id="Group_1209570" data-name="Group 1209570" transform="translate(28.791)">
              <rect id="Rectangle_413121" data-name="Rectangle 413121" width="2.699" height="10.48" fill="#eee"/>
            </g>
            <g id="Group_1209571" data-name="Group 1209571">
              <rect id="Rectangle_413122" data-name="Rectangle 413122" width="2.699" height="10.48" fill="#eee"/>
            </g>
          </g>
          <g id="Group_1209578" data-name="Group 1209578" transform="translate(6.748 72.923)">
            <rect id="Rectangle_413123" data-name="Rectangle 413123" width="116.964" height="2.62" fill="#eee"/>
            <rect id="Rectangle_413124" data-name="Rectangle 413124" width="116.964" height="2.62" transform="translate(0 7.86)" fill="#eee"/>
            <g id="Group_1209573" data-name="Group 1209573" transform="translate(114.715)">
              <rect id="Rectangle_413125" data-name="Rectangle 413125" width="2.699" height="10.48" fill="#eee"/>
            </g>
            <g id="Group_1209574" data-name="Group 1209574" transform="translate(86.374)">
              <rect id="Rectangle_413126" data-name="Rectangle 413126" width="2.699" height="10.48" fill="#eee"/>
            </g>
            <g id="Group_1209575" data-name="Group 1209575" transform="translate(57.583)">
              <rect id="Rectangle_413127" data-name="Rectangle 413127" width="2.699" height="10.48" fill="#eee"/>
            </g>
            <g id="Group_1209576" data-name="Group 1209576" transform="translate(28.791)">
              <rect id="Rectangle_413128" data-name="Rectangle 413128" width="2.699" height="10.48" fill="#eee"/>
            </g>
            <g id="Group_1209577" data-name="Group 1209577">
              <rect id="Rectangle_413129" data-name="Rectangle 413129" width="2.699" height="10.48" fill="#eee"/>
            </g>
          </g>
          <g id="Group_1209584" data-name="Group 1209584" transform="translate(6.748 80.783)">
            <rect id="Rectangle_413130" data-name="Rectangle 413130" width="116.964" height="2.62" fill="#eee"/>
            <rect id="Rectangle_413131" data-name="Rectangle 413131" width="116.964" height="2.62" transform="translate(0 7.86)" fill="#eee"/>
            <g id="Group_1209579" data-name="Group 1209579" transform="translate(114.715)">
              <rect id="Rectangle_413132" data-name="Rectangle 413132" width="2.699" height="10.48" fill="#eee"/>
            </g>
            <g id="Group_1209580" data-name="Group 1209580" transform="translate(86.374)">
              <rect id="Rectangle_413133" data-name="Rectangle 413133" width="2.699" height="10.48" fill="#eee"/>
            </g>
            <g id="Group_1209581" data-name="Group 1209581" transform="translate(57.583)">
              <rect id="Rectangle_413134" data-name="Rectangle 413134" width="2.699" height="10.48" fill="#eee"/>
            </g>
            <g id="Group_1209582" data-name="Group 1209582" transform="translate(28.791)">
              <rect id="Rectangle_413135" data-name="Rectangle 413135" width="2.699" height="10.48" fill="#eee"/>
            </g>
            <g id="Group_1209583" data-name="Group 1209583">
              <rect id="Rectangle_413136" data-name="Rectangle 413136" width="2.699" height="10.48" fill="#eee"/>
            </g>
          </g>
          <rect id="Rectangle_413137" data-name="Rectangle 413137" width="116.964" height="2.62" transform="translate(6.748 95.63)" fill="#eee"/>
          <rect id="Rectangle_413138" data-name="Rectangle 413138" width="60.282" height="2.62" transform="translate(6.748 115.28)" fill="#eee"/>
          <rect id="Rectangle_413139" data-name="Rectangle 413139" width="60.282" height="2.62" transform="translate(6.748 121.393)" fill="#eee"/>
          <rect id="Rectangle_413140" data-name="Rectangle 413140" width="30.141" height="2.62" transform="translate(6.748 127.507)" fill="#eee"/>
        </g>
        <g id="Group_1209586" data-name="Group 1209586" transform="translate(76.591 56.638)">
          <path id="Path_1248220" data-name="Path 1248220" d="M131.037,94.664a38.49,38.49,0,0,0,0,55.578,41.358,41.358,0,0,0,57.258,0,38.49,38.49,0,0,0,0-55.578A41.357,41.357,0,0,0,131.037,94.664Zm51.532,50.021a33.086,33.086,0,0,1-45.806,0,30.792,30.792,0,0,1,0-44.463,33.086,33.086,0,0,1,45.806,0A30.792,30.792,0,0,1,182.569,144.685Z" transform="translate(-119.178 -83.153)" fill="#546e7a"/>
          <ellipse id="Ellipse_12664" data-name="Ellipse 12664" cx="32.39" cy="31.44" rx="32.39" ry="31.44" transform="translate(8.097 7.86)" fill="#90caf9" opacity="0.2"/>
          <ellipse id="Ellipse_12665" data-name="Ellipse 12665" cx="10.347" cy="10.043" rx="10.347" ry="10.043" transform="translate(31.413 12.583)" fill="#fff" opacity="0.25"/>
          <path id="Path_1248231" data-name="Path 1248231" d="M0,0,4.433.066l.106,7.092L.106,7.092Z" transform="translate(67.524 68.633) rotate(-45)" fill="#37474f"/>
          <path id="Path_1248221" data-name="Path 1248221" d="M224.14,186.986h0a7.812,7.812,0,0,1-10.816,0L185.65,160.123l10.816-10.5,27.675,26.863A7.27,7.27,0,0,1,224.14,186.986Z" transform="translate(-117.17 -83.153)" fill="#f4511e"/>
          <path id="Path_1248222" data-name="Path 1248222" d="M221.484,174.018l-25.13-24.393-7,6.793,18.132,17.6a10.109,10.109,0,0,0,14,0Z" transform="translate(-117.058 -83.153)" fill="#ff7043"/>
          <path id="Path_1248223" data-name="Path 1248223" d="M209.929,162.9l-13.679-13.277-3.5,3.4,10.179,9.88a5.055,5.055,0,0,0,7,0Z" transform="translate(-116.955 -83.153)" fill="#ff8a65"/>
          <path id="Path_1248232" data-name="Path 1248232" d="M0,0,17.73.264l.053,3.546L.053,3.546Z" transform="translate(67.206 77.588) rotate(-45)" fill="#fff"/>
        </g>
        <g id="Group_1209587" data-name="Group 1209587" transform="translate(145.003 30.688)">
          <ellipse id="Ellipse_12666" data-name="Ellipse 12666" cx="18.894" cy="18.34" rx="18.894" ry="18.34" transform="translate(0 0)" fill="#fdd835"/>
          <ellipse id="Ellipse_12667" data-name="Ellipse 12667" cx="14.845" cy="14.41" rx="14.845" ry="14.41" transform="translate(4.049 3.93)" fill="#f9a825"/>
          <ellipse id="Ellipse_12668" data-name="Ellipse 12668" cx="11.696" cy="11.353" rx="11.696" ry="11.353" transform="translate(7.198 6.987)" fill="#fdd835"/>
          <path id="Path_1248224" data-name="Path 1248224" d="M191.117,62.575a17.962,17.962,0,0,0,0,25.937l26.721-25.937A19.3,19.3,0,0,0,191.117,62.575Z" transform="translate(-185.583 -57.203)" fill="#fff" opacity="0.25"/>
        </g>
        <ellipse id="Ellipse_12669" data-name="Ellipse 12669" cx="18.894" cy="18.34" rx="18.894" ry="18.34" transform="translate(3.296 122.825)" fill="#212121" opacity="0.2"/>
        <g id="Group_1209588" data-name="Group 1209588" transform="translate(2.396 121.515)">
          <ellipse id="Ellipse_12670" data-name="Ellipse 12670" cx="18.894" cy="18.34" rx="18.894" ry="18.34" transform="translate(0)" fill="#fdd835"/>
          <ellipse id="Ellipse_12671" data-name="Ellipse 12671" cx="14.845" cy="14.41" rx="14.845" ry="14.41" transform="translate(4.049 3.93)" fill="#f9a825"/>
          <ellipse id="Ellipse_12672" data-name="Ellipse 12672" cx="11.696" cy="11.353" rx="11.696" ry="11.353" transform="translate(7.198 6.987)" fill="#fdd835"/>
          <path id="Path_1248225" data-name="Path 1248225" d="M52.694,153.4a17.962,17.962,0,0,0,0,25.937L79.414,153.4A19.3,19.3,0,0,0,52.694,153.4Z" transform="translate(-47.16 -148.03)" fill="#fff" opacity="0.25"/>
        </g>
        <g id="Group_1209590" data-name="Group 1209590" transform="translate(4.196 54.269)">
          <rect id="Rectangle_413143" data-name="Rectangle 413143" width="49.935" height="57.64" fill="#546e7a"/>
          <rect id="Rectangle_413144" data-name="Rectangle 413144" width="41.387" height="10.043" transform="translate(4.499 6.55)" fill="#b2dfdb"/>
          <rect id="Rectangle_413145" data-name="Rectangle 413145" width="41.387" height="1.747" transform="translate(4.499 6.55)" fill="#80cbc4"/>
          <rect id="Rectangle_413146" data-name="Rectangle 413146" width="8.997" height="4.367" transform="translate(4.499 19.213)" fill="#f9a825"/>
          <rect id="Rectangle_413147" data-name="Rectangle 413147" width="8.997" height="4.367" transform="translate(15.295 19.213)" fill="#90a4ae"/>
          <rect id="Rectangle_413148" data-name="Rectangle 413148" width="8.997" height="4.367" transform="translate(26.092 19.213)" fill="#90a4ae"/>
          <rect id="Rectangle_413149" data-name="Rectangle 413149" width="8.997" height="4.367" transform="translate(36.889 19.213)" fill="#90a4ae"/>
          <rect id="Rectangle_413150" data-name="Rectangle 413150" width="8.997" height="4.367" transform="translate(4.499 25.327)" fill="#90a4ae"/>
          <rect id="Rectangle_413151" data-name="Rectangle 413151" width="8.997" height="4.367" transform="translate(15.295 25.327)" fill="#90a4ae"/>
          <rect id="Rectangle_413152" data-name="Rectangle 413152" width="8.997" height="4.367" transform="translate(26.092 25.327)" fill="#90a4ae"/>
          <rect id="Rectangle_413153" data-name="Rectangle 413153" width="8.997" height="4.367" transform="translate(36.889 25.327)" fill="#90a4ae"/>
          <rect id="Rectangle_413154" data-name="Rectangle 413154" width="8.997" height="4.367" transform="translate(4.499 31.877)" fill="#90a4ae"/>
          <rect id="Rectangle_413155" data-name="Rectangle 413155" width="8.997" height="4.367" transform="translate(15.295 31.877)" fill="#90a4ae"/>
          <rect id="Rectangle_413156" data-name="Rectangle 413156" width="8.997" height="4.367" transform="translate(26.092 31.877)" fill="#90a4ae"/>
          <rect id="Rectangle_413157" data-name="Rectangle 413157" width="8.997" height="4.367" transform="translate(36.889 31.877)" fill="#90a4ae"/>
          <rect id="Rectangle_413158" data-name="Rectangle 413158" width="8.997" height="4.367" transform="translate(4.499 38.427)" fill="#90a4ae"/>
          <rect id="Rectangle_413159" data-name="Rectangle 413159" width="8.997" height="4.367" transform="translate(15.295 38.427)" fill="#90a4ae"/>
          <rect id="Rectangle_413160" data-name="Rectangle 413160" width="8.997" height="4.367" transform="translate(26.092 38.427)" fill="#90a4ae"/>
          <rect id="Rectangle_413161" data-name="Rectangle 413161" width="8.997" height="4.367" transform="translate(4.499 44.977)" fill="#90a4ae"/>
          <rect id="Rectangle_413162" data-name="Rectangle 413162" width="8.997" height="4.367" transform="translate(15.295 44.977)" fill="#90a4ae"/>
          <rect id="Rectangle_413163" data-name="Rectangle 413163" width="8.997" height="4.367" transform="translate(26.092 44.977)" fill="#90a4ae"/>
          <rect id="Rectangle_413164" data-name="Rectangle 413164" width="8.997" height="10.917" transform="translate(36.889 38.427)" fill="#fdd835"/>
          <g id="Group_1209589" data-name="Group 1209589" transform="translate(7.648 6.55)" opacity="0.25">
            <path id="Path_1248226" data-name="Path 1248226" d="M58.129,97.377h-1.8l6.748-10.043h1.8Z" transform="translate(-56.33 -87.333)" fill="#fafafa"/>
            <path id="Path_1248227" data-name="Path 1248227" d="M84.461,97.377h-6.3l6.748-10.043h6.3Z" transform="translate(-55.67 -87.333)" fill="#fafafa"/>
            <path id="Path_1248228" data-name="Path 1248228" d="M75.992,97.377H60.7l6.748-10.043h15.3Z" transform="translate(-56.198 -87.333)" fill="#fafafa"/>
          </g>
        </g>
        <g id="Group_1209591" data-name="Group 1209591" transform="translate(96.868 137.672)">
          <rect id="Rectangle_413165" data-name="Rectangle 413165" width="5.398" height="12.663" transform="translate(0 13.537)" fill="#f9a825"/>
          <rect id="Rectangle_413166" data-name="Rectangle 413166" width="5.398" height="20.523" transform="translate(8.997 5.677)" fill="#f9a825"/>
          <rect id="Rectangle_413167" data-name="Rectangle 413167" width="5.398" height="26.2" transform="translate(17.995)" fill="#f9a825"/>
          <rect id="Rectangle_413168" data-name="Rectangle 413168" width="5.398" height="19.65" transform="translate(26.992 6.55)" fill="#f9a825"/>
          <rect id="Rectangle_413169" data-name="Rectangle 413169" width="5.398" height="11.79" transform="translate(35.989 14.41)" fill="#f9a825"/>
        </g>
      </g>
    </g>
  </g>
</svg>
