<svg xmlns="http://www.w3.org/2000/svg" xmlns:xlink="http://www.w3.org/1999/xlink" width="276" height="337" viewBox="0 0 276 337">
  <defs>
    <clipPath id="clip-path">
      <path id="Rectangle_413156" data-name="Rectangle 413156" d="M0,0H261a15,15,0,0,1,15,15V322a15,15,0,0,1-15,15H0a0,0,0,0,1,0,0V0A0,0,0,0,1,0,0Z" transform="translate(1039 3315)" fill="#fff" stroke="#707070" stroke-width="1"/>
    </clipPath>
  </defs>
  <g id="Mask_Group_1099378" data-name="Mask Group 1099378" transform="translate(-1039 -3315)" clip-path="url(#clip-path)">
    <g id="_6524035_20" data-name="6524035_20" transform="translate(1039 3345.5)">
      <g id="background" transform="translate(0 -31.695)">
        <rect id="Rectangle_413157" data-name="Rectangle 413157" width="276" height="354.501" fill="#c2b14c"/>
      </g>
      <g id="objects">
        <g id="Group_1209725" data-name="Group 1209725">
          <path id="Path_1279200" data-name="Path 1279200" d="M229.905,128.613l-40.468,4.732a3.675,3.675,0,0,1-4.078-3.224l-2.754-23.548a3.676,3.676,0,0,1,3.224-4.078L226.3,97.763a3.676,3.676,0,0,1,4.078,3.224l2.754,23.547A3.676,3.676,0,0,1,229.905,128.613Z" fill="#454545" opacity="0.5"/>
          <path id="Path_1279201" data-name="Path 1279201" d="M229.395,128.21l-40.468,4.732a3.675,3.675,0,0,1-4.078-3.224L182.1,106.17a3.676,3.676,0,0,1,3.224-4.078l40.468-4.732a3.675,3.675,0,0,1,4.078,3.224l2.754,23.548A3.675,3.675,0,0,1,229.395,128.21Z" fill="#6e8f19"/>
          <path id="Path_1279202" data-name="Path 1279202" d="M203.054,120.635c7.2-9.739,18.189-14.518,27.64-12.961l-.829-7.089a3.676,3.676,0,0,0-4.078-3.224l-12.821,1.5a38.57,38.57,0,0,0-8.378,8.326c-5.742,7.768-8.094,16.79-7.173,24.764l.074-.009A34.73,34.73,0,0,1,203.054,120.635Z" fill="#5d7a10"/>
          <path id="Path_1279203" data-name="Path 1279203" d="M203.054,120.635a34.722,34.722,0,0,0-5.564,11.306l31.9-3.731a3.676,3.676,0,0,0,3.224-4.078l-1.925-16.459C221.243,106.117,210.253,110.9,203.054,120.635Z" fill="#4e6906"/>
          <path id="Path_1279204" data-name="Path 1279204" d="M193.988,114.688l-3.21.375a2.116,2.116,0,0,1-2.348-1.856l-.212-1.815a2.116,2.116,0,0,1,1.856-2.348l3.21-.375a2.116,2.116,0,0,1,2.348,1.856l.212,1.815A2.116,2.116,0,0,1,193.988,114.688Z" fill="#e1a800"/>
          <path id="Path_1279205" data-name="Path 1279205" d="M190.206,122l-.337.04a.491.491,0,0,1-.544-.43l-.12-1.026a.49.49,0,0,1,.43-.544l.337-.04a.49.49,0,0,1,.544.43l.12,1.026A.49.49,0,0,1,190.206,122Z" fill="#ccc"/>
          <path id="Path_1279206" data-name="Path 1279206" d="M191.927,121.8l-.337.04a.49.49,0,0,1-.544-.43l-.12-1.026a.49.49,0,0,1,.43-.544l.337-.04a.49.49,0,0,1,.544.43l.12,1.026A.49.49,0,0,1,191.927,121.8Z" fill="#ccc"/>
          <path id="Path_1279207" data-name="Path 1279207" d="M193.647,121.6l-.337.039a.49.49,0,0,1-.544-.43l-.12-1.026a.49.49,0,0,1,.43-.544l.337-.04a.491.491,0,0,1,.544.43l.12,1.026A.489.489,0,0,1,193.647,121.6Z" fill="#ccc"/>
          <path id="Path_1279208" data-name="Path 1279208" d="M195.368,121.394l-.337.04a.49.49,0,0,1-.544-.43l-.12-1.026a.49.49,0,0,1,.43-.544l.337-.04a.49.49,0,0,1,.544.43l.12,1.026A.49.49,0,0,1,195.368,121.394Z" fill="#ccc"/>
          <path id="Path_1279209" data-name="Path 1279209" d="M199.075,120.96l-.337.04a.49.49,0,0,1-.544-.43l-.12-1.026a.49.49,0,0,1,.43-.544l.337-.04a.49.49,0,0,1,.544.43l.12,1.026A.489.489,0,0,1,199.075,120.96Z" fill="#ccc"/>
          <path id="Path_1279210" data-name="Path 1279210" d="M200.8,120.759l-.337.04a.49.49,0,0,1-.544-.43l-.12-1.026a.49.49,0,0,1,.43-.544l.337-.04a.49.49,0,0,1,.544.43l.12,1.026A.49.49,0,0,1,200.8,120.759Z" fill="#ccc"/>
          <path id="Path_1279211" data-name="Path 1279211" d="M202.516,120.558l-.337.039a.49.49,0,0,1-.544-.43l-.12-1.026a.49.49,0,0,1,.43-.544l.337-.039a.491.491,0,0,1,.544.43l.12,1.026A.491.491,0,0,1,202.516,120.558Z" fill="#ccc"/>
          <path id="Path_1279212" data-name="Path 1279212" d="M204.237,120.357l-.337.04a.49.49,0,0,1-.544-.43l-.12-1.026a.49.49,0,0,1,.43-.544l.337-.04a.49.49,0,0,1,.544.43l.12,1.026A.489.489,0,0,1,204.237,120.357Z" fill="#ccc"/>
          <path id="Path_1279213" data-name="Path 1279213" d="M207.944,119.923l-.337.04a.49.49,0,0,1-.544-.43l-.12-1.026a.49.49,0,0,1,.43-.544l.337-.04a.49.49,0,0,1,.544.43l.12,1.026A.49.49,0,0,1,207.944,119.923Z" fill="#ccc"/>
          <path id="Path_1279214" data-name="Path 1279214" d="M209.665,119.722l-.337.04a.49.49,0,0,1-.544-.43l-.12-1.026a.49.49,0,0,1,.43-.544l.337-.04a.491.491,0,0,1,.544.43l.12,1.026A.489.489,0,0,1,209.665,119.722Z" fill="#ccc"/>
          <path id="Path_1279215" data-name="Path 1279215" d="M211.386,119.521l-.337.039a.49.49,0,0,1-.544-.43l-.12-1.026a.49.49,0,0,1,.43-.544l.337-.04a.49.49,0,0,1,.544.43l.12,1.026A.491.491,0,0,1,211.386,119.521Z" fill="#ccc"/>
          <path id="Path_1279216" data-name="Path 1279216" d="M213.106,119.32l-.337.04a.491.491,0,0,1-.544-.43l-.12-1.026a.49.49,0,0,1,.43-.544l.337-.039a.49.49,0,0,1,.544.43l.12,1.026A.49.49,0,0,1,213.106,119.32Z" fill="#ccc"/>
          <path id="Path_1279217" data-name="Path 1279217" d="M216.814,118.886l-.337.04a.49.49,0,0,1-.544-.43l-.12-1.026a.49.49,0,0,1,.43-.544l.337-.04a.49.49,0,0,1,.544.43l.12,1.026A.49.49,0,0,1,216.814,118.886Z" fill="#ccc"/>
          <path id="Path_1279218" data-name="Path 1279218" d="M218.534,118.685l-.337.04a.49.49,0,0,1-.544-.43l-.12-1.026a.49.49,0,0,1,.43-.544l.337-.04a.491.491,0,0,1,.544.43l.12,1.026A.491.491,0,0,1,218.534,118.685Z" fill="#ccc"/>
          <path id="Path_1279219" data-name="Path 1279219" d="M220.254,118.484l-.337.039a.49.49,0,0,1-.544-.43l-.12-1.026a.49.49,0,0,1,.43-.544l.337-.04a.49.49,0,0,1,.544.43l.12,1.026A.489.489,0,0,1,220.254,118.484Z" fill="#ccc"/>
          <path id="Path_1279220" data-name="Path 1279220" d="M221.975,118.283l-.337.04a.49.49,0,0,1-.544-.43l-.12-1.026a.49.49,0,0,1,.43-.544l.337-.039a.49.49,0,0,1,.544.43l.12,1.026A.49.49,0,0,1,221.975,118.283Z" fill="#ccc"/>
          <path id="Path_1279221" data-name="Path 1279221" d="M225.83,103.338,212.443,104.9a.935.935,0,0,1-1.037-.82l-.117-1a.935.935,0,0,1,.82-1.037l13.387-1.565a.935.935,0,0,1,1.037.82l.117,1A.936.936,0,0,1,225.83,103.338Z" fill="#22467a"/>
          <path id="Path_1279222" data-name="Path 1279222" d="M195.683,110.958l-.021-.178-2.519.294a4.543,4.543,0,0,1,.037-.924l2.365-.276a1.514,1.514,0,0,0-.053-.175l-2.287.267a4.221,4.221,0,0,1,.455-1.339l-.214.025a4.521,4.521,0,0,0-.427,1.336l-2.383.279a4.412,4.412,0,0,0-.72-1.2l-.214.025a4.292,4.292,0,0,1,.748,1.2l-2.287.267a1.487,1.487,0,0,0-.011.183l2.365-.276a4.534,4.534,0,0,1,.249.891l-2.519.294.021.178,2.526-.3c.008.039.013.082.018.121a4.837,4.837,0,0,1,.028.8l-2.465.288.021.178,2.437-.285a4.565,4.565,0,0,1-.169.94l-2.155.252c.014.06.028.116.046.176l2.051-.24a4.053,4.053,0,0,1-.755,1.345,1.029,1.029,0,0,0,.213.022,4.15,4.15,0,0,0,.739-1.39l2.858-.334a4.141,4.141,0,0,0,1.036,1.183s0,0,0,0a1.311,1.311,0,0,0,.2-.071,4.065,4.065,0,0,1-1.049-1.134l2.051-.24c0-.062,0-.12,0-.182l-2.155.252a4.476,4.476,0,0,1-.381-.875l2.437-.285-.021-.178-2.465.288a4.815,4.815,0,0,1-.157-.782c0-.039-.01-.082-.011-.122Zm-4.98-.519,2.287-.267a5.446,5.446,0,0,0-.026.923l-2.019.236A4.5,4.5,0,0,0,190.7,110.439Zm2.862,2.791-2.708.316a4.575,4.575,0,0,0,.155-.938l2.179-.255A4.614,4.614,0,0,0,193.566,113.23Zm-.424-1.052-2.119.248a5.28,5.28,0,0,0-.032-.8c0-.039-.01-.082-.018-.121l2-.235c0,.04.006.083.011.122A5.264,5.264,0,0,0,193.142,112.178Z" fill="#5d7a10"/>
          <path id="Path_1279223" data-name="Path 1279223" d="M226.682,112.965l-6.783.793A1.438,1.438,0,0,1,218.3,112.5l-.389-3.328a1.437,1.437,0,0,1,1.261-1.595l6.783-.793a1.437,1.437,0,0,1,1.595,1.261l.389,3.328A1.438,1.438,0,0,1,226.682,112.965Z" fill="#ccc"/>
        </g>
        <g id="Group_1209726" data-name="Group 1209726">
          <path id="Path_1279224" data-name="Path 1279224" d="M227.674,152.657l-40.485-4.585A3.676,3.676,0,0,1,183.951,144l2.668-23.558a3.676,3.676,0,0,1,4.066-3.239l40.485,4.585a3.676,3.676,0,0,1,3.239,4.066l-2.668,23.558A3.676,3.676,0,0,1,227.674,152.657Z" fill="#454545" opacity="0.5"/>
          <path id="Path_1279225" data-name="Path 1279225" d="M227.269,152.148l-40.485-4.585a3.676,3.676,0,0,1-3.239-4.066l2.668-23.558a3.676,3.676,0,0,1,4.066-3.239l40.485,4.585A3.676,3.676,0,0,1,234,125.351l-2.668,23.558A3.677,3.677,0,0,1,227.269,152.148Z" fill="#44a1e0"/>
          <path id="Path_1279226" data-name="Path 1279226" d="M195.86,130.935l-3.211-.364a2.116,2.116,0,0,1-1.865-2.341l.206-1.816a2.116,2.116,0,0,1,2.341-1.865l3.211.364a2.116,2.116,0,0,1,1.865,2.341l-.206,1.816A2.116,2.116,0,0,1,195.86,130.935Z" fill="#e1a800"/>
          <path id="Path_1279227" data-name="Path 1279227" d="M234,125.35l-1.647,14.559-.087.759-.216,1.918-.718,6.325a3.679,3.679,0,0,1-4.066,3.238l-.4-.046L221,151.441l-12.558-1.426-4.715-.534c-.12-.175-.235-.354-.345-.534s-.239-.386-.354-.584a.437.437,0,0,0-.046-.078c-.1-.175-.193-.345-.29-.524-.106-.2-.212-.4-.313-.607q-.311-.614-.566-1.256c-.087-.216-.17-.432-.253-.649s-.156-.432-.23-.653-.143-.442-.207-.667a20.192,20.192,0,0,1-.566-8.878c.041-.276.092-.552.147-.823s.115-.543.184-.814c.055-.235.12-.469.184-.7s.147-.5.23-.741a2.319,2.319,0,0,1,.083-.253c.078-.239.166-.478.258-.718s.184-.469.285-.7.221-.5.336-.741c.1-.212.207-.423.317-.63a.856.856,0,0,1,.046-.092v0a20.213,20.213,0,0,1,2.93-4.172,20.569,20.569,0,0,1,2.282-2.148c.409-.331.828-.644,1.26-.934.212-.152.432-.294.653-.432s.451-.276.676-.409a20.425,20.425,0,0,1,2.99-1.412l17.347,1.964a3.558,3.558,0,0,1,1.265.386c.313.216.616.442.915.676a.016.016,0,0,1,.009,0A3.636,3.636,0,0,1,234,125.35Z" fill="#0083db"/>
          <path id="Path_1279228" data-name="Path 1279228" d="M230.378,138.823c-.175.133.147.515.359.837s.267.865.589,1,.685-.175.938,0a0,0,0,0,1,0,0l-.216,1.918a1.606,1.606,0,0,1-.285.235c-.308.175-.989.915-1.334.782s-.782.133-.934,0-.212-.819-.515-1.3-1.049-1.477-1.1-1.642a5.958,5.958,0,0,1-.589-1.385c0-.363.455-1.9.055-2.111s-1.2.152-1.6-.1-1.03-1.141-1.26-1.122-.074,1.1-.359,1.122-.915-1.2-1.09-1.486-1.007-1.122-1.256-1.113-.483.294-.308.313.308.34.483.552.741.474.814.722,0,.5-.189.515a.585.585,0,0,0-.437.212c-.055.11-.419.474-.515.285s.23-.455.248-.741-.552-.86-.722-.975-.708-.589-.842-.534-1.044.193-1.2.419-.681.952-.874,1.334-.685.837-1.049.722a3.646,3.646,0,0,1-.911-.359,1.694,1.694,0,0,1-.4-1.334,1.06,1.06,0,0,1,1.012-.589c.345.074.819.055.952-.115s.018-.5-.17-.685-.685-.345-.7-.5.363-.34.57-.34a1.689,1.689,0,0,0,.667-.212,1.268,1.268,0,0,0,.626-.442,2.788,2.788,0,0,1,.745-.8c.285-.152.741-.152.764-.382s.018-.607.018-.8.17-.511.34-.455a.641.641,0,0,1,.382.474c0,.175-.133.437.041.593s.322.152.741.23a3.07,3.07,0,0,0,1.408-.386c.308-.129.248-.892.552-.892s.63.06.745-.092.3-.515.552-.575.511-.189.437-.322a.547.547,0,0,0-.7-.041c-.267.193-.593.4-.764.248s-.626-.4-.534-.607a2.772,2.772,0,0,1,.4-.782c.152-.115.856-.46.63-.649s-.455-.3-.552-.207-.8.662-.9.8-.57.667-.474.856a1.621,1.621,0,0,1,.17.952c-.078.345-.676.837-.787.971s-.52.271-.681.078-.133-.837-.3-1.067-.285-.285-.63-.1-.4.782-.626.474a3.871,3.871,0,0,1-.4-1.081s-.239-.957.952-1.136.934-.354,1.122-.952.069-.948.308-1.132a5.353,5.353,0,0,1,1.132-.354c.534-.179,1.306-.952,1.845-.952s.892.538,1.665.833,1.964.474,1.964.773-.175,1.072-.593.957-.952-.6-1.012-.3.391.736.543.814a1.828,1.828,0,0,0,1.063-.248c.248-.17.345-.6.69-.566s.478-.538.534-.69.212-.207.248-.133.037.552.212.552.451-.552.681-.589a3.415,3.415,0,0,1,1.164-.133,2.6,2.6,0,0,0,1.237-.06c.207-.115-.189-.589,0-.649a2.736,2.736,0,0,1,.846.147l-1.647,14.559a1.771,1.771,0,0,1-.575-.193C231.519,139.527,230.548,138.69,230.378,138.823Z" fill="#0071bc"/>
          <path id="Path_1279229" data-name="Path 1279229" d="M240.429,141.422q.048-.269.083-.538c-.023.179-.046.354-.074.529Z" fill="#0071bc"/>
          <path id="Path_1279230" data-name="Path 1279230" d="M200.764,134.821c.275-.144.314-.155.45-.352s-.057-.371.138-.53.55-.234.609-.352-.118-.353,0-.515.687.006,1.375-.115a2.42,2.42,0,0,0,1.2-.527c.372-.237-.1-.707-.412-.968s-.805-.565-1.139-.8-.293-1.452-.293-1.452a2.643,2.643,0,0,0-.059-.381,20.062,20.062,0,0,0-2.07,6.221A.577.577,0,0,1,200.764,134.821Z" fill="#0071bc"/>
          <path id="Path_1279231" data-name="Path 1279231" d="M205.558,124.655a1.363,1.363,0,0,0,.091.337s.215.725,0,.941-.431.49-.706.551-.471.411,0,.862a13.205,13.205,0,0,1,.979,1.271c.472.554.61.888,1.021.81a.868.868,0,0,0,.726-.707c0-.274.157-1.264.571-1.506a3.5,3.5,0,0,1,1.312-.377c.276-.021.512-.806.963-.962s.883.178,1.254.079a1.546,1.546,0,0,0,.865-1.078,3.378,3.378,0,0,1,.646-1.374c.333-.393.883-.944.648-1.334s-.55-.589-.626-.923-.138-.628-.611-.607-1.019.393-1.472.294a5.716,5.716,0,0,1-.792-.2A20.256,20.256,0,0,0,205.558,124.655Z" fill="#0071bc"/>
          <path id="Path_1279232" data-name="Path 1279232" d="M209.066,149.4c-.2.115-.455.193-.552.469a.6.6,0,0,1-.074.143l-4.715-.534c-.12-.175-.235-.354-.345-.534s-.239-.386-.354-.584a.436.436,0,0,0-.046-.078c-.1-.175-.193-.345-.29-.524-.106-.2-.212-.4-.313-.607q-.3-.621-.566-1.256c-.087-.216-.17-.432-.253-.649s-.156-.432-.23-.653-.143-.442-.207-.667a.972.972,0,0,1,.092.055c.373.258.787.492.98.4s.474-.262.593-.179.488.469.819.745,1.081.212,1.279.35a1.911,1.911,0,0,1,.57.828.861.861,0,0,0,.547.768,9.114,9.114,0,0,0,1.412.451c.354.078,1.021.12,1.274.432s.649.212.727.644A1.058,1.058,0,0,1,209.066,149.4Z" fill="#0071bc"/>
          <path id="Path_1279233" data-name="Path 1279233" d="M230.65,145.107c-.041.258-2.328,2.673-2.475,2.976a3.291,3.291,0,0,0-.221,1.357c.041.345.3.883.193,1.274s-1.035.906-1.205,1.122a.407.407,0,0,0-.078.267L221,151.441a.952.952,0,0,1-.1-.253c-.11-.538.708-1.251.731-1.638s-.129-.133-.156-.888S220.3,147.388,220.3,147s.451-.842.345-1.187-.842,0-1.145-.212-.262-.455-.649-.543-.925.5-1.316.6a3.164,3.164,0,0,1-1.812-.235,4.463,4.463,0,0,1-1.467-1.707,5.1,5.1,0,0,1-.409-2.24,4.276,4.276,0,0,1,1.205-1.9c.524-.345.695-.952.929-1.187s.285-.736.649-.883.994.538,1.233.538.538-.584.773-.649.409.046.695.046,1.012-.345,1.293-.239.147.994.409,1.136.754.1,1.017.2.451.69.837.69.5-.994.994-.883,1.228.69,1.532.731,1.251-.322,1.421,0-.147.906.11,1.4,1.053,2.351,1.4,2.806.8,1.076,1.118,1.122,1.3-.432,1.467-.216S230.7,144.844,230.65,145.107Z" fill="#0071bc"/>
          <path id="Path_1279234" data-name="Path 1279234" d="M191.436,137.655l-.337-.038a.49.49,0,0,1-.432-.542l.116-1.026a.49.49,0,0,1,.542-.432l.337.038a.49.49,0,0,1,.432.542l-.116,1.026A.49.49,0,0,1,191.436,137.655Z" fill="#ccc"/>
          <path id="Path_1279235" data-name="Path 1279235" d="M193.158,137.85l-.337-.038a.49.49,0,0,1-.432-.542l.116-1.026a.49.49,0,0,1,.542-.432l.337.038a.49.49,0,0,1,.432.542l-.116,1.027A.49.49,0,0,1,193.158,137.85Z" fill="#ccc"/>
          <path id="Path_1279236" data-name="Path 1279236" d="M194.879,138.044l-.337-.038a.49.49,0,0,1-.432-.542l.116-1.027a.49.49,0,0,1,.542-.432l.337.038a.49.49,0,0,1,.432.542l-.116,1.027A.489.489,0,0,1,194.879,138.044Z" fill="#ccc"/>
          <path id="Path_1279237" data-name="Path 1279237" d="M196.6,138.239l-.337-.038a.49.49,0,0,1-.432-.542l.116-1.027a.49.49,0,0,1,.542-.432l.337.038a.49.49,0,0,1,.432.542l-.116,1.027A.49.49,0,0,1,196.6,138.239Z" fill="#ccc"/>
          <path id="Path_1279238" data-name="Path 1279238" d="M200.309,138.66l-.337-.038a.49.49,0,0,1-.432-.542l.116-1.026a.49.49,0,0,1,.542-.432l.337.038a.49.49,0,0,1,.432.542l-.116,1.026A.49.49,0,0,1,200.309,138.66Z" fill="#ccc"/>
          <path id="Path_1279239" data-name="Path 1279239" d="M202.031,138.854l-.337-.038a.49.49,0,0,1-.432-.542l.116-1.026a.49.49,0,0,1,.542-.432l.337.038a.49.49,0,0,1,.432.542l-.116,1.026A.49.49,0,0,1,202.031,138.854Z" fill="#ccc"/>
          <path id="Path_1279240" data-name="Path 1279240" d="M203.752,139.049l-.337-.038a.49.49,0,0,1-.432-.542l.116-1.026a.49.49,0,0,1,.542-.432l.337.038a.49.49,0,0,1,.432.542l-.116,1.026A.491.491,0,0,1,203.752,139.049Z" fill="#ccc"/>
          <path id="Path_1279241" data-name="Path 1279241" d="M205.473,139.244l-.337-.038a.49.49,0,0,1-.432-.542l.116-1.026a.49.49,0,0,1,.542-.432l.337.038a.49.49,0,0,1,.432.542l-.116,1.027A.489.489,0,0,1,205.473,139.244Z" fill="#ccc"/>
          <path id="Path_1279242" data-name="Path 1279242" d="M209.182,139.664l-.337-.038a.49.49,0,0,1-.432-.542l.116-1.027a.49.49,0,0,1,.542-.432l.337.038a.49.49,0,0,1,.432.542l-.116,1.026A.49.49,0,0,1,209.182,139.664Z" fill="#ccc"/>
          <path id="Path_1279243" data-name="Path 1279243" d="M210.9,139.859l-.337-.038a.49.49,0,0,1-.432-.542l.116-1.026a.49.49,0,0,1,.542-.432l.337.038a.49.49,0,0,1,.432.542l-.116,1.026A.49.49,0,0,1,210.9,139.859Z" fill="#ccc"/>
          <path id="Path_1279244" data-name="Path 1279244" d="M212.624,140.054l-.337-.038a.49.49,0,0,1-.432-.542l.116-1.026a.49.49,0,0,1,.542-.432l.337.038a.49.49,0,0,1,.432.542l-.116,1.026A.49.49,0,0,1,212.624,140.054Z" fill="#ccc"/>
          <path id="Path_1279245" data-name="Path 1279245" d="M214.346,140.249l-.337-.038a.49.49,0,0,1-.432-.542l.116-1.026a.49.49,0,0,1,.542-.432l.337.038a.49.49,0,0,1,.432.542l-.116,1.026A.489.489,0,0,1,214.346,140.249Z" fill="#ccc"/>
          <path id="Path_1279246" data-name="Path 1279246" d="M218.055,140.669l-.337-.038a.49.49,0,0,1-.432-.542l.116-1.027a.49.49,0,0,1,.542-.432l.337.038a.49.49,0,0,1,.432.542l-.116,1.027A.49.49,0,0,1,218.055,140.669Z" fill="#ccc"/>
          <path id="Path_1279247" data-name="Path 1279247" d="M219.776,140.864l-.337-.038a.49.49,0,0,1-.432-.542l.116-1.027a.49.49,0,0,1,.542-.432l.337.038a.49.49,0,0,1,.432.542l-.116,1.026A.49.49,0,0,1,219.776,140.864Z" fill="#ccc"/>
          <path id="Path_1279248" data-name="Path 1279248" d="M221.5,141.059l-.337-.038a.49.49,0,0,1-.432-.542l.116-1.027a.49.49,0,0,1,.542-.432l.337.038a.49.49,0,0,1,.432.542l-.116,1.026A.489.489,0,0,1,221.5,141.059Z" fill="#ccc"/>
          <path id="Path_1279249" data-name="Path 1279249" d="M223.219,141.254l-.337-.038a.49.49,0,0,1-.432-.542l.116-1.026a.49.49,0,0,1,.542-.432l.337.038a.49.49,0,0,1,.432.542l-.116,1.026A.49.49,0,0,1,223.219,141.254Z" fill="#ccc"/>
          <path id="Path_1279250" data-name="Path 1279250" d="M229.547,127.026l-13.392-1.517a.935.935,0,0,1-.824-1.034l.114-1a.935.935,0,0,1,1.034-.824l13.392,1.517a.935.935,0,0,1,.824,1.034l-.114,1A.935.935,0,0,1,229.547,127.026Z" fill="#fff"/>
          <path id="Path_1279251" data-name="Path 1279251" d="M198.358,127.687l.02-.179-2.52-.285a4.513,4.513,0,0,1,.246-.892l2.366.268a1.483,1.483,0,0,0-.012-.183l-2.288-.259a4.226,4.226,0,0,1,.748-1.2l-.214-.024a4.527,4.527,0,0,0-.719,1.2l-2.384-.27a4.406,4.406,0,0,0-.428-1.334l-.214-.024a4.3,4.3,0,0,1,.457,1.337l-2.288-.259a1.491,1.491,0,0,0-.052.175l2.366.268a4.506,4.506,0,0,1,.04.924l-2.52-.286-.02.179,2.527.286c0,.04-.006.083-.01.122a4.881,4.881,0,0,1-.154.783l-2.467-.279-.02.178,2.438.276a4.532,4.532,0,0,1-.378.877l-2.156-.244c0,.062,0,.12,0,.182l2.052.232a4.058,4.058,0,0,1-1.041,1.139,1.04,1.04,0,0,0,.2.07,4.152,4.152,0,0,0,1.036-1.186l2.86.324a4.144,4.144,0,0,0,.741,1.387s0,0,0,0a1.358,1.358,0,0,0,.213-.023,4.066,4.066,0,0,1-.764-1.343l2.052.232c.017-.059.031-.116.045-.176l-2.156-.244a4.49,4.49,0,0,1-.173-.939l2.438.276.02-.178-2.467-.279a4.835,4.835,0,0,1,.025-.8c0-.039.009-.082.017-.121Zm-4.732-1.636,2.288.259a5.4,5.4,0,0,0-.235.893l-2.019-.229A4.509,4.509,0,0,0,193.627,126.051Zm2.153,3.368-2.709-.307a4.588,4.588,0,0,0,.364-.879l2.18.247A4.649,4.649,0,0,0,195.78,129.419Zm-.173-1.121-2.12-.24a5.269,5.269,0,0,0,.15-.783c0-.04.009-.082.01-.122l2.005.227c-.008.039-.013.082-.017.121A5.274,5.274,0,0,0,195.606,128.3Z" fill="#5d7a10"/>
        </g>
        <g id="Group_1209727" data-name="Group 1209727">
          <rect id="Rectangle_413158" data-name="Rectangle 413158" width="98.551" height="130.342" transform="translate(38.87 66.395) rotate(-11.988)" fill="#454545" opacity="0.5"/>
          <rect id="Rectangle_413159" data-name="Rectangle 413159" width="98.551" height="130.342" transform="translate(38.058 65.867) rotate(-11.988)" fill="#f0f0f0"/>
          <rect id="Rectangle_413160" data-name="Rectangle 413160" width="94.101" height="6.341" transform="translate(45.898 92.077) rotate(-11.988)" fill="#d9d9d9"/>
          <rect id="Rectangle_413161" data-name="Rectangle 413161" width="94.101" height="6.341" transform="translate(59.958 158.298) rotate(-11.988)" fill="#d9d9d9"/>
          <rect id="Rectangle_413162" data-name="Rectangle 413162" width="94.08" height="0.681" transform="translate(64.592 180.122) rotate(-11.988)" fill="#d9d9d9"/>
          <rect id="Rectangle_413163" data-name="Rectangle 413163" width="94.08" height="0.681" transform="translate(45.001 87.855) rotate(-11.988)" fill="#d9d9d9"/>
          <rect id="Rectangle_413164" data-name="Rectangle 413164" width="31.368" height="2.725" transform="translate(41.639 72.022) rotate(-11.988)" fill="#d9d9d9"/>
          <path id="Path_1279252" data-name="Path 1279252" d="M133.734,55.76l-17.366,3.687-.771-3.632,17.366-3.687Zm-16.605,2.516L132.562,55l-.361-1.7-15.433,3.277Z" fill="#d9d9d9"/>
          <rect id="Rectangle_413165" data-name="Rectangle 413165" width="41.748" height="2.725" transform="translate(42.717 77.099) rotate(-11.988)" fill="#d9d9d9"/>
          <rect id="Rectangle_413166" data-name="Rectangle 413166" width="26.629" height="2.725" transform="translate(43.749 81.955) rotate(-11.988)" fill="#d9d9d9"/>
          <rect id="Rectangle_413167" data-name="Rectangle 413167" width="26.629" height="2.725" transform="translate(65.036 182.213) rotate(-11.988)" fill="#d9d9d9"/>
          <path id="Path_1279253" data-name="Path 1279253" d="M151.271,135.306h0l-1.193-5.62h0l-1.6-7.52h0l-1.193-5.62h0L140.272,83.5l-.23-1.083-.336-1.583L47.659,100.381l.566,2.665.056-.012,1.414,6.659-.056.012,1.193,5.62.056-.012,1.6,7.52-.056.012,1.193,5.62.056-.012,1.619,7.624-.056.012,1.193,5.62.056-.012,1.6,7.52-.056.012,1.193,5.62.056-.012.155.73,57.834-12.279,0-.019,14.921-3.168.857-.182,18.381-3.9Zm-26.135-27.9-14.814,3.145-1.6-7.52,14.814-3.145Zm-.533-7.745,17.317-3.676,1.6,7.52L126.2,107.184Zm1.725,13.365,1.619,7.625L113.133,123.8l-1.619-7.625Zm2.812,13.244,1.6,7.52-14.814,3.145-1.6-7.52Zm19.977,3.617L131.8,133.567l-1.6-7.52,17.317-3.676Zm-20.107-9.463-1.619-7.624,17.317-3.676,1.619,7.625Zm10.3-36.72,1.414,6.659L123.41,94.044,122,87.384Zm-18.381,3.9,1.414,6.659-14.814,3.145-1.414-6.659ZM49.241,102.831,105.155,90.96l1.414,6.659L50.655,109.491Zm2.607,12.279,55.913-11.871,1.6,7.52L53.445,122.63Zm2.79,13.139,55.913-11.871L112.17,124,56.257,135.874Zm2.812,13.244,55.913-11.871,1.6,7.52L59.046,149.013Z" fill="#d9d9d9"/>
        </g>
        <g id="Group_1209728" data-name="Group 1209728">
          <rect id="Rectangle_413168" data-name="Rectangle 413168" width="94.617" height="129.852" transform="matrix(0.98, 0.201, -0.201, 0.98, 107.677, 49.809)" fill="#8a8a8a"/>
          <rect id="Rectangle_413169" data-name="Rectangle 413169" width="94.617" height="129.853" transform="matrix(0.98, 0.201, -0.201, 0.98, 107.315, 49.088)" fill="#ededed"/>
          <rect id="Rectangle_413170" data-name="Rectangle 413170" width="85.747" height="6.899" transform="matrix(0.98, 0.201, -0.201, 0.98, 109.077, 62.577)" fill="#d9d9d9"/>
          <rect id="Rectangle_413171" data-name="Rectangle 413171" width="31.046" height="6.899" transform="matrix(0.98, 0.201, -0.201, 0.98, 135.87, 68.069)" fill="#ededed"/>
          <rect id="Rectangle_413172" data-name="Rectangle 413172" width="11.57" height="85.747" transform="matrix(0.201, -0.98, 0.98, 0.201, 88, 165.432)" fill="#ededed"/>
          <rect id="Rectangle_413173" data-name="Rectangle 413173" width="11.57" height="85.747" transform="matrix(0.201, -0.98, 0.98, 0.201, 90.36, 153.918)" fill="#d9d9d9"/>
          <rect id="Rectangle_413174" data-name="Rectangle 413174" width="11.57" height="85.747" transform="matrix(0.201, -0.98, 0.98, 0.201, 92.721, 142.403)" fill="#ededed"/>
          <rect id="Rectangle_413175" data-name="Rectangle 413175" width="11.57" height="85.747" transform="matrix(0.201, -0.98, 0.98, 0.201, 95.081, 130.889)" fill="#d9d9d9"/>
          <rect id="Rectangle_413176" data-name="Rectangle 413176" width="11.57" height="85.747" transform="matrix(0.201, -0.98, 0.98, 0.201, 97.442, 119.375)" fill="#ededed"/>
          <rect id="Rectangle_413177" data-name="Rectangle 413177" width="11.57" height="85.747" transform="matrix(0.201, -0.98, 0.98, 0.201, 99.802, 107.861)" fill="#d9d9d9"/>
          <path id="Path_1279254" data-name="Path 1279254" d="M193.823,79.308,195.2,72.58,109.975,55.112l-1.636,7.983-1.379,6.728h0l-1.379,6.728h0L104.2,83.277h0L102.823,90h0L101.43,96.8h0l-1.746,8.519-.405,1.977h0l-1.054,5.142L87.287,165.8h0l-.023.111h0l-1.244,6.067,85.228,17.468,1.243-6.067h0l2.574-12.56h0l.938-4.58,1.422-6.935h0l.787-3.837,1.574-7.677h0l.564-2.754,1.8-8.76h0l.5-2.432,1.862-9.083h0l.276-1.348,2.084-10.166h0l1.427-6.964h0l1.393-6.795h0l1.379-6.728h0l1.379-6.728h0l1.38-6.728Zm-57.467-10.47,29.191,5.983-1.121,5.472L135.235,74.31Zm-26.794-5.492,25.57,5.241-1.121,5.472-25.57-5.241Zm-7.688,37.513.738-3.6,2.879.59-2.072,10.111-2.879-.59Zm72.709,23.146-2.072,10.111-6.983-1.431,2.072-10.111Zm-6.7-2.835,2.072-10.111,6.983,1.431L174.87,122.6Zm3.69,60.453-7.224-1.481,2.015-9.829,7.224,1.481ZM92.9,165.5l2.014-9.829,10.6,2.174-2.014,9.829Zm68.754-20.146-2.072,10.111-9.879-2.025,2.072-10.111Zm-9.592-3.428,2.072-10.111,9.879,2.025-2.072,10.111Zm7.232,14.942-2.072,10.111-9.879-2.025,2.072-10.111Zm-8.456-15.193-39.088-8.011,2.072-10.111,39.088,8.011Zm-.288,1.4-2.072,10.111-39.088-8.011,2.072-10.111Zm-2.36,11.514L146.119,164.7l-39.088-8.011,2.072-10.111Zm-37.665-21.18-10.6-2.173L102,121.126l10.6,2.173Zm-.287,1.4-2.072,10.111-10.6-2.174,2.072-10.111Zm-2.36,11.514-2.072,10.111-10.6-2.173,2.072-10.111Zm-3.15,21.594,2.015-9.829,39.088,8.011-2.015,9.829Zm40.312,8.263,2.015-9.829,9.879,2.025-2.014,9.829Zm11.1,2.276,2.015-9.829,6.983,1.431-2.014,9.829Zm9.286-9.8-6.983-1.432,2.072-10.111,6.983,1.432Zm-4.623-12.945L162.88,145.6l6.983,1.431-2.072,10.111Zm2.36-11.514,2.072-10.111,6.983,1.431L170.15,145.63Zm3.5-23.279-9.879-2.025,2.072-10.111,9.879,2.025Zm-.287,1.4L164.3,132.434l-9.879-2.025L156.5,120.3Zm-10.816-3.679-39.088-8.011,2.072-10.111,39.088,8.011Zm-.288,1.4L153.2,130.159l-39.088-8.011,2.072-10.111Zm-40.025-9.666-10.6-2.174L106.716,98.1l10.6,2.174Zm-.287,1.4L112.887,121.9l-10.6-2.174,2.072-10.111Zm-15.33.027.623-3.042,2.879.59-2.072,10.111-2.879-.59Zm-2,9.767.265-1.294,2.879.59L98.7,130.986l-2.879-.59Zm-2.209,10.779.115-.559,2.879.59L96.339,142.5l-2.879-.59Zm-2.245,10.955,2.879.59-2.072,10.111-2.879-.59Zm.519,12.1-2.014,9.829-2.879-.59,2.014-9.829ZM174.985,165l-1.106,5.4-7.224-1.481,2.072-10.111,7.224,1.481Zm2.054-10.024-.8,3.905-7.224-1.481,2.072-10.111,7.224,1.481ZM179,145.395l-.4,1.967-7.224-1.481,2.072-10.111,7.224,1.481Zm2.134-10.415-.178.868-7.224-1.481,2.072-10.111,7.224,1.481Zm2.182-10.646-7.224-1.481,2.072-10.111,7.224,1.481ZM187.077,106,104.3,89.032l1.128-5.5L188.2,100.495Zm1.386-6.759L105.683,82.273,106.8,76.8l82.779,16.966Zm1.379-6.728L107.062,75.546l1.121-5.472,41.389,8.483L165.393,81.8h0l25.57,5.241Zm1.379-6.728-25.57-5.241,1.121-5.472,25.57,5.241Z" fill="#fff"/>
        </g>
        <g id="Group_1209729" data-name="Group 1209729">
          <path id="Path_1279255" data-name="Path 1279255" d="M225.957,78.3l-45.222,26.249a3.043,3.043,0,0,1-4.159-1.1L151.71,60.608a3.043,3.043,0,0,1,1.1-4.159L198.036,30.2a3.043,3.043,0,0,1,4.159,1.1l24.866,42.839A3.043,3.043,0,0,1,225.957,78.3Z" fill="#8c5825"/>
          <path id="Path_1279256" data-name="Path 1279256" d="M180.816,102.908a2.819,2.819,0,0,1-3.79-1.194L153.438,61.076a2.818,2.818,0,0,1,.844-3.882l43.673-25.35a2.818,2.818,0,0,1,3.789,1.193l23.589,40.639a2.819,2.819,0,0,1-.843,3.883Z" fill="#663d16"/>
          <path id="Path_1279257" data-name="Path 1279257" d="M222.326,80.409,177.1,106.658a3.043,3.043,0,0,1-4.159-1.1L148.08,62.715a3.043,3.043,0,0,1,1.1-4.159l45.222-26.249a3.043,3.043,0,0,1,4.159,1.1L223.43,76.251A3.042,3.042,0,0,1,222.326,80.409Z" fill="#7d4b1b"/>
          <path id="Path_1279258" data-name="Path 1279258" d="M152.458,58.429l-1.8,1.045a.385.385,0,0,0,.385.663l1.8-1.045a.385.385,0,0,0-.385-.663Zm3-1.742-1.8,1.045a.385.385,0,0,0,.385.663l1.8-1.045a.385.385,0,0,0-.385-.663Zm3-1.742-1.8,1.045a.385.385,0,0,0,.385.663l1.8-1.045a.385.385,0,0,0-.385-.663Zm3-1.742-1.8,1.045a.385.385,0,0,0,.385.663l1.8-1.045a.385.385,0,0,0-.385-.663Zm3-1.742-1.8,1.045a.385.385,0,0,0,.385.663l1.8-1.045a.385.385,0,0,0-.385-.663Zm3-1.742-1.8,1.045a.385.385,0,0,0,.385.663l1.8-1.045a.385.385,0,0,0-.385-.663Zm3-1.742-1.8,1.045a.385.385,0,0,0,.385.663l1.8-1.045a.385.385,0,0,0-.385-.663Zm3-1.742-1.8,1.045a.385.385,0,0,0,.385.663l1.8-1.045a.385.385,0,0,0-.385-.663Zm3-1.742-1.8,1.045a.385.385,0,0,0,.385.663l1.8-1.045a.385.385,0,0,0-.385-.663Zm3-1.742-1.8,1.045a.385.385,0,0,0,.385.663l1.8-1.045a.385.385,0,0,0-.385-.663Zm3-1.742-1.8,1.045a.385.385,0,0,0,.385.663l1.8-1.045a.385.385,0,0,0-.385-.663Zm3-1.742-1.8,1.045a.385.385,0,0,0,.385.663l1.8-1.045a.385.385,0,0,0-.385-.663Zm3-1.742-1.8,1.045a.385.385,0,0,0,.385.663l1.8-1.045a.385.385,0,0,0-.385-.663Zm3-1.742-1.8,1.045a.385.385,0,0,0,.385.663l1.8-1.045a.385.385,0,0,0-.385-.663Zm3.115-1.7a2.761,2.761,0,0,0-.678.283l-1.236.718a.385.385,0,0,0,.385.663l1.236-.718a2.172,2.172,0,0,1,.526-.221.318.318,0,0,0,.075-.03.357.357,0,0,0,.146-.426A.388.388,0,0,0,194.579,34.091Zm-45.122,26.08-.528.306a2.871,2.871,0,0,0-.968.93,2.576,2.576,0,0,0,.267.633l.094.162a.312.312,0,0,0,.117-.13,2.233,2.233,0,0,1,.874-.933l.528-.306a.385.385,0,0,0-.385-.663Zm46.7-26.075a.323.323,0,0,0-.409.269.411.411,0,0,0,.292.455,2.77,2.77,0,0,1,1.564,1.126.366.366,0,0,0,.477.131l.024-.014a.378.378,0,0,0,.068-.518A3.574,3.574,0,0,0,196.158,34.1Zm2.317,2.639a.365.365,0,0,0-.108.506l1.154,1.989a.349.349,0,1,0,.6-.348l-1.154-1.989A.367.367,0,0,0,198.476,36.735Zm1.924,3.314a.365.365,0,0,0-.108.506l1.154,1.989a.349.349,0,1,0,.6-.348l-1.154-1.989A.368.368,0,0,0,200.4,40.049Zm1.924,3.315a.365.365,0,0,0-.108.506l1.155,1.989a.349.349,0,1,0,.6-.348l-1.154-1.989A.368.368,0,0,0,202.324,43.364Zm1.924,3.314a.365.365,0,0,0-.108.506l1.154,1.989a.349.349,0,1,0,.6-.348l-1.155-1.989A.368.368,0,0,0,204.248,46.678Zm1.924,3.315a.365.365,0,0,0-.108.506l1.154,1.989a.349.349,0,1,0,.6-.348l-1.154-1.989A.367.367,0,0,0,206.172,49.993Zm1.924,3.314a.365.365,0,0,0-.108.506l1.154,1.989a.349.349,0,1,0,.6-.348l-1.154-1.989A.368.368,0,0,0,208.1,53.307Zm1.924,3.315a.365.365,0,0,0-.108.506l1.154,1.989a.349.349,0,1,0,.6-.348l-1.154-1.989A.368.368,0,0,0,210.019,56.622Zm1.924,3.314a.365.365,0,0,0-.108.506l1.154,1.989a.349.349,0,1,0,.6-.348l-1.154-1.989A.367.367,0,0,0,211.943,59.936Zm1.924,3.315a.365.365,0,0,0-.108.506l1.154,1.989a.349.349,0,1,0,.6-.348l-1.154-1.989A.367.367,0,0,0,213.867,63.251Zm1.924,3.315a.365.365,0,0,0-.108.506l1.154,1.989a.349.349,0,1,0,.6-.348l-1.154-1.989A.367.367,0,0,0,215.791,66.566Zm1.924,3.314a.365.365,0,0,0-.108.506l1.154,1.989a.349.349,0,1,0,.6-.348l-1.154-1.989A.368.368,0,0,0,217.715,69.88Zm1.924,3.315a.365.365,0,0,0-.108.506l1.149,1.979a.368.368,0,0,0,.489.172l.009-.005a.363.363,0,0,0,.109-.5l-1.155-2A.367.367,0,0,0,219.639,73.195Zm1.742,3.394a.33.33,0,0,0-.34.361,2.489,2.489,0,0,1-.589,1.756.392.392,0,0,0,.04.531.354.354,0,0,0,.423.065.291.291,0,0,0,.079-.064,3.185,3.185,0,0,0,.759-2.258A.406.406,0,0,0,221.381,76.589Zm-46.455,28.675a2.237,2.237,0,0,1-1.449.274l.129.222a2.586,2.586,0,0,0,.415.543,2.826,2.826,0,0,0,1.29-.376.385.385,0,0,0-.385-.663Zm2.475-1.437-1.8,1.045a.385.385,0,0,0,.385.663l1.8-1.045a.385.385,0,0,0-.385-.663Zm3-1.742-1.8,1.045a.385.385,0,0,0,.385.663l1.8-1.045a.385.385,0,0,0-.385-.663Zm3-1.742-1.8,1.045a.385.385,0,0,0,.385.663l1.8-1.045a.385.385,0,0,0-.385-.663Zm3-1.742-1.8,1.045a.385.385,0,0,0,.385.663l1.8-1.045a.385.385,0,0,0-.385-.663Zm3-1.742-1.8,1.045a.385.385,0,0,0,.385.663l1.8-1.045a.385.385,0,0,0-.385-.663Zm3-1.742-1.8,1.045a.385.385,0,0,0,.385.663l1.8-1.045a.385.385,0,0,0-.385-.663Zm3-1.742-1.8,1.045a.385.385,0,0,0,.385.663l1.8-1.045a.385.385,0,0,0-.385-.663Zm3-1.742-1.8,1.045a.385.385,0,0,0,.385.663l1.8-1.045a.385.385,0,0,0-.385-.663Zm3-1.742-1.8,1.045a.385.385,0,0,0,.385.663l1.8-1.045a.385.385,0,0,0-.385-.663Zm3-1.742L202.6,89.2a.385.385,0,0,0,.385.663l1.8-1.045a.385.385,0,0,0-.385-.663Zm3-1.742-1.8,1.045a.385.385,0,0,0,.385.663l1.8-1.045a.385.385,0,0,0-.385-.663Zm3-1.742-1.8,1.045a.385.385,0,0,0,.385.663l1.8-1.045a.385.385,0,0,0-.385-.663Zm3-1.742-1.8,1.045a.385.385,0,0,0,.385.663l1.8-1.045a.385.385,0,0,0-.385-.663Zm3-1.742-1.8,1.045a.385.385,0,0,0,.385.663l1.8-1.045a.385.385,0,0,0-.385-.663Zm3-1.742-1.8,1.045a.385.385,0,0,0,.385.663l1.8-1.045a.385.385,0,0,0-.385-.663Z" fill="#5c3714"/>
          <path id="Path_1279259" data-name="Path 1279259" d="M193.6,71.006a1.926,1.926,0,0,1-2.63-.7l-3.584-6.175a1.926,1.926,0,0,1,.7-2.63l23.183-13.456a1.926,1.926,0,0,1,2.63.7l3.584,6.176a1.926,1.926,0,0,1-.7,2.63Z" fill="#5c3714"/>
          <path id="Path_1279260" data-name="Path 1279260" d="M216.554,57.152,193.371,70.608a1.464,1.464,0,0,1-2-.531L187.786,63.9a1.464,1.464,0,0,1,.531-2L211.5,48.444a1.464,1.464,0,0,1,2,.531l3.584,6.176A1.464,1.464,0,0,1,216.554,57.152Z" fill="#7d4b1b"/>
          <path id="Path_1279261" data-name="Path 1279261" d="M216.827,55.218l-1.638.95a.383.383,0,0,0,.385.663l1.638-.95a.383.383,0,0,0-.385-.663Zm-2.947,1.711-1.634.949a.383.383,0,0,0,.385.663l1.634-.949a.383.383,0,0,0-.385-.663Zm-2.943,1.708-1.638.95a.383.383,0,0,0,.385.663l1.638-.95a.383.383,0,0,0-.385-.663Zm-2.947,1.71-1.638.95a.383.383,0,0,0,.385.663l1.637-.95a.383.383,0,0,0-.385-.663Zm-2.947,1.71-1.637.95a.383.383,0,1,0,.385.663l1.638-.95a.383.383,0,1,0-.385-.663Zm-2.946,1.71-1.638.95a.383.383,0,0,0,.385.663l1.638-.95a.383.383,0,0,0-.385-.663Zm-2.947,1.71-1.634.949a.383.383,0,0,0,.385.663l1.634-.949a.383.383,0,0,0-.385-.663Zm-2.944,1.708-1.638.95a.383.383,0,0,0,.385.663l1.638-.95a.383.383,0,0,0-.385-.663ZM193.25,68.9a.681.681,0,0,1-.931-.244l-.112-.192a.383.383,0,0,0-.663.385l.111.192a1.447,1.447,0,0,0,1.978.523l.01-.006a.376.376,0,0,0,.132-.52A.388.388,0,0,0,193.25,68.9Zm-3.276-3.522a.384.384,0,0,0-.139.524l.95,1.638a.383.383,0,0,0,.663-.385l-.95-1.637A.384.384,0,0,0,189.974,65.381Zm-.382-2.964a.381.381,0,0,0-.541,0,1.448,1.448,0,0,0-.226,1.748l.25.431a.383.383,0,0,0,.663-.385l-.25-.431a.684.684,0,0,1,.107-.824A.382.382,0,0,0,189.592,62.417Zm23.083-13.771-1.638.95a.383.383,0,0,0,.385.663l1.637-.95a.383.383,0,0,0-.385-.663Zm-2.947,1.71-1.634.949a.383.383,0,0,0,.385.663l1.634-.949a.383.383,0,1,0-.385-.663Zm-2.943,1.708-1.638.95a.383.383,0,1,0,.385.663l1.638-.95a.383.383,0,1,0-.385-.663Zm-2.947,1.71-1.638.95a.383.383,0,1,0,.385.663l1.638-.95a.383.383,0,1,0-.385-.663Zm-2.947,1.71-1.638.95a.383.383,0,1,0,.385.663l1.638-.95a.383.383,0,0,0-.385-.663Zm-2.947,1.71-1.638.95a.383.383,0,1,0,.385.663l1.638-.95a.383.383,0,0,0-.385-.663ZM195,58.906l-1.634.949a.383.383,0,0,0,.385.663l1.634-.949a.383.383,0,1,0-.385-.663Zm-2.944,1.708-1.638.95a.383.383,0,1,0,.385.663l1.638-.95a.383.383,0,0,0-.385-.663Z" fill="#5c3714"/>
          <path id="Path_1279262" data-name="Path 1279262" d="M196.288,63.009a2.463,2.463,0,1,1-3.367-.894A2.463,2.463,0,0,1,196.288,63.009Z" fill="#b08d28"/>
          <circle id="Ellipse_12697" data-name="Ellipse 12697" cx="2.255" cy="2.255" r="2.255" transform="matrix(0.254, -0.967, 0.967, 0.254, 191.258, 65.81)" fill="#e1b533"/>
          <path id="Path_1279263" data-name="Path 1279263" d="M194.514,62.27c1.068.283-.869.291-1.2,1.822s1.24,2.33.172,2.047a2,2,0,0,1,1.027-3.869Z" fill="#ebcb6f"/>
        </g>
        <g id="Group_1209730" data-name="Group 1209730">
          <rect id="Rectangle_413178" data-name="Rectangle 413178" width="94.01" height="129.592" transform="translate(70.515 69.206)" fill="#454545" opacity="0.5"/>
          <rect id="Rectangle_413179" data-name="Rectangle 413179" width="94.01" height="129.592" transform="translate(69.902 68.501)" fill="#fff"/>
          <rect id="Rectangle_413180" data-name="Rectangle 413180" width="94.01" height="9.098" transform="translate(69.865 68.501)" fill="#dedede"/>
          <rect id="Rectangle_413181" data-name="Rectangle 413181" width="19.004" height="3.437" transform="translate(141.037 84.826)" fill="#dedede"/>
          <rect id="Rectangle_413182" data-name="Rectangle 413182" width="25.271" height="3.437" transform="translate(134.773 89.275)" fill="#dedede"/>
          <rect id="Rectangle_413183" data-name="Rectangle 413183" width="21.43" height="3.437" transform="translate(138.617 93.924)" fill="#dedede"/>
          <rect id="Rectangle_413184" data-name="Rectangle 413184" width="29.695" height="3.437" transform="translate(104.005 88.291) rotate(179.965)" fill="#dedede"/>
          <rect id="Rectangle_413185" data-name="Rectangle 413185" width="39.031" height="3.437" transform="translate(113.344 92.733) rotate(179.965)" fill="#dedede"/>
          <rect id="Rectangle_413186" data-name="Rectangle 413186" width="39.031" height="3.437" transform="translate(113.393 171.782) rotate(179.965)" fill="#dedede"/>
          <rect id="Rectangle_413187" data-name="Rectangle 413187" width="34.03" height="3.437" transform="translate(108.345 97.387) rotate(179.964)" fill="#dedede"/>
          <rect id="Rectangle_413188" data-name="Rectangle 413188" width="85.935" height="5.863" transform="translate(160.278 142.461) rotate(179.965)" fill="#dedede"/>
          <rect id="Rectangle_413189" data-name="Rectangle 413189" width="85.935" height="5.863" transform="translate(160.286 154.114) rotate(179.965)" fill="#dedede"/>
          <path id="Path_1279264" data-name="Path 1279264" d="M160.764,130.318l0-5.863-86.923.053,0,5.863h0l0,6.85h0l0,4.712h0l0,6.85h0l0,4.891h0l0,6.85,62.078-.038,0,5.077h0l0,6.851,24.844-.016,0-6.851h0l0-6.064,0-5.864h0l0-4.891h0l0-5.776h0l0-6.85h0l0-5.786Zm-.962,41.1-22.868.014,0-4.875,22.868-.014Zm0-6.065-22.868.014,0-4.875,22.868-.014Zm0-5.863-23.1.014-61.852.038,0-4.876,84.947-.052Zm-.006-10.74,0,4.876-84.947.052,0-4.876Zm-84.951-5.738,84.947-.052,0,4.789L74.84,147.8Zm84.947-1.127-84.947.052,0-4.712,84.947-.052Zm0-5.776-84.947.052,0-4.8,83.217-.051h1.731Z" fill="#dedede"/>
          <path id="Path_1279265" data-name="Path 1279265" d="M160.75,106.057l-86.923.053,0,5.863h0l0,6.85,19.6-.012h0L118.3,118.8h0l18.2-.011h0l24.261-.015,0-6.85h0ZM135.508,117.8l-17.208.011,0-4.875,17.208-.011Zm-42.074.026,0-4.876,23.88-.015,0,4.875Zm-12.782-4.868,11.792-.007,0,4.875-17.624.011,0-4.875,3.892,0Zm79.118,4.827L136.5,117.8l0-4.875,21.991-.013h1.282Z" fill="#dedede"/>
          <path id="Path_1279266" data-name="Path 1279266" d="M160.761,124.454l-43.242.027.022,36.1,19.385-.012h0l23.857-.015Zm-42.254,1.014,17.41-.011.021,34.121-17.41.011Zm18.419,34.11-.021-34.121,22.868-.014.021,34.121Z" fill="#dedede"/>
        </g>
        <g id="Group_1209731" data-name="Group 1209731">
          <rect id="Rectangle_413190" data-name="Rectangle 413190" width="38.385" height="38.385" transform="translate(146.143 197.953) rotate(17.775)" fill="#659c1c"/>
          <rect id="Rectangle_413191" data-name="Rectangle 413191" width="38.385" height="38.385" transform="translate(145.856 197.697) rotate(17.775)" fill="#96d446"/>
          <path id="Path_1279267" data-name="Path 1279267" d="M139.832,191.209l-7.9,37.043,37.043,7.9,4.951-23.227-10.871-16.762Z" fill="#659c1c"/>
          <path id="Path_1279268" data-name="Path 1279268" d="M139.634,190.91l-7.9,37.043,37.043,7.9,4.951-23.227-10.871-16.762Z" fill="#a1de52"/>
          <path id="Path_1279269" data-name="Path 1279269" d="M159.417,209.967,173.651,213l.081-.378-10.871-16.762-.418-.089Z" fill="#78ad30"/>
          <path id="Path_1279270" data-name="Path 1279270" d="M162.818,195.855l10.871,16.762-13.817-2.945Z" fill="#96cf4c"/>
        </g>
        <g id="Group_1209732" data-name="Group 1209732">
          <path id="Path_1279271" data-name="Path 1279271" d="M124.747,215.484l-56.928,8.342a4.4,4.4,0,0,1-4.989-3.714l-9.01-61.49a4.4,4.4,0,0,1,3.714-4.989l56.928-8.342a4.4,4.4,0,0,1,4.989,3.714l9.01,61.49A4.4,4.4,0,0,1,124.747,215.484Z" fill="#454545" opacity="0.5"/>
          <path id="Path_1279272" data-name="Path 1279272" d="M123.078,214.752l-57.867,8.479a4.4,4.4,0,0,1-4.989-3.714l-9.235-63.026A4.4,4.4,0,0,1,54.7,151.5l57.867-8.479a4.4,4.4,0,0,1,4.989,3.714l9.235,63.026A4.4,4.4,0,0,1,123.078,214.752Z" fill="#454a52"/>
          <path id="Path_1279273" data-name="Path 1279273" d="M122.216,213.173l-56.94,8.343a3.945,3.945,0,0,1-4.475-3.331l-9-61.44a3.945,3.945,0,0,1,3.331-4.475l56.94-8.343a3.945,3.945,0,0,1,4.475,3.331l9,61.44A3.945,3.945,0,0,1,122.216,213.173Z" fill="#324f7a"/>
          <path id="Path_1279274" data-name="Path 1279274" d="M112.9,143.806,54.3,152.391a3.115,3.115,0,0,0-2.625,3.526l3.091,21.1a261.06,261.06,0,0,0,64.746-9.487l-3.091-21.1A3.115,3.115,0,0,0,112.9,143.806Z" fill="#707e8f"/>
          <path id="Path_1279275" data-name="Path 1279275" d="M112.973,164.949,60.1,172.7a2.214,2.214,0,0,1-2.512-1.87l-1.839-12.55a2.214,2.214,0,0,1,1.87-2.512l52.875-7.748a2.214,2.214,0,0,1,2.512,1.87l1.839,12.55A2.214,2.214,0,0,1,112.973,164.949Z" fill="#596370"/>
          <path id="Path_1279276" data-name="Path 1279276" d="M60.32,172.405a1.742,1.742,0,0,1-1.984-1.46L56.5,158.411a1.741,1.741,0,0,1,1.482-1.967L110.8,148.7a1.741,1.741,0,0,1,1.984,1.459l1.837,12.535a1.741,1.741,0,0,1-1.482,1.967Z" fill="#9da2ad"/>
          <path id="Path_1279277" data-name="Path 1279277" d="M118,184.793l-7.407,1.085a1.081,1.081,0,0,1-1.277-.827l-.638-4.359a1.081,1.081,0,0,1,.987-1.159l7.407-1.085a1.081,1.081,0,0,1,1.277.827l.638,4.359A1.081,1.081,0,0,1,118,184.793Z" fill="#414852"/>
          <path id="Path_1279278" data-name="Path 1279278" d="M105.806,186.58,98.4,187.665a1.081,1.081,0,0,1-1.277-.827l-.638-4.359a1.081,1.081,0,0,1,.987-1.159l7.407-1.085a1.081,1.081,0,0,1,1.277.827l.638,4.359A1.08,1.08,0,0,1,105.806,186.58Z" fill="#417b96"/>
          <path id="Path_1279279" data-name="Path 1279279" d="M93.611,188.366,86.2,189.451a1.081,1.081,0,0,1-1.277-.827l-.638-4.359a1.081,1.081,0,0,1,.987-1.159l7.407-1.085a1.081,1.081,0,0,1,1.277.827l.638,4.359A1.081,1.081,0,0,1,93.611,188.366Z" fill="#417b96"/>
          <path id="Path_1279280" data-name="Path 1279280" d="M81.416,190.153l-7.407,1.085a1.081,1.081,0,0,1-1.277-.827l-.638-4.359a1.081,1.081,0,0,1,.987-1.159l7.407-1.085a1.081,1.081,0,0,1,1.277.827l.638,4.359A1.081,1.081,0,0,1,81.416,190.153Z" fill="#417b96"/>
          <path id="Path_1279281" data-name="Path 1279281" d="M69.222,191.94l-7.407,1.085a1.081,1.081,0,0,1-1.277-.827L59.9,187.84a1.081,1.081,0,0,1,.987-1.159l7.407-1.085a1.081,1.081,0,0,1,1.277.827l.638,4.359A1.081,1.081,0,0,1,69.222,191.94Z" fill="#414852"/>
          <path id="Path_1279282" data-name="Path 1279282" d="M119.247,193.3l-7.407,1.085a1.081,1.081,0,0,1-1.277-.827l-.638-4.359a1.081,1.081,0,0,1,.987-1.159l7.407-1.085a1.081,1.081,0,0,1,1.277.827l.638,4.359A1.08,1.08,0,0,1,119.247,193.3Z" fill="#414852"/>
          <path id="Path_1279283" data-name="Path 1279283" d="M107.052,195.087l-7.407,1.085a1.081,1.081,0,0,1-1.277-.827l-.638-4.359a1.081,1.081,0,0,1,.987-1.159l7.407-1.085a1.081,1.081,0,0,1,1.277.827l.638,4.359A1.081,1.081,0,0,1,107.052,195.087Z" fill="#417b96"/>
          <path id="Path_1279284" data-name="Path 1279284" d="M94.858,196.874l-7.407,1.085a1.081,1.081,0,0,1-1.277-.827l-.638-4.359a1.081,1.081,0,0,1,.987-1.159l7.407-1.085a1.081,1.081,0,0,1,1.277.827l.638,4.359A1.081,1.081,0,0,1,94.858,196.874Z" fill="#417b96"/>
          <path id="Path_1279285" data-name="Path 1279285" d="M82.663,198.66l-7.407,1.086a1.081,1.081,0,0,1-1.277-.827l-.638-4.359a1.081,1.081,0,0,1,.987-1.159l7.407-1.085a1.081,1.081,0,0,1,1.277.827l.638,4.359A1.081,1.081,0,0,1,82.663,198.66Z" fill="#417b96"/>
          <path id="Path_1279286" data-name="Path 1279286" d="M70.468,200.447l-7.407,1.085a1.081,1.081,0,0,1-1.277-.827l-.638-4.359a1.081,1.081,0,0,1,.987-1.159l7.407-1.085a1.081,1.081,0,0,1,1.277.827l.638,4.359A1.08,1.08,0,0,1,70.468,200.447Z" fill="#414852"/>
          <path id="Path_1279287" data-name="Path 1279287" d="M108.3,203.594l-7.407,1.085a1.081,1.081,0,0,1-1.277-.827l-.638-4.358a1.081,1.081,0,0,1,.987-1.159l7.407-1.085a1.081,1.081,0,0,1,1.277.827l.638,4.358A1.081,1.081,0,0,1,108.3,203.594Z" fill="#417b96"/>
          <path id="Path_1279288" data-name="Path 1279288" d="M96.1,205.381,88.7,206.466a1.081,1.081,0,0,1-1.277-.827l-.638-4.359a1.081,1.081,0,0,1,.987-1.159l7.407-1.085a1.081,1.081,0,0,1,1.277.827l.638,4.359A1.081,1.081,0,0,1,96.1,205.381Z" fill="#417b96"/>
          <path id="Path_1279289" data-name="Path 1279289" d="M83.909,207.167,76.5,208.253a1.081,1.081,0,0,1-1.277-.827l-.638-4.358a1.08,1.08,0,0,1,.987-1.159l7.407-1.085a1.081,1.081,0,0,1,1.277.827l.638,4.358A1.08,1.08,0,0,1,83.909,207.167Z" fill="#417b96"/>
          <path id="Path_1279290" data-name="Path 1279290" d="M71.714,208.955l-7.407,1.085a1.081,1.081,0,0,1-1.277-.827l-.638-4.359a1.081,1.081,0,0,1,.987-1.159l7.407-1.085a1.081,1.081,0,0,1,1.277.827L72.7,207.8A1.081,1.081,0,0,1,71.714,208.955Z" fill="#9c4153"/>
          <path id="Path_1279291" data-name="Path 1279291" d="M119.564,195.463l-7.407,1.085a1.081,1.081,0,0,0-.987,1.159l.634,4.329,0,.029.608,4.148.026.181.612,4.178a1.081,1.081,0,0,0,1.277.827l7.407-1.085a1.081,1.081,0,0,0,.987-1.159l-.612-4.178-.027-.181-.608-4.148,0-.029-.634-4.329A1.079,1.079,0,0,0,119.564,195.463Z" fill="#414852"/>
          <path id="Path_1279292" data-name="Path 1279292" d="M109.545,212.1l-7.407,1.085a1.081,1.081,0,0,1-1.277-.827L100.223,208a1.08,1.08,0,0,1,.987-1.159l7.407-1.085a1.081,1.081,0,0,1,1.277.827l.638,4.359A1.081,1.081,0,0,1,109.545,212.1Z" fill="#417b96"/>
          <path id="Path_1279293" data-name="Path 1279293" d="M97.351,213.888l-7.407,1.085a1.081,1.081,0,0,1-1.277-.827l-.638-4.359a1.081,1.081,0,0,1,.987-1.159l7.407-1.085a1.081,1.081,0,0,1,1.277.827l.638,4.359A1.081,1.081,0,0,1,97.351,213.888Z" fill="#417b96"/>
          <path id="Path_1279294" data-name="Path 1279294" d="M85.156,215.675l-7.407,1.085a1.081,1.081,0,0,1-1.277-.827l-.638-4.358a1.081,1.081,0,0,1,.987-1.159l7.407-1.085a1.081,1.081,0,0,1,1.277.827l.638,4.359A1.081,1.081,0,0,1,85.156,215.675Z" fill="#417b96"/>
          <path id="Path_1279295" data-name="Path 1279295" d="M72.961,217.461l-7.407,1.085a1.081,1.081,0,0,1-1.277-.827l-.638-4.359a1.081,1.081,0,0,1,.987-1.159l7.407-1.085a1.081,1.081,0,0,1,1.277.827l.638,4.359A1.081,1.081,0,0,1,72.961,217.461Z" fill="#9c4153"/>
          <path id="Path_1279296" data-name="Path 1279296" d="M117.436,184.463l-7.388,1.082a1.073,1.073,0,0,1-1.272-.813l-.63-4.3a1.074,1.074,0,0,1,.986-1.144l7.388-1.082a1.074,1.074,0,0,1,1.273.813l.63,4.3A1.074,1.074,0,0,1,117.436,184.463Z" fill="#596370"/>
          <path id="Path_1279297" data-name="Path 1279297" d="M105.272,186.245l-7.388,1.082a1.074,1.074,0,0,1-1.273-.813l-.63-4.3a1.074,1.074,0,0,1,.986-1.144l7.388-1.082a1.073,1.073,0,0,1,1.272.813l.63,4.3A1.073,1.073,0,0,1,105.272,186.245Z" fill="#5ea3c4"/>
          <path id="Path_1279298" data-name="Path 1279298" d="M93.109,188.027l-7.388,1.082a1.073,1.073,0,0,1-1.272-.813l-.63-4.3a1.074,1.074,0,0,1,.986-1.144l7.388-1.082a1.074,1.074,0,0,1,1.273.813l.63,4.3A1.075,1.075,0,0,1,93.109,188.027Z" fill="#5ea3c4"/>
          <path id="Path_1279299" data-name="Path 1279299" d="M80.945,189.81l-7.388,1.082a1.074,1.074,0,0,1-1.273-.813l-.63-4.3a1.074,1.074,0,0,1,.986-1.144l7.388-1.082a1.073,1.073,0,0,1,1.272.813l.63,4.3A1.073,1.073,0,0,1,80.945,189.81Z" fill="#5ea3c4"/>
          <path id="Path_1279300" data-name="Path 1279300" d="M68.782,191.592l-7.388,1.082a1.073,1.073,0,0,1-1.272-.813l-.63-4.3a1.074,1.074,0,0,1,.986-1.144l7.388-1.082a1.073,1.073,0,0,1,1.272.813l.63,4.3A1.073,1.073,0,0,1,68.782,191.592Z" fill="#596370"/>
          <path id="Path_1279301" data-name="Path 1279301" d="M118.665,192.85l-7.388,1.082a1.073,1.073,0,0,1-1.272-.813l-.63-4.3a1.074,1.074,0,0,1,.986-1.144l7.388-1.082a1.073,1.073,0,0,1,1.272.813l.63,4.3A1.073,1.073,0,0,1,118.665,192.85Z" fill="#596370"/>
          <path id="Path_1279302" data-name="Path 1279302" d="M106.5,194.632l-7.388,1.082a1.074,1.074,0,0,1-1.273-.813l-.63-4.3a1.074,1.074,0,0,1,.986-1.144l7.388-1.082a1.074,1.074,0,0,1,1.273.813l.63,4.3A1.073,1.073,0,0,1,106.5,194.632Z" fill="#5ea3c4"/>
          <path id="Path_1279303" data-name="Path 1279303" d="M94.338,196.415,86.95,197.5a1.073,1.073,0,0,1-1.272-.813l-.63-4.3a1.074,1.074,0,0,1,.986-1.144l7.388-1.082a1.073,1.073,0,0,1,1.272.813l.63,4.3A1.074,1.074,0,0,1,94.338,196.415Z" fill="#5ea3c4"/>
          <path id="Path_1279304" data-name="Path 1279304" d="M82.174,198.2l-7.388,1.082a1.073,1.073,0,0,1-1.272-.813l-.63-4.3a1.074,1.074,0,0,1,.986-1.144l7.388-1.082a1.074,1.074,0,0,1,1.273.813l.63,4.3A1.074,1.074,0,0,1,82.174,198.2Z" fill="#5ea3c4"/>
          <path id="Path_1279305" data-name="Path 1279305" d="M70.011,199.979l-7.388,1.082a1.074,1.074,0,0,1-1.273-.813l-.63-4.3a1.074,1.074,0,0,1,.986-1.144l7.388-1.082a1.074,1.074,0,0,1,1.273.813l.63,4.3A1.073,1.073,0,0,1,70.011,199.979Z" fill="#596370"/>
          <path id="Path_1279306" data-name="Path 1279306" d="M107.731,203.02l-7.388,1.082a1.073,1.073,0,0,1-1.272-.813l-.63-4.3a1.074,1.074,0,0,1,.986-1.144l7.388-1.082a1.073,1.073,0,0,1,1.272.813l.63,4.3A1.073,1.073,0,0,1,107.731,203.02Z" fill="#5ea3c4"/>
          <path id="Path_1279307" data-name="Path 1279307" d="M95.567,204.8l-7.388,1.082a1.074,1.074,0,0,1-1.273-.813l-.63-4.3a1.074,1.074,0,0,1,.986-1.144l7.388-1.082a1.074,1.074,0,0,1,1.273.813l.63,4.3A1.073,1.073,0,0,1,95.567,204.8Z" fill="#5ea3c4"/>
          <path id="Path_1279308" data-name="Path 1279308" d="M83.4,206.585l-7.388,1.082a1.074,1.074,0,0,1-1.273-.813l-.63-4.3a1.074,1.074,0,0,1,.986-1.144l7.388-1.082a1.073,1.073,0,0,1,1.272.813l.63,4.3A1.073,1.073,0,0,1,83.4,206.585Z" fill="#5ea3c4"/>
          <path id="Path_1279309" data-name="Path 1279309" d="M71.24,208.367l-7.388,1.082a1.073,1.073,0,0,1-1.272-.813l-.63-4.3a1.074,1.074,0,0,1,.986-1.144l7.388-1.082a1.073,1.073,0,0,1,1.272.813l.63,4.3A1.073,1.073,0,0,1,71.24,208.367Z" fill="#c47685"/>
          <path id="Path_1279310" data-name="Path 1279310" d="M118.977,194.982l-7.388,1.082a1.073,1.073,0,0,0-.986,1.144l.626,4.268,0,.029.6,4.09.026.178.6,4.119a1.073,1.073,0,0,0,1.273.813l7.388-1.082a1.074,1.074,0,0,0,.986-1.144l-.6-4.119-.026-.178-.6-4.09,0-.029-.625-4.268A1.074,1.074,0,0,0,118.977,194.982Z" fill="#596370"/>
          <path id="Path_1279311" data-name="Path 1279311" d="M108.959,211.408l-7.388,1.082a1.073,1.073,0,0,1-1.272-.813l-.63-4.3a1.074,1.074,0,0,1,.986-1.144l7.388-1.082a1.073,1.073,0,0,1,1.272.813l.63,4.3A1.074,1.074,0,0,1,108.959,211.408Z" fill="#5ea3c4"/>
          <path id="Path_1279312" data-name="Path 1279312" d="M96.8,213.19l-7.388,1.082a1.073,1.073,0,0,1-1.272-.813l-.63-4.3a1.074,1.074,0,0,1,.986-1.144l7.388-1.082a1.074,1.074,0,0,1,1.273.813l.63,4.3A1.075,1.075,0,0,1,96.8,213.19Z" fill="#5ea3c4"/>
          <path id="Path_1279313" data-name="Path 1279313" d="M84.632,214.972l-7.388,1.082a1.073,1.073,0,0,1-1.272-.813l-.63-4.3a1.074,1.074,0,0,1,.986-1.144l7.388-1.082a1.074,1.074,0,0,1,1.273.813l.63,4.3A1.074,1.074,0,0,1,84.632,214.972Z" fill="#5ea3c4"/>
          <path id="Path_1279314" data-name="Path 1279314" d="M72.469,216.754l-7.388,1.082a1.073,1.073,0,0,1-1.272-.813l-.63-4.3a1.074,1.074,0,0,1,.986-1.144l7.388-1.082a1.073,1.073,0,0,1,1.272.813l.63,4.3A1.074,1.074,0,0,1,72.469,216.754Z" fill="#c47685"/>
          <path id="Path_1279315" data-name="Path 1279315" d="M116.153,175.714l-5.781.847a.6.6,0,0,1-.684-.51l-.251-1.712a.6.6,0,0,1,.51-.684l5.78-.847a.6.6,0,0,1,.684.51l.251,1.712A.6.6,0,0,1,116.153,175.714Z" fill="#828282"/>
          <path id="Path_1279316" data-name="Path 1279316" d="M106.289,177.16l-5.78.847a.6.6,0,0,1-.684-.51l-.251-1.712a.6.6,0,0,1,.51-.684l5.78-.847a.6.6,0,0,1,.684.51l.251,1.712A.6.6,0,0,1,106.289,177.16Z" fill="#828282"/>
          <path id="Path_1279317" data-name="Path 1279317" d="M96.426,178.605l-5.78.847a.6.6,0,0,1-.684-.51l-.251-1.712a.6.6,0,0,1,.51-.684L96,175.7a.6.6,0,0,1,.684.51l.251,1.712A.6.6,0,0,1,96.426,178.605Z" fill="#828282"/>
          <path id="Path_1279318" data-name="Path 1279318" d="M86.562,180.05l-5.781.847a.6.6,0,0,1-.684-.51l-.251-1.712a.6.6,0,0,1,.51-.684l5.781-.847a.6.6,0,0,1,.684.51l.251,1.712A.6.6,0,0,1,86.562,180.05Z" fill="#828282"/>
          <path id="Path_1279319" data-name="Path 1279319" d="M76.7,181.5l-5.781.847a.6.6,0,0,1-.684-.51l-.251-1.712a.6.6,0,0,1,.51-.684l5.78-.847a.6.6,0,0,1,.684.51l.251,1.712A.6.6,0,0,1,76.7,181.5Z" fill="#828282"/>
          <path id="Path_1279320" data-name="Path 1279320" d="M66.836,182.941l-5.78.847a.6.6,0,0,1-.684-.51l-.251-1.712a.6.6,0,0,1,.51-.684l5.78-.847a.6.6,0,0,1,.684.51l.251,1.712A.6.6,0,0,1,66.836,182.941Z" fill="#828282"/>
          <path id="Path_1279321" data-name="Path 1279321" d="M115.653,175.281l-5.773.846a.59.59,0,0,1-.68-.482l-.239-1.631a.589.589,0,0,1,.513-.656l5.773-.846a.59.59,0,0,1,.68.482l.239,1.631A.589.589,0,0,1,115.653,175.281Z" fill="#bfc9d4"/>
          <path id="Path_1279322" data-name="Path 1279322" d="M105.8,176.725l-5.773.846a.59.59,0,0,1-.68-.482l-.239-1.631a.589.589,0,0,1,.513-.656l5.773-.846a.59.59,0,0,1,.68.482l.239,1.631A.589.589,0,0,1,105.8,176.725Z" fill="#bfc9d4"/>
          <path id="Path_1279323" data-name="Path 1279323" d="M95.95,178.168l-5.773.846a.59.59,0,0,1-.68-.482l-.239-1.631a.589.589,0,0,1,.513-.656l5.773-.846a.59.59,0,0,1,.68.482l.239,1.631A.589.589,0,0,1,95.95,178.168Z" fill="#bfc9d4"/>
          <path id="Path_1279324" data-name="Path 1279324" d="M86.1,179.612l-5.773.846a.59.59,0,0,1-.68-.482l-.239-1.631a.589.589,0,0,1,.513-.656l5.773-.846a.59.59,0,0,1,.68.482l.239,1.631A.59.59,0,0,1,86.1,179.612Z" fill="#bfc9d4"/>
          <path id="Path_1279325" data-name="Path 1279325" d="M76.248,181.055l-5.773.846a.59.59,0,0,1-.68-.482l-.239-1.631a.589.589,0,0,1,.513-.656l5.773-.846a.59.59,0,0,1,.68.482l.239,1.631A.588.588,0,0,1,76.248,181.055Z" fill="#bfc9d4"/>
          <path id="Path_1279326" data-name="Path 1279326" d="M66.4,182.5l-5.773.846a.59.59,0,0,1-.68-.482l-.239-1.631a.589.589,0,0,1,.513-.656l5.773-.846a.59.59,0,0,1,.68.482l.239,1.631A.59.59,0,0,1,66.4,182.5Z" fill="#bfc9d4"/>
        </g>
        <g id="Group_1209733" data-name="Group 1209733">
          <path id="Path_1279327" data-name="Path 1279327" d="M41.358,156.78h-.122l-.391-60.633,0-.411v-.182l-.011-.015a8.23,8.23,0,0,0-.135-1.215l-1.83-9.494h-.017c-.036-.384-.086-.864-.126-1.057-.077-.37-.213-1.128-.472-1.128s-.391.716-.468,1.129c-.042.228-.089.692-.121,1.063h-.013l-1.708,9.514a8.241,8.241,0,0,0-.129,1.5v.093l.391,60.565,0,.3h-.122l.064,9.98h.131a.99.99,0,0,0-.015.162l.01,1.511a1.006,1.006,0,0,0,1.011,1l3.036-.015a1.006,1.006,0,0,0,1-1.012l-.01-1.515a.985.985,0,0,0-.017-.162h.131Z" fill="#454545" opacity="0.5"/>
          <path id="Path_1279328" data-name="Path 1279328" d="M37.934,85.8a.8.8,0,0,1-.641-.737s.09-1.189.167-1.6.208-1.129.468-1.129.4.757.472,1.127c.071.341.175,1.6.175,1.6A.811.811,0,0,1,37.934,85.8Z" fill="gray"/>
          <path id="Path_1279329" data-name="Path 1279329" d="M35.949,168.147l-.01-1.511a1.006,1.006,0,0,1,1-1.012l3.036-.02a1.006,1.006,0,0,1,1.012,1l.01,1.515a1.006,1.006,0,0,1-1,1.012l-3.036.015A1.006,1.006,0,0,1,35.949,168.147Z" fill="#c46c7d"/>
          <path id="Path_1279330" data-name="Path 1279330" d="M39.56,94.753l-2.861.018-1.21.816.434,67.35,5.033-.032L40.52,95.419Z" fill="#ffe38d"/>
          <path id="Path_1279331" data-name="Path 1279331" d="M40.956,162.906,40.52,95.235l-.355-.486-3.03.02.439,68.159Z" fill="#e8b417"/>
          <rect id="Rectangle_413192" data-name="Rectangle 413192" width="2.111" height="68.161" transform="translate(36.748 94.775) rotate(-0.367)" fill="#f7c93e"/>
          <path id="Path_1279332" data-name="Path 1279332" d="M40.523,95.829l-.006-.414-.958-.661-.7,0c0-.019,0-.041-.006-.063a.5.5,0,0,1,0,.063c0,.006,0,.008,0,.014a1.224,1.224,0,0,1,0,.3,1.212,1.212,0,0,0,1.039.98A1.028,1.028,0,0,0,40.523,95.829Z" fill="#fff"/>
          <path id="Path_1279333" data-name="Path 1279333" d="M36.775,94.771H36.7l-1.21.814,0,.474a.948.948,0,0,0,.248.034,1.224,1.224,0,0,0,1.024-1A1.592,1.592,0,0,1,36.775,94.771Z" fill="#fff"/>
          <path id="Path_1279334" data-name="Path 1279334" d="M38.857,94.771v-.014c0-.019,0-.041-.006-.063a.5.5,0,0,1,0,.063l-2.079.013a1.587,1.587,0,0,0-.012.319c0-.006,0-.008.006-.014a1.045,1.045,0,1,0,2.09-.024c0,.006,0,.011,0,.017A1.217,1.217,0,0,0,38.857,94.771Z" fill="#fffbf0"/>
          <path id="Path_1279335" data-name="Path 1279335" d="M39.9,95.637a1.08,1.08,0,0,1-1.038-.854c.078.13-.82-10.267-.82-10.267l.5,0,1.83,9.494a8.2,8.2,0,0,1,.147,1.41h0A1.022,1.022,0,0,1,39.9,95.637Z" fill="#e6c97a"/>
          <path id="Path_1279336" data-name="Path 1279336" d="M36.762,94.805a1.079,1.079,0,0,1-1.024.858,1,1,0,0,1-.249-.033v-.094a8.24,8.24,0,0,1,.129-1.5l1.708-9.514.321,0S36.69,94.924,36.762,94.805Z" fill="#f5e8bf"/>
          <path id="Path_1279337" data-name="Path 1279337" d="M38.861,94.782c0-.005,0-.01,0-.015a1.053,1.053,0,0,1-2.09.023l0,.015c-.072.119.834-10.287.834-10.287l.485,0S38.939,94.912,38.861,94.782Z" fill="#f0d998"/>
          <rect id="Rectangle_413193" data-name="Rectangle 413193" width="5.033" height="6.741" transform="translate(35.873 156.201) rotate(-0.367)" fill="#d9a200"/>
          <rect id="Rectangle_413194" data-name="Rectangle 413194" width="5.277" height="9.98" transform="translate(35.767 156.497) rotate(-0.372)" fill="#b3b3b3"/>
          <path id="Path_1279338" data-name="Path 1279338" d="M35.828,164.844l0-.508,5.248-.022,0,.508Z" fill="#ccc"/>
          <path id="Path_1279339" data-name="Path 1279339" d="M35.822,163.906l0-.508,5.248-.022,0,.508Z" fill="#ccc"/>
          <path id="Path_1279340" data-name="Path 1279340" d="M35.833,165.686l0-.508,5.248-.022,0,.508Z" fill="#ccc"/>
          <path id="Path_1279341" data-name="Path 1279341" d="M35.788,158.731l0-.508,5.248-.022,0,.508Z" fill="#ccc"/>
          <path id="Path_1279342" data-name="Path 1279342" d="M35.782,157.793l0-.508,5.248-.022,0,.508Z" fill="#ccc"/>
          <path id="Path_1279343" data-name="Path 1279343" d="M35.794,159.573l0-.508,5.248-.022,0,.508Z" fill="#ccc"/>
          <path id="Path_1279344" data-name="Path 1279344" d="M39.32,166.727l.006.965a.49.49,0,0,1-.487.494l-1.28.008a.49.49,0,0,1-.494-.487l-.006-.965h0l-.066-10.255,2.261-.015.066,10.255Z" fill="#999"/>
        </g>
        <g id="Group_1209734" data-name="Group 1209734">
          <path id="Path_1279345" data-name="Path 1279345" d="M45.788,119.6a2.134,2.134,0,0,0,1.418,1.858c.194.015.386-.46.527-1.108l-2.781,18.533.033.005-.319,2.127.429.065c-.79,6.23-.362,12.836-.336,19.36l.107.016.026.28h0l.281,3,.038.006s0,0,0,0l-.058,1c-.033.22.082.7.306.73s.474-.387.507-.607l.24-.974v0l.036.006,1.256-3.047.107.016c1.912-6.138,4.218-12.237,5.313-18.335h0c.016-.09.032-.179.049-.269l.429.065.319-2.127.033.005L60.995,91.9l-.706-5.8a.571.571,0,0,0-.485-.491l-.25-.038.04-.27h0l.417-2.779a.507.507,0,0,0-.432-.572l-1.758-.265h0l-1.5-.225h-.009l0,.03a.5.5,0,0,0-.417.412l-.457,3.049-.25-.038a.57.57,0,0,0-.607.327L52.2,90.577l-.248,1.652,0-.05c-1.547.164-4.583,10.149-5.668,15.319A45.928,45.928,0,0,0,45.788,119.6Zm1.286-11.77a77.4,77.4,0,0,1,2.175-7.591,1.8,1.8,0,0,1,1.16-1.08.691.691,0,0,0,.564-.41L47.9,119.209a5.455,5.455,0,0,0-.09-1.93c-.366-1.13-.977-1.178-1.215-2.024A29.025,29.025,0,0,1,47.075,107.833Z" fill="#454545" opacity="0.5"/>
          <path id="Path_1279346" data-name="Path 1279346" d="M51.656,92.506s-.027.493-.168,1.349C51.227,95.59,51,97,50.693,99.021a.672.672,0,0,1-.572.455,1.789,1.789,0,0,0-1.138,1.081,78.738,78.738,0,0,0-2.152,7.578,29.55,29.55,0,0,0-.489,7.4c.23.842.828.888,1.181,2.014s-.129,4.209-.609,4.173a2.1,2.1,0,0,1-1.38-1.848,46.788,46.788,0,0,1,.529-12.075C47.142,102.644,50.143,92.675,51.656,92.506Z" fill="#999"/>
          <path id="Path_1279347" data-name="Path 1279347" d="M45.366,163.588a.487.487,0,0,0-.545.324l-.061,1c-.033.219.078.694.3.726s.465-.388.5-.607l.238-.972C45.826,163.84,45.585,163.622,45.366,163.588Z" fill="#333"/>
          <path id="Path_1279348" data-name="Path 1279348" d="M45.828,164.061l-1.043-.157-.306-3.465,2.66.4Z" fill="#e1b533"/>
          <path id="Path_1279349" data-name="Path 1279349" d="M45.782,160.635l-.995-.15L45,163.937l.28.042Z" fill="#f0d17a"/>
          <path id="Path_1279350" data-name="Path 1279350" d="M44.521,160.91l2.44.367.178-.438-2.66-.4Z" fill="#b08d28"/>
          <path id="Path_1279351" data-name="Path 1279351" d="M52.519,142.209a27.657,27.657,0,0,0-7.7-1.158c-.837,6.291-.428,12.97-.423,19.565l2.779.418C49.114,154.731,51.468,148.467,52.519,142.209Z" fill="#999"/>
          <rect id="Rectangle_413195" data-name="Rectangle 413195" width="8.687" height="48.75" transform="matrix(0.989, 0.149, -0.149, 0.989, 51.898, 90.91)" fill="#333"/>
          <rect id="Rectangle_413196" data-name="Rectangle 413196" width="2.713" height="49.125" transform="matrix(0.989, 0.149, -0.149, 0.989, 53.305, 91.121)" fill="#4d4d4d"/>
          <path id="Path_1279352" data-name="Path 1279352" d="M48.537,141.358c-.915-.1-1.835-.155-2.758-.162a148.673,148.673,0,0,0-.9,19.492l.876.132Z" fill="#b3b3b3"/>
          <path id="Path_1279353" data-name="Path 1279353" d="M44.816,141.051c-.023.174-.042.35-.063.525l7.673,1.154c.031-.173.065-.347.094-.52A27.629,27.629,0,0,0,44.816,141.051Z" fill="#b08d28"/>
          <rect id="Rectangle_413197" data-name="Rectangle 413197" width="8.623" height="2.146" transform="matrix(0.989, 0.149, -0.149, 0.989, 44.681, 139.123)" fill="#e1b533"/>
          <path id="Path_1279354" data-name="Path 1279354" d="M58.2,87.927,55.348,87.5a.594.594,0,0,1-.5-.676l.674-4.485a.594.594,0,0,1,.676-.5l2.849.428a.594.594,0,0,1,.5.676l-.674,4.485A.594.594,0,0,1,58.2,87.927Z" fill="#999"/>
          <path id="Path_1279355" data-name="Path 1279355" d="M57.424,82.023,55.96,81.8h-.009l-.531,3.529,1.472.221Z" fill="#b3b3b3"/>
          <path id="Path_1279356" data-name="Path 1279356" d="M55.109,87.462l3.328.5a.352.352,0,0,0,.4-.3l.307-2.044-4.024-.6-.307,2.044A.351.351,0,0,0,55.109,87.462Z" fill="#b08d28"/>
          <path id="Path_1279357" data-name="Path 1279357" d="M59.348,85.929l-4.512-.679a.559.559,0,0,0-.595.328L51.9,90.907,60.49,92.2l-.671-5.781A.558.558,0,0,0,59.348,85.929Z" fill="#e1b533"/>
          <path id="Path_1279358" data-name="Path 1279358" d="M55.443,85.342l-2.158,5.773,2.708.407.9-5.963Z" fill="#f0d17a"/>
          <rect id="Rectangle_413198" data-name="Rectangle 413198" width="2.146" height="2.713" transform="matrix(0.149, -0.989, 0.989, 0.149, 45.743, 141.454)" fill="#f0d17a"/>
        </g>
        <g id="Group_1209735" data-name="Group 1209735">
          <circle id="Ellipse_12698" data-name="Ellipse 12698" cx="27.479" cy="27.479" r="27.479" transform="translate(173.242 154.382)" fill="#454545" opacity="0.5"/>
          <circle id="Ellipse_12699" data-name="Ellipse 12699" cx="27.479" cy="27.479" r="27.479" transform="translate(172.592 153.733)" fill="#fff"/>
          <circle id="Ellipse_12700" data-name="Ellipse 12700" cx="25.924" cy="25.924" r="25.924" transform="translate(168.771 200.3) rotate(-76.385)" fill="#e6e6e6"/>
          <path id="Path_1279359" data-name="Path 1279359" d="M224.622,185.639h-4.84a3.577,3.577,0,0,1-3.577-3.577h0a3.577,3.577,0,0,1,3.577-3.577h4.84a3.577,3.577,0,0,1,3.577,3.577h0A3.577,3.577,0,0,1,224.622,185.639Z" fill="#d6d6d6"/>
          <circle id="Ellipse_12701" data-name="Ellipse 12701" cx="20.413" cy="20.413" r="20.413" transform="translate(180.378 161.52)" fill="#d6d6d6"/>
          <circle id="Ellipse_12702" data-name="Ellipse 12702" cx="20.413" cy="20.413" r="20.413" transform="translate(179.588 160.729)" fill="#fff"/>
          <path id="Path_1279360" data-name="Path 1279360" d="M224.622,184.719h-4.84a3.577,3.577,0,0,1-3.577-3.577h0a3.577,3.577,0,0,1,3.577-3.577h4.84a3.577,3.577,0,0,1,3.577,3.577h0A3.577,3.577,0,0,1,224.622,184.719Z" fill="#fff"/>
          <circle id="Ellipse_12703" data-name="Ellipse 12703" cx="18.308" cy="18.308" r="18.308" transform="translate(174.107 181.142) rotate(-45)" fill="#8a6944"/>
          <circle id="Ellipse_12704" data-name="Ellipse 12704" cx="17.694" cy="17.694" r="17.694" transform="translate(182.306 163.447)" fill="#ab8354"/>
          <path id="Path_1279361" data-name="Path 1279361" d="M216.2,181.142A16.178,16.178,0,0,1,209.868,194c-.257.2-1.192-.312-2.355.525-.58.418-1.2-.572-2.56-.016-1.288.528-.558,1.908-2.731,1.908-.586,0-1.621.932-2.221.932a16.2,16.2,0,0,1-16.2-16.2c0-8.949,7.122-3.974,15.411-7.346C207.263,170.52,216.2,172.193,216.2,181.142Z" fill="#5e4227"/>
          <path id="Path_1279362" data-name="Path 1279362" d="M195.218,170.5a.913.913,0,1,1-.913-.913A.913.913,0,0,1,195.218,170.5Z" fill="#5e4227"/>
          <path id="Path_1279363" data-name="Path 1279363" d="M194.9,170.5a.528.528,0,0,1-.528.528c-.292,0,0-.236,0-.528s-.292-.528,0-.528A.528.528,0,0,1,194.9,170.5Z" fill="#8f693d"/>
          <circle id="Ellipse_12705" data-name="Ellipse 12705" cx="0.705" cy="0.705" r="0.705" transform="translate(200.514 165.622)" fill="#5e4227"/>
          <path id="Path_1279364" data-name="Path 1279364" d="M201.675,166.327a.408.408,0,0,1-.408.408c-.225,0,0-.183,0-.408s-.225-.408,0-.408A.408.408,0,0,1,201.675,166.327Z" fill="#8f693d"/>
          <path id="Path_1279365" data-name="Path 1279365" d="M197.513,172.482a.705.705,0,1,1-.705-.705A.7.7,0,0,1,197.513,172.482Z" fill="#5e4227"/>
          <path id="Path_1279366" data-name="Path 1279366" d="M197.264,172.482a.408.408,0,0,1-.408.408c-.225,0,0-.183,0-.408s-.225-.408,0-.408A.408.408,0,0,1,197.264,172.482Z" fill="#8f693d"/>
          <path id="Path_1279367" data-name="Path 1279367" d="M203.741,197.74a.705.705,0,1,1-.705-.705A.7.7,0,0,1,203.741,197.74Z" fill="#5e4227"/>
          <path id="Path_1279368" data-name="Path 1279368" d="M203.492,197.74a.408.408,0,0,1-.408.408c-.225,0,0-.183,0-.408s-.225-.408,0-.408A.408.408,0,0,1,203.492,197.74Z" fill="#8f693d"/>
          <circle id="Ellipse_12706" data-name="Ellipse 12706" cx="0.705" cy="0.705" r="0.705" transform="translate(206.202 168.88)" fill="#5e4227"/>
          <path id="Path_1279369" data-name="Path 1279369" d="M207.362,169.585a.408.408,0,0,1-.408.408c-.225,0,0-.183,0-.408s-.225-.408,0-.408A.408.408,0,0,1,207.362,169.585Z" fill="#8f693d"/>
          <path id="Path_1279370" data-name="Path 1279370" d="M198.674,169.97a.705.705,0,1,1-.705-.705A.7.7,0,0,1,198.674,169.97Z" fill="#5e4227"/>
          <path id="Path_1279371" data-name="Path 1279371" d="M198.425,169.97a.408.408,0,0,1-.408.408c-.225,0,0-.183,0-.408s-.225-.408,0-.408A.408.408,0,0,1,198.425,169.97Z" fill="#8f693d"/>
          <path id="Path_1279372" data-name="Path 1279372" d="M194.305,173.187a1.219,1.219,0,1,1-1.219-1.219A1.219,1.219,0,0,1,194.305,173.187Z" fill="#5e4227"/>
          <path id="Path_1279373" data-name="Path 1279373" d="M193.874,173.187a.7.7,0,0,1-.705.705c-.39,0,0-.316,0-.705s-.39-.705,0-.705A.705.705,0,0,1,193.874,173.187Z" fill="#8f693d"/>
          <circle id="Ellipse_12707" data-name="Ellipse 12707" cx="0.705" cy="0.705" r="0.705" transform="translate(190.413 168.88)" fill="#5e4227"/>
          <path id="Path_1279374" data-name="Path 1279374" d="M191.573,169.585a.408.408,0,0,1-.408.408c-.225,0,0-.183,0-.408s-.225-.408,0-.408A.408.408,0,0,1,191.573,169.585Z" fill="#8f693d"/>
          <path id="Path_1279375" data-name="Path 1279375" d="M209.023,195.421a.705.705,0,1,1-.705-.705A.7.7,0,0,1,209.023,195.421Z" fill="#5e4227"/>
          <path id="Path_1279376" data-name="Path 1279376" d="M208.773,195.421a.408.408,0,0,1-.408.408c-.225,0,0-.183,0-.408s-.225-.408,0-.408A.408.408,0,0,1,208.773,195.421Z" fill="#8f693d"/>
          <path id="Path_1279377" data-name="Path 1279377" d="M191.022,172.074a.515.515,0,1,1-.515-.515A.515.515,0,0,1,191.022,172.074Z" fill="#5e4227"/>
          <path id="Path_1279378" data-name="Path 1279378" d="M190.84,172.074a.3.3,0,0,1-.3.3c-.164,0,0-.133,0-.3s-.165-.3,0-.3A.3.3,0,0,1,190.84,172.074Z" fill="#8f693d"/>
          <circle id="Ellipse_12708" data-name="Ellipse 12708" cx="0.515" cy="0.515" r="0.515" transform="translate(192.057 166.22)" fill="#5e4227"/>
          <path id="Path_1279379" data-name="Path 1279379" d="M192.9,166.735a.3.3,0,0,1-.3.3c-.164,0,0-.133,0-.3s-.165-.3,0-.3A.3.3,0,0,1,192.9,166.735Z" fill="#8f693d"/>
          <circle id="Ellipse_12709" data-name="Ellipse 12709" cx="0.515" cy="0.515" r="0.515" transform="translate(198.971 167.842)" fill="#5e4227"/>
          <path id="Path_1279380" data-name="Path 1279380" d="M199.818,168.357a.3.3,0,0,1-.3.3c-.165,0,0-.133,0-.3s-.165-.3,0-.3A.3.3,0,0,1,199.818,168.357Z" fill="#8f693d"/>
          <path id="Path_1279381" data-name="Path 1279381" d="M189.148,172.482a.962.962,0,1,1-.962-.962A.962.962,0,0,1,189.148,172.482Z" fill="#5e4227"/>
          <path id="Path_1279382" data-name="Path 1279382" d="M188.807,172.482a.557.557,0,0,1-.557.557c-.307,0,0-.249,0-.557s-.307-.557,0-.557A.556.556,0,0,1,188.807,172.482Z" fill="#8f693d"/>
          <circle id="Ellipse_12710" data-name="Ellipse 12710" cx="1.219" cy="1.219" r="1.219" transform="translate(200.324 169.585)" fill="#5e4227"/>
          <path id="Path_1279383" data-name="Path 1279383" d="M202.331,170.8a.7.7,0,0,1-.705.705c-.39,0,0-.316,0-.705s-.39-.705,0-.705A.705.705,0,0,1,202.331,170.8Z" fill="#8f693d"/>
          <circle id="Ellipse_12711" data-name="Ellipse 12711" cx="1.219" cy="1.219" r="1.219" transform="translate(204.417 194.908)" fill="#5e4227"/>
          <path id="Path_1279384" data-name="Path 1279384" d="M206.423,196.127a.7.7,0,0,1-.705.705c-.39,0,0-.316,0-.705s-.39-.705,0-.705A.705.705,0,0,1,206.423,196.127Z" fill="#8f693d"/>
          <circle id="Ellipse_12712" data-name="Ellipse 12712" cx="1.219" cy="1.219" r="1.219" transform="translate(195.075 165.919)" fill="#5e4227"/>
          <path id="Path_1279385" data-name="Path 1279385" d="M197.082,167.138a.7.7,0,0,1-.705.705c-.39,0,0-.316,0-.705s-.39-.705,0-.705A.7.7,0,0,1,197.082,167.138Z" fill="#8f693d"/>
        </g>
        <path id="Path_1279386" data-name="Path 1279386" d="M83.184,65.261a2.121,2.121,0,0,1,1.583,2.693l-2.29,7.581c-.563,1.865-1.708,2.057-2.234,1.9-1.19-.36-1.072-2-.843-2.817l0-.011L80.692,69.5c.066-.218.346-.545.589-.477a.553.553,0,0,1,.28.652l-1.543,5.108c-.029.107-.413,1.6.464,1.86.091.025.929.21,1.383-1.294l2.29-7.581A1.556,1.556,0,0,0,82.9,66.034a1.517,1.517,0,0,0-1.955.713l-3.3,10.935a2.408,2.408,0,0,0,1.615,2.652,2.486,2.486,0,0,0,2.8-1.268l2.372-8.692c.066-.218.4-.464.613-.4s.3.436.232.653l-2.6,8.622a3.185,3.185,0,0,1-3.652,1.878A3.016,3.016,0,0,1,77.2,79.58a3.091,3.091,0,0,1-.168-2.082l3.3-10.935A2.167,2.167,0,0,1,83.184,65.261Z" fill="#999"/>
        <path id="Path_1279387" data-name="Path 1279387" d="M82.2,79.112l2.6-8.622a.242.242,0,1,0-.38-.115L81.82,79a2.485,2.485,0,0,1-2.8,1.268c-.04-.012-.079-.025-.117-.04s-.077-.019-.115-.031a2.408,2.408,0,0,1-1.615-2.652l3.3-10.935a1.517,1.517,0,0,1,1.955-.713c.04.012.078.026.116.04s.077.018.116.03A1.556,1.556,0,0,1,83.922,67.7l-2.29,7.581c-.454,1.5-1.292,1.32-1.383,1.294a.74.74,0,0,1-.129-.053.615.615,0,0,1-.1-.017c-.877-.265-.493-1.754-.464-1.86L81.1,69.535a.242.242,0,1,0-.38-.115l-1.545,5.115,0,.011c-.22.788-.337,2.339.72,2.772.562.1,1.6-.179,2.125-1.924l2.29-7.581a2.1,2.1,0,0,0-1.468-2.656A2.146,2.146,0,0,0,80.1,66.493l-3.3,10.935a3.091,3.091,0,0,0,.168,2.082,3.005,3.005,0,0,0,1.7,1.509A3.2,3.2,0,0,0,82.2,79.112Z" fill="#e6e6e6"/>
        <g id="Group_1209736" data-name="Group 1209736">
          <path id="Path_1279388" data-name="Path 1279388" d="M136.646,56.856a1.607,1.607,0,0,1-1.2-.579C126.041,45,118,45.541,117.919,45.549l-.174.006L65.406,44.339a1.61,1.61,0,0,1,.075-3.219l52.271,1.213c1.131-.058,10.167-.114,20.168,11.883a1.61,1.61,0,0,1-1.274,2.64Z" fill="#333"/>
          <path id="Path_1279389" data-name="Path 1279389" d="M66.671,55.232a1.61,1.61,0,0,1-1.15-2.7c10.547-11.52,19.569-11.043,20.7-10.934l52.271,1.213a1.61,1.61,0,0,1-.075,3.219L85.989,44.817l-.086-.011C85.835,44.8,77.7,44,67.9,54.71A1.607,1.607,0,0,1,66.671,55.232Z" fill="#333"/>
          <path id="Path_1279390" data-name="Path 1279390" d="M134.308,41.168s4.481-.383,5.258.122,1.133,4.026.681,4.629a14.926,14.926,0,0,1-3.112,1.85Z" fill="#4d4d4d"/>
          <path id="Path_1279391" data-name="Path 1279391" d="M69.5,39.664s-4.458-.59-5.258-.122-1.319,3.969-.9,4.593a14.926,14.926,0,0,0,3.023,1.992Z" fill="#4d4d4d"/>
          <path id="Path_1279392" data-name="Path 1279392" d="M93.371,37.241c2.851.782,5.646,3.921,8.512,3.991,2.892.07,5.857-2.936,8.766-3.59,1.5,1.574-3.143,4.448-4.109,6.657-.839,1.92,2.19,3.19.82,4.5-2.825-.775-3.395-2.552-5.441-2.6s-2.911,1.509-5.846,2.169c-1.346-1.407,1.973-3.266,1.253-5.239C96.541,40.974,91.834,38.7,93.371,37.241Z" fill="#4d4d4d"/>
          <path id="Path_1279393" data-name="Path 1279393" d="M82.452,60.744a23.932,23.932,0,0,1-4.717-.509c-3.116-.667-6.888-3.031-7.811-6.649A37.905,37.905,0,0,1,68.265,42.35a6.1,6.1,0,0,1,5.057-5.243,43.524,43.524,0,0,1,6.907-.388c.629.015,1.265.043,1.889.084a47.718,47.718,0,0,1,8.844,1.438c2.593.665,5.066,3.282,5.29,5.6a28.051,28.051,0,0,1-.152,6.377c-.694,5.466-7.015,10.59-13.007,10.538l-.638-.011Z" fill="#e6e2d4" opacity="0.53"/>
          <path id="Path_1279394" data-name="Path 1279394" d="M119.821,61.608c-6-.226-12.074-5.639-12.514-11.137a28.041,28.041,0,0,1,.144-6.366c.332-2.31,2.925-4.81,5.549-5.354a47.606,47.606,0,0,1,8.9-1.025c.626-.012,1.263-.011,1.891,0a43.555,43.555,0,0,1,6.882.708,6.1,6.1,0,0,1,4.808,5.466A37.947,37.947,0,0,1,133.3,55.065c-1.087,3.564-4.965,5.75-8.107,6.271a23.929,23.929,0,0,1-4.738.29Z" fill="#e6e2d4" opacity="0.53"/>
          <path id="Path_1279395" data-name="Path 1279395" d="M84.042,58.938l-.627-.011a23.027,23.027,0,0,1-4.547-.49c-2.845-.609-6.285-2.738-7.111-5.977a37.142,37.142,0,0,1-1.632-10.968A4.353,4.353,0,0,1,71.2,39a4.844,4.844,0,0,0-2.015,3.394,37.16,37.16,0,0,0,1.632,10.968c.826,3.238,4.266,5.369,7.111,5.977a23.061,23.061,0,0,0,4.547.49l.627.011a13.254,13.254,0,0,0,9.2-4.226A12.954,12.954,0,0,1,84.042,58.938Z" fill="gray"/>
          <path id="Path_1279396" data-name="Path 1279396" d="M82.34,62.61a24.793,24.793,0,0,1-4.757-.511c-3.464-.731-7.96-3.289-9.236-8.09-.146-.532-.316-1.127-.5-1.766-1.03-3.6-2.441-8.525-2.343-12.173.128-3.894,5.572-4.617,7.361-4.854a45.354,45.354,0,0,1,7.053-.384c.7.016,1.4.048,2.1.1a49.7,49.7,0,0,1,9.2,1.524c3.629.926,7.829,4.062,8.09,7.1.585,1.87-.04,3.331-.7,4.877a14.782,14.782,0,0,0-.824,2.266,15.045,15.045,0,0,1-14.6,11.929c-.179,0-.356,0-.529-.007ZM80.207,37.638a42.7,42.7,0,0,0-6.761.38,5.2,5.2,0,0,0-4.263,4.372,37.188,37.188,0,0,0,1.632,10.968c.827,3.24,4.265,5.369,7.111,5.977a23.091,23.091,0,0,0,4.548.49l.627.011c5.57.048,11.445-4.684,12.086-9.739a27.168,27.168,0,0,0,.148-6.167c-.187-1.942-2.382-4.229-4.606-4.8a46.8,46.8,0,0,0-8.672-1.41C81.442,37.68,80.82,37.652,80.207,37.638Z" fill="#4d4d4d"/>
          <path id="Path_1279397" data-name="Path 1279397" d="M74.679,59.644a39.184,39.184,0,0,0,8.28,1.282c2.915-.095,7.077-1.232,9.648-3.592a14.775,14.775,0,0,1-9.765,4.241A24.181,24.181,0,0,1,74.679,59.644Zm21.944-9.909a28.186,28.186,0,0,0,.086-5.933,7.628,7.628,0,0,0-4.115-5.414c2.79,1.223,5.1,3.713,5.311,5.1C98.123,44.952,96.836,49.064,96.623,49.734Zm-28.232-.667a34.514,34.514,0,0,1-1.506-8.96c.06-1.826,2.076-2.981,6.163-3.524A45.5,45.5,0,0,1,80,36.524c.679.016-4.771.072-6.994.716-2.325.674-4.857,2.491-4.988,5.13A28.349,28.349,0,0,0,68.391,49.067Z" fill="#666"/>
          <path id="Path_1279398" data-name="Path 1279398" d="M132.7,40.424a4.345,4.345,0,0,1,.956,2.541,37.175,37.175,0,0,1-2.139,10.885c-.976,3.2-4.508,5.162-7.379,5.638a23.082,23.082,0,0,1-4.564.278l-.629-.018a12.891,12.891,0,0,1-8.112-3.657,13.134,13.134,0,0,0,9.01,4.6l.629.018a23.082,23.082,0,0,0,4.564-.278c2.87-.476,6.4-2.441,7.379-5.638a37.189,37.189,0,0,0,2.139-10.885A4.838,4.838,0,0,0,132.7,40.424Z" fill="gray"/>
          <path id="Path_1279399" data-name="Path 1279399" d="M120.158,63.486l-.529-.017a15.047,15.047,0,0,1-14.028-12.6,14.815,14.815,0,0,0-.717-2.3c-.589-1.575-1.146-3.063-.475-4.9.4-3.02,4.744-5.959,8.414-6.716a49.672,49.672,0,0,1,9.261-1.095c.7-.016,1.4-.015,2.1,0a45.353,45.353,0,0,1,7.027.71c1.776.32,7.18,1.294,7.127,5.189-.071,3.651-1.709,8.507-2.906,12.053-.213.631-.41,1.217-.581,1.744-1.5,4.734-6.107,7.08-9.6,7.65a24.781,24.781,0,0,1-4.777.289Zm3.608-24.837c-.613-.014-1.236-.016-1.852,0a46.79,46.79,0,0,0-8.727,1.006c-2.248.466-4.547,2.649-4.825,4.581a27.172,27.172,0,0,0-.138,6.165c.406,5.081,6.055,10.081,11.623,10.291l.626.017a23.092,23.092,0,0,0,4.566-.278c2.87-.476,6.4-2.443,7.379-5.638a37.174,37.174,0,0,0,2.139-10.884,5.2,5.2,0,0,0-4.055-4.564A42.676,42.676,0,0,0,123.766,38.649Z" fill="#4d4d4d"/>
          <path id="Path_1279400" data-name="Path 1279400" d="M120.06,62.438a14.773,14.773,0,0,1-9.558-4.69c2.459,2.477,6.564,3.806,9.471,4.036a39.187,39.187,0,0,0,8.332-.9A24.188,24.188,0,0,1,120.06,62.438ZM105.852,43.675c.271-1.379,2.7-3.76,5.542-4.852a7.63,7.63,0,0,0-4.362,5.218,28.239,28.239,0,0,0-.19,5.93C106.662,49.292,105.568,45.124,105.852,43.675Zm29.912.267c-.009-2.642-2.454-4.575-4.745-5.356-2.191-.747-7.633-1.056-6.953-1.04a45.506,45.506,0,0,1,6.938.382c4.057.731,6.017,1.979,5.992,3.806a34.476,34.476,0,0,1-1.92,8.881A28.328,28.328,0,0,0,135.763,43.942Z" fill="#666"/>
          <path id="Path_1279401" data-name="Path 1279401" d="M99.311,42.167a11.916,11.916,0,0,0,2.546.484,12.161,12.161,0,0,0,2.626-.376c.31-.057.394.057.229.258a1.177,1.177,0,0,0-.064,1.485c.147.207.058.317-.243.249a11.359,11.359,0,0,0-2.463-.412,13.2,13.2,0,0,0-2.686.334c-.309.052-.391-.064-.227-.264a1.182,1.182,0,0,0,.042-1.511C98.916,42.205,99.006,42.1,99.311,42.167Z" fill="#666"/>
        </g>
      </g>
    </g>
  </g>
</svg>
