<svg xmlns="http://www.w3.org/2000/svg" xmlns:xlink="http://www.w3.org/1999/xlink" width="295" height="259" viewBox="0 0 295 259">
  <defs>
    <clipPath id="clip-path">
      <path id="Rectangle_412809" data-name="Rectangle 412809" d="M0,0H280a15,15,0,0,1,15,15V244a15,15,0,0,1-15,15H0a0,0,0,0,1,0,0V0A0,0,0,0,1,0,0Z" transform="translate(1041.716 2712.473)" fill="#fff" stroke="#707070" stroke-width="1"/>
    </clipPath>
  </defs>
  <g id="Mask_Group_1099367" data-name="Mask Group 1099367" transform="translate(-1041.716 -2712.473)" clip-path="url(#clip-path)">
    <g id="_5152536_51568" data-name="5152536_51568" transform="translate(1041.665 2702.473)">
      <g id="Group_1209125" data-name="Group 1209125" transform="translate(0 0)">
        <rect id="Rectangle_412810" data-name="Rectangle 412810" width="295" height="278" transform="translate(0.051 0)" fill="#fbaa36"/>
        <path id="Path_1276789" data-name="Path 1276789" d="M94.148,2.533c54.021,3.424,100.59,49.993,104.014,104.014s-37.594,95.039-91.615,91.615S5.957,148.17,2.533,94.148,40.127-.891,94.148,2.533Z" transform="translate(5.787 139.267) rotate(-45)" fill="#fff"/>
      </g>
      <g id="Group_1209127" data-name="Group 1209127" transform="translate(181.344 102.868)">
        <path id="Path_1276690" data-name="Path 1276690" d="M199.866,140.368l-15.358,9.8a30.671,30.671,0,0,0,4.091,7.384c1.532,1.924,11.51,1.631,11.51-.9C200.109,150.968,199.866,140.368,199.866,140.368Z" transform="translate(-129.669 -81.31)" fill="#c1747e"/>
        <path id="Path_1276691" data-name="Path 1276691" d="M136.017,109.729c-6.053,18.38-.422,32.333,21.34,42.34s43.457,6.048,51.049-7.517c5.605-10.015.021-20.121.021-20.121s4.188-14.608-18.706-26.407C160.218,82.82,140.884,94.953,136.017,109.729Z" transform="translate(-133.694 -85.548)" fill="#e38893"/>
        <path id="Path_1276692" data-name="Path 1276692" d="M161.815,142.438l15.358,9.8a30.681,30.681,0,0,1-4.091,7.385c-1.532,1.924-11.509,1.631-11.509-.9C161.572,153.037,161.815,142.438,161.815,142.438Z" transform="translate(-131.487 -81.132)" fill="#e38893"/>
        <path id="Path_1276693" data-name="Path 1276693" d="M133.919,123.05l15.38,15.778a30.656,30.656,0,0,1-4.091,7.385c-1.532,1.924-11.511,1.631-11.511-.9C133.7,139.627,133.919,123.05,133.919,123.05Z" transform="translate(-133.697 -82.797)" fill="#e38893"/>
        <path id="Path_1276694" data-name="Path 1276694" d="M203.411,115.243,187.227,99.379s10.865-6.942,14.295-3.985C205.629,98.932,203.411,115.243,203.411,115.243Z" transform="translate(-129.453 -85.235)" fill="#e38893"/>
        <path id="Path_1276695" data-name="Path 1276695" d="M175.723,154.328c11.7,2.859,24.226-1.474,30.378-13.564,4.176-8.206-1.625-14.685-1.625-20.647,0-7.168-6.455-13.2-13.843-13.2-15.811-.006-18.838,15.17-25.26,18.259S157,149.753,175.723,154.328Z" transform="translate(-131.545 -84.182)" fill="#e59e9e" opacity="0.6"/>
        <path id="Path_1276696" data-name="Path 1276696" d="M178.877,132.031A11.759,11.759,0,1,0,190.636,120.2,11.8,11.8,0,0,0,178.877,132.031Z" transform="translate(-130.115 -83.041)" fill="#e59e9e"/>
        <path id="Path_1276697" data-name="Path 1276697" d="M180.758,132.82a11.356,11.356,0,1,0,11.356-11.425A11.39,11.39,0,0,0,180.758,132.82Z" transform="translate(-129.966 -82.939)" fill="#dc7a89"/>
        <path id="Path_1276698" data-name="Path 1276698" d="M201.194,112.328a32.279,32.279,0,0,0-5.541-8.017c-3.274-3.209-6.245-3.537-6.245-3.537s7.913-5.056,10.411-2.9C202.81,100.448,201.194,112.328,201.194,112.328Z" transform="translate(-129.28 -85.005)" fill="#dc7a89"/>
        <path id="Path_1276699" data-name="Path 1276699" d="M184.578,131.786a8.683,8.683,0,1,0,8.683-8.736A8.709,8.709,0,0,0,184.578,131.786Z" transform="translate(-129.663 -82.797)" fill="#fff" opacity="0.3"/>
        <path id="Path_1276700" data-name="Path 1276700" d="M192.623,135.764a1.535,1.535,0,0,0,1.531,1.539h0a1.535,1.535,0,0,0,1.53-1.539v-8.427a1.535,1.535,0,0,0-1.53-1.54h0a1.535,1.535,0,0,0-1.531,1.54Z" transform="translate(-129.025 -82.561)" fill="#884954"/>
        <path id="Path_1276701" data-name="Path 1276701" d="M168.52,93.735c-.925-.269-1.677-.009-1.674.537h0c0,.546.659,1.146,1.464,1.381a39.765,39.765,0,0,1,7.781,3.193,1.844,1.844,0,0,0,2.006.043h0c.381-.388.023-1.1-.823-1.562A44.768,44.768,0,0,0,168.52,93.735Z" transform="translate(-131.069 -85.323)" fill="#884954"/>
        <path id="Path_1276702" data-name="Path 1276702" d="M185.609,135.764a1.535,1.535,0,0,0,1.531,1.539h0a1.535,1.535,0,0,0,1.53-1.539v-8.427a1.536,1.536,0,0,0-1.53-1.54h0a1.535,1.535,0,0,0-1.531,1.54Z" transform="translate(-129.582 -82.561)" fill="#884954"/>
        <path id="Path_1276703" data-name="Path 1276703" d="M194.555,118.359a2.089,2.089,0,1,0,2.086-2.188A2.139,2.139,0,0,0,194.555,118.359Z" transform="translate(-128.872 -83.387)" fill="#2d2932"/>
        <path id="Path_1276704" data-name="Path 1276704" d="M178.467,118.359a2.088,2.088,0,1,0,2.086-2.188A2.138,2.138,0,0,0,178.467,118.359Z" transform="translate(-130.148 -83.387)" fill="#2d2932"/>
        <path id="Path_1276705" data-name="Path 1276705" d="M159.447,123.676l16.6-18.995s-13.858-7.577-17.563-3.85C154.051,105.294,159.447,123.676,159.447,123.676Z" transform="translate(-131.871 -84.793)" fill="#dc7a89"/>
        <path id="Path_1276706" data-name="Path 1276706" d="M159.721,124.965l17.308-19.8s-13.181-7.051-16.887-3.324C155.708,106.3,159.721,124.965,159.721,124.965Z" transform="translate(-131.766 -84.712)" fill="#e38893"/>
        <path id="Path_1276707" data-name="Path 1276707" d="M161.657,121.416a37.484,37.484,0,0,1,5.7-9.771c3.5-4.006,6.909-4.652,6.909-4.652s-9.6-5.136-12.3-2.421C158.734,107.821,161.657,121.416,161.657,121.416Z" transform="translate(-131.577 -84.451)" fill="#dc7a89"/>
        <g id="Group_1209126" data-name="Group 1209126" transform="translate(7.663)">
          <path id="Path_1276708" data-name="Path 1276708" d="M143.8,95.488a5.465,5.465,0,0,1-.81-1.65,5.077,5.077,0,0,1-1.6-1.511,4.055,4.055,0,0,1-.031-4.183,4.013,4.013,0,0,1,3.693-2.162.843.843,0,0,1-.066,1.684,2.352,2.352,0,0,0-2.162,1.295,2.392,2.392,0,0,0-.05,2.418c.064.094.131.182.2.267a2.783,2.783,0,0,1,.106-.278c.941-2.114,2.817-2.6,4.182-1.989a2.349,2.349,0,0,1,1.223,3.195,3.218,3.218,0,0,1-2.744,1.921,4.165,4.165,0,0,1-.579.012,2.825,2.825,0,0,0,2.29,1.381.843.843,0,0,1,.157,1.678c-.094.009-.189.013-.283.013A4.547,4.547,0,0,1,143.8,95.488Zm.809-3.432a1.535,1.535,0,0,0-.12.622,2.774,2.774,0,0,0,1.1.137,1.56,1.56,0,0,0,1.364-.925.678.678,0,0,0-.372-.972,1.112,1.112,0,0,0-.457-.1A1.762,1.762,0,0,0,144.612,92.056Z" transform="translate(-140.797 -85.98)" fill="#e38893"/>
        </g>
      </g>
      <g id="Group_1209132" data-name="Group 1209132" transform="translate(211.944 88.652)">
        <path id="Path_1276709" data-name="Path 1276709" d="M187.922,85.663a8.956,8.956,0,1,1-5.692-11.375A8.939,8.939,0,0,1,187.922,85.663Z" transform="translate(-169.957 -72.807)" fill="#c5831d"/>
        <path id="Path_1276710" data-name="Path 1276710" d="M187.447,84.72a8.956,8.956,0,1,1-5.692-11.376A8.938,8.938,0,0,1,187.447,84.72Z" transform="translate(-169.995 -72.888)" fill="#ffd31c"/>
        <g id="Group_1209128" data-name="Group 1209128" transform="translate(0.808 0.813)">
          <path id="Path_1276711" data-name="Path 1276711" d="M176.334,89.613A8.19,8.19,0,1,1,186.622,84.4,8.216,8.216,0,0,1,176.334,89.613Zm4.913-14.964a7.56,7.56,0,1,0,4.78,9.555A7.517,7.517,0,0,0,181.247,74.649Z" transform="translate(-170.743 -73.636)" fill="#c17d1c"/>
        </g>
        <g id="Group_1209130" data-name="Group 1209130" transform="translate(5.283 3.114)">
          <g id="Group_1209129" data-name="Group 1209129">
            <path id="Path_1276712" data-name="Path 1276712" d="M180.1,76.785l.339-1.03.3.1-.339,1.03a3.441,3.441,0,0,1,1.139.717,1.939,1.939,0,0,1,.513.828,1.467,1.467,0,0,1-.01.895.918.918,0,0,1-.39.516.642.642,0,0,1-.566.074.542.542,0,0,1-.326-.28.557.557,0,0,1-.028-.438.773.773,0,0,1,.156-.271l.206-.218a.892.892,0,0,0,.172-.318.847.847,0,0,0,0-.552,1.034,1.034,0,0,0-.352-.474,2.745,2.745,0,0,0-.567-.324l-1.216,3.707.054.063a7.09,7.09,0,0,1,1.279,1.86,3.222,3.222,0,0,1,.227,1.049,2.845,2.845,0,0,1-.134,1.034,2.481,2.481,0,0,1-.726,1.119,2.294,2.294,0,0,1-1.174.549,3.946,3.946,0,0,1-1.373-.051l-.363,1.1-.3-.1.356-1.084a3.556,3.556,0,0,1-1.193-.69A2.567,2.567,0,0,1,175,84.513a1.78,1.78,0,0,1-.018-1.186,1.266,1.266,0,0,1,.484-.677.737.737,0,0,1,.673-.118.524.524,0,0,1,.319.268.53.53,0,0,1,.024.416,1.056,1.056,0,0,1-.433.478,1.782,1.782,0,0,0-.288.25.724.724,0,0,0-.139.253,1.154,1.154,0,0,0,.016.759,1.611,1.611,0,0,0,.484.7,2.5,2.5,0,0,0,.856.464l.054.018,1.453-4.425-.311-.351q-.441-.5-.658-.8a3.658,3.658,0,0,1-.364-.632,2.357,2.357,0,0,1-.1-1.73,2.186,2.186,0,0,1,.588-.928,2.114,2.114,0,0,1,.956-.52A3.022,3.022,0,0,1,180.1,76.785Zm-.05.149a2.168,2.168,0,0,0-.812-.082,1.359,1.359,0,0,0-.743.36,1.761,1.761,0,0,0-.492.774,1.816,1.816,0,0,0-.015,1.113,2.182,2.182,0,0,0,.251.557,7.83,7.83,0,0,0,.6.753l.053.063Zm-2.713,9.288a2.2,2.2,0,0,0,.545.061,1.412,1.412,0,0,0,.44-.095,1.756,1.756,0,0,0,.686-.5,2.417,2.417,0,0,0,.467-.833,2.961,2.961,0,0,0-.752-2.85Z" transform="translate(-174.89 -75.756)" fill="#c17d1c"/>
          </g>
        </g>
        <path id="Path_1276713" data-name="Path 1276713" d="M176.14,90.447a9,9,0,0,1,5.615-17.1s-3.562,1.409-5.993,7.492S176.14,90.447,176.14,90.447Z" transform="translate(-169.995 -72.888)" fill="#e2d4cf"/>
        <g id="Group_1209131" data-name="Group 1209131" transform="translate(0.001 0.001)">
          <path id="Path_1276714" data-name="Path 1276714" d="M187.3,79.328l-12.657,10.1a9.15,9.15,0,0,0,1.124.462A8.988,8.988,0,0,0,187.3,79.328Z" transform="translate(-169.626 -72.335)" fill="none"/>
          <path id="Path_1276715" data-name="Path 1276715" d="M183.537,74.082,170.4,84.567c.067.208.142.413.224.615l13.459-10.742C183.907,74.314,183.724,74.2,183.537,74.082Z" transform="translate(-169.963 -72.786)" fill="none"/>
          <path id="Path_1276716" data-name="Path 1276716" d="M186.89,77.928a9,9,0,0,0-2.579-3.27l1.557,1.975L172.044,87.667c.087.1.175.2.267.3l13.8-11.017.45.569L172.835,88.473c.123.11.248.217.377.321l13.652-10.9Z" transform="translate(-169.833 -72.736)" fill="none"/>
          <path id="Path_1276717" data-name="Path 1276717" d="M181.755,73.345A8.988,8.988,0,0,0,170.223,83.91l12.657-10.1A9.162,9.162,0,0,0,181.755,73.345Z" transform="translate(-169.995 -72.888)" fill="none"/>
          <path id="Path_1276718" data-name="Path 1276718" d="M184.425,74.679c-.116-.092-.236-.181-.357-.268L170.609,85.154a9.045,9.045,0,0,0,1.55,2.535l13.824-11.034Z" transform="translate(-169.946 -72.757)" fill="#fff"/>
          <path id="Path_1276719" data-name="Path 1276719" d="M186.1,76.765l-13.8,11.017q.251.266.524.51l13.729-10.958Z" transform="translate(-169.813 -72.555)" fill="#fff"/>
          <path id="Path_1276720" data-name="Path 1276720" d="M182.863,73.735l-12.657,10.1q.089.385.211.759l13.135-10.485Q183.218,73.909,182.863,73.735Z" transform="translate(-169.979 -72.816)" fill="#fff"/>
          <path id="Path_1276721" data-name="Path 1276721" d="M186.8,77.672l-.025-.032-13.652,10.9a8.908,8.908,0,0,0,1.64,1.039l12.657-10.1A9.093,9.093,0,0,0,186.8,77.672Z" transform="translate(-169.747 -72.48)" fill="#fff"/>
        </g>
      </g>
      <g id="Group_1209137" data-name="Group 1209137" transform="translate(203.744 60.579)">
        <path id="Path_1276722" data-name="Path 1276722" d="M182.026,56.786a8.951,8.951,0,1,1-8.951-9A8.978,8.978,0,0,1,182.026,56.786Z" transform="translate(-163.319 -46.971)" fill="#c5831d"/>
        <path id="Path_1276723" data-name="Path 1276723" d="M181.279,56.04a8.95,8.95,0,1,1-8.951-9.005A8.978,8.978,0,0,1,181.279,56.04Z" transform="translate(-163.379 -47.035)" fill="#ffd31c"/>
        <g id="Group_1209133" data-name="Group 1209133" transform="translate(0.806 0.81)">
          <path id="Path_1276724" data-name="Path 1276724" d="M172.269,64.17a8.195,8.195,0,1,1,8.146-8.195A8.178,8.178,0,0,1,172.269,64.17Zm0-15.759a7.565,7.565,0,1,0,7.519,7.564A7.549,7.549,0,0,0,172.269,48.411Z" transform="translate(-164.125 -47.781)" fill="#c17d1c"/>
        </g>
        <g id="Group_1209135" data-name="Group 1209135" transform="translate(6.077 2.814)">
          <g id="Group_1209134" data-name="Group 1209134">
            <path id="Path_1276725" data-name="Path 1276725" d="M171.833,50.71V49.626h.319V50.71a3.425,3.425,0,0,1,1.3.321,1.917,1.917,0,0,1,.744.624,1.464,1.464,0,0,1,.269.852.921.921,0,0,1-.209.613.646.646,0,0,1-.514.25.54.54,0,0,1-.4-.164.554.554,0,0,1-.163-.407.782.782,0,0,1,.064-.307l.127-.271a.906.906,0,0,0,.064-.357.843.843,0,0,0-.17-.525A1.033,1.033,0,0,0,172.79,51a2.75,2.75,0,0,0-.639-.129v3.9l.071.043a7.051,7.051,0,0,1,1.794,1.363,3.232,3.232,0,0,1,.543.924,2.854,2.854,0,0,1,.195,1.024,2.5,2.5,0,0,1-.34,1.292,2.31,2.31,0,0,1-.943.892,3.946,3.946,0,0,1-1.319.385v1.163h-.319V60.72a3.555,3.555,0,0,1-1.348-.278,2.552,2.552,0,0,1-1.088-.786,1.782,1.782,0,0,1-.386-1.12,1.269,1.269,0,0,1,.248-.8.739.739,0,0,1,.6-.325.522.522,0,0,1,.386.153.529.529,0,0,1,.152.388,1.061,1.061,0,0,1-.263.591,1.769,1.769,0,0,0-.194.327.722.722,0,0,0-.054.284,1.163,1.163,0,0,0,.252.716,1.613,1.613,0,0,0,.678.509,2.475,2.475,0,0,0,.957.171h.057V55.9l-.4-.236q-.573-.334-.876-.557a3.648,3.648,0,0,1-.542-.485,2.35,2.35,0,0,1-.631-1.613,2.2,2.2,0,0,1,.269-1.067,2.124,2.124,0,0,1,.746-.8A3.049,3.049,0,0,1,171.833,50.71Zm0,.157a2.183,2.183,0,0,0-.8.178,1.362,1.362,0,0,0-.593.577,1.769,1.769,0,0,0-.226.89,1.816,1.816,0,0,0,.332,1.061,2.156,2.156,0,0,0,.413.449,7.787,7.787,0,0,0,.8.527l.071.043V50.868Zm.319,9.676a2.162,2.162,0,0,0,.537-.115,1.407,1.407,0,0,0,.388-.228,1.764,1.764,0,0,0,.494-.7,2.4,2.4,0,0,0,.184-.938,2.95,2.95,0,0,0-1.6-2.469v4.446Z" transform="translate(-169.01 -49.626)" fill="#c17d1c"/>
          </g>
        </g>
        <path id="Path_1276726" data-name="Path 1276726" d="M172.329,65.045a9.005,9.005,0,0,1,0-18.01s-2.942,2.462-3.354,9.005S172.329,65.045,172.329,65.045Z" transform="translate(-163.379 -47.035)" fill="#e2d4cf"/>
        <g id="Group_1209136" data-name="Group 1209136">
          <path id="Path_1276727" data-name="Path 1276727" d="M179.417,51.031l-8.869,13.587a9.009,9.009,0,0,0,8.869-13.587Z" transform="translate(-162.81 -46.692)" fill="none"/>
          <path id="Path_1276728" data-name="Path 1276728" d="M174.186,47.242l-9.2,14.1q.193.265.4.513l9.43-14.447C174.609,47.345,174.4,47.29,174.186,47.242Z" transform="translate(-163.251 -47.017)" fill="none"/>
          <path id="Path_1276729" data-name="Path 1276729" d="M178.511,49.817a8.941,8.941,0,0,0-3.468-2.292l2.094,1.384-9.686,14.84c.114.068.229.134.346.2l9.672-14.818.6.4-9.62,14.737c.151.065.3.128.458.186l9.566-14.655Z" transform="translate(-163.056 -46.993)" fill="none"/>
          <path id="Path_1276730" data-name="Path 1276730" d="M172.329,47.035a9.018,9.018,0,0,0-7.657,13.671l8.869-13.587A9.017,9.017,0,0,0,172.329,47.035Z" transform="translate(-163.379 -47.035)" fill="none"/>
          <path id="Path_1276731" data-name="Path 1276731" d="M175.21,47.537q-.209-.076-.423-.142l-9.43,14.447a8.99,8.99,0,0,0,2.262,1.918L177.3,48.92Z" transform="translate(-163.222 -47.004)" fill="#fff"/>
          <path id="Path_1276732" data-name="Path 1276732" d="M177.444,49l-9.672,14.818c.214.115.433.222.656.319l9.62-14.737Z" transform="translate(-163.03 -46.866)" fill="#fff"/>
          <path id="Path_1276733" data-name="Path 1276733" d="M173.446,47.112,164.577,60.7c.136.225.283.443.437.654l9.2-14.1C173.964,47.2,173.707,47.148,173.446,47.112Z" transform="translate(-163.284 -47.028)" fill="#fff"/>
          <path id="Path_1276734" data-name="Path 1276734" d="M178.4,49.638l-.033-.023L168.8,64.271a8.872,8.872,0,0,0,1.882.469l8.869-13.587A8.907,8.907,0,0,0,178.4,49.638Z" transform="translate(-162.948 -46.813)" fill="#fff"/>
        </g>
      </g>
      <g id="Group_1209142" data-name="Group 1209142" transform="translate(215.876 66.437)">
        <path id="Path_1276735" data-name="Path 1276735" d="M190.757,57.077a9.037,9.037,0,0,1-3.1,12.349,8.92,8.92,0,0,1-12.274-3.115,9.036,9.036,0,0,1,3.1-12.348A8.919,8.919,0,0,1,190.757,57.077Z" transform="translate(-173.016 -52.407)" fill="#c5831d"/>
        <path id="Path_1276736" data-name="Path 1276736" d="M189.733,56.819a9.036,9.036,0,0,1-3.1,12.348,8.92,8.92,0,0,1-12.274-3.115,9.037,9.037,0,0,1,3.1-12.349A8.92,8.92,0,0,1,189.733,56.819Z" transform="translate(-173.097 -52.429)" fill="#ffd31c"/>
        <g id="Group_1209138" data-name="Group 1209138" transform="translate(0.809 0.814)">
          <path id="Path_1276737" data-name="Path 1276737" d="M186.166,68.407A8.127,8.127,0,0,1,175,65.573a8.232,8.232,0,0,1,2.817-11.237,8.126,8.126,0,0,1,11.169,2.834A8.233,8.233,0,0,1,186.166,68.407Zm-8.031-13.53a7.6,7.6,0,0,0-2.6,10.373,7.5,7.5,0,0,0,10.31,2.617,7.6,7.6,0,0,0,2.6-10.373A7.5,7.5,0,0,0,178.135,54.878Z" transform="translate(-173.846 -53.179)" fill="#c17d1c"/>
        </g>
        <g id="Group_1209140" data-name="Group 1209140" transform="translate(5.059 3.553)">
          <g id="Group_1209139" data-name="Group 1209139">
            <path id="Path_1276738" data-name="Path 1276738" d="M179.033,56.8l-.553-.931.274-.165.553.931a3.429,3.429,0,0,1,1.284-.4,1.918,1.918,0,0,1,.957.152,1.452,1.452,0,0,1,.666.593.918.918,0,0,1,.133.634.653.653,0,0,1-.314.48.539.539,0,0,1-.425.064.552.552,0,0,1-.347-.266.76.76,0,0,1-.1-.3l-.029-.3a.9.9,0,0,0-.127-.339.837.837,0,0,0-.413-.363,1.023,1.023,0,0,0-.587-.042,2.7,2.7,0,0,0-.613.219l1.989,3.351h.083a7.053,7.053,0,0,1,2.235.244,3.174,3.174,0,0,1,.937.514,2.81,2.81,0,0,1,.689.778,2.492,2.492,0,0,1,.366,1.284,2.325,2.325,0,0,1-.355,1.252,4,4,0,0,1-.937,1.011l.593,1-.274.165-.582-.98a3.542,3.542,0,0,1-1.3.455,2.527,2.527,0,0,1-1.334-.112,1.763,1.763,0,0,1-.9-.763,1.269,1.269,0,0,1-.193-.811.746.746,0,0,1,.352-.59.52.52,0,0,1,.739.187,1.064,1.064,0,0,1,.076.643,1.751,1.751,0,0,0,0,.381.735.735,0,0,0,.1.272,1.146,1.146,0,0,0,.581.485,1.6,1.6,0,0,0,.841.088A2.5,2.5,0,0,0,184,65.28l.049-.029-2.374-4-.467.006q-.664.008-1.036-.026a3.612,3.612,0,0,1-.713-.137,2.329,2.329,0,0,1-1.364-1.059,2.2,2.2,0,0,1-.312-1.055,2.131,2.131,0,0,1,.234-1.067A3.013,3.013,0,0,1,179.033,56.8Zm.079.134a2.179,2.179,0,0,0-.594.565,1.375,1.375,0,0,0-.215.8,1.769,1.769,0,0,0,.26.881,1.8,1.8,0,0,0,.825.74,2.124,2.124,0,0,0,.584.172,7.575,7.575,0,0,0,.957.039h.082Zm5.206,8.143a2.207,2.207,0,0,0,.4-.375,1.4,1.4,0,0,0,.217-.4,1.775,1.775,0,0,0,.07-.853,2.417,2.417,0,0,0-.32-.9,2.924,2.924,0,0,0-2.635-1.293Z" transform="translate(-177.785 -55.701)" fill="#c17d1c"/>
          </g>
        </g>
        <path id="Path_1276739" data-name="Path 1276739" d="M186.638,69.067a8.92,8.92,0,0,1-12.274-3.115,9.037,9.037,0,0,1,3.1-12.349s-1.272,3.632,1.71,9.462S186.638,69.067,186.638,69.067Z" transform="translate(-173.097 -52.329)" fill="#e2d4cf"/>
        <g id="Group_1209141" data-name="Group 1209141" transform="translate(0 0.001)">
          <path id="Path_1276740" data-name="Path 1276740" d="M185.33,53.4l-.69,16.24a9,9,0,0,0,4.178-12.9A8.935,8.935,0,0,0,185.33,53.4Z" transform="translate(-172.182 -52.348)" fill="none"/>
          <path id="Path_1276741" data-name="Path 1276741" d="M178.877,52.853l-.716,16.854q.3.127.608.232l.733-17.268C179.292,52.723,179.084,52.785,178.877,52.853Z" transform="translate(-172.696 -52.41)" fill="none"/>
          <path id="Path_1276742" data-name="Path 1276742" d="M183.953,52.773a8.913,8.913,0,0,0-4.146-.179l2.5.108-.755,17.738c.133,0,.266,0,.4-.01l.753-17.711.722.032-.749,17.615c.163-.022.326-.046.488-.077l.744-17.517Z" transform="translate(-172.565 -52.431)" fill="none"/>
          <path id="Path_1276743" data-name="Path 1276743" d="M177.46,53.647A9.037,9.037,0,0,0,174.364,66a8.933,8.933,0,0,0,3.488,3.339l.691-16.239A8.878,8.878,0,0,0,177.46,53.647Z" transform="translate(-173.097 -52.374)" fill="none"/>
          <path id="Path_1276744" data-name="Path 1276744" d="M179.893,52.582c-.145.029-.291.061-.435.1l-.733,17.268a8.936,8.936,0,0,0,2.919.48l.755-17.738Z" transform="translate(-172.651 -52.418)" fill="#fff"/>
          <path id="Path_1276745" data-name="Path 1276745" d="M182.549,52.7,181.8,70.408q.364-.017.726-.065l.749-17.615Z" transform="translate(-172.408 -52.408)" fill="#fff"/>
          <path id="Path_1276746" data-name="Path 1276746" d="M178.194,53.117,177.5,69.356c.232.123.468.235.709.337l.716-16.854C178.681,52.921,178.436,53.012,178.194,53.117Z" transform="translate(-172.748 -52.396)" fill="#fff"/>
          <path id="Path_1276747" data-name="Path 1276747" d="M183.706,52.746l-.041,0-.744,17.517a8.837,8.837,0,0,0,1.855-.569l.69-16.24A9.016,9.016,0,0,0,183.706,52.746Z" transform="translate(-172.318 -52.404)" fill="#fff"/>
        </g>
      </g>
      <g id="Group_1209146" data-name="Group 1209146" transform="translate(51.441 59.527)">
        <path id="Path_1276790" data-name="Path 1276790" d="M1.459.626,43.945.561,43.8,98.072l-42.487.065Z" transform="matrix(0.966, -0.258, 0.258, 0.966, 0, 10.805)" fill="#748148"/>
        <g id="Group_1209143" data-name="Group 1209143" transform="translate(7.109 6.242)">
          <path id="Path_1276748" data-name="Path 1276748" d="M91.991,94.228c-1.255,6.777-7.389,13.006-15.913,15.3-7.536,2.026-14.981.447-19.68-3.569l7.693,28.962a8.487,8.487,0,0,1,10.4,6.05l19.717-5.3a8.55,8.55,0,0,1,6.013-10.461h0Z" transform="translate(-45.239 -48.173)" fill="#51693c"/>
          <path id="Path_1276749" data-name="Path 1276749" d="M52.072,57.115a8.552,8.552,0,0,1-6.014,10.462l7.1,26.713c2.08-5.841,7.749-10.944,15.288-12.971,8.522-2.291,16.927.028,21.374,5.272L82.185,57.865h0a8.488,8.488,0,0,1-10.4-6.05h0l-19.716,5.3Z" transform="translate(-46.058 -51.815)" fill="#51693c"/>
        </g>
        <g id="Group_1209144" data-name="Group 1209144" transform="translate(9.893 9.877)">
          <path id="Path_1276750" data-name="Path 1276750" d="M91.226,100.161c-1.049,6.232-6.44,11.911-13.99,13.941-6.674,1.794-13.3.269-17.514-3.477l5.452,20.526a7.685,7.685,0,0,1,9.292,5.673l17.462-4.695a7.745,7.745,0,0,1,5.243-9.581h0Z" transform="translate(-47.758 -51.298)" fill="#748148"/>
          <path id="Path_1276751" data-name="Path 1276751" d="M53.88,59.857a7.744,7.744,0,0,1-5.243,9.58l5.107,19.226c1.793-5.36,6.779-10.007,13.456-11.8,7.549-2.029,15.035.188,19.036,5.06l-5.6-21.085h0a7.688,7.688,0,0,1-9.293-5.673h0l-17.461,4.7Z" transform="translate(-48.637 -55.162)" fill="#748148"/>
        </g>
        <path id="Path_1276752" data-name="Path 1276752" d="M78.05,116.3a6.044,6.044,0,1,1-4.255,7.4A6.005,6.005,0,0,1,78.05,116.3Z" transform="translate(-36.766 -40.053)" fill="#51693c"/>
        <path id="Path_1276753" data-name="Path 1276753" d="M63.125,60.446a6.044,6.044,0,1,1-4.254,7.4A6.008,6.008,0,0,1,63.125,60.446Z" transform="translate(-37.949 -44.849)" fill="#51693c"/>
        <g id="Group_1209145" data-name="Group 1209145" transform="translate(16.958 41.118)">
          <path id="Path_1276754" data-name="Path 1276754" d="M58.551,98.459l-3.12.839-.247-.928,3.121-.839a10.427,10.427,0,0,1-.086-4.049A5.781,5.781,0,0,1,59.44,90.83a4.347,4.347,0,0,1,2.244-1.444,2.736,2.736,0,0,1,1.927.135,1.947,1.947,0,0,1,1.116,1.3,1.631,1.631,0,0,1-.164,1.284,1.647,1.647,0,0,1-1.044.789,2.286,2.286,0,0,1-.932.052l-.878-.164a2.681,2.681,0,0,0-1.076.09,2.492,2.492,0,0,0-1.376.9,3.11,3.11,0,0,0-.6,1.667,8.313,8.313,0,0,0,.124,1.957l11.229-3.019.068-.24a21.385,21.385,0,0,1,2.532-6.279,9.553,9.553,0,0,1,2.239-2.294,8.414,8.414,0,0,1,2.794-1.36,7.346,7.346,0,0,1,3.978-.006,6.9,6.9,0,0,1,3.3,2.056A12.058,12.058,0,0,1,87.043,89.8l3.345-.9.248.929-3.284.884a10.81,10.81,0,0,1,.241,4.138,7.717,7.717,0,0,1-1.417,3.778,5.288,5.288,0,0,1-2.925,1.993,3.755,3.755,0,0,1-2.479-.108,2.23,2.23,0,0,1-1.4-1.5,1.589,1.589,0,0,1,.143-1.246,1.562,1.562,0,0,1,1-.743,3.119,3.119,0,0,1,1.9.308,5.482,5.482,0,0,0,1.094.314,2.205,2.205,0,0,0,.861-.065,3.438,3.438,0,0,0,1.864-1.287,4.861,4.861,0,0,0,.94-2.366,7.569,7.569,0,0,0-.249-2.921l-.044-.164-13.4,3.6-.365,1.359q-.52,1.931-.922,2.979a11.084,11.084,0,0,1-.977,1.956,6.985,6.985,0,0,1-4.151,3.087,6.487,6.487,0,0,1-3.277.04,6.309,6.309,0,0,1-2.864-1.555A9.105,9.105,0,0,1,58.551,98.459ZM59,98.337a6.632,6.632,0,0,0,1.129,2.187,4.085,4.085,0,0,0,2.12,1.28,5.208,5.208,0,0,0,2.734-.031,5.37,5.37,0,0,0,2.8-1.786,6.441,6.441,0,0,0,.972-1.55,23.418,23.418,0,0,0,.9-2.742l.069-.237ZM86.59,89.926a6.626,6.626,0,0,0-.744-1.474,4.2,4.2,0,0,0-.956-.954,5.218,5.218,0,0,0-2.383-.9,7.08,7.08,0,0,0-2.842.192Q75.541,87.9,73.8,93.363Z" transform="translate(-55.184 -83.932)" fill="#51693c"/>
        </g>
        <path id="Path_1276755" data-name="Path 1276755" d="M105.65,137.75,66.164,148.364l-24.087-90.7Z" transform="translate(-39.265 -45.07)" fill="#c3d2c5" opacity="0.4"/>
      </g>
      <g id="Group_1209150" data-name="Group 1209150" transform="translate(31.062 64.311)">
        <path id="Path_1276791" data-name="Path 1276791" d="M2.084.911,44.592.818l-.211,97.46-42.508.093Z" transform="translate(0.623 16.511) rotate(-22.78)" fill="#c5d2d1"/>
        <path id="Path_1276792" data-name="Path 1276792" d="M2.084.911,44.592.818,44.381,98.28l-42.509.093Z" transform="translate(0 18.48) rotate(-22.78)" fill="#748148"/>
        <g id="Group_1209147" data-name="Group 1209147" transform="translate(9.249 9.483)">
          <path id="Path_1276756" data-name="Path 1276756" d="M86.156,98.573c-.327,6.885-5.561,13.9-13.7,17.332-7.193,3.04-14.781,2.495-19.978-.842L64.02,142.7a8.476,8.476,0,0,1,11.119,4.57l18.816-7.951A8.563,8.563,0,0,1,98.5,128.135h0Z" transform="translate(-35.744 -55.824)" fill="#51693c"/>
          <path id="Path_1276757" data-name="Path 1276757" d="M41.515,67.154a8.564,8.564,0,0,1-4.541,11.187l10.64,25.493c1.271-6.069,6.2-11.9,13.389-14.941,8.135-3.438,16.775-2.29,21.889,2.3L71.449,63.774h0a8.471,8.471,0,0,1-11.118-4.569h0l-18.815,7.95Z" transform="translate(-36.974 -59.204)" fill="#51693c"/>
        </g>
        <g id="Group_1209148" data-name="Group 1209148" transform="translate(12.295 13.117)">
          <path id="Path_1276758" data-name="Path 1276758" d="M86.219,104.513c-.2,6.317-4.768,12.681-11.974,15.726-6.37,2.691-13.144,2.087-17.822-1.048L64.6,138.78a7.675,7.675,0,0,1,9.973,4.348l16.665-7.041a7.756,7.756,0,0,1,3.9-10.209h0Z" transform="translate(-38.477 -58.948)" fill="#748148"/>
          <path id="Path_1276759" data-name="Path 1276759" d="M43.694,69.593A7.753,7.753,0,0,1,39.8,79.8l7.66,18.348c1.05-5.555,5.364-10.844,11.735-13.535,7.2-3.044,14.921-1.874,19.542,2.407L70.332,66.9h0a7.673,7.673,0,0,1-9.973-4.348h0L43.694,69.593Z" transform="translate(-39.795 -62.551)" fill="#748148"/>
        </g>
        <path id="Path_1276760" data-name="Path 1276760" d="M75.41,122.046a6,6,0,0,1,7.868,3.234,6.06,6.06,0,0,1-3.213,7.916,6,6,0,0,1-7.868-3.233A6.06,6.06,0,0,1,75.41,122.046Z" transform="translate(-24.969 -44.366)" fill="#51693c"/>
        <path id="Path_1276761" data-name="Path 1276761" d="M53.024,68.742a6,6,0,0,1,7.868,3.234,6.058,6.058,0,0,1-3.213,7.915,6,6,0,0,1-7.868-3.232A6.059,6.059,0,0,1,53.024,68.742Z" transform="translate(-26.744 -48.943)" fill="#51693c"/>
        <g id="Group_1209149" data-name="Group 1209149" transform="translate(23.542 42.789)">
          <path id="Path_1276762" data-name="Path 1276762" d="M53.565,107.226l-2.977,1.258-.372-.886,2.979-1.259a10.429,10.429,0,0,1-.632-4,5.811,5.811,0,0,1,.85-2.794,4.357,4.357,0,0,1,2.028-1.738,2.721,2.721,0,0,1,1.927-.13,1.949,1.949,0,0,1,1.284,1.138,1.684,1.684,0,0,1-.918,2.219,2.254,2.254,0,0,1-.915.178l-.892-.04a2.676,2.676,0,0,0-1.054.237,2.5,2.5,0,0,0-1.241,1.081,3.122,3.122,0,0,0-.372,1.733,8.25,8.25,0,0,0,.389,1.923l10.715-4.528.035-.247a21.405,21.405,0,0,1,1.66-6.566,9.583,9.583,0,0,1,1.908-2.581,8.451,8.451,0,0,1,2.584-1.73,7.379,7.379,0,0,1,3.941-.552,6.9,6.9,0,0,1,3.543,1.586,12.045,12.045,0,0,1,2.587,3.219L83.812,93.4l.369.887-3.132,1.323a10.8,10.8,0,0,1,.8,4.067,7.73,7.73,0,0,1-.893,3.937,5.3,5.3,0,0,1-2.626,2.373,3.748,3.748,0,0,1-2.472.234,2.223,2.223,0,0,1-1.591-1.3,1.6,1.6,0,0,1-.029-1.253,1.573,1.573,0,0,1,.889-.874,3.131,3.131,0,0,1,1.926.045,5.358,5.358,0,0,0,1.126.162,2.165,2.165,0,0,0,.844-.182,3.436,3.436,0,0,0,1.672-1.529,4.857,4.857,0,0,0,.611-2.473,7.5,7.5,0,0,0-.641-2.858L80.6,95.8l-12.791,5.4-.178,1.4q-.253,1.985-.511,3.079a11.082,11.082,0,0,1-.7,2.07,6.993,6.993,0,0,1-3.7,3.626,6.478,6.478,0,0,1-3.241.488,6.307,6.307,0,0,1-3.047-1.146A9.107,9.107,0,0,1,53.565,107.226Zm.431-.183a6.619,6.619,0,0,0,1.414,2.011,4.078,4.078,0,0,0,2.273.98,5.224,5.224,0,0,0,2.705-.405,5.387,5.387,0,0,0,2.529-2.153,6.5,6.5,0,0,0,.754-1.667,23.737,23.737,0,0,0,.517-2.841l.034-.244Zm26.192-12.11a6.667,6.667,0,0,0-.935-1.36,4.256,4.256,0,0,0-1.078-.814,5.212,5.212,0,0,0-2.484-.566,7.089,7.089,0,0,0-2.788.577q-3.938,1.664-4.919,7.319Z" transform="translate(-50.217 -89.877)" fill="#51693c"/>
        </g>
        <path id="Path_1276763" data-name="Path 1276763" d="M105.663,139.42,67.98,155.344,31.85,68.79Z" transform="translate(-28.131 -48.898)" fill="#c3d2c5" opacity="0.4"/>
      </g>
      <g id="Group_1209154" data-name="Group 1209154" transform="translate(18.103 71.342)">
        <path id="Path_1276793" data-name="Path 1276793" d="M2.765,1.247l42.563-.124-.282,97.344-42.563.124Z" transform="translate(0.146 25.951) rotate(-36.334)" fill="#c5d2d1"/>
        <path id="Path_1276794" data-name="Path 1276794" d="M2.765,1.247l42.561-.124-.282,97.344-42.561.124Z" transform="translate(0 28.01) rotate(-36.334)" fill="#748148"/>
        <g id="Group_1209151" data-name="Group 1209151" transform="translate(12.099 11.448)">
          <path id="Path_1276764" data-name="Path 1276764" d="M80.235,99.887c1.285,6.771-2.171,14.82-9.278,20.078-6.285,4.651-13.79,5.911-19.619,3.891l17.655,24.152a8.459,8.459,0,0,1,11.873,1.82l16.44-12.165a8.578,8.578,0,0,1,1.81-11.945h0Z" transform="translate(-25.726 -64.707)" fill="#51693c"/>
          <path id="Path_1276765" data-name="Path 1276765" d="M29.417,79.654A8.581,8.581,0,0,1,27.608,91.6l16.281,22.275c-.178-6.2,3.254-13.033,9.538-17.684,7.107-5.258,15.774-6.18,21.814-2.927L57.731,69.31h0A8.459,8.459,0,0,1,45.858,67.49h0L29.417,79.654Z" transform="translate(-27.608 -67.489)" fill="#51693c"/>
        </g>
        <g id="Group_1209152" data-name="Group 1209152" transform="translate(15.468 14.921)">
          <path id="Path_1276766" data-name="Path 1276766" d="M81.719,105.58c1.279,6.188-1.684,13.455-7.978,18.111-5.565,4.119-12.291,5.129-17.569,3.185l12.513,17.116a7.659,7.659,0,0,1,10.708,1.874l14.562-10.774a7.767,7.767,0,0,1,1.412-10.843h0Z" transform="translate(-28.712 -67.691)" fill="#748148"/>
          <path id="Path_1276767" data-name="Path 1276767" d="M32.14,81.463a7.766,7.766,0,0,1-1.41,10.842l11.719,16.032c-.273-5.648,2.689-11.806,8.255-15.924,6.3-4.658,14.071-5.339,19.56-2.267L57.411,72.563h0A7.659,7.659,0,0,1,46.7,70.687h0L32.14,81.463Z" transform="translate(-30.73 -70.687)" fill="#748148"/>
        </g>
        <path id="Path_1276768" data-name="Path 1276768" d="M75.479,124.766a5.985,5.985,0,0,1,8.4,1.29,6.069,6.069,0,0,1-1.282,8.452,5.983,5.983,0,0,1-8.4-1.289A6.07,6.07,0,0,1,75.479,124.766Z" transform="translate(-11.907 -51.224)" fill="#51693c"/>
        <path id="Path_1276769" data-name="Path 1276769" d="M41.225,78.19a5.99,5.99,0,0,1,8.4,1.288,6.073,6.073,0,0,1-1.282,8.454,5.988,5.988,0,0,1-8.4-1.287A6.074,6.074,0,0,1,41.225,78.19Z" transform="translate(-14.623 -55.223)" fill="#51693c"/>
        <g id="Group_1209153" data-name="Group 1209153" transform="translate(33.422 40.272)">
          <path id="Path_1276770" data-name="Path 1276770" d="M50.533,115.8l-2.6,1.926-.566-.775,2.6-1.924a10.449,10.449,0,0,1-1.545-3.739,5.829,5.829,0,0,1,.175-2.916,4.379,4.379,0,0,1,1.567-2.169,2.741,2.741,0,0,1,1.844-.582,1.942,1.942,0,0,1,1.512.806,1.639,1.639,0,0,1,.311,1.256,1.659,1.659,0,0,1-.687,1.118,2.288,2.288,0,0,1-.849.389l-.877.172a2.676,2.676,0,0,0-.969.478,2.521,2.521,0,0,0-.955,1.343,3.136,3.136,0,0,0,.042,1.774,8.258,8.258,0,0,0,.824,1.777l9.363-6.928-.024-.247a21.4,21.4,0,0,1,.085-6.776,9.638,9.638,0,0,1,1.253-2.957,8.469,8.469,0,0,1,2.11-2.291,7.357,7.357,0,0,1,3.7-1.466,6.86,6.86,0,0,1,3.814.707,11.9,11.9,0,0,1,3.265,2.52l2.791-2.065.565.776-2.737,2.026a10.78,10.78,0,0,1,1.724,3.767,7.722,7.722,0,0,1,.049,4.036,5.325,5.325,0,0,1-2,2.928,3.756,3.756,0,0,1-2.349.809,2.212,2.212,0,0,1-1.848-.887,1.591,1.591,0,0,1-.318-1.212,1.573,1.573,0,0,1,.66-1.058A3.149,3.149,0,0,1,72.346,106a5.32,5.32,0,0,0,1.131-.107,2.187,2.187,0,0,0,.777-.375,3.464,3.464,0,0,0,1.271-1.883,4.878,4.878,0,0,0,.017-2.547,7.494,7.494,0,0,0-1.29-2.628l-.1-.139L62.976,106.6l.154,1.4q.214,1.991.219,3.115a11.062,11.062,0,0,1-.2,2.178,7.03,7.03,0,0,1-2.749,4.4,6.488,6.488,0,0,1-3.037,1.239,6.314,6.314,0,0,1-3.23-.4A9.091,9.091,0,0,1,50.533,115.8Zm.377-.278a6.59,6.59,0,0,0,1.843,1.622,4.061,4.061,0,0,0,2.436.417,5.231,5.231,0,0,0,2.536-1.032,5.427,5.427,0,0,0,1.958-2.69,6.5,6.5,0,0,0,.342-1.8,23.566,23.566,0,0,0-.158-2.882l-.023-.248ZM73.553,97.575a6.529,6.529,0,0,0-1.227-1.1,4.167,4.167,0,0,0-1.238-.538,5.2,5.2,0,0,0-2.545.035,7.108,7.108,0,0,0-2.578,1.219q-3.441,2.548-3.077,8.274Z" transform="translate(-47.365 -94.034)" fill="#51693c"/>
        </g>
        <path id="Path_1276771" data-name="Path 1276771" d="M108.951,134.343,76.027,158.705,20.743,83.079Z" transform="translate(-16.053 -54.702)" fill="#c3d2c5" opacity="0.4"/>
      </g>
      <g id="Group_1209173" data-name="Group 1209173" transform="translate(92.947 51.621)">
        <path id="Path_1276772" data-name="Path 1276772" d="M164.515,200.191a2.656,2.656,0,0,1-2.647,2.664H72.691a2.656,2.656,0,0,1-2.647-2.664V41.45a2.657,2.657,0,0,1,2.647-2.664h89.177a2.656,2.656,0,0,1,2.647,2.664Z" transform="translate(-70.044 -38.785)" fill="#081a25"/>
        <path id="Path_1276773" data-name="Path 1276773" d="M163.55,198.67a2.605,2.605,0,0,1-2.6,2.614H73.474a2.605,2.605,0,0,1-2.6-2.614V42.321a2.605,2.605,0,0,1,2.6-2.614h87.479a2.605,2.605,0,0,1,2.6,2.614Z" transform="translate(-69.978 -38.706)" fill="#1f323e"/>
        <g id="Group_1209155" data-name="Group 1209155" transform="translate(33.917 3.023)">
          <path id="Path_1276774" data-name="Path 1276774" d="M124.907,42.694a1.017,1.017,0,0,1-1.014,1.02h-21.41a1.017,1.017,0,0,1-1.014-1.02h0a1.016,1.016,0,0,1,1.014-1.021h21.41a1.016,1.016,0,0,1,1.014,1.021Z" transform="translate(-101.469 -41.561)" fill="#fff"/>
          <path id="Path_1276775" data-name="Path 1276775" d="M126.316,42.7a1.127,1.127,0,1,1-1.127-1.133A1.13,1.13,0,0,1,126.316,42.7Z" transform="translate(-99.678 -41.569)" fill="#fff"/>
        </g>
        <rect id="Rectangle_412816" data-name="Rectangle 412816" width="84.158" height="143.361" transform="translate(5.157 10.109)" fill="#00b9c5"/>
        <rect id="Rectangle_412817" data-name="Rectangle 412817" width="73.707" height="133.427" transform="translate(10.382 20.044)" fill="#fff"/>
        <g id="Group_1209156" data-name="Group 1209156" transform="translate(14.535 26.561)">
          <rect id="Rectangle_412818" data-name="Rectangle 412818" width="65.4" height="1.979" fill="#bcbec0"/>
          <rect id="Rectangle_412819" data-name="Rectangle 412819" width="65.4" height="1.979" transform="translate(0 4.019)" fill="#bcbec0"/>
        </g>
        <g id="Group_1209157" data-name="Group 1209157" transform="translate(14.535 49.927)">
          <rect id="Rectangle_412820" data-name="Rectangle 412820" width="65.4" height="1.979" fill="#bcbec0"/>
          <rect id="Rectangle_412821" data-name="Rectangle 412821" width="65.4" height="1.979" transform="translate(0 4.019)" fill="#bcbec0"/>
        </g>
        <g id="Group_1209170" data-name="Group 1209170" transform="translate(14.535 58.908)">
          <g id="Group_1209163" data-name="Group 1209163">
            <g id="Group_1209158" data-name="Group 1209158">
              <rect id="Rectangle_412822" data-name="Rectangle 412822" width="19.381" height="1.979" fill="#bcbec0"/>
              <rect id="Rectangle_412823" data-name="Rectangle 412823" width="19.381" height="1.979" transform="translate(0 4.018)" fill="#bcbec0"/>
            </g>
            <g id="Group_1209159" data-name="Group 1209159" transform="translate(0 10.076)">
              <rect id="Rectangle_412824" data-name="Rectangle 412824" width="19.381" height="1.979" fill="#bcbec0"/>
              <rect id="Rectangle_412825" data-name="Rectangle 412825" width="19.381" height="1.979" transform="translate(0 4.019)" fill="#bcbec0"/>
            </g>
            <g id="Group_1209160" data-name="Group 1209160" transform="translate(0 20.152)">
              <rect id="Rectangle_412826" data-name="Rectangle 412826" width="19.381" height="1.979" fill="#bcbec0"/>
              <rect id="Rectangle_412827" data-name="Rectangle 412827" width="19.381" height="1.979" transform="translate(0 4.018)" fill="#bcbec0"/>
            </g>
            <g id="Group_1209161" data-name="Group 1209161" transform="translate(0 30.227)">
              <rect id="Rectangle_412828" data-name="Rectangle 412828" width="19.381" height="1.979" fill="#bcbec0"/>
              <rect id="Rectangle_412829" data-name="Rectangle 412829" width="19.381" height="1.979" transform="translate(0 4.019)" fill="#bcbec0"/>
            </g>
            <g id="Group_1209162" data-name="Group 1209162" transform="translate(0 40.303)">
              <rect id="Rectangle_412830" data-name="Rectangle 412830" width="19.381" height="1.979" fill="#bcbec0"/>
              <rect id="Rectangle_412831" data-name="Rectangle 412831" width="19.381" height="1.979" transform="translate(0 4.019)" fill="#bcbec0"/>
            </g>
          </g>
          <g id="Group_1209169" data-name="Group 1209169" transform="translate(46.019)">
            <g id="Group_1209164" data-name="Group 1209164">
              <rect id="Rectangle_412832" data-name="Rectangle 412832" width="19.381" height="1.979" fill="#bcbec0"/>
              <rect id="Rectangle_412833" data-name="Rectangle 412833" width="19.381" height="1.979" transform="translate(0 4.018)" fill="#bcbec0"/>
            </g>
            <g id="Group_1209165" data-name="Group 1209165" transform="translate(0 10.076)">
              <rect id="Rectangle_412834" data-name="Rectangle 412834" width="19.381" height="1.979" fill="#bcbec0"/>
              <rect id="Rectangle_412835" data-name="Rectangle 412835" width="19.381" height="1.979" transform="translate(0 4.019)" fill="#bcbec0"/>
            </g>
            <g id="Group_1209166" data-name="Group 1209166" transform="translate(0 20.152)">
              <rect id="Rectangle_412836" data-name="Rectangle 412836" width="19.381" height="1.979" fill="#bcbec0"/>
              <rect id="Rectangle_412837" data-name="Rectangle 412837" width="19.381" height="1.979" transform="translate(0 4.018)" fill="#bcbec0"/>
            </g>
            <g id="Group_1209167" data-name="Group 1209167" transform="translate(0 30.227)">
              <rect id="Rectangle_412838" data-name="Rectangle 412838" width="19.381" height="1.979" fill="#bcbec0"/>
              <rect id="Rectangle_412839" data-name="Rectangle 412839" width="19.381" height="1.979" transform="translate(0 4.019)" fill="#bcbec0"/>
            </g>
            <g id="Group_1209168" data-name="Group 1209168" transform="translate(0 40.303)">
              <rect id="Rectangle_412840" data-name="Rectangle 412840" width="19.381" height="1.979" fill="#bcbec0"/>
              <rect id="Rectangle_412841" data-name="Rectangle 412841" width="19.381" height="1.979" transform="translate(0 4.019)" fill="#bcbec0"/>
            </g>
          </g>
        </g>
        <rect id="Rectangle_412842" data-name="Rectangle 412842" width="65.4" height="1.979" transform="translate(14.535 41.965)" fill="#ec524f"/>
        <g id="Group_1209172" data-name="Group 1209172" transform="translate(19.313 110.299)">
          <g id="Group_1209171" data-name="Group 1209171">
            <path id="Path_1276776" data-name="Path 1276776" d="M143.783,160.256a4.563,4.563,0,0,1-4.548,4.576H92.487a4.562,4.562,0,0,1-4.548-4.576V144.938a4.562,4.562,0,0,1,4.548-4.576h46.748a4.562,4.562,0,0,1,4.548,4.576Z" transform="translate(-87.939 -140.362)" fill="#ec524f"/>
            <path id="Path_1276777" data-name="Path 1276777" d="M107.493,151.1c6.039,2.567,12.916,2.854,19.377,2.415,3.494-.238,7.5-.261,10.712-1.838a17.288,17.288,0,0,0,3.334-2.159v-3.68a3.755,3.755,0,0,0-3.743-3.767H98.7c-.064,0-.126.007-.19.01C99.435,146.419,103.475,149.4,107.493,151.1Z" transform="translate(-87.1 -140.215)" fill="#fff" opacity="0.3"/>
            <path id="Path_1276778" data-name="Path 1276778" d="M123.929,156.168c-8.118.209-16.782-.447-24.053-4.436-4.5-2.47-8.52-6.148-9.634-11.094a4.576,4.576,0,0,0-2.3,3.978v15.318a4.563,4.563,0,0,0,4.548,4.576h46.748a4.563,4.563,0,0,0,4.548-4.576v-8.284C137.986,155.525,130.957,155.988,123.929,156.168Z" transform="translate(-87.939 -140.338)" fill="#e6e7e8"/>
          </g>
        </g>
        <path id="Path_1276779" data-name="Path 1276779" d="M74.822,48.095V191.456h84.158Z" transform="translate(-69.665 -37.986)" fill="#d1d3d4"/>
      </g>
      <g id="Group_1209174" data-name="Group 1209174" transform="translate(170.131 140.709)">
        <path id="Path_1276780" data-name="Path 1276780" d="M162.217,177.675l-19.306-52.4a6.432,6.432,0,1,0-12.208,4.051l17.505,51.7Z" transform="translate(-122.747 -120.828)" fill="#f4bb94"/>
        <path id="Path_1276781" data-name="Path 1276781" d="M181.264,187.592l-17.935-43.64A6.432,6.432,0,1,0,151.121,148l11.13,41.753Z" transform="translate(-121.128 -119.224)" fill="#f4bb94"/>
        <path id="Path_1276782" data-name="Path 1276782" d="M193.819,186.473,178.7,147.5a6.431,6.431,0,1,0-12.207,4.05l11.651,40.106Z" transform="translate(-119.91 -118.919)" fill="#f4bb94"/>
        <path id="Path_1276783" data-name="Path 1276783" d="M209.185,180.715l-14.728-30.149a6.431,6.431,0,1,0-12.208,4.051l9,31.321Z" transform="translate(-118.66 -118.656)" fill="#f4bb94"/>
        <path id="Path_1276784" data-name="Path 1276784" d="M180.61,245.392h40.355l-6.233-19.083c7.007-17,1.014-42.336,1.014-42.336a42.347,42.347,0,0,0-12.927-19.4l-55.5,7.5,6.912,21.162C145.461,175,131.322,170.92,131.322,170.92c-8.539-.269-8.007,8.316-8.007,8.316,6.941,3.116,16.895,18.892,16.895,18.892a103.075,103.075,0,0,0,38.121,39.445Z" transform="translate(-123.308 -117.071)" fill="#f4bb94"/>
      </g>
      <g id="Group_1209176" data-name="Group 1209176" transform="translate(33.616 127.191)">
        <g id="Group_1209175" data-name="Group 1209175">
          <path id="Path_1276785" data-name="Path 1276785" d="M103.751,143.68H36.372l33.689-32.574Z" transform="translate(-30.326 -108.145)" fill="#fff"/>
          <path id="Path_1276786" data-name="Path 1276786" d="M88.269,137.8H49.735L69,122.559Z" transform="translate(-29.267 -107.162)" fill="#d5d7d8"/>
          <rect id="Rectangle_412843" data-name="Rectangle 412843" width="69.281" height="5.035" transform="translate(5.095 33.462)" fill="#d8d9da"/>
          <rect id="Rectangle_412844" data-name="Rectangle 412844" width="69.281" height="2.518" transform="translate(5.095 41.014)" fill="#d8d9da"/>
          <rect id="Rectangle_412845" data-name="Rectangle 412845" width="70.786" height="2.517" transform="translate(4.342 38.497)" fill="#b6b8ba"/>
          <rect id="Rectangle_412846" data-name="Rectangle 412846" width="73.169" height="5.035" transform="translate(3.151 88.58)" fill="#d8d9da"/>
          <rect id="Rectangle_412847" data-name="Rectangle 412847" width="77.41" height="3.352" transform="translate(1.03 95.298)" fill="#d8d9da"/>
          <rect id="Rectangle_412848" data-name="Rectangle 412848" width="74.76" height="3.351" transform="translate(2.355 91.947)" fill="#b6b8ba"/>
          <rect id="Rectangle_412849" data-name="Rectangle 412849" width="10.382" height="37.894" transform="translate(6.997 45.917)" fill="#d8d9da"/>
          <rect id="Rectangle_412850" data-name="Rectangle 412850" width="11.589" height="2.384" transform="translate(6.393 43.533)" fill="#b6b8ba"/>
          <rect id="Rectangle_412851" data-name="Rectangle 412851" width="11.589" height="2.384" transform="translate(6.393 83.811)" fill="#b6b8ba"/>
          <rect id="Rectangle_412852" data-name="Rectangle 412852" width="13.334" height="2.385" transform="translate(5.521 86.196)" fill="#9b9da0"/>
          <path id="Path_1276787" data-name="Path 1276787" d="M70.506,117.263l34.641,29.613,5.094-5.33L70.506,108.38,30.771,141.546l5.1,5.33Z" transform="translate(-30.771 -108.38)" fill="#0a8cbe"/>
          <path id="Path_1276788" data-name="Path 1276788" d="M70.228,116.728l34.641,29.613,1-1.042-35.637-30.68L34.279,144.972l1.309,1.368Z" transform="translate(-30.492 -107.844)" fill="#09769f"/>
          <rect id="Rectangle_412853" data-name="Rectangle 412853" width="0.694" height="35.443" transform="translate(8.018 48.368)" fill="#b6b8ba"/>
          <rect id="Rectangle_412854" data-name="Rectangle 412854" width="0.693" height="35.443" transform="translate(10.707 48.368)" fill="#b6b8ba"/>
          <rect id="Rectangle_412855" data-name="Rectangle 412855" width="0.693" height="35.443" transform="translate(13.395 48.368)" fill="#b6b8ba"/>
          <rect id="Rectangle_412856" data-name="Rectangle 412856" width="0.693" height="35.443" transform="translate(16.084 48.368)" fill="#b6b8ba"/>
          <rect id="Rectangle_412857" data-name="Rectangle 412857" width="10.383" height="37.894" transform="translate(62.518 45.917)" fill="#d8d9da"/>
          <rect id="Rectangle_412858" data-name="Rectangle 412858" width="11.59" height="2.384" transform="translate(61.914 43.533)" fill="#b6b8ba"/>
          <rect id="Rectangle_412859" data-name="Rectangle 412859" width="11.59" height="2.384" transform="translate(61.914 83.811)" fill="#b6b8ba"/>
          <rect id="Rectangle_412860" data-name="Rectangle 412860" width="13.334" height="2.385" transform="translate(61.042 86.196)" fill="#9b9da0"/>
          <rect id="Rectangle_412861" data-name="Rectangle 412861" width="0.694" height="35.443" transform="translate(63.539 48.368)" fill="#b6b8ba"/>
          <rect id="Rectangle_412862" data-name="Rectangle 412862" width="0.694" height="35.443" transform="translate(66.228 48.368)" fill="#b6b8ba"/>
          <rect id="Rectangle_412863" data-name="Rectangle 412863" width="0.694" height="35.443" transform="translate(68.916 48.368)" fill="#b6b8ba"/>
          <rect id="Rectangle_412864" data-name="Rectangle 412864" width="0.693" height="35.443" transform="translate(71.605 48.368)" fill="#b6b8ba"/>
          <rect id="Rectangle_412865" data-name="Rectangle 412865" width="10.383" height="37.894" transform="translate(35.255 45.917)" fill="#d8d9da"/>
          <rect id="Rectangle_412866" data-name="Rectangle 412866" width="11.59" height="2.384" transform="translate(34.652 43.533)" fill="#b6b8ba"/>
          <rect id="Rectangle_412867" data-name="Rectangle 412867" width="11.59" height="2.384" transform="translate(34.652 83.811)" fill="#b6b8ba"/>
          <rect id="Rectangle_412868" data-name="Rectangle 412868" width="13.334" height="2.385" transform="translate(33.78 86.196)" fill="#9b9da0"/>
          <rect id="Rectangle_412869" data-name="Rectangle 412869" width="0.695" height="35.443" transform="translate(36.276 48.368)" fill="#b6b8ba"/>
          <rect id="Rectangle_412870" data-name="Rectangle 412870" width="0.694" height="35.443" transform="translate(38.965 48.368)" fill="#b6b8ba"/>
          <rect id="Rectangle_412871" data-name="Rectangle 412871" width="0.693" height="35.443" transform="translate(41.654 48.368)" fill="#b6b8ba"/>
          <rect id="Rectangle_412872" data-name="Rectangle 412872" width="0.694" height="35.443" transform="translate(44.342 48.368)" fill="#b6b8ba"/>
        </g>
      </g>
    </g>
  </g>
</svg>
