<svg xmlns="http://www.w3.org/2000/svg" xmlns:xlink="http://www.w3.org/1999/xlink" width="88.83" height="85.054" viewBox="0 0 88.83 85.054">
  <defs>
    <clipPath id="clip-path">
      <rect id="Rectangle_413236" data-name="Rectangle 413236" width="78" height="78" transform="translate(387.665 1105.132)" fill="#fff" stroke="#707070" stroke-width="1"/>
    </clipPath>
  </defs>
  <g id="Group_1209845" data-name="Group 1209845" transform="translate(-376.835 -1098.078)">
    <g id="Rectangle_413235" data-name="Rectangle 413235" transform="translate(376.835 1098.078)" fill="#fd9826" stroke="#af6a1a" stroke-width="3">
      <rect width="70" height="70" rx="10" stroke="none"/>
      <rect x="1.5" y="1.5" width="67" height="67" rx="8.5" fill="none"/>
    </g>
    <g id="Mask_Group_1099391" data-name="Mask Group 1099391" clip-path="url(#clip-path)">
      <g id="Layer_x0020_1" transform="translate(387.665 1105.132)">
        <g id="Group_1209822" data-name="Group 1209822">
          <path id="Path_1279633" data-name="Path 1279633" d="M39,68.859A11.578,11.578,0,1,1,50.578,57.281,11.573,11.573,0,0,1,39,68.859Zm-.914-4.57a3.946,3.946,0,0,1-3.047-3.961.914.914,0,0,1,1.828,0,2.041,2.041,0,0,0,1.219,1.98V58.043a3.779,3.779,0,0,1-3.047-3.809,4.071,4.071,0,0,1,3.047-3.961v-.152a.914.914,0,0,1,1.828,0v.152a4.071,4.071,0,0,1,3.047,3.961.914.914,0,0,1-1.828,0,2.041,2.041,0,0,0-1.219-1.98V56.52a3.779,3.779,0,0,1,3.047,3.809,3.946,3.946,0,0,1-3.047,3.961v.152a.914.914,0,0,1-1.828,0Zm1.828-1.98a2.041,2.041,0,0,0,1.219-1.98,2.377,2.377,0,0,0-1.219-1.98ZM38.086,52.254a2.041,2.041,0,0,0-1.219,1.98,2.2,2.2,0,0,0,1.219,1.98ZM29.859,29.707H29.4c0-.152,0-.152-.152-.152V29.4H29.1V29.25h-.152V29.1L26.66,20.109H20.719v-.152h-.3V19.8a1.155,1.155,0,0,1-.609-.3v-.152c-.152,0-.152,0-.152-.152H19.5v-.152l-.152-.152v-.152c-.152,0-.152,0-.152-.152v-.152l-.152-.152V16.3H2.59a.853.853,0,0,0-.762.914V31.992a.853.853,0,0,0,.762.914H8.379a.835.835,0,0,1,.914.609l1.98,7.77,5.789-8.074a1.155,1.155,0,0,1,.609-.3H33.82a.983.983,0,0,0,.914-.914V23.766L30.621,29.4l-.152.152h-.152v.152h-.457ZM19.043,14.473V2.59A2.568,2.568,0,0,1,21.633,0h31.23a2.67,2.67,0,0,1,2.59,2.59V7.008H75.41A2.67,2.67,0,0,1,78,9.6v14.93a2.67,2.67,0,0,1-2.59,2.59H59.719L53.168,36.41a1.164,1.164,0,0,1-.762.3h-.152c-.457,0-.609-.3-.762-.609l-2.285-8.988H44.18a2.7,2.7,0,0,1-2.742-2.59V20.109H37.172l-.609,1.066V31.992a2.731,2.731,0,0,1-2.742,2.742H18.281l-6.7,9.141a.838.838,0,0,1-.762.457h-.152a1.012,1.012,0,0,1-.609-.762L7.617,34.734H2.59A2.7,2.7,0,0,1,0,31.992V17.215a2.7,2.7,0,0,1,2.59-2.742Zm36.41,3.656a.149.149,0,0,1-.152.152v.3l-.152.152v.152c-.152.152-.152.3-.3.3v.152h-.152V19.5h-.152a.149.149,0,0,1-.152.152c-.3.152-.457.3-.762.457H43.266v4.418a.853.853,0,0,0,.914.762h5.637a.966.966,0,0,1,.914.762l1.98,7.617L58.5,25.746a.838.838,0,0,1,.762-.457H75.41a.72.72,0,0,0,.762-.762V9.6a.72.72,0,0,0-.762-.762H55.453v9.293Zm-33.82-16.3a.72.72,0,0,0-.762.762V17.52a.72.72,0,0,0,.762.762h5.789a.532.532,0,0,0,.3.152h.152c0,.152,0,.152.152.152v.152h.152v.3l2.133,7.77,5.637-8.074a.838.838,0,0,1,.762-.457H52.863a.56.56,0,0,0,.457-.152.149.149,0,0,0,.152-.152h.152V2.59a.72.72,0,0,0-.762-.762Zm-2.285,16.91c-.152,0-.152,0-.152-.152Zm-.152-.3-.152-.152Zm36.258-.3a.149.149,0,0,1-.152.152Zm-.152.457-.152.152Zm-.457.609v0Zm-.3.3a.149.149,0,0,1-.152.152ZM29.4,13.254a3.124,3.124,0,0,1-3.2-3.2,3.092,3.092,0,0,1,3.2-3.047,3.056,3.056,0,0,1,3.047,3.047A3.092,3.092,0,0,1,29.4,13.254Zm0-4.418a1.343,1.343,0,0,0-1.371,1.219A1.365,1.365,0,0,0,29.4,11.426a1.343,1.343,0,0,0,1.219-1.371A1.311,1.311,0,0,0,29.4,8.836Zm7.77,4.418a3.092,3.092,0,0,1-3.047-3.2,3.056,3.056,0,0,1,3.047-3.047,3.092,3.092,0,0,1,3.2,3.047A3.124,3.124,0,0,1,37.172,13.254Zm0-4.418a1.311,1.311,0,0,0-1.219,1.219,1.343,1.343,0,0,0,1.219,1.371,1.365,1.365,0,0,0,1.371-1.371A1.343,1.343,0,0,0,37.172,8.836Zm7.922,4.418a3.092,3.092,0,0,1-3.047-3.2,3.056,3.056,0,0,1,3.047-3.047,3.092,3.092,0,0,1,3.2,3.047A3.124,3.124,0,0,1,45.094,13.254Zm0-4.418a1.311,1.311,0,0,0-1.219,1.219,1.343,1.343,0,0,0,1.219,1.371,1.365,1.365,0,0,0,1.371-1.371A1.343,1.343,0,0,0,45.094,8.836ZM41.59,78H36.41a1.691,1.691,0,0,1-1.676-1.676V72.363a12.931,12.931,0,0,1-3.352-1.371l-2.742,2.742a1.854,1.854,0,0,1-2.437,0l-3.656-3.656a1.854,1.854,0,0,1,0-2.437L25.289,64.9a12.931,12.931,0,0,1-1.371-3.352H19.957a1.691,1.691,0,0,1-1.676-1.676v-5.18a1.691,1.691,0,0,1,1.676-1.676h3.961a12.931,12.931,0,0,1,1.371-3.352l-2.742-2.742a1.854,1.854,0,0,1,0-2.437L26.2,40.828a1.854,1.854,0,0,1,2.438,0l2.742,2.742A12.931,12.931,0,0,1,34.734,42.2V38.238a1.691,1.691,0,0,1,1.676-1.676h5.18a1.691,1.691,0,0,1,1.676,1.676V42.2a12.931,12.931,0,0,1,3.352,1.371l2.742-2.742a1.854,1.854,0,0,1,2.438,0l3.656,3.656a1.854,1.854,0,0,1,0,2.438l-2.742,2.742a12.931,12.931,0,0,1,1.371,3.352h3.961a1.691,1.691,0,0,1,1.676,1.676v5.18a1.691,1.691,0,0,1-1.676,1.676H54.082A12.931,12.931,0,0,1,52.711,64.9l2.742,2.742a1.584,1.584,0,0,1,0,2.438L51.8,73.734a1.854,1.854,0,0,1-2.437,0l-2.742-2.742a12.931,12.931,0,0,1-3.352,1.371v3.961A1.691,1.691,0,0,1,41.59,78Zm-5.027-1.828h4.875V71.754a.853.853,0,0,1,.762-.914,14.174,14.174,0,0,0,4.113-1.828.938.938,0,0,1,1.066.152l3.2,3.2,3.5-3.5-3.2-3.2a.938.938,0,0,1-.152-1.066,14.174,14.174,0,0,0,1.828-4.113.853.853,0,0,1,.914-.762h4.418V54.844H53.473a.853.853,0,0,1-.914-.762,14.174,14.174,0,0,0-1.828-4.113.938.938,0,0,1,.152-1.066l3.2-3.2-3.5-3.5-3.2,3.2a.938.938,0,0,1-1.066.152A14.174,14.174,0,0,0,42.2,43.723a.816.816,0,0,1-.762-.762v-4.57H36.563v4.57a.816.816,0,0,1-.762.762,14.174,14.174,0,0,0-4.113,1.828.938.938,0,0,1-1.066-.152l-3.2-3.2-3.5,3.5,3.2,3.2a.938.938,0,0,1,.152,1.066,14.174,14.174,0,0,0-1.828,4.113.853.853,0,0,1-.914.762H20.109v4.875h4.418a.853.853,0,0,1,.914.762,14.174,14.174,0,0,0,1.828,4.113.938.938,0,0,1-.152,1.066l-3.2,3.2,3.5,3.5,3.2-3.2a.938.938,0,0,1,1.066-.152A14.174,14.174,0,0,0,35.8,70.84a.853.853,0,0,1,.762.914ZM39,47.531a9.818,9.818,0,0,0-9.75,9.75,9.75,9.75,0,0,0,19.5,0A9.818,9.818,0,0,0,39,47.531Z" fill-rule="evenodd"/>
        </g>
        <path id="Path_1279634" data-name="Path 1279634" d="M34.125,10.055a3.056,3.056,0,0,1,3.047-3.047,3.092,3.092,0,0,1,3.2,3.047,3.124,3.124,0,0,1-3.2,3.2A3.092,3.092,0,0,1,34.125,10.055ZM30.316,26.813l5.637-8.074a.838.838,0,0,1,.762-.457H52.863a.56.56,0,0,0,.457-.152.791.791,0,0,0,.3-.609V2.59a.72.72,0,0,0-.762-.762H21.633a.72.72,0,0,0-.762.762V17.52a.72.72,0,0,0,.762.762h5.789a.532.532,0,0,0,.3.152h.152c0,.152,0,.152.152.152l.152.457ZM29.4,7.008a3.056,3.056,0,0,1,3.047,3.047,3.092,3.092,0,0,1-3.047,3.2,3.124,3.124,0,0,1-3.2-3.2A3.092,3.092,0,0,1,29.4,7.008Zm15.691,6.246a3.092,3.092,0,0,1-3.047-3.2,3.056,3.056,0,0,1,3.047-3.047,3.092,3.092,0,0,1,3.2,3.047A3.124,3.124,0,0,1,45.094,13.254Z" fill="#259bf5" fill-rule="evenodd"/>
        <path id="Path_1279635" data-name="Path 1279635" d="M20.414,19.8c-.3,0-.609-.457-.914-.609v-.152l-.152-.152v-.152l-.152-.152v-.152l-.152-.152V16.3H2.59a.853.853,0,0,0-.762.914V31.992a.853.853,0,0,0,.762.914H8.379a.835.835,0,0,1,.914.609l1.98,7.77,5.789-8.074a1.155,1.155,0,0,1,.609-.3H33.82a.983.983,0,0,0,.914-.914V23.766L30.621,29.4l-.3.3h-.457a.89.89,0,0,1-.609-.152V29.4H29.1V29.25l-.152-.152L26.66,20.109H21.48A2.108,2.108,0,0,1,20.414,19.8Z" fill="#0078d4" fill-rule="evenodd"/>
        <path id="Path_1279636" data-name="Path 1279636" d="M54.387,19.652c-.3.152-.457.3-.762.457H43.266v4.418a.853.853,0,0,0,.914.762h5.637a.966.966,0,0,1,.914.762l1.98,7.617L58.5,25.746a.838.838,0,0,1,.762-.457H75.41a.72.72,0,0,0,.762-.762V9.6a.72.72,0,0,0-.762-.762H55.453v9.445H55.3v.3l-.152.152c0,.152-.152.3-.3.457v.152h-.152V19.5h-.152Z" fill="#0078d4" fill-rule="evenodd"/>
        <g id="Group_1209823" data-name="Group 1209823">
          <path id="Path_1279637" data-name="Path 1279637" d="M29.4,11.426a1.3,1.3,0,0,0,0-2.59A1.3,1.3,0,1,0,29.4,11.426Z" fill="#e6e6e6" fill-rule="evenodd"/>
          <path id="Path_1279638" data-name="Path 1279638" d="M37.172,8.836a1.3,1.3,0,0,0,0,2.59A1.3,1.3,0,1,0,37.172,8.836Z" fill="#e6e6e6" fill-rule="evenodd"/>
          <path id="Path_1279639" data-name="Path 1279639" d="M45.094,8.836a1.3,1.3,0,0,0,0,2.59A1.3,1.3,0,0,0,45.094,8.836Z" fill="#e6e6e6" fill-rule="evenodd"/>
        </g>
        <path id="Path_1279640" data-name="Path 1279640" d="M41.438,38.391H36.563v4.57a.816.816,0,0,1-.762.762,14.174,14.174,0,0,0-4.113,1.828.938.938,0,0,1-1.066-.152l-3.2-3.2-3.5,3.5,3.2,3.2a.938.938,0,0,1,.152,1.066,14.174,14.174,0,0,0-1.828,4.113.853.853,0,0,1-.914.762H20.109v4.875h4.418a.853.853,0,0,1,.914.762,14.174,14.174,0,0,0,1.828,4.113.938.938,0,0,1-.152,1.066l-3.2,3.2,3.5,3.5,3.2-3.2a.938.938,0,0,1,1.066-.152A14.174,14.174,0,0,0,35.8,70.84a.853.853,0,0,1,.762.914v4.418h4.875V71.754a.853.853,0,0,1,.762-.914,14.174,14.174,0,0,0,4.113-1.828.938.938,0,0,1,1.066.152l3.2,3.2,3.5-3.5-3.2-3.2a.938.938,0,0,1-.152-1.066,14.174,14.174,0,0,0,1.828-4.113.853.853,0,0,1,.914-.762h4.418V54.844H53.473a.853.853,0,0,1-.914-.762,14.174,14.174,0,0,0-1.828-4.113.938.938,0,0,1,.152-1.066l3.2-3.2-3.5-3.5-3.2,3.2a.938.938,0,0,1-1.066.152A14.174,14.174,0,0,0,42.2,43.723a.816.816,0,0,1-.762-.762ZM39,45.7A11.578,11.578,0,1,1,27.422,57.281,11.573,11.573,0,0,1,39,45.7Z" fill="#5c90b9" fill-rule="evenodd"/>
        <path id="Path_1279641" data-name="Path 1279641" d="M39.914,62.309a2.189,2.189,0,0,0,0-3.961Z" fill="#fff" fill-rule="evenodd"/>
        <path id="Path_1279642" data-name="Path 1279642" d="M38.086,56.215V52.254A2.189,2.189,0,0,0,38.086,56.215Z" fill="#fff" fill-rule="evenodd"/>
        <path id="Path_1279643" data-name="Path 1279643" d="M42.961,54.234a.914.914,0,0,1-1.828,0,2.041,2.041,0,0,0-1.219-1.98V56.52a3.779,3.779,0,0,1,3.047,3.809,3.946,3.946,0,0,1-3.047,3.961v.152a.914.914,0,0,1-1.828,0v-.152a3.946,3.946,0,0,1-3.047-3.961.914.914,0,0,1,1.828,0,2.041,2.041,0,0,0,1.219,1.98V58.043a3.779,3.779,0,0,1-3.047-3.809,4.071,4.071,0,0,1,3.047-3.961v-.152a.914.914,0,0,1,1.828,0v.152A4.071,4.071,0,0,1,42.961,54.234Zm5.789,3.047a9.75,9.75,0,0,0-19.5,0,9.75,9.75,0,0,0,19.5,0Z" fill="#fff" fill-rule="evenodd"/>
      </g>
    </g>
  </g>
</svg>
