<svg xmlns="http://www.w3.org/2000/svg" xmlns:xlink="http://www.w3.org/1999/xlink" width="86.846" height="83.141" viewBox="0 0 86.846 83.141">
  <defs>
    <clipPath id="clip-path">
      <rect id="Rectangle_413321" data-name="Rectangle 413321" width="73.833" height="73.833" transform="translate(769.59 2222.681)" fill="#fff" stroke="#707070" stroke-width="1"/>
    </clipPath>
  </defs>
  <g id="Group_1210051" data-name="Group 1210051" transform="translate(-756.577 -2213.373)">
    <g id="Rectangle_413320" data-name="Rectangle 413320" transform="translate(756.577 2213.373)" fill="#fd9826" stroke="#af6a1a" stroke-width="3">
      <rect width="70" height="70" rx="10" stroke="none"/>
      <rect x="1.5" y="1.5" width="67" height="67" rx="8.5" fill="none"/>
    </g>
    <g id="Mask_Group_1099400" data-name="Mask Group 1099400" clip-path="url(#clip-path)">
      <g id="job_2327038" transform="translate(767.129 2220.22)">
        <g id="Group_1210048" data-name="Group 1210048">
          <path id="Path_1250045" data-name="Path 1250045" d="M31.994,13.536H63.989V52.914H31.994Z" fill="#adc4e6"/>
          <path id="Path_1250046" data-name="Path 1250046" d="M27.072,8.614H59.066V47.991H27.072Z" fill="#adc4e6"/>
          <path id="Path_1250047" data-name="Path 1250047" d="M22.15,3.692H54.144V43.069H22.15Z" fill="#adc4e6"/>
        </g>
        <path id="Path_1250048" data-name="Path 1250048" d="M48.722,52.914H63.989V37.647A29.634,29.634,0,0,1,48.722,52.914Z" fill="#99aecc"/>
        <path id="Path_1250049" data-name="Path 1250049" d="M56.567,35.324l2.5-.032-.057-4.419-2.5.032a8.777,8.777,0,0,0-.97-2.261l1.744-1.789L54.12,23.771,52.376,25.56a8.8,8.8,0,0,0-2.285-.912l-.032-2.5-4.419.057.032,2.5a8.777,8.777,0,0,0-2.261.97l-1.789-1.744L38.537,27.1l1.789,1.744a8.8,8.8,0,0,0-.912,2.285l-2.5.032.057,4.419,2.5-.032a8.777,8.777,0,0,0,.97,2.261L38.7,39.594l3.165,3.085,1.744-1.789a8.8,8.8,0,0,0,2.285.912l.032,2.5,4.419-.057-.032-2.5a8.777,8.777,0,0,0,2.261-.97l1.789,1.744,3.085-3.165-1.789-1.744a8.766,8.766,0,0,0,.911-2.285Zm-8.555,1.543a3.7,3.7,0,1,1,3.652-3.747A3.7,3.7,0,0,1,48.012,36.867Z" fill="#526273"/>
        <path id="Path_1250050" data-name="Path 1250050" d="M75.064,67.68,66.45,60.3v3.692H45.53v7.383H66.45v3.692Z" fill="#ff8088"/>
        <path id="Path_1250051" data-name="Path 1250051" d="M16,57.836H8.614a4.922,4.922,0,0,0-4.922,4.922V75.064H20.919V62.758A4.922,4.922,0,0,0,16,57.836Z" fill="#cfcfcf"/>
        <path id="Path_1250052" data-name="Path 1250052" d="M3.692,75.064H20.919V63.189A18.448,18.448,0,0,1,3.692,75.064Z" fill="#bfbfbf"/>
        <path id="Path_1250053" data-name="Path 1250053" d="M12.306,57.836,9.844,66.45l2.461,3.692,2.461-3.692Z" fill="#759acc"/>
        <path id="Path_1250054" data-name="Path 1250054" d="M18.458,51.683a3.911,3.911,0,0,1-.062.763,6.137,6.137,0,0,1-12.182,0,3.911,3.911,0,0,1-.062-.763,6.153,6.153,0,0,1,12.306,0Z" fill="#ffdbac"/>
        <path id="Path_1250055" data-name="Path 1250055" d="M12.306,45.53a6.155,6.155,0,0,0-6.153,6.153,3.911,3.911,0,0,0,.062.763,7.366,7.366,0,0,1,12.182,0,3.911,3.911,0,0,0,.062-.763A6.155,6.155,0,0,0,12.306,45.53Z" fill="#526273"/>
        <path id="Path_1250056" data-name="Path 1250056" d="M65.219,62.758H45.53A1.23,1.23,0,0,0,44.3,63.989v7.383A1.23,1.23,0,0,0,45.53,72.6H65.219v2.461A1.23,1.23,0,0,0,67.25,76l8.614-7.383a1.228,1.228,0,0,0,0-1.868L67.25,59.363a1.23,1.23,0,0,0-2.03.934Zm1.231,2.461a1.23,1.23,0,0,0,1.231-1.231V62.972l5.493,4.708L67.68,72.388V71.372a1.23,1.23,0,0,0-1.231-1.231H46.761V65.219Z"/>
        <path id="Path_1250057" data-name="Path 1250057" d="M47.962,38.1h.066A4.933,4.933,0,0,0,52.9,33.1,4.975,4.975,0,0,0,47.9,28.236a4.931,4.931,0,0,0,.06,9.862ZM46.2,31.443a2.452,2.452,0,0,1,1.736-.746h.032A2.47,2.47,0,0,1,48,35.637a2.577,2.577,0,0,1-1.755-.7,2.472,2.472,0,0,1-.046-3.494Z"/>
        <path id="Path_1250058" data-name="Path 1250058" d="M36.973,36.806h.016l1.594-.021q.157.412.347.808l-1.111,1.141a1.229,1.229,0,0,0,.022,1.74L41,43.558a1.29,1.29,0,0,0,.875.349,1.223,1.223,0,0,0,.865-.372l1.111-1.141c.268.121.54.229.818.326l.02,1.594a1.233,1.233,0,0,0,1.229,1.216h.016l4.419-.057a1.23,1.23,0,0,0,1.215-1.247l-.021-1.594c.276-.1.544-.219.808-.346L53.5,43.4a1.3,1.3,0,0,0,.875.349,1.223,1.223,0,0,0,.865-.372l3.085-3.165a1.232,1.232,0,0,0-.022-1.741L57.162,37.36c.121-.267.23-.54.326-.817l1.594-.021A1.23,1.23,0,0,0,60.3,35.275l-.057-4.418a1.216,1.216,0,0,0-1.247-1.215l-1.594.021q-.157-.412-.347-.808l1.111-1.141a1.229,1.229,0,0,0-.022-1.74l-3.164-3.084a1.159,1.159,0,0,0-.875-.349,1.223,1.223,0,0,0-.865.372l-1.111,1.141c-.268-.121-.54-.229-.818-.326l-.02-1.594a1.228,1.228,0,0,0-.372-.865,1.14,1.14,0,0,0-.875-.349l-4.419.057a1.23,1.23,0,0,0-1.215,1.247l.021,1.594c-.276.1-.544.219-.808.346L42.48,23.051A1.163,1.163,0,0,0,41.6,22.7a1.223,1.223,0,0,0-.865.372l-3.085,3.165a1.232,1.232,0,0,0,.022,1.741l1.142,1.111c-.121.267-.23.54-.326.817l-1.594.021a1.23,1.23,0,0,0-1.215,1.247l.057,4.418a1.232,1.232,0,0,0,1.232,1.213Zm2.459-4.451a1.229,1.229,0,0,0,1.18-.94,7.509,7.509,0,0,1,.784-1.964,1.231,1.231,0,0,0-.209-1.493l-.908-.885,1.366-1.4.908.886a1.234,1.234,0,0,0,1.5.17A7.591,7.591,0,0,1,46,25.892a1.231,1.231,0,0,0,.907-1.2l-.016-1.269,1.958-.026.016,1.269a1.23,1.23,0,0,0,.939,1.18,7.543,7.543,0,0,1,1.965.784,1.231,1.231,0,0,0,1.494-.208l.886-.908,1.4,1.366-.885.908a1.231,1.231,0,0,0-.171,1.5,7.582,7.582,0,0,1,.834,1.944,1.227,1.227,0,0,0,1.2.908l1.269-.016.026,1.958-1.269.016a1.229,1.229,0,0,0-1.18.94A7.509,7.509,0,0,1,54.59,37a1.231,1.231,0,0,0,.209,1.493l.908.885-1.366,1.4-.908-.886a1.233,1.233,0,0,0-1.5-.17,7.591,7.591,0,0,1-1.943.834,1.231,1.231,0,0,0-.907,1.2l.016,1.269-1.958.026-.016-1.269a1.23,1.23,0,0,0-.939-1.18,7.543,7.543,0,0,1-1.965-.784,1.23,1.23,0,0,0-1.494.208l-.886.908-1.4-1.366.885-.908a1.231,1.231,0,0,0,.171-1.5,7.582,7.582,0,0,1-.834-1.944,1.23,1.23,0,0,0-1.187-.908h-.016l-1.269.016-.026-1.958Z"/>
        <path id="Path_1250059" data-name="Path 1250059" d="M22.15,44.3h3.692v3.692a1.23,1.23,0,0,0,1.231,1.231h3.692v3.692a1.23,1.23,0,0,0,1.231,1.231H63.989a1.23,1.23,0,0,0,1.231-1.231V13.536a1.23,1.23,0,0,0-1.231-1.231H60.3V8.614a1.23,1.23,0,0,0-1.231-1.231H55.375V3.692a1.23,1.23,0,0,0-1.231-1.231H22.15a1.23,1.23,0,0,0-1.231,1.231V43.069A1.23,1.23,0,0,0,22.15,44.3ZM62.758,14.767V51.683H33.225V14.767ZM57.836,9.844v2.461H31.994a1.23,1.23,0,0,0-1.231,1.231V46.761H28.3V9.844ZM23.38,4.922H52.914V7.383H27.072a1.23,1.23,0,0,0-1.231,1.231V41.839H23.38Z"/>
        <path id="Path_1250060" data-name="Path 1250060" d="M3.692,76.294H20.919a1.23,1.23,0,0,0,1.231-1.231V62.758a6.145,6.145,0,0,0-4.579-5.923A7.086,7.086,0,0,0,19.6,52.688a5.149,5.149,0,0,0,.085-1.005,7.383,7.383,0,0,0-14.767,0,4.664,4.664,0,0,0,.07.907,7.259,7.259,0,0,0,2.059,4.242,6.146,6.146,0,0,0-4.59,5.926V75.064A1.23,1.23,0,0,0,3.692,76.294Zm8.614-29.533a4.91,4.91,0,0,1,4.153,2.306,8.556,8.556,0,0,0-8.306,0A4.91,4.91,0,0,1,12.306,46.761Zm0,3.692a6.108,6.108,0,0,1,4.773,2.3,4.88,4.88,0,0,1-9.544,0A6.11,6.11,0,0,1,12.306,50.453Zm1.121,15.788-1.121,1.682-1.121-1.682,1.121-3.925Zm-8.5-3.482a3.7,3.7,0,0,1,3.692-3.692h2.06L8.661,66.111a1.235,1.235,0,0,0,.16,1.021l2.461,3.692a1.231,1.231,0,0,0,2.048,0l2.461-3.692a1.233,1.233,0,0,0,.16-1.021l-2.013-7.045H16a3.7,3.7,0,0,1,3.692,3.692V73.833H4.922Z"/>
      </g>
    </g>
  </g>
</svg>
