<svg xmlns="http://www.w3.org/2000/svg" xmlns:xlink="http://www.w3.org/1999/xlink" width="88.83" height="85.054" viewBox="0 0 88.83 85.054">
  <defs>
    <clipPath id="clip-path">
      <rect id="Rectangle_413287" data-name="Rectangle 413287" width="78" height="78" transform="translate(397 8139.383)" fill="#fff" stroke="#707070" stroke-width="1"/>
    </clipPath>
  </defs>
  <g id="Group_1209992" data-name="Group 1209992" transform="translate(-386.17 -8132.329)">
    <g id="Rectangle_413286" data-name="Rectangle 413286" transform="translate(386.17 8132.329)" fill="#fd9826" stroke="#af6a1a" stroke-width="3">
      <rect width="70" height="70" rx="10" stroke="none"/>
      <rect x="1.5" y="1.5" width="67" height="67" rx="8.5" fill="none"/>
    </g>
    <g id="Mask_Group_1099387" data-name="Mask Group 1099387" clip-path="url(#clip-path)">
      <g id="checking_2452654" transform="translate(395.742 8138.125)">
        <g id="Group_1209990" data-name="Group 1209990">
          <g id="Group_1209977" data-name="Group 1209977">
            <path id="Path_1249866" data-name="Path 1249866" d="M6.29,10.064H31.451V15.1H6.29Z" fill="#ffeaa7"/>
          </g>
          <g id="Group_1209978" data-name="Group 1209978">
            <path id="Path_1249867" data-name="Path 1249867" d="M6.29,22.645H26.935a20.144,20.144,0,0,0-4.114,5.032H6.29Z" fill="#ffeaa7"/>
          </g>
          <g id="Group_1209979" data-name="Group 1209979">
            <path id="Path_1249868" data-name="Path 1249868" d="M35.225,5.032V7.548a2.523,2.523,0,0,1-2.516,2.516H5.032A2.523,2.523,0,0,1,2.516,7.548V5.032A2.523,2.523,0,0,1,5.032,2.516H32.709A2.523,2.523,0,0,1,35.225,5.032Z" fill="#ff826e"/>
          </g>
          <g id="Group_1209980" data-name="Group 1209980">
            <path id="Path_1249869" data-name="Path 1249869" d="M32.709,15.1a2.523,2.523,0,0,1,2.516,2.516v.629a20.048,20.048,0,0,0-8.278,4.4s-.013-.013-.013,0H5.032a2.523,2.523,0,0,1-2.516-2.516V17.613A2.523,2.523,0,0,1,5.032,15.1H32.709Z" fill="#ff826e"/>
          </g>
          <g id="Group_1209981" data-name="Group 1209981">
            <path id="Path_1249870" data-name="Path 1249870" d="M6.29,27.677H22.821a19.952,19.952,0,0,0-2.541,7.548H5.032a2.523,2.523,0,0,1-2.516-2.516V30.193a2.523,2.523,0,0,1,2.516-2.516Z" fill="#ff826e"/>
          </g>
          <g id="Group_1209982" data-name="Group 1209982">
            <path id="Path_1249871" data-name="Path 1249871" d="M60.386,37.741a20.129,20.129,0,0,1-.629,5.032L57.87,47.491a20.155,20.155,0,0,1-5.032,5.963V78h15.1V67.934H78V37.741Z" fill="#f0d0b4"/>
          </g>
          <g id="Group_1209983" data-name="Group 1209983">
            <path id="Path_1249872" data-name="Path 1249872" d="M72.967,42.774V52.838H57.87V47.491c.013,0,0-.013,0-.013a19.9,19.9,0,0,0,1.887-4.705Z" fill="#e6e9ed"/>
          </g>
          <g id="Group_1209984" data-name="Group 1209984">
            <path id="Path_1249873" data-name="Path 1249873" d="M57.87,67.934H62.9v5.032H57.87Z" fill="#e6e9ed"/>
          </g>
          <g id="Group_1209985" data-name="Group 1209985">
            <path id="Path_1249874" data-name="Path 1249874" d="M78,67.934,67.934,78V67.934Z" fill="#b4dd7f"/>
          </g>
          <g id="Group_1209986" data-name="Group 1209986">
            <path id="Path_1249875" data-name="Path 1249875" d="M42.774,62.9a2.523,2.523,0,0,1,2.516,2.516v7.548a5.032,5.032,0,0,1-10.064,0V65.418A2.523,2.523,0,0,1,37.741,62.9h5.032Z" fill="#969faa"/>
          </g>
          <g id="Group_1209987" data-name="Group 1209987">
            <path id="Path_1249876" data-name="Path 1249876" d="M44.032,57.518v2.868A2.515,2.515,0,0,1,41.515,62.9H39a2.515,2.515,0,0,1-2.516-2.516V57.518a20.395,20.395,0,0,0,7.548,0Z" fill="#ccd1d9"/>
          </g>
          <g id="Group_1209988" data-name="Group 1209988">
            <path id="Path_1249877" data-name="Path 1249877" d="M59.757,42.774a19.9,19.9,0,0,1-1.887,4.705s.013.013,0,.013A20.166,20.166,0,0,1,44.032,57.518a20.395,20.395,0,0,1-7.548,0A20.126,20.126,0,0,1,20.129,37.741a20.788,20.788,0,0,1,.151-2.516,20.17,20.17,0,0,1,6.655-12.58c0-.013.013,0,.013,0a20.144,20.144,0,0,1,32.81,20.129Z" fill="#fcd770"/>
          </g>
          <g id="Group_1209989" data-name="Group 1209989">
            <circle id="Ellipse_12711" data-name="Ellipse 12711" cx="15.097" cy="15.097" r="15.097" transform="translate(25.161 22.645)" fill="#69d6f4"/>
          </g>
        </g>
        <g id="Group_1209991" data-name="Group 1209991">
          <path id="Path_1249878" data-name="Path 1249878" d="M56.612,37.741A16.355,16.355,0,1,0,40.257,54.1,16.373,16.373,0,0,0,56.612,37.741Zm-30.193,0A13.838,13.838,0,1,1,40.257,51.58,13.855,13.855,0,0,1,26.419,37.741Z"/>
          <path id="Path_1249879" data-name="Path 1249879" d="M48.174,30.562,36.483,42.253,32.341,38.11l-1.779,1.779,5.922,5.922,13.47-13.47Z"/>
          <path id="Path_1249880" data-name="Path 1249880" d="M61.58,36.483A21.279,21.279,0,0,0,36.368,16.727a3.773,3.773,0,0,0-3.658-2.888V11.322a3.779,3.779,0,0,0,3.774-3.774V5.032a3.779,3.779,0,0,0-3.774-3.774H5.032A3.779,3.779,0,0,0,1.258,5.032V7.548a3.779,3.779,0,0,0,3.774,3.774v2.516a3.779,3.779,0,0,0-3.774,3.774v2.516A3.779,3.779,0,0,0,5.032,23.9v2.516a3.779,3.779,0,0,0-3.774,3.774v2.516a3.779,3.779,0,0,0,3.774,3.774h13.9c-.025.419-.064.833-.064,1.258A21.406,21.406,0,0,0,35.225,58.505v1.882a3.733,3.733,0,0,0,.5,1.851,3.766,3.766,0,0,0-1.763,3.182v7.548a6.29,6.29,0,0,0,12.58,0V65.42a3.766,3.766,0,0,0-1.763-3.182,3.733,3.733,0,0,0,.5-1.851V58.505a21.219,21.219,0,0,0,6.29-2.653v23.4H68.455l10.8-10.8V36.483Zm-2.452,11.3A21.247,21.247,0,0,0,60.7,44.032H71.709V51.58H59.128ZM3.774,7.548V5.032A1.259,1.259,0,0,1,5.032,3.774H32.709a1.259,1.259,0,0,1,1.258,1.258V7.548a1.259,1.259,0,0,1-1.258,1.258H5.032A1.259,1.259,0,0,1,3.774,7.548Zm3.774,3.774H30.193v2.516H7.548ZM3.774,20.129V17.613a1.259,1.259,0,0,1,1.258-1.258H32.709a1.241,1.241,0,0,1,1.2.962,21.34,21.34,0,0,0-7.4,4.07H5.032A1.259,1.259,0,0,1,3.774,20.129ZM7.548,23.9H23.981a21.516,21.516,0,0,0-1.834,2.516H7.548ZM5.032,33.967a1.259,1.259,0,0,1-1.258-1.258V30.193a1.259,1.259,0,0,1,1.258-1.258H20.79a21.2,21.2,0,0,0-1.565,5.032Zm16.355,3.774A18.871,18.871,0,1,1,40.257,56.612,18.892,18.892,0,0,1,21.387,37.741ZM44.032,72.968a3.774,3.774,0,1,1-7.548,0V65.42a1.259,1.259,0,0,1,1.258-1.258h5.032a1.259,1.259,0,0,1,1.258,1.258Zm-1.258-12.58a1.259,1.259,0,0,1-1.258,1.258H39a1.259,1.259,0,0,1-1.258-1.258v-1.42a19.738,19.738,0,0,0,5.032,0ZM54.1,54.018a21.569,21.569,0,0,0,2.516-2.524v2.6H74.225V41.515H61.291A21.467,21.467,0,0,0,61.581,39H76.741V66.676H66.676V76.741H54.1ZM74.962,69.192l-5.769,5.769V69.192Z"/>
          <path id="Path_1249881" data-name="Path 1249881" d="M56.612,56.612H74.225v2.516H56.612Z"/>
          <path id="Path_1249882" data-name="Path 1249882" d="M56.612,61.644H74.225V64.16H56.612Z"/>
          <path id="Path_1249883" data-name="Path 1249883" d="M56.612,66.676v7.548H64.16V66.676Zm5.032,5.032H59.128V69.192h2.516Z"/>
          <path id="Path_1249884" data-name="Path 1249884" d="M6.29,57.87H23.9v2.516H6.29Z"/>
          <path id="Path_1249885" data-name="Path 1249885" d="M6.29,62.9H23.9v2.516H6.29Z"/>
          <path id="Path_1249886" data-name="Path 1249886" d="M21.387,67.934H23.9V70.45H21.387Z"/>
          <path id="Path_1249887" data-name="Path 1249887" d="M11.322,67.934h2.516V70.45H11.322Z"/>
          <path id="Path_1249888" data-name="Path 1249888" d="M6.29,67.934H8.806V70.45H6.29Z"/>
          <path id="Path_1249889" data-name="Path 1249889" d="M16.355,67.934h2.516V70.45H16.355Z"/>
        </g>
      </g>
    </g>
  </g>
</svg>
