<svg xmlns="http://www.w3.org/2000/svg" xmlns:xlink="http://www.w3.org/1999/xlink" width="88.83" height="85.054" viewBox="0 0 88.83 85.054">
  <defs>
    <clipPath id="clip-path">
      <rect id="Rectangle_413240" data-name="Rectangle 413240" width="78" height="78" transform="translate(1122.416 1101.132)" fill="#fff" stroke="#707070" stroke-width="1"/>
    </clipPath>
  </defs>
  <g id="Group_1209847" data-name="Group 1209847" transform="translate(-1111.585 -1094.078)">
    <g id="Rectangle_413239" data-name="Rectangle 413239" transform="translate(1111.585 1094.078)" fill="#fd9826" stroke="#af6a1a" stroke-width="3">
      <rect width="70" height="70" rx="10" stroke="none"/>
      <rect x="1.5" y="1.5" width="67" height="67" rx="8.5" fill="none"/>
    </g>
    <g id="Mask_Group_1099389" data-name="Mask Group 1099389" clip-path="url(#clip-path)">
      <g id="pros-cons_2856864" transform="translate(1121.157 1099.874)">
        <g id="Group_1209811" data-name="Group 1209811">
          <g id="Group_1209800" data-name="Group 1209800">
            <path id="Path_1279580" data-name="Path 1279580" d="M35.226,2.516H5.032A2.524,2.524,0,0,0,2.516,5.032V42.774A2.524,2.524,0,0,0,5.032,45.29H16.355l7.033,7.033a1.779,1.779,0,0,0,3.032-1.258V45.29h8.806a2.524,2.524,0,0,0,2.516-2.516V5.032A2.524,2.524,0,0,0,35.226,2.516Z" fill="#e6e9ed"/>
          </g>
          <g id="Group_1209801" data-name="Group 1209801">
            <path id="Path_1279581" data-name="Path 1279581" d="M75.484,2.516H45.29a2.524,2.524,0,0,0-2.516,2.516V42.774A2.524,2.524,0,0,0,45.29,45.29H54.1v5.775a1.779,1.779,0,0,0,3.032,1.258l7.033-7.033H75.484A2.524,2.524,0,0,0,78,42.774V5.032A2.524,2.524,0,0,0,75.484,2.516Z" fill="#e6e9ed"/>
          </g>
          <g id="Group_1209802" data-name="Group 1209802">
            <circle id="Ellipse_12719" data-name="Ellipse 12719" cx="8.806" cy="8.806" r="8.806" transform="translate(7.548 22.645)" fill="#b4dd7f"/>
          </g>
          <g id="Group_1209803" data-name="Group 1209803">
            <circle id="Ellipse_12720" data-name="Ellipse 12720" cx="8.806" cy="8.806" r="8.806" transform="translate(47.806 22.645)" fill="#b4dd7f"/>
          </g>
          <g id="Group_1209804" data-name="Group 1209804">
            <path id="Path_1279582" data-name="Path 1279582" d="M12.581,65.419v7.548l-9-5.624a2.267,2.267,0,0,1,0-3.85l9-5.624Z" fill="#aab2bd"/>
          </g>
          <g id="Group_1209805" data-name="Group 1209805">
            <path id="Path_1279583" data-name="Path 1279583" d="M75.786,60.085A7.478,7.478,0,0,1,78,65.419a7.554,7.554,0,0,1-7.548,7.548H65.419v-15.1h5.032A7.478,7.478,0,0,1,75.786,60.085Z" fill="#aab2bd"/>
          </g>
          <g id="Group_1209806" data-name="Group 1209806">
            <path id="Path_1279584" data-name="Path 1279584" d="M30.206,72.968H12.581V65.419h15.1A12.5,12.5,0,0,0,30.206,72.968Z" fill="#4fc1e9"/>
          </g>
          <g id="Group_1209807" data-name="Group 1209807">
            <path id="Path_1279585" data-name="Path 1279585" d="M65.419,65.419v7.548H50.31a12.5,12.5,0,0,0,2.529-7.548Z" fill="#4fc1e9"/>
          </g>
          <g id="Group_1209808" data-name="Group 1209808">
            <path id="Path_1279586" data-name="Path 1279586" d="M12.581,57.871H30.206a12.5,12.5,0,0,0-2.529,7.548h-15.1Z" fill="#ff826e"/>
          </g>
          <g id="Group_1209809" data-name="Group 1209809">
            <path id="Path_1279587" data-name="Path 1279587" d="M65.419,57.871v7.548H52.839a12.5,12.5,0,0,0-2.529-7.548Z" fill="#ff826e"/>
          </g>
          <g id="Group_1209810" data-name="Group 1209810">
            <path id="Path_1279588" data-name="Path 1279588" d="M50.31,57.871a12.556,12.556,0,1,1-10.052-5.032A12.5,12.5,0,0,1,50.31,57.871Z" fill="#fcd770"/>
          </g>
        </g>
        <g id="Group_1209812" data-name="Group 1209812">
          <path id="Path_1279589" data-name="Path 1279589" d="M41.516,61.645A1.26,1.26,0,0,1,42.774,62.9H45.29a3.779,3.779,0,0,0-3.774-3.774V56.613H39v2.516H35.226V62.9A3.779,3.779,0,0,0,39,66.677h2.516a1.26,1.26,0,0,1,1.258,1.258v1.258H39a1.26,1.26,0,0,1-1.258-1.258H35.226A3.779,3.779,0,0,0,39,71.71v2.516h2.516V71.71H45.29V67.935a3.779,3.779,0,0,0-3.774-3.774H39A1.26,1.26,0,0,1,37.742,62.9V61.645Z"/>
          <path id="Path_1279590" data-name="Path 1279590" d="M70.452,56.613H50.925a13.822,13.822,0,0,0-21.334,0H12.22l-9.3,5.815a3.528,3.528,0,0,0,0,5.983l9.3,5.815H29.591a13.822,13.822,0,0,0,21.334,0H70.452a8.806,8.806,0,0,0,0-17.613Zm-6.29,2.516v5.032H54.033a13.713,13.713,0,0,0-1.464-5.032ZM26.484,64.161H13.839V59.129H27.947A13.711,13.711,0,0,0,26.484,64.161ZM3.774,65.419a1,1,0,0,1,.476-.858l7.073-4.421V70.7L4.25,66.277a1,1,0,0,1-.476-.858Zm10.065,6.29V66.677H26.484a13.713,13.713,0,0,0,1.464,5.032Zm26.419,5.032A11.323,11.323,0,1,1,51.581,65.419,11.336,11.336,0,0,1,40.258,76.742ZM54.033,66.677H64.161V71.71H52.569a13.711,13.711,0,0,0,1.463-5.032ZM70.452,71.71H66.677V59.129h3.774a6.29,6.29,0,0,1,0,12.581Z"/>
          <path id="Path_1279591" data-name="Path 1279591" d="M75.484,1.258H45.29a3.779,3.779,0,0,0-3.774,3.774V42.774a3.779,3.779,0,0,0,3.774,3.774h7.548V51.06a3.037,3.037,0,0,0,5.184,2.148l6.659-6.659h10.8a3.779,3.779,0,0,0,3.774-3.774V5.032A3.779,3.779,0,0,0,75.484,1.258Zm1.258,41.516a1.26,1.26,0,0,1-1.258,1.258H63.64l-7.4,7.4a.541.541,0,0,1-.889-.369V44.032H45.29a1.26,1.26,0,0,1-1.258-1.258V5.032A1.26,1.26,0,0,1,45.29,3.774H75.484a1.26,1.26,0,0,1,1.258,1.258Z"/>
          <path id="Path_1279592" data-name="Path 1279592" d="M56.613,21.387A10.065,10.065,0,1,0,66.677,31.452,10.076,10.076,0,0,0,56.613,21.387Zm0,17.613a7.548,7.548,0,1,1,7.548-7.548A7.556,7.556,0,0,1,56.613,39Z"/>
          <path id="Path_1279593" data-name="Path 1279593" d="M16.355,41.516A10.065,10.065,0,1,0,6.29,31.452,10.076,10.076,0,0,0,16.355,41.516Zm0-17.613a7.548,7.548,0,1,1-7.548,7.548A7.556,7.556,0,0,1,16.355,23.9Z"/>
          <path id="Path_1279594" data-name="Path 1279594" d="M5.032,46.548h10.8l6.659,6.659a3.037,3.037,0,0,0,5.184-2.148V46.548h7.548A3.779,3.779,0,0,0,39,42.774V5.032a3.779,3.779,0,0,0-3.774-3.774H5.032A3.779,3.779,0,0,0,1.258,5.032V42.774a3.779,3.779,0,0,0,3.774,3.774ZM3.774,5.032A1.26,1.26,0,0,1,5.032,3.774H35.226a1.26,1.26,0,0,1,1.258,1.258V42.774a1.26,1.26,0,0,1-1.258,1.258H25.161V51.06a.541.541,0,0,1-.889.369l-7.4-7.4H5.032a1.26,1.26,0,0,1-1.258-1.258Z"/>
          <path id="Path_1279595" data-name="Path 1279595" d="M59.5,26.788l-2.885,2.885-2.885-2.885-1.779,1.779,2.885,2.885-2.885,2.885,1.779,1.779,2.885-2.885L59.5,36.115l1.779-1.779-2.885-2.885,2.885-2.885Z"/>
          <path id="Path_1279596" data-name="Path 1279596" d="M46.548,6.29h2.516V8.806H46.548Z"/>
          <path id="Path_1279597" data-name="Path 1279597" d="M51.581,6.29H74.226V8.806H51.581Z"/>
          <path id="Path_1279598" data-name="Path 1279598" d="M46.548,11.323H74.226v2.516H46.548Z"/>
          <path id="Path_1279599" data-name="Path 1279599" d="M46.548,16.355H74.226v2.516H46.548Z"/>
          <path id="Path_1279600" data-name="Path 1279600" d="M69.194,21.387h5.032V23.9H69.194Z"/>
          <path id="Path_1279601" data-name="Path 1279601" d="M69.194,26.419h5.032v2.516H69.194Z"/>
          <path id="Path_1279602" data-name="Path 1279602" d="M69.194,31.452h5.032v2.516H69.194Z"/>
          <path id="Path_1279603" data-name="Path 1279603" d="M69.194,36.484h5.032V39H69.194Z"/>
          <path id="Path_1279604" data-name="Path 1279604" d="M6.29,6.29H8.806V8.806H6.29Z"/>
          <path id="Path_1279605" data-name="Path 1279605" d="M11.323,6.29H33.968V8.806H11.323Z"/>
          <path id="Path_1279606" data-name="Path 1279606" d="M6.29,11.323H33.968v2.516H6.29Z"/>
          <path id="Path_1279607" data-name="Path 1279607" d="M21.018,29.825,19.24,28.046l-5.4,5.4L12.212,31.82,10.433,33.6,13.839,37Z"/>
          <path id="Path_1279608" data-name="Path 1279608" d="M11.323,16.355h2.516v2.516H11.323Z"/>
          <path id="Path_1279609" data-name="Path 1279609" d="M6.29,16.355H8.806v2.516H6.29Z"/>
          <path id="Path_1279610" data-name="Path 1279610" d="M16.355,16.355H33.968v2.516H16.355Z"/>
          <path id="Path_1279611" data-name="Path 1279611" d="M28.935,21.387h5.032V23.9H28.935Z"/>
          <path id="Path_1279612" data-name="Path 1279612" d="M28.935,26.419h5.032v2.516H28.935Z"/>
          <path id="Path_1279613" data-name="Path 1279613" d="M28.935,31.452h5.032v2.516H28.935Z"/>
          <path id="Path_1279614" data-name="Path 1279614" d="M28.935,36.484h5.032V39H28.935Z"/>
        </g>
      </g>
    </g>
  </g>
</svg>
