<svg xmlns="http://www.w3.org/2000/svg" xmlns:xlink="http://www.w3.org/1999/xlink" width="88.83" height="85.054" viewBox="0 0 88.83 85.054">
  <defs>
    <clipPath id="clip-path">
      <rect id="Rectangle_413232" data-name="Rectangle 413232" width="78" height="78" transform="translate(771.83 12698.628)" fill="#fff" stroke="#707070" stroke-width="1"/>
    </clipPath>
  </defs>
  <g id="Group_1209843" data-name="Group 1209843" transform="translate(-761 -12691.574)">
    <g id="Rectangle_413231" data-name="Rectangle 413231" transform="translate(761 12691.574)" fill="#fd9826" stroke="#af6a1a" stroke-width="3">
      <rect width="70" height="70" rx="10" stroke="none"/>
      <rect x="1.5" y="1.5" width="67" height="67" rx="8.5" fill="none"/>
    </g>
    <g id="Mask_Group_1099393" data-name="Mask Group 1099393" clip-path="url(#clip-path)">
      <g id="monitor-money-invoice-financial" transform="translate(769.23 12696.028)">
        <path id="Path_1279667" data-name="Path 1279667" d="M24.7,57.2H49.4v6.5H24.7Z" fill="#8e95a3"/>
        <path id="Path_1279668" data-name="Path 1279668" d="M33.8,49.4h7.8v7.8H33.8Z" fill="#b7c1cd"/>
        <rect id="Rectangle_413241" data-name="Rectangle 413241" width="67.6" height="44.2" rx="2.6" transform="translate(3.9 5.2)" fill="#2488ff"/>
        <path id="Path_1279669" data-name="Path 1279669" d="M54.6,74.1,45.5,78l-1.3-3.9,1.3-3.9Z" fill="#8e95a3"/>
        <path id="Path_1279670" data-name="Path 1279670" d="M45.5,70.2l-1.3,3.9L45.5,78H16.9V70.2Z" fill="#e9656c"/>
        <path id="Path_1279671" data-name="Path 1279671" d="M11.7,70.2V78H7.8a3.9,3.9,0,0,1,0-7.8Z" fill="#ececec"/>
        <path id="Path_1279672" data-name="Path 1279672" d="M11.7,70.2h5.2V78H11.7Z" fill="#8e95a3"/>
        <path id="Path_1279673" data-name="Path 1279673" d="M79.3,61.1v3.25a3.25,3.25,0,0,1-3.25,3.25H52.65a3.24,3.24,0,0,0,3.25-3.25V61.1Z" fill="#f2ac4c"/>
        <path id="Path_1279674" data-name="Path 1279674" d="M74.1,40.3V61.1H55.9v3.25a3.25,3.25,0,1,1-6.5,0V40.95a3.25,3.25,0,0,0-3.055-3.25H71.5A2.608,2.608,0,0,1,74.1,40.3Z" fill="#f7d880"/>
        <path id="Path_1279675" data-name="Path 1279675" d="M49.4,40.95V52H41.6v-.65a2.653,2.653,0,0,0,.351-.3,3.25,3.25,0,0,0,.949-2.3V41.158A3.414,3.414,0,0,1,46.176,37.7h.169A3.25,3.25,0,0,1,49.4,40.95Z" fill="#f2ac4c"/>
        <path id="Path_1279676" data-name="Path 1279676" d="M41.6,51.35a3.25,3.25,0,0,1-5.135-1.95,3.554,3.554,0,0,1-.065-.65V28.6H65v9.1H46.176A3.414,3.414,0,0,0,42.9,41.158V48.75a3.25,3.25,0,0,1-.949,2.3A2.653,2.653,0,0,1,41.6,51.35Z" fill="#f7d880"/>
        <path id="Path_1279677" data-name="Path 1279677" d="M36.4,11.7H65V22.1H36.4Z" fill="#64c1f7"/>
        <circle id="Ellipse_12721" data-name="Ellipse 12721" cx="9.1" cy="9.1" r="9.1" transform="translate(10.4 10.4)" fill="#fae058"/>
        <path id="Path_1279678" data-name="Path 1279678" d="M9.1,33.8h7.8v2.6H9.1Z"/>
        <path id="Path_1279679" data-name="Path 1279679" d="M20.8,33.8H31.2v2.6H20.8Z"/>
        <path id="Path_1279680" data-name="Path 1279680" d="M9.1,40.3H26v2.6H9.1Z"/>
        <path id="Path_1279681" data-name="Path 1279681" d="M28.6,40.3h2.6v2.6H28.6Z"/>
        <path id="Path_1279682" data-name="Path 1279682" d="M79.3,59.8H75.4V40.3a3.913,3.913,0,0,0-2.6-3.666V7.8a3.912,3.912,0,0,0-3.9-3.9H6.5A3.912,3.912,0,0,0,2.6,7.8v39a3.912,3.912,0,0,0,3.9,3.9h26v5.2H24.7a1.3,1.3,0,0,0-1.3,1.3v6.5A1.3,1.3,0,0,0,24.7,65H48.165a4.55,4.55,0,0,0,4.485,3.9h23.4a4.55,4.55,0,0,0,4.55-4.55V61.1A1.3,1.3,0,0,0,79.3,59.8ZM6.5,48.1a1.3,1.3,0,0,1-1.3-1.3V7.8A1.3,1.3,0,0,1,6.5,6.5H68.9a1.3,1.3,0,0,1,1.3,1.3V36.4H66.3V29.9h1.3V27.3H33.8v2.6h1.3V48.1Zm33.15,5.2h.65v2.6H35.1V50.7h.455a4.55,4.55,0,0,0,4.1,2.6Zm8.45,9.1H26V58.5H48.1Zm0-6.5H42.9V53.3h5.2Zm0-5.2H43.745a4.48,4.48,0,0,0,.455-1.95V41.158a2.266,2.266,0,0,1,.715-1.638A1.85,1.85,0,0,1,46.267,39,1.96,1.96,0,0,1,48.1,40.95ZM46.176,36.4v.026a4.358,4.358,0,0,0-3.055,1.209A4.88,4.88,0,0,0,41.6,41.158V48.75a1.95,1.95,0,0,1-3.9,0V29.9h26v6.5ZM54.6,61.1v3.25a1.95,1.95,0,0,1-3.9,0V40.95A4.613,4.613,0,0,0,50.245,39H71.5a1.3,1.3,0,0,1,1.3,1.3V59.8H55.9A1.3,1.3,0,0,0,54.6,61.1ZM78,64.35a1.95,1.95,0,0,1-1.95,1.95h-19.3a4.48,4.48,0,0,0,.455-1.95V62.4H78Z"/>
        <path id="Path_1279683" data-name="Path 1279683" d="M54.6,42.9H70.2v2.6H54.6Z"/>
        <path id="Path_1279684" data-name="Path 1279684" d="M54.6,48.1H70.2v2.6H54.6Z"/>
        <path id="Path_1279685" data-name="Path 1279685" d="M54.6,53.3H70.2v2.6H54.6Z"/>
        <path id="Path_1279686" data-name="Path 1279686" d="M20.15,22.1h-1.3a.65.65,0,0,1-.65-.65H15.6a3.25,3.25,0,0,0,2.6,3.184V26h2.6V24.634a3.25,3.25,0,0,0-.65-6.434h-1.3a.65.65,0,0,1,0-1.3h1.3a.65.65,0,0,1,.65.65h2.6a3.25,3.25,0,0,0-2.6-3.184V13H18.2v1.366a3.25,3.25,0,0,0,.65,6.434h1.3a.65.65,0,1,1,0,1.3Z"/>
        <path id="Path_1279687" data-name="Path 1279687" d="M19.5,29.9A10.4,10.4,0,1,0,9.1,19.5,10.4,10.4,0,0,0,19.5,29.9Zm0-18.2a7.8,7.8,0,1,1-7.8,7.8,7.8,7.8,0,0,1,7.8-7.8Z"/>
        <path id="Path_1279688" data-name="Path 1279688" d="M36.4,23.4H65a1.3,1.3,0,0,0,1.3-1.3V11.7A1.3,1.3,0,0,0,65,10.4H36.4a1.3,1.3,0,0,0-1.3,1.3V22.1A1.3,1.3,0,0,0,36.4,23.4ZM37.7,13h26v7.8h-26Z"/>
        <path id="Path_1279689" data-name="Path 1279689" d="M58.5,15.6h2.6v2.6H58.5Z"/>
        <path id="Path_1279690" data-name="Path 1279690" d="M53.3,15.6h2.6v2.6H53.3Z"/>
        <path id="Path_1279691" data-name="Path 1279691" d="M48.1,15.6h2.6v2.6H48.1Z"/>
        <path id="Path_1279692" data-name="Path 1279692" d="M55.107,72.9l-9.1-3.9a1.308,1.308,0,0,0-.507-.1H7.8a5.2,5.2,0,0,0,0,10.4H45.5a1.308,1.308,0,0,0,.507-.1l9.1-3.9a1.3,1.3,0,0,0,0-2.392ZM10.4,76.7H7.8a2.6,2.6,0,1,1,0-5.2h2.6Zm5.2,0H13V71.5h2.6Zm27.365-2.184.728,2.184H18.2V71.5H43.693l-.728,2.184A1.3,1.3,0,0,0,42.965,74.516Zm3.328,1.729L45.565,74.1l.728-2.145,5,2.145Z"/>
      </g>
    </g>
  </g>
</svg>
