<svg xmlns="http://www.w3.org/2000/svg" xmlns:xlink="http://www.w3.org/1999/xlink" width="88.83" height="85.054" viewBox="0 0 88.83 85.054">
  <defs>
    <clipPath id="clip-path">
      <rect id="Rectangle_413206" data-name="Rectangle 413206" width="78" height="78" transform="translate(-6246.386 1834.63)" fill="#fff" stroke="#707070" stroke-width="1"/>
    </clipPath>
  </defs>
  <g id="Group_1209762" data-name="Group 1209762" transform="translate(6257.216 -1827.576)">
    <g id="Rectangle_413205" data-name="Rectangle 413205" transform="translate(-6257.216 1827.576)" fill="#fd9826" stroke="#af6a1a" stroke-width="3">
      <rect width="70" height="70" rx="10" stroke="none"/>
      <rect x="1.5" y="1.5" width="67" height="67" rx="8.5" fill="none"/>
    </g>
    <g id="Mask_Group_1099379" data-name="Mask Group 1099379" clip-path="url(#clip-path)">
      <g id="miscellaneous_3201114" transform="translate(-6247.644 1833.372)">
        <g id="Group_1209746" data-name="Group 1209746">
          <g id="Group_1209737" data-name="Group 1209737">
            <path id="Path_1279402" data-name="Path 1279402" d="M2.516,45.29h62.9V78H2.516Z" fill="#f0d0b4"/>
          </g>
          <g id="Group_1209738" data-name="Group 1209738">
            <path id="Path_1279403" data-name="Path 1279403" d="M65.419,52.839a12.6,12.6,0,1,1-7.536,2.516,12.6,12.6,0,0,1,7.536-2.516Z" fill="#e6e9ed"/>
          </g>
          <g id="Group_1209739" data-name="Group 1209739">
            <path id="Path_1279404" data-name="Path 1279404" d="M60.387,50.323V53.9a12.407,12.407,0,0,0-2.5,1.459H52.839V50.323Z" fill="#69d6f4"/>
          </g>
          <g id="Group_1209740" data-name="Group 1209740">
            <path id="Path_1279405" data-name="Path 1279405" d="M40.258,50.323h7.548v5.032H40.258Z" fill="#69d6f4"/>
          </g>
          <g id="Group_1209741" data-name="Group 1209741">
            <path id="Path_1279406" data-name="Path 1279406" d="M27.677,50.323h7.548v5.032H27.677Z" fill="#69d6f4"/>
          </g>
          <g id="Group_1209742" data-name="Group 1209742">
            <path id="Path_1279407" data-name="Path 1279407" d="M7.548,50.323h15.1V60.387H7.548Z" fill="#b4dd7f"/>
          </g>
          <g id="Group_1209743" data-name="Group 1209743">
            <path id="Path_1279408" data-name="Path 1279408" d="M62.9,12.581A12.581,12.581,0,1,1,50.323,25.161a12.985,12.985,0,0,1,.39-3.07,12.114,12.114,0,0,0,1.736-3.925l.013-.013A12.536,12.536,0,0,1,62.9,12.581Z" fill="#fcd770"/>
          </g>
          <g id="Group_1209744" data-name="Group 1209744">
            <path id="Path_1279409" data-name="Path 1279409" d="M40.258,2.516A12.585,12.585,0,0,1,52.839,15.1a12.26,12.26,0,0,1-.377,3.057l-.013.013a12.114,12.114,0,0,1-1.736,3.925A12.58,12.58,0,1,1,40.258,2.516Z" fill="#fcd770"/>
          </g>
          <g id="Group_1209745" data-name="Group 1209745">
            <path id="Path_1279410" data-name="Path 1279410" d="M25.853,21.161A12.578,12.578,0,1,1,15.1,15.1,12.473,12.473,0,0,1,25.853,21.161Z" fill="#fcd770"/>
          </g>
        </g>
        <g id="Group_1209747" data-name="Group 1209747">
          <path id="Path_1279411" data-name="Path 1279411" d="M41.516,23.9V21.387a3.774,3.774,0,0,0,0-7.548H39a1.258,1.258,0,0,1,0-2.516h2.516a1.259,1.259,0,0,1,1.258,1.258H45.29a3.779,3.779,0,0,0-3.774-3.774V6.29H39V8.806a3.774,3.774,0,0,0,0,7.548h2.516a1.258,1.258,0,1,1,0,2.516H39a1.259,1.259,0,0,1-1.258-1.258H35.226A3.779,3.779,0,0,0,39,21.387V23.9Z"/>
          <path id="Path_1279412" data-name="Path 1279412" d="M64.161,28.935H61.645a1.259,1.259,0,0,1-1.258-1.258H57.871a3.779,3.779,0,0,0,3.774,3.774v2.516h2.516V31.452a3.774,3.774,0,0,0,0-7.548H61.645a1.258,1.258,0,0,1,0-2.516h2.516a1.259,1.259,0,0,1,1.258,1.258h2.516a3.779,3.779,0,0,0-3.774-3.774V16.355H61.645v2.516a3.774,3.774,0,0,0,0,7.548h2.516a1.258,1.258,0,0,1,0,2.516Z"/>
          <path id="Path_1279413" data-name="Path 1279413" d="M16.355,36.484V33.968a3.774,3.774,0,0,0,0-7.548H13.839a1.258,1.258,0,1,1,0-2.516h2.516a1.259,1.259,0,0,1,1.258,1.258h2.516a3.779,3.779,0,0,0-3.774-3.774V18.871H13.839v2.516a3.774,3.774,0,1,0,0,7.548h2.516a1.258,1.258,0,1,1,0,2.516H13.839a1.259,1.259,0,0,1-1.258-1.258H10.065a3.779,3.779,0,0,0,3.774,3.774v2.516Z"/>
          <path id="Path_1279414" data-name="Path 1279414" d="M70.82,58.24l-5.4,5.4-5.4-5.4L58.24,60.018l5.4,5.4-5.4,5.4L60.018,72.6l5.4-5.4,5.4,5.4L72.6,70.82l-5.4-5.4,5.4-5.4Z"/>
          <path id="Path_1279415" data-name="Path 1279415" d="M6.29,61.645H23.9V49.065H6.29ZM8.806,51.581H21.387v7.548H8.806Z"/>
          <path id="Path_1279416" data-name="Path 1279416" d="M36.484,49.065H26.419v7.548H36.484ZM33.968,54.1H28.935V51.581h5.032Z"/>
          <path id="Path_1279417" data-name="Path 1279417" d="M39,56.613H49.065V49.065H39Zm2.516-5.032h5.032V54.1H41.516Z"/>
          <path id="Path_1279418" data-name="Path 1279418" d="M6.29,66.677H8.806v2.516H6.29Z"/>
          <path id="Path_1279419" data-name="Path 1279419" d="M11.323,66.677H23.9v2.516H11.323Z"/>
          <path id="Path_1279420" data-name="Path 1279420" d="M6.29,71.71H23.9v2.516H6.29Z"/>
          <path id="Path_1279421" data-name="Path 1279421" d="M26.419,61.645H49.065v2.516H26.419Z"/>
          <path id="Path_1279422" data-name="Path 1279422" d="M26.419,66.677H49.065v2.516H26.419Z"/>
          <path id="Path_1279423" data-name="Path 1279423" d="M26.419,71.71H49.065v2.516H26.419Z"/>
          <path id="Path_1279424" data-name="Path 1279424" d="M66.677,51.645V44.032H64.161v-5.1a13.834,13.834,0,1,0-10.092-24.4A13.83,13.83,0,1,0,39,28.871V44.032H16.355v-2.58a13.839,13.839,0,1,0-2.516,0v2.58H1.258V79.258H65.419a13.835,13.835,0,0,0,1.258-27.613ZM3.774,27.677A11.323,11.323,0,1,1,15.1,39,11.336,11.336,0,0,1,3.774,27.677ZM62.9,13.839A11.419,11.419,0,1,1,51.91,22.532a13.77,13.77,0,0,0,1.686-3.8A11.308,11.308,0,0,1,62.9,13.839ZM28.935,15.1A11.323,11.323,0,1,1,40.258,26.419,11.336,11.336,0,0,1,28.935,15.1ZM41.516,28.871a13.76,13.76,0,0,0,7.577-3.135,13.845,13.845,0,0,0,12.552,13.2v5.1H41.516ZM3.774,76.742V46.548H64.161v5.1a13.614,13.614,0,0,0-2.516.473V49.065H51.581v7.548h3.172a13.808,13.808,0,0,0,2.735,20.129ZM57.487,54.1H54.1V51.581h5.032v1.527A13.959,13.959,0,0,0,57.487,54.1Zm7.932,22.645A11.323,11.323,0,1,1,76.742,65.419,11.335,11.335,0,0,1,65.419,76.742Z"/>
        </g>
      </g>
    </g>
  </g>
</svg>
