<svg xmlns="http://www.w3.org/2000/svg" xmlns:xlink="http://www.w3.org/1999/xlink" width="88.83" height="85.055" viewBox="0 0 88.83 85.055">
  <defs>
    <clipPath id="clip-path">
      <rect id="Rectangle_413311" data-name="Rectangle 413311" width="78" height="78" transform="translate(400.83 12396.901)" fill="#fff" stroke="#707070" stroke-width="1"/>
    </clipPath>
  </defs>
  <g id="Group_1210041" data-name="Group 1210041" transform="translate(-390 -12389.847)">
    <g id="Rectangle_413310" data-name="Rectangle 413310" transform="translate(390 12389.847)" fill="#fd9826" stroke="#af6a1a" stroke-width="3">
      <rect width="70" height="70" rx="10" stroke="none"/>
      <rect x="1.5" y="1.5" width="67" height="67" rx="8.5" fill="none"/>
    </g>
    <g id="Mask_Group_1099398" data-name="Mask Group 1099398" clip-path="url(#clip-path)">
      <g id="incorrect_9722631" transform="translate(399.572 12395.644)">
        <g id="Group_1210036" data-name="Group 1210036" transform="translate(0.031 0.664)">
          <path id="Path_1250018" data-name="Path 1250018" d="M7.548,74.226V35.3A2.588,2.588,0,0,1,10.14,32.71H70.376A2.588,2.588,0,0,1,72.968,35.3V74.226Z" fill="#7ad7ee"/>
        </g>
        <g id="Group_1210037" data-name="Group 1210037" transform="translate(0.031 0.664)">
          <path id="Path_1250019" data-name="Path 1250019" d="M7.548,74.226v-7.4c30.4.82,52.737-8.762,62.828-34.115A2.588,2.588,0,0,1,72.968,35.3V74.226Z" fill="#4bc3ef"/>
        </g>
        <g id="Group_1210038" data-name="Group 1210038" transform="translate(0.031 0.664)">
          <path id="Path_1250020" data-name="Path 1250020" d="M78,70.452A7.554,7.554,0,0,1,70.452,78H10.065a7.56,7.56,0,0,1-7.548-7.548H33.968a1.262,1.262,0,0,1,1.258,1.258,1.262,1.262,0,0,0,1.258,1.258h7.548A1.262,1.262,0,0,0,45.29,71.71a1.262,1.262,0,0,1,1.258-1.258Z" fill="#615260"/>
        </g>
        <g id="Group_1210039" data-name="Group 1210039" transform="translate(0.031 0.664)">
          <path id="Path_1250021" data-name="Path 1250021" d="M78,70.452A7.554,7.554,0,0,1,70.452,78H10.065A7.588,7.588,0,0,1,4.73,75.786C-1.173,70.561,63.682,80.67,78,70.452Z" fill="#453744"/>
        </g>
        <path id="Path_1250022" data-name="Path 1250022" d="M37.742,2.516H60.387A2.524,2.524,0,0,1,62.9,5.032V52.839a2.524,2.524,0,0,1-2.516,2.516H20.129a2.524,2.524,0,0,1-2.516-2.516V7.548Z" fill="#eceaec"/>
        <path id="Path_1250023" data-name="Path 1250023" d="M17.613,52.839c23.311-9.8,38.024-26.223,42.774-50.323A2.524,2.524,0,0,1,62.9,5.032V52.839a2.524,2.524,0,0,1-2.516,2.516H20.129A2.524,2.524,0,0,1,17.613,52.839Z" fill="#dbd8db"/>
        <path id="Path_1250024" data-name="Path 1250024" d="M26.545,40.258H23.777a1.128,1.128,0,0,1-1.132-1.132V36.358a1.128,1.128,0,0,1,1.132-1.132h2.768a1.128,1.128,0,0,1,1.132,1.132v2.768A1.128,1.128,0,0,1,26.545,40.258Z" fill="#dbd8db"/>
        <path id="Path_1250025" data-name="Path 1250025" d="M17.613,7.548a5.047,5.047,0,0,1,5.032,5.032l15.1-10.065Z" fill="#dbd8db"/>
        <circle id="Ellipse_12718" data-name="Ellipse 12718" cx="10.022" cy="10.022" r="10.022" transform="translate(30.236 10.107)" fill="#fb4455"/>
        <g id="Group_1210040" data-name="Group 1210040">
          <path id="Path_1250026" data-name="Path 1250026" d="M22.645,76.742h-2.39a1.258,1.258,0,0,0,0,2.516h2.39a1.258,1.258,0,0,0,0-2.516Z"/>
          <path id="Path_1250027" data-name="Path 1250027" d="M78,69.194H74.226V35.352a3.92,3.92,0,0,0-3.9-3.9h-2.39a1.258,1.258,0,0,0,0,2.516h2.39a1.392,1.392,0,0,1,1.384,1.384V69.194H46.548a2.706,2.706,0,0,0-2.516,2.516H36.484a2.706,2.706,0,0,0-2.516-2.516H8.806V45.29a1.189,1.189,0,0,0-1.258-1.258A1.189,1.189,0,0,0,6.29,45.29v23.9H2.516a1.189,1.189,0,0,0-1.258,1.258A8.448,8.448,0,0,0,3.9,76.616a8.448,8.448,0,0,0,6.165,2.642H15.1a1.258,1.258,0,1,0,0-2.516H10.065a5.9,5.9,0,0,1-4.4-1.887A6.045,6.045,0,0,1,3.9,71.71H33.968a2.706,2.706,0,0,0,2.516,2.516h7.548a2.706,2.706,0,0,0,2.516-2.516H76.616a6.328,6.328,0,0,1-6.165,5.032H27.677a1.258,1.258,0,0,0,0,2.516H70.452a8.752,8.752,0,0,0,8.806-8.806A1.189,1.189,0,0,0,78,69.194Z"/>
          <path id="Path_1250028" data-name="Path 1250028" d="M7.548,41.516a1.189,1.189,0,0,0,1.258-1.258V35.352a1.4,1.4,0,0,1,1.384-1.384h2.39a1.258,1.258,0,1,0,0-2.516H10.19a3.92,3.92,0,0,0-3.9,3.9v4.906a1.189,1.189,0,0,0,1.258,1.258Z"/>
          <path id="Path_1250029" data-name="Path 1250029" d="M20.129,56.613H60.387a3.707,3.707,0,0,0,3.774-3.774V27.929a1.258,1.258,0,0,0-2.516,0v24.91A1.189,1.189,0,0,1,60.387,54.1H20.129a1.189,1.189,0,0,1-1.258-1.258V9.058a3.665,3.665,0,0,1,2.516,3.523A1.235,1.235,0,0,0,23.4,13.587l2.516-1.635a1.274,1.274,0,0,0-1.384-2.139l-.881.629A7.494,7.494,0,0,0,21.89,7.8L31.2,5.535l-2.265,1.51a1.274,1.274,0,0,0,1.384,2.139l7.8-5.41H60.387a1.189,1.189,0,0,1,1.258,1.258V22.268a1.258,1.258,0,0,0,2.516,0V5.032a3.707,3.707,0,0,0-3.774-3.774H37.49L17.361,6.29a1.325,1.325,0,0,0-1.006,1.258v45.29a3.707,3.707,0,0,0,3.774,3.774Z"/>
          <path id="Path_1250030" data-name="Path 1250030" d="M28.935,36.358a2.475,2.475,0,0,0-2.39-2.39H23.777a1.258,1.258,0,1,0,0,2.516h2.642V39H23.9a1.338,1.338,0,0,0-1.258-1.132,1.189,1.189,0,0,0-1.258,1.258,2.475,2.475,0,0,0,2.39,2.39h2.768a2.475,2.475,0,0,0,2.39-2.39Z"/>
          <path id="Path_1250031" data-name="Path 1250031" d="M26.545,44.787,24.784,48.31l-1.258-1.258a1.245,1.245,0,1,0-1.761,1.761l2.516,2.516a1.142,1.142,0,0,0,.881.377h.252a1.6,1.6,0,0,0,.881-.629l2.516-5.032a1.325,1.325,0,0,0-.5-1.635,1.15,1.15,0,0,0-1.761.377Z"/>
          <path id="Path_1250032" data-name="Path 1250032" d="M57.871,33.968H32.71a1.258,1.258,0,1,0,0,2.516H57.871a1.258,1.258,0,0,0,0-2.516Z"/>
          <path id="Path_1250033" data-name="Path 1250033" d="M32.71,41.516H45.29a1.258,1.258,0,0,0,0-2.516H32.71a1.258,1.258,0,1,0,0,2.516Z"/>
          <path id="Path_1250034" data-name="Path 1250034" d="M59.129,45.29a1.189,1.189,0,0,0-1.258-1.258H32.71a1.258,1.258,0,1,0,0,2.516H57.871A1.189,1.189,0,0,0,59.129,45.29Z"/>
          <path id="Path_1250035" data-name="Path 1250035" d="M32.71,49.065a1.258,1.258,0,1,0,0,2.516H45.29a1.258,1.258,0,0,0,0-2.516Z"/>
          <path id="Path_1250036" data-name="Path 1250036" d="M36.358,10.694a1.273,1.273,0,0,0-1.761-.5,11.952,11.952,0,0,0-5.661,9.939A11.323,11.323,0,1,0,40.258,8.806s-1.761,0-1.635,1.258c.126,1.384,1.635,1.258,1.635,1.258a8.614,8.614,0,0,1,5.284,1.761l-5.284,5.284-5.284-5.284c.252-.252.629-.377.881-.629A1.273,1.273,0,0,0,36.358,10.694ZM47.3,14.845a8.806,8.806,0,0,1,0,10.568l-5.284-5.284ZM45.542,27.174a8.806,8.806,0,0,1-10.568,0l5.284-5.284ZM38.5,20.129l-5.284,5.284a8.614,8.614,0,0,1-1.761-5.284,8.888,8.888,0,0,1,1.761-5.284Z"/>
        </g>
        <circle id="Ellipse_12719" data-name="Ellipse 12719" cx="1.258" cy="1.258" r="1.258" transform="translate(39 61.645)"/>
        <circle id="Ellipse_12720" data-name="Ellipse 12720" cx="1.258" cy="1.258" r="1.258" transform="translate(46.548 61.645)"/>
        <circle id="Ellipse_12721" data-name="Ellipse 12721" cx="1.258" cy="1.258" r="1.258" transform="translate(31.452 61.645)"/>
      </g>
    </g>
  </g>
</svg>
