<svg xmlns="http://www.w3.org/2000/svg" xmlns:xlink="http://www.w3.org/1999/xlink" width="88.83" height="85.054" viewBox="0 0 88.83 85.054">
  <defs>
    <clipPath id="clip-path">
      <rect id="Rectangle_413269" data-name="Rectangle 413269" width="78" height="78" transform="translate(1237 11862.513)" fill="#fff" stroke="#707070" stroke-width="1"/>
    </clipPath>
  </defs>
  <g id="Group_1209912" data-name="Group 1209912" transform="translate(-1226.17 -11855.459)">
    <g id="Rectangle_413268" data-name="Rectangle 413268" transform="translate(1226.17 11855.459)" fill="#fd9826" stroke="#af6a1a" stroke-width="3">
      <rect width="70" height="70" rx="10" stroke="none"/>
      <rect x="1.5" y="1.5" width="67" height="67" rx="8.5" fill="none"/>
    </g>
    <g id="Mask_Group_1099371" data-name="Mask Group 1099371" clip-path="url(#clip-path)">
      <g id="assistance_14604956" transform="translate(1232.853 11858.736)">
        <g id="Group_1209901" data-name="Group 1209901">
          <path id="Path_1249561" data-name="Path 1249561" d="M53.736,9.149H57.12a1.8,1.8,0,0,1,1.8,1.8v1.313a1.777,1.777,0,0,0,1.332,1.737,18.577,18.577,0,0,1,4.476,1.855,1.777,1.777,0,0,0,2.168-.284l.932-.932a1.8,1.8,0,0,1,2.539,0l2.389,2.394a1.8,1.8,0,0,1,0,2.539l-.926.932a1.769,1.769,0,0,0-.284,2.168,18.56,18.56,0,0,1,1.855,4.476,1.777,1.777,0,0,0,1.734,1.332h1.318a1.8,1.8,0,0,1,1.8,1.8v3.384a1.8,1.8,0,0,1-1.8,1.8H75.129a1.779,1.779,0,0,0-1.734,1.332,18.576,18.576,0,0,1-1.855,4.476,1.77,1.77,0,0,0,.284,2.168l.926.932a1.8,1.8,0,0,1,0,2.539l-2.389,2.389a1.8,1.8,0,0,1-2.539,0l-.932-.926a1.77,1.77,0,0,0-2.168-.284,18.617,18.617,0,0,1-4.476,1.855,1.777,1.777,0,0,0-1.332,1.734v1.318a1.8,1.8,0,0,1-1.8,1.8H53.736a1.8,1.8,0,0,1-1.8-1.8V51.66a1.779,1.779,0,0,0-1.332-1.734,18.492,18.492,0,0,1-4.476-1.855,1.769,1.769,0,0,0-2.168.284l-.932.926a1.8,1.8,0,0,1-2.539,0L38.1,46.894a1.8,1.8,0,0,1,0-2.539l.932-.932a1.777,1.777,0,0,0,.284-2.168,18.617,18.617,0,0,1-1.855-4.476,1.778,1.778,0,0,0-1.737-1.332H34.412a1.8,1.8,0,0,1-1.8-1.8V30.268a1.8,1.8,0,0,1,1.8-1.8h1.313a1.777,1.777,0,0,0,1.737-1.332,18.492,18.492,0,0,1,1.855-4.476,1.776,1.776,0,0,0-.284-2.168l-.932-.932a1.8,1.8,0,0,1,0-2.539L40.5,14.633a1.8,1.8,0,0,1,2.539,0l.926.932a1.784,1.784,0,0,0,2.173.284,18.56,18.56,0,0,1,4.476-1.855,1.778,1.778,0,0,0,1.332-1.737V10.944a1.8,1.8,0,0,1,1.8-1.8Z" fill="#686868" fill-rule="evenodd"/>
          <path id="Path_1249562" data-name="Path 1249562" d="M55.387,20.045A11.986,11.986,0,1,1,43.4,32.031,11.988,11.988,0,0,1,55.387,20.045Z" fill="#b3b4b4" fill-rule="evenodd"/>
          <path id="Path_1249563" data-name="Path 1249563" d="M20.932,21.99h29.82a2.375,2.375,0,0,1,2.3,2.429V38.254a2.374,2.374,0,0,1-2.3,2.423h-14q.45,4.4-5.623,6.734,3.178-2.013,2.177-6.734H20.934a2.375,2.375,0,0,1-2.308-2.423V24.418a2.374,2.374,0,0,1,2.306-2.429Z" fill="#d86f6f" fill-rule="evenodd"/>
          <path id="Path_1249564" data-name="Path 1249564" d="M50.863,40.677h-.429c-15.164,0-27.455-6.744-27.455-15.062a8.784,8.784,0,0,1,.8-3.626H50.753a2.375,2.375,0,0,1,2.3,2.429V38.254a2.383,2.383,0,0,1-2.192,2.423Z" fill="#e49797" fill-rule="evenodd"/>
          <path id="Path_1249565" data-name="Path 1249565" d="M59.123,65.188l17.848-7.9c3.365-1.492,6.986,2.887,2.163,5.86L60.544,74.621a7.478,7.478,0,0,1-4.132,1.1l-17.959.034-6.61-2.905.227-8.583H30.883V54.2H42.556a4.984,4.984,0,0,1,4.832,3.655h10.22a3.822,3.822,0,0,1,1.516,7.332Z" fill="#f0bc9c" fill-rule="evenodd"/>
          <path id="Path_1249566" data-name="Path 1249566" d="M78.679,57c2.65.255,4.447,3.679.453,6.145L60.544,74.621a7.479,7.479,0,0,1-4.132,1.1l-17.959.034-6.61-2.905.145-5.436q1.035-1.745,2.289-3.61Q58.418,75.391,78.679,57Z" fill="#eaa377" fill-rule="evenodd"/>
          <path id="Path_1249567" data-name="Path 1249567" d="M4.828,53.524H21.2V74.069H4.828Z" fill="#6d71b5" fill-rule="evenodd"/>
          <path id="Path_1249568" data-name="Path 1249568" d="M4.828,63.8H21.2V74.069H4.828Z" fill="#9695c9" fill-rule="evenodd"/>
          <path id="Path_1249569" data-name="Path 1249569" d="M24.36,50.971h6.754a3.174,3.174,0,0,1,3.163,3.163V73.242A3.174,3.174,0,0,1,31.115,76.4H24.36A3.169,3.169,0,0,1,21.2,73.242V54.133a3.168,3.168,0,0,1,3.157-3.163Z" fill="#a3a1cf" fill-rule="evenodd"/>
          <path id="Path_1249570" data-name="Path 1249570" d="M34.276,63.8V73.24A3.174,3.174,0,0,1,31.113,76.4H24.359A3.169,3.169,0,0,1,21.2,73.24V63.8Z" fill="#6167af" fill-rule="evenodd"/>
        </g>
        <path id="Path_1249571" data-name="Path 1249571" d="M24.36,50.29h6.754a3.849,3.849,0,0,1,3.794,3.229h7.647A5.719,5.719,0,0,1,47.9,57.173h9.713a4.508,4.508,0,0,1,4.218,6.073L76.7,56.662a3.987,3.987,0,0,1,3.929.353,3.453,3.453,0,0,1,1.521,2.934c-.044,1.255-.8,2.631-2.655,3.776L60.894,75.2a8.149,8.149,0,0,1-4.484,1.2l-17.959.034a.652.652,0,0,1-.276-.058L34.618,74.81a3.844,3.844,0,0,1-3.5,2.274H24.359a3.859,3.859,0,0,1-3.529-2.331h-16a.681.681,0,0,1-.681-.681V53.524a.681.681,0,0,1,.681-.681H20.745A3.845,3.845,0,0,1,24.36,50.29Zm10.6,4.6V73.24c0,.077,0,.155-.005.227L38.6,75.074,56.41,75.04a6.914,6.914,0,0,0,3.776-.995l18.591-11.48c1.647-1.013,2.452-2.394,1.776-3.655a2.352,2.352,0,0,0-.71-.787,2.631,2.631,0,0,0-2.6-.218L59.431,65.794a.669.669,0,0,1-.308.073H45.5a.68.68,0,0,1,0-1.361H58.978a3.212,3.212,0,0,0,1.26-1.11,3.149,3.149,0,0,0-2.631-4.861H47.387a.681.681,0,0,1-.657-.521,4.312,4.312,0,0,0-4.176-3.129ZM31.115,51.65H24.36a2.486,2.486,0,0,0-2.476,2.481V73.24a2.489,2.489,0,0,0,2.476,2.481h6.754A2.491,2.491,0,0,0,33.6,73.24V54.132a2.487,2.487,0,0,0-2.481-2.481ZM20.522,54.2H5.513V73.39H20.522ZM48.387,32.017a.68.68,0,0,1,0-1.361H50.3a.68.68,0,0,1,0,1.361Zm-4.481,0a.68.68,0,0,1,0-1.361h1.907a.68.68,0,0,1,0,1.361Zm-4.484,0a.68.68,0,0,1,0-1.361H41.33a.68.68,0,0,1,0,1.361Zm-4.484,0a.68.68,0,0,1,0-1.361h1.907a.68.68,0,0,1,0,1.361Zm-4.486,0a.68.68,0,0,1,0-1.361h1.913a.68.68,0,0,1,0,1.361Zm-4.479,0a.68.68,0,0,1,0-1.361h1.907a.68.68,0,0,1,0,1.361Zm-4.486,0a.68.68,0,0,1,0-1.361h1.907a.68.68,0,0,1,0,1.361ZM20.932,21.31H38.78l-.232-.334c-.855-.855-1.655-1.434-1.655-2.679H36.9a2.49,2.49,0,0,1,.724-1.752h-.005l2.394-2.389a2.487,2.487,0,0,1,3.5-.005l.926.932a1.093,1.093,0,0,0,1.347.179,20.326,20.326,0,0,1,2.26-1.116,19.138,19.138,0,0,1,2.384-.806,1.1,1.1,0,0,0,.826-1.081V10.946a2.478,2.478,0,0,1,2.476-2.476H57.12A2.482,2.482,0,0,1,59.6,10.946v1.313a1.093,1.093,0,0,0,.826,1.081,19.141,19.141,0,0,1,4.639,1.921,1.09,1.09,0,0,0,1.347-.179c.86-.855,1.434-1.65,2.684-1.65v-.005a2.483,2.483,0,0,1,1.752.729l2.389,2.389a2.482,2.482,0,0,1,0,3.5l-.932.926a1.1,1.1,0,0,0-.179,1.347,18.687,18.687,0,0,1,1.116,2.26,18.359,18.359,0,0,1,.811,2.384,1.1,1.1,0,0,0,1.076.826c1.211,0,2.187-.155,3.065.724a2.476,2.476,0,0,1,.729,1.752v3.384a2.482,2.482,0,0,1-2.476,2.476v-.005H75.127v.005a1.091,1.091,0,0,0-1.076.826A19.389,19.389,0,0,1,72.129,41.6a1.092,1.092,0,0,0,.174,1.347c.86.86,1.655,1.434,1.655,2.684a2.47,2.47,0,0,1-.724,1.747v.005l-2.389,2.389a2.482,2.482,0,0,1-3.5,0l-.932-.926a1.085,1.085,0,0,0-1.347-.179,19.141,19.141,0,0,1-4.639,1.921A1.091,1.091,0,0,0,59.6,51.66c0,1.211.155,2.187-.729,3.065a2.464,2.464,0,0,1-1.747.729H53.736a2.482,2.482,0,0,1-2.476-2.476V51.66a1.1,1.1,0,0,0-.826-1.076,19.177,19.177,0,0,1-4.644-1.921,1.086,1.086,0,0,0-1.347.179c-.855.855-1.429,1.65-2.679,1.65a2.49,2.49,0,0,1-1.752-.724l-2.394-2.389a2.482,2.482,0,0,1,0-3.5l.932-.932a1.092,1.092,0,0,0,.179-1.347c-.039-.063-.082-.14-.135-.237H37.464c-.044,3.379-2.8,5.431-6.087,6.686a.68.68,0,0,1-.608-1.207c1.945-1.236,2.347-3.2,1.974-5.479H20.934a3.06,3.06,0,0,1-2.989-3.1V24.418a3.064,3.064,0,0,1,2.987-3.108Zm19.267,0h8.444a12.487,12.487,0,0,1,3.134-1.419,12.672,12.672,0,1,1-4.958,21.467h-6.71a2.473,2.473,0,0,1-.594,2.549l-.932.932a1.113,1.113,0,0,0,0,1.574l2.389,2.394a1.109,1.109,0,0,0,.792.324v.005c1.11,0,1.463-1.747,3.147-1.97a2.46,2.46,0,0,1,1.56.318,17.969,17.969,0,0,0,4.31,1.787,2.455,2.455,0,0,1,1.839,2.389v1.318a1.119,1.119,0,0,0,1.116,1.115H57.12a1.119,1.119,0,0,0,1.115-1.115V51.66a2.456,2.456,0,0,1,1.834-2.389,17.816,17.816,0,0,0,4.31-1.787,2.467,2.467,0,0,1,2.992.392l.932.932a1.123,1.123,0,0,0,1.574,0l2.395-2.394a1.118,1.118,0,0,0,0-1.574l-.932-.932a2.461,2.461,0,0,1-.392-2.992,17.87,17.87,0,0,0,1.787-4.31,2.454,2.454,0,0,1,2.389-1.834h1.318a1.119,1.119,0,0,0,1.115-1.116V30.272a1.119,1.119,0,0,0-1.115-1.116H75.125a2.455,2.455,0,0,1-2.389-1.839,17.142,17.142,0,0,0-.753-2.211h.005a18.2,18.2,0,0,0-1.037-2.1,2.462,2.462,0,0,1,.392-2.989l.932-.932a1.129,1.129,0,0,0,0-1.579L69.88,15.118a1.106,1.106,0,0,0-.787-.324v-.005c-1.11,0-1.463,1.742-3.147,1.965a2.471,2.471,0,0,1-1.563-.313,17.681,17.681,0,0,0-4.31-1.787,2.46,2.46,0,0,1-1.834-2.394V10.947a1.119,1.119,0,0,0-1.115-1.116H53.738a1.119,1.119,0,0,0-1.116,1.116h-.005V12.26h.005a2.461,2.461,0,0,1-1.839,2.394,17.937,17.937,0,0,0-2.211.748,18.2,18.2,0,0,0-2.1,1.037,2.461,2.461,0,0,1-2.989-.392l-.932-.932a1.119,1.119,0,0,0-1.579,0l-2.389,2.394v-.005a1.123,1.123,0,0,0-.329.792h.005a1.106,1.106,0,0,0,.324.787l.932.932h-.005a2.437,2.437,0,0,1,.6.95,3,3,0,0,1,.09.344Zm11.307.1a3.107,3.107,0,0,1,2.234,3.008V38.254a3.06,3.06,0,0,1-2.989,3.1H48.993a11.306,11.306,0,1,0,2.512-19.948Zm-.753,1.26H20.932a1.7,1.7,0,0,0-1.626,1.747V38.254A1.692,1.692,0,0,0,20.932,40H33.3a.684.684,0,0,1,.666.54,8.223,8.223,0,0,1-.189,4.745,4.808,4.808,0,0,0,2.3-4.484.68.68,0,0,1,.671-.8h14a1.69,1.69,0,0,0,1.621-1.742V24.417A1.689,1.689,0,0,0,50.753,22.671Z"/>
      </g>
    </g>
  </g>
</svg>
