<svg xmlns="http://www.w3.org/2000/svg" xmlns:xlink="http://www.w3.org/1999/xlink" width="96.703" height="98.556" viewBox="0 0 96.703 98.556">
  <defs>
    <clipPath id="clip-path">
      <rect id="Rectangle_413301" data-name="Rectangle 413301" width="86.912" height="86.912" transform="translate(1181.439 8671.918)" fill="#fff" stroke="#707070" stroke-width="1"/>
    </clipPath>
  </defs>
  <g id="Group_1210003" data-name="Group 1210003" transform="translate(-1171.648 -8660.274)">
    <g id="Group_1210002" data-name="Group 1210002">
      <g id="Rectangle_413300" data-name="Rectangle 413300" transform="translate(1171.648 8660.274)" fill="#b7a8f1" stroke="#7f74a8" stroke-width="3">
        <rect width="79.44" height="79.44" rx="10" stroke="none"/>
        <rect x="1.5" y="1.5" width="76.44" height="76.44" rx="8.5" fill="none"/>
      </g>
      <g id="Mask_Group_1099388" data-name="Mask Group 1099388" clip-path="url(#clip-path)">
        <g id="policy_17773169" transform="translate(1177.145 8665.705)">
          <g id="Group_1209997" data-name="Group 1209997">
            <path id="Path_1249890" data-name="Path 1249890" d="M11.023,82.527H59.846A5.075,5.075,0,0,0,64.9,77.469V12.579a5.072,5.072,0,0,0-5.059-5.055H11.023a5.068,5.068,0,0,0-5.055,5.055v64.89a5.071,5.071,0,0,0,5.055,5.059Z" fill="#ffddaf" fill-rule="evenodd"/>
            <path id="Path_1249891" data-name="Path 1249891" d="M64.088,80.218a5.026,5.026,0,0,0,.818-2.75V12.579a5.072,5.072,0,0,0-5.059-5.055H11.023a5.012,5.012,0,0,0-2.66.759C12.334,25.57,22.12,43.663,37.181,59.241A119.506,119.506,0,0,0,64.088,80.218Z" fill="#ffecca" fill-rule="evenodd"/>
            <path id="Path_1249892" data-name="Path 1249892" d="M63.944,44.163h3.531a1.878,1.878,0,0,1,1.879,1.875v1.375a1.855,1.855,0,0,0,1.392,1.811,19.108,19.108,0,0,1,4.671,1.939,1.863,1.863,0,0,0,2.266-.3l.972-.972a1.871,1.871,0,0,1,2.648,0l2.5,2.495a1.888,1.888,0,0,1,0,2.654l-.972.972a1.852,1.852,0,0,0-.3,2.263,19.4,19.4,0,0,1,1.939,4.677,1.859,1.859,0,0,0,1.811,1.392h1.375a1.878,1.878,0,0,1,1.875,1.875V69.75a1.882,1.882,0,0,1-1.879,1.879H86.285a1.855,1.855,0,0,0-1.811,1.392,19.33,19.33,0,0,1-1.939,4.671,1.855,1.855,0,0,0,.3,2.266l.972.972a1.881,1.881,0,0,1,0,2.648l-2.5,2.5a1.881,1.881,0,0,1-2.648,0l-.972-.972a1.858,1.858,0,0,0-2.266-.3,19.361,19.361,0,0,1-4.671,1.939,1.853,1.853,0,0,0-1.392,1.811v1.369a1.882,1.882,0,0,1-1.879,1.879H63.944a1.882,1.882,0,0,1-1.875-1.879V88.558a1.855,1.855,0,0,0-1.392-1.811A19.464,19.464,0,0,1,56,84.809a1.85,1.85,0,0,0-2.263.3l-.972.972a1.888,1.888,0,0,1-2.654,0l-2.495-2.5a1.871,1.871,0,0,1,0-2.648l.972-.972a1.866,1.866,0,0,0,.3-2.266,19.212,19.212,0,0,1-1.939-4.671,1.853,1.853,0,0,0-1.811-1.392H43.762a1.882,1.882,0,0,1-1.875-1.879V66.219a1.882,1.882,0,0,1,1.875-1.875h1.377a1.855,1.855,0,0,0,1.811-1.392,19.178,19.178,0,0,1,1.939-4.677,1.857,1.857,0,0,0-.3-2.263l-.972-.972a1.878,1.878,0,0,1,0-2.654l2.495-2.495a1.878,1.878,0,0,1,2.654,0l.972.972a1.86,1.86,0,0,0,2.263.3,19.252,19.252,0,0,1,4.677-1.939,1.853,1.853,0,0,0,1.392-1.811V46.038a1.878,1.878,0,0,1,1.873-1.875Z" fill="#499cb9" fill-rule="evenodd"/>
            <path id="Path_1249893" data-name="Path 1249893" d="M65.744,54.618A13.309,13.309,0,1,1,52.434,67.928,13.31,13.31,0,0,1,65.744,54.618Z" fill="#b3b4b4" fill-rule="evenodd"/>
            <path id="Path_1249894" data-name="Path 1249894" d="M77.941,62.6a13.308,13.308,0,0,1-22.4,13.877A13.308,13.308,0,0,1,77.941,62.6Z" fill="#e6e6e6" fill-rule="evenodd"/>
            <path id="Path_1249895" data-name="Path 1249895" d="M53.507,71.411a25.219,25.219,0,0,0-22.2,7.576q4.858-14.567,22.2-18.6V56.9l12.832,9.2L53.507,75.3Z" fill="#ffc908" fill-rule="evenodd"/>
            <path id="Path_1249896" data-name="Path 1249896" d="M53.507,71.411a25.219,25.219,0,0,0-22.2,7.576q8.99-17.233,34.776-12.7L53.507,75.3Z" fill="#fdb614" fill-rule="evenodd"/>
            <path id="Path_1249897" data-name="Path 1249897" d="M36.634,52.09c-15.392-5.716-20.844-20.535-16-33.5a23.4,23.4,0,0,0,16-6.095,23.406,23.406,0,0,0,16,6.095C57.478,31.554,52.026,46.373,36.634,52.09Z" fill="#498daa" fill-rule="evenodd"/>
            <path id="Path_1249898" data-name="Path 1249898" d="M36.634,52.09a28.649,28.649,0,0,1-10.554-6.679c.489-8.691,3.456-18.561,8.936-28.048q1.219-2.11,2.538-4.089a23.248,23.248,0,0,0,15.078,5.314C57.478,31.554,52.026,46.373,36.634,52.09Z" fill="#499cb9" fill-rule="evenodd"/>
            <path id="Path_1249899" data-name="Path 1249899" d="M36.634,46.935C25.252,42.71,21.215,31.745,24.8,22.157a17.3,17.3,0,0,0,11.834-4.508,17.336,17.336,0,0,0,11.834,4.508C52.052,31.745,48.021,42.71,36.634,46.935Z" fill="#bad2d6" fill-rule="evenodd"/>
            <path id="Path_1249900" data-name="Path 1249900" d="M28.627,21.775a17.594,17.594,0,0,0,8.007-4.126,17.336,17.336,0,0,0,11.834,4.508,18.651,18.651,0,0,1-8.9,23.461C29.2,41.2,25.474,30.932,28.627,21.775Z" fill="#e3f3f4" fill-rule="evenodd"/>
          </g>
          <path id="Path_1249901" data-name="Path 1249901" d="M11.775,58.977a1.305,1.305,0,1,1,0-2.611h4.072a1.305,1.305,0,1,1,0,2.611Zm7.981,0a1.305,1.305,0,1,1,0-2.611H39.814a1.305,1.305,0,1,1,0,2.611ZM11.775,75.434a1.311,1.311,0,1,1,0-2.622h16.9a1.311,1.311,0,1,1,0,2.622Zm0-8.222a1.311,1.311,0,1,1,0-2.622H24.789a1.311,1.311,0,1,1,0,2.622Zm18.775,0a1.311,1.311,0,0,1,0-2.622H34.8a1.311,1.311,0,1,1,0,2.622Zm-.017-34.538a1.305,1.305,0,1,1,2.1-1.555l2.182,2.952,5.909-6.494a1.307,1.307,0,1,1,1.931,1.762l-6.977,7.666a1.319,1.319,0,0,1-2.017-.1Zm5.643,15.488A20.982,20.982,0,0,1,23.912,37.081,20.305,20.305,0,0,1,23.577,21.7a1.3,1.3,0,0,1,1.268-.85,16.069,16.069,0,0,0,10.916-4.173,1.308,1.308,0,0,1,1.751.006A16.065,16.065,0,0,0,48.445,20.85a1.3,1.3,0,0,1,1.259.886,20.306,20.306,0,0,1-.345,15.343A20.976,20.976,0,0,1,37.089,48.16,1.307,1.307,0,0,1,36.177,48.162ZM26.3,36.031A18.3,18.3,0,0,0,36.634,45.54a18.284,18.284,0,0,0,10.337-9.509,17.582,17.582,0,0,0,.562-12.577,18.517,18.517,0,0,1-10.9-4.092,18.5,18.5,0,0,1-10.9,4.092A17.632,17.632,0,0,0,26.3,36.031Zm9.88,17.286c-8.048-3-13.5-8.367-16.327-14.733a27,27,0,0,1-.435-20.451,1.3,1.3,0,0,1,1.268-.85,21.42,21.42,0,0,0,7.979-1.418,22.88,22.88,0,0,0,7.1-4.343,1.308,1.308,0,0,1,1.751.006,22.131,22.131,0,0,0,15.094,5.756,1.313,1.313,0,0,1,1.268.9,26.979,26.979,0,0,1-.463,20.4c-2.824,6.366-8.277,11.734-16.327,14.733a1.3,1.3,0,0,1-.908,0ZM22.24,37.527c2.489,5.611,7.3,10.406,14.394,13.167,7.093-2.761,11.9-7.556,14.394-13.167a24.3,24.3,0,0,0,.68-17.638,24.61,24.61,0,0,1-15.074-5.675A24.606,24.606,0,0,1,21.56,19.889,24.3,24.3,0,0,0,22.24,37.527ZM51.876,72.552A27.172,27.172,0,0,0,48.16,72.5c.021.058.037.122.052.18a17.964,17.964,0,0,0,1.806,4.358,3.165,3.165,0,0,1-.5,3.843l-.972.972a.574.574,0,0,0,0,.8l2.5,2.495a.568.568,0,0,0,.8,0c.908-.908,1.508-1.7,2.813-1.879a3.194,3.194,0,0,1,2.006.408,17.887,17.887,0,0,0,4.358,1.8,3.18,3.18,0,0,1,2.362,3.079v1.369a.567.567,0,0,0,.562.568h3.531a.568.568,0,0,0,.568-.568c0-1.274-.144-2.272.654-3.308a3.2,3.2,0,0,1,1.71-1.141,17.948,17.948,0,0,0,4.358-1.8,3.172,3.172,0,0,1,3.843.5l.972.972a.574.574,0,0,0,.8,0l2.495-2.495h.006a.559.559,0,0,0,.165-.4h-.006c0-.712-1.789-1.29-2.043-3.207a3.187,3.187,0,0,1,.408-2.008,17.832,17.832,0,0,0,1.8-4.358,3.175,3.175,0,0,1,3.079-2.362v.006h1.375v-.006a.567.567,0,0,0,.562-.568V66.219a.566.566,0,0,0-.562-.562c-1.279,0-2.278.139-3.313-.659a3.159,3.159,0,0,1-1.141-1.71,17.909,17.909,0,0,0-1.8-4.353,3.181,3.181,0,0,1,.5-3.849l.972-.972a.568.568,0,0,0,0-.8l-2.495-2.5a.574.574,0,0,0-.8,0c-.9.908-1.5,1.71-2.809,1.879a3.175,3.175,0,0,1-2.006-.4A18,18,0,0,0,70.4,50.488a3.164,3.164,0,0,1-2.362-3.074V46.04a.567.567,0,0,0-.568-.562H63.944a.566.566,0,0,0-.562.562h-.006v1.375h.006a3.17,3.17,0,0,1-2.362,3.074,17.964,17.964,0,0,0-4.358,1.806,3.174,3.174,0,0,1-3.849-.5l-.972-.972a.568.568,0,0,0-.8,0l-2.5,2.5v-.006a.58.58,0,0,0,0,.8l.972.972v.006a3.163,3.163,0,0,1,.5,3.843c-.234.4-.451.822-.659,1.253.914-.3,1.864-.573,2.836-.822V56.9a1.314,1.314,0,0,1,2.113-1.041l1.667,1.195A14.618,14.618,0,1,1,53.933,76.54,1.322,1.322,0,0,1,52.2,75.3V73.423c-.118-.287-.225-.579-.32-.871Zm-7.012.356a24.1,24.1,0,0,0-12.626,7A1.308,1.308,0,0,1,30.1,78.493a27.107,27.107,0,0,1,8.346-12.44,30.565,30.565,0,0,1,7.593-4.613,20.469,20.469,0,0,1,1.719-3.817.549.549,0,0,0-.09-.686h-.006c-.993-.993-1.9-1.678-1.9-3.223a3.179,3.179,0,0,1,.935-2.251H46.69l2.5-2.5a3.187,3.187,0,0,1,4.5,0l.972.972a.544.544,0,0,0,.686.1,20.627,20.627,0,0,1,4.992-2.072.541.541,0,0,0,.42-.547h.006V46.036h-.006A3.2,3.2,0,0,1,63.6,42.867V12.579a3.759,3.759,0,0,0-3.748-3.742H11.023A3.758,3.758,0,0,0,7.28,12.579v64.89a3.759,3.759,0,0,0,3.742,3.748H45.931c.562-1.641,2.294-2.055,1.826-2.868a20.5,20.5,0,0,1-2.072-5c-.133-.489-.558-.388-.822-.446Zm13.3-14.282L67.1,65.034a1.31,1.31,0,0,1-.021,2.145l-10.985,7.88a12,12,0,1,0,2.07-16.432Zm-17.128,12.6a27.5,27.5,0,0,1,11.9-1.2l.622.075a1.307,1.307,0,0,1,1.259,1.311v1.332L63.6,66.452v-.706l-8.777-6.291v.935A1.307,1.307,0,0,1,53.8,61.662c-7.857,1.815-14.851,5.606-18.986,12.7A25.8,25.8,0,0,1,41.035,71.226ZM66.217,42.852c1.36,0,2.442-.139,3.516.935,1.774,1.774.275,3.886,1.349,4.173a20.426,20.426,0,0,1,5,2.072.536.536,0,0,0,.68-.1c.993-.993,1.684-1.9,3.227-1.9a3.173,3.173,0,0,1,2.251.929l2.495,2.5a3.187,3.187,0,0,1,0,4.5l-.972.972a.543.543,0,0,0-.09.686,20.364,20.364,0,0,1,2.07,4.992.537.537,0,0,0,.547.42c1.4,0,2.532-.159,3.626.935a3.2,3.2,0,0,1,.935,2.251v3.531a3.2,3.2,0,0,1-3.186,3.192v-.006H86.285v.006a.537.537,0,0,0-.547.414,20.686,20.686,0,0,1-2.07,5,.535.535,0,0,0,.09.68c1,.993,1.907,1.684,1.907,3.223h-.006a3.178,3.178,0,0,1-.929,2.251v.006l-2.495,2.495a3.194,3.194,0,0,1-4.508,0l-.972-.972a.535.535,0,0,0-.68-.09,20.722,20.722,0,0,1-5,2.072.537.537,0,0,0-.414.547c0,1.4.154,2.532-.935,3.626a3.2,3.2,0,0,1-2.257.935H63.944a3.193,3.193,0,0,1-3.186-3.192V88.564a.537.537,0,0,0-.42-.547,20.714,20.714,0,0,1-4.992-2.072.543.543,0,0,0-.686.09c-.993.993-1.678,1.907-3.223,1.907a3.169,3.169,0,0,1-2.251-.935l-2.5-2.495a3.435,3.435,0,0,1-.509-.669H11.023a6.382,6.382,0,0,1-6.366-6.372V12.579a6.381,6.381,0,0,1,6.366-6.366H59.846a6.382,6.382,0,0,1,6.372,6.366Z"/>
        </g>
      </g>
    </g>
  </g>
</svg>
