<svg xmlns="http://www.w3.org/2000/svg" xmlns:xlink="http://www.w3.org/1999/xlink" width="88.83" height="85.054" viewBox="0 0 88.83 85.054">
  <defs>
    <clipPath id="clip-path">
      <rect id="Rectangle_413265" data-name="Rectangle 413265" width="78" height="78" transform="translate(610.83 11859.622)" fill="#fff" stroke="#707070" stroke-width="1"/>
    </clipPath>
  </defs>
  <g id="Group_1209910" data-name="Group 1209910" transform="translate(-600 -11852.568)">
    <g id="Rectangle_413264" data-name="Rectangle 413264" transform="translate(600 11852.568)" fill="#fd9826" stroke="#af6a1a" stroke-width="3">
      <rect width="70" height="70" rx="10" stroke="none"/>
      <rect x="1.5" y="1.5" width="67" height="67" rx="8.5" fill="none"/>
    </g>
    <g id="Mask_Group_1099373" data-name="Mask Group 1099373" clip-path="url(#clip-path)">
      <g id="comment_18312803" transform="translate(608.246 11857.275)">
        <g id="Group_1209907" data-name="Group 1209907">
          <path id="Path_1249589" data-name="Path 1249589" d="M20.246,56.606H31.737a1.366,1.366,0,0,1,1,.414L47.778,72.062a1.413,1.413,0,0,0,2.412-1V58.019A1.416,1.416,0,0,1,51.6,56.606H61.916a1.416,1.416,0,0,0,1.413-1.413V26.783a1.416,1.416,0,0,0-1.413-1.413H20.246a1.416,1.416,0,0,0-1.413,1.413v28.41a1.416,1.416,0,0,0,1.413,1.413Z" fill="#959ef1" fill-rule="evenodd"/>
          <path id="Path_1249590" data-name="Path 1249590" d="M30.062,48.994a.942.942,0,1,1,0,1.883H25.075a.942.942,0,1,1,0-1.883ZM46.9,38.581a.942.942,0,0,1,0-1.883H57.087a.942.942,0,0,1,0,1.883Zm-21.825,0a.942.942,0,0,1,0-1.883H36.368a.942.942,0,0,1,0,1.883Zm0,6.148a.942.942,0,1,1,0-1.883H45.168a.942.942,0,1,1,0,1.883Zm32.012,4.265a.942.942,0,1,1,0,1.883H38.167a.942.942,0,1,1,0-1.883ZM25.075,32.434a.942.942,0,0,1,0-1.883h4.987a.942.942,0,0,1,0,1.883Zm9.638,0a.942.942,0,0,1,0-1.883h11.33a.942.942,0,0,1,0,1.883Zm17.388,0a.942.942,0,0,1,0-1.883h4.987a.942.942,0,0,1,0,1.883Zm0,12.3a.942.942,0,0,1,0-1.883h4.987a.942.942,0,1,1,0,1.883Z" fill="#e6e6e6" fill-rule="evenodd"/>
          <path id="Path_1249591" data-name="Path 1249591" d="M20.246,56.606H31.737a1.365,1.365,0,0,1,1,.414l8.37,8.37V25.37H20.246a1.416,1.416,0,0,0-1.413,1.413v28.41a1.416,1.416,0,0,0,1.413,1.413Z" fill="#a0a8f2" fill-rule="evenodd"/>
          <path id="Path_1249592" data-name="Path 1249592" d="M30.062,48.994a.942.942,0,1,1,0,1.883H25.075a.942.942,0,1,1,0-1.883Zm11.044,1.883V48.994H38.167a.942.942,0,1,0,0,1.883Zm0-6.148V42.846H25.075a.942.942,0,1,0,0,1.883Zm0-12.3V30.55H34.713a.942.942,0,1,0,0,1.883ZM25.075,38.581a.942.942,0,0,1,0-1.883H36.368a.942.942,0,0,1,0,1.883Zm0-6.148a.942.942,0,0,1,0-1.883h4.987a.942.942,0,1,1,0,1.883Z" fill="#fff" fill-rule="evenodd"/>
          <path id="Path_1249593" data-name="Path 1249593" d="M25.76,25.37H20.246a1.416,1.416,0,0,0-1.413,1.413v5.511A12.107,12.107,0,0,0,25.76,25.37Z" fill="#958eed" fill-rule="evenodd"/>
          <path id="Path_1249594" data-name="Path 1249594" d="M56.224,56.606h5.692a1.416,1.416,0,0,0,1.413-1.413V47.087A12.081,12.081,0,0,0,56.224,56.606Z" fill="#958eed" fill-rule="evenodd"/>
          <path id="Path_1249595" data-name="Path 1249595" d="M57.491,56.606h4.425a1.416,1.416,0,0,0,1.413-1.413V48.475A10.825,10.825,0,0,0,57.491,56.606Z" fill="#958eed" fill-rule="evenodd"/>
        </g>
        <circle id="Ellipse_12690" data-name="Ellipse 12690" cx="10.813" cy="10.813" r="10.813" transform="translate(55.777 49.197) rotate(-9.208)" fill="#59c9ef"/>
        <path id="Path_1249596" data-name="Path 1249596" d="M68.2,68.947a10.814,10.814,0,0,1,0-21.628Z" fill="#31bceb" fill-rule="evenodd"/>
        <circle id="Ellipse_12691" data-name="Ellipse 12691" cx="10.814" cy="10.814" r="10.814" transform="translate(3.683 10.214)" fill="#ee2b39"/>
        <path id="Path_1249597" data-name="Path 1249597" d="M14.5,31.842a10.814,10.814,0,1,1,0-21.628V31.842Z" fill="#f2535f" fill-rule="evenodd"/>
        <g id="Group_1209908" data-name="Group 1209908">
          <path id="Path_1249598" data-name="Path 1249598" d="M63.331,45.688a1.1,1.1,0,0,1-1.1-1.1V26.782a.319.319,0,0,0-.315-.315H27.994a1.1,1.1,0,1,1,0-2.2H61.917a2.515,2.515,0,0,1,2.512,2.512V44.589a1.1,1.1,0,0,1-1.1,1.1ZM48.762,73.58a2.577,2.577,0,0,0,.977-.2,2.475,2.475,0,0,0,1.551-2.321V58.018A.318.318,0,0,1,51.6,57.7h5.9a1.1,1.1,0,0,0,0-2.2H51.6a2.514,2.514,0,0,0-2.51,2.512V71.061a.315.315,0,0,1-.538.223L33.513,56.242a2.458,2.458,0,0,0-1.775-.736H20.246a.319.319,0,0,1-.314-.315V34.585a1.1,1.1,0,0,0-2.2,0V55.19A2.515,2.515,0,0,0,20.246,57.7H31.738a.273.273,0,0,1,.222.093L47,72.837a2.48,2.48,0,0,0,1.761.742Z" fill-rule="evenodd"/>
          <path id="Path_1249599" data-name="Path 1249599" d="M57.088,38.737H46.9a1.1,1.1,0,1,1,0-2.2H57.088a1.1,1.1,0,0,1,0,2.2Z" fill-rule="evenodd"/>
          <path id="Path_1249600" data-name="Path 1249600" d="M36.369,38.737H25.075a1.1,1.1,0,1,1,0-2.2H36.369a1.1,1.1,0,0,1,0,2.2Z" fill-rule="evenodd"/>
          <path id="Path_1249601" data-name="Path 1249601" d="M45.169,44.884H25.075a1.1,1.1,0,1,1,0-2.2H45.168a1.1,1.1,0,0,1,0,2.2Z" fill-rule="evenodd"/>
          <path id="Path_1249602" data-name="Path 1249602" d="M57.088,51.033H38.168a1.1,1.1,0,1,1,0-2.2h18.92a1.1,1.1,0,0,1,0,2.2Z" fill-rule="evenodd"/>
          <path id="Path_1249603" data-name="Path 1249603" d="M30.062,32.588H25.075a1.1,1.1,0,1,1,0-2.2h4.988a1.1,1.1,0,0,1,0,2.2Z" fill-rule="evenodd"/>
          <path id="Path_1249604" data-name="Path 1249604" d="M46.043,32.588H34.714a1.1,1.1,0,1,1,0-2.2h11.33a1.1,1.1,0,0,1,0,2.2Z" fill-rule="evenodd"/>
          <path id="Path_1249605" data-name="Path 1249605" d="M57.088,32.588H52.1a1.1,1.1,0,1,1,0-2.2h4.988a1.1,1.1,0,0,1,0,2.2Z" fill-rule="evenodd"/>
          <path id="Path_1249606" data-name="Path 1249606" d="M57.088,44.884H52.1a1.1,1.1,0,1,1,0-2.2h4.988a1.1,1.1,0,0,1,0,2.2Z" fill-rule="evenodd"/>
          <path id="Path_1249607" data-name="Path 1249607" d="M30.062,51.033H25.075a1.1,1.1,0,1,1,0-2.2h4.988a1.1,1.1,0,0,1,0,2.2Z" fill-rule="evenodd"/>
          <path id="Path_1249608" data-name="Path 1249608" d="M68.2,48.415a9.716,9.716,0,1,0,9.714,9.716A9.728,9.728,0,0,0,68.2,48.415Zm0,21.629A11.913,11.913,0,1,1,80.11,58.131,11.926,11.926,0,0,1,68.2,70.044Z" fill-rule="evenodd"/>
          <path id="Path_1249609" data-name="Path 1249609" d="M66.646,62.69a1.1,1.1,0,0,1-.777-.322l-3.818-3.817A1.1,1.1,0,0,1,63.6,57l3.041,3.04,6.144-6.144a1.1,1.1,0,0,1,1.554,1.554l-6.921,6.921a1.1,1.1,0,0,1-.777.322Z" fill-rule="evenodd"/>
          <path id="Path_1249610" data-name="Path 1249610" d="M14.5,11.311a9.715,9.715,0,1,0,9.716,9.716A9.726,9.726,0,0,0,14.5,11.311Zm0,21.627A11.912,11.912,0,1,1,26.41,21.027,11.926,11.926,0,0,1,14.5,32.938Z" fill-rule="evenodd"/>
          <path id="Path_1249611" data-name="Path 1249611" d="M18.659,26.287a1.1,1.1,0,0,1-.777-.322L14.5,22.581l-3.385,3.385a1.1,1.1,0,0,1-1.554-1.554l3.385-3.385L9.559,17.64a1.1,1.1,0,1,1,1.553-1.554L14.5,19.473l3.385-3.387a1.1,1.1,0,0,1,1.554,1.554l-3.385,3.387,3.385,3.385a1.1,1.1,0,0,1-.777,1.875Z" fill-rule="evenodd"/>
        </g>
      </g>
    </g>
  </g>
</svg>
