<svg xmlns="http://www.w3.org/2000/svg" xmlns:xlink="http://www.w3.org/1999/xlink" width="88.83" height="85.054" viewBox="0 0 88.83 85.054">
  <defs>
    <clipPath id="clip-path">
      <rect id="Rectangle_413214" data-name="Rectangle 413214" width="78" height="78" transform="translate(1132 7610.258)" fill="#fff" stroke="#707070" stroke-width="1"/>
    </clipPath>
  </defs>
  <g id="Group_1209797" data-name="Group 1209797" transform="translate(-1121.17 -7603.205)">
    <g id="Rectangle_413213" data-name="Rectangle 413213" transform="translate(1121.17 7603.205)" fill="#fd9826" stroke="#af6a1a" stroke-width="3">
      <rect width="70" height="70" rx="10" stroke="none"/>
      <rect x="1.5" y="1.5" width="67" height="67" rx="8.5" fill="none"/>
    </g>
    <g id="Mask_Group_1099386" data-name="Mask Group 1099386" clip-path="url(#clip-path)">
      <g id="bank_2125349" transform="translate(1129.4 7607.659)">
        <path id="Path_1279520" data-name="Path 1279520" d="M63.7,28.6V59.8H19.5V28.6h1.3V27.3H62.4v1.3Z" fill="#acabb1"/>
        <path id="Path_1279521" data-name="Path 1279521" d="M61.1,27.3h2.6V59.8H61.1Z" fill="#95949b"/>
        <path id="Path_1279522" data-name="Path 1279522" d="M63.7,28.6V59.8h7.8V28.6Z" fill="#c6c5ca"/>
        <path id="Path_1279523" data-name="Path 1279523" d="M76.7,65H52l1.3,5.2,1.3,5.2H79.3V65Z" fill="#787680"/>
        <path id="Path_1279524" data-name="Path 1279524" d="M71.5,59.8H6.5V65H76.7V59.8Z" fill="#898890"/>
        <path id="Path_1279525" data-name="Path 1279525" d="M76.7,15.6v7.8H6.5V15.6L41.6,7.8Z" fill="#acabb1"/>
        <path id="Path_1279526" data-name="Path 1279526" d="M64.012,59.8H63.7v-.312Z" fill="#bddbff"/>
        <path id="Path_1279527" data-name="Path 1279527" d="M64.012,59.8H63.7v-.312Z" fill="#c6c5ca"/>
        <path id="Path_1279528" data-name="Path 1279528" d="M51.714,32.786A14.3,14.3,0,0,1,53.378,51,13.758,13.758,0,0,1,49.7,54.678a14.3,14.3,0,1,1,2.015-21.892Z" fill="#ffeb00"/>
        <path id="Path_1279529" data-name="Path 1279529" d="M53.391,51.012l3.835,3.835.013.013L53.56,58.539l-.013-.013-3.835-3.835-.013-.013A13.758,13.758,0,0,0,53.378,51Z" fill="#ffb655"/>
        <path id="Path_1279530" data-name="Path 1279530" d="M62.4,23.4v3.9H20.8V23.4Z" fill="#d8d7da"/>
        <path id="Path_1279531" data-name="Path 1279531" d="M72.8,23.4v5.2H62.4V23.4Z" fill="#c6c5ca"/>
        <path id="Path_1279532" data-name="Path 1279532" d="M58.149,53.937l-.91.923L53.56,58.539l-.923.91.351.351L56.3,63.128h.013L59.631,59.8l2.2-2.184Z" fill="#ffa733"/>
        <path id="Path_1279533" data-name="Path 1279533" d="M70.1,65.884,69.212,65l-5.2-5.2-.312-.312-1.872-1.872-2.2,2.184-3.315,3.328L58.188,65l6.4,6.4a1.3,1.3,0,0,0,1.833,0L70.1,67.717A1.3,1.3,0,0,0,70.1,65.884Z" fill="#ee8700"/>
        <path id="Path_1279534" data-name="Path 1279534" d="M53.3,70.2l1.3,5.2h-26l1.3-5.2Z" fill="#acabb1"/>
        <path id="Path_1279535" data-name="Path 1279535" d="M52,65l1.3,5.2H29.9L31.2,65Z" fill="#c6c5ca"/>
        <path id="Path_1279536" data-name="Path 1279536" d="M11.7,28.6h7.8V59.8H11.7Z" fill="#c6c5ca"/>
        <path id="Path_1279537" data-name="Path 1279537" d="M32.5,65l-1.3,5.2-1.3,5.2H5.2V65H32.5Z" fill="#787680"/>
        <circle id="Ellipse_12717" data-name="Ellipse 12717" cx="2.6" cy="2.6" r="2.6" transform="translate(39 13)" fill="#ff9811"/>
        <path id="Path_1279538" data-name="Path 1279538" d="M11.7,28.6h7.8v2.6H11.7Z" fill="#acabb1"/>
        <path id="Path_1279539" data-name="Path 1279539" d="M63.7,28.6h7.8v2.6H63.7Z" fill="#acabb1"/>
        <path id="Path_1279540" data-name="Path 1279540" d="M19.5,27.3V59.8h2.6V27.3Z" fill="#95949b"/>
        <path id="Path_1279541" data-name="Path 1279541" d="M20.8,27.3v1.3H10.4V23.4H20.8Z" fill="#c6c5ca"/>
        <path id="Path_1279542" data-name="Path 1279542" d="M41.6,11.7a3.9,3.9,0,1,0,3.9,3.9A3.9,3.9,0,0,0,41.6,11.7Zm0,5.2a1.3,1.3,0,1,1,1.3-1.3A1.3,1.3,0,0,1,41.6,16.9Z"/>
        <path id="Path_1279543" data-name="Path 1279543" d="M40.3,39h2.6a1.3,1.3,0,0,1,1.3,1.3h2.6a3.9,3.9,0,0,0-3.9-3.9V35.1H40.3v1.3a3.9,3.9,0,0,0,0,7.8h2.6a1.3,1.3,0,0,1,0,2.6H40.3A1.3,1.3,0,0,1,39,45.5H36.4a3.9,3.9,0,0,0,3.9,3.9v1.3h2.6V49.4a3.9,3.9,0,1,0,0-7.8H40.3a1.3,1.3,0,0,1,0-2.6Z"/>
        <path id="Path_1279544" data-name="Path 1279544" d="M79.3,63.7H78V59.8a1.3,1.3,0,0,0-1.3-1.3H72.8V29.9a1.3,1.3,0,0,0,1.3-1.3V24.7h2.6A1.3,1.3,0,0,0,78,23.4V15.6a1.3,1.3,0,0,0-1.018-1.27l-35.1-7.8a1.331,1.331,0,0,0-.564,0l-35.1,7.8A1.3,1.3,0,0,0,5.2,15.6v7.8a1.3,1.3,0,0,0,1.3,1.3H9.1v3.9a1.3,1.3,0,0,0,1.3,1.3V58.5H6.5a1.3,1.3,0,0,0-1.3,1.3v3.9H3.9A1.3,1.3,0,0,0,2.6,65V75.4a1.3,1.3,0,0,0,1.3,1.3H79.3a1.3,1.3,0,0,0,1.3-1.3V65A1.3,1.3,0,0,0,79.3,63.7Zm-3.9,0H69.753l-2.6-2.6H75.4Zm-14.3-39V26h-39V24.7Zm1.3,31.647-3.334-3.336a1.3,1.3,0,0,0-1.838,0l-2.2-2.2A15.548,15.548,0,0,0,47.8,28.6H61.1a1.3,1.3,0,0,0,1.3,1.3ZM50.792,52.092a13,13,0,1,1,0-18.385A13,13,0,0,1,50.792,52.092Zm1.838,1.838c.311-.309.6-.637.874-.966l1.885,1.885-1.84,1.84L51.665,54.8C51.993,54.526,52.321,54.241,52.63,53.931ZM22.1,28.6H35.4A15.586,15.586,0,1,0,49.511,56.326L51.685,58.5H20.8V29.9A1.3,1.3,0,0,0,22.1,28.6ZM58.146,55.77l1.838,1.84-3.676,3.676-1.838-1.84Zm0,7.354,3.676-3.676L69.178,66.8,65.5,70.478ZM70.2,58.5H65V29.9h5.2Zm1.3-31.2H63.7V24.7h7.8ZM7.8,16.64,41.6,9.131,75.4,16.64V22.1H7.8ZM19.5,24.7v2.6H11.7V24.7ZM13,29.9h5.2V58.5H13ZM7.8,61.1H52.447l2.6,2.6H7.8ZM30.914,71.5H52.286l.65,2.6H30.264Zm20.722-2.6H31.564l.65-2.6H50.986ZM5.2,66.3H29.536l-1.95,7.8H5.2ZM78,74.1H55.614l-1.95-7.8h3.983l6.015,6.015a2.6,2.6,0,0,0,3.676,0l3.676-3.675a2.6,2.6,0,0,0,.712-2.34H78Z"/>
      </g>
    </g>
  </g>
</svg>
