<svg xmlns="http://www.w3.org/2000/svg" xmlns:xlink="http://www.w3.org/1999/xlink" width="88.83" height="85.054" viewBox="0 0 88.83 85.054">
  <defs>
    <clipPath id="clip-path">
      <rect id="Rectangle_413289" data-name="Rectangle 413289" width="78" height="78" transform="translate(773 8139.383)" fill="#fff" stroke="#707070" stroke-width="1"/>
    </clipPath>
  </defs>
  <g id="Group_1209993" data-name="Group 1209993" transform="translate(-762.17 -8132.329)">
    <g id="Rectangle_413288" data-name="Rectangle 413288" transform="translate(762.17 8132.329)" fill="#fd9826" stroke="#af6a1a" stroke-width="3">
      <rect width="70" height="70" rx="10" stroke="none"/>
      <rect x="1.5" y="1.5" width="67" height="67" rx="8.5" fill="none"/>
    </g>
    <g id="Mask_Group_1099386" data-name="Mask Group 1099386" clip-path="url(#clip-path)">
      <g id="invoice_10722325" transform="translate(771.724 8138.106)">
        <g id="Group_1209976" data-name="Group 1209976">
          <g id="Group_1209971" data-name="Group 1209971">
            <path id="Path_1249855" data-name="Path 1249855" d="M29.632,4.58H65.121a1.118,1.118,0,0,1,.819.339l6.5,6.5a1.118,1.118,0,0,1,.339.819V60.843A1.16,1.16,0,0,1,71.621,62H29.632a1.16,1.16,0,0,1-1.158-1.158V5.737A1.16,1.16,0,0,1,29.632,4.58Z" fill="#b1b1b5" fill-rule="evenodd"/>
            <path id="Path_1249856" data-name="Path 1249856" d="M65.6,4.68a1.162,1.162,0,0,1,.339.239l6.5,6.5a1.162,1.162,0,0,1,.239.339h-6.5a.58.58,0,0,1-.579-.579V4.68Z" fill="#a79ba7" fill-rule="evenodd"/>
          </g>
          <g id="Group_1209972" data-name="Group 1209972">
            <path id="Path_1249857" data-name="Path 1249857" d="M21.854,12.358H57.342a1.118,1.118,0,0,1,.819.339l6.5,6.5a1.118,1.118,0,0,1,.339.819V68.622a1.16,1.16,0,0,1-1.158,1.158H21.854A1.16,1.16,0,0,1,20.7,68.622V13.516a1.16,1.16,0,0,1,1.158-1.158Z" fill="#d1d1d6" fill-rule="evenodd"/>
            <path id="Path_1249858" data-name="Path 1249858" d="M57.822,12.459a1.162,1.162,0,0,1,.339.239l6.5,6.5a1.162,1.162,0,0,1,.239.339H58.4a.58.58,0,0,1-.579-.579v-6.5Z" fill="#a79ba7" fill-rule="evenodd"/>
          </g>
          <g id="Group_1209973" data-name="Group 1209973">
            <path id="Path_1249859" data-name="Path 1249859" d="M14.075,20.137H49.563a1.118,1.118,0,0,1,.819.339l6.5,6.5a1.118,1.118,0,0,1,.339.819V76.4a1.16,1.16,0,0,1-1.158,1.158H14.075A1.16,1.16,0,0,1,12.917,76.4V21.295a1.16,1.16,0,0,1,1.158-1.158Z" fill="#eceff1" fill-rule="evenodd"/>
            <path id="Path_1249860" data-name="Path 1249860" d="M14.075,20.137h2.118V77.559H14.075A1.16,1.16,0,0,1,12.917,76.4V21.295a1.16,1.16,0,0,1,1.158-1.158Z" fill="#d1d1d6" fill-rule="evenodd"/>
            <path id="Path_1249861" data-name="Path 1249861" d="M50.043,20.237a1.16,1.16,0,0,1,.339.239l6.5,6.5a1.162,1.162,0,0,1,.239.339h-6.5a.58.58,0,0,1-.579-.579v-6.5Z" fill="#a79ba7" fill-rule="evenodd"/>
          </g>
          <g id="Group_1209974" data-name="Group 1209974">
            <circle id="Ellipse_12708" data-name="Ellipse 12708" cx="11.642" cy="11.642" r="11.642" transform="translate(55.204 51.707)" fill="#8ac9fe"/>
            <path id="Path_1249862" data-name="Path 1249862" d="M66.846,51.707a11.642,11.642,0,1,1,0,23.285c-.264,0-.525-.01-.784-.027a11.642,11.642,0,0,0,0-23.231C66.321,51.716,66.583,51.707,66.846,51.707Z" fill="#60b7ff" fill-rule="evenodd"/>
            <circle id="Ellipse_12709" data-name="Ellipse 12709" cx="9.045" cy="9.045" r="9.045" transform="translate(57.638 54.502) rotate(-1.26)" fill="#eceff1"/>
            <path id="Path_1249863" data-name="Path 1249863" d="M66.846,54.306a9.043,9.043,0,0,0,0,18.086q.368,0,.729-.029a9.043,9.043,0,0,1,0-18.027Q67.215,54.307,66.846,54.306Z" fill="#d1d1d6" fill-rule="evenodd"/>
          </g>
          <g id="Group_1209975" data-name="Group 1209975">
            <circle id="Ellipse_12710" data-name="Ellipse 12710" cx="10.897" cy="10.897" r="10.897" transform="translate(2.514 23.959) rotate(-88.396)" fill="#ffc338"/>
            <path id="Path_1249864" data-name="Path 1249864" d="M13.7,2.48a10.893,10.893,0,0,1,0,21.785c-.314,0-.625-.014-.932-.04a10.893,10.893,0,0,0,0-21.705c.308-.026.618-.04.932-.04Z" fill="#f5b829" fill-rule="evenodd"/>
          </g>
        </g>
        <path id="Path_1249865" data-name="Path 1249865" d="M29.385,5.38h35.2v5.446a1.85,1.85,0,0,0,1.852,1.846h5.444V52.314a12.061,12.061,0,0,0-5.029-1.1c-.074,0-.155.005-.23.006V19.679a2.391,2.391,0,0,0-.718-1.721l-6.6-6.6a2.4,2.4,0,0,0-1.726-.713H29.385V5.38ZM21.749,31.14H40.872a1.259,1.259,0,1,0,0-2.517H21.749a1.259,1.259,0,1,0,0,2.517ZM48.39,67.878H21.749a1.259,1.259,0,1,0,0,2.517H48.39a1.259,1.259,0,1,0,0-2.517Zm0-7.851H21.749a1.259,1.259,0,1,0,0,2.517H48.39a1.259,1.259,0,1,0,0-2.517Zm0-7.851H21.749a1.259,1.259,0,1,0,0,2.517H48.39a1.259,1.259,0,1,0,0-2.517Zm0-7.851H21.749a1.259,1.259,0,1,0,0,2.517H48.39a1.259,1.259,0,1,0,0-2.517Zm0-7.851H21.749a1.259,1.259,0,1,0,0,2.517H48.39a1.259,1.259,0,1,0,0-2.517Zm17.2,20.416V63.35a1.267,1.267,0,0,0,.629,1.089l4.673,2.7a1.266,1.266,0,0,0,1.726-.461,1.255,1.255,0,0,0-.467-1.719l-4.044-2.335V56.89a1.259,1.259,0,1,0-2.518,0ZM18.424,15.767c-.244-1.987-1.755-3.224-4.5-3.674-2.037-.334-2.074-1.064-2.081-1.338-.052-1.038,1.089-1.35,1.318-1.4a2.187,2.187,0,0,1,2.592,1.2,1.257,1.257,0,1,0,2.318-.974,4.459,4.459,0,0,0-3.1-2.66V6.492a1.259,1.259,0,0,0-2.518,0v.443a3.9,3.9,0,0,0-3.125,3.941C9.38,12.01,10,14,13.513,14.576c2.274.374,2.37,1.159,2.414,1.495a.818.818,0,0,1-.193.7,2.775,2.775,0,0,1-1.918.691,2.232,2.232,0,0,1-2.378-1.464A1.259,1.259,0,0,0,9,16.6a4.45,4.45,0,0,0,3.451,3.231v.421a1.259,1.259,0,0,0,2.518,0v-.4a4.8,4.8,0,0,0,2.681-1.442,3.344,3.344,0,0,0,.778-2.646ZM26.867,5.3v5.344H25.526a12.164,12.164,0,0,0-10.9-9.365H12.773a12.133,12.133,0,0,0-1.467,23.99V76.841a2.441,2.441,0,0,0,2.437,2.435H56.4a2.434,2.434,0,0,0,2.429-2.435v-4.4A12.123,12.123,0,1,0,74.394,53.861V11.9a2.386,2.386,0,0,0-.711-1.722l-6.606-6.6a2.38,2.38,0,0,0-1.718-.713H29.3A2.434,2.434,0,0,0,26.867,5.3ZM25.83,13.159c0,.071.007.142.007.215a12.105,12.105,0,0,1-1.1,5.047H49.8a2.369,2.369,0,0,1,1.718.713l6.607,6.6a2.385,2.385,0,0,1,.711,1.721v26.8A12.124,12.124,0,0,1,64.1,51.538V20.451H58.655A1.851,1.851,0,0,1,56.8,18.6V13.159Zm-2.651,7.778A12.1,12.1,0,0,1,13.824,25.5V76.759h42.5v-7.4a12.089,12.089,0,0,1,0-12.02V28.23H50.871a1.849,1.849,0,0,1-1.844-1.846V20.938ZM57.233,63.35a9.613,9.613,0,1,1,9.613,9.613A9.628,9.628,0,0,1,57.233,63.35ZM23.319,13.374a9.613,9.613,0,1,1-9.613-9.616,9.623,9.623,0,0,1,9.613,9.616Zm36,4.56h3l-3-3ZM67.1,10.156h3l-3-3ZM51.545,25.713h2.992l-2.992-3Z" fill-rule="evenodd"/>
      </g>
    </g>
  </g>
</svg>
