<svg xmlns="http://www.w3.org/2000/svg" xmlns:xlink="http://www.w3.org/1999/xlink" width="88.83" height="85.054" viewBox="0 0 88.83 85.054">
  <defs>
    <clipPath id="clip-path">
      <rect id="Rectangle_413263" data-name="Rectangle 413263" width="78" height="78" transform="translate(292 11859.622)" fill="#fff" stroke="#707070" stroke-width="1"/>
    </clipPath>
    <clipPath id="clip-path-2">
      <path id="path3651" d="M0-78H78V0H0Z"/>
    </clipPath>
  </defs>
  <g id="Group_1209909" data-name="Group 1209909" transform="translate(-281.17 -11852.568)">
    <g id="Rectangle_413262" data-name="Rectangle 413262" transform="translate(281.17 11852.568)" fill="#fd9826" stroke="#af6a1a" stroke-width="3">
      <rect width="70" height="70" rx="10" stroke="none"/>
      <rect x="1.5" y="1.5" width="67" height="67" rx="8.5" fill="none"/>
    </g>
    <g id="Mask_Group_1099374" data-name="Mask Group 1099374" clip-path="url(#clip-path)">
      <g id="g3645" transform="translate(292 11937.622)">
        <g id="g3647">
          <g id="g3649" clip-path="url(#clip-path-2)">
            <g id="g3655" transform="translate(68.783 -22.137)">
              <path id="path3657" d="M0,0H-45.855A3.047,3.047,0,0,1-48.9-3.047V-23.309a3.047,3.047,0,0,1,3.047-3.047H0a3.047,3.047,0,0,1,3.047,3.047V-3.047A3.047,3.047,0,0,1,0,0" fill="#91ce96"/>
            </g>
            <g id="g3659" transform="translate(71.83 -45.446)">
              <path id="path3661" d="M0,0V20.262a3.046,3.046,0,0,1-3.047,3.047h-4.57A3.046,3.046,0,0,0-4.57,20.262V0A3.047,3.047,0,0,0-7.617-3.047h4.57A3.047,3.047,0,0,1,0,0" fill="#6daa71"/>
            </g>
            <g id="g3663" transform="translate(67.26 -37.828)">
              <path id="path3665" d="M0,0V5.027a.762.762,0,0,1-.762.762,4.57,4.57,0,0,0-4.57,4.57.762.762,0,0,1-.762.762H-36.715a.762.762,0,0,1-.762-.762,4.57,4.57,0,0,0-4.57-4.57.762.762,0,0,1-.762-.762V-1.523a.762.762,0,0,1,.762-.762c2.524,0,4.57-.523,4.57-3.047a.762.762,0,0,1,.762-.762H-6.094a.762.762,0,0,1,.762.762A4.57,4.57,0,0,0-.762-.762.762.762,0,0,1,0,0" fill="#6daa71"/>
            </g>
            <g id="g3667" transform="translate(45.855 -31.277)">
              <path id="path3669" d="M0,0H0A4.037,4.037,0,0,1-4.037-4.037,4.037,4.037,0,0,1,0-8.074,4.037,4.037,0,0,1,4.037-4.037,4.037,4.037,0,0,1,0,0" fill="#91ce96"/>
            </g>
            <g id="g3671" transform="translate(52.025 -38.894)">
              <path id="path3673" d="M0,0H-45.855A3.047,3.047,0,0,1-48.9-3.047V-23.309a3.047,3.047,0,0,1,3.047-3.047H0a3.047,3.047,0,0,1,3.047,3.047V-3.047A3.047,3.047,0,0,1,0,0" fill="#99d0f2"/>
            </g>
            <g id="g3675" transform="translate(55.072 -62.203)">
              <path id="path3677" d="M0,0V20.262a3.046,3.046,0,0,1-3.047,3.047h-4.57A3.046,3.046,0,0,0-4.57,20.262V0A3.047,3.047,0,0,0-7.617-3.047h4.57A3.047,3.047,0,0,1,0,0" fill="#64b1cc"/>
            </g>
            <g id="g3679" transform="translate(50.502 -56.109)">
              <path id="path3681" d="M0,0V6.551a.762.762,0,0,1-.762.762,4.57,4.57,0,0,0-4.57,4.57.762.762,0,0,1-.762.762H-36.715a.762.762,0,0,1-.762-.762,4.57,4.57,0,0,0-4.57-4.57.762.762,0,0,1-.762-.762V1.523a.762.762,0,0,1,.762-.762,4.57,4.57,0,0,0,4.57-4.57.762.762,0,0,1,.762-.762H-6.094a.762.762,0,0,1,.762.762c0,2.524,2.046,3.047,4.57,3.047A.762.762,0,0,1,0,0" fill="#e3f7ff"/>
            </g>
            <g id="g3683" transform="translate(29.098 -48.035)">
              <path id="path3685" d="M0,0H0A4.037,4.037,0,0,1-4.037-4.037,4.037,4.037,0,0,1,0-8.074,4.037,4.037,0,0,1,4.037-4.037,4.037,4.037,0,0,1,0,0" fill="#99d0f2"/>
            </g>
            <g id="g3687" transform="translate(52.863 -54.738)">
              <path id="path3689" d="M0,0H0A9.826,9.826,0,0,1-9.826-9.826,9.826,9.826,0,0,1,0-19.652,9.826,9.826,0,0,1,9.826-9.826,9.826,9.826,0,0,1,0,0" fill="#ddd"/>
            </g>
            <g id="g3691" transform="translate(52.863 -59.308)">
              <path id="path3693" d="M0,0H0A5.256,5.256,0,0,1-5.256-5.256,5.256,5.256,0,0,1,0-10.512,5.256,5.256,0,0,1,5.256-5.256,5.256,5.256,0,0,1,0,0" fill="#bfbfbf"/>
            </g>
            <g id="g3695" transform="translate(58.119 -64.565)">
              <path id="path3697" d="M0,0A5.239,5.239,0,0,1-1.54,3.717,5.24,5.24,0,0,1-5.256,5.256a5.242,5.242,0,0,1-2.285-.521A5.291,5.291,0,0,0-6.111,3.717,5.239,5.239,0,0,0-4.57,0a5.232,5.232,0,0,0-1.54-3.716A5.3,5.3,0,0,0-7.541-4.735a5.242,5.242,0,0,1,2.285-.521A5.235,5.235,0,0,1-1.54-3.716,5.232,5.232,0,0,1,0,0" fill="#a8a8a8"/>
            </g>
            <path id="path3699" d="M11.223-8.273H66.879v-4.57H11.223Z" fill="#bfbfbf"/>
            <g id="g3701" transform="translate(64.213 -4.366)">
              <path id="path3703" d="M0,0V-12.385a.755.755,0,0,1,1.122-.66L12.256-6.853a.755.755,0,0,1,0,1.32L1.122.66A.755.755,0,0,1,0,0" fill="#ddd"/>
            </g>
            <g id="g3705" transform="translate(76.469 -9.898)">
              <path id="path3707" d="M0,0-11.133,6.191a.755.755,0,0,1-1.123-.66V4.275L-4.57,0a.756.756,0,0,0,0-1.321L-12.256-5.6V-6.854a.755.755,0,0,1,1.123-.66L0-1.321A.756.756,0,0,1,0,0" fill="#bfbfbf"/>
            </g>
            <g id="g3709" transform="translate(13.787 -4.366)">
              <path id="path3711" d="M0,0V-12.385a.755.755,0,0,0-1.122-.66L-12.256-6.853a.755.755,0,0,0,0,1.32L-1.122.66A.755.755,0,0,0,0,0" fill="#ddd"/>
            </g>
            <g id="g3713" transform="translate(66.879 -42.018)">
              <path id="path3715" d="M0,0A1.525,1.525,0,0,0,1.523-1.523,1.525,1.525,0,0,0,0-3.047,1.525,1.525,0,0,0-1.523-1.523,1.525,1.525,0,0,0,0,0"/>
            </g>
            <g id="g3717" transform="translate(66.879 -28.612)">
              <path id="path3719" d="M0,0A1.525,1.525,0,0,0-1.523,1.523,1.525,1.525,0,0,0,0,3.047,1.525,1.525,0,0,0,1.523,1.523,1.525,1.525,0,0,0,0,0"/>
            </g>
            <g id="g3721" transform="translate(24.832 -28.612)">
              <path id="path3723" d="M0,0A1.525,1.525,0,0,0-1.523,1.523,1.525,1.525,0,0,0,0,3.047,1.525,1.525,0,0,0,1.523,1.523,1.525,1.525,0,0,0,0,0"/>
            </g>
            <g id="g3725" transform="translate(47.415 -37.753)">
              <path id="path3727" d="M0,0A2.9,2.9,0,0,1,1.335,2.438,2.9,2.9,0,0,1-1.56,5.332,2.9,2.9,0,0,1-4.455,2.438,2.9,2.9,0,0,1-3.121,0ZM5.9-.206V5.252a1.143,1.143,0,0,0,2.285,0V-.371a1.14,1.14,0,0,0-.523-.959A4.173,4.173,0,0,0,8.8-4.189v-.838h4.583A5.722,5.722,0,0,0,18.7.292V4.583a5.722,5.722,0,0,0-5.32,5.32H-16.5a5.723,5.723,0,0,0-5.32-5.32V0H-11.31V5.252a1.143,1.143,0,0,0,1.143,1.143A1.143,1.143,0,0,0-9.025,5.252V0h2.9A5.172,5.172,0,0,0-6.74,2.438a5.186,5.186,0,0,0,5.18,5.18,5.186,5.186,0,0,0,5.18-5.18A5.173,5.173,0,0,0,3.005,0h1.6A4.172,4.172,0,0,0,5.9-.206M21.368-9.6a1.906,1.906,0,0,1,1.9,1.9V12.568a1.906,1.906,0,0,1-1.9,1.9H-24.488a1.906,1.906,0,0,1-1.9-1.9V0h2.285V4.951a1.906,1.906,0,0,0,1.9,1.9,3.432,3.432,0,0,1,3.428,3.428,1.906,1.906,0,0,0,1.9,1.9H13.751a1.906,1.906,0,0,0,1.9-1.9,3.432,3.432,0,0,1,3.428-3.428,1.906,1.906,0,0,0,1.9-1.9V-.076a1.906,1.906,0,0,0-1.9-1.9,3.432,3.432,0,0,1-3.428-3.428,1.906,1.906,0,0,0-1.9-1.9H8.8V-9.6Zm-24.6-17.215A8.693,8.693,0,0,1,5.448-35.5a8.694,8.694,0,0,1,8.684,8.684,8.694,8.694,0,0,1-8.684,8.684,8.693,8.693,0,0,1-8.684-8.684m5.18,14.637a5.722,5.722,0,0,0-5.32,5.32H-33.26a5.723,5.723,0,0,0-5.32-5.32v-4.291a5.722,5.722,0,0,0,5.32-5.319H-4.3a11.022,11.022,0,0,0,6.24,5.364ZM-41.246,0h12.568V12.568a4.194,4.194,0,0,0,4.189,4.189H21.368a4.194,4.194,0,0,0,4.189-4.189V-7.693a4.194,4.194,0,0,0-4.189-4.189H8.8v-4.487a10.987,10.987,0,0,0,7.617-10.443A10.981,10.981,0,0,0,5.448-37.781,10.984,10.984,0,0,0-5.366-28.641h-35.88a4.194,4.194,0,0,0-4.189,4.189V-14.1a1.143,1.143,0,0,0,1.143,1.143A1.143,1.143,0,0,0-43.15-14.1V-24.451a1.906,1.906,0,0,1,1.9-1.9H-5.509a10.935,10.935,0,0,0,.335,2.285H-33.628a1.906,1.906,0,0,0-1.9,1.9,3.432,3.432,0,0,1-3.428,3.428,1.906,1.906,0,0,0-1.9,1.9v5.027a1.906,1.906,0,0,0,1.9,1.9,3.432,3.432,0,0,1,3.428,3.428,1.906,1.906,0,0,0,1.9,1.9H-3.007a1.906,1.906,0,0,0,1.9-1.9A3.432,3.432,0,0,1,2.325-9.9a1.906,1.906,0,0,0,1.9-1.9v-4.107a11.029,11.029,0,0,0,1.219.069c.36,0,.715-.019,1.066-.053V-4.189a1.906,1.906,0,0,1-1.9,1.9H-41.246a1.906,1.906,0,0,1-1.9-1.9V-8.764a1.143,1.143,0,0,0-1.143-1.143,1.143,1.143,0,0,0-1.143,1.143v4.575A4.194,4.194,0,0,0-41.246,0"/>
            </g>
            <g id="g3729" transform="translate(29.098 -49.178)">
              <path id="path3731" d="M0,0A2.9,2.9,0,0,1-2.895-2.895,2.9,2.9,0,0,1,0-5.789,2.9,2.9,0,0,1,2.895-2.895,2.9,2.9,0,0,1,0,0M0-8.074a5.185,5.185,0,0,0-5.18,5.18A5.186,5.186,0,0,0,0,2.285a5.186,5.186,0,0,0,5.18-5.18A5.185,5.185,0,0,0,0-8.074"/>
            </g>
            <g id="g3733" transform="translate(37.705 -56.024)">
              <path id="path3735" d="M0,0A1.142,1.142,0,0,0-1.143,1.143V6.765A1.142,1.142,0,0,0,0,7.908,1.142,1.142,0,0,0,1.143,6.765V1.143A1.142,1.142,0,0,0,0,0"/>
            </g>
            <g id="g3737" transform="translate(20.49 -56.024)">
              <path id="path3739" d="M0,0A1.142,1.142,0,0,0-1.143,1.143V6.765A1.142,1.142,0,0,0,0,7.908,1.142,1.142,0,0,0,1.143,6.765V1.143A1.142,1.142,0,0,0,0,0"/>
            </g>
            <g id="g3741" transform="translate(51.645 -43.846)">
              <path id="path3743" d="M0,0A1.525,1.525,0,0,0-1.523-1.523,1.525,1.525,0,0,0-3.047,0,1.525,1.525,0,0,0-1.523,1.523,1.525,1.525,0,0,0,0,0"/>
            </g>
            <g id="g3745" transform="translate(9.598 -60.299)">
              <path id="path3747" d="M0,0A1.525,1.525,0,0,0-1.523-1.523,1.525,1.525,0,0,0-3.047,0,1.525,1.525,0,0,0-1.523,1.523,1.525,1.525,0,0,0,0,0"/>
            </g>
            <g id="g3749" transform="translate(9.598 -43.846)">
              <path id="path3751" d="M0,0A1.525,1.525,0,0,0-1.523-1.523,1.525,1.525,0,0,0-3.047,0,1.525,1.525,0,0,0-1.523,1.523,1.525,1.525,0,0,0,0,0"/>
            </g>
            <g id="g3753" transform="translate(52.863 -60.452)">
              <path id="path3755" d="M0,0A4.118,4.118,0,0,1-4.113-4.113,4.118,4.118,0,0,1,0-8.227,4.118,4.118,0,0,1,4.113-4.113,4.118,4.118,0,0,1,0,0M0-10.512a6.406,6.406,0,0,0-6.4,6.4A6.406,6.406,0,0,0,0,2.285a6.406,6.406,0,0,0,6.4-6.4,6.406,6.406,0,0,0-6.4-6.4"/>
            </g>
            <g id="g3757" transform="translate(65.355 -5.025)">
              <path id="path3759" d="M0,0V-11.068L9.95-5.534ZM-52.711,0l-9.95-5.534,9.95-5.534Zm64.38-7.193L.535-13.385a1.881,1.881,0,0,0-1.884.023,1.881,1.881,0,0,0-.936,1.636v7.335H-50.426V-6.676H-6.475A1.143,1.143,0,0,0-5.332-7.819,1.142,1.142,0,0,0-6.475-8.962H-50.426v-2.765a1.881,1.881,0,0,0-.936-1.636,1.88,1.88,0,0,0-1.885-.023L-64.38-7.192a1.9,1.9,0,0,0-.975,1.659,1.9,1.9,0,0,0,.975,1.658l11.134,6.192a1.9,1.9,0,0,0,.923.242,1.893,1.893,0,0,0,.961-.264A1.881,1.881,0,0,0-50.426.659V-2.106H-2.285V.659a1.881,1.881,0,0,0,.936,1.636,1.891,1.891,0,0,0,.961.264,1.9,1.9,0,0,0,.923-.242L11.669-3.875a1.9,1.9,0,0,0,.975-1.658,1.9,1.9,0,0,0-.975-1.659"/>
            </g>
          </g>
        </g>
      </g>
    </g>
  </g>
</svg>
