<svg xmlns="http://www.w3.org/2000/svg" xmlns:xlink="http://www.w3.org/1999/xlink" width="88.83" height="85.054" viewBox="0 0 88.83 85.054">
  <defs>
    <clipPath id="clip-path">
      <rect id="Rectangle_413258" data-name="Rectangle 413258" width="78" height="78" transform="translate(400.83 4854.622)" fill="#fff" stroke="#707070" stroke-width="1"/>
    </clipPath>
  </defs>
  <g id="Group_1209896" data-name="Group 1209896" transform="translate(-390 -4847.568)">
    <g id="Rectangle_413257" data-name="Rectangle 413257" transform="translate(390 4847.568)" fill="#fd9826" stroke="#af6a1a" stroke-width="3">
      <rect width="70" height="70" rx="10" stroke="none"/>
      <rect x="1.5" y="1.5" width="67" height="67" rx="8.5" fill="none"/>
    </g>
    <g id="Mask_Group_1099370" data-name="Mask Group 1099370" clip-path="url(#clip-path)">
      <g id="Layer_22" data-name="Layer 22" transform="translate(399.572 4853.364)">
        <path id="Path_1249538" data-name="Path 1249538" d="M78,27.677V78H32.71V15.1h32.71Z" fill="#c8cded"/>
        <path id="Path_1249539" data-name="Path 1249539" d="M47.806,15.1V67.935H2.516V2.516h32.71Z" fill="#e2e7f6"/>
        <path id="Path_1249540" data-name="Path 1249540" d="M44.032,61.645V11.323L35.226,2.516H2.516V61.645Z" fill="#f2f2f2"/>
        <path id="Path_1249541" data-name="Path 1249541" d="M65.419,15.1V27.677H78" fill="#858bb5"/>
        <g id="Group_1209895" data-name="Group 1209895">
          <path id="Path_1249542" data-name="Path 1249542" d="M35.226,2.516V15.1H47.806" fill="#c8cded"/>
          <path id="Path_1249543" data-name="Path 1249543" d="M11.323,8.806H23.9v2.516H11.323Z" fill="#c8cded"/>
          <path id="Path_1249544" data-name="Path 1249544" d="M26.419,8.806h5.032v2.516H26.419Z" fill="#c8cded"/>
          <path id="Path_1249545" data-name="Path 1249545" d="M6.29,13.839H31.452v2.516H6.29Z" fill="#c8cded"/>
          <path id="Path_1249546" data-name="Path 1249546" d="M6.29,18.871H39v2.516H6.29Z" fill="#c8cded"/>
          <path id="Path_1249547" data-name="Path 1249547" d="M11.323,49.065H31.452v2.516H11.323Z" fill="#c8cded"/>
          <path id="Path_1249548" data-name="Path 1249548" d="M6.29,54.1H35.226v2.516H6.29Z" fill="#c8cded"/>
          <path id="Path_1249549" data-name="Path 1249549" d="M6.29,23.9H33.968v2.516H6.29Z" fill="#c8cded"/>
          <path id="Path_1249550" data-name="Path 1249550" d="M11.323,33.968H31.269v2.516H11.323Z" fill="#c8cded"/>
          <path id="Path_1249551" data-name="Path 1249551" d="M6.29,39H30.235v2.516H6.29Z" fill="#c8cded"/>
        </g>
        <circle id="Ellipse_12689" data-name="Ellipse 12689" cx="18.871" cy="18.871" r="18.871" transform="translate(28.935 23.903)" fill="#3b5892"/>
        <path id="Path_1249552" data-name="Path 1249552" d="M64.161,41.516a18.843,18.843,0,0,0-9.269-16.228A18.857,18.857,0,0,0,38.206,59,18.856,18.856,0,0,0,64.161,41.516Z" fill="#4c6cb5"/>
        <path id="Path_1249553" data-name="Path 1249553" d="M54.079,42.774a6.29,6.29,0,1,1-6.29-6.29V39l6.29-5.032-6.29-5.032v2.516A11.323,11.323,0,1,0,59.111,42.774Z" fill="#f2f2f2"/>
        <path id="Path_1249554" data-name="Path 1249554" d="M78.889,26.788,66.309,14.207a1.258,1.258,0,0,0-.889-.369H48.327L36.115,1.627a1.258,1.258,0,0,0-.889-.369H2.516A1.258,1.258,0,0,0,1.258,2.516V67.935a1.258,1.258,0,0,0,1.258,1.258H31.452V78a1.258,1.258,0,0,0,1.258,1.258H78A1.258,1.258,0,0,0,79.258,78V27.677a1.258,1.258,0,0,0-.368-.889ZM66.677,18.134l8.286,8.286H66.677ZM47.806,60.387A17.613,17.613,0,1,1,65.419,42.774,17.613,17.613,0,0,1,47.806,60.387ZM36.484,5.553l8.286,8.286H36.484ZM3.774,3.774H33.968V15.1a1.258,1.258,0,0,0,1.258,1.258H46.548v6.354A20.129,20.129,0,0,0,29.734,33.968H11.323v2.516H28.7A20,20,0,0,0,28.045,39H6.29v2.516H27.742c-.026.418-.064.833-.064,1.258a20.019,20.019,0,0,0,1.02,6.29H11.323v2.516H29.734A19.949,19.949,0,0,0,31.177,54.1H6.29v2.516H33.227a20.052,20.052,0,0,0,13.322,6.226v3.838H3.774ZM33.968,76.742V69.194H47.806a1.258,1.258,0,0,0,1.258-1.258v-5.1a20.1,20.1,0,0,0,0-40.132V16.355h15.1V27.677a1.258,1.258,0,0,0,1.258,1.258H76.742V76.742Z"/>
        <path id="Path_1249555" data-name="Path 1249555" d="M11.323,8.806H23.9v2.516H11.323Z"/>
        <path id="Path_1249556" data-name="Path 1249556" d="M26.419,8.806h5.032v2.516H26.419Z"/>
        <path id="Path_1249557" data-name="Path 1249557" d="M6.29,13.839H31.452v2.516H6.29Z"/>
        <path id="Path_1249558" data-name="Path 1249558" d="M6.29,18.871H39v2.516H6.29Z"/>
        <path id="Path_1249559" data-name="Path 1249559" d="M6.29,23.9H33.968v2.516H6.29Z"/>
        <path id="Path_1249560" data-name="Path 1249560" d="M59.129,41.516H54.1a1.258,1.258,0,0,0-1.258,1.258,5.032,5.032,0,1,1-6.29-4.872V39a1.258,1.258,0,0,0,2.044.983l6.29-5.032a1.258,1.258,0,0,0,0-1.965l-6.29-5.032a1.258,1.258,0,0,0-2.044.983v1.321A12.581,12.581,0,1,0,60.387,42.774a1.258,1.258,0,0,0-1.258-1.258ZM47.806,52.839a10.065,10.065,0,0,1,0-20.129,1.258,1.258,0,0,0,1.258-1.16l3.019,2.418-3.019,2.418a1.258,1.258,0,0,0-1.258-1.16,7.548,7.548,0,1,0,7.444,8.806h2.543A10.082,10.082,0,0,1,47.806,52.839Z"/>
      </g>
    </g>
  </g>
</svg>
