<svg xmlns="http://www.w3.org/2000/svg" xmlns:xlink="http://www.w3.org/1999/xlink" width="88.83" height="85.054" viewBox="0 0 88.83 85.054">
  <defs>
    <clipPath id="clip-path">
      <rect id="Rectangle_413281" data-name="Rectangle 413281" width="78" height="78" transform="translate(607 7416.095)" fill="#fff" stroke="#707070" stroke-width="1"/>
    </clipPath>
  </defs>
  <g id="Group_1209929" data-name="Group 1209929" transform="translate(-596.17 -7409.042)">
    <g id="Rectangle_413280" data-name="Rectangle 413280" transform="translate(596.17 7409.042)" fill="#fd9826" stroke="#af6a1a" stroke-width="3">
      <rect width="70" height="70" rx="10" stroke="none"/>
      <rect x="1.5" y="1.5" width="67" height="67" rx="8.5" fill="none"/>
    </g>
    <g id="Mask_Group_1099381" data-name="Mask Group 1099381" clip-path="url(#clip-path)">
      <g id="lifecycle_12201553" transform="translate(604.402 7413.496)">
        <path id="Path_1249734" data-name="Path 1249734" d="M47.283,8.28h8.122a8.274,8.274,0,0,1,8.252,8.252V31.061l.624.46a.892.892,0,0,1-.014,1.448l-.61.45v5.919a9.629,9.629,0,0,1,0,17.9v.831a.894.894,0,0,1,.99.888v1.414a12.928,12.928,0,0,0,3.433-22.284.893.893,0,0,1,.045-1.436l4-3.065a.891.891,0,0,1,1.137.046,19.684,19.684,0,0,1-8.618,33.782l0,2.3a.892.892,0,0,1-.988.886v1.753A8.274,8.274,0,0,1,55.405,80.6H11.664a8.274,8.274,0,0,1-8.252-8.252V16.532A8.274,8.274,0,0,1,11.664,8.28h8.122V7.105a.894.894,0,0,1,.894-.894h6.3A5.152,5.152,0,0,1,29.15,3.762a8.846,8.846,0,0,1,8.77,0,5.155,5.155,0,0,1,2.171,2.449h6.3a.894.894,0,0,1,.894.894Z" fill-rule="evenodd"/>
        <path id="Path_1249735" data-name="Path 1249735" d="M18.766,75.973a.9.9,0,0,1-.693-.325L8.331,65.423a.891.891,0,0,1-.292-.661V16.533a3.634,3.634,0,0,1,3.626-3.626h8.122v-2.84H11.664A6.487,6.487,0,0,0,5.2,16.532V72.347a6.487,6.487,0,0,0,6.466,6.466H55.405a6.487,6.487,0,0,0,6.466-6.466v-2.92l-2.84-2.094v5.015a3.634,3.634,0,0,1-3.626,3.626Z" fill="#71c2fd" fill-rule="evenodd"/>
        <path id="Path_1249736" data-name="Path 1249736" d="M17.87,72.851V67.5a1.847,1.847,0,0,0-1.839-1.839H11.013Z" fill="#9c9c9c" fill-rule="evenodd"/>
        <path id="Path_1249737" data-name="Path 1249737" d="M9.825,63.869H16.03A3.634,3.634,0,0,1,19.656,67.5v6.691h35.75a1.847,1.847,0,0,0,1.839-1.839V66.015l-1.3-.956a.892.892,0,0,1-.014-1.448l1.311-.967V57.476a9.628,9.628,0,0,1,0-18.381v-.947l-.257.189a.892.892,0,0,1-1.417-.769V36.146a12.927,12.927,0,0,0-3.4,22.314.89.89,0,0,1-.008,1.409l-4.04,3.095a.891.891,0,0,1-1.176-.084A19.8,19.8,0,0,1,44.4,60.1l-15.866-.012a.89.89,0,1,1,0-1.779l14.667.011a19.583,19.583,0,0,1-2-4.6l-12.669-.01a.89.89,0,1,1,0-1.779l12.243.009a19.819,19.819,0,0,1-.195-6.144l-12.047-.009a.89.89,0,1,1,0-1.779l12.353.009a19.538,19.538,0,0,1,1.631-4.594L28.533,39.42a.89.89,0,1,1,0-1.779l15,.011a19.783,19.783,0,0,1,6.235-6.139L28.534,31.5a.89.89,0,1,1,0-1.779L53,29.736a.885.885,0,0,1,.3.052,19.509,19.509,0,0,1,2.269-.684V26.861a.894.894,0,0,1,1.47-.682l.207.153v-9.8a1.847,1.847,0,0,0-1.839-1.839H47.283v1.152a.894.894,0,0,1-.894.894H20.679a.894.894,0,0,1-.894-.894V14.693H11.664a1.847,1.847,0,0,0-1.839,1.839ZM24.52,52l.175-.146a.889.889,0,1,1,1.144,1.361L24.52,54.326v6.316a.894.894,0,0,1-.894.894H14.375a.894.894,0,0,1-.894-.894V51.39a.894.894,0,0,1,.894-.894h9.252a.894.894,0,0,1,.894.894V52Zm0-14.3.175-.147a.889.889,0,1,1,1.144,1.361L24.52,40.027v6.317a.894.894,0,0,1-.894.894H14.375a.894.894,0,0,1-.894-.894V37.092a.894.894,0,0,1,.894-.894h9.252a.894.894,0,0,1,.894.894V37.7Zm0-14.3.175-.147a.889.889,0,0,1,1.144,1.361L24.52,25.729v6.316a.894.894,0,0,1-.894.894H14.375a.894.894,0,0,1-.894-.894V22.794a.894.894,0,0,1,.894-.894h9.252a.894.894,0,0,1,.894.894v.611Zm4.014,1.717a.89.89,0,1,1,0-1.779L53,23.361a.89.89,0,0,1,0,1.779Z" fill="#fff" fill-rule="evenodd"/>
        <path id="Path_1249738" data-name="Path 1249738" d="M47.283,12.907h8.122a3.634,3.634,0,0,1,3.626,3.626V27.649l2.84,2.094V16.532a6.487,6.487,0,0,0-6.466-6.466H47.283Z" fill="#31a7fb" fill-rule="evenodd"/>
        <path id="Path_1249739" data-name="Path 1249739" d="M57.354,28.627v1.2a.894.894,0,0,1-.759.883,17.89,17.89,0,0,0-8.96,30.384L50.2,59.126a14.71,14.71,0,0,1,6-25.052.891.891,0,0,1,1.149.769c.029.319,0,.687,0,1.011l4.9-3.615Z" fill="#87bd94" fill-rule="evenodd"/>
        <path id="Path_1249740" data-name="Path 1249740" d="M59.031,36.83v1.891a9.715,9.715,0,0,1,2.84.1V34.735Z" fill="#31a7fb" fill-rule="evenodd"/>
        <path id="Path_1249741" data-name="Path 1249741" d="M59.031,57.85v3.477l2.84-2.094V57.747a9.731,9.731,0,0,1-2.84.1Z" fill="#31a7fb" fill-rule="evenodd"/>
        <path id="Path_1249742" data-name="Path 1249742" d="M57.962,64.33l4.9,3.613V66.689a.894.894,0,0,1,.759-.883,17.886,17.886,0,0,0,8.991-30.351l-2.56,1.96a14.712,14.712,0,0,1-5.978,25.007.894.894,0,0,1-1.211-.835v-.871Z" fill="#87bd94" fill-rule="evenodd"/>
        <path id="Path_1249743" data-name="Path 1249743" d="M21.572,14.952H45.5V8l-6.073,0a.89.89,0,0,1-.876-.733,3.107,3.107,0,0,0-1.557-1.978,7.1,7.1,0,0,0-6.914,0A3.146,3.146,0,0,0,28.534,7.2a.894.894,0,0,1-.888.8H21.572Z" fill="#3b98d3" fill-rule="evenodd"/>
        <g id="Group_1209925" data-name="Group 1209925">
          <path id="Path_1249744" data-name="Path 1249744" d="M16.29,27.33A.889.889,0,1,1,17.4,25.941l2.107,1.686,3.227-2.718V23.687H15.268v7.466h7.466V27.235l-2.64,2.223a.889.889,0,0,1-1.127.014Z" fill="#64ad64" fill-rule="evenodd"/>
          <path id="Path_1249745" data-name="Path 1249745" d="M16.29,41.628A.889.889,0,1,1,17.4,40.239l2.107,1.685,3.227-2.717V37.985H15.268v7.466h7.466V41.532l-2.64,2.223a.889.889,0,0,1-1.127.014Z" fill="#64ad64" fill-rule="evenodd"/>
          <path id="Path_1249746" data-name="Path 1249746" d="M16.29,55.926A.889.889,0,1,1,17.4,54.537l2.107,1.686,3.227-2.718V52.283H15.268v7.466h7.466V55.83l-2.64,2.223a.889.889,0,0,1-1.127.014Z" fill="#64ad64" fill-rule="evenodd"/>
        </g>
        <path id="Path_1249747" data-name="Path 1249747" d="M65.649,42.743a7.837,7.837,0,1,0,2.3,5.541,7.837,7.837,0,0,0-2.3-5.541Zm-8.921,7.691a.894.894,0,0,1,1.786,0c0,.8.844,1.256,1.553,1.256s1.553-.458,1.553-1.256c0-.939-.851-1.115-1.7-1.291-1.557-.323-3.111-.645-3.111-3.006A3.109,3.109,0,0,1,59.256,43.2v-.531a.894.894,0,0,1,1.786,0V43.2a3.109,3.109,0,0,1,2.446,2.931.894.894,0,1,1-1.786,0c0-.8-.834-1.256-1.553-1.256s-1.553.458-1.553,1.256c0,.913.839,1.087,1.68,1.262,1.562.324,3.129.649,3.129,3.035a3.1,3.1,0,0,1-2.364,2.91V53.9a.894.894,0,0,1-1.786,0v-.51a3.117,3.117,0,0,1-2.528-2.952Z" fill="#fcc16d" fill-rule="evenodd"/>
      </g>
    </g>
  </g>
</svg>
