<svg xmlns="http://www.w3.org/2000/svg" xmlns:xlink="http://www.w3.org/1999/xlink" width="88.831" height="85.054" viewBox="0 0 88.831 85.054">
  <defs>
    <clipPath id="clip-path">
      <rect id="Rectangle_410650" data-name="Rectangle 410650" width="78" height="78" transform="translate(397.051 13458)" fill="#fff" stroke="#707070" stroke-width="1"/>
    </clipPath>
  </defs>
  <g id="Group_1209758" data-name="Group 1209758" transform="translate(-386.221 -13450.946)">
    <g id="Rectangle_410639" data-name="Rectangle 410639" transform="translate(386.221 13450.946)" fill="#fd9826" stroke="#af6a1a" stroke-width="3">
      <rect width="70" height="70" rx="10" stroke="none"/>
      <rect x="1.5" y="1.5" width="67" height="67" rx="8.5" fill="none"/>
    </g>
    <g id="Mask_Group_1099383" data-name="Mask Group 1099383" clip-path="url(#clip-path)">
      <g id="book_1246893" transform="translate(400.301 13458)">
        <path id="Path_1279489" data-name="Path 1279489" d="M54.437,38.207V14.7a.123.123,0,0,1-.007-.036.779.779,0,0,1-.052-.189.789.789,0,0,0-.13-.338.978.978,0,0,1-.1-.221c-.747-.988-1.332-3.334-1.332-5.785,0-4.03,1.342-5.844,1.4-5.918a.793.793,0,0,0,.149-.9.777.777,0,0,0-.738-.494H8.125A7.321,7.321,0,0,0,.812,8.128v55.25a7.321,7.321,0,0,0,7.313,7.313H34.418a21.738,21.738,0,0,1-2.73-10.562A21.962,21.962,0,0,1,53.625,38.191c.273,0,.543,0,.812.016Zm0,0" fill="#455a64"/>
        <path id="Path_1279490" data-name="Path 1279490" d="M71.5,60.125A17.875,17.875,0,1,1,53.625,42.25,17.875,17.875,0,0,1,71.5,60.125Zm0,0" fill="#2196f3"/>
        <path id="Path_1279491" data-name="Path 1279491" d="M8.125,14.625H53.6c-.176-.256-1.6-2.194-1.6-6.5,0-4.241,1.407-6.214,1.563-6.425L8.125,1.625a6.5,6.5,0,0,0,0,13Zm0,0" fill="#eceff1"/>
        <path id="Path_1279492" data-name="Path 1279492" d="M53.625,78A17.875,17.875,0,1,1,71.5,60.125,17.9,17.9,0,0,1,53.625,78Zm0-32.5A14.625,14.625,0,1,0,68.25,60.125,14.643,14.643,0,0,0,53.625,45.5Zm0,0"/>
        <path id="Path_1279493" data-name="Path 1279493" d="M65.114,73.242a1.631,1.631,0,0,1-1.15-.475L40.986,49.787a1.625,1.625,0,0,1,2.3-2.3L66.261,70.47a1.624,1.624,0,0,1-1.147,2.773Zm0,0"/>
        <path id="Path_1279494" data-name="Path 1279494" d="M53.618,68.25c-4.368,0-7.777-1.879-8.105-4.466a1.624,1.624,0,0,1,1.407-1.817,1.647,1.647,0,0,1,1.82,1.407C48.8,63.846,50.583,65,53.622,65c3.308,0,4.878-1.3,4.878-1.625,0-.01-.055-1.021-4.745-1.6l-.344-.045c-2.376-.286-7.911-.962-7.911-4.856C45.5,54.1,48.994,52,53.632,52c4.368,0,7.777,1.879,8.105,4.463a1.625,1.625,0,0,1-1.407,1.817,1.663,1.663,0,0,1-1.82-1.407c-.058-.471-1.839-1.622-4.878-1.622-3.153,0-4.882,1.219-4.882,1.625,0,.01.055,1.021,4.761,1.6.01,0,.334.042.338.042,2.382.3,7.9.975,7.9,4.862,0,2.778-3.494,4.875-8.131,4.875Zm0,0"/>
        <path id="Path_1279495" data-name="Path 1279495" d="M53.625,71.5A1.626,1.626,0,0,1,52,69.875v-19.5a1.625,1.625,0,0,1,3.25,0v19.5A1.626,1.626,0,0,1,53.625,71.5Zm0,0"/>
        <path id="Path_1279496" data-name="Path 1279496" d="M53.625,16.25H8.125A8.125,8.125,0,0,1,8.125,0h45.5A1.626,1.626,0,0,1,54.86,2.681s-1.235,1.625-1.235,5.443,1.245,5.453,1.258,5.47a1.651,1.651,0,0,1,.195,1.729,1.621,1.621,0,0,1-1.453.927Zm-45.5-13a4.875,4.875,0,1,0,0,9.75H51.058a16.065,16.065,0,0,1-.683-4.875,16.071,16.071,0,0,1,.683-4.875Zm0,0"/>
        <path id="Path_1279497" data-name="Path 1279497" d="M50.375,9.75H8.125a1.625,1.625,0,0,1,0-3.25h42.25a1.625,1.625,0,0,1,0,3.25Zm0,0"/>
        <path id="Path_1279498" data-name="Path 1279498" d="M33.095,71.5H8.125A8.134,8.134,0,0,1,0,63.375V8.125a1.625,1.625,0,0,1,3.25,0v55.25A4.881,4.881,0,0,0,8.125,68.25h24.97a1.625,1.625,0,0,1,0,3.25Zm0,0"/>
        <path id="Path_1279499" data-name="Path 1279499" d="M53.625,39A1.626,1.626,0,0,1,52,37.375V14.625a1.625,1.625,0,0,1,3.25,0v22.75A1.626,1.626,0,0,1,53.625,39Zm0,0"/>
      </g>
    </g>
  </g>
</svg>
