<svg xmlns="http://www.w3.org/2000/svg" xmlns:xlink="http://www.w3.org/1999/xlink" width="88.83" height="85.054" viewBox="0 0 88.83 85.054">
  <defs>
    <clipPath id="clip-path">
      <rect id="Rectangle_413210" data-name="Rectangle 413210" width="78" height="78" transform="translate(397 7613.785)" fill="#fff" stroke="#707070" stroke-width="1"/>
    </clipPath>
  </defs>
  <g id="Group_1209799" data-name="Group 1209799" transform="translate(-386.17 -7606.731)">
    <g id="Rectangle_413209" data-name="Rectangle 413209" transform="translate(386.17 7606.731)" fill="#fd9826" stroke="#af6a1a" stroke-width="3">
      <rect width="70" height="70" rx="10" stroke="none"/>
      <rect x="1.5" y="1.5" width="67" height="67" rx="8.5" fill="none"/>
    </g>
    <g id="Mask_Group_1099388" data-name="Mask Group 1099388" clip-path="url(#clip-path)">
      <g id="Layer_x0020_1" transform="translate(397 7613.785)">
        <path id="Path_1279573" data-name="Path 1279573" d="M37.678,17.594v-.713a1.322,1.322,0,1,1,2.644,0v.713h1.843a1.327,1.327,0,1,1,0,2.654H37.152v3.686h5.013a1.326,1.326,0,0,1,1.25.867l.077.461V31.6a1.322,1.322,0,0,1-1.327,1.316H40.322v.724a1.322,1.322,0,1,1-2.644,0v-.724H35.835a1.322,1.322,0,1,1,0-2.644h5.013V26.589H35.835a1.32,1.32,0,0,1-1.327-1.338V18.921a1.325,1.325,0,0,1,1.327-1.327Zm38.995,8.995H59.934A21.011,21.011,0,0,1,43.656,45.707v7.5a1.322,1.322,0,0,1-1.327,1.316H40.366v3.28h4.925a1.325,1.325,0,0,1,1.327,1.327V75.4a1.325,1.325,0,0,1-1.327,1.327H32.709A1.325,1.325,0,0,1,31.382,75.4V59.133a1.325,1.325,0,0,1,1.327-1.327h5v-3.28h-2.04a1.322,1.322,0,0,1-1.327-1.316v-7.5A21.033,21.033,0,0,1,18.066,26.589H1.327a1.327,1.327,0,0,1,0-2.654H5.1V10.881A1.325,1.325,0,0,1,6.428,9.554H14.26a1.322,1.322,0,0,1,1.316,1.327V23.934h2.5a20.971,20.971,0,0,1,41.857,0h2.49V2.6A1.33,1.33,0,0,1,63.74,1.272h7.832A1.332,1.332,0,0,1,72.9,2.6V23.934h3.773a1.327,1.327,0,0,1,0,2.654ZM57.324,25.272V25.25a18.318,18.318,0,1,0,0,.022Zm7.744-1.338h5.188V3.927H65.068Zm-57.313,0h5.177V12.2H7.755Zm68.918,38.26H53.89a1.322,1.322,0,1,1,0-2.644H76.673a1.322,1.322,0,1,1,0,2.644Zm0-6.516H58.651a1.322,1.322,0,1,1,0-2.644H76.673a1.322,1.322,0,1,1,0,2.644ZM24.11,62.194H1.327a1.322,1.322,0,1,1,0-2.644H24.11a1.322,1.322,0,1,1,0,2.644Zm-4.761-6.516H1.327a1.322,1.322,0,1,1,0-2.644H19.349a1.322,1.322,0,1,1,0,2.644ZM37,46.135v5.748h4V46.135A20.346,20.346,0,0,1,37,46.135ZM34.037,74.073h9.927V60.461H34.037Zm4.969-34.037A14.781,14.781,0,1,1,53.781,25.261,14.8,14.8,0,0,1,39.005,40.037Zm0-26.907A12.132,12.132,0,1,0,51.137,25.261,12.143,12.143,0,0,0,39.005,13.13Z" fill="#333" fill-rule="evenodd"/>
        <path id="Path_1279574" data-name="Path 1279574" d="M35.835,30.274h5.013V26.589H35.835a1.456,1.456,0,0,1-.581-.132l-.022-.022-.033-.011-.022-.011-.033-.022-.022-.011-.033-.022-.022-.022-.033-.011-.022-.022-.022-.022-.022-.022-.033-.022-.022-.022-.022-.022-.022-.022-.022-.022a1.333,1.333,0,0,1-.34-.888v-6.34a1.325,1.325,0,0,1,1.327-1.327h1.843v-.713a1.322,1.322,0,1,1,2.644,0v.713h1.843a1.327,1.327,0,1,1,0,2.654H37.152v3.686h5.013a1.334,1.334,0,0,1,1.185.724c.022.044.044.1.066.143l.011.033.011.033.011.033v.033l.011.033L43.47,25v.022l.011.033v.033l.011.044V31.6a1.322,1.322,0,0,1-1.327,1.316H40.322v.724a1.322,1.322,0,1,1-2.644,0v-.724H35.835a1.322,1.322,0,1,1,0-2.644Zm3.17,7.119A12.132,12.132,0,1,0,26.874,25.261,12.15,12.15,0,0,0,39.005,37.393Z" fill="#a7ffff" fill-rule="evenodd"/>
        <path id="Path_1279575" data-name="Path 1279575" d="M24.219,25.261A14.781,14.781,0,1,1,39.005,40.037,14.807,14.807,0,0,1,24.219,25.261ZM39.005,43.58A18.341,18.341,0,0,0,57.324,25.272V25.25a18.324,18.324,0,0,0-36.647-.022v.033A18.346,18.346,0,0,0,39.005,43.58Z" fill="#999" fill-rule="evenodd"/>
        <path id="Path_1279576" data-name="Path 1279576" d="M12.932,23.934V12.2H7.755V23.934Z" fill="#b7a8f1" fill-rule="evenodd"/>
        <path id="Path_1279577" data-name="Path 1279577" d="M65.068,3.927V23.934h5.188V3.927Z" fill="#1aa1ff" fill-rule="evenodd"/>
        <g id="Group_1209796" data-name="Group 1209796">
          <path id="Path_1279578" data-name="Path 1279578" d="M41,46.135c-.658.066-1.327.1-2,.1s-1.349-.033-2.007-.1v5.748h4Z" fill="#c06000" fill-rule="evenodd"/>
          <path id="Path_1279579" data-name="Path 1279579" d="M43.963,60.461H34.037V74.073h9.927Z" fill="#c06000" fill-rule="evenodd"/>
        </g>
      </g>
    </g>
  </g>
</svg>
