<svg xmlns="http://www.w3.org/2000/svg" xmlns:xlink="http://www.w3.org/1999/xlink" width="88.83" height="85.055" viewBox="0 0 88.83 85.055">
  <defs>
    <clipPath id="clip-path">
      <rect id="Rectangle_413317" data-name="Rectangle 413317" width="78" height="78" transform="translate(13227.542 779.181)" fill="#fff" stroke="#707070" stroke-width="1"/>
    </clipPath>
  </defs>
  <g id="Group_1210032" data-name="Group 1210032" transform="translate(-13216.712 -772.126)">
    <g id="Rectangle_413316" data-name="Rectangle 413316" transform="translate(13216.712 772.126)" fill="#fd9826" stroke="#af6a1a" stroke-width="3">
      <rect width="70" height="70" rx="10" stroke="none"/>
      <rect x="1.5" y="1.5" width="67" height="67" rx="8.5" fill="none"/>
    </g>
    <g id="Mask_Group_1099395" data-name="Mask Group 1099395" clip-path="url(#clip-path)">
      <g id="response_12444554" transform="translate(13219.193 770.803)">
        <g id="Group_1210031" data-name="Group 1210031">
          <path id="Path_1249988" data-name="Path 1249988" d="M49.981,37.448H76.239a8.993,8.993,0,0,1,8.974,8.974v7.535a9.009,9.009,0,0,1-8.974,8.993h-6.3a18.625,18.625,0,0,0,2.234,11.833A13.682,13.682,0,0,1,60.942,62.949H49.981a9.013,9.013,0,0,1-8.993-8.993V46.421a9.034,9.034,0,0,1,8.993-8.974Z" fill="#e6e6e6" fill-rule="evenodd"/>
          <path id="Path_1249989" data-name="Path 1249989" d="M53.313,50.738l6.3-3.635L65.9,43.468V48.05H76.164v5.377H65.9v4.6l-6.285-3.635Z" fill="#fcb13b" fill-rule="evenodd"/>
          <path id="Path_1249990" data-name="Path 1249990" d="M44.717,19.992H18.478a9.013,9.013,0,0,0-8.993,8.993V36.52a9.013,9.013,0,0,0,8.993,8.993h6.3a18.625,18.625,0,0,1-2.234,11.833A13.726,13.726,0,0,0,33.775,45.513H44.736A9.009,9.009,0,0,0,53.71,36.52V28.966a9.009,9.009,0,0,0-8.993-8.974Z" fill="#e6e6e6" fill-rule="evenodd"/>
          <path id="Path_1249991" data-name="Path 1249991" d="M44.964,33.283l-6.3-3.635-6.3-3.654v4.6H18.232v5.377H32.355v4.6l6.3-3.654Z" fill="#fcb13b" fill-rule="evenodd"/>
        </g>
        <path id="Path_1249992" data-name="Path 1249992" d="M42.692,33.283l-9.2-5.32v2.632a1.139,1.139,0,0,1-1.136,1.136H19.367v3.1H32.355a1.139,1.139,0,0,1,1.136,1.136V38.6l4.6-2.65Zm-3.465-4.619,6.3,3.635a1.137,1.137,0,0,1,.019,1.969l-6.3,3.635-6.21,3.578a1.138,1.138,0,0,1-1.8-.928V37.107H18.232A1.139,1.139,0,0,1,17.1,35.971V30.594a1.139,1.139,0,0,1,1.136-1.136H31.238V25.994a1.13,1.13,0,0,1,1.685-.984Zm5.49-7.535H18.478a7.866,7.866,0,0,0-7.838,7.838V36.5a7.866,7.866,0,0,0,7.838,7.838h6.3a1.122,1.122,0,0,1,1.136,1.041,19.608,19.608,0,0,1-.151,6.4,20.464,20.464,0,0,1-1.117,3.767,12.552,12.552,0,0,0,7.989-10.2,1.13,1.13,0,0,1,1.136-1H44.736A7.866,7.866,0,0,0,52.574,36.5V28.966a7.882,7.882,0,0,0-7.857-7.838Zm-26.24-2.272H44.736a10.132,10.132,0,0,1,10.11,10.11v7.346H76.239a10.132,10.132,0,0,1,10.11,10.11v7.535a10.148,10.148,0,0,1-10.11,10.129h-5.3a17.532,17.532,0,0,0,2.215,10.129A1.127,1.127,0,0,1,71.98,75.88a14.816,14.816,0,0,1-12-11.814h-10A10.152,10.152,0,0,1,39.852,53.937V46.592H34.7a14.793,14.793,0,0,1-12,11.814,1.127,1.127,0,0,1-1.174-1.666,17.417,17.417,0,0,0,2.215-10.129H18.478A10.148,10.148,0,0,1,8.349,36.5V28.966a10.136,10.136,0,0,1,10.129-10.11ZM54.619,38.583a10.157,10.157,0,0,1-9.9,8.046H42.124v7.346a7.866,7.866,0,0,0,7.838,7.838H60.923a1.143,1.143,0,0,1,1.136,1,12.5,12.5,0,0,0,7.989,10.2,20.038,20.038,0,0,1-1.117-3.767,19.608,19.608,0,0,1-.151-6.4,1.122,1.122,0,0,1,1.136-1.041h6.3a7.866,7.866,0,0,0,7.838-7.838V46.44A7.866,7.866,0,0,0,76.22,38.6h-21.6Zm-1.874,11.17,12.609-7.27a1.144,1.144,0,0,1,1.7.984v3.465h9.125a1.139,1.139,0,0,1,1.136,1.136v5.377a1.139,1.139,0,0,1-1.136,1.136H67.057v3.465a1.135,1.135,0,0,1-1.8.928l-6.21-3.6-6.3-3.635a1.146,1.146,0,0,1,0-1.988Zm7.421-1.666-4.6,2.65,4.6,2.669,4.6,2.65V53.426A1.139,1.139,0,0,1,65.9,52.29h9.125v-3.1H65.9a1.139,1.139,0,0,1-1.136-1.136V45.418Z"/>
      </g>
    </g>
  </g>
</svg>
