<svg xmlns="http://www.w3.org/2000/svg" xmlns:xlink="http://www.w3.org/1999/xlink" width="88.83" height="85.054" viewBox="0 0 88.83 85.054">
  <defs>
    <clipPath id="clip-path">
      <rect id="Rectangle_413295" data-name="Rectangle 413295" width="78" height="78" transform="translate(13135.466 -3471.36)" fill="#fff" stroke="#707070" stroke-width="1"/>
    </clipPath>
  </defs>
  <g id="Group_1209995" data-name="Group 1209995" transform="translate(-13124.636 3478.414)">
    <g id="Rectangle_413294" data-name="Rectangle 413294" transform="translate(13124.636 -3478.414)" fill="#fd9826" stroke="#af6a1a" stroke-width="3">
      <rect width="70" height="70" rx="10" stroke="none"/>
      <rect x="1.5" y="1.5" width="67" height="67" rx="8.5" fill="none"/>
    </g>
    <g id="Mask_Group_1099384" data-name="Mask Group 1099384" clip-path="url(#clip-path)">
      <g id="unsecured_10617472" transform="translate(13132.866 -3473.96)">
        <path id="Path_1249792" data-name="Path 1249792" d="M3.9,3.9H58.5V79.3H3.9Z" fill="#e8eff7"/>
        <circle id="Ellipse_12706" data-name="Ellipse 12706" cx="11.7" cy="11.7" r="11.7" transform="translate(9.1 9.1)" fill="#f2b755"/>
        <g id="Group_1209948" data-name="Group 1209948">
          <path id="Path_1249793" data-name="Path 1249793" d="M22.75,28.6h-3.9a4.555,4.555,0,0,1-4.55-4.55V23.4a1.3,1.3,0,1,1,2.6,0v.65A1.952,1.952,0,0,0,18.85,26h3.9a1.95,1.95,0,0,0,0-3.9h-3.9a4.55,4.55,0,0,1,0-9.1h3.9a4.555,4.555,0,0,1,4.55,4.55v.65a1.3,1.3,0,1,1-2.6,0v-.65a1.952,1.952,0,0,0-1.95-1.95h-3.9a1.95,1.95,0,0,0,0,3.9h3.9a4.55,4.55,0,0,1,0,9.1Z" fill="#3b6faa"/>
        </g>
        <g id="Group_1209949" data-name="Group 1209949">
          <path id="Path_1249794" data-name="Path 1249794" d="M20.8,29.9a1.3,1.3,0,0,1-1.3-1.3V13a1.3,1.3,0,1,1,2.6,0V28.6A1.3,1.3,0,0,1,20.8,29.9Z" fill="#3b6faa"/>
        </g>
        <path id="Path_1249795" data-name="Path 1249795" d="M51.675,16.9H38.025A1.625,1.625,0,0,1,36.4,15.275v-4.55A1.625,1.625,0,0,1,38.025,9.1h13.65A1.625,1.625,0,0,1,53.3,10.725v4.55A1.625,1.625,0,0,1,51.675,16.9Z" fill="#e06963"/>
        <g id="Group_1209950" data-name="Group 1209950">
          <path id="Path_1249796" data-name="Path 1249796" d="M46.8,23.4H37.7a1.3,1.3,0,0,1,0-2.6h9.1a1.3,1.3,0,0,1,0,2.6Z" fill="#447fc3"/>
        </g>
        <g id="Group_1209951" data-name="Group 1209951">
          <path id="Path_1249797" data-name="Path 1249797" d="M41.6,28.6H36.4a1.3,1.3,0,1,1,0-2.6h5.2a1.3,1.3,0,1,1,0,2.6Z" fill="#447fc3"/>
        </g>
        <g id="Group_1209952" data-name="Group 1209952">
          <path id="Path_1249798" data-name="Path 1249798" d="M39,33.8H32.5a1.3,1.3,0,1,1,0-2.6H39a1.3,1.3,0,0,1,0,2.6Z" fill="#447fc3"/>
        </g>
        <g id="Group_1209953" data-name="Group 1209953">
          <path id="Path_1249799" data-name="Path 1249799" d="M37.7,39H9.1a1.3,1.3,0,0,1,0-2.6H37.7a1.3,1.3,0,1,1,0,2.6Z" fill="#447fc3"/>
        </g>
        <g id="Group_1209954" data-name="Group 1209954">
          <path id="Path_1249800" data-name="Path 1249800" d="M36.4,44.2H9.1a1.3,1.3,0,1,1,0-2.6H36.4a1.3,1.3,0,0,1,0,2.6Z" fill="#447fc3"/>
        </g>
        <g id="Group_1209955" data-name="Group 1209955">
          <path id="Path_1249801" data-name="Path 1249801" d="M35.1,49.4H9.1a1.3,1.3,0,1,1,0-2.6h26a1.3,1.3,0,0,1,0,2.6Z" fill="#447fc3"/>
        </g>
        <g id="Group_1209956" data-name="Group 1209956">
          <path id="Path_1249802" data-name="Path 1249802" d="M35.1,54.6H9.1a1.3,1.3,0,1,1,0-2.6h26a1.3,1.3,0,1,1,0,2.6Z" fill="#447fc3"/>
        </g>
        <g id="Group_1209957" data-name="Group 1209957">
          <path id="Path_1249803" data-name="Path 1249803" d="M35.1,59.8H9.1a1.3,1.3,0,0,1,0-2.6h26a1.3,1.3,0,0,1,0,2.6Z" fill="#447fc3"/>
        </g>
        <g id="Group_1209958" data-name="Group 1209958">
          <path id="Path_1249804" data-name="Path 1249804" d="M35.1,65H9.1a1.3,1.3,0,0,1,0-2.6h26a1.3,1.3,0,0,1,0,2.6Z" fill="#447fc3"/>
        </g>
        <g id="Group_1209959" data-name="Group 1209959">
          <path id="Path_1249805" data-name="Path 1249805" d="M35.1,70.2H9.1a1.3,1.3,0,1,1,0-2.6h26a1.3,1.3,0,1,1,0,2.6Z" fill="#447fc3"/>
        </g>
        <g id="Group_1209960" data-name="Group 1209960">
          <path id="Path_1249806" data-name="Path 1249806" d="M35.1,75.4H9.1a1.3,1.3,0,1,1,0-2.6h26a1.3,1.3,0,1,1,0,2.6Z" fill="#447fc3"/>
        </g>
        <path id="Path_1249807" data-name="Path 1249807" d="M59.7,22.1A17.02,17.02,0,0,0,42.9,39.186V50.627A2.648,2.648,0,0,0,45.374,53.3,2.6,2.6,0,0,0,48.1,50.7V39.149a11.7,11.7,0,0,1,23.2-2.294,2.6,2.6,0,0,0,5.121-.905A16.928,16.928,0,0,0,59.7,22.1Z" fill="#c95e59"/>
        <path id="Path_1249808" data-name="Path 1249808" d="M76.05,45.5H43.55a3.25,3.25,0,0,0-3.25,3.25v27.3a3.25,3.25,0,0,0,3.25,3.25h32.5a3.25,3.25,0,0,0,3.25-3.25V48.75A3.25,3.25,0,0,0,76.05,45.5Z" fill="#447fc3"/>
        <g id="Group_1209961" data-name="Group 1209961">
          <path id="Path_1249809" data-name="Path 1249809" d="M53.3,39H52a1.3,1.3,0,1,1,0-2.6h1.3a1.3,1.3,0,0,1,0,2.6Z" fill="#447fc3"/>
        </g>
        <g id="Group_1209962" data-name="Group 1209962">
          <path id="Path_1249810" data-name="Path 1249810" d="M53.3,44.2H52a1.3,1.3,0,1,1,0-2.6h1.3a1.3,1.3,0,1,1,0,2.6Z" fill="#447fc3"/>
        </g>
        <circle id="Ellipse_12707" data-name="Ellipse 12707" cx="11.7" cy="11.7" r="11.7" transform="translate(48.1 50.7)" fill="#f2b755"/>
        <g id="Group_1209963" data-name="Group 1209963">
          <path id="Path_1249811" data-name="Path 1249811" d="M61.75,70.2h-3.9a4.555,4.555,0,0,1-4.55-4.55V65a1.3,1.3,0,1,1,2.6,0v.65a1.952,1.952,0,0,0,1.95,1.95h3.9a1.95,1.95,0,1,0,0-3.9h-3.9a4.55,4.55,0,1,1,0-9.1h3.9a4.555,4.555,0,0,1,4.55,4.55v.65a1.3,1.3,0,1,1-2.6,0v-.65a1.952,1.952,0,0,0-1.95-1.95h-3.9a1.95,1.95,0,0,0,0,3.9h3.9a4.55,4.55,0,1,1,0,9.1Z" fill="#3b6faa"/>
        </g>
        <g id="Group_1209964" data-name="Group 1209964">
          <path id="Path_1249812" data-name="Path 1249812" d="M59.8,71.5a1.3,1.3,0,0,1-1.3-1.3V54.6a1.3,1.3,0,0,1,2.6,0V70.2A1.3,1.3,0,0,1,59.8,71.5Z" fill="#3b6faa"/>
        </g>
        <g id="Group_1209965" data-name="Group 1209965">
          <path id="Path_1249813" data-name="Path 1249813" d="M45.5,54.6a1.3,1.3,0,0,1-1.3-1.3V50.7a1.3,1.3,0,0,1,1.3-1.3h2.6a1.3,1.3,0,0,1,0,2.6H46.8v1.3A1.3,1.3,0,0,1,45.5,54.6Z" fill="#294d76"/>
        </g>
        <g id="Group_1209966" data-name="Group 1209966">
          <path id="Path_1249814" data-name="Path 1249814" d="M74.1,54.6a1.3,1.3,0,0,1-1.3-1.3V52H71.5a1.3,1.3,0,1,1,0-2.6h2.6a1.3,1.3,0,0,1,1.3,1.3v2.6A1.3,1.3,0,0,1,74.1,54.6Z" fill="#294d76"/>
        </g>
        <g id="Group_1209967" data-name="Group 1209967">
          <path id="Path_1249815" data-name="Path 1249815" d="M48.1,75.4H45.5a1.3,1.3,0,0,1-1.3-1.3V71.5a1.3,1.3,0,1,1,2.6,0v1.3h1.3a1.3,1.3,0,1,1,0,2.6Z" fill="#294d76"/>
        </g>
        <g id="Group_1209968" data-name="Group 1209968">
          <path id="Path_1249816" data-name="Path 1249816" d="M74.1,75.4H71.5a1.3,1.3,0,1,1,0-2.6h1.3V71.5a1.3,1.3,0,1,1,2.6,0v2.6A1.3,1.3,0,0,1,74.1,75.4Z" fill="#294d76"/>
        </g>
        <g id="Group_1209969" data-name="Group 1209969">
          <path id="Path_1249817" data-name="Path 1249817" d="M20.8,33.8a13,13,0,1,0-13-13A13.015,13.015,0,0,0,20.8,33.8Zm0-23.4A10.4,10.4,0,1,1,10.4,20.8,10.412,10.412,0,0,1,20.8,10.4Z"/>
          <path id="Path_1249818" data-name="Path 1249818" d="M18.85,28.6h.65a1.3,1.3,0,1,0,2.6,0h.65a4.55,4.55,0,0,0,0-9.1H22.1V15.6h.65a1.952,1.952,0,0,1,1.95,1.95v.65a1.3,1.3,0,1,0,2.6,0v-.65A4.555,4.555,0,0,0,22.75,13H22.1a1.3,1.3,0,1,0-2.6,0h-.65a4.55,4.55,0,0,0,0,9.1h.65V26h-.65a1.952,1.952,0,0,1-1.95-1.95V23.4a1.3,1.3,0,1,0-2.6,0v.65A4.555,4.555,0,0,0,18.85,28.6Zm0-9.1a1.95,1.95,0,0,1,0-3.9h.65v3.9Zm3.25,2.6h.65a1.95,1.95,0,0,1,0,3.9H22.1Z"/>
          <path id="Path_1249819" data-name="Path 1249819" d="M38.025,18.2h13.65A2.928,2.928,0,0,0,54.6,15.275v-4.55A2.928,2.928,0,0,0,51.675,7.8H38.025A2.928,2.928,0,0,0,35.1,10.725v4.55A2.928,2.928,0,0,0,38.025,18.2ZM37.7,10.725a.325.325,0,0,1,.325-.325h13.65a.325.325,0,0,1,.325.325v4.55a.325.325,0,0,1-.325.325H38.025a.325.325,0,0,1-.325-.325Z"/>
          <path id="Path_1249820" data-name="Path 1249820" d="M46.8,20.8H37.7a1.3,1.3,0,0,0,0,2.6h9.1a1.3,1.3,0,0,0,0-2.6Z"/>
          <path id="Path_1249821" data-name="Path 1249821" d="M36.4,28.6h5.2a1.3,1.3,0,1,0,0-2.6H36.4a1.3,1.3,0,1,0,0,2.6Z"/>
          <path id="Path_1249822" data-name="Path 1249822" d="M39,31.2H32.5a1.3,1.3,0,1,0,0,2.6H39a1.3,1.3,0,0,0,0-2.6Z"/>
          <path id="Path_1249823" data-name="Path 1249823" d="M37.7,36.4H9.1a1.3,1.3,0,0,0,0,2.6H37.7a1.3,1.3,0,1,0,0-2.6Z"/>
          <path id="Path_1249824" data-name="Path 1249824" d="M36.4,41.6H9.1a1.3,1.3,0,1,0,0,2.6H36.4a1.3,1.3,0,0,0,0-2.6Z"/>
          <path id="Path_1249825" data-name="Path 1249825" d="M35.1,46.8H9.1a1.3,1.3,0,1,0,0,2.6h26a1.3,1.3,0,0,0,0-2.6Z"/>
          <path id="Path_1249826" data-name="Path 1249826" d="M35.1,52H9.1a1.3,1.3,0,1,0,0,2.6h26a1.3,1.3,0,1,0,0-2.6Z"/>
          <path id="Path_1249827" data-name="Path 1249827" d="M35.1,57.2H9.1a1.3,1.3,0,0,0,0,2.6h26a1.3,1.3,0,0,0,0-2.6Z"/>
          <path id="Path_1249828" data-name="Path 1249828" d="M35.1,62.4H9.1a1.3,1.3,0,0,0,0,2.6h26a1.3,1.3,0,0,0,0-2.6Z"/>
          <path id="Path_1249829" data-name="Path 1249829" d="M35.1,67.6H9.1a1.3,1.3,0,1,0,0,2.6h26a1.3,1.3,0,1,0,0-2.6Z"/>
          <path id="Path_1249830" data-name="Path 1249830" d="M35.1,72.8H9.1a1.3,1.3,0,1,0,0,2.6h26a1.3,1.3,0,1,0,0-2.6Z"/>
          <path id="Path_1249831" data-name="Path 1249831" d="M76.05,44.2H59.8V28.6a10.384,10.384,0,0,1,10.225,8.493,3.9,3.9,0,0,0,6.84,1.8,3.863,3.863,0,0,0,.838-3.177A18.228,18.228,0,0,0,59.8,20.8V3.9a1.3,1.3,0,0,0-1.3-1.3H3.9A1.3,1.3,0,0,0,2.6,3.9V79.3a1.3,1.3,0,0,0,1.3,1.3H76.05a4.555,4.555,0,0,0,4.55-4.55V48.75A4.555,4.555,0,0,0,76.05,44.2ZM59.709,23.4H59.8A15.577,15.577,0,0,1,75.146,36.184a1.258,1.258,0,0,1-.277,1.044,1.3,1.3,0,0,1-2.287-.611A12.979,12.979,0,0,0,59.8,26h-.128A13.116,13.116,0,0,0,46.8,39.149V44.2H44.2V39.186A15.73,15.73,0,0,1,59.709,23.4ZM53.3,41.6H52a1.3,1.3,0,1,0,0,2.6H49.4V39.149a10.565,10.565,0,0,1,7.8-10.212V44.2H53.3a1.3,1.3,0,1,0,0-2.6ZM39.44,78H5.2V5.2h52V20.989a18.38,18.38,0,0,0-15.6,18.2V44.64A4.555,4.555,0,0,0,39,48.75v27.3A4.524,4.524,0,0,0,39.44,78ZM78,76.05A1.952,1.952,0,0,1,76.05,78H43.55a1.952,1.952,0,0,1-1.95-1.95V48.75a1.952,1.952,0,0,1,1.95-1.95h32.5A1.952,1.952,0,0,1,78,48.75Z"/>
          <path id="Path_1249832" data-name="Path 1249832" d="M53.3,36.4H52A1.3,1.3,0,1,0,52,39h1.3a1.3,1.3,0,0,0,0-2.6Z"/>
          <path id="Path_1249833" data-name="Path 1249833" d="M59.8,49.4a13,13,0,1,0,13,13A13.015,13.015,0,0,0,59.8,49.4Zm0,23.4A10.4,10.4,0,1,1,70.2,62.4,10.412,10.412,0,0,1,59.8,72.8Z"/>
          <path id="Path_1249834" data-name="Path 1249834" d="M61.75,54.6H61.1a1.3,1.3,0,0,0-2.6,0h-.65a4.55,4.55,0,1,0,0,9.1h.65v3.9h-.65a1.952,1.952,0,0,1-1.95-1.95V65a1.3,1.3,0,1,0-2.6,0v.65a4.555,4.555,0,0,0,4.55,4.55h.65a1.3,1.3,0,1,0,2.6,0h.65a4.55,4.55,0,1,0,0-9.1H61.1V57.2h.65a1.952,1.952,0,0,1,1.95,1.95v.65a1.3,1.3,0,1,0,2.6,0v-.65A4.555,4.555,0,0,0,61.75,54.6Zm0,9.1a1.95,1.95,0,1,1,0,3.9H61.1V63.7ZM58.5,61.1h-.65a1.95,1.95,0,0,1,0-3.9h.65Z"/>
          <path id="Path_1249835" data-name="Path 1249835" d="M45.5,54.6a1.3,1.3,0,0,0,1.3-1.3V52h1.3a1.3,1.3,0,0,0,0-2.6H45.5a1.3,1.3,0,0,0-1.3,1.3v2.6A1.3,1.3,0,0,0,45.5,54.6Z"/>
          <path id="Path_1249836" data-name="Path 1249836" d="M74.1,49.4H71.5a1.3,1.3,0,1,0,0,2.6h1.3v1.3a1.3,1.3,0,1,0,2.6,0V50.7A1.3,1.3,0,0,0,74.1,49.4Z"/>
          <path id="Path_1249837" data-name="Path 1249837" d="M48.1,72.8H46.8V71.5a1.3,1.3,0,1,0-2.6,0v2.6a1.3,1.3,0,0,0,1.3,1.3h2.6a1.3,1.3,0,1,0,0-2.6Z"/>
          <path id="Path_1249838" data-name="Path 1249838" d="M74.1,70.2a1.3,1.3,0,0,0-1.3,1.3v1.3H71.5a1.3,1.3,0,1,0,0,2.6h2.6a1.3,1.3,0,0,0,1.3-1.3V71.5A1.3,1.3,0,0,0,74.1,70.2Z"/>
        </g>
      </g>
    </g>
  </g>
</svg>
