<svg xmlns="http://www.w3.org/2000/svg" xmlns:xlink="http://www.w3.org/1999/xlink" width="88.83" height="85.054" viewBox="0 0 88.83 85.054">
  <defs>
    <clipPath id="clip-path">
      <rect id="Rectangle_413285" data-name="Rectangle 413285" width="78" height="78" transform="translate(1237 7408.568)" fill="#fff" stroke="#707070" stroke-width="1"/>
    </clipPath>
  </defs>
  <g id="Group_1209931" data-name="Group 1209931" transform="translate(-1226.17 -7401.515)">
    <g id="Rectangle_413284" data-name="Rectangle 413284" transform="translate(1226.17 7401.515)" fill="#fd9826" stroke="#af6a1a" stroke-width="3">
      <rect width="70" height="70" rx="10" stroke="none"/>
      <rect x="1.5" y="1.5" width="67" height="67" rx="8.5" fill="none"/>
    </g>
    <g id="Mask_Group_1099379" data-name="Mask Group 1099379" clip-path="url(#clip-path)">
      <g id="agreement_14123394" transform="translate(1231.429 7402.997)">
        <circle id="Ellipse_12700" data-name="Ellipse 12700" cx="34.821" cy="34.821" r="34.821" transform="translate(9.75 9.778)" fill="#e0e0e0"/>
        <path id="Path_1249706" data-name="Path 1249706" d="M44.571,9.75a34.821,34.821,0,1,1,0,69.643" fill="#cfd2d3"/>
        <path id="Path_1249707" data-name="Path 1249707" d="M26.464,20.893H62.679V68.25H26.464Z" fill="#6090bf"/>
        <circle id="Ellipse_12701" data-name="Ellipse 12701" cx="13.929" cy="13.929" r="13.929" transform="translate(30.643 25.071)" fill="#fac240"/>
        <path id="Path_1249708" data-name="Path 1249708" d="M30.643,39H44.571V52.929A13.929,13.929,0,0,1,30.643,39Z" fill="#e5820c"/>
        <path id="Path_1249709" data-name="Path 1249709" d="M58.5,39H44.571V25.071A13.929,13.929,0,0,1,58.5,39Z" fill="#e5820c"/>
        <circle id="Ellipse_12702" data-name="Ellipse 12702" cx="12.536" cy="12.536" r="12.536" transform="translate(57.107 6.964)" fill="#71c967"/>
        <circle id="Ellipse_12703" data-name="Ellipse 12703" cx="12.536" cy="12.536" r="12.536" transform="translate(6.964 57.107)" fill="#f95f5f"/>
        <path id="Path_1249710" data-name="Path 1249710" d="M12.3,53.3A33.429,33.429,0,0,1,53.3,12.3l.724-2.674a35.2,35.2,0,0,0-9.458-1.267A36.214,36.214,0,0,0,8.357,44.571a35.2,35.2,0,0,0,1.268,9.458Z"/>
        <path id="Path_1249711" data-name="Path 1249711" d="M44.571,78a33.247,33.247,0,0,1-8.733-1.156l-.724,2.674a35.2,35.2,0,0,0,9.458,1.268A36.214,36.214,0,0,0,80.786,44.571a35.2,35.2,0,0,0-1.268-9.458l-2.674.724A33.429,33.429,0,0,1,44.571,78Z"/>
        <path id="Path_1249712" data-name="Path 1249712" d="M19.5,83.571A13.929,13.929,0,0,0,33.429,69.643h29.25a1.393,1.393,0,0,0,1.393-1.393V32.259A13.924,13.924,0,1,0,55.714,19.5H26.464a1.393,1.393,0,0,0-1.393,1.393V56.884A13.926,13.926,0,1,0,19.5,83.571ZM69.643,8.357A11.143,11.143,0,1,1,58.5,19.5,11.143,11.143,0,0,1,69.643,8.357ZM27.857,22.286H55.993a13.929,13.929,0,0,0,5.293,8.357V66.857H33.15a13.539,13.539,0,0,0-.891-2.786H58.5V61.286H30.643A13.928,13.928,0,0,0,27.857,58.5ZM19.5,58.5A11.143,11.143,0,1,1,8.357,69.643,11.143,11.143,0,0,1,19.5,58.5Z"/>
        <path id="Path_1249713" data-name="Path 1249713" d="M68.25,26.464h.111a1.393,1.393,0,0,0,1.073-.655L76.4,14.667,74.03,13.19l-5.961,9.555-2.953-3.371-2.089,1.839,4.179,4.778a1.393,1.393,0,0,0,1.045.474Z"/>
        <path id="Path_1249714" data-name="Path 1249714" d="M14.918,76.2l4.582-4.6,4.583,4.6,1.978-1.978-4.6-4.583,4.6-4.583-1.978-1.978-4.583,4.6-4.582-4.6L12.94,65.06l4.6,4.583-4.6,4.583Z"/>
        <path id="Path_1249715" data-name="Path 1249715" d="M44.571,54.321A15.321,15.321,0,1,0,29.25,39,15.321,15.321,0,0,0,44.571,54.321ZM57.107,39A12.536,12.536,0,0,1,45.964,51.452v-4.1H48.75a1.393,1.393,0,0,0,1.393-1.393V39a1.393,1.393,0,0,0-1.393-1.393H41.786V33.429h8.357V30.643H45.964v-4.1A12.536,12.536,0,0,1,57.107,39ZM43.179,26.548v4.1H40.393A1.393,1.393,0,0,0,39,32.036V39a1.393,1.393,0,0,0,1.393,1.393h6.964v4.179H39v2.786h4.179v4.1a12.536,12.536,0,0,1,0-24.9Z"/>
        <path id="Path_1249716" data-name="Path 1249716" d="M30.643,55.714H58.5V58.5H30.643Z"/>
      </g>
    </g>
  </g>
</svg>
