<svg xmlns="http://www.w3.org/2000/svg" xmlns:xlink="http://www.w3.org/1999/xlink" width="88.83" height="85.054" viewBox="0 0 88.83 85.054">
  <defs>
    <clipPath id="clip-path">
      <rect id="Rectangle_413200" data-name="Rectangle 413200" width="78" height="78" transform="translate(766.415 13457.63)" fill="#fff" stroke="#707070" stroke-width="1"/>
    </clipPath>
    <linearGradient id="linear-gradient" x1="0.12" y1="1.232" x2="0.88" y2="-0.232" gradientUnits="objectBoundingBox">
      <stop offset="0" stop-color="#7ed7de"/>
      <stop offset="1" stop-color="#c1f1ea"/>
    </linearGradient>
    <linearGradient id="linear-gradient-2" x1="0.12" y1="1.232" x2="0.88" y2="-0.232" gradientUnits="objectBoundingBox">
      <stop offset="0" stop-color="#5d99ca"/>
      <stop offset="1" stop-color="#7ed7de"/>
    </linearGradient>
    <linearGradient id="linear-gradient-3" x1="0.146" y1="0.854" x2="0.854" y2="0.146" gradientUnits="objectBoundingBox">
      <stop offset="0" stop-color="#fc8450"/>
      <stop offset="1" stop-color="#f0d160"/>
    </linearGradient>
  </defs>
  <g id="Group_1209759" data-name="Group 1209759" transform="translate(-755.585 -13450.576)">
    <g id="Rectangle_413199" data-name="Rectangle 413199" transform="translate(755.585 13450.576)" fill="#fd9826" stroke="#af6a1a" stroke-width="3">
      <rect width="70" height="70" rx="10" stroke="none"/>
      <rect x="1.5" y="1.5" width="67" height="67" rx="8.5" fill="none"/>
    </g>
    <g id="Mask_Group_1099382" data-name="Mask Group 1099382" clip-path="url(#clip-path)">
      <g id="_28-refund" data-name="28-refund" transform="translate(763.815 13460.226)">
        <g id="linear_color" data-name="linear color">
          <path id="Path_1279478" data-name="Path 1279478" d="M3.9,3.9H74.1V40.3H3.9Z" fill="url(#linear-gradient)"/>
          <path id="Path_1279479" data-name="Path 1279479" d="M3.9,11.7H74.1V48.1H3.9Z" fill="url(#linear-gradient-2)"/>
          <path id="Path_1279480" data-name="Path 1279480" d="M3.9,19.5H74.1V55.9H3.9Z" fill="#c1f1ea"/>
          <path id="Path_1279481" data-name="Path 1279481" d="M63.7,24.7H14.3a5.2,5.2,0,0,1-5.2,5.2V45.5a5.2,5.2,0,0,1,5.2,5.2H63.7a5.2,5.2,0,0,1,5.2-5.2V29.9A5.2,5.2,0,0,1,63.7,24.7Z" fill="#7ed7de"/>
          <circle id="Ellipse_12716" data-name="Ellipse 12716" cx="13" cy="13" r="13" transform="translate(53.299 42.899)" fill="url(#linear-gradient-3)"/>
          <path id="Path_1279482" data-name="Path 1279482" d="M37.7,33.8h5.2a1.3,1.3,0,1,0,0-2.6H40.3V29.9a1.3,1.3,0,1,0-2.6,0v1.3a3.9,3.9,0,1,0,0,7.8h2.6a1.3,1.3,0,0,1,0,2.6H35.1a1.3,1.3,0,1,0,0,2.6h2.6v1.3a1.3,1.3,0,0,0,2.6,0V44.2a3.9,3.9,0,0,0,0-7.8H37.7a1.3,1.3,0,0,1,0-2.6Z"/>
          <path id="Path_1279483" data-name="Path 1279483" d="M52,28.6H48.1a1.3,1.3,0,1,0,0,2.6h2.6v2.6a1.3,1.3,0,1,0,2.6,0V29.9A1.3,1.3,0,0,0,52,28.6Z"/>
          <path id="Path_1279484" data-name="Path 1279484" d="M52,40.3a1.3,1.3,0,0,0-1.3,1.3v2.6H48.1a1.3,1.3,0,0,0,0,2.6H52a1.3,1.3,0,0,0,1.3-1.3V41.6A1.3,1.3,0,0,0,52,40.3Z"/>
          <path id="Path_1279485" data-name="Path 1279485" d="M29.9,28.6H26a1.3,1.3,0,0,0-1.3,1.3v3.9a1.3,1.3,0,1,0,2.6,0V31.2h2.6a1.3,1.3,0,0,0,0-2.6Z"/>
          <path id="Path_1279486" data-name="Path 1279486" d="M29.9,44.2H27.3V41.6a1.3,1.3,0,1,0-2.6,0v3.9A1.3,1.3,0,0,0,26,46.8h3.9a1.3,1.3,0,0,0,0-2.6Z"/>
          <path id="Path_1279487" data-name="Path 1279487" d="M75.4,44.876V3.9a1.3,1.3,0,0,0-1.3-1.3H3.9A1.3,1.3,0,0,0,2.6,3.9v52a1.3,1.3,0,0,0,1.3,1.3H52.058A14.3,14.3,0,1,0,75.4,44.876ZM72.8,18.2H5.2V13H72.8Zm0-13v5.2H5.2V5.2ZM5.2,20.8H72.8V43.163a14.206,14.206,0,0,0-2.6-1.024V29.9a1.3,1.3,0,0,0-1.3-1.3A3.9,3.9,0,0,1,65,24.7a1.3,1.3,0,0,0-1.3-1.3H14.3A1.3,1.3,0,0,0,13,24.7a3.9,3.9,0,0,1-3.9,3.9,1.3,1.3,0,0,0-1.3,1.3V45.5a1.3,1.3,0,0,0,1.3,1.3A3.9,3.9,0,0,1,13,50.7,1.3,1.3,0,0,0,14.3,52h38.24a14.215,14.215,0,0,0-.481,2.6H5.2ZM67.6,41.659c-.428-.039-.861-.06-1.3-.06a14.316,14.316,0,0,0-12.735,7.8H15.468A6.491,6.491,0,0,0,10.4,44.331V31.069A6.52,6.52,0,0,0,15.47,26H62.528a6.52,6.52,0,0,0,5.07,5.07ZM66.3,67.6A11.7,11.7,0,1,1,78,55.9,11.7,11.7,0,0,1,66.3,67.6Z"/>
          <path id="Path_1279488" data-name="Path 1279488" d="M68.9,49.4H62.4a1.3,1.3,0,1,0,0,2.6h6.5a1.3,1.3,0,0,1,1.3,1.3v2.6a1.3,1.3,0,0,1-1.3,1.3H62.937l.381-.381a1.3,1.3,0,1,0-1.838-1.838l-2.6,2.6a1.3,1.3,0,0,0,0,1.838l2.6,2.6a1.3,1.3,0,1,0,1.838-1.838l-.381-.381H68.9a3.9,3.9,0,0,0,3.9-3.9V53.3a3.9,3.9,0,0,0-3.9-3.9Z"/>
        </g>
      </g>
    </g>
  </g>
</svg>
