<svg xmlns="http://www.w3.org/2000/svg" xmlns:xlink="http://www.w3.org/1999/xlink" width="86.846" height="83.141" viewBox="0 0 86.846 83.141">
  <defs>
    <clipPath id="clip-path">
      <rect id="Rectangle_413325" data-name="Rectangle 413325" width="73.833" height="73.833" transform="translate(13149.59 -9382.079)" fill="#fff" stroke="#707070" stroke-width="1"/>
    </clipPath>
  </defs>
  <g id="Group_1210063" data-name="Group 1210063" transform="translate(-13136.577 9391.387)">
    <g id="Rectangle_413324" data-name="Rectangle 413324" transform="translate(13136.577 -9391.387)" fill="#fd9826" stroke="#af6a1a" stroke-width="3">
      <rect width="70" height="70" rx="10" stroke="none"/>
      <rect x="1.5" y="1.5" width="67" height="67" rx="8.5" fill="none"/>
    </g>
    <g id="Mask_Group_1099402" data-name="Mask Group 1099402" clip-path="url(#clip-path)">
      <g id="export_3775803" transform="translate(13148.399 -9383.27)">
        <path id="Path_1250084" data-name="Path 1250084" d="M73.833,39.3H2.382V7.145A4.763,4.763,0,0,1,7.145,2.382H69.07a4.763,4.763,0,0,1,4.763,4.763Z" fill="#b5b5b5"/>
        <path id="Path_1250085" data-name="Path 1250085" d="M73.833,39.3v5.954a4.763,4.763,0,0,1-4.763,4.763H7.145a4.763,4.763,0,0,1-4.763-4.763V39.3Z" fill="#686868"/>
        <path id="Path_1250086" data-name="Path 1250086" d="M69.07,39.3H2.382v5.954a4.736,4.736,0,0,0,.168,1.191H66.688a2.382,2.382,0,0,0,2.382-2.382Z" fill="#777"/>
        <path id="Path_1250087" data-name="Path 1250087" d="M48.825,61.924l-1.044-1.31a16.977,16.977,0,0,1-3.719-10.6H32.153a16.977,16.977,0,0,1-3.719,10.6l-1.044,1.31Z" fill="#939393"/>
        <path id="Path_1250088" data-name="Path 1250088" d="M25.008,61.924h26.2a4.763,4.763,0,0,1,4.763,4.763V69.07H20.245V66.688A4.763,4.763,0,0,1,25.008,61.924Z" fill="#686868"/>
        <path id="Path_1250089" data-name="Path 1250089" d="M2.382,69.07H73.833v4.763H2.382Z" fill="#b5b5b5"/>
        <path id="Path_1250090" data-name="Path 1250090" d="M32.153,50.016a16.968,16.968,0,0,1-2.931,9.527h10.3a2.382,2.382,0,0,0,2.382-2.382V50.016Z" fill="#b5b5b5"/>
        <path id="Path_1250091" data-name="Path 1250091" d="M52.574,62.148a4.681,4.681,0,0,0-1.367-.224h-26.2a4.763,4.763,0,0,0-4.763,4.763H50.192a2.382,2.382,0,0,0,2.382-2.382Z" fill="#777"/>
        <path id="Path_1250092" data-name="Path 1250092" d="M2.382,69.07H71.169v2.382H2.382Z" fill="#ccc"/>
        <path id="Path_1250093" data-name="Path 1250093" d="M64.306,44.062h2.382v2.382H64.306Z" fill="#474747"/>
        <path id="Path_1250094" data-name="Path 1250094" d="M7.145,39.3V7.145H69.07V39.3" fill="#f2f2f2"/>
        <path id="Path_1250095" data-name="Path 1250095" d="M11.909,11.909H28.581V35.726H11.909Z" fill="#ccc"/>
        <path id="Path_1250096" data-name="Path 1250096" d="M54.779,14.29a9.527,9.527,0,1,0,9.527,9.527A9.527,9.527,0,0,0,54.779,14.29Zm0,11.909a2.382,2.382,0,1,1,2.382-2.382A2.382,2.382,0,0,1,54.779,26.2Z" fill="#ccc"/>
        <path id="Path_1250097" data-name="Path 1250097" d="M28.581,28.581h8.336V26.2l4.763,4.763-4.763,4.763V33.344H28.581" fill="#b52f28"/>
        <path id="Path_1250098" data-name="Path 1250098" d="M28.581,14.29h8.336V11.909l4.763,4.763-4.763,4.763V19.054H28.581" fill="#b52f28"/>
        <g id="Group_1210053" data-name="Group 1210053">
          <path id="Path_1250099" data-name="Path 1250099" d="M17.863,15.481h7.145v2.382H17.863Z" fill="#f2f2f2"/>
          <path id="Path_1250100" data-name="Path 1250100" d="M15.481,20.245h9.527v2.382H15.481Z" fill="#f2f2f2"/>
          <path id="Path_1250101" data-name="Path 1250101" d="M15.481,25.008h9.527V27.39H15.481Z" fill="#f2f2f2"/>
        </g>
        <path id="Path_1250102" data-name="Path 1250102" d="M38.941,17.175V13.933l-2.024-2.024V14.29H28.581v2.884Z" fill="#d23f34"/>
        <path id="Path_1250103" data-name="Path 1250103" d="M38.941,31.465V28.223L36.917,26.2v2.382H28.581v2.884Z" fill="#d23f34"/>
        <path id="Path_1250104" data-name="Path 1250104" d="M75.024,45.252V7.145A5.961,5.961,0,0,0,69.07,1.191H7.145A5.961,5.961,0,0,0,1.191,7.145V45.252a5.961,5.961,0,0,0,5.954,5.954H30.911a15.838,15.838,0,0,1-3.4,8.668l-.692.859H25.008a5.961,5.961,0,0,0-5.954,5.954v1.191H2.382A1.191,1.191,0,0,0,1.191,69.07v4.763a1.191,1.191,0,0,0,1.191,1.191H73.833a1.191,1.191,0,0,0,1.191-1.191V69.07a1.191,1.191,0,0,0-1.191-1.191H57.161V66.688a5.961,5.961,0,0,0-5.954-5.954H49.4l-.687-.859A15.838,15.838,0,0,1,45.3,51.207H69.07A5.961,5.961,0,0,0,75.024,45.252ZM7.145,3.573H69.07a3.573,3.573,0,0,1,3.573,3.573V39.3H70.26V7.145A1.191,1.191,0,0,0,69.07,5.954H7.145A1.191,1.191,0,0,0,5.954,7.145V39.3H3.573V7.145A3.573,3.573,0,0,1,7.145,3.573ZM67.879,39.3H8.336V8.336H67.879ZM3.573,45.252V41.68h69.07v3.573a3.573,3.573,0,0,1-3.573,3.573H7.145A3.573,3.573,0,0,1,3.573,45.252Zm69.07,27.39H3.573V70.26h69.07ZM54.779,66.688v1.191H21.435V66.688a3.573,3.573,0,0,1,3.573-3.573h26.2a3.573,3.573,0,0,1,3.573,3.573Zm-8.39-5.954H29.825a18.232,18.232,0,0,0,3.468-9.527h9.629a18.232,18.232,0,0,0,3.468,9.527Z"/>
        <path id="Path_1250105" data-name="Path 1250105" d="M64.306,44.062h2.382v2.382H64.306Z"/>
        <path id="Path_1250106" data-name="Path 1250106" d="M11.909,36.917H28.581a1.191,1.191,0,0,0,1.191-1.191V34.535h5.954v1.191a1.191,1.191,0,0,0,.735,1.1,1.175,1.175,0,0,0,.456.091,1.191,1.191,0,0,0,.842-.349L42.522,31.8a1.191,1.191,0,0,0,0-1.684l-4.763-4.763a1.191,1.191,0,0,0-2.033.842V27.39H29.771V20.245h5.954v1.191a1.191,1.191,0,0,0,.735,1.1,1.175,1.175,0,0,0,.456.091,1.191,1.191,0,0,0,.842-.349l4.764-4.764a1.191,1.191,0,0,0,0-1.684l-4.763-4.763a1.191,1.191,0,0,0-2.033.842V13.1H29.771V11.909a1.191,1.191,0,0,0-1.191-1.191H11.909a1.191,1.191,0,0,0-1.191,1.191V35.726a1.191,1.191,0,0,0,1.191,1.191Zm25.008-7.145A1.191,1.191,0,0,0,38.032,29L40,30.962l-1.964,1.964a1.191,1.191,0,0,0-1.116-.773H29.771V29.771Zm0-14.29a1.191,1.191,0,0,0,1.116-.773L40,16.672l-1.964,1.964a1.191,1.191,0,0,0-1.116-.773H29.771V15.481ZM13.1,13.1H27.39V34.535H13.1Z"/>
        <path id="Path_1250107" data-name="Path 1250107" d="M54.779,34.535A10.718,10.718,0,1,0,44.062,23.817,10.718,10.718,0,0,0,54.779,34.535Zm0-19.054a8.336,8.336,0,1,1-8.336,8.336,8.336,8.336,0,0,1,8.336-8.336Z"/>
        <path id="Path_1250108" data-name="Path 1250108" d="M54.779,27.39a3.573,3.573,0,1,0-3.573-3.573A3.573,3.573,0,0,0,54.779,27.39Zm0-4.763a1.191,1.191,0,1,1-1.191,1.191A1.191,1.191,0,0,1,54.779,22.626Z"/>
        <path id="Path_1250109" data-name="Path 1250109" d="M17.863,15.481h7.145v2.382H17.863Z"/>
        <path id="Path_1250110" data-name="Path 1250110" d="M15.481,20.245h9.527v2.382H15.481Z"/>
        <path id="Path_1250111" data-name="Path 1250111" d="M15.481,25.008h9.527V27.39H15.481Z"/>
      </g>
    </g>
  </g>
</svg>
